<svg width="310" height="325" viewBox="0 0 310 325" fill="none" xmlns="http://www.w3.org/2000/svg">
<path d="M308.769 268.01L218.876 111.09L276.665 111.046C276.978 111.047 277.285 110.964 277.556 110.806C277.827 110.648 278.053 110.421 278.209 110.147L308.617 56.8394C308.773 56.5661 308.855 56.2562 308.855 55.9408C308.855 55.6253 308.773 55.3154 308.617 55.0422L278.133 1.90377C277.976 1.6301 277.751 1.40294 277.48 1.24521C277.209 1.08748 276.901 1.00474 276.588 1.00536L93.9961 1.15081C93.6831 1.15026 93.3756 1.23306 93.1044 1.39086C92.8332 1.54865 92.608 1.77585 92.4516 2.04956L1.25583 161.792C1.09965 162.065 1.01745 162.375 1.01748 162.69C1.01751 163.006 1.09978 163.316 1.25602 163.589L31.7261 216.793C31.8826 217.066 32.1078 217.293 32.379 217.451C32.6502 217.609 32.9578 217.692 33.2708 217.691L91.0593 217.648L62.2097 268.204C62.0535 268.477 61.9713 268.787 61.9714 269.102C61.9714 269.418 62.0537 269.728 62.2099 270.001L92.68 323.205C92.8365 323.478 93.0617 323.705 93.3329 323.863C93.6041 324.021 93.9117 324.104 94.2247 324.103L276.863 323.957C277.176 323.959 277.484 323.876 277.755 323.718C278.026 323.56 278.251 323.333 278.407 323.059L308.797 269.807C308.949 269.531 309.026 269.22 309.021 268.904C309.016 268.589 308.929 268.28 308.769 268.01ZM124.462 59.7366L151.851 107.544L97.1477 107.55L115.035 76.2053L124.462 59.7366ZM215.763 107.505L155.918 107.549L130.743 63.5816L127.514 57.9391L204.802 57.8749L245.116 57.8705L273.533 107.475L215.763 107.505ZM276.627 105.636L248.219 56.0311L266.571 23.9039L276.58 6.39217L305.011 56.0017L276.627 105.636ZM95.0109 4.71708L273.545 4.57207L245.147 54.2343L124.438 54.3312C124.126 54.3306 123.818 54.4134 123.547 54.5712C123.276 54.729 123.05 54.9562 122.894 55.2299L92.5046 108.496C92.3494 108.769 92.2681 109.079 92.2689 109.394C92.2697 109.709 92.3524 110.018 92.5089 110.291C92.6654 110.564 92.8901 110.79 93.1605 110.947C93.4309 111.104 93.7375 111.187 94.0495 111.187L212.716 111.1L184.364 160.757L139.74 160.762L5.86203 160.87L95.0109 4.71708ZM182.375 267.213L66.7975 267.309L95.1815 217.647L153.966 217.641L182.375 267.213ZM95.2341 320.509L66.8209 270.894L185.478 270.802C185.791 270.803 186.1 270.721 186.371 270.563C186.643 270.405 186.868 270.178 187.025 269.904C187.182 269.63 187.264 269.319 187.264 269.003C187.263 268.686 187.18 268.375 187.022 268.102L156.552 214.898C156.396 214.625 156.171 214.397 155.899 214.24C155.628 214.082 155.321 213.999 155.008 214L34.294 214.097L5.88547 164.482L138.818 164.375L184.415 164.37L273.773 320.364L95.2341 320.509ZM276.858 318.571L212.897 206.903L187.495 162.54L215.782 112.878L305.172 268.908L276.858 318.571Z" fill="white" stroke="white" stroke-width="1.5"/>
</svg>
