<svg width="149" height="116" viewBox="0 0 149 116" fill="none" xmlns="http://www.w3.org/2000/svg">
<path d="M92.4535 79.3564C87.3891 79.3564 83.2734 75.2343 83.2734 70.1621C83.2734 65.0898 87.3891 60.9531 92.4535 60.9531C97.5179 60.9531 101.648 65.0752 101.648 70.1621C101.648 75.2343 97.5179 79.3564 92.4535 79.3564ZM92.4535 62.868C88.44 62.868 85.1707 66.1423 85.1707 70.1767C85.1707 74.1965 88.44 77.4708 92.4535 77.4708C96.4817 77.4708 99.7509 74.1965 99.7509 70.1767C99.7509 66.1423 96.4817 62.868 92.4535 62.868Z" fill="#4B4AA1"/>
<path d="M36.5931 18.4033C31.5287 18.4033 27.3984 14.2812 27.3984 9.20896C27.3984 4.13672 31.5287 0 36.5931 0C41.6575 0 45.7878 4.12211 45.7878 9.20896C45.7878 14.2812 41.6721 18.4033 36.5931 18.4033ZM36.5931 1.91488C32.5796 1.91488 29.2957 5.18918 29.2957 9.22358C29.2957 13.2434 32.565 16.5177 36.5931 16.5177C40.6212 16.5177 43.8905 13.2434 43.8905 9.22358C43.8905 5.18918 40.6212 1.91488 36.5931 1.91488Z" fill="#4B4AA1"/>
<path d="M49.2029 46.7886C47.1596 46.7886 45.5104 45.1369 45.5104 43.105V39.7723C45.5104 39.2461 45.9337 38.8221 46.4591 38.8221C46.9845 38.8221 47.4077 39.2461 47.4077 39.7723V43.0904C47.4077 44.0552 48.2251 44.8738 49.2029 44.8738C50.2683 44.8738 50.9105 43.9382 50.998 43.0027V30.0956C50.998 25.7688 47.4807 22.2606 43.1607 22.2606H30.4925C26.1724 22.2606 22.6551 25.7834 22.6551 30.0956V43.0904C22.6551 44.0698 23.4578 44.8738 24.4503 44.8738C25.4281 44.8738 26.2454 44.0552 26.2454 43.0904V39.7723C26.2454 39.2461 26.6687 38.8221 27.1941 38.8221C27.7195 38.8221 28.1427 39.2461 28.1427 39.7723V43.0904C28.1427 45.1222 26.4789 46.774 24.4503 46.774C22.4216 46.7886 20.7578 45.1369 20.7578 43.105V30.1102C20.7578 24.7456 25.1216 20.375 30.4925 20.375H43.1607C48.5315 20.375 52.8954 24.7456 52.8954 30.1102V43.105C52.691 45.2684 51.144 46.7886 49.2029 46.7886Z" fill="#4B4AA1"/>
<path d="M46.4452 51.9646H27.1947C26.6693 51.9646 26.2461 51.5407 26.2461 51.0145V36.2509C26.2461 35.7247 26.6693 35.3008 27.1947 35.3008C27.7202 35.3008 28.1434 35.7247 28.1434 36.2509V50.0643H45.4965V36.2509C45.4965 35.7247 45.9198 35.3008 46.4452 35.3008C46.9706 35.3008 47.3938 35.7247 47.3938 36.2509V51.0145C47.3938 51.5407 46.9706 51.9646 46.4452 51.9646Z" fill="#4B4AA1"/>
<path d="M102.984 110.463C100.956 110.463 99.3064 108.797 99.3064 106.765V103.462C99.3064 102.935 99.7296 102.512 100.255 102.512C100.78 102.512 101.204 102.935 101.204 103.462V106.765C101.204 107.759 102.006 108.563 102.984 108.563C104.093 108.563 104.706 107.598 104.794 106.692V93.785C104.794 89.4582 101.277 85.95 96.9712 85.95H84.2884C79.9684 85.95 76.4657 89.4728 76.4657 93.785V106.78C76.4657 107.759 77.2684 108.549 78.2462 108.549C79.2387 108.549 80.0414 107.745 80.0414 106.751V103.447C80.0414 102.921 80.4646 102.497 80.99 102.497C81.5154 102.497 81.9387 102.921 81.9387 103.447V106.751C81.9387 108.797 80.2749 110.449 78.2462 110.449C76.2176 110.449 74.5684 108.797 74.5684 106.765V93.7703C74.5684 88.4058 78.9322 84.0352 84.2884 84.0352H96.9712C102.327 84.0352 106.691 88.4058 106.691 93.7703V106.765C106.487 108.958 104.925 110.463 102.984 110.463Z" fill="#4B4AA1"/>
<path d="M100.257 115.652H80.9916C80.4662 115.652 80.043 115.228 80.043 114.702V99.9384C80.043 99.4122 80.4662 98.9883 80.9916 98.9883C81.517 98.9883 81.9403 99.4122 81.9403 99.9384V113.752H99.308V99.9384C99.308 99.4122 99.7312 98.9883 100.257 98.9883C100.782 98.9883 101.205 99.4122 101.205 99.9384V114.702C101.205 115.228 100.782 115.652 100.257 115.652Z" fill="#4B4AA1"/>
<path d="M107.731 16.5526H75.4326C74.717 16.5526 74.1406 16.1287 74.1406 15.6025C74.1406 15.0762 74.717 14.6523 75.4326 14.6523H107.731C108.447 14.6523 109.023 15.0762 109.023 15.6025C109.023 16.1287 108.447 16.5526 107.731 16.5526Z" fill="#4B4AA1"/>
<path d="M65.8569 103.329H35.6166C35.0912 103.329 34.668 102.905 34.668 102.379V54.9306C34.668 54.4044 35.0912 53.9805 35.6166 53.9805C36.142 53.9805 36.5653 54.4044 36.5653 54.9306V101.429H65.8569C66.3823 101.429 66.8055 101.852 66.8055 102.379C66.8055 102.905 66.3823 103.329 65.8569 103.329Z" fill="#4B4AA1"/>
<path d="M107.721 21.9901H75.4322C74.7168 21.9901 74.1406 21.5662 74.1406 21.04C74.1406 20.5137 74.7168 20.0898 75.4322 20.0898H107.721C108.436 20.0898 109.012 20.5137 109.012 21.04C109.012 21.5662 108.436 21.9901 107.721 21.9901Z" fill="#4B4AA1"/>
<path d="M107.721 27.5018H75.4322C74.7168 27.5018 74.1406 27.0779 74.1406 26.5517C74.1406 26.0255 74.7168 25.6016 75.4322 25.6016H107.721C108.436 25.6016 109.012 26.0255 109.012 26.5517C109.012 27.0779 108.436 27.5018 107.721 27.5018Z" fill="#4B4AA1"/>
<path d="M107.721 32.8807H75.4322C74.7168 32.8807 74.1406 32.4568 74.1406 31.9306C74.1406 31.4044 74.7168 30.9805 75.4322 30.9805H107.721C108.436 30.9805 109.012 31.4044 109.012 31.9306C109.012 32.4568 108.436 32.8807 107.721 32.8807Z" fill="#4B4AA1"/>
<path d="M107.721 38.2635H75.4322C74.7169 38.2635 74.1406 37.8396 74.1406 37.3134C74.1406 36.7872 74.7169 36.3633 75.4322 36.3633H107.721C108.436 36.3633 109.012 36.7872 109.012 37.3134C109.012 37.8396 108.436 38.2635 107.721 38.2635Z" fill="#4B4AA1"/>
<path d="M71.1964 60.7494C71.0359 60.7494 70.8753 60.7056 70.7294 60.6325C70.3791 60.4425 70.1894 60.0624 70.2478 59.6678L72.1597 46.556H63.6947C63.1693 46.556 62.7461 46.1321 62.7461 45.6058V10.8603C62.7461 10.3341 63.1693 9.91016 63.6947 9.91016H117.505C118.031 9.91016 118.454 10.3341 118.454 10.8603V45.6204C118.454 46.1467 118.031 46.5706 117.505 46.5706H88.4182L71.8094 60.5302C71.6343 60.6764 71.4154 60.7494 71.1964 60.7494ZM64.6726 44.6557H73.2835C73.5608 44.6557 73.8235 44.7726 73.9986 44.9919C74.1737 45.1965 74.2613 45.4743 74.2175 45.752L72.51 57.4752L87.4695 44.8896C87.6447 44.7434 87.849 44.6703 88.0825 44.6703H116.586V11.8104H64.6726V44.6557Z" fill="#4B4AA1"/>
<path opacity="0.1" d="M63.0718 12.8471C57.0453 10.5678 50.677 8.66382 44.1761 8.90318C34.6175 9.25406 25.4417 14.6029 20.9482 22.4568C17.1357 29.1112 16.6653 36.9107 15.023 44.2954C13.0019 53.3924 9.12373 62.0405 4.98303 70.4955C2.75952 75.0379 0.412943 79.6782 0.0478285 84.6571C-0.458135 91.5699 3.09318 98.4582 8.66289 103.056C14.2326 107.654 21.6292 110.081 29.0532 110.61C33.0039 110.891 37.1322 110.63 40.6412 108.919C44.3539 107.109 47.0601 103.838 50.7878 102.054C54.242 100.4 58.2829 100.169 62.161 100.384C67.2246 100.664 72.2231 101.653 77.009 103.322C82.4297 105.215 87.4702 107.958 92.8717 109.878C98.2732 111.798 104.323 112.87 109.85 111.268C115.047 109.762 119.149 106.107 122.848 102.405C128.896 96.3627 134.44 89.8409 139.424 82.904C142.762 78.2515 145.869 73.3434 147.345 67.9211C150.167 57.5539 146.284 45.8581 137.67 38.778C130.533 32.9124 120.955 30.3665 111.58 28.8215C103.031 27.4126 93.1452 27.3255 85.2754 23.6536C77.7707 20.1475 70.9416 15.8255 63.0718 12.8471Z" fill="#8121E9" fill-opacity="0.74"/>
</svg>
