<svg width="199" height="141" viewBox="0 0 199 141" fill="none" xmlns="http://www.w3.org/2000/svg">
<path opacity="0.1" d="M84.66 5.35295C76.5709 2.27521 68.0228 -0.295699 59.2967 0.0275007C46.4664 0.501282 34.15 7.7237 28.1184 18.3287C23.001 27.314 22.3695 37.8456 20.1651 47.817C17.4522 60.1004 12.2466 71.7779 6.68862 83.1945C3.70405 89.328 0.554285 95.5936 0.0641992 102.317C-0.614946 111.651 4.15192 120.952 11.628 127.161C19.1041 133.369 29.0325 136.646 38.9976 137.36C44.3004 137.74 49.8419 137.387 54.5519 135.077C59.5353 132.633 63.1678 128.217 68.1715 125.807C72.808 123.574 78.232 123.262 83.4376 123.552C90.2343 123.931 96.9437 125.266 103.368 127.519C110.644 130.075 117.41 133.779 124.66 136.372C131.91 138.965 140.031 140.412 147.45 138.249C154.425 136.216 159.931 131.28 164.897 126.281C173.015 118.122 180.456 109.316 187.147 99.9495C191.627 93.6673 195.798 87.0399 197.778 79.7183C201.567 65.7197 196.354 49.927 184.792 40.3669C175.212 32.4466 162.356 29.009 149.772 26.9229C138.296 25.0204 125.027 24.9029 114.464 19.9447C104.39 15.2105 95.2235 9.37459 84.66 5.35295Z" fill="#8121E9" fill-opacity="0.74"/>
<path d="M22.2664 102.233C22.0496 102.233 21.813 102.174 21.6159 102.055C21.3202 101.878 21.1034 101.601 21.0246 101.286L12.2924 68.6336C12.115 67.9431 12.5092 67.2526 13.1991 67.0553L26.6029 63.4645C26.9183 63.3856 27.2731 63.4251 27.5688 63.6026C27.8645 63.7802 28.0813 64.0564 28.1601 64.3721L36.8923 97.0243C37.0697 97.7148 36.6755 98.4053 35.9856 98.6026L22.5818 102.193C22.4832 102.213 22.365 102.233 22.2664 102.233ZM15.1111 69.2058L23.1731 99.372L34.0933 96.4521L26.0313 66.2661L15.1111 69.2058Z" fill="#4B4AA1"/>
<path d="M103.201 97.1644C103.201 97.1644 103.181 97.1644 103.161 97.1644C103.142 97.1644 103.142 97.1644 103.122 97.1644L34.7428 95.4282C34.1711 95.4085 33.6784 95.0336 33.5404 94.4812L26.5428 68.2411C26.4048 67.6886 26.6216 67.1165 27.1144 66.8206L85.4604 31.1103C85.8744 30.8538 86.4066 30.8538 86.8008 31.1103C87.2147 31.3668 87.4513 31.8403 87.3921 32.3138C86.446 41.9615 87.6287 53.6019 90.7037 65.0844C93.759 76.488 98.4897 87.0629 104.068 94.8955C104.324 95.1322 104.502 95.4676 104.502 95.8622C104.482 96.5922 103.91 97.1644 103.201 97.1644ZM35.7875 92.8831L100.697 94.5206C95.5133 86.6683 91.1373 76.5669 88.2397 65.7552C85.3422 54.9632 84.1003 44.0134 84.6523 34.6024L29.263 68.5173L35.7875 92.8831Z" fill="#4B4AA1"/>
<path d="M122.44 110.479C110.061 110.479 95.5538 91.1838 88.6942 65.6145C81.0856 37.2042 85.3236 12.207 98.3726 8.7149C99.3581 8.45842 100.383 8.32031 101.428 8.32031C113.826 8.32031 128.334 27.6157 135.154 53.185C142.763 81.5953 138.525 106.592 125.496 110.104C124.53 110.361 123.485 110.479 122.44 110.479ZM101.428 10.8851C100.62 10.8851 99.8115 10.9838 99.0428 11.2008C87.7875 14.2194 84.1803 38.8417 91.1779 64.9634C97.6432 89.053 111.362 107.914 122.44 107.914C123.268 107.914 124.076 107.816 124.845 107.599C136.1 104.58 139.688 79.9578 132.69 53.836C126.264 29.7464 112.525 10.8851 101.428 10.8851Z" fill="#4B4AA1"/>
<path d="M131.171 106.1C131.013 106.1 130.875 106.08 130.737 106.021C119.422 101.838 107.832 84.2 101.919 62.1031C96.0052 40.0062 97.2076 18.9154 104.935 9.62288C105.289 9.20856 105.861 9.05073 106.354 9.22829C117.668 13.3912 129.239 31.0687 135.172 53.1854C141.085 75.3021 139.883 96.3928 132.156 105.646C131.9 105.942 131.545 106.1 131.171 106.1ZM106.334 11.9904C99.7504 20.9476 98.9225 41.0124 104.383 61.4323C109.843 81.8522 120.585 98.8195 130.757 103.278C137.34 94.3607 138.168 74.2959 132.688 53.8562C127.228 33.3968 116.485 16.4295 106.334 11.9904Z" fill="#4B4AA1"/>
<path d="M67.5649 140.667C67.1116 140.667 66.6779 140.43 66.4414 139.996L41.6443 94.9539C41.4275 94.5395 41.4275 94.0463 41.6838 93.6517C41.9203 93.2571 42.3737 93.0401 42.827 93.0598L58.0443 93.8293C58.4779 93.849 58.8919 94.1055 59.1087 94.4803L80.8308 133.564C81.0082 133.88 81.0476 134.255 80.9293 134.61C80.8111 134.945 80.5548 135.222 80.2197 135.379L68.0774 140.568C67.9197 140.627 67.7423 140.667 67.5649 140.667ZM44.9953 95.743L68.1366 137.747L77.8937 133.564L57.1967 96.3546L44.9953 95.743Z" fill="#4B4AA1"/>
<path d="M150.429 47.3456C149.857 47.3456 149.345 46.9708 149.187 46.3986C149.01 45.7081 149.404 45.0176 150.094 44.8203L163.359 41.269C164.049 41.0914 164.739 41.486 164.936 42.1765C165.114 42.8671 164.72 43.5576 164.03 43.7549L150.764 47.3062C150.646 47.3259 150.547 47.3456 150.429 47.3456Z" fill="#4B4AA1"/>
<path d="M166.909 63.6429H153.189C152.48 63.6429 151.908 63.0708 151.908 62.3605C151.908 61.6503 152.48 61.0781 153.189 61.0781H166.909C167.618 61.0781 168.19 61.6503 168.19 62.3605C168.19 63.0708 167.618 63.6429 166.909 63.6429Z" fill="#4B4AA1"/>
<path d="M164.878 83.6699C164.76 83.6699 164.661 83.6501 164.543 83.6304L151.297 80.0791C150.607 79.9015 150.213 79.1913 150.39 78.5008C150.567 77.8102 151.277 77.4156 151.967 77.5932L165.213 81.1445C165.903 81.3221 166.297 82.0323 166.12 82.7228C165.962 83.295 165.43 83.6699 164.878 83.6699Z" fill="#4B4AA1"/>
<path d="M133.087 19.5675C132.752 19.5675 132.436 19.4492 132.18 19.1927C131.687 18.6994 131.687 17.8708 132.18 17.3776L141.878 7.67071C142.371 7.17747 143.199 7.17747 143.692 7.67071C144.184 8.16394 144.184 8.99258 143.692 9.48581L133.994 19.1927C133.737 19.4492 133.422 19.5675 133.087 19.5675Z" fill="#4B4AA1"/>
<path d="M143.591 32.3111C143.138 32.3111 142.724 32.0743 142.487 31.66C142.132 31.0484 142.349 30.2592 142.96 29.9041L154.846 23.0382C155.457 22.6831 156.246 22.9001 156.601 23.5117C156.956 24.1234 156.739 24.9125 156.128 25.2677L144.242 32.1335C144.025 32.2519 143.808 32.3111 143.591 32.3111Z" fill="#4B4AA1"/>
</svg>
