<svg xmlns="http://www.w3.org/2000/svg" fill="none" viewBox="0 0 500 4258">
    <path stroke="#4B4AA1" stroke-miterlimit="10" stroke-width="7" d="M251.035 32.465v435.549"/>
    <path fill="#4B4AA1" stroke="#4B4AA1" stroke-miterlimit="10" stroke-width="4" d="M246.6 3407.29c-66.495 0-120.4-53.9-120.4-120.4 0-66.49 53.905-120.4 120.4-120.4S367 3220.4 367 3286.89c0 66.5-53.905 120.4-120.4 120.4z"/>
    <path fill="#fff" d="M247.387 3163.937H123.48v245.123h123.907z"/>
    <path fill="#4B4AA1" stroke="#4B4AA1" stroke-miterlimit="10" stroke-width="4" d="M246.733 3374.69c-47.757 0-86.472-38.71-86.472-86.47s38.715-86.47 86.472-86.47c47.757 0 86.472 38.71 86.472 86.47s-38.715 86.47-86.472 86.47z"/>
    <path fill="#fff" d="M246.404 3365.41c-42.451 0-76.864-34.41-76.864-76.86s34.413-76.87 76.864-76.87c42.45 0 76.864 34.42 76.864 76.87s-34.414 76.86-76.864 76.86z"/>
    <path stroke="#4B4AA1" stroke-miterlimit="10" stroke-width="7" d="M251.035 1832.358v436.836M251 508v570.68m0 1230.622v873.572m0-1906.613v570.68"/>
    <path fill="#4B4AA1" stroke="#4B4AA1" stroke-miterlimit="10" stroke-width="4" d="M254.4 511.292c66.495 0 120.4-53.905 120.4-120.4s-53.905-120.4-120.4-120.4S134 324.397 134 390.892s53.905 120.4 120.4 120.4z"/>
    <path fill="#fff" d="M254.4 267.937h124.574v249.847H254.4z"/>
    <path fill="#4B4AA1" stroke="#4B4AA1" stroke-miterlimit="10" stroke-width="4" d="M254.267 478.69c47.757 0 86.472-38.715 86.472-86.472 0-47.757-38.715-86.472-86.472-86.472-47.757 0-86.472 38.715-86.472 86.472 0 47.757 38.715 86.472 86.472 86.472z"/>
    <path fill="#fff" d="M254.596 469.412c42.451 0 76.864-34.414 76.864-76.864 0-42.451-34.413-76.864-76.864-76.864-42.45 0-76.864 34.413-76.864 76.864 0 42.45 34.414 76.864 76.864 76.864z"/>
    <path fill="#4B4AA1" stroke="#4B4AA1" stroke-miterlimit="10" stroke-width="4" d="M254.4 2307.29c66.495 0 120.4-53.9 120.4-120.4 0-66.49-53.905-120.4-120.4-120.4S134 2120.4 134 2186.89c0 66.5 53.905 120.4 120.4 120.4z"/>
    <path fill="#fff" d="M254.4 2063.937h124.694v246.697H254.4z"/>
    <path fill="#4B4AA1" stroke="#4B4AA1" stroke-miterlimit="10" stroke-width="4" d="M254.267 2274.69c47.757 0 86.472-38.71 86.472-86.47s-38.715-86.47-86.472-86.47c-47.757 0-86.472 38.71-86.472 86.47s38.715 86.47 86.472 86.47z"/>
    <path fill="#fff" d="M254.596 2265.41c42.451 0 76.864-34.41 76.864-76.86s-34.413-76.87-76.864-76.87c-42.45 0-76.864 34.42-76.864 76.87s34.414 76.86 76.864 76.86z"/>
    <path fill="#4B4AA1" stroke="#4B4AA1" stroke-miterlimit="10" stroke-width="4" d="M246.557 1316.29c-66.495 0-120.4-53.9-120.4-120.4 0-66.49 53.905-120.4 120.4-120.4s120.4 53.91 120.4 120.4c0 66.5-53.905 120.4-120.4 120.4z"/>
    <path fill="#fff" d="M247.344 1072.937H123.437v249.06h123.907z"/>
    <path fill="#4B4AA1" stroke="#4B4AA1" stroke-miterlimit="10" stroke-width="4" d="M246.69 1283.69c-47.757 0-86.472-38.71-86.472-86.47s38.715-86.47 86.472-86.47c47.757 0 86.472 38.71 86.472 86.47s-38.715 86.47-86.472 86.47z"/>
    <path fill="#fff" d="M246.361 1274.41c-42.451 0-76.864-34.41-76.864-76.86s34.413-76.87 76.864-76.87c42.45 0 76.864 34.42 76.864 76.87s-34.414 76.86-76.864 76.86z"/>
    <path fill="#4B4AA1" stroke="#4B4AA1" stroke-miterlimit="10" stroke-width="4" d="M251.067 36.045c9.407 0 17.034-7.621 17.034-17.023 0-9.4-7.627-17.022-17.034-17.022-9.408 0-17.034 7.621-17.034 17.023 0 9.4 7.626 17.022 17.034 17.022zm228.967 372c9.407 0 17.033-7.621 17.033-17.022 0-9.402-7.626-17.023-17.033-17.023-9.408 0-17.034 7.621-17.034 17.023 0 9.401 7.626 17.022 17.034 17.022zm-461 808.005c9.407 0 17.033-7.63 17.033-17.03 0-9.4-7.626-17.02-17.033-17.02C9.626 1182 2 1189.62 2 1199.02c0 9.4 7.626 17.03 17.034 17.03zm446 990c9.407 0 17.033-7.63 17.033-17.03 0-9.4-7.626-17.02-17.033-17.02-9.408 0-17.034 7.62-17.034 17.02 0 9.4 7.626 17.03 17.034 17.03zm-428 1109c9.407 0 17.033-7.63 17.033-17.03 0-9.4-7.626-17.02-17.033-17.02-9.408 0-17.034 7.62-17.034 17.02 0 9.4 7.626 17.03 17.034 17.03zm209 940c9.407 0 17.033-7.63 17.033-17.03 0-9.4-7.626-17.02-17.033-17.02-9.408 0-17.034 7.62-17.034 17.02 0 9.4 7.626 17.03 17.034 17.03z"/>
    <path stroke="#4B4AA1" stroke-miterlimit="10" stroke-width="7" d="M464.957 2189L341 2190.1M248 3375v863M36 1198l123.957 1.1M37 3297l123.957 1.1"/>
    <path fill="#4B4AA1" d="M237.63 367v4.48h11.55V416h5.04v-49h-16.59zm32.083 49.35c2.03 0 3.78-1.68 3.78-3.85s-1.75-3.78-3.78-3.78-3.71 1.61-3.71 3.78 1.68 3.85 3.71 3.85zM257.3 2184l13.86-17.43V2163h-31.5v4.48h25.06l-13.58 17.01v3.71h3.5c9.1 0 13.23 3.85 13.23 9.73 0 6.09-4.48 9.87-12.6 9.87-6.37 0-12.04-2.38-15.19-5.67l-2.45 3.99c3.78 3.85 10.57 6.3 17.64 6.3 11.83 0 17.78-6.3 17.78-14.49 0-7.84-5.25-13.37-15.75-13.93zm26.632 28.35c2.03 0 3.78-1.68 3.78-3.85s-1.75-3.78-3.78-3.78-3.71 1.61-3.71 3.78 1.68 3.85 3.71 3.85zm-50.782-993.83l16.66-16.38c6.58-6.44 8.05-10.64 8.05-15.33 0-8.19-6.3-13.23-16.24-13.23-7.49 0-13.58 2.52-17.36 7l3.57 3.08c3.22-3.71 7.63-5.46 13.37-5.46 7.49 0 11.48 3.5 11.48 9.17 0 3.36-1.05 6.65-6.58 12.11l-20.37 19.95v3.57h34.37v-4.48h-26.95zm37.739 4.83c2.03 0 3.78-1.68 3.78-3.85s-1.75-3.78-3.78-3.78-3.71 1.61-3.71 3.78 1.68 3.85 3.71 3.85zm-6.599 2081.29h-9.8v-11.34h-4.9v11.34h-21.28l25.06-31.64h-5.6l-25.97 32.48v3.64h27.65V3322h5.04v-12.88h9.8v-4.48zm9.776 17.71c2.03 0 3.78-1.68 3.78-3.85s-1.75-3.78-3.78-3.78-3.71 1.61-3.71 3.78 1.68 3.85 3.71 3.85z"/>
    <path stroke="#4B4AA1" stroke-miterlimit="10" stroke-width="7" d="M464.957 393L341 394.097"/>
</svg>