<svg width="188" height="132" viewBox="0 0 188 132" fill="none" xmlns="http://www.w3.org/2000/svg">
<path opacity="0.1" d="M79.9803 5.03827C72.3383 2.14146 64.2628 -0.278316 56.019 0.025884C43.8979 0.471814 32.2623 7.26965 26.5641 17.2512C21.7296 25.7083 21.133 35.6208 19.0504 45.006C16.4875 56.5674 11.5697 67.5583 6.3189 78.3038C3.49931 84.0767 0.523646 89.9741 0.0606505 96.3018C-0.580954 105.087 3.92242 113.842 10.9853 119.685C18.0481 125.529 27.4277 128.613 36.8419 129.285C41.8517 129.643 47.0868 129.311 51.5364 127.137C56.2444 124.836 59.6762 120.679 64.4032 118.412C68.7835 116.31 73.9076 116.016 78.8255 116.289C85.2464 116.646 91.585 117.902 97.654 120.022C104.528 122.428 110.92 125.915 117.769 128.355C124.619 130.796 132.29 132.158 139.299 130.122C145.889 128.208 151.091 123.562 155.782 118.858C163.452 111.179 170.482 102.89 176.802 94.0739C181.035 88.161 184.975 81.9231 186.846 75.032C190.425 61.8563 185.5 46.992 174.577 37.9939C165.527 30.5392 153.382 27.3037 141.493 25.3402C130.652 23.5495 118.116 23.4389 108.136 18.7722C98.6198 14.3164 89.9599 8.82349 79.9803 5.03827Z" fill="#8121E9" fill-opacity="0.74"/>
<path d="M88.951 61.2768C86.3735 61.0827 83.9344 60.9769 81.7201 60.9945L81.6855 54.5021L88.9337 54.4492L88.9683 61.1709L88.951 61.2768Z" stroke="#4B4AA1" stroke-width="4" stroke-miterlimit="10" stroke-linecap="round" stroke-linejoin="round"/>
<path d="M100.296 62.6442C97.9253 62.1827 95.5207 61.8067 93.1503 61.5332L93.1675 61.4307L93.0645 45.3989L100.244 45.3477L100.347 62.4391L100.296 62.6442Z" stroke="#4B4AA1" stroke-width="4" stroke-miterlimit="10" stroke-linecap="round" stroke-linejoin="round"/>
<path d="M112 36.6992L112.187 65.2032L111.932 65.8302C109.856 64.949 107.525 64.2033 105.074 63.5594L104.904 36.7501L112 36.6992Z" stroke="#4B4AA1" stroke-width="4" stroke-miterlimit="10" stroke-linecap="round" stroke-linejoin="round"/>
<path d="M128.448 73.1155L128.117 24.0081L135.437 23.957L135.733 69.3538L135.855 69.6431C133.293 70.7155 130.766 71.89 128.448 73.1155Z" stroke="#4B4AA1" stroke-width="4" stroke-miterlimit="10" stroke-linecap="round" stroke-linejoin="round"/>
<path d="M123.555 30.3281L123.847 75.5868L124.019 75.8608C122.85 76.6142 121.784 77.3848 120.872 78.1211C121.268 77.1793 121.371 76.0491 121.148 74.6792C120.752 72.2305 118.947 70.1242 116.281 68.3947V68.3776L116.608 67.9324L116.367 30.3795L123.555 30.3281Z" stroke="#4B4AA1" stroke-width="4" stroke-miterlimit="10" stroke-linecap="round" stroke-linejoin="round"/>
<path d="M49.3658 98.4361C47.5926 98.6407 46.3479 100.243 46.5525 102C46.7742 103.756 48.3598 105.018 50.116 104.813C51.8892 104.608 53.1338 103.006 52.9122 101.249C52.7246 99.4762 51.139 98.2315 49.3658 98.4361ZM33.1171 121.813L28.8887 79.8338L47.2857 74.0195L63.9265 100.516L64.8472 107.319L33.1171 121.813Z" stroke="#4B4AA1" stroke-width="4" stroke-miterlimit="10" stroke-linecap="round" stroke-linejoin="round"/>
<path d="M112.319 102.105C92.4216 103.71 88.2949 90.7404 63.8082 100.45L47.0957 73.9317C53.1061 70.4335 63.3117 64.6827 71.0001 62.2083C72.0789 61.867 73.1234 61.594 74.0824 61.3892C75.8632 61.0308 78.4317 60.8261 81.4968 60.8261C83.6886 60.809 86.1031 60.9114 88.6545 61.0991C90.1442 61.2185 91.6682 61.3551 93.2093 61.5598C95.5895 61.8499 97.9697 62.2083 100.333 62.669C101.908 62.9762 103.449 63.3175 104.956 63.71C107.422 64.3584 109.768 65.1093 111.857 65.9967C113.535 66.6792 115.059 67.4642 116.377 68.3174V68.3345C119.049 70.0751 120.83 72.157 121.223 74.5972C121.446 75.9624 121.343 77.0887 120.949 78.0272C121.857 77.2934 122.919 76.5255 124.083 75.7747C125.419 74.9044 126.874 74.0341 128.449 73.1979C130.727 71.9693 133.21 70.7747 135.727 69.7167C141.035 67.4471 146.515 65.6895 150.693 65.0922C150.761 65.0752 150.813 65.0752 150.881 65.0752C155.111 64.495 161.344 64.8363 161.789 70.2628C162.508 78.9828 123.929 101.167 112.319 102.105Z" stroke="#4B4AA1" stroke-width="4" stroke-miterlimit="10" stroke-linecap="round" stroke-linejoin="round"/>
<path d="M47.5488 73.9165C53.5183 70.4223 63.6544 64.6782 71.2905 62.2067C72.3619 61.8658 73.3993 61.5931 74.3517 61.3885C76.1204 61.0306 78.6715 60.8261 81.7157 60.8261C83.8926 60.809 86.2906 60.9113 88.8246 61.0988C90.3042 61.2181 91.8178 61.3544 93.3484 61.559C95.7124 61.8487 98.0764 62.2067 100.423 62.6669C101.988 62.9737 103.519 63.3146 105.015 63.7066C107.464 64.3543 109.794 65.1043 111.869 65.9906C113.536 66.6724 115.049 67.4565 116.359 68.3087V68.3258C119.012 70.0643 120.781 72.1438 121.172 74.5812C121.393 75.9448 121.291 77.0697 120.9 78.0072C117.702 85.7285 95.5423 79.3367 91.0355 78.1777" stroke="#4B4AA1" stroke-width="4" stroke-miterlimit="2.6131" stroke-linecap="round" stroke-linejoin="round"/>
<path d="M63.9355 100.453C88.3857 90.7545 92.4892 103.709 112.374 102.107C123.967 101.186 162.506 79.0102 161.787 70.3C161.36 64.8966 155.119 64.5557 150.896 65.1182C150.828 65.1182 150.776 65.1182 150.708 65.1353C146.519 65.7489 141.048 67.4875 135.764 69.7546C133.251 70.8114 130.772 72.0045 128.498 73.2318C126.925 74.067 125.471 74.9364 124.138 75.8057C122.975 76.5557 121.915 77.3227 121.009 78.0557" stroke="#4B4AA1" stroke-width="4" stroke-miterlimit="2.6131" stroke-linecap="round" stroke-linejoin="round"/>
<path d="M63.9095 100.516L64.8472 107.319L33.1171 121.813L28.8887 79.8338L47.2857 74.0195L63.9095 100.516Z" stroke="#4B4AA1" stroke-width="4" stroke-miterlimit="2.6131" stroke-linecap="round" stroke-linejoin="round"/>
<path d="M49.4453 98.1721C51.208 97.9545 52.7842 99.2599 52.9876 101.164C53.208 103.031 51.9707 104.717 50.208 104.953C48.4623 105.17 46.8691 103.847 46.6657 101.961C46.4454 100.094 47.6996 98.4078 49.4453 98.1721Z" stroke="#4B4AA1" stroke-width="4" stroke-miterlimit="2.6131" stroke-linecap="round" stroke-linejoin="round"/>
<path d="M105.074 63.7725V63.7213L104.904 36.7504L112 36.6992L112.187 65.375" stroke="#4B4AA1" stroke-width="4" stroke-miterlimit="2.6131" stroke-linecap="round" stroke-linejoin="round"/>
<path d="M71.4025 62.1455C71.3854 62.1115 71.3684 62.0604 71.3684 62.0264C70.0357 58.1114 69.4206 53.89 69.4035 49.5494C69.2326 26.2467 88.0953 7.26741 111.469 7.11421C134.842 6.96102 153.91 25.702 154.063 49.0047C154.098 54.6219 153.038 59.9837 151.073 64.886C151.073 64.903 151.056 64.903 151.056 64.9201" stroke="#4B4AA1" stroke-width="4" stroke-miterlimit="2.6131" stroke-linecap="round" stroke-linejoin="round"/>
<g clip-path="url(#clip0)">
<path d="M79.5429 42.6175C79.1111 42.6175 78.7112 42.3403 78.5672 41.9164C78.3753 41.3621 78.6472 40.7588 79.191 40.5631C79.463 40.4653 107.262 30.1445 119.45 15.6822C119.818 15.242 120.474 15.1931 120.922 15.5681C121.353 15.9431 121.401 16.6116 121.033 17.0681C108.478 31.9543 81.0624 42.1284 79.8948 42.5523C79.7829 42.6012 79.6549 42.6175 79.5429 42.6175Z" fill="#4B4AA1"/>
<path d="M120.088 23.9146C119.512 23.9146 119.048 23.4417 119.048 22.8548V17.5884L114.217 17.621C113.642 17.621 113.178 17.1481 113.178 16.5612C113.178 15.9742 113.642 15.5014 114.217 15.5014L120.088 15.4688C120.359 15.4688 120.631 15.5829 120.823 15.7785C121.015 15.9742 121.127 16.2514 121.127 16.5286V22.8548C121.127 23.4417 120.663 23.9146 120.088 23.9146Z" fill="#4B4AA1"/>
</g>
<defs>
<clipPath id="clip0">
<rect x="78.502" y="15.3047" width="42.7861" height="27.3103" fill="white"/>
</clipPath>
</defs>
</svg>
