<svg width="148" height="111" viewBox="0 0 148 111" fill="none" xmlns="http://www.w3.org/2000/svg">
<path opacity="0.1" d="M62.9632 9.61004C56.9472 7.32778 50.5898 5.42135 44.1001 5.66102C34.5579 6.01234 25.398 11.368 20.9122 19.232C17.1062 25.895 16.6366 33.7045 14.9971 41.0987C12.9795 50.2074 9.10803 58.8666 4.97445 67.3325C2.75477 71.8807 0.412232 76.5269 0.0477462 81.5122C-0.457347 88.4339 3.08786 95.3311 8.64798 99.9351C14.2081 104.539 21.592 106.968 29.0032 107.498C32.9471 107.78 37.0683 107.519 40.5712 105.805C44.2775 103.993 46.9791 100.718 50.7004 98.9315C54.1487 97.2756 58.1826 97.0441 62.0541 97.2593C67.1089 97.5401 72.0988 98.5303 76.8765 100.201C82.2878 102.096 87.3197 104.843 92.7119 106.766C98.1041 108.688 104.143 109.761 109.661 108.157C114.849 106.65 118.944 102.989 122.637 99.2828C128.675 93.2329 134.209 86.7027 139.185 79.7569C142.517 75.0984 145.618 70.184 147.091 64.7547C149.909 54.3742 146.032 42.6634 137.433 35.5742C130.309 29.701 120.747 27.1519 111.388 25.6049C102.853 24.1942 92.9849 24.107 85.1286 20.4304C77.6369 16.9198 70.8195 12.5922 62.9632 9.61004Z" fill="#8121E9" fill-opacity="0.74"/>
<path d="M125.953 74.8182H31.1811C30.6676 74.8182 30.2539 74.4032 30.2539 73.8881V18.2269C30.2539 17.7118 30.6676 17.2969 31.1811 17.2969H125.953C126.466 17.2969 126.88 17.7118 126.88 18.2269V73.9024C126.88 74.4032 126.466 74.8182 125.953 74.8182ZM32.1083 72.958H125.026V19.157H32.1083V72.958Z" fill="#4B4AA1"/>
<path d="M134.054 19.1582H23.0639C22.5504 19.1582 22.1367 18.7433 22.1367 18.2281V10.2152C22.1367 9.70011 22.5504 9.28516 23.0639 9.28516H134.054C134.568 9.28516 134.981 9.70011 134.981 10.2152V18.2281C134.981 18.7433 134.568 19.1582 134.054 19.1582ZM23.9911 17.2981H133.127V11.1453H23.9911V17.2981Z" fill="#4B4AA1"/>
<path d="M103.672 66.2928H97.0248C96.5113 66.2928 96.0977 65.8778 96.0977 65.3627V31.4652C96.0977 30.9501 96.5113 30.5352 97.0248 30.5352H103.672C104.185 30.5352 104.599 30.9501 104.599 31.4652V65.3627C104.599 65.8778 104.185 66.2928 103.672 66.2928ZM97.952 64.4327H102.745V32.3953H97.952V64.4327Z" fill="#4B4AA1"/>
<path d="M92.7735 66.2917H86.1264C85.6129 66.2917 85.1992 65.8768 85.1992 65.3617V35.6566C85.1992 35.1415 85.6129 34.7266 86.1264 34.7266H92.7735C93.2871 34.7266 93.7007 35.1415 93.7007 35.6566V65.3617C93.7007 65.8768 93.2871 66.2917 92.7735 66.2917ZM87.0536 64.4316H91.8464V36.5867H87.0536V64.4316Z" fill="#4B4AA1"/>
<path d="M81.8888 66.2932H75.2416C74.7281 66.2932 74.3145 65.8782 74.3145 65.3631V39.7504C74.3145 39.2353 74.7281 38.8203 75.2416 38.8203H81.8888C82.4023 38.8203 82.8159 39.2353 82.8159 39.7504V65.3631C82.8159 65.8782 82.4023 66.2932 81.8888 66.2932ZM76.1688 64.433H80.9616V40.6805H76.1688V64.433Z" fill="#4B4AA1"/>
<path d="M71.0046 66.2923H64.3432C63.8297 66.2923 63.416 65.8773 63.416 65.3622V45.4301C63.416 44.915 63.8297 44.5 64.3432 44.5H71.0046C71.5181 44.5 71.9318 44.915 71.9318 45.4301V65.3479C71.9318 65.8773 71.5181 66.2923 71.0046 66.2923ZM65.2704 64.4321H70.0632V46.3744H65.2704V64.4321Z" fill="#4B4AA1"/>
<path d="M60.1095 66.2916H53.4623C52.9488 66.2916 52.5352 65.8767 52.5352 65.3616V51.3676C52.5352 50.8525 52.9488 50.4375 53.4623 50.4375H60.1095C60.623 50.4375 61.0367 50.8525 61.0367 51.3676V65.3616C61.0367 65.8767 60.623 66.2916 60.1095 66.2916ZM54.3895 64.4315H59.1823V52.2976H54.3895V64.4315Z" fill="#4B4AA1"/>
<path d="M108.193 70.4109H48.9389C48.4254 70.4109 48.0117 69.996 48.0117 69.4809C48.0117 68.9657 48.4254 68.5508 48.9389 68.5508H108.193C108.706 68.5508 109.12 68.9657 109.12 69.4809C109.12 69.996 108.706 70.4109 108.193 70.4109Z" fill="#4B4AA1"/>
<path d="M53.4756 46.3732C53.0905 46.3732 52.7339 46.13 52.6055 45.7579C52.4344 45.2714 52.6768 44.742 53.1618 44.5703C53.4043 44.4845 78.1956 35.427 89.065 22.7351C89.4073 22.3488 89.9779 22.3058 90.3773 22.635C90.7624 22.9641 90.8052 23.5507 90.4771 23.9514C79.2797 37.0153 54.8165 45.9583 53.7895 46.3303C53.6896 46.3589 53.5755 46.3732 53.4756 46.3732Z" fill="#4B4AA1"/>
<path d="M89.6504 29.9615C89.1369 29.9615 88.7233 29.5465 88.7233 29.0314V24.4383L84.4155 24.4669C83.9019 24.4669 83.4883 24.0519 83.4883 23.5368C83.4883 23.0217 83.9019 22.6067 84.4155 22.6067L89.6504 22.5781C89.9357 22.5924 90.1354 22.6783 90.3066 22.85C90.4778 23.0217 90.5776 23.2649 90.5776 23.5082V29.0457C90.5776 29.5465 90.164 29.9615 89.6504 29.9615Z" fill="#4B4AA1"/>
<path d="M82.1599 11.1465H74.9565C74.443 11.1465 74.0293 10.7316 74.0293 10.2165V4.55019C74.0293 2.04616 76.0548 0 78.5511 0C81.0473 0 83.0871 2.04616 83.0871 4.55019V10.2165C83.1014 10.7316 82.6734 11.1465 82.1599 11.1465ZM75.8979 9.2864H81.247V4.55019C81.247 3.06208 80.0488 1.86014 78.5653 1.86014C77.0961 1.86014 75.8979 3.06208 75.8979 4.55019V9.2864Z" fill="#4B4AA1"/>
<path d="M122.314 110.05C121.801 110.05 121.387 109.636 121.387 109.12V104.828C121.387 101.494 118.677 98.7752 115.353 98.7752H105.297C101.973 98.7752 99.2631 101.494 99.2631 104.828V109.12C99.2631 109.636 98.8495 110.05 98.336 110.05C97.8225 110.05 97.4088 109.636 97.4088 109.12V104.828C97.4088 100.464 100.946 96.9007 105.311 96.9007H115.367C119.718 96.9007 123.256 100.449 123.256 104.828V109.12C123.241 109.636 122.828 110.05 122.314 110.05ZM89.3352 110.05C88.8217 110.05 88.408 109.636 88.408 109.12V104.828C88.408 101.494 85.6978 98.7752 82.3743 98.7752H72.318C68.9944 98.7752 66.2842 101.494 66.2842 104.828V109.12C66.2842 109.636 65.8705 110.05 65.357 110.05C64.8435 110.05 64.4298 109.636 64.4298 109.12V104.828C64.4298 100.464 67.9674 96.9007 72.3322 96.9007H82.3885C86.7391 96.9007 90.2767 100.449 90.2767 104.828V109.12C90.2624 109.636 89.8345 110.05 89.3352 110.05ZM58.8097 110.05C58.2962 110.05 57.8825 109.636 57.8825 109.12V104.828C57.8825 101.494 55.1723 98.7752 51.8487 98.7752H41.7924C38.4689 98.7752 35.7587 101.494 35.7587 104.828V109.12C35.7587 109.636 35.345 110.05 34.8315 110.05C34.318 110.05 33.9043 109.636 33.9043 109.12V104.828C33.9043 100.464 37.4418 96.9007 41.7924 96.9007H51.8487C56.1993 96.9007 59.7369 100.449 59.7369 104.828V109.12C59.7369 109.636 59.3232 110.05 58.8097 110.05ZM110.147 95.6988C106.024 95.6988 102.687 92.3505 102.687 88.2296C102.687 84.0943 106.039 80.7461 110.147 80.7461C114.269 80.7461 117.607 84.1087 117.607 88.2296C117.607 92.3505 114.255 95.6988 110.147 95.6988ZM104.555 88.7018C104.798 91.5778 107.208 93.8386 110.147 93.8386C113.242 93.8386 115.753 91.3203 115.753 88.2296C115.753 88.015 115.738 87.8003 115.724 87.6C114.084 87.7431 112.5 87.3424 111.145 86.4982C109.462 88.2582 107.009 89.1167 104.555 88.7018ZM104.698 86.8416C106.823 87.2566 108.949 86.3981 110.232 84.681C110.389 84.4807 110.603 84.3519 110.86 84.309C111.102 84.2661 111.359 84.3519 111.559 84.5093C112.586 85.3392 113.927 85.7685 115.182 85.7685C114.269 83.894 112.358 82.6062 110.133 82.6062C107.522 82.6062 105.325 84.4091 104.698 86.8416ZM77.1535 95.6988C73.0312 95.6988 69.6933 92.3505 69.6933 88.2296C69.6933 84.0943 73.0454 80.7461 77.1535 80.7461C80.5627 80.7461 83.4583 83.0641 84.3427 86.212C84.357 86.2693 84.3855 86.3265 84.3855 86.3838C84.3855 86.3981 84.3998 86.4267 84.3998 86.441C84.5424 87.0133 84.6137 87.6286 84.6137 88.2439C84.628 92.3505 81.2759 95.6988 77.1535 95.6988ZM71.5762 88.7018C71.8187 91.5778 74.2294 93.8386 77.1678 93.8386C80.2631 93.8386 82.7737 91.3203 82.7737 88.2296C82.7737 88.015 82.7594 87.8003 82.7451 87.6C81.1333 87.7431 79.5357 87.3424 78.1806 86.4839C76.4974 88.2439 74.0297 89.1167 71.5762 88.7018ZM71.7189 86.8416C73.8585 87.2566 75.9981 86.3694 77.2677 84.681C77.4246 84.4807 77.6385 84.3519 77.8953 84.309C78.1378 84.2661 78.3945 84.3519 78.5942 84.5093C79.6355 85.3535 80.8337 85.7685 82.2031 85.7685C81.2902 83.894 79.3788 82.6062 77.1535 82.6062C74.5432 82.6062 72.3465 84.4091 71.7189 86.8416ZM46.628 95.6988C42.5056 95.6988 39.1678 92.3505 39.1678 88.2296C39.1678 84.0943 42.5199 80.7461 46.628 80.7461C50.7504 80.7461 54.0882 84.1087 54.0882 88.2296C54.1025 92.3505 50.7504 95.6988 46.628 95.6988ZM41.0507 88.7018C41.2932 91.5778 43.7038 93.8386 46.6423 93.8386C49.7376 93.8386 52.2481 91.3203 52.2481 88.2296C52.2481 88.015 52.2339 87.8003 52.2196 87.6C50.5792 87.7431 48.9959 87.3424 47.6408 86.4982C45.9576 88.2582 43.5327 89.1167 41.0507 88.7018ZM41.1933 86.8416C43.3472 87.2566 45.4441 86.3981 46.7279 84.681C46.8848 84.4807 47.0987 84.3519 47.3555 84.309C47.598 84.2661 47.8547 84.3519 48.0544 84.5093C49.0815 85.3392 50.4223 85.7685 51.6776 85.7685C50.7647 83.894 48.8532 82.6062 46.628 82.6062C44.0177 82.6062 41.821 84.4091 41.1933 86.8416Z" fill="#4B4AA1"/>
</svg>
