<svg width="438" height="1192" viewBox="0 0 438 1192" fill="none" xmlns="http://www.w3.org/2000/svg">
<path d="M212.034 36.045C221.441 36.045 229.068 28.424 229.068 19.023C229.068 9.62101 221.441 2 212.034 2C202.626 2 195 9.62101 195 19.023C195 28.424 202.626 36.045 212.034 36.045Z" fill="#4B4AA1" stroke="#4B4AA1" stroke-width="4" stroke-miterlimit="10"/>
<path d="M418.034 422.05C427.441 422.05 435.067 414.42 435.067 405.02C435.067 395.62 427.441 388 418.034 388C408.626 388 401 395.62 401 405.02C401 414.42 408.626 422.05 418.034 422.05Z" fill="#4B4AA1" stroke="#4B4AA1" stroke-width="4" stroke-miterlimit="10"/>
<path d="M294 405L417.957 406.1" stroke="#4B4AA1" stroke-width="7" stroke-miterlimit="10"/>
<path d="M212 492V1192" stroke="#4B4AA1" stroke-width="7" stroke-miterlimit="10"/>
<path d="M212 19V319" stroke="#4B4AA1" stroke-width="7" stroke-miterlimit="10"/>
<mask id="mask0" mask-type="alpha" maskUnits="userSpaceOnUse" x="0" y="286" width="213" height="240">
<path d="M213 286H0V526H213V286Z" fill="white"/>
</mask>
<g mask="url(#mask0)">
<path d="M216 520C279.508 520 331 468.513 331 405C331 341.487 279.508 290 216 290C152.487 290 101 341.487 101 405C101 468.513 152.487 520 216 520Z" fill="#4B4AA1" stroke="#4B4AA1" stroke-width="4" stroke-miterlimit="10"/>
</g>
<path d="M217.267 492.225C265.02 492.225 303.74 453.51 303.74 405.753C303.74 357.996 265.02 319.281 217.267 319.281C169.51 319.281 130.795 357.996 130.795 405.753C130.795 453.51 169.51 492.225 217.267 492.225Z" fill="#4B4AA1" stroke="#4B4AA1" stroke-width="4" stroke-miterlimit="10"/>
<path d="M217.596 482.947C260.05 482.947 294.46 448.533 294.46 406.083C294.46 363.632 260.05 329.219 217.596 329.219C175.146 329.219 140.732 363.632 140.732 406.083C140.732 448.533 175.146 482.947 217.596 482.947Z" fill="white"/>
<path d="M199 380V384.48H210.55V429H215.59V380H199ZM231.083 429.35C233.113 429.35 234.863 427.67 234.863 425.5C234.863 423.33 233.113 421.72 231.083 421.72C229.053 421.72 227.373 423.33 227.373 425.5C227.373 427.67 229.053 429.35 231.083 429.35Z" fill="#4B4AA1"/>
</svg>
