<svg width="437" height="1223" viewBox="0 0 437 1223" fill="none" xmlns="http://www.w3.org/2000/svg">
<path d="M19.034 454.05C28.441 454.05 36.067 446.42 36.067 437.02C36.067 427.62 28.441 420 19.034 420C9.626 420 2 427.62 2 437.02C2 446.42 9.626 454.05 19.034 454.05Z" fill="#4B4AA1" stroke="#4B4AA1" stroke-width="4" stroke-miterlimit="10"/>
<path d="M19 437L142.957 438.1" stroke="#4B4AA1" stroke-width="7" stroke-miterlimit="10"/>
<path d="M211 523V1223" stroke="#4B4AA1" stroke-width="7" stroke-miterlimit="10"/>
<path d="M211 0V350" stroke="#4B4AA1" stroke-width="7" stroke-miterlimit="10"/>
<mask id="mask0" mask-type="alpha" maskUnits="userSpaceOnUse" x="214" y="317" width="223" height="240">
<path d="M437 317H214V557H437V317Z" fill="white"/>
</mask>
<g mask="url(#mask0)">
<path d="M220 551C283.508 551 335 499.513 335 436C335 372.487 283.508 321 220 321C156.487 321 105 372.487 105 436C105 499.513 156.487 551 220 551Z" fill="#4B4AA1" stroke="#4B4AA1" stroke-width="4" stroke-miterlimit="10"/>
</g>
<path d="M219.267 523.225C267.02 523.225 305.74 484.51 305.74 436.753C305.74 388.996 267.02 350.281 219.267 350.281C171.51 350.281 132.795 388.996 132.795 436.753C132.795 484.51 171.51 523.225 219.267 523.225Z" fill="#4B4AA1" stroke="#4B4AA1" stroke-width="4" stroke-miterlimit="10"/>
<path d="M219.596 513.947C262.05 513.947 296.46 479.533 296.46 437.083C296.46 394.632 262.05 360.219 219.596 360.219C177.146 360.219 142.732 394.632 142.732 437.083C142.732 479.533 177.146 513.947 219.596 513.947Z" fill="white"/>
<path d="M202.89 456.94L219.55 440.56C226.13 434.12 227.6 429.92 227.6 425.23C227.6 417.04 221.3 412 211.36 412C203.87 412 197.78 414.52 194 419L197.57 422.08C200.79 418.37 205.2 416.62 210.94 416.62C218.43 416.62 222.42 420.12 222.42 425.79C222.42 429.15 221.37 432.44 215.84 437.9L195.47 457.85V461.42H229.84V456.94H202.89ZM240.629 461.77C242.659 461.77 244.41 460.09 244.41 457.92C244.41 455.75 242.659 454.14 240.629 454.14C238.599 454.14 236.919 455.75 236.919 457.92C236.919 460.09 238.599 461.77 240.629 461.77Z" fill="#4B4AA1"/>
</svg>
