<svg xmlns="http://www.w3.org/2000/svg" fill="none" viewBox="0 0 439 1255">
  <rect width="100%" height="100%"/>
  <mask id="a" maskUnits="userSpaceOnUse" x="216" y="313" width="223" height="240">
    <path d="M439 313H216v240h223V313z" fill="#fff"/>
  </mask>
  <g class="currentLayer">
    <path d="M215.773 1252.05c9.407 0 17.034-7.63 17.034-17.03 0-9.4-7.627-17.02-17.034-17.02-9.408 0-17.034 7.62-17.034 17.02 0 9.4 7.626 17.03 17.034 17.03zM20.773 449.05c9.407 0 17.033-7.63 17.033-17.03 0-9.4-7.626-17.02-17.033-17.02-9.408 0-17.034 7.62-17.034 17.02 0 9.4 7.626 17.03 17.034 17.03z" fill="#4B4AA1" stroke="#4B4AA1" stroke-width="4" stroke-miterlimit="10"/>
    <path d="M20.74 432l123.956 1.1M215.74 518v700M215.609 0v350" stroke="#4B4AA1" stroke-width="7" stroke-miterlimit="10"/>
    <g mask="url(#a)">
      <path d="M220.74 546c63.507 0 115-51.487 115-115s-51.493-115-115-115c-63.514 0-115 51.487-115 115s51.486 115 115 115z" fill="#4B4AA1" stroke="#4B4AA1" stroke-width="4" stroke-miterlimit="10"/>
    </g>
    <path d="M221.006 518.225c47.753 0 86.473-38.715 86.473-86.472 0-47.757-38.72-86.472-86.473-86.472-47.757 0-86.472 38.715-86.472 86.472 0 47.757 38.715 86.472 86.472 86.472z" fill="#4B4AA1" stroke="#4B4AA1" stroke-width="4" stroke-miterlimit="10"/>
    <path d="M221.335 508.947c42.454 0 76.864-34.414 76.864-76.864 0-42.451-34.41-76.864-76.864-76.864-42.45 0-76.864 34.413-76.864 76.864 0 42.45 34.414 76.864 76.864 76.864z" fill="#fff"/>
    <path d="M236.23 439.64h-9.8V428.3h-4.9v11.34h-21.28L225.31 408h-5.6l-25.97 32.48v3.64h27.65V457h5.04v-12.88h9.8v-4.48zm9.78 17.71c2.03 0 3.78-1.68 3.78-3.85s-1.75-3.78-3.78-3.78c-2.035 0-3.715 1.61-3.715 3.78s1.68 3.85 3.714 3.85z" fill="#4B4AA1"/>
  </g>
</svg>