<svg xmlns="http://www.w3.org/2000/svg" fill="none" viewBox="0 0 436 1223">
  <rect width="100%" height="100%"/>
  <mask id="a" maskUnits="userSpaceOnUse" x="0" y="317" width="213" height="240">
    <path d="M213 317H0v240h213V317z" fill="#fff"/>
  </mask>
  <g class="currentLayer">
    <path d="M410.478 453.05c9.407 0 17.033-7.63 17.033-17.03 0-9.4-7.626-17.02-17.033-17.02-9.408 0-17.034 7.62-17.034 17.02 0 9.4 7.626 17.03 17.034 17.03z" fill="#4B4AA1" stroke="#4B4AA1" stroke-width="4" stroke-miterlimit="10"/>
    <path d="M286.444 436l123.957 1.1M214.111 524.111v700M210.444 0v350" stroke="#4B4AA1" stroke-width="7" stroke-miterlimit="10"/>
    <g mask="url(#a)">
      <path d="M209.444 551c63.508 0 115-51.487 115-115s-51.492-115-115-115c-63.513 0-115 51.487-115 115s51.487 115 115 115z" fill="#4B4AA1" stroke="#4B4AA1" stroke-width="4" stroke-miterlimit="10"/>
    </g>
    <path d="M209.711 523.225c47.753 0 86.473-38.715 86.473-86.472 0-47.757-38.72-86.472-86.473-86.472-47.757 0-86.472 38.715-86.472 86.472 0 47.757 38.715 86.472 86.472 86.472z" fill="#4B4AA1" stroke="#4B4AA1" stroke-width="4" stroke-miterlimit="10"/>
    <path d="M210.04 513.947c42.454 0 76.864-34.414 76.864-76.864 0-42.451-34.41-76.864-76.864-76.864-42.45 0-76.864 34.413-76.864 76.864 0 42.45 34.414 76.864 76.864 76.864z" fill="#fff"/>
    <path d="M205.114 433l13.86-17.43V412h-31.5v4.48h25.06l-13.58 17.01v3.71h3.5c9.1 0 13.23 3.85 13.23 9.73 0 6.09-4.48 9.87-12.6 9.87-6.37 0-12.04-2.38-15.19-5.67l-2.45 3.99c3.78 3.85 10.57 6.3 17.64 6.3 11.83 0 17.78-6.3 17.78-14.49 0-7.84-5.25-13.37-15.75-13.93zm26.63 28.35c2.03 0 3.78-1.68 3.78-3.85s-1.75-3.78-3.78-3.78-3.71 1.61-3.71 3.78 1.68 3.85 3.71 3.85z" fill="#4B4AA1"/>
  </g>
</svg>