<svg xmlns="http://www.w3.org/2000/svg" viewBox="0 0 178 720" fill="none">
<path d="M89.75155818481446,-1.0112781575908247 V277.3958618869009 " stroke="#4B4AA1" stroke-width="7" stroke-miterlimit="10" id="svg_1" class=""/>
<path d="M91.25532615203858,441.8458490320454 V720.2529890765371 " stroke="#4B4AA1" stroke-width="7" stroke-miterlimit="10" class="" id="svg_6"/>
<path d="M87.72020034027099,445.2137218475342 C135.477200340271,445.2137218475342 174.192200340271,406.49872184753417 174.192200340271,358.74172184753417 C174.192200340271,310.98472184753416 135.477200340271,272.2697218475342 87.72020034027099,272.2697218475342 C39.963000340270995,272.2697218475342 1.2481203402709964,310.98472184753416 1.2481203402709964,358.74172184753417 C1.2481203402709964,406.49872184753417 39.963000340270995,445.2137218475342 87.72020034027099,445.2137218475342 z" fill="#4B4AA1" stroke="#4B4AA1" stroke-width="4" stroke-miterlimit="10" id="svg_3" class=""/>
<path d="M88.049700340271,435.9357218475342 C130.500200340271,435.9357218475342 164.913200340271,401.52272184753417 164.913200340271,359.0717218475342 C164.913200340271,316.6207218475342 130.500200340271,282.2077218475342 88.049700340271,282.2077218475342 C45.598800340271,282.2077218475342 11.185600340270996,316.6207218475342 11.185600340270996,359.0717218475342 C11.185600340270996,401.52272184753417 45.598800340271,435.9357218475342 88.049700340271,435.9357218475342 z" fill="white" id="svg_4" class=""/>
<path d="M90.753200340271,354.5237218475342 L104.61320034027099,337.0937218475342 V333.5237218475342 H73.11320034027099 V338.00372184753417 H98.173200340271 L84.593200340271,355.01372184753416 V358.7237218475342 H88.093200340271 C97.19320034027099,358.7237218475342 101.323200340271,362.57372184753416 101.323200340271,368.45372184753415 C101.323200340271,374.5437218475342 96.843200340271,378.32372184753416 88.72320034027099,378.32372184753416 C82.353200340271,378.32372184753416 76.683200340271,375.94372184753416 73.533200340271,372.6537218475342 L71.08320034027099,376.64372184753415 C74.86320034027099,380.4937218475342 81.653200340271,382.94372184753416 88.72320034027099,382.94372184753416 C100.55320034027099,382.94372184753416 106.503200340271,376.64372184753415 106.503200340271,368.45372184753415 C106.503200340271,360.6137218475342 101.253200340271,355.0837218475342 90.753200340271,354.5237218475342 zM117.385200340271,382.87372184753417 C119.415200340271,382.87372184753417 121.165200340271,381.19372184753416 121.165200340271,379.0237218475342 C121.165200340271,376.8537218475342 119.415200340271,375.2437218475342 117.385200340271,375.2437218475342 C115.355200340271,375.2437218475342 113.67520034027099,376.8537218475342 113.67520034027099,379.0237218475342 C113.67520034027099,381.19372184753416 115.355200340271,382.87372184753417 117.385200340271,382.87372184753417 z" fill="#4B4AA1" id="svg_5" class=""/>
</svg>