<svg xmlns="http://www.w3.org/2000/svg" width="178" height="909" viewBox="0 0 178 909">
    <path d="M88.733,518.19 C40.9758,518.19 2.2609700000000004,479.475 2.2609700000000004,431.7180000000001 C2.2609700000000004,383.96080000000006 40.9758,345.24609 88.733,345.24609 C136.49,345.24609 175.205,383.96080000000006 175.205,431.7180000000001 C175.205,479.475 136.49,518.19 88.733,518.19 z" fill="#4B4AA1" stroke="#4B4AA1" stroke-width="4" stroke-miterlimit="10" id="svg_1" class=""/>
    <path d="M88.4035,508.91200000000003 C45.9527,508.91200000000003 11.5395,474.49800000000005 11.5395,432.0475 C11.5395,389.59670000000006 45.9527,355.1836 88.4035,355.1836 C130.854,355.1836 165.268,389.59670000000006 165.268,432.0475 C165.268,474.49800000000005 130.854,508.91200000000003 88.4035,508.91200000000003 z" fill="white" id="svg_2" class=""/>
    <path d="M93.75,519.7499852554573 L93.75,902.75 " stroke="#4B4AA1" stroke-width="7" stroke-miterlimit="10" id="svg_3" class=""/>
    <path d="M92.5,-0.25001862682358933 L92.5,344 " stroke="#4B4AA1" stroke-width="7" stroke-miterlimit="10" class="" id="svg_5"/>
    <path d="M106.29,448.14 H96.49 V436.79999999999995 H91.59 V448.14 H70.31 L95.37,416.5 H89.77 L63.8,448.98 V452.62 H91.45 V465.5 H96.49 V452.62 H106.29 V448.14 zM116.066,465.85 C118.096,465.85 119.846,464.1700000000001 119.846,462 C119.846,459.8299999999999 118.096,458.22 116.066,458.22 C114.036,458.22 112.356,459.8299999999999 112.356,462 C112.356,464.1700000000001 114.036,465.85 116.066,465.85 z" fill="#4B4AA1" id="svg_4" class=""/>
    <path fill="#4B4AA1" fill-opacity="1" stroke="#4B4AA1" stroke-opacity="1" stroke-width="7" stroke-dasharray="none" stroke-linejoin="miter" stroke-linecap="butt" stroke-dashoffset="" fill-rule="nonzero" opacity="1" marker-start="" marker-mid="" marker-end="" d="M274.7236785888672,945.8703002929688 C274.7236785888672,941.4504107902062 278.0800321800274,937.8703002929688 282.2236785888672,937.8703002929688 C286.367324997707,937.8703002929688 289.7236785888672,941.4504107902062 289.7236785888672,945.8703002929688 C289.7236785888672,950.2901897957313 286.367324997707,953.8703002929688 282.2236785888672,953.8703002929688 C278.0800321800274,953.8703002929688 274.7236785888672,950.2901897957313 274.7236785888672,945.8703002929688 z" id="svg_6" class="selected"/>
</svg>