<svg xmlns="http://www.w3.org/2000/svg" fill="none" viewBox="0 0 178 713">
<path d="M92.22077739238739,1.2380673885345461 L92.22077739238739,275.9523396193981 " stroke="#4B4AA1" stroke-width="7" stroke-miterlimit="10" class="" id="svg_5"/>
<path d="M91.10966670513153,440.12694239616394 L91.10966670513153,714.8412146270275 " stroke="#4B4AA1" stroke-width="7" stroke-miterlimit="10" class="" id="svg_1"/>
<path d="M87.9108795381546,444.2614294910431 C40.153679538154606,444.2614294910431 1.438779538154602,405.5464294910431 1.438779538154602,357.7894294910431 C1.438779538154602,310.0322294910431 40.153679538154606,271.3175194910431 87.9108795381546,271.3175194910431 C135.6677795381546,271.3175194910431 174.3827795381546,310.0322294910431 174.3827795381546,357.7894294910431 C174.3827795381546,405.5464294910431 135.6677795381546,444.2614294910431 87.9108795381546,444.2614294910431 z" fill="#4B4AA1" stroke="#4B4AA1" stroke-width="4" stroke-miterlimit="10" id="svg_2" class=""/>
<path d="M87.58137953815461,434.9834294910431 C45.13047953815461,434.9834294910431 10.717279538154601,400.5694294910431 10.717279538154601,358.1189294910431 C10.717279538154601,315.6681294910431 45.13047953815461,281.2550294910431 87.58137953815461,281.2550294910431 C130.0317795381546,281.2550294910431 164.4457795381546,315.6681294910431 164.4457795381546,358.1189294910431 C164.4457795381546,400.5694294910431 130.0317795381546,434.9834294910431 87.58137953815461,434.9834294910431 z" fill="white" id="svg_3" class=""/><path d="M74.37077953815461,379.0914294910431 L91.0307795381546,362.7114294910431 C97.6107795381546,356.2714294910431 99.0807795381546,352.0714294910431 99.0807795381546,347.3814294910431 C99.0807795381546,339.1914294910431 92.7807795381546,334.1514294910431 82.8407795381546,334.1514294910431 C75.3507795381546,334.1514294910431 69.26077953815461,336.6714294910431 65.48077953815461,341.1514294910431 L69.0507795381546,344.23142949104306 C72.2707795381546,340.5214294910431 76.6807795381546,338.7714294910431 82.4207795381546,338.7714294910431 C89.9107795381546,338.7714294910431 93.90077953815461,342.2714294910431 93.90077953815461,347.9414294910431 C93.90077953815461,351.3014294910431 92.8507795381546,354.5914294910431 87.3207795381546,360.0514294910431 L66.9507795381546,380.0014294910431 V383.5714294910431 H101.3207795381546 V379.0914294910431 H74.37077953815461 zM112.1097795381546,383.9214294910431 C114.1397795381546,383.9214294910431 115.8897795381546,382.2414294910431 115.8897795381546,380.0714294910431 C115.8897795381546,377.9014294910431 114.1397795381546,376.2914294910431 112.1097795381546,376.2914294910431 C110.0797795381546,376.2914294910431 108.3997795381546,377.9014294910431 108.3997795381546,380.0714294910431 C108.3997795381546,382.2414294910431 110.0797795381546,383.9214294910431 112.1097795381546,383.9214294910431 z" fill="#4B4AA1" id="svg_4" class=""/>
</svg>