<svg width="178" height="1048" viewBox="0 0 178 1048" fill="none" xmlns="http://www.w3.org/2000/svg">
<path d="M86.0352 32.4648V468.014" stroke="#4B4AA1" stroke-width="7" stroke-miterlimit="10"/>
<path d="M86 479L86 1048" stroke="#4B4AA1" stroke-width="7" stroke-miterlimit="10"/>
<path d="M89.267 478.69C137.024 478.69 175.739 439.975 175.739 392.218C175.739 344.461 137.024 305.746 89.267 305.746C41.5098 305.746 2.79492 344.461 2.79492 392.218C2.79492 439.975 41.5098 478.69 89.267 478.69Z" fill="#4B4AA1" stroke="#4B4AA1" stroke-width="4" stroke-miterlimit="10"/>
<path d="M89.5965 469.412C132.047 469.412 166.46 434.998 166.46 392.548C166.46 350.097 132.047 315.684 89.5965 315.684C47.1456 315.684 12.7324 350.097 12.7324 392.548C12.7324 434.998 47.1456 469.412 89.5965 469.412Z" fill="white"/>
<path d="M86.0669 36.045C95.4744 36.045 103.101 28.4238 103.101 19.0225C103.101 9.62124 95.4744 2 86.0669 2C76.6595 2 69.0332 9.62124 69.0332 19.0225C69.0332 28.4238 76.6595 36.045 86.0669 36.045Z" fill="#4B4AA1" stroke="#4B4AA1" stroke-width="4" stroke-miterlimit="10"/>
<path d="M72.63 367V371.48H84.18V416H89.22V367H72.63ZM104.713 416.35C106.743 416.35 108.493 414.67 108.493 412.5C108.493 410.33 106.743 408.72 104.713 408.72C102.683 408.72 101.003 410.33 101.003 412.5C101.003 414.67 102.683 416.35 104.713 416.35Z" fill="#4B4AA1"/>
</svg>
