<svg width="200" height="200" viewBox="0 0 200 200" fill="none" xmlns="http://www.w3.org/2000/svg">
<path d="M180.532 144.34C179.742 145.89 179.742 147.64 179.302 149.27C177.862 155.255 174.823 160.737 170.512 165.13C170.036 165.613 169.498 166.03 168.912 166.37C168.267 166.787 167.507 166.987 166.741 166.942C165.975 166.897 165.243 166.609 164.652 166.12C164.069 165.622 163.666 164.946 163.503 164.197C163.34 163.447 163.428 162.665 163.752 161.97C165.322 157.981 166.657 153.905 167.752 149.76C167.99 148.797 168.161 147.818 168.262 146.83C168.462 144.65 168.342 144.51 166.162 144.35C161.813 144.13 157.454 144.388 153.162 145.12C152.392 145.23 151.612 145.37 150.842 145.5C150.038 145.74 149.175 145.687 148.406 145.35C147.638 145.012 147.014 144.413 146.647 143.659C146.279 142.904 146.192 142.044 146.399 141.231C146.607 140.418 147.097 139.705 147.782 139.22C149.653 137.61 151.801 136.352 154.122 135.51C161.023 132.939 168.52 132.415 175.712 134C176.895 134.2 177.989 134.754 178.85 135.59C179.711 136.426 180.297 137.504 180.532 138.68V144.34Z" fill="#FE9A00"/>
<path d="M100.999 19.7602C100.729 19.7602 100.489 19.7602 100.359 19.4902H100.999C101.089 19.5402 101.129 19.6002 101.099 19.6602C101.069 19.7202 100.999 19.7602 100.999 19.7602Z" fill="#6F757B"/>
<path d="M101 19.7602C100.995 19.6703 100.995 19.5802 101 19.4902H101.63C101.48 19.8002 101.23 19.7902 101 19.7602Z" fill="#84898F"/>
<path d="M94.0515 180.51C79.4715 180.51 65.9715 176.51 53.2415 169.63C41.5215 163.27 31.2415 154.98 21.2415 146.27C19.3415 144.62 19.0315 142.55 20.2415 140.83C21.4515 139.11 23.6115 138.75 25.8915 139.97C32.0315 143.24 38.0915 146.66 44.2715 149.85C54.5715 155.17 65.2715 159.59 76.6015 162.1C87.1222 164.311 97.9404 164.734 108.602 163.35C124.298 161.369 139.623 157.111 154.091 150.71C155.026 150.24 156.047 149.964 157.091 149.9C158.091 149.868 159.077 150.138 159.922 150.672C160.767 151.207 161.432 151.983 161.831 152.9C162.17 153.79 162.219 154.764 161.971 155.683C161.723 156.603 161.192 157.42 160.451 158.02C158.276 159.897 155.933 161.571 153.451 163.02C138.426 172.277 121.52 178.055 103.972 179.93C100.677 180.295 97.366 180.488 94.0515 180.51Z" fill="#FE9A00"/>
<path d="M145.181 115.79C144.591 114.92 143.921 114.11 143.261 113.3C139.277 108.499 137.186 102.406 137.382 96.17C137.511 83.28 137.381 70.39 137.431 57.49C137.483 53.813 137.273 50.137 136.801 46.49C135.801 39.44 132.981 33.36 127.371 28.78C122.102 24.48 115.941 22.11 109.371 20.72C107.101 20.24 104.821 19.87 102.541 19.46H101.601C101.421 19.65 101.191 19.61 100.971 19.62C100.751 19.63 100.511 19.62 100.341 19.46H90.2615C90.1315 19.87 89.7615 19.75 89.4815 19.78C85.4039 20.2172 81.3825 21.0751 77.4815 22.34C63.7615 27 54.7215 36 51.8315 50.55C51.3115 53.14 52.3315 54.68 55.0015 55.04C60.9215 55.82 66.8515 56.54 72.7715 57.27C75.8815 57.66 77.2615 56.85 77.9815 53.76C80.2215 44.17 89.1515 40.69 96.0515 41.2C102.311 41.67 106.721 45.3 108.051 51.31C108.951 55.31 108.531 59.46 108.601 63.54C108.601 64.54 107.821 64.36 107.251 64.4C101.761 64.76 96.2515 65.27 90.8415 66.03C83.1915 67.1 75.7115 68.72 68.6815 72.03C62.6215 74.89 57.4815 78.82 53.8715 84.51C48.0015 93.72 47.0015 103.74 49.2815 114.15C51.0515 122.34 55.4615 128.83 63.0315 132.68C74.0315 138.23 85.2615 137.36 96.4215 133.44C102.421 131.32 107.171 127.02 111.551 122.44C112.371 121.59 112.721 121.67 113.351 122.61C116.089 126.9 119.422 130.779 123.251 134.13C125.381 135.9 127.661 136 129.751 134.2C134.685 129.96 139.601 125.71 144.501 121.45C146.461 119.76 146.671 118 145.181 115.79ZM108.601 88C108.601 92.35 108.601 96.72 107.221 100.89C105.351 106.4 102.661 111.36 97.2815 114.29C88.6715 118.97 79.8715 114.61 78.3515 104.92C77.811 101.707 77.9714 98.4152 78.8215 95.27C81.0715 87.27 87.0715 83.53 94.6415 81.77C98.8638 80.9667 103.154 80.5715 107.451 80.59C108.341 80.59 108.641 80.8 108.621 81.71C108.561 83.82 108.601 85.92 108.601 88Z" fill="#343B45"/>
</svg>
