<svg width="200" height="200" viewBox="0 0 200 200" fill="none" xmlns="http://www.w3.org/2000/svg">
<path d="M115.122 73.58C115.122 77.03 115.122 80.4799 115.122 83.9299C115.122 85.4399 114.702 85.5899 113.412 84.9299C108.902 82.7599 104.412 80.6199 99.8019 78.5699C99.3462 78.4034 98.964 78.0813 98.7226 77.6606C98.4811 77.2398 98.3958 76.7474 98.4819 76.2699C98.6419 69.6033 98.7652 62.9366 98.8519 56.2699C98.8519 55.0299 99.1019 54.6399 100.362 55.1899C104.802 57.1299 109.252 59.0399 113.742 60.8799C114.21 61.0238 114.609 61.3344 114.863 61.7527C115.118 62.1711 115.21 62.6682 115.122 63.15C115.092 66.67 115.122 70.12 115.122 73.58Z" fill="#F6A70D"/>
<path d="M44.5183 151.66C39.1083 149.12 34.0683 146.73 28.9883 144.42C27.9883 143.97 27.9883 143.29 27.9883 142.42C28.0883 135.83 28.2183 129.23 28.2183 122.64C28.2183 120.81 28.7983 120.78 30.2183 121.41C34.5183 123.296 38.8516 125.126 43.2183 126.9C43.6406 127.022 44.0059 127.29 44.2494 127.656C44.4929 128.022 44.5988 128.463 44.5483 128.9C44.5083 136.35 44.5183 143.76 44.5183 151.66Z" fill="#F6A70D"/>
<path d="M62.351 117.62C56.921 115.07 51.811 112.62 46.681 110.27C45.801 109.86 45.841 109.16 45.851 108.41C45.941 101.74 46.041 95.0602 46.081 88.4102C46.081 87.0502 46.361 86.6302 47.771 87.2602C52.141 89.1702 56.551 91.0002 61.001 92.8402C61.781 93.1702 62.431 93.4802 62.421 94.5602C62.341 102.11 62.351 109.67 62.351 117.62Z" fill="#F6A70D"/>
<path d="M25.8309 118.46C20.3509 115.89 15.3009 113.46 10.2409 111.17C9.37095 110.76 9.33095 110.17 9.34095 109.35C9.43095 102.6 9.53095 95.8503 9.58095 89.1003C9.58095 87.8203 9.95095 87.4903 11.1809 88.0303C15.6209 89.9703 20.0843 91.8736 24.5709 93.7403C24.9643 93.8469 25.3073 94.0889 25.5397 94.4237C25.772 94.7585 25.8787 95.1645 25.8409 95.5703C25.8109 103.05 25.8309 110.53 25.8309 118.46Z" fill="#F6A70D"/>
<path d="M117.91 71.9999C117.91 68.7899 117.91 65.5799 117.91 62.3799C117.838 61.9006 117.942 61.4113 118.203 61.003C118.464 60.5946 118.865 60.295 119.33 60.1599C123.39 58.5799 127.43 56.9699 131.43 55.2599C132.91 54.6299 133.04 55.1999 133.03 56.4699C132.99 62.7966 132.99 69.1299 133.03 75.4699C133.102 75.9518 132.995 76.4433 132.73 76.8521C132.465 77.2608 132.059 77.5588 131.59 77.6899C127.59 79.3399 123.59 81.0699 119.59 82.8799C118.02 83.5999 117.84 83.0199 117.87 81.6199C118 78.3999 117.91 75.1899 117.91 71.9999Z" fill="#F6A70D"/>
<path d="M28.7401 116.29C28.7401 108.81 28.7401 101.73 28.7401 94.6602C28.6888 94.339 28.7517 94.01 28.918 93.7304C29.0843 93.4508 29.3433 93.2384 29.6501 93.1302C34.2201 91.3002 38.7801 89.4402 43.6501 87.4502V104C43.6501 109.87 43.6501 109.86 38.1901 112.18C35.2001 113.49 32.2001 114.8 28.7401 116.29Z" fill="#F6A70D"/>
<path d="M65.2695 103.79C65.2695 100.66 65.2695 97.54 65.2695 94.41C65.1754 93.8992 65.272 93.3716 65.5412 92.9274C65.8103 92.4831 66.2332 92.1531 66.7295 92C70.7295 90.48 74.6695 88.86 78.6095 87.21C79.7495 86.74 80.2395 86.82 80.2295 88.21C80.1762 94.71 80.1762 101.207 80.2295 107.7C80.2698 108.102 80.1692 108.505 79.9447 108.841C79.7203 109.176 79.3862 109.424 78.9995 109.54C74.9095 111.27 70.8295 113.01 66.7795 114.81C65.3895 115.43 65.2795 114.81 65.2895 113.66C65.2795 110.37 65.2695 107.08 65.2695 103.79Z" fill="#F6A70D"/>
<path d="M62.3806 120.64C62.3806 128.02 62.3806 135.08 62.3806 142.14C62.3806 142.97 61.8706 143.25 61.2406 143.53C56.7806 145.43 52.3406 147.35 47.8606 149.28C47.2206 148.63 47.4506 147.95 47.4506 147.35C47.4506 141.25 47.5106 135.15 47.3906 129.05C47.3906 127.17 47.9706 126.33 49.7306 125.69C53.9006 124.19 58.0006 122.42 62.3806 120.64Z" fill="#F6A70D"/>
<path d="M64.4092 55.0596C69.2092 57.1896 73.6992 59.1896 78.1892 61.1596C78.4942 61.2807 78.7488 61.5023 78.9106 61.7878C79.0725 62.0734 79.1319 62.4056 79.0792 62.7296C78.9192 68.9096 78.7592 75.0796 78.6592 81.2596C78.6592 82.4896 78.1192 82.6096 77.1192 82.2596C73.2792 81.0496 69.4292 79.8396 65.5792 78.6696C65.215 78.6127 64.8876 78.4155 64.667 78.1202C64.4465 77.8248 64.3503 77.4549 64.3992 77.0896C64.4192 69.8996 64.4092 62.6796 64.4092 55.0596Z" fill="#F6A70D"/>
<path d="M82.6809 73.5699C82.6809 70.4499 82.7609 67.3199 82.6809 64.1999C82.5983 63.64 82.725 63.0693 83.0368 62.597C83.3486 62.1247 83.8236 61.784 84.3709 61.6399C87.6209 60.2699 90.8309 58.7799 94.0109 57.2599C95.4609 56.5699 96.1609 56.4499 96.1209 58.4999C96.0209 64.7399 96.1209 70.9899 96.1209 77.2399C96.1209 78.2399 96.0609 78.9299 95.0109 79.4199C91.4309 81.0699 87.8709 82.7799 84.3609 84.5599C82.9209 85.2799 82.7109 84.7599 82.7309 83.4299C82.7209 80.1499 82.6809 76.8599 82.6809 73.5699Z" fill="#F6A70D"/>
<path d="M107 101.55C110.38 98.8497 111.63 98.7797 115.09 101.39C115.91 102.01 116.09 101.39 116.4 101.07C117.19 100.271 118.213 99.7431 119.322 99.5634C120.431 99.3836 121.568 99.5609 122.57 100.07C124.81 101.07 125.25 103.07 125.28 105.2C125.28 108.2 125.18 111.14 125.28 114.1C125.38 116.1 124.17 115.62 123.06 115.72C121.75 115.84 121.13 115.52 121.21 114.01C121.33 111.46 121.21 108.9 121.21 106.35C121.21 104.68 120.98 103.04 118.82 103.02C116.66 103 116.17 104.64 116.14 106.42C116.14 108.97 116.01 111.54 116.14 114.08C116.25 116 115.05 115.63 113.92 115.72C112.6 115.83 112 115.5 112.07 114.01C112.19 111.46 112.13 108.9 112.07 106.34C112.07 104.71 111.9 102.99 109.69 103.05C107.48 103.11 106.95 104.62 106.91 106.45C106.91 108.84 106.83 111.23 106.91 113.62C106.97 115.12 106.69 115.77 104.91 115.78C103.13 115.79 102.74 115.17 102.79 113.51C102.91 109.72 102.79 105.93 102.86 102.13C102.86 101.34 102.13 99.9597 103.86 99.8897C105.3 99.8097 106.88 99.3397 107 101.55Z" fill="#010101"/>
<path d="M176.999 107.67C176.999 105.61 176.999 103.55 176.999 101.49C176.999 100.84 176.679 99.7603 177.879 99.9003C178.809 100 180.289 99.0403 180.599 100.57C180.909 102.1 181.369 101.3 181.889 100.85C182.731 100.108 183.781 99.6406 184.896 99.5118C186.012 99.3831 187.14 99.5989 188.129 100.13C190.129 101.04 190.519 102.98 190.569 104.92C190.649 108.05 190.519 111.18 190.639 114.31C190.699 115.96 189.699 115.71 188.729 115.68C187.759 115.65 186.519 116.07 186.599 114.24C186.699 111.61 186.659 108.97 186.599 106.33C186.599 104.68 186.269 103.08 184.139 103C182.009 102.92 181.079 104.32 181.019 106.3C180.949 108.6 180.929 110.91 181.019 113.22C181.019 114.74 181.099 115.79 178.919 115.78C176.739 115.77 176.919 114.78 176.989 113.36C177.049 111.46 176.999 109.57 176.999 107.67Z" fill="#010101"/>
<path d="M151.331 103.22C149.271 103.22 147.571 103.15 145.891 103.22C144.601 103.3 144.401 102.72 144.431 101.62C144.461 100.52 144.431 99.73 145.961 99.79C148.591 99.9 151.231 99.79 153.871 99.85C154.871 99.85 156.261 99.1401 156.681 100.48C156.905 101.143 156.944 101.854 156.795 102.538C156.645 103.222 156.312 103.852 155.831 104.36C153.661 106.79 151.671 109.36 149.261 112.36C151.601 112.36 153.451 112.36 155.311 112.36C156.591 112.36 157.431 112.36 157.411 114.13C157.391 115.9 156.541 115.72 155.411 115.71C152.411 115.71 149.481 115.71 146.521 115.71C145.661 115.71 144.361 116.22 144.041 115.31C143.782 114.7 143.696 114.03 143.792 113.375C143.887 112.719 144.16 112.102 144.581 111.59C146.401 109.47 148.161 107.29 149.931 105.13C150.331 104.59 150.691 104.08 151.331 103.22Z" fill="#020202"/>
<path d="M127.199 53.3798L116.199 57.6898C115.92 57.8564 115.605 57.9558 115.281 57.9801C114.956 58.0044 114.63 57.953 114.329 57.8298C111.239 56.3798 108.109 54.9898 104.539 53.3798L115.209 48.4898C115.429 48.379 115.672 48.3213 115.919 48.3213C116.166 48.3213 116.409 48.379 116.629 48.4898L127.199 53.3798Z" fill="#F6A70D"/>
<path d="M34 119.32C37.77 117.61 41.06 116.12 44.33 114.61C44.6095 114.445 44.9248 114.351 45.2489 114.335C45.5729 114.32 45.8959 114.383 46.19 114.52C49.53 116.09 52.89 117.62 56.61 119.33C52.61 120.92 48.92 122.33 45.27 123.82C45.0037 123.922 44.7188 123.966 44.4342 123.948C44.1496 123.931 43.872 123.853 43.62 123.72C40.61 122.31 37.55 120.92 34 119.32Z" fill="#F6A70D"/>
<path d="M68.8789 53.37L79.5989 48.49C79.8181 48.3816 80.0594 48.3252 80.3039 48.3252C80.5485 48.3252 80.7897 48.3816 81.0089 48.49C84.3389 50.03 87.6789 51.55 91.5589 53.33C87.3589 55 83.6789 56.44 79.9989 57.91C79.2489 58.21 78.7089 57.83 78.1389 57.58C75.2389 56.29 72.3389 55 68.8789 53.37Z" fill="#F6A70D"/>
<path d="M74.5102 85.2697L63.0602 89.7797C62.8342 89.8831 62.5886 89.9366 62.3402 89.9366C62.0917 89.9366 61.8461 89.8831 61.6202 89.7797L51.9102 85.3297C55.6102 83.6297 58.9102 82.1097 62.2502 80.5497C62.5843 80.4004 62.9494 80.3334 63.3148 80.3543C63.6801 80.3752 64.0352 80.4833 64.3502 80.6697C67.5502 82.0997 70.7702 83.5597 74.5102 85.2697Z" fill="#F6A70D"/>
<path d="M37.9994 86.1403C33.8994 87.7503 30.3894 89.1403 26.8894 90.5003C26.6002 90.6431 26.2819 90.7174 25.9594 90.7174C25.6368 90.7174 25.3186 90.6431 25.0294 90.5003C22.0294 89.0803 18.9294 87.7203 15.3594 86.1003C19.2994 84.3003 22.8094 82.6803 26.3594 81.1003C26.752 81.0248 27.1586 81.0884 27.5094 81.2803C30.8594 82.8603 34.1894 84.3903 37.9994 86.1403Z" fill="#F6A70D"/>
<path d="M124.5 141C123.903 141.839 123.114 142.522 122.199 142.994C121.284 143.465 120.27 143.711 119.24 143.71C115.99 143.79 113.95 141.94 113.81 138.62C113.67 135.3 113.74 132.04 113.74 128.75C113.74 128.12 113.57 127.41 114.63 127.39C115.69 127.37 115.73 128.06 115.72 128.85C115.72 131.73 115.72 134.61 115.72 137.49C115.72 140.37 116.66 141.62 118.9 141.98C121.47 142.39 123.33 141.25 124.22 138.68C125.11 136.11 124.43 133.28 124.75 130.6C124.88 129.53 123.75 127.51 125.75 127.52C127.75 127.53 126.62 129.52 126.67 130.62C126.84 134.07 126.78 137.53 126.67 140.99C126.67 141.73 127.32 142.99 125.98 143.19C124.22 143.48 125.07 141.82 124.5 141Z" fill="#030303"/>
<path d="M132.13 130.68C133.48 128.54 134.89 127.5 136.74 127.15C137.25 127.05 137.96 126.73 138.04 127.68C138.04 128.28 138.25 128.79 137.25 129.09C133.1 130.36 132.25 131.68 132.25 136.02V142C132.25 142.68 132.25 143.31 131.25 143.28C130.25 143.25 130.25 142.65 130.25 141.95C130.25 137.67 130.25 133.39 130.25 129.11C130.25 128.34 129.97 127.36 131.34 127.42C132.71 127.48 132.02 128.42 132.15 129.06C132.182 129.6 132.175 130.142 132.13 130.68Z" fill="#090909"/>
<path d="M158.431 130.57C158.902 129.678 159.569 128.903 160.381 128.304C161.193 127.705 162.129 127.297 163.121 127.11C163.731 126.99 164.311 126.96 164.291 127.83C164.291 128.35 164.421 128.83 163.571 129.08C159.061 130.65 158.451 131.62 158.451 136.42C158.451 138.15 158.451 139.88 158.451 141.61C158.451 142.25 158.811 143.19 157.561 143.22C156.311 143.25 156.471 142.27 156.471 141.5C156.471 137.38 156.471 133.27 156.471 129.15C156.471 128.43 156.041 127.37 157.471 127.37C158.901 127.37 158.201 128.51 158.381 129.17C158.435 129.634 158.452 130.103 158.431 130.57Z" fill="#090909"/>
<path d="M94.3386 94.8298C93.7686 93.1798 92.4286 93.9498 91.3986 93.8298C90.3686 93.7098 89.4986 93.4698 89.0286 94.8298C86.8386 101.3 84.5286 107.73 82.2886 114.18C82.1186 114.65 81.6786 115.18 82.5586 115.59C84.1586 116.25 86.5586 115.41 86.8286 113.8C87.2586 111.19 88.6586 110.41 91.0986 110.8C91.9983 110.915 92.9089 110.915 93.8086 110.8C95.0386 110.67 95.5386 111.28 95.9086 112.36C97.0986 115.81 97.1386 115.8 101.429 115.43C98.9986 108.51 96.6686 101.67 94.3386 94.8298ZM92.8286 107.3C92.2561 107.255 91.681 107.255 91.1086 107.3C89.5086 107.47 88.8386 107.09 89.5886 105.3C90.3386 103.51 90.8286 101.66 91.6486 99.1698C92.5386 101.92 93.1886 103.98 93.8786 106.02C94.2386 107.11 93.7586 107.34 92.8286 107.3Z" fill="#010101"/>
<path d="M141.71 113.32C141.71 111.85 141.71 110.37 141.71 108.89C141.71 107.66 141.71 106.42 141.71 105.19C141.71 101.84 140.79 100.48 138.18 99.8099C134.31 98.8099 130.46 99.9399 129.1 102.44C128.1 104.31 128.4 104.81 130.57 104.81C131.57 104.81 132.35 104.81 132.9 103.58C133.54 102.16 135.08 102.36 136.39 102.65C136.594 102.688 136.789 102.767 136.963 102.881C137.137 102.994 137.287 103.141 137.404 103.313C137.521 103.485 137.603 103.678 137.645 103.882C137.687 104.086 137.689 104.296 137.65 104.5C137.53 106.08 136.24 106.07 135.13 106.28C133.84 106.52 132.53 106.68 131.26 107.02C128.92 107.63 127.95 109.27 128.05 111.62C128.21 115.37 132.05 117.24 136.05 115.49C136.9 115.12 137.55 114.08 138.62 115.49C139.02 116.01 140.75 115.89 141.67 115.49C142.59 115.09 141.69 114.09 141.71 113.32ZM134.11 113.12C133 113.05 132.18 112.66 132.04 111.47C131.949 110.98 132.044 110.473 132.306 110.05C132.569 109.626 132.98 109.316 133.46 109.18C134.77 108.8 136.12 108.57 137.46 108.27C137.89 111.79 136.81 113.32 134.11 113.12Z" fill="#010101"/>
<path d="M166.84 99.5204C162.28 99.4304 159.27 102.63 159.2 107.65C159.13 112.67 162.03 116.01 166.54 116.08C171.05 116.15 174.18 112.88 174.22 107.95C174.26 103.02 171.35 99.6104 166.84 99.5204ZM168.71 112.07C168.397 112.342 168.033 112.548 167.638 112.678C167.244 112.807 166.828 112.856 166.415 112.822C166.001 112.789 165.599 112.673 165.231 112.482C164.862 112.291 164.536 112.029 164.27 111.71C162.74 110.07 162.78 105.39 164.27 103.84C164.538 103.521 164.867 103.259 165.239 103.072C165.611 102.884 166.017 102.774 166.432 102.749C166.848 102.724 167.264 102.783 167.656 102.925C168.048 103.066 168.407 103.286 168.71 103.57C170.05 104.63 170.17 106.24 170.18 107.84C170.19 109.44 170.1 111.06 168.71 112.07Z" fill="#010101"/>
<path d="M111.538 141.55C109.058 135.22 106.538 128.89 104.098 122.55C103.808 121.8 103.538 121.22 102.588 121.27C101.828 121.27 101.248 121.33 100.878 122.27C98.1283 129.19 95.3083 136.07 92.4883 143.02C93.8183 143.38 94.8983 143.45 95.1183 141.95C95.8783 136.74 99.1983 135.6 103.798 136.37C104.461 136.473 105.136 136.473 105.798 136.37C106.998 136.2 107.558 136.73 107.908 137.84C108.378 139.32 109.058 140.73 109.568 142.2C109.606 142.405 109.689 142.599 109.813 142.768C109.937 142.936 110.098 143.073 110.283 143.17C110.469 143.266 110.674 143.319 110.882 143.324C111.091 143.33 111.298 143.287 111.488 143.2C112.378 142.81 111.758 142.09 111.538 141.55ZM105.048 134.61C102.848 134.61 100.638 134.61 97.9883 134.61L102.308 123.43C103.738 127.16 105.028 130.43 106.218 133.7C106.638 134.88 105.598 134.6 105.048 134.61Z" fill="#030303"/>
<path d="M179.692 141.64C177.692 141.3 178.282 139.73 178.252 138.53C178.192 136.31 178.252 134.09 178.252 131.87C178.162 128.87 176.752 127.32 173.822 126.96C169.892 126.47 167.062 127.77 166.282 130.48C166.132 131.01 165.472 131.77 166.542 132.11C167.262 132.34 167.652 132.03 168.032 131.29C169.392 128.6 171.622 127.78 174.292 128.75C174.971 128.953 175.552 129.4 175.921 130.006C176.291 130.612 176.423 131.333 176.292 132.03C176.182 133.57 175.042 133.77 173.842 133.89C171.853 133.987 169.887 134.361 168.002 135C167.131 135.29 166.386 135.871 165.893 136.644C165.4 137.418 165.187 138.338 165.292 139.25C165.266 140.164 165.547 141.059 166.091 141.794C166.635 142.528 167.41 143.058 168.292 143.3C169.741 143.843 171.332 143.877 172.804 143.398C174.275 142.918 175.54 141.953 176.392 140.66C176.582 142.66 177.522 143.37 179.142 143.21C179.349 143.216 179.551 143.145 179.708 143.01C179.866 142.875 179.967 142.686 179.992 142.48C180.052 142.15 180.122 141.71 179.692 141.64ZM171.002 142C169.222 142 167.722 141.33 167.372 139.4C167.022 137.47 168.372 136.4 170.102 136C172.102 135.54 174.102 135.28 176.102 134.93C177.182 139.81 174.132 142 171.002 142Z" fill="#030303"/>
<path d="M146.349 126.88C141.739 126.78 138.609 130.09 138.559 135.13C138.509 140.17 141.669 143.71 146.109 143.7C150.549 143.69 153.569 140.29 153.659 135.38C153.749 130.47 150.719 127 146.349 126.88ZM150.139 140.11C149.424 140.96 148.464 141.569 147.39 141.853C146.317 142.138 145.181 142.084 144.139 141.7C141.989 140.87 140.549 138.26 140.549 135.22C140.549 131.92 142.159 129.37 144.679 128.64C145.754 128.335 146.898 128.385 147.941 128.784C148.985 129.182 149.871 129.907 150.469 130.85C151.31 132.262 151.726 133.886 151.667 135.529C151.609 137.171 151.078 138.762 150.139 140.11Z" fill="#030303"/>
</svg>
