<svg width="200" height="200" viewBox="0 0 200 200" fill="none" xmlns="http://www.w3.org/2000/svg">
<path d="M98.9984 21.1504H101.098C120.488 24.0004 138.888 31.0004 157.818 35.8004C163.128 37.1604 168.388 38.6904 173.668 40.1504C175.588 40.6904 177.508 41.2304 178.848 42.8804V44.2804C177.668 45.6504 178.148 47.1604 178.458 48.6604C178.586 49.5936 178.521 50.543 178.268 51.4504C177.368 52.9004 178.198 54.4504 178.138 55.8904C176.938 76.4104 173.858 96.7104 171.318 117.07C171.168 118.21 171.178 119.41 170.318 120.31C169.898 120.61 169.018 120.54 169.418 121.52C169.862 122.543 170.175 123.619 170.348 124.72C169.658 130.97 169.648 137.32 167.598 143.37C165.698 144.5 167.168 146.77 165.998 148.16C165.173 149.305 164.029 150.182 162.708 150.68C144.318 159.25 126.048 168.08 107.708 176.85C105.358 177.97 102.758 178.03 100.348 178.85H99.6484C92.8784 178.05 87.2184 174.34 81.2584 171.54C66.5884 164.65 52.0284 157.54 37.3284 150.7C35.999 150.199 34.8427 149.323 33.9984 148.18C32.8184 146.79 34.3284 144.52 32.4184 143.37C30.5984 139.54 30.9184 135.32 30.2684 131.29C29.7781 129.167 29.5663 126.989 29.6384 124.81C29.1884 123.3 31.8884 121.81 29.6384 120.28C27.7484 116.64 27.9684 112.58 27.4884 108.71C25.8684 95.3304 24.1884 82.0004 22.6684 68.5504C22.1984 64.4004 22.2284 60.2004 21.8584 56.0404C21.7584 54.4904 22.6784 52.9004 21.6984 51.3704C21.482 50.5046 21.4244 49.6067 21.5284 48.7204C21.7984 47.4304 22.3184 46.1204 21.1484 44.9804V42.8804C23.1484 40.5104 26.0384 40.2704 28.6884 39.5304C47.6751 34.2704 66.6484 28.9371 85.6084 23.5304C89.9984 22.3204 94.5484 22.1904 98.9984 21.1504Z" fill="#B1B1B1"/>
<path d="M178.852 47.7803L178.052 48.4403C177.372 46.8703 176.672 45.3003 178.852 44.2803V47.7803Z" fill="#AEAEAE"/>
<path d="M21.9992 48.44L21.1992 47.78V45C22.8592 45.57 22.9192 45.83 21.9992 48.44Z" fill="#AEAEAE"/>
<path d="M39.2506 115.24C38.7988 114.557 38.6335 113.723 38.7906 112.92C38.9606 112.03 39.4506 111.12 38.6106 110.29L37.3806 104.36C36.5806 103.55 36.9406 102.64 37.1306 101.74H37.3906C37.5706 100.83 38.0406 99.9095 37.2006 99.0695L36.6506 98.7595C35.9806 98.1795 36.1906 97.5195 36.4806 96.8595C36.6888 95.601 36.5037 94.309 35.9506 93.1595C35.2806 92.5795 35.4906 91.9195 35.7606 91.2495L36.0006 90.4995C35.9106 89.4195 36.3106 88.1695 34.9206 87.5695C34.825 86.9566 34.825 86.3325 34.9206 85.7195C35.3343 85.2236 35.5731 84.6052 35.6002 83.9599C35.6273 83.3147 35.4412 82.6785 35.0706 82.1495C34.8496 81.8423 34.6938 81.493 34.613 81.1232C34.5321 80.7534 34.5279 80.371 34.6006 79.9995C34.7506 78.8895 35.2806 77.7495 34.3406 76.7195C34.1613 76.6416 33.9876 76.5514 33.8206 76.4495C33.2106 75.8395 33.3906 75.1695 33.6406 74.4495L33.1906 68.7595C33.8506 67.2395 32.4306 66.3695 32.0706 65.1595C31.9873 64.711 32.0252 64.2484 32.1806 63.8195C32.5529 63.3575 32.7657 62.7874 32.7873 62.1945C32.809 61.6015 32.6382 61.0175 32.3006 60.5295C32.1306 60.4195 31.9506 60.2995 31.7706 60.1995C31.0606 59.6395 31.2906 58.9895 31.5706 58.3195C31.7718 57.0541 31.598 55.7574 31.0706 54.5895C30.3806 54.0395 30.6006 53.3795 30.8606 52.7195C30.3206 49.8795 31.8606 48.8795 34.3906 48.4095C41.8306 47.0495 48.9406 44.4095 56.1906 42.3495C64.1906 40.1095 72.1906 37.8795 80.0706 35.3495C85.6906 33.5395 91.4906 32.2195 97.0006 29.9995C98.2306 29.4895 99.5806 28.7995 101.001 29.6095C101.312 30.0531 101.505 30.5689 101.561 31.108C101.617 31.647 101.534 32.1914 101.321 32.6895C98.1406 38.9995 95.1006 45.4295 92.0606 51.8295C91.0606 54.0395 90.0606 56.2795 88.9306 58.4595C78.1106 79.7295 68.3606 101.53 57.5006 122.78C55.3406 127.01 53.4406 131.4 51.4006 135.72C51.0206 136.52 50.3406 137.33 51.0306 138.29C53.06 139.105 55.2339 139.5 57.4204 139.45C59.6069 139.4 61.7605 138.907 63.7506 138C67.6406 132 69.6206 125.19 72.7506 118.86C73.7506 116.75 74.2506 114.08 77.2706 113.64C84.7806 114.64 92.3506 113.56 99.8806 114.31C100.312 114.478 100.694 114.754 100.991 115.11C101.991 116.55 101.901 118.21 101.901 119.83C101.954 134.496 101.954 149.163 101.901 163.83C101.901 165.71 101.901 167.59 100.341 169.01C99.1906 169.3 98.3406 168.59 97.3406 168.16C79.8873 160.053 62.4173 151.913 44.9306 143.74C43.4006 143.03 41.9306 142.4 42.2806 140.26C42.2006 139.19 42.5706 137.95 41.2006 137.35C41.1207 136.759 41.1207 136.16 41.2006 135.57C41.8206 134.44 42.3206 133.31 41.3806 132.09L40.1606 126.15C39.4506 125.31 39.7506 124.38 39.9406 123.47H40.2006C40.6606 122.47 40.3606 121.47 40.4406 120.47C40.455 120.358 40.4464 120.244 40.4154 120.136C40.3845 120.028 40.3318 119.927 40.2606 119.84C40.5406 120.29 40.3606 120.61 39.9806 120.84C39.5225 120.137 39.3608 119.281 39.5306 118.46C39.6606 117.41 40.1906 116.27 39.2506 115.24Z" fill="#E32939"/>
<path d="M100.331 169V115.1C101.441 113.62 103.071 114.1 104.531 114.04C110.531 113.88 116.621 114.34 122.641 113.57C125.361 113.85 126.061 116.12 126.961 118.11C129.401 123.53 131.701 129.01 134.171 134.42C134.595 135.758 135.316 136.982 136.281 138C138.286 138.936 140.469 139.428 142.681 139.444C144.893 139.459 147.083 138.998 149.101 138.09C149.471 136.92 148.741 136.09 148.311 135.09C142.201 122 135.721 109.06 129.421 96.0003C120.794 78.1403 112.127 60.3003 103.421 42.4803C102.501 40.5903 102.091 38.4803 100.921 36.7103C100.425 35.8529 100.109 34.9037 99.9908 33.9203C99.9733 33.434 100.048 32.9489 100.211 32.4903C100.481 31.4903 100.741 30.5503 101.011 29.5703C108.551 31.7203 116.111 33.8303 123.641 36.0303C134.711 39.2603 145.761 42.5603 156.821 45.8203C159.471 46.6103 162.111 47.4303 164.821 48.1503C169.741 49.5003 169.901 49.7603 168.491 54.8703C167.731 55.7203 168.041 56.6303 168.321 57.5403C168.459 58.5517 168.274 59.5809 167.791 60.4803C166.961 61.5503 167.381 62.7003 167.571 63.8403C166.931 68.1003 166.901 72.4503 165.721 76.6403C164.881 77.4603 165.261 78.3703 165.521 79.2703C165.723 80.3002 165.538 81.3685 165.001 82.2703C164.131 83.3303 164.591 84.4803 164.781 85.6103C164.908 86.399 164.741 87.2071 164.311 87.8803C163.491 88.7103 163.861 89.6203 164.111 90.5203C164.316 91.549 164.134 92.6172 163.601 93.5203C162.721 94.5803 163.211 95.7303 163.371 96.8603C163.486 97.6468 163.315 98.4484 162.891 99.1203C162.121 99.9503 162.451 100.87 162.701 101.77C162.869 102.781 162.685 103.819 162.181 104.71C161.391 105.55 161.751 106.47 162.001 107.38C162.156 108.387 161.965 109.416 161.461 110.3C160.711 111.15 161.041 112.07 161.291 112.99C161.449 114.002 161.263 115.038 160.761 115.93C160.001 116.77 160.381 117.69 160.571 118.59C160.654 118.982 160.657 119.386 160.578 119.778C160.498 120.17 160.34 120.542 160.111 120.87C159.111 122.15 159.691 123.34 160.331 124.52C160.331 125.11 160.581 125.78 159.921 126.22L159.401 126.47C158.591 127.3 158.951 128.21 159.211 129.11C159.387 130.14 159.203 131.2 158.691 132.11C157.841 133.22 158.161 134.31 158.751 135.39C158.848 135.988 158.754 136.6 158.481 137.14C158.023 137.526 157.708 138.053 157.584 138.638C157.461 139.224 157.537 139.833 157.801 140.37C157.943 140.996 157.844 141.653 157.523 142.209C157.202 142.765 156.684 143.18 156.071 143.37C137.457 151.87 118.877 160.414 100.331 169Z" fill="#B62833"/>
<path d="M41.6587 137.51C42.0487 137.4 42.4487 136.2 42.7887 137.37C42.9584 137.855 43.0005 138.375 42.9112 138.882C42.8219 139.388 42.6042 139.862 42.2787 140.26L41.3587 138.87C41.1287 138.34 40.9987 137.83 41.6587 137.51Z" fill="#E41E31"/>
<path d="M32.5281 65.3203C35.0981 66.0203 33.4581 67.5203 33.1881 68.7603L32.4081 67.4003C31.8881 66.6703 31.7581 66.0003 32.5281 65.3203Z" fill="#E41E31"/>
<path d="M35.3488 87.7497C35.7388 87.6397 36.1388 86.4297 36.4888 87.6097C36.6555 88.0939 36.6979 88.6122 36.6123 89.1172C36.5267 89.6221 36.3158 90.0974 35.9988 90.4997L35.0788 89.0997C34.8188 88.5797 34.6788 88.0697 35.3488 87.7497Z" fill="#E41E31"/>
<path d="M157.701 136.83L158.391 135.35C158.181 135.01 158.271 134.79 158.661 134.7C159.331 136.04 159.791 137.34 157.981 138.19C157.351 137.85 157.471 137.35 157.701 136.83Z" fill="#B1B7B7"/>
<path d="M166.361 144C166.201 145.15 166.681 146.45 165.581 147.39C165.591 146.15 164.691 144.76 166.361 144Z" fill="#ADADAD"/>
<path d="M34.4206 147.34C33.3206 146.4 33.8006 145.1 33.6406 143.95C35.3106 144.76 34.4106 146.15 34.4206 147.34Z" fill="#ADADAD"/>
<path d="M41.3615 132.09C41.5715 131.87 41.8015 130.92 42.0515 131.81C42.2566 132.399 42.3236 133.028 42.2473 133.647C42.171 134.266 41.9534 134.859 41.6115 135.38C41.3315 135.38 41.2015 135.21 41.2115 135.04C41.2215 134.87 41.2715 134.73 41.3515 134.73L41.3615 132.09Z" fill="#E41C30"/>
<path d="M32.2999 60.53C32.4799 60.25 32.7599 59.4 32.9699 60.35C33.1459 60.9384 33.1977 61.5569 33.1219 62.1663C33.0462 62.7757 32.8446 63.3627 32.5299 63.89C32.2399 63.89 32.0999 63.73 32.1099 63.55C32.1199 63.37 32.1699 63.24 32.2399 63.24L32.2999 60.53Z" fill="#E41E31"/>
<path d="M37.1992 99.0901C37.3892 98.8301 37.5792 97.9401 37.8792 98.8801C38.0405 99.3635 38.0802 99.8791 37.9947 100.381C37.9093 100.884 37.7013 101.357 37.3892 101.76L37.1992 99.0901Z" fill="#E41E31"/>
<path d="M35.3499 87.7504L35.0499 89.1004C34.655 88.4786 34.4453 87.7571 34.4453 87.0204C34.4453 86.2837 34.655 85.5623 35.0499 84.9404C35.3299 84.9404 35.46 85.1104 35.45 85.2804C35.44 85.4504 35.39 85.5904 35.32 85.5904L35.3499 87.7504Z" fill="#B1B7B7"/>
<path d="M160.49 118.53C160.185 118.131 159.982 117.664 159.899 117.169C159.815 116.674 159.853 116.166 160.01 115.69C160.28 114.75 160.49 115.61 160.68 115.87C160.62 116.76 160.55 117.64 160.49 118.53Z" fill="#B61B29"/>
<path d="M164.702 85.59C164.292 84.44 163.252 83.26 164.922 82.25C164.852 83.36 164.782 84.47 164.702 85.59Z" fill="#B61A28"/>
<path d="M22.6597 54.7397C22.5897 53.6397 22.5097 52.5297 22.4297 51.4297C24.1797 52.4197 23.0697 53.5997 22.6597 54.7397Z" fill="#ADADAD"/>
<path d="M177.569 51.4297C177.489 52.5297 177.419 53.6397 177.339 54.7397C176.929 53.5997 175.819 52.4197 177.569 51.4297Z" fill="#ADADAD"/>
<path d="M34.3398 76.6904C36.0998 77.6904 34.9698 78.8404 34.5998 79.9704L34.3398 76.6904Z" fill="#E41E31"/>
<path d="M41.3503 134.73L41.6103 135.38V137.51L41.3103 138.87C40.9147 138.251 40.7079 137.53 40.715 136.795C40.7221 136.059 40.9428 135.342 41.3503 134.73Z" fill="#B1B7B7"/>
<path d="M37.1289 101.74C37.2089 102.61 37.2889 103.48 37.3789 104.36C37.1789 104.6 37.0289 105.55 36.6789 104.66C36.5068 104.174 36.4579 103.653 36.5364 103.144C36.6149 102.634 36.8185 102.152 37.1289 101.74Z" fill="#B1B7B7"/>
<path d="M158.66 134.7L158.39 135.35C157.99 134.2 156.94 133.01 158.61 132.01C158.63 132.91 158.64 133.8 158.66 134.7Z" fill="#B61B29"/>
<path d="M38.6094 110.29C38.7894 110.04 38.9894 109.15 39.2794 110.08C39.4427 110.556 39.4834 111.066 39.3977 111.562C39.3121 112.059 39.1029 112.525 38.7894 112.92L38.6094 110.29Z" fill="#E41E31"/>
<path d="M39.9198 123.47C39.9898 124.36 40.0698 125.25 40.1398 126.15C39.9598 126.42 39.7698 127.3 39.4698 126.37C39.3137 125.885 39.273 125.37 39.3512 124.866C39.4293 124.363 39.624 123.885 39.9198 123.47Z" fill="#B1B7B7"/>
<path d="M39.25 115.24C41 116.24 39.88 117.39 39.51 118.52L39.25 115.24Z" fill="#E41E31"/>
<path d="M32.2411 63.2402L32.5311 63.8902V65.3202L32.4111 67.4002C31.9336 66.82 31.6586 66.0996 31.6279 65.3488C31.5972 64.5979 31.8125 63.8575 32.2411 63.2402Z" fill="#B1B7B7"/>
<path d="M167.489 63.86C167.079 62.71 166.089 61.52 167.709 60.5C167.639 61.62 167.569 62.74 167.489 63.86Z" fill="#B61C29"/>
<path d="M163.291 96.8C162.901 95.65 161.851 94.46 163.521 93.46C163.441 94.57 163.361 95.69 163.291 96.8Z" fill="#B61B29"/>
<path d="M169.16 120.82L168.92 124.13C168.53 123 167.41 121.8 169.16 120.82Z" fill="#AEAEAE"/>
<path d="M40 120.9L40.28 120.28C40.44 120.37 40.73 120.44 40.74 120.54C40.8607 121.041 40.8768 121.562 40.7873 122.069C40.6979 122.577 40.5047 123.061 40.22 123.49L40 120.9Z" fill="#E42033"/>
<path d="M31.0798 124.13L30.8398 120.82C32.5898 121.8 31.4698 123 31.0798 124.13Z" fill="#AEAEAE"/>
<path d="M159.809 124.17C159.399 123.02 158.319 121.83 160.029 120.81C160.029 121.71 160.029 122.61 160.029 123.52C160.269 123.85 160.199 124.07 159.809 124.17Z" fill="#B61A28"/>
<path d="M36.4803 96.8799C36.5403 97.5099 36.5903 98.1499 36.6503 98.7799C36.4703 99.0099 36.4103 99.9599 35.9703 99.0799C35.8319 98.7034 35.8064 98.2946 35.897 97.9038C35.9876 97.513 36.1903 97.1571 36.4803 96.8799Z" fill="#B1B7B7"/>
<path d="M161.208 112.93C160.668 111.99 160.038 111.06 161.378 110.24L161.208 112.93Z" fill="#B61B29"/>
<path d="M159.809 124.17C159.889 123.95 159.979 123.73 160.069 123.52C160.519 124.44 161.299 125.4 159.839 126.16L159.809 124.17Z" fill="#B1B7B7"/>
<path d="M159.131 129.05C158.611 128.13 157.851 127.19 159.321 126.41C159.261 127.29 159.191 128.17 159.131 129.05Z" fill="#B61B29"/>
<path d="M31.5717 58.3203C31.6417 58.9503 31.7017 59.5803 31.7717 60.2003C31.5717 60.4103 31.5517 61.4103 31.0817 60.5403C30.9283 60.1643 30.8931 59.7505 30.9806 59.3539C31.0681 58.9574 31.2743 58.5968 31.5717 58.3203Z" fill="#B1B7B7"/>
<path d="M35.7603 91.2695C35.8303 91.9095 35.8903 92.5395 35.9503 93.1795C35.7603 93.3995 35.7103 94.3595 35.2703 93.4795C35.1311 93.103 35.1033 92.6944 35.1902 92.3025C35.2771 91.9105 35.475 91.5519 35.7603 91.2695Z" fill="#B1B7B7"/>
<path d="M161.918 107.32C161.378 106.39 160.708 105.45 162.098 104.65L161.918 107.32Z" fill="#B61A28"/>
<path d="M33.6384 74.4502L33.8184 76.4502C33.6384 76.7002 33.5284 77.5802 33.1484 76.6702C33.019 76.2908 32.9963 75.8831 33.0827 75.4916C33.1691 75.1002 33.3613 74.7399 33.6384 74.4502Z" fill="#B1B7B7"/>
<path d="M168.24 57.5597C167.69 56.6297 167.01 55.6996 168.41 54.8896C168.35 55.7796 168.29 56.6697 168.24 57.5597Z" fill="#B61B29"/>
<path d="M30.8614 52.7197L31.0714 54.5897C30.8614 54.7997 30.8514 55.7997 30.3814 54.9397C30.2268 54.5647 30.1899 54.1515 30.2756 53.755C30.3614 53.3585 30.5656 52.9974 30.8614 52.7197Z" fill="#B1B7B7"/>
<path d="M157.699 136.83L157.979 138.19L157.719 140.27C157.33 139.782 157.117 139.178 157.113 138.554C157.11 137.93 157.316 137.323 157.699 136.83Z" fill="#B61C2A"/>
<path d="M165.442 79.2902C164.922 78.3702 164.152 77.4302 165.642 76.6602C165.572 77.5302 165.502 78.4102 165.442 79.2902Z" fill="#B61B29"/>
<path d="M162.619 101.71C162.109 100.79 161.369 99.8496 162.809 99.0596C162.749 99.9996 162.679 100.83 162.619 101.71Z" fill="#B61D2A"/>
<path d="M35.3 85.5904L35 84.9404C35 84.0104 35 83.0804 35 82.1504C35.485 82.5738 35.7872 83.1686 35.8432 83.8099C35.8991 84.4513 35.7044 85.0894 35.3 85.5904Z" fill="#E2152A"/>
<path d="M164.001 90.5004C163.491 89.5804 162.721 88.6404 164.201 87.8604C164.161 88.7404 164.091 89.6204 164.001 90.5004Z" fill="#B61C2A"/>
<path d="M100.179 32.5098L100.419 33.5798C101.949 37.9698 101.299 42.5798 101.419 47.0198C101.539 51.4598 101.419 56.0198 101.419 60.5698C101.63 61.7481 101.488 62.9625 101.009 64.0598C98.3493 67.3998 97.4893 71.6098 95.6693 75.3498C92.0493 82.7831 88.6226 90.2998 85.3893 97.8998C85.3515 98.11 85.377 98.3268 85.4624 98.5226C85.5478 98.7184 85.6894 98.8845 85.8693 98.9998C89.4393 99.7398 93.0393 99.1498 96.6093 99.3398C97.9693 99.4198 99.4093 99.0798 100.609 100.03C100.895 100.323 101.102 100.684 101.209 101.08C101.529 104.88 101.369 108.69 101.309 112.49C101.294 112.924 101.152 113.344 100.901 113.699C100.651 114.054 100.303 114.329 99.8993 114.49C99.5066 114.677 99.0735 114.763 98.6393 114.74C91.2793 114.65 83.9193 114.96 76.5693 114.58C72.8693 121.02 70.5693 128.06 67.3793 134.75C66.6393 136.33 65.9593 137.93 65.2593 139.52C59.6868 140.218 54.0518 140.261 48.4693 139.65C47.8493 138.34 48.8893 137.43 49.3593 136.47C58.7993 116.95 68.2659 97.4464 77.7593 77.9598C84.6526 63.7931 91.5293 49.6264 98.3893 35.4598C98.8893 34.4298 99.5793 33.4898 100.179 32.5098Z" fill="#FEFEFE"/>
<path d="M123.458 114.59C117.968 115.59 112.458 114.83 106.908 115.06C104.708 115.15 102.518 115.06 100.318 115.06H99.6684C99.1784 114.84 99.1884 114.63 99.6684 114.42L99.7884 114.2C101.396 113.274 103.224 112.8 105.078 112.83C109.808 112.83 114.538 112.76 119.268 112.88C120.848 112.91 122.588 112.74 123.458 114.59Z" fill="#B71827"/>
<path d="M99.6698 114.41C99.6698 114.62 99.6698 114.83 99.6698 115.05C93.0998 115.05 86.5198 115.05 79.9498 115.05C78.8098 115.05 77.6198 115.24 76.5898 114.54C84.2798 114.07 91.9998 114.34 99.6698 114.41Z" fill="#E10222"/>
<path d="M48.4883 139.62L65.2783 139.49C59.6883 140.93 54.0983 140.62 48.4883 139.62Z" fill="#E10222"/>
<path d="M123.459 114.59L99.7891 114.19C99.9591 113.8 100.129 113.4 100.289 113.01C101.289 109.11 100.289 105.13 100.779 101.21C101.639 99.6904 103.129 100.07 104.449 100.01C107.749 99.8704 111.069 100.23 114.349 99.7804C114.591 99.6609 114.813 99.5058 115.009 99.3204C115.128 99.0832 115.172 98.8152 115.135 98.5525C115.097 98.2897 114.98 98.0447 114.799 97.8504C109.729 86.7904 104.259 75.9104 99.8891 64.5404C99.9774 64.1908 100.112 63.8545 100.289 63.5404C100.159 63.4328 100.052 63.2989 99.977 63.1474C99.9018 62.9958 99.8596 62.8301 99.853 62.6611C99.8463 62.4921 99.8756 62.3235 99.9386 62.1666C100.002 62.0096 100.097 61.8678 100.219 61.7504C101.219 60.1504 100.639 58.3904 100.669 56.7504C100.749 50.7504 100.669 44.7504 100.749 38.7504C100.749 37.7504 99.8791 36.3604 101.649 35.9004C109.489 51.9004 117.322 67.9271 125.149 83.9804C133.522 101.167 141.856 118.37 150.149 135.59C150.759 136.83 151.479 138.02 152.149 139.24C151.949 139.49 151.969 139.92 151.479 139.9C145.869 139.73 140.239 140.49 134.659 139.5C130.869 131.24 127.759 122.65 123.459 114.59Z" fill="#B1B1B1"/>
<path d="M101.652 35.9001C100.482 38.1101 101.132 40.4801 101.082 42.7801C100.982 47.9101 101.082 53.0401 101.082 58.1701C101.082 59.4301 101.362 60.7701 100.262 61.7901C100.335 52.3901 100.402 42.9867 100.462 33.5801C101.106 34.1988 101.525 35.0155 101.652 35.9001Z" fill="#AEAEAE"/>
<path d="M134.711 139.5C140.541 139.42 146.371 139.88 152.201 139.24C151.741 139.56 151.261 140.18 150.821 140.16C145.441 140 140.001 141.23 134.711 139.5Z" fill="#B61827"/>
<path d="M100.292 63.5801L100.402 64.3701C101.338 66.6424 101.834 69.0724 101.862 71.5301C101.955 79.3634 101.955 87.1901 101.862 95.0101C102.023 96.4197 101.628 97.8368 100.762 98.9601C95.4716 100.32 90.1116 99.5401 84.7616 99.4201C84.1416 99.4201 83.8416 98.8001 83.6016 98.2701C88.6216 87.2167 93.6416 76.1701 98.6616 65.1301C99.0016 64.3801 99.2916 63.6201 100.292 63.5801Z" fill="#E32939"/>
<path d="M117.052 99.5305L117.172 100.34C111.519 100.861 105.833 100.911 100.172 100.49C95.8316 99.7005 91.4616 100.33 87.1016 100.1C85.7516 100.03 84.3416 100.45 83.1016 99.7405C87.1016 98.7405 91.1016 99.5705 95.1716 99.3005C96.9016 99.1905 98.6616 99.4905 100.382 99.1205C105.932 98.4905 111.522 97.8205 117.052 99.5305Z" fill="#B57A7D"/>
<path d="M100.308 99.5195L83.0481 99.7395C82.6481 99.0195 83.4081 98.7395 83.6181 98.2695C89.1081 99.7495 94.6981 98.5795 100.228 98.9495L100.548 99.1995L100.308 99.5195Z" fill="#E1152A"/>
<path d="M100.182 100.49L117.182 100.34C113.392 101.86 109.432 100.72 105.572 101.03C104.072 101.15 102.572 101.03 101.062 101.03C100.802 101.51 100.542 101.51 100.292 101.03C100.208 100.863 100.17 100.676 100.182 100.49Z" fill="#B1B5B5"/>
<path d="M100.281 101H101.051C100.641 105 101.941 109.06 100.291 113C100.291 109 100.281 105 100.281 101Z" fill="#AEAEAE"/>
<path d="M100.23 98.9999C100.29 87.4666 100.347 75.9399 100.4 64.4199C102.24 65.8799 102.65 68.1599 103.56 70.1299C107.88 79.4999 112.11 88.9199 116.38 98.3299C116.28 98.6043 116.104 98.8442 115.872 99.0214C115.639 99.1986 115.361 99.3056 115.07 99.3299C110.16 99.2499 105.23 99.7699 100.34 99.0499L100.23 98.9999Z" fill="#B62833"/>
<path d="M100.339 99.0003C105.679 98.6003 111.079 99.7803 116.339 98.3203L117.009 99.5703H100.309L100.339 99.0003Z" fill="#B61E2B"/>
</svg>
