<svg width="200" height="200" viewBox="0 0 200 200" fill="none" xmlns="http://www.w3.org/2000/svg">
<path d="M31.6914 71.1905C36.9314 54.9438 42.1681 38.6938 47.4014 22.4405C47.7214 21.4405 48.0314 20.6405 49.4514 20.6505C66.3614 20.7605 83.2714 20.8005 100.181 20.8705C100.359 21.1935 100.416 21.5694 100.341 21.9305C95.7114 36.9305 90.5414 51.6705 85.9014 66.6305C84.7414 70.3705 84.0414 70.8205 80.0714 70.8505C64.6114 70.9505 49.1614 70.7205 33.7114 70.9705C33.0885 71.2914 32.3688 71.3697 31.6914 71.1905Z" fill="#EA5424"/>
<path d="M139.472 150.91C126.725 160.197 113.975 169.494 101.222 178.8C100.861 179.153 100.377 179.351 99.8719 179.351C99.3672 179.351 98.8826 179.153 98.5219 178.8C85.7819 169.467 73.0285 160.174 60.2619 150.92C59.4719 149.7 60.4019 148.99 61.1619 148.44C62.1073 147.691 62.7501 146.626 62.9719 145.44C65.0719 142.44 68.3519 140.92 71.1619 138.85C79.6819 132.58 88.3019 126.45 96.8419 120.21C99.2519 118.46 100.992 118.68 103.202 120.34C114.662 128.91 126.382 137.13 137.942 145.57C138.763 146.019 139.419 146.721 139.812 147.57C139.832 148.7 140.182 149.86 139.472 150.91Z" fill="#EA5424"/>
<path d="M100.17 21.3197C100.17 21.1697 100.17 21.0197 100.17 20.8697C110.637 20.7964 121.113 20.733 131.6 20.6797C137.6 20.6797 143.6 20.6797 149.66 20.6797C151.05 20.6797 151.9 20.9397 152.38 22.4497C157.19 37.4497 162.07 52.3997 166.92 67.3797C166.951 67.5852 166.951 67.7941 166.92 67.9997C167.44 68.9997 166.92 69.5797 166.04 69.9297C165.251 70.1895 164.419 70.2914 163.59 70.2297C148.43 70.2297 133.28 70.2297 118.13 70.2297C117.613 70.2336 117.098 70.1867 116.59 70.0897C114.81 69.6197 114.34 68.0897 113.87 66.6097C109.6 52.9697 104.93 39.4597 100.64 25.8297C100.23 24.3497 99.4201 22.9197 100.17 21.3197Z" fill="#EA5424"/>
<path d="M115.922 69.33C131.852 69.33 147.782 69.33 163.702 69.33C164.892 69.33 166.552 70.07 166.972 68C173.972 87.36 172.432 106.21 163.262 124.46C157.824 135.243 149.613 144.382 139.472 150.94C139.262 149.94 138.682 148.94 139.472 147.94C140.662 146.48 139.562 145.14 139.132 143.87C134.682 130.78 130.712 117.54 126.242 104.46C124.732 100.05 124.802 99.96 128.542 97.26C140.542 88.63 152.412 79.94 164.492 71.26C163.422 70.55 162.372 70.89 161.402 70.88C147.482 70.88 133.552 70.88 119.622 70.82C118.352 70.74 116.482 71.56 115.922 69.33Z" fill="#EA5424"/>
<path d="M63.3786 145.56C63.4486 147.04 63.5086 148.43 61.5886 148.95C61.1864 149.104 60.8422 149.379 60.6038 149.738C60.3655 150.096 60.2448 150.52 60.2586 150.95C37.2586 134.62 26.6486 112.48 28.9586 84.2704C29.3091 79.8382 30.2266 75.4692 31.6886 71.2704L32.7386 70.6804C34.1486 70.2504 35.0986 71.2204 36.0486 71.9104C48.2286 80.6971 60.4319 89.4837 72.6586 98.2704C74.7686 99.7904 74.4186 101.49 73.7286 103.48C69.1686 116.73 65.1686 130.17 60.6286 143.48C60.1875 144.449 59.9039 145.482 59.7886 146.54C61.1286 146.66 61.9386 144.75 63.3786 145.56Z" fill="#EA5424"/>
</svg>
