<svg width="200" height="200" viewBox="0 0 200 200" fill="none" xmlns="http://www.w3.org/2000/svg">
<path d="M101.689 64.2303L97.2786 82.7203C96.0686 87.7903 94.7986 92.8603 93.6686 98.0003C93.1986 100.15 92.0586 101 89.8686 101C82.5286 100.93 83.5386 101.57 81.5186 94.9103C77.6586 82.1803 73.8686 69.4203 70.0486 56.6703C69.0486 53.4503 69.3486 53.0703 72.6286 53.1203C78.6286 53.2003 78.4286 52.0003 80.1186 58.8603C82.5786 68.8603 85.1786 78.8603 87.7186 88.7803C87.8586 89.3503 88.0586 89.9103 88.4086 91.0603C90.0986 83.9803 91.6386 77.4803 93.1786 70.9803C94.3919 65.8003 95.6086 60.6303 96.8286 55.4703C96.8746 55.1148 96.9974 54.7735 97.1886 54.4703C99.5286 51.8103 102.589 53.4703 105.309 53.2003C106.899 53.0403 107.389 54.4703 107.699 55.7803C110.299 66.5936 112.895 77.4069 115.489 88.2203C115.679 89.0203 115.889 89.8303 116.089 90.6403C116.939 90.6403 116.769 89.9703 116.889 89.5203C119.769 78.4736 122.642 67.4203 125.509 56.3603C126.359 53.1003 126.759 52.7903 130.209 52.7803H132.489C135.399 52.7803 135.929 53.4803 134.999 56.3303C130.509 70.3303 125.999 84.2303 121.489 98.2003C121.31 99.0575 120.819 99.8178 120.111 100.333C119.403 100.849 118.529 101.083 117.659 100.99C110.249 100.99 111.179 101.49 109.529 94.6103C107.089 84.4703 104.629 74.3303 102.149 64.1903L101.689 64.2303Z" fill="#040404"/>
<path d="M92.8305 148.88C69.5105 148.63 42.8305 138.78 19.9505 118.88L19.6005 118.59C18.8105 117.92 18.0005 117.15 18.7005 116.1C19.4005 115.05 20.4005 115.47 21.3205 115.97C23.4505 117.12 25.5805 118.28 27.7405 119.37C53.4632 132.666 82.3117 138.731 111.21 136.92C128.319 135.8 145.134 131.917 161 125.42C161.9 125.05 162.84 124.74 163.77 124.42C164.068 124.289 164.388 124.218 164.713 124.211C165.038 124.204 165.361 124.261 165.664 124.379C165.967 124.497 166.244 124.673 166.478 124.898C166.712 125.123 166.9 125.393 167.03 125.69C167.73 127.07 166.98 128.08 165.91 128.77C163.31 130.47 160.71 132.18 158.01 133.7C140 143.89 120.55 149 92.8305 148.88Z" fill="#030303"/>
<path d="M55.9997 94.9995C53.2045 98.254 49.4873 100.583 45.3397 101.68C42.0386 102.624 38.5417 102.645 35.2297 101.74C29.8597 100.09 26.3197 96.5595 25.3697 90.9595C24.3697 84.9595 25.8197 79.6495 31.0797 75.9595C35.5197 72.8295 40.5097 72.0895 45.7997 72.5695C49.013 72.8743 52.2076 73.3516 55.3697 73.9995C55.3697 71.8995 55.5197 69.9995 55.3697 68.1195C54.7597 61.8695 51.7597 58.9795 44.7697 58.8795C40.2119 58.9398 35.7141 59.9264 31.5497 61.7795C28.7997 62.8995 28.3897 62.4295 28.1397 59.4595C27.8897 56.4895 29.0797 55.1295 31.5897 54.1195C38.1797 51.4495 44.9997 50.2495 51.9997 51.8195C59.9997 53.5895 64.4597 59.5295 64.4697 67.7295C64.4697 73.4895 64.5297 79.2595 64.4097 85.0195C64.3297 88.6595 64.7497 92.1195 66.6297 95.2995C67.5397 96.8395 67.1297 97.8795 65.6297 98.8795C60.6297 102.23 59.8697 102.09 56.9197 96.6895L55.9997 94.9995ZM55.4297 82.7695C54.6697 82.2095 56.5497 80.5395 54.4997 80.0595C50.4492 79.0226 46.2429 78.7379 42.0897 79.2195C37.3097 79.8695 34.5797 83.0695 34.7797 87.4895C34.8541 89.4371 35.653 91.2867 37.02 92.6759C38.387 94.0651 40.2235 94.8938 42.1697 94.9995C48.2097 95.1795 55.6597 92.6795 55.4397 82.7295L55.4297 82.7695Z" fill="#040404"/>
<path d="M158.529 51.4502C162.128 51.4278 165.693 52.1495 168.999 53.5702C169.656 53.8194 170.255 54.199 170.761 54.6861C171.267 55.1732 171.669 55.7577 171.943 56.4043C172.216 57.051 172.356 57.7464 172.354 58.4486C172.352 59.1509 172.207 59.8453 171.929 60.4902C171.259 62.1202 170.009 61.3402 169.049 60.9002C165.379 59.2322 161.366 58.4577 157.339 58.6402C155.614 58.7199 153.918 59.1201 152.339 59.8202C151.443 60.1942 150.663 60.8014 150.08 61.5788C149.498 62.3562 149.134 63.2753 149.027 64.2408C148.92 65.2063 149.073 66.1829 149.471 67.0691C149.869 67.9553 150.497 68.7187 151.289 69.2802C152.794 70.4111 154.487 71.2676 156.289 71.8102C159.169 72.7402 162.099 73.5202 164.919 74.6002C169.919 76.5002 173.559 79.7102 174.259 85.3002C175.009 91.3002 172.609 95.9302 167.559 99.2002C164.838 100.886 161.751 101.895 158.559 102.14C152.581 102.839 146.527 101.841 141.089 99.2602C138.999 98.2602 137.939 94.5802 139.089 92.5902C139.929 91.1602 141.179 91.8302 142.279 92.3002C147.23 94.4712 152.669 95.289 158.039 94.6702C159.622 94.4792 161.152 93.9762 162.539 93.1902C163.413 92.7261 164.153 92.0439 164.685 91.2098C165.218 90.3757 165.526 89.4182 165.579 88.43C165.632 87.4418 165.429 86.4566 164.99 85.5701C164.55 84.6835 163.888 83.9257 163.069 83.3702C161.829 82.505 160.454 81.8527 158.999 81.4402C155.889 80.5202 152.759 79.6202 149.679 78.6002C143.379 76.5402 139.309 71.2902 139.329 65.3902C139.329 59.7302 143.329 54.8202 149.649 52.6802C152.52 51.7771 155.521 51.3614 158.529 51.4502Z" fill="#040404"/>
<path d="M162.279 118.51L152.559 119.46C151.819 119.53 150.909 119.85 150.559 118.97C150.209 118.09 150.939 117.41 151.639 116.97C155.205 114.657 159.251 113.187 163.469 112.67C168.333 111.809 173.325 112 178.109 113.23C181.299 114.15 181.729 114.62 181.539 117.85C181.224 126.336 177.708 134.389 171.699 140.39C171.217 140.875 170.695 141.32 170.139 141.72C169.599 142.1 169.019 142.6 168.299 142.09C167.579 141.58 167.959 140.92 168.199 140.28C169.579 136.6 171.089 132.97 172.139 129.18C172.708 127.376 173.097 125.52 173.299 123.64C173.539 120.35 172.629 119.27 169.299 118.82C168.169 118.67 167.029 118.6 165.899 118.55C164.769 118.5 163.809 118.51 162.279 118.51Z" fill="#040404"/>
</svg>
