<svg width="200" height="200" viewBox="0 0 200 200" fill="none" xmlns="http://www.w3.org/2000/svg">
<path d="M106.879 30.6796C107.251 30.604 107.635 30.6059 108.007 30.685C108.379 30.7642 108.73 30.9189 109.039 31.1396C109.799 31.9396 110.649 31.5096 111.489 31.3396C123.569 33.3396 134.629 37.6896 144.139 45.6196C155.949 55.4696 164.709 67.2696 167.969 82.6196C167.781 83.2102 167.717 83.833 167.779 84.4496C167.779 84.8696 168.139 85.0496 167.969 84.6396C167.969 84.6396 168.099 84.5196 168.169 84.4696C168.912 86.6233 169.307 88.8816 169.339 91.1596C168.926 95.3047 168.962 99.4824 169.449 103.62C169.449 106.24 169.829 108.87 168.939 111.42C167.939 111.63 168.739 112.57 168.309 113.02C167.991 113.89 167.767 114.792 167.639 115.71C161.479 141.22 136.069 161.48 109.509 164.5C89.5091 166.77 71.3191 162.29 55.5091 149.92C44.2091 141.11 35.8891 129.97 32.3591 115.74C31.8591 114.91 32.0091 113.92 31.7491 113.03C31.3191 112.58 32.1491 111.64 31.1191 111.42C30.2391 109.31 30.6191 107.11 30.6291 104.93C31.094 100.353 31.1242 95.7421 30.7191 91.1596C30.7412 88.8807 31.1365 86.6208 31.8891 84.4696C32.7591 83.9296 32.0891 83.2396 32.0791 82.6096C37.9991 55.3096 62.2691 34.9996 88.5291 31.3396C89.3505 31.628 90.2329 31.6969 91.0891 31.5396C91.5791 31.5396 90.8591 31.3296 90.9691 31.1396C91.2802 30.9186 91.6332 30.7638 92.0065 30.6847C92.3797 30.6056 92.7652 30.6038 93.1391 30.6796C97.7121 31.0396 102.306 31.0396 106.879 30.6796Z" fill="#F48436"/>
<path d="M32.5798 115.4C35.5198 123.18 38.7398 130.79 44.0598 137.35C56.1798 152.35 71.6798 161.13 90.8498 163.61C104.581 165.543 118.577 163.339 131.05 157.28C148.14 149 160.22 136 166.39 117.8C166.66 117.01 166.65 116.03 167.48 115.48C167.69 115.16 167.89 115.16 168.1 115.48C166.89 123.715 163.774 131.553 159 138.37C149.713 152.552 135.502 162.79 119.11 167.11C114.908 168.325 110.585 169.076 106.22 169.35C102.082 168.97 97.9177 168.97 93.7798 169.35C79.6936 168.22 66.2806 162.847 55.3098 153.94C43.8076 144.725 35.6011 132.031 31.9198 117.76C31.8497 117.219 31.8497 116.671 31.9198 116.13C32.0998 115.85 32.1598 115.47 32.5798 115.4Z" fill="#9C5025"/>
<path d="M106.881 30.6796C102.344 31.5695 97.6774 31.5695 93.1406 30.6796C97.7139 30.3295 102.307 30.3295 106.881 30.6796Z" fill="#F47D22"/>
<path d="M30.6693 91.1602C31.6047 95.7057 31.574 100.397 30.5793 104.93C30.2743 100.344 30.3044 95.7419 30.6693 91.1602Z" fill="#F47E24"/>
<path d="M169.451 103.62C168.425 99.5346 168.387 95.2632 169.341 91.1602C169.682 95.3052 169.719 99.4697 169.451 103.62Z" fill="#F47E24"/>
<path d="M93.7812 169.35C97.878 168.439 102.125 168.439 106.221 169.35C102.08 169.66 97.9221 169.66 93.7812 169.35Z" fill="#953F00"/>
<path d="M32.5801 115.4L31.9101 116.13C31.5926 115.776 31.3723 115.345 31.2706 114.881C31.169 114.417 31.1895 113.934 31.3301 113.48C31.5101 113.24 31.4901 112.82 31.9201 112.77C32.6901 113.51 32.4801 114.5 32.5801 115.4Z" fill="#9A4A19"/>
<path d="M90.9986 31.1396C91.2011 31.1648 91.3975 31.2257 91.5786 31.3196C91.8786 31.5296 91.8986 31.8396 91.4686 31.8396C90.4686 31.8396 89.3986 32.2096 88.5586 31.3396L90.9986 31.1396Z" fill="#F47F26"/>
<path d="M111.49 31.3396C110.64 32.1996 109.56 31.8196 108.57 31.8396C108.14 31.8396 108.16 31.5296 108.45 31.3196C108.635 31.2271 108.834 31.1662 109.04 31.1396L111.49 31.3396Z" fill="#F47F26"/>
<path d="M31.9986 82.6104C32.2618 82.9542 32.4361 83.3578 32.5058 83.7852C32.5756 84.2126 32.5388 84.6506 32.3986 85.0603C32.3986 85.0603 32.0186 85.1403 31.9886 85.0603C31.8987 84.8671 31.838 84.6615 31.8086 84.4503C31.8986 83.8503 31.9986 83.2304 31.9986 82.6104Z" fill="#F47F26"/>
<path d="M168.168 84.4697C168.134 84.6798 168.074 84.8847 167.988 85.0797C167.988 85.1397 167.578 85.0797 167.578 85.0797C167.458 84.2297 167.268 83.3596 167.968 82.6396L168.168 84.4697Z" fill="#F47F26"/>
<path d="M31.9203 112.77L31.3303 113.48C31.2403 112.79 31.1503 112.11 31.0703 111.42C31.1629 111.233 31.2734 111.055 31.4003 110.89C32.3503 111.29 31.7003 112.15 31.9203 112.77Z" fill="#954107"/>
<path d="M168.09 112.78C168.3 112.15 167.66 111.3 168.61 110.89C168.735 111.057 168.845 111.234 168.94 111.42C168.85 112.11 168.77 112.79 168.68 113.48C168.13 113.55 167.74 113.48 168.09 112.78Z" fill="#954107"/>
<path d="M168.088 112.78L168.678 113.48L168.098 115.48H167.478C167.488 114.54 167.318 113.55 168.088 112.78Z" fill="#9A4A19"/>
<path d="M77.2894 65.4597C77.2294 61.2997 77.2094 57.1397 77.0794 52.9797C77.0794 51.3797 77.6694 50.9197 79.1894 50.9797C85.5494 51.0397 91.9194 51.0797 98.2694 50.9797C100.269 50.9797 100.509 52.2797 101.019 53.5697C109.559 74.9997 118.149 96.4197 126.579 117.89C127.579 120.38 128.459 121 130.989 119.97C133.879 118.8 137.319 116.11 139.719 117.38C141.819 118.49 142.349 122.62 143.499 125.44C145.429 130.16 145.409 130.19 140.499 132C134.249 134.31 127.899 136.39 121.759 139C119.189 140.07 118.699 139 117.929 137.07C112.803 124.036 107.619 111.036 102.379 98.0697C102.019 97.1797 102.259 95.6797 100.819 95.6297C99.3794 95.5797 99.2394 96.9897 98.7094 97.8797C91.3394 110.42 83.9594 122.95 76.7094 135.55C76.3355 136.365 75.7134 137.041 74.9321 137.481C74.1507 137.921 73.2502 138.102 72.3594 138C67.7694 137.82 63.1594 137.95 58.5394 137.95C58.0794 136.43 59.1794 135.59 59.7394 134.64C70.4794 116.213 81.2661 97.7864 92.0994 79.3597C93.3994 77.1697 93.7494 75.3597 92.5694 73.0497C91.3894 70.7397 90.5694 68.4197 89.6494 66.0497C86.7394 65.3397 83.7794 65.9097 80.8494 65.7097C79.6594 65.6797 78.4294 66.0497 77.2894 65.4597Z" fill="#FEFEFE"/>
<path d="M74.4717 139H58.2617V138.67H74.5517L74.4717 139Z" fill="#F48332"/>
<path d="M76.3206 67.3097C76.42 67.3097 76.5006 63.2042 76.5006 58.1397C76.5006 53.0753 76.42 48.9697 76.3206 48.9697C76.2212 48.9697 76.1406 53.0753 76.1406 58.1397C76.1406 63.2042 76.2212 67.3097 76.3206 67.3097Z" fill="#F4802B"/>
<path d="M77.2891 65.4604C81.3991 65.8204 85.5891 64.6604 89.6491 66.1004C85.5391 65.7504 81.3491 66.8604 77.2891 65.4604Z" fill="#F4812D"/>
</svg>
