<svg width="200" height="200" viewBox="0 0 200 200" fill="none" xmlns="http://www.w3.org/2000/svg">
<path d="M110.28 172.79C110.28 164.97 110.16 157.79 110.35 150.67C110.42 148.03 109.65 147.35 107.04 147.37C91.7603 147.49 76.4703 147.44 61.1903 147.43C47.5803 147.43 39.8203 139.61 39.8203 125.95C39.8203 99.95 39.8203 73.92 39.8203 47.86C39.8203 35.1 47.7503 27.21 60.5703 27.21C86.9303 27.21 113.29 27.21 139.65 27.21C152.19 27.21 160.16 35.21 160.16 47.77C160.16 74.1366 160.16 100.5 160.16 126.86C160.16 139.32 152.09 147.46 139.55 147.35C138.197 147.283 136.847 147.527 135.602 148.062C134.358 148.598 133.252 149.411 132.37 150.44C125.9 157.27 119.2 163.89 112.59 170.59C112 171.19 111.38 171.76 110.28 172.79Z" fill="#DA5A48"/>
<path d="M112.999 86.4198C116.919 84.5298 117.149 81.1799 117.759 77.9099C118.459 74.0999 121.289 71.6799 124.269 72.1099C125.149 72.2399 126.439 72.1098 126.269 73.7098C126.129 74.7598 125.859 75.4599 124.499 75.6199C122.119 75.9099 119.499 80.7598 120.499 82.8898C120.949 83.9499 123.659 83.9699 124.339 82.7199C125.199 81.1499 126.649 80.4499 127.909 79.4699C128.649 79.8699 128.429 80.4698 128.289 80.9198C127.419 83.2698 128.479 83.7799 130.609 83.6398C131.399 83.5798 132.839 83.0198 132.819 84.6398C132.855 84.9418 132.821 85.2479 132.721 85.535C132.621 85.8221 132.457 86.0826 132.241 86.2966C132.025 86.5106 131.763 86.6726 131.475 86.7702C131.187 86.8678 130.881 86.8985 130.579 86.8599C129.399 86.8599 127.579 86.0499 127.119 87.7499C126.409 90.2598 125.499 92.8298 125.909 95.5198C126.049 96.3898 127.049 96.4198 127.829 96.5198C128.429 96.5198 129.349 96.2798 129.219 97.3398C129.109 98.1398 129.299 99.1098 128.219 99.5898C125.609 100.74 122.149 98.7299 122.219 95.8699C122.289 93.6799 122.859 91.5098 123.119 89.3198C123.229 88.4098 124.359 87.0499 122.269 86.8699C120.739 86.7399 119.469 86.8099 119.129 88.8699C118.279 93.8699 117.289 98.8699 116.359 103.87C116.239 104.52 116.049 105.16 115.949 105.82C115.699 107.51 114.399 107.11 113.379 107.03C111.869 106.93 112.479 105.79 112.619 105.03C113.619 100.03 114.509 95.0298 115.559 90.0298C115.869 88.0898 115.999 86.5198 112.999 86.4198Z" fill="#FEFDFD"/>
<path d="M65.7383 88.5799C65.9083 76.6399 77.1783 68.6699 86.0483 72.9999C87.1283 73.5199 89.3883 73.7399 88.5283 75.6699C87.7483 77.4099 86.1983 76.7599 84.6283 75.9899C80.4483 73.9199 75.0883 75.5599 71.9183 79.5799C68.5283 83.8799 68.2183 89.2999 71.1483 93.0899C72.329 94.5726 73.9509 95.6412 75.7792 96.141C77.6076 96.6407 79.5475 96.5458 81.3183 95.8699C82.1167 95.4974 82.9424 95.1865 83.7883 94.9399C84.2356 94.9041 84.6819 95.0197 85.0555 95.2682C85.4292 95.5167 85.7084 95.8836 85.8483 96.3099C86.2283 97.1599 85.2483 97.3099 84.7583 97.6299C80.5683 100.02 76.1883 100.72 71.7583 98.2999C69.9744 97.3698 68.4739 95.9763 67.4146 94.2659C66.3553 92.5556 65.7762 90.5914 65.7383 88.5799Z" fill="#FEFDFD"/>
<path d="M101.182 86.6599C100.772 84.3299 101.662 83.2799 103.922 83.0699C108.062 82.6899 110.632 83.7199 111.162 86.6099C111.912 90.7599 109.992 94.6099 109.352 98.6099C109.352 98.8999 108.562 99.3999 108.352 99.3099C105.952 98.1299 103.712 100.02 101.352 99.5999C100.227 99.4924 99.1839 98.9678 98.4269 98.1294C97.6699 97.291 97.2543 96.1995 97.262 95.0699C97.162 92.2799 98.882 90.5299 101.482 89.8499C102.684 89.7126 103.895 89.6859 105.102 89.7699C105.962 89.7099 107.292 91.3899 107.632 89.2299C107.912 87.4399 107.172 86.0599 105.262 85.9599C103.881 86.0485 102.513 86.2831 101.182 86.6599Z" fill="#FEFCFC"/>
<path d="M88.0012 97.8804C88.8112 93.4404 89.5812 89.3204 90.3012 85.1904C90.4512 84.3704 90.6512 83.5104 91.6412 83.6804C93.5468 84.1707 95.5456 84.1707 97.4512 83.6804C98.1012 83.4704 98.3712 84.1304 98.3012 84.7404C98.2112 85.5704 98.4312 86.8504 97.2212 86.8204C92.8912 86.7004 92.7612 89.8204 92.2212 92.8204C91.9112 94.6704 91.5112 96.5004 91.0912 98.3304C90.7712 99.7204 89.6512 99.4904 88.6912 99.3304C87.6112 99.1804 87.9212 98.3204 88.0012 97.8804Z" fill="#FDFBFA"/>
<path d="M103.899 92.3301C104.969 92.8701 107.009 92.4501 106.809 94.2401C106.589 96.2401 104.739 96.9501 102.869 96.9801C101.529 96.9801 100.349 96.2301 100.479 94.8201C100.639 93.0001 102.229 92.5301 103.899 92.3301Z" fill="#DB5F4E"/>
</svg>
