<svg width="200" height="200" viewBox="0 0 200 200" fill="none" xmlns="http://www.w3.org/2000/svg">
<path d="M44.4019 32.5602C48.4833 32.7811 52.5364 33.3702 56.5119 34.3202C56.6719 34.3202 56.8619 34.3202 56.9619 34.5502C57.0719 34.9502 56.7519 35.0902 56.5219 35.2602C54.0619 37.0502 51.5819 38.8202 49.1219 40.6002C44.3752 44.0202 39.6385 47.4302 34.9119 50.8302L29.4419 54.7702C29.2219 54.9202 28.9919 55.1702 28.6719 54.9302C28.6719 52.8235 28.6719 50.7135 28.6719 48.6002V32.4502H40.6719C41.2788 32.5253 41.8913 32.5454 42.5019 32.5102H43.3219C43.6826 32.4955 44.044 32.5123 44.4019 32.5602Z" fill="#F16F57"/>
<path d="M133.272 32.4502C133.602 32.7302 134.022 32.5902 134.392 32.6602C135.152 32.8102 135.932 32.8902 136.712 32.9902C136.932 33.2702 136.712 33.4902 136.592 33.7102C132.452 40.4702 128.422 47.3002 124.322 54.0902L119.512 62.0902H113.172C112.962 61.7402 113.252 61.5102 113.392 61.2702C116.462 56.0902 119.602 50.9702 122.692 45.8102C125.132 41.7169 127.582 37.6369 130.042 33.5702C130.173 33.4218 130.25 33.2334 130.261 33.0356C130.272 32.8378 130.216 32.6421 130.102 32.4802H131.422C131.642 32.6102 131.882 32.4802 132.112 32.5402C132.413 32.5699 132.717 32.5496 133.012 32.4802L133.272 32.4502Z" fill="#C75E4F"/>
<path d="M109.32 60.7602L106.41 56.1302C107.649 54.3392 108.797 52.4868 109.85 50.5802C113.41 44.6702 116.95 38.7602 120.52 32.8602C120.607 32.7088 120.714 32.5707 120.84 32.4502H126.39C126.6 32.8002 126.32 33.0302 126.17 33.2802C123.503 37.7069 120.837 42.1402 118.17 46.5802C115.44 51.1002 112.74 55.6502 110.01 60.1702C109.85 60.4302 109.77 60.8202 109.32 60.7602Z" fill="#C35A4F"/>
<path d="M109.32 60.7602C109.996 60.0073 110.562 59.1622 111 58.2502C113.7 53.8102 116.367 49.3569 119 44.8902L126.25 32.8202C126.301 32.7005 126.341 32.5767 126.37 32.4502H130.08C130.59 32.6002 130.65 32.8302 130.35 33.3202C127.74 37.6102 125.17 41.9302 122.58 46.2402C119.99 50.5502 117.58 54.6202 115.01 58.8202C114.317 59.8566 113.696 60.9392 113.15 62.0602C112.22 62.0602 111.3 62.0602 110.37 62.0602C110.252 62.0703 110.133 62.0417 110.032 61.9786C109.931 61.9155 109.853 61.8213 109.81 61.7102C109.67 61.4102 109.49 61.0902 109.32 60.7602Z" fill="#C55C4F"/>
<path d="M171.36 76.0003C171.22 76.0003 171.24 76.1703 171.21 76.2703C168.21 80.8603 165.51 85.5903 162.7 90.2703C158.94 96.5103 155.16 102.75 151.42 109C151.23 109.32 151.09 109.69 150.63 109.71C149.76 109.213 149.046 108.482 148.57 107.6C154.07 98.6003 159.47 89.5003 164.93 80.4503C166.72 77.4503 168.5 74.4503 170.31 71.5203C170.633 71.0559 170.902 70.5559 171.11 70.0303C171.36 70.4403 171.05 70.9703 171.36 71.3703V71.5103C171.21 71.8303 171.36 72.1703 171.29 72.5103V74.6003C171.29 74.9403 171.21 75.2803 171.36 75.6003V76.0003Z" fill="#E57D4A"/>
<path d="M120.841 32.4499C120.269 33.6618 119.6 34.8255 118.841 35.9299C116.331 40.1399 113.781 44.3399 111.251 48.5499C109.871 50.8399 108.511 53.1499 107.121 55.4399C106.951 55.7199 106.831 56.1099 106.391 56.1299C105.561 54.9299 104.721 53.7399 103.891 52.5499C106.301 48.6599 108.611 44.7099 110.971 40.7899L115.781 32.7899C115.857 32.6545 115.951 32.53 116.061 32.4199L120.841 32.4499Z" fill="#C15750"/>
<path d="M95.3303 42.8902C93.4703 41.2202 91.6303 39.5202 89.6603 37.9802C87.2994 36.1164 84.8355 34.387 82.2803 32.8002C82.1203 32.7002 81.9103 32.6402 81.8203 32.4502H101.53C101.75 32.7202 101.53 32.9402 101.42 33.1602C99.5603 36.1602 97.7503 39.2702 95.9103 42.3202C95.7703 42.5502 95.6803 42.8602 95.3303 42.8902Z" fill="#B74E51"/>
<path d="M100.838 48.73L98.0781 45.73C98.9781 44.14 99.9681 42.61 100.908 41.04C102.608 38.19 104.328 35.35 106.018 32.5H110.648C110.918 32.91 110.648 33.21 110.428 33.5C108.698 36.4 106.968 39.28 105.228 42.17C104.078 44.1 102.928 46.03 101.758 47.94C101.548 48.25 101.408 48.74 100.838 48.73Z" fill="#BC5350"/>
<path d="M105.999 32.4504C105.799 33.236 105.427 33.9672 104.909 34.5904C102.909 38.0504 100.779 41.4904 98.6886 44.9404C98.5186 45.2104 98.3886 45.5304 98.0586 45.6804C97.0586 44.8304 96.2586 43.7904 95.3086 42.8904C96.5086 40.8904 97.7086 38.9604 98.8986 36.9904C99.6986 35.6804 100.479 34.3604 101.279 32.9904C101.426 32.8291 101.508 32.6188 101.509 32.4004L105.999 32.4504Z" fill="#BA5151"/>
<path d="M100.84 48.7302C101.533 48.0858 102.082 47.302 102.45 46.4302C105.09 42.0902 107.7 37.7202 110.31 33.3602C110.52 33.1022 110.639 32.7826 110.65 32.4502H113.65C113.91 32.8102 113.65 33.0702 113.47 33.3402C111.3 37.0002 109.09 40.6302 106.89 44.2802C105.67 46.2802 104.45 48.3602 103.21 50.4002C103.07 50.6302 102.99 51.0302 102.54 50.8302L100.84 48.7302Z" fill="#BE5550"/>
<path d="M102.578 50.8299C103.118 50.7399 103.168 50.2099 103.378 49.8299C106.758 44.2566 110.121 38.6766 113.468 33.0899C113.62 32.9007 113.699 32.6626 113.688 32.4199H116.078C116.012 32.8303 115.828 33.2125 115.548 33.5199C113.028 37.7266 110.498 41.9333 107.958 46.1399L104.308 52.2399C104.277 52.3209 104.222 52.3907 104.151 52.4405C104.079 52.4903 103.995 52.518 103.908 52.5199L102.578 50.8299Z" fill="#BE5550"/>
<path d="M170.002 116.18C170.539 118.084 170.907 120.031 171.102 122C171.099 122.626 171.186 123.249 171.362 123.85V124C171.212 124.32 171.362 124.67 171.292 125V127.22C171.292 127.56 171.212 127.9 171.362 128.22V128.62C171.062 128.97 171.362 129.43 171.142 129.8C170.812 129.94 170.672 129.66 170.502 129.49C169.692 128.71 168.912 127.89 168.102 127.1C167.292 126.31 166.472 125.39 165.542 124.65C165.282 124.44 164.952 124.24 164.992 123.82C166.422 121.63 167.692 119.35 169.062 117.13C169.212 116.88 169.342 116.63 169.512 116.4C169.682 116.17 169.762 116 170.002 116.18Z" fill="#F18A49"/>
<path d="M171.25 127.29V124.9C171.25 124.85 171.33 124.85 171.36 124.9V127.28C171.36 127.28 171.29 127.35 171.25 127.29Z" fill="#F8BB93"/>
<path d="M171.25 74.6499V72.3799C171.25 72.3799 171.33 72.3799 171.36 72.3799V74.6299C171.33 74.6999 171.29 74.6999 171.25 74.6499Z" fill="#EFB091"/>
<path d="M42.5414 32.5702C41.9225 32.6407 41.296 32.6 40.6914 32.4502H42.5414C42.5414 32.4502 42.6014 32.4502 42.5414 32.5302C42.4814 32.6102 42.5614 32.5702 42.5414 32.5702Z" fill="#F27B68"/>
<path d="M44.3989 32.5601H43.3389C43.2889 32.5601 43.2689 32.5601 43.2889 32.4901C43.3089 32.4201 43.2889 32.4901 43.2889 32.4901H44.3489C44.3489 32.4901 44.3989 32.5201 44.3989 32.5601Z" fill="#F9C1B9"/>
<path d="M171.36 124.91H171.25C171.25 124.6 171.09 124.27 171.36 123.99V124.91Z" fill="#FAD4BB"/>
<path d="M171.248 74.6504H171.358V75.5804C171.088 75.2904 171.278 75.0004 171.248 74.6504Z" fill="#F3C3AC"/>
<path d="M171.248 127.29H171.358V128.21C171.088 127.94 171.278 127.6 171.248 127.29Z" fill="#FAD1B6"/>
<path d="M133.001 32.4502C132.721 32.7302 132.391 32.5102 132.081 32.5602C132.031 32.5602 132.011 32.5602 132.031 32.4902C132.051 32.4202 132.031 32.4902 132.031 32.4902L133.001 32.4502Z" fill="#E4B1AA"/>
<path d="M171.36 72.3905H171.25C171.25 72.0905 171.08 71.7505 171.36 71.4805V72.3905Z" fill="#F3C8B4"/>
<path d="M43.3313 32.4504C43.3313 32.4504 43.3313 32.5204 43.3313 32.5604H42.5312V32.4404L43.3313 32.4504Z" fill="#F5998A"/>
<path d="M132.08 32.4502C132.08 32.4502 132.08 32.5202 132.08 32.5602C131.85 32.5602 131.6 32.6602 131.41 32.4502H132.08Z" fill="#D5887D"/>
<path d="M94.6914 140.4C93.3849 142.226 91.9584 143.963 90.4214 145.6C88.4491 147.769 86.3272 149.798 84.0714 151.67C83.4814 152.17 82.8514 152.67 82.2414 153.12C80.5714 153.18 78.8914 153.26 77.2414 153.27C71.7314 153.27 66.2414 153.53 60.7314 153.59C58.7314 153.59 56.7314 153.59 54.7914 153.7C50.5914 153.85 46.3814 153.87 42.1814 153.99C40.1814 153.99 38.1814 153.99 36.1814 154.11C33.8714 154.28 31.5614 154.11 29.2514 154.27C29.1542 154.289 29.054 154.288 28.9574 154.265C28.8609 154.243 28.7702 154.2 28.6914 154.14V141.7C28.7448 141.604 28.823 141.523 28.9179 141.467C29.0128 141.41 29.1211 141.381 29.2314 141.38C29.3646 141.37 29.4982 141.37 29.6314 141.38C33.0914 141.47 36.5414 141.27 40.0014 141.22C44.2914 141.16 48.5814 141.06 52.8614 140.95C54.8014 140.9 56.7414 140.95 58.6714 140.84C62.9214 140.68 67.1614 140.66 71.4114 140.55C73.3014 140.5 75.1914 140.55 77.0814 140.45C81.3514 140.28 85.6214 140.24 89.8914 140.16C91.1814 140.16 92.4814 140.05 93.7814 140.06C94.1014 140.05 94.4814 140 94.6914 140.4Z" fill="#F79C41"/>
<path d="M94.6889 140.4C94.4108 140.261 94.0972 140.209 93.7889 140.25C90.7889 140.25 87.7889 140.35 84.7889 140.42C82.7889 140.47 80.7889 140.42 78.7189 140.53C76.6489 140.64 74.5389 140.53 72.4589 140.67C70.3789 140.81 68.4589 140.67 66.5289 140.8C64.3889 140.96 62.2489 140.8 60.1289 140.94C58.3289 141.08 56.5189 140.94 54.7289 141.05C52.3989 141.2 50.0589 141.05 47.7289 141.21C45.7289 141.33 43.7289 141.21 41.7989 141.33C39.8689 141.45 37.6589 141.33 35.5989 141.46C33.5389 141.59 31.3789 141.46 29.2689 141.57C29.0476 141.553 28.8259 141.598 28.6289 141.7C28.6289 140.62 28.6289 139.54 28.6289 138.46C28.6289 137.99 28.7689 137.88 29.2289 137.88C33.2289 137.88 37.2889 137.95 41.3189 137.88C50.009 137.787 58.3901 134.644 64.9989 129C69.1817 125.527 72.5424 121.169 74.8389 116.24C74.903 116.124 74.9731 116.01 75.0489 115.9C75.219 115.95 75.3693 116.051 75.4789 116.19C76.8789 117.57 78.2189 119.01 79.6989 120.32C82.3189 122.85 84.8589 125.45 87.4389 128.03C88.0055 128.446 88.5282 128.919 88.9989 129.44C91.5089 131.82 93.9089 134.31 96.3589 136.75C96.5589 136.95 96.8889 137.1 96.8089 137.49C96.1654 138.505 95.4573 139.477 94.6889 140.4Z" fill="#F89E3E"/>
<path d="M121.371 137.73C124.271 137.73 127.171 137.73 130.081 137.73C131.962 137.734 133.816 137.277 135.48 136.4C137.145 135.523 138.569 134.252 139.63 132.697C140.69 131.143 141.354 129.353 141.563 127.483C141.772 125.613 141.521 123.72 140.831 121.97L140.591 121.36C140.946 121.005 141.35 120.702 141.791 120.46C145.211 117.98 148.651 115.54 152.071 113.06C152.423 112.727 152.864 112.501 153.341 112.41C153.761 112.48 153.951 112.84 154.241 113.08C155.191 114.08 156.241 115.02 157.241 115.99C158.511 117.28 159.801 118.56 161.081 119.83C161.801 120.57 162.541 121.28 163.261 122.02C163.451 122.22 163.701 122.39 163.711 122.71C163.721 123.03 163.231 123.26 162.931 123.48C156.371 128.187 149.814 132.907 143.261 137.64C136.707 142.373 130.094 147.13 123.421 151.91L117.361 156.28C117.1 156.518 116.783 156.686 116.441 156.77C116.201 156.721 115.987 156.586 115.841 156.39C113.221 153.81 110.531 151.28 107.961 148.63C107.771 148.44 107.501 148.27 107.521 147.94C108.631 147 109.861 146.22 111.031 145.37C114.181 143.07 117.351 140.81 120.511 138.54C120.836 138.314 121.126 138.041 121.371 137.73Z" fill="#F79840"/>
<path d="M28.6706 154.14C29.9144 153.986 31.1692 153.943 32.4206 154.01C35.2806 153.97 38.1373 153.91 40.9906 153.83C42.9906 153.77 44.9906 153.83 47.0506 153.72C49.1106 153.61 51.2306 153.72 53.3106 153.58C55.3906 153.44 57.3106 153.58 59.3106 153.46C61.3106 153.34 63.5306 153.46 65.6306 153.32C67.5706 153.17 69.5106 153.32 71.4306 153.19C73.6106 153.02 75.7906 153.19 77.9506 153.05C79.1606 152.97 80.3706 152.99 81.5706 152.95C81.8006 152.95 82.0706 152.87 82.2406 153.12C80.1768 154.809 77.9908 156.343 75.7006 157.71C70.0595 161.163 63.9357 163.759 57.5306 165.41C53.5509 166.465 49.4788 167.135 45.3706 167.41C39.9806 167.73 34.5706 167.5 29.1806 167.57C28.8606 167.57 28.6406 167.57 28.6406 167.13C28.6606 162.78 28.6606 158.46 28.6706 154.14Z" fill="#F79B45"/>
<path d="M79.5686 120.41L75.5686 116.41C75.3886 116.23 75.2286 116.02 75.0586 115.82C76.1123 113.487 76.9427 111.06 77.5386 108.57C77.7486 107.65 77.9286 106.73 78.1186 105.81C79.7086 104.62 81.3286 103.48 82.9386 102.33C88.5653 98.2702 94.1986 94.2168 99.8386 90.1702L105.949 85.7602C106.123 85.5886 106.341 85.4676 106.579 85.4102C107.026 87.133 107.36 88.8835 107.579 90.6502C108.028 93.7424 108.229 96.8658 108.179 99.9902C106.959 100.99 105.629 101.88 104.349 102.8L87.1586 115.21C84.8486 116.87 82.5486 118.54 80.2286 120.21C79.9986 120.32 79.8386 120.48 79.5686 120.41Z" fill="#F58849"/>
<path d="M170.591 133.64C170.206 136.119 169.535 138.545 168.591 140.87C165.036 150.235 158.169 157.97 149.291 162.61C144.645 165.107 139.543 166.644 134.291 167.13C133.567 167.214 132.839 167.254 132.111 167.25C130.501 167.36 128.881 167.32 127.271 167.25C126.511 167.25 126.141 166.51 125.711 165.96C125.711 165.44 126.081 165.23 126.401 164.96L131.761 161.1L146.761 150.3L163.431 138.3L169.601 133.87C169.891 133.73 170.151 133.35 170.591 133.64Z" fill="#F89F3C"/>
<path d="M106.57 85.4596C105.517 86.3488 104.412 87.1736 103.26 87.9296C99.4468 90.703 95.6268 93.463 91.8002 96.2096L82.3502 103C81.1502 103.86 79.9502 104.7 78.7602 105.56C78.5747 105.717 78.35 105.82 78.1102 105.86L78.4102 103.2C78.5102 102.94 78.4102 102.64 78.5002 102.38C78.5802 100.09 78.5 97.7979 78.2602 95.5196C78.0602 93.9296 77.7602 92.3596 77.4102 90.7896C81.6202 87.9396 85.6802 84.8696 89.8202 81.9296C93.9602 78.9896 97.8702 76.1296 101.9 73.2396C102.073 73.1022 102.261 72.9848 102.46 72.8896C103.562 75.2664 104.491 77.7194 105.24 80.2297C105.78 81.9997 106.15 83.7096 106.57 85.4596Z" fill="#F4844B"/>
<path d="M54.9412 64.8698C53.3712 64.3298 51.8112 63.7498 50.1912 63.3298C47.1852 62.5671 44.1018 62.151 41.0012 62.0898C40.8212 62.0898 40.6512 62.0898 40.4712 62.0898C40.2612 61.5598 40.7212 61.3898 41.0112 61.1798C42.2012 60.2998 43.4012 59.4498 44.5912 58.5898L59.8112 47.5898C63.5012 44.9298 67.2112 42.2798 70.8912 39.5898C74.4668 41.3561 77.8541 43.4803 81.0012 45.9298C81.1012 46.4498 80.6712 46.6198 80.3712 46.8298C78.5178 48.1632 76.6745 49.4965 74.8412 50.8298L60.6612 60.9998C59.0312 62.1798 57.4212 63.3598 55.7712 64.5098C55.5312 64.7198 55.2912 64.9998 54.9412 64.8698Z" fill="#F27653"/>
<path d="M170.591 133.64C169.831 133.7 169.371 134.3 168.811 134.7C165.561 137 162.331 139.35 159.101 141.7L147.851 149.81L137.371 157.32C133.717 159.94 130.071 162.563 126.431 165.19C126.186 165.376 125.952 165.576 125.731 165.79C125.461 165.87 125.331 165.66 125.181 165.52C123.891 164.27 122.681 162.95 121.311 161.78C121.2 161.71 121.106 161.618 121.034 161.509C120.961 161.401 120.913 161.278 120.891 161.15C120.951 160.8 121.221 160.64 121.471 160.46L148.711 140.84L167.491 127.32C167.691 127.17 167.881 126.95 168.191 127.03C168.991 127.81 169.781 128.59 170.591 129.36C170.761 129.52 170.881 129.75 171.141 129.8C171.068 131.093 170.884 132.378 170.591 133.64Z" fill="#F89C3E"/>
<path d="M79.5703 120.41C81.1303 119.31 82.7003 118.22 84.2503 117.11C86.9703 115.11 89.6803 113.19 92.4003 111.23L103.71 103.08C105.05 102.08 106.4 101.18 107.71 100.23C107.819 100.118 107.965 100.05 108.12 100.04C108.172 105.938 107.402 111.815 105.83 117.5C105.445 117.891 105.007 118.228 104.53 118.5C99.5303 122.12 94.5303 125.69 89.5303 129.31C89.3203 129.46 89.1203 129.74 88.7803 129.54C88.4603 128.99 87.8803 128.72 87.4503 128.28L80.3403 121.18C80.1303 120.9 79.8503 120.66 79.5703 120.41Z" fill="#F58B47"/>
<path d="M73.2086 80.6003C71.9644 78.6345 70.5773 76.7628 69.0586 75.0004C67.9586 73.7704 66.7686 72.6203 65.5586 71.4903L79.9986 61.0004L89.2286 54.3604C89.4212 54.177 89.6286 54.0097 89.8486 53.8604C91.0725 55.0507 92.2056 56.331 93.2386 57.6903C94.721 59.4775 96.0776 61.3653 97.2986 63.3404C96.8361 63.8128 96.3113 64.2199 95.7386 64.5504L77.6186 77.6703C76.4386 78.5103 75.2686 79.3804 74.0786 80.2104C73.8186 80.3904 73.5986 80.6803 73.2086 80.6003Z" fill="#F37C4F"/>
<path d="M73.2109 80.5999L85.2109 71.9699L95.7009 64.4599C96.2021 64.0352 96.7528 63.6726 97.3409 63.3799C98.9443 65.764 100.355 68.2719 101.561 70.8799C101.871 71.5499 102.161 72.2199 102.461 72.8799C102.301 73.3399 101.831 73.4499 101.461 73.6999L89.4109 82.4599L80.4909 88.8499L78.2009 90.5099C77.9769 90.6899 77.6984 90.7886 77.4109 90.7899C76.4688 87.2221 75.0564 83.7954 73.2109 80.5999Z" fill="#F4804D"/>
<path d="M153.368 112.47C152.342 112.967 151.386 113.599 150.528 114.35C147.788 116.28 145.088 118.26 142.358 120.21C141.83 120.674 141.233 121.052 140.588 121.33C139.885 119.853 138.878 118.541 137.632 117.481C136.385 116.421 134.929 115.637 133.358 115.18C132.211 114.852 131.021 114.697 129.828 114.72H120.578C120.578 114.31 120.868 114.15 121.128 113.97C127.061 109.704 132.995 105.437 138.928 101.17C139.464 100.652 140.091 100.238 140.778 99.9502C141.052 100.03 141.291 100.199 141.458 100.43C142.328 101.29 143.188 102.16 144.058 103.01C145.338 104.39 146.768 105.61 148.058 106.94C148.258 107.13 148.508 107.29 148.568 107.6C149.183 108.317 149.851 108.986 150.568 109.6C151.181 110.045 151.744 110.555 152.248 111.12C152.518 111.4 152.808 111.67 153.078 111.96C153.348 112.25 153.458 112.2 153.368 112.47Z" fill="#F69243"/>
<path d="M158.792 44.0996C160.273 45.4506 161.613 46.9483 162.792 48.5696C162.962 48.8596 162.792 49.0696 162.642 49.2896C157.812 57.2896 153.052 65.2896 148.232 73.2396C144.452 79.4896 140.712 85.7796 136.942 92.0396C136.552 92.6796 136.182 93.3296 135.772 93.9596C135.632 94.1696 135.512 94.4296 135.192 94.4496C134.872 94.4696 134.662 94.1596 134.452 93.9396C133.452 92.9396 132.402 91.9396 131.362 90.8696C131.122 90.5196 130.642 90.3396 130.602 89.8696C131.702 88.4596 132.472 86.8696 133.452 85.3596C133.614 85.1223 133.723 84.8529 133.772 84.5696C135.05 84.0879 136.247 83.4135 137.322 82.5696C138.755 81.448 139.897 79.9967 140.649 78.3392C141.401 76.6817 141.741 74.8671 141.642 73.0496V72.5196C144.582 67.6596 147.508 62.7929 150.422 57.9196C153.112 53.4196 155.852 48.9196 158.522 44.4496C158.582 44.3196 158.642 44.1696 158.792 44.0996Z" fill="#D8704C"/>
<path d="M120.999 161.15L124.099 164.15L125.759 165.75C126.149 166.16 126.549 166.57 126.929 166.99C127.027 167.079 127.143 167.144 127.27 167.18C127.396 167.217 127.529 167.224 127.659 167.2H132.139C131.783 167.309 131.409 167.343 131.039 167.3H82.2891C82.3094 167.231 82.3361 167.164 82.3691 167.1C85.9778 164.815 89.4167 162.271 92.6591 159.49C95.7391 159.49 98.8191 159.49 101.889 159.33H102.229C105.439 159.42 108.659 159.15 111.869 159.19C113.699 159.19 115.519 158.98 117.349 159.06C117.539 159.06 117.789 159.06 117.879 158.89C117.969 158.72 117.769 158.57 117.669 158.44C117.535 158.294 117.424 158.129 117.339 157.95C117.339 157.79 117.339 157.62 117.559 157.68C117.687 157.717 117.802 157.79 117.889 157.89C118.889 158.89 119.819 159.8 120.779 160.78C120.878 160.886 120.953 161.012 120.999 161.15Z" fill="#F79A47"/>
<path d="M131.421 90.7805L134.491 93.7805C134.691 93.9805 134.911 94.1605 135.121 94.3505C135.314 94.453 135.492 94.5808 135.651 94.7305C136.851 96.0105 138.191 97.1305 139.431 98.3705C139.781 98.7305 140.151 99.0705 140.491 99.4405C140.651 99.6105 140.891 99.7405 140.811 100.04C140.03 100.475 139.293 100.984 138.611 101.56C135.611 103.68 132.611 105.85 129.611 108L121.141 114.1C120.924 114.283 120.723 114.483 120.541 114.7H118.691C118.441 114.7 118.281 114.7 118.341 114.34C119.287 109.282 119.762 104.147 119.761 99.0005C119.842 98.8708 119.951 98.7613 120.081 98.6805C123.621 96.1071 127.171 93.5505 130.731 91.0105C130.921 90.8605 131.101 90.5805 131.421 90.7805Z" fill="#F68D46"/>
<path d="M70.8383 39.62C70.8254 39.7179 70.7885 39.8111 70.731 39.8913C70.6734 39.9716 70.5969 40.0364 70.5083 40.08L60.2083 47.48L48.4183 56L41.2683 61.15C40.9183 61.39 40.4783 61.57 40.4183 62.08H29.5783C29.4783 61.67 29.7783 61.48 30.0383 61.29C32.8883 59.29 35.7183 57.2 38.5583 55.16L52.3383 45.25C55.8583 42.72 59.3383 40.17 62.8983 37.65C63.3183 37.36 63.7083 37.04 64.0983 36.71C65.651 37.2016 67.1543 37.8378 68.5883 38.61C68.7583 38.7 68.9483 38.76 69.1283 38.84C69.3083 38.92 69.5483 39.32 69.9183 39.2L70.8383 39.62Z" fill="#F27255"/>
<path d="M119.512 62.0602C119.723 61.2772 120.098 60.5478 120.612 59.9202C125.278 52.0602 129.988 44.2169 134.742 36.3902C135.322 35.3902 135.912 34.4802 136.512 33.5302C136.641 33.3803 136.713 33.1885 136.712 32.9902C138.92 33.302 141.092 33.8381 143.192 34.5902C143.652 34.8802 143.372 35.2102 143.192 35.4902C142.192 37.2302 141.112 38.9702 140.072 40.7002C136.002 47.5002 131.882 54.2702 127.812 61.0702C127.668 61.4409 127.454 61.7804 127.182 62.0702L119.512 62.0602Z" fill="#CB624E"/>
<path d="M89.8884 53.9002C89.8684 54.0203 89.8198 54.1339 89.7467 54.2314C89.6736 54.3288 89.5782 54.4073 89.4684 54.4602C86.3284 56.7302 83.1684 59.0002 79.9984 61.2502L68.7784 69.3602L66.2084 71.2002C66.0184 71.3302 65.8384 71.5202 65.5584 71.4602C63.9902 70.1465 62.3475 68.9245 60.6384 67.8002C60.5484 67.4502 60.8284 67.3402 61.0384 67.1902C66.9584 62.9435 72.8717 58.6868 78.7784 54.4202C80.7784 52.9702 82.7784 51.5102 84.8384 50.0502C85.0358 49.8748 85.2673 49.742 85.5184 49.6602C86.5213 50.3898 87.4372 51.232 88.2484 52.1702C88.7884 52.7502 89.3384 53.3202 89.8884 53.9002Z" fill="#F37A51"/>
<path d="M117.399 157.71C117.459 158.15 117.869 158.32 118.109 158.62C118.219 158.76 118.369 158.88 118.279 159.08C118.237 159.159 118.17 159.222 118.09 159.262C118.009 159.301 117.918 159.315 117.829 159.3C117.786 159.295 117.743 159.295 117.699 159.3C114.699 159.25 111.699 159.42 108.699 159.46C106.439 159.46 104.169 159.46 101.919 159.59C99.9794 159.72 98.0594 159.59 96.1294 159.7C95.2294 159.75 94.3394 159.85 93.4394 159.83C93.1294 159.83 92.8194 159.83 92.6094 159.54C94.0494 158.17 95.5494 156.85 96.9394 155.41C99.7536 152.535 102.348 149.453 104.699 146.19C104.839 146 105.009 145.82 105.159 145.64C106.096 146.242 106.91 147.015 107.559 147.92C109.169 149.67 110.849 151.34 112.559 152.97C113.849 154.18 115.069 155.48 116.399 156.65C116.889 156.91 117.329 157.14 117.399 157.71Z" fill="#F79B43"/>
<path d="M85.5214 49.6597C84.6812 50.427 83.7705 51.1133 82.8014 51.7097C76.6414 56.1697 70.4714 60.5997 64.2914 64.9997C63.1914 65.7997 62.0814 66.5897 60.9914 67.3897C60.8621 67.5077 60.7448 67.6384 60.6414 67.7797C58.8014 66.6906 56.898 65.7122 54.9414 64.8497C56.5314 63.9397 57.9414 62.7697 59.4214 61.7297C62.1114 59.8397 64.7514 57.8897 67.4214 55.9597C71.8081 52.8264 76.1814 49.683 80.5414 46.5297C80.7551 46.3767 80.9242 46.1696 81.0314 45.9297C82.5514 47.1397 84.0714 48.3597 85.5214 49.6597Z" fill="#F37951"/>
<path d="M127.191 62.0598C127.784 60.764 128.483 59.5197 129.281 58.3398C131.951 53.8698 134.651 49.4198 137.331 44.9698L143.061 35.4198C143.221 35.1598 143.431 34.9098 143.191 34.5898C145.027 35.1455 146.802 35.8825 148.491 36.7898C148.691 37.1398 148.421 37.3698 148.271 37.6198C145.441 42.3698 142.561 47.0798 139.731 51.8198C137.731 55.2598 135.601 58.6898 133.551 62.1298C133.471 62.2598 133.411 62.4098 133.271 62.4798C131.265 62.1305 129.227 61.9898 127.191 62.0598Z" fill="#CE654E"/>
<path d="M158.791 44.0999C158.219 45.3118 157.55 46.4755 156.791 47.5799C154.271 51.8099 151.721 56.0099 149.191 60.2299L142.141 71.9999C142.011 72.2099 141.931 72.4899 141.621 72.5499C141.366 70.3497 140.535 68.2558 139.211 66.4799C140.321 64.4799 141.561 62.5599 142.731 60.5999C146.124 54.9266 149.521 49.2599 152.921 43.5999C153.511 42.5999 154.101 41.5999 154.701 40.6699C155.503 41.1554 156.25 41.7253 156.931 42.3699C157.596 42.8967 158.217 43.4752 158.791 44.0999Z" fill="#D56C4D"/>
<path d="M88.8281 129.53C89.9071 128.911 90.9338 128.206 91.8981 127.42C94.7981 125.42 97.6581 123.28 100.528 121.2C102.078 120.09 103.638 118.99 105.168 117.86C105.388 117.7 105.638 117.64 105.858 117.5C104.272 123.519 101.834 129.281 98.6181 134.61C98.0533 135.602 97.4357 136.564 96.7681 137.49C96.407 137.022 96.0018 136.59 95.5581 136.2C93.6381 134.27 91.6981 132.36 89.7881 130.41C89.4781 130.1 89.0481 129.93 88.8281 129.53Z" fill="#F69044"/>
<path d="M28.6719 54.9298C29.0019 54.9298 29.2119 54.7498 29.4319 54.5898L42.5719 45.1298L56.5719 35.0498C56.7528 34.925 56.8949 34.7517 56.9819 34.5498C58.0888 34.7636 59.181 35.0475 60.2519 35.3998L60.6819 35.5098C61.1219 35.8398 60.7719 36.0398 60.5419 36.2098C59.6019 36.9298 58.6219 37.6198 57.6619 38.3098C54.9819 40.1998 52.3419 42.1398 49.6619 44.0498C46.7519 46.1098 43.8719 48.2098 40.9719 50.2898C37.2252 52.9565 33.4785 55.6565 29.7319 58.3898C29.4219 58.6098 29.1419 58.9598 28.7319 58.7698L28.6719 54.9298Z" fill="#F27255"/>
<path d="M133.27 62.48C133.833 61.2638 134.502 60.0993 135.27 59C137.7 54.9 140.16 50.83 142.62 46.74C144.48 43.64 146.346 40.54 148.22 37.44C148.367 37.2486 148.47 37.0265 148.52 36.79C149.716 37.3258 150.864 37.9649 151.95 38.7C152.12 39.08 151.8 39.32 151.65 39.58C148.48 44.85 145.34 50.13 142.15 55.38C140.48 58.13 138.84 60.89 137.15 63.65C137.03 63.84 137 64.15 136.66 64.08C135.578 63.449 134.444 62.9137 133.27 62.48Z" fill="#D1684D"/>
<path d="M131.419 90.7803C130.444 91.3554 129.512 92.0005 128.629 92.7103C125.843 94.7103 123.059 96.7103 120.279 98.7103C120.139 98.8509 119.956 98.9421 119.759 98.9703C119.599 98.1803 119.759 97.3803 119.659 96.5803V95.4203C119.519 95.0703 119.659 94.6903 119.559 94.3403C119.322 91.3815 118.928 88.4374 118.379 85.5203C118.319 85.1803 118.379 85.0403 118.759 85.0503H125.759C125.788 85.0829 125.821 85.11 125.859 85.1303C127.479 86.6203 129.139 88.0603 130.619 89.7003C130.631 89.7429 130.631 89.7877 130.619 89.8303L131.419 90.7803Z" fill="#F58948"/>
<path d="M136.672 64.0802C137.442 62.8102 138.232 61.5502 139.002 60.2702L147.052 46.9002C148.682 44.1702 150.292 41.4302 151.922 38.7002C152.886 39.3127 153.815 39.9805 154.702 40.7002C154.477 41.507 154.089 42.2591 153.562 42.9102C150.612 47.9102 147.622 52.8002 144.652 57.7402L139.652 66.0802C139.559 66.2544 139.416 66.397 139.242 66.4902C138.465 65.6062 137.604 64.7992 136.672 64.0802Z" fill="#D36A4D"/>
<path d="M64.0992 36.6902C63.9892 37.2502 63.4692 37.4202 63.0992 37.6902C57.0992 42.0102 51.0992 46.3169 45.0992 50.6102L30.0992 61.4402C29.8933 61.6045 29.7318 61.8176 29.6292 62.0602C28.6992 62.1202 28.6992 62.1202 28.6992 61.2102C28.6992 60.6102 28.6992 60.0202 28.6992 59.4302C29.2974 58.8251 29.9694 58.2977 30.6992 57.8602C32.4892 56.5402 34.2892 55.2502 36.1092 53.9602L40.8792 50.5402L45.9992 46.8702L51.7292 42.7502C53.4292 41.5402 55.1192 40.3102 56.8092 39.0802C58.0592 38.1802 59.2892 37.2602 60.5692 36.4002C60.8692 36.2002 60.9692 35.7602 61.3992 35.7402C62.0779 36.0242 62.7764 36.2582 63.4892 36.4402C63.6692 36.5102 63.7792 36.7402 64.0292 36.6502C64.0551 36.6584 64.079 36.672 64.0992 36.6902Z" fill="#F27255"/>
<path d="M107.611 147.92C106.831 147.14 105.921 146.5 105.211 145.64C106.401 143.79 107.681 142 108.781 140.09C109.161 139.43 109.551 138.77 109.931 138.09C109.978 137.968 110.062 137.864 110.172 137.794C110.282 137.724 110.411 137.691 110.541 137.7H121.371C121.379 137.831 121.35 137.962 121.286 138.077C121.222 138.192 121.127 138.287 121.011 138.35L113.451 143.78C111.801 144.97 110.141 146.14 108.511 147.35C108.226 147.562 107.925 147.753 107.611 147.92Z" fill="#F69542"/>
<path d="M130.62 89.8603C128.99 88.2703 127.23 86.8603 125.73 85.0803C126.87 85.0803 128.01 85.0803 129.15 85.0803C130.703 85.1389 132.255 84.9533 133.75 84.5303C133.85 84.5903 133.94 84.6803 133.87 84.8003C132.967 86.478 131.965 88.1008 130.87 89.6603C130.795 89.7365 130.711 89.8036 130.62 89.8603Z" fill="#D46C4D"/>
<path d="M61.3487 35.7395C61.0987 36.3895 60.4588 36.6395 59.9688 36.9895C57.7488 38.5495 55.5688 40.1595 53.3788 41.7495C51.1888 43.3395 49.2287 44.6795 47.1687 46.1495C44.9587 47.7295 42.7588 49.3095 40.5688 50.9095C38.5688 52.3695 36.5688 53.9095 34.5688 55.3195C32.5688 56.7295 30.7587 58.1795 28.7188 59.4295V58.7695C29.3424 58.5571 29.9147 58.2165 30.3988 57.7695C32.5488 56.2495 34.6588 54.6895 36.7888 53.1595L47.7888 45.2295L53.0987 41.3895C55.5487 39.6095 57.9888 37.8395 60.4488 36.0795C60.6688 35.9195 60.8587 35.8095 60.6588 35.5195C60.9048 35.5271 61.1438 35.6033 61.3487 35.7395Z" fill="#F27255"/>
<path d="M119.669 96.5996C119.797 97.3895 119.831 98.1918 119.769 98.9896C119.656 98.1983 119.622 97.3976 119.669 96.5996Z" fill="#F68D46"/>
<path d="M69.9189 39.1803C69.5289 39.4503 69.4789 39.4303 69.1289 38.8203C69.4225 38.858 69.6978 38.9835 69.9189 39.1803Z" fill="#F27653"/>
<path d="M119.539 94.3604C119.759 94.7004 119.609 95.0804 119.639 95.4404C119.522 95.0932 119.487 94.7232 119.539 94.3604Z" fill="#F68D46"/>
<path d="M64.0009 36.6504C63.6409 37.0204 63.6009 36.6504 63.4609 36.4404C63.659 36.4497 63.8486 36.5235 64.0009 36.6504Z" fill="#F27255"/>
<path d="M78.5011 102.38C78.5011 102.65 78.6011 102.95 78.4111 103.2C78.3654 102.923 78.3966 102.64 78.5011 102.38Z" fill="#F58849"/>
<path d="M140.811 99.9996L139.351 98.4096C139.281 98.2096 139.421 98.0796 139.511 97.9396C145.764 87.5262 152.018 77.1229 158.271 66.7296C160.741 62.6296 163.191 58.5296 165.671 54.4396C165.811 54.1996 165.921 53.9196 166.221 53.8096C167.521 56.0449 168.529 58.4378 169.221 60.9296C169.221 61.0296 169.301 61.1296 169.341 61.2296C169.381 61.3296 169.341 61.6396 169.201 61.8296L151.631 91.1296C149.351 94.9296 147.091 98.7296 144.781 102.51C144.611 102.79 144.521 103.27 143.981 103.08L141.351 100.51C141.181 100.35 141.001 100.2 140.811 99.9996Z" fill="#DE764B"/>
<path d="M166.22 53.8503L161.22 62.2703C158.687 66.4836 156.15 70.6936 153.61 74.9003C151.21 78.9003 148.813 82.9003 146.42 86.9003C144.24 90.527 142.057 94.157 139.87 97.7903C139.73 98.0303 139.55 98.2603 139.39 98.4903C137.903 97.2061 136.49 95.8372 135.16 94.3903C135.62 94.2203 135.76 93.7603 135.97 93.3903C138.31 89.517 140.643 85.6403 142.97 81.7603L150.58 69.1203L158.34 56.1903L162.62 49.0003C162.681 48.8608 162.731 48.7171 162.77 48.5703C164.104 50.2032 165.26 51.9731 166.22 53.8503Z" fill="#DB734C"/>
<path d="M144 103.08C144.28 103.08 144.42 102.87 144.55 102.66C148.777 95.5936 153.013 88.5303 157.26 81.4703C161.147 74.9703 165.06 68.4803 169 62.0003C169.15 61.7603 169.44 61.6003 169.43 61.2803C170.11 63.2276 170.596 65.2373 170.88 67.2803C171.054 68.1634 171.147 69.0603 171.16 69.9603C171.34 70.7003 170.74 71.1203 170.43 71.6403C166.53 78.1603 162.62 84.6736 158.7 91.1803C155.56 96.3936 152.423 101.6 149.29 106.8C149.12 107.08 148.99 107.4 148.66 107.55C147.06 106.09 145.4 104.71 144 103.08Z" fill="#E27A4B"/>
<path d="M153.368 112.47L152.178 111.15C151.968 110.86 152.178 110.65 152.328 110.44C154.628 106.6 156.908 102.76 159.238 98.9496C162.758 93.1696 166.238 87.3596 169.708 81.5596C169.948 81.1696 170.078 80.6396 170.708 80.5596C170.198 83.7514 169.277 86.8639 167.968 89.8196C166.455 93.3634 164.434 96.6681 161.968 99.6296C161.558 100.11 162.138 100.13 162.188 100.38C160.438 103.38 158.638 106.31 156.868 109.28C156.238 110.34 155.598 111.4 154.958 112.45C154.788 112.73 154.668 113.13 154.218 113.09L153.368 112.47Z" fill="#E77F4A"/>
<path d="M161.002 119.88C159.672 118.65 158.392 117.38 157.172 116.04C157.189 115.777 157.287 115.526 157.452 115.32C159.602 111.72 161.812 108.16 163.952 104.55C164.112 104.27 164.242 103.95 164.592 103.84C165.815 105.579 166.839 107.451 167.642 109.42C166.522 111.42 165.262 113.36 164.082 115.35C163.309 116.683 162.529 117.98 161.742 119.24C161.612 119.52 161.502 119.91 161.002 119.88Z" fill="#EB8349"/>
<path d="M170.68 80.6005C170.013 81.2664 169.474 82.0494 169.09 82.9105C166.637 86.9105 164.2 90.9471 161.78 95.0205L156.87 103.22C155.33 105.76 153.78 108.29 152.25 110.83C152.205 110.931 152.182 111.04 152.18 111.15C151.601 110.672 151.069 110.139 150.59 109.56C150.88 109.56 151.01 109.35 151.14 109.14L163.44 88.6405C165.78 84.7405 168.113 80.8471 170.44 76.9605C170.586 76.6329 170.85 76.3724 171.18 76.2305C171.133 77.6984 170.966 79.16 170.68 80.6005Z" fill="#E57D4A"/>
<path d="M161 119.88C161.601 119.271 162.088 118.56 162.44 117.78C164.06 115.14 165.63 112.48 167.22 109.78C167.312 109.602 167.459 109.458 167.64 109.37C168.687 111.523 169.475 113.792 169.99 116.13C169.72 116.13 169.64 116.34 169.53 116.53C168.18 118.79 166.83 121.06 165.47 123.31C165.35 123.51 165.27 123.77 164.97 123.8C164.681 123.699 164.415 123.54 164.188 123.334C163.962 123.128 163.779 122.878 163.65 122.6L161 119.88Z" fill="#EE8649"/>
<path d="M164.631 103.84C162.491 107.37 160.361 110.9 158.211 114.43L157.211 116.04C156.132 115.154 155.129 114.181 154.211 113.13C154.809 112.521 155.293 111.809 155.641 111.03C157.691 107.66 159.701 104.26 161.731 100.87C161.828 100.675 161.986 100.517 162.181 100.42C163.108 101.476 163.929 102.622 164.631 103.84Z" fill="#E8804A"/>
<path d="M163.688 122.65L165.008 123.85C165.768 124.78 166.798 125.43 167.578 126.34C167.768 126.58 167.978 126.8 168.188 127.02C164.148 129.934 160.112 132.844 156.078 135.75L147.308 142L135.308 150.66L126.388 157.07C124.708 158.27 123.028 159.46 121.388 160.67C121.243 160.803 121.112 160.95 120.998 161.11L117.998 158.19L117.418 157.67L116.488 156.61C117.938 155.74 119.258 154.68 120.638 153.7C123.368 151.77 126.078 149.78 128.798 147.82L140.638 139.28L149.348 133.03C153.068 130.364 156.782 127.697 160.488 125.03C161.599 124.298 162.667 123.503 163.688 122.65Z" fill="#F79B3E"/>
</svg>
