<svg width="200" height="200" viewBox="0 0 200 200" fill="none" xmlns="http://www.w3.org/2000/svg">
<path d="M87.681 111.82H99.431C101.961 111.82 103.001 112.82 103.001 115.39C103.001 121.97 103.001 128.54 103.001 135.11C103.001 136.48 103.481 136.61 104.611 136.46C112.701 135.441 120.219 131.751 125.972 125.974C131.726 120.196 135.386 112.663 136.371 104.57C138.621 85.3497 127.081 66.9497 105.781 63.7697C96.4584 62.2693 86.9165 64.426 79.1454 69.7899C71.3743 75.1539 65.9741 83.3109 64.071 92.5597C63.5896 94.8121 63.3317 97.1066 63.301 99.4097C63.301 101.85 62.201 102.93 59.801 102.93C51.871 102.93 43.941 102.93 36.011 102.93C33.521 102.93 32.451 101.81 32.461 99.3097C32.6033 84.5739 37.5562 70.2882 46.5658 58.6268C55.5754 46.9654 68.1484 38.5669 82.371 34.7097C108.481 27.5397 138.651 36.4997 155.551 60.7997C161.445 69.3344 165.263 79.128 166.701 89.3997C169.161 105.93 166.251 121.4 157.391 135.62C147.231 151.86 132.671 162 114.001 166.2C109.602 167.185 105.109 167.685 100.601 167.69C98.201 167.69 97.101 166.62 97.101 164.19C97.101 157.47 97.101 150.75 97.101 144.03C97.101 142.95 96.861 142.64 95.751 142.66C90.311 142.72 84.8777 142.72 79.451 142.66C78.311 142.66 78.071 142.99 78.081 144.06C78.141 148.76 78.081 153.47 78.081 158.18C78.081 160.94 77.081 161.87 74.351 161.87H56.611C54.071 161.87 53.041 160.87 53.031 158.31C53.031 153.5 53.031 148.69 53.031 143.89C53.031 142.94 52.801 142.65 51.831 142.66C48.061 142.72 44.291 142.66 40.521 142.66C38.091 142.66 36.981 141.61 36.961 139.2C36.961 134.2 36.961 129.2 36.961 124.2C36.961 121.79 38.091 120.7 40.491 120.69C45.4443 120.69 50.3877 120.69 55.321 120.69C57.841 120.69 58.881 121.78 58.881 124.3C58.881 127.93 58.941 131.56 58.881 135.18C58.881 136.4 59.051 136.88 60.431 136.83C63.861 136.71 67.291 136.74 70.711 136.83C71.901 136.83 72.281 136.6 72.271 135.33C72.191 128.9 72.271 122.48 72.271 116.05C72.271 112.69 73.161 111.82 76.561 111.82H87.681Z" fill="#0060BE"/>
<path d="M102.999 152.11C102.999 149.26 102.999 146.42 102.999 143.58C102.999 142.83 103.119 142.45 103.999 142.37C111.73 141.727 119.119 138.905 125.309 134.23C133.322 128.431 138.997 119.957 141.309 110.34C142.791 104.617 143.069 98.6491 142.124 92.8136C141.179 86.9781 139.032 81.4025 135.819 76.44C129.819 66.8 120.899 60.97 109.819 58.55C96.2894 55.55 83.9494 58.3 73.1494 67.08C64.9268 73.5995 59.507 83.0153 57.9994 93.4C57.9994 93.74 57.8094 94.06 57.7694 94.4C57.4294 97.06 57.4294 97.06 54.7694 97.06C49.8694 97.06 44.9794 97.06 40.0794 97.06C38.8794 97.06 38.4094 97.06 38.5194 95.46C38.8857 90.4981 39.8528 85.5989 41.3994 80.87C43.4171 74.5723 46.4577 68.6498 50.3994 63.34C56.6834 54.7797 65.0801 47.9955 74.7694 43.65C80.2318 41.1582 86.0417 39.5126 91.9994 38.77C95.0907 38.3472 98.2099 38.1633 101.329 38.22C109.688 38.3933 117.932 40.1971 125.599 43.53C134.487 47.4595 142.29 53.4848 148.339 61.09C154.459 68.7152 158.604 77.7311 160.409 87.34C161.447 92.2213 161.863 97.2142 161.649 102.2C161.28 110.461 159.328 118.575 155.899 126.1C151.654 135.221 145.243 143.165 137.226 149.243C129.209 155.32 119.828 159.346 109.899 160.97C107.829 161.32 105.739 161.39 103.679 161.71C102.739 161.86 102.959 161.12 102.959 160.64C102.939 157.8 102.999 155 102.999 152.11Z" fill="#007FFE"/>
<path d="M97.0812 127.2C97.0812 129.95 97.0812 132.69 97.0812 135.43C97.0812 136.43 96.8912 136.83 95.8012 136.82C90.2712 136.82 84.7412 136.82 79.2212 136.82C78.2212 136.82 77.9512 136.51 77.9612 135.55C78.0012 130.057 78.0012 124.57 77.9612 119.09C77.9612 117.98 78.3812 117.65 79.4412 117.66C84.8712 117.66 90.3012 117.66 95.7212 117.66C96.8912 117.66 97.1112 118.09 97.0812 119.12C97.0012 121.81 97.0812 124.51 97.0812 127.2Z" fill="#007FFE"/>
<path d="M58.8912 149.22C58.8912 147.41 58.8912 145.59 58.8912 143.78C58.8912 142.96 59.1612 142.66 59.9912 142.67C63.6613 142.67 67.3312 142.67 70.9912 142.67C71.9212 142.67 72.1512 143.03 72.1412 143.88C72.1012 147.507 72.1012 151.133 72.1412 154.76C72.1412 155.66 71.8612 155.96 70.9612 155.95C67.3412 155.91 63.7212 155.91 60.1012 155.95C59.1012 155.95 58.8512 155.57 58.8812 154.65C58.9312 152.85 58.8912 151 58.8912 149.22Z" fill="#007FFE"/>
<path d="M52.9995 131.65C52.9995 132.97 52.9995 134.29 52.9995 135.65C52.9995 136.52 52.7695 136.87 51.8495 136.85C49.2095 136.85 46.5695 136.8 43.9295 136.85C42.9295 136.85 42.6895 136.49 42.6995 135.56C42.7528 133.02 42.7528 130.473 42.6995 127.92C42.6995 126.92 43.0095 126.51 44.0495 126.53C46.6362 126.57 49.2262 126.57 51.8195 126.53C52.7095 126.53 53.0295 126.83 52.9895 127.72C52.9995 129 52.9995 130.32 52.9995 131.65Z" fill="#007FFE"/>
</svg>
