<svg width="200" height="200" viewBox="0 0 200 200" fill="none" xmlns="http://www.w3.org/2000/svg">
<path d="M12.3711 139.76C12.3711 113.454 12.3711 87.1404 12.3711 60.8204C12.3711 60.2804 12.5011 60.1504 13.0511 60.1504C71.2244 60.1504 129.401 60.1504 187.581 60.1504C187.674 60.3994 187.698 60.6688 187.651 60.9304V138.93C187.651 139.93 187.761 139.82 186.751 139.82H13.1611C12.8971 139.871 12.6244 139.85 12.3711 139.76Z" fill="#092E20"/>
<path d="M149.598 87.4398C148.668 89.4398 147.748 91.2898 146.858 93.1998C146.708 93.5398 146.518 93.5098 146.228 93.4598C144.778 93.1898 144.748 93.2598 144.818 94.7098C144.888 96.1598 144.928 97.7098 144.938 99.1498C144.988 103.92 145.288 108.7 144.938 113.48C144.708 116.48 144.188 119.48 142.348 121.99C141.318 123.394 140.016 124.577 138.52 125.469C137.024 126.361 135.364 126.942 133.638 127.18C129.269 127.992 124.763 127.647 120.568 126.18C120.369 126.148 120.191 126.038 120.073 125.875C119.955 125.712 119.907 125.509 119.938 125.31C119.938 122.96 119.938 120.6 119.938 118.17C121.085 118.71 122.264 119.177 123.468 119.57C126.165 120.433 129.034 120.615 131.818 120.1C133.162 119.923 134.397 119.272 135.302 118.263C136.206 117.254 136.719 115.954 136.748 114.6C136.808 114 136.828 113.4 136.878 112.69C135.645 113.243 134.326 113.581 132.978 113.69C128.978 113.98 125.368 113.27 122.488 110.27C120.534 108.138 119.415 105.371 119.338 102.48C119.048 98.2999 119.908 94.4798 122.888 91.3298C125.168 89.0945 128.06 87.5873 131.198 86.9998C135.682 86.0824 140.291 85.9572 144.818 86.6298C146.408 86.8198 147.998 87.0898 149.598 87.4398Z" fill="#FEFEFE"/>
<path d="M40.2519 86.5699V85.7299C40.2519 81.9699 40.2519 78.1999 40.2519 74.4399C40.2519 73.8399 40.4319 73.7299 40.9819 73.7399C43.3619 73.7399 45.7452 73.7399 48.1319 73.7399C48.5919 73.7399 48.7419 73.8399 48.7419 74.3299C48.7419 86.9565 48.7419 99.5865 48.7419 112.22C48.7419 112.7 48.5719 112.82 48.1619 112.89C43.835 113.775 39.4095 114.081 35.0019 113.8C32.9639 113.662 30.9631 113.186 29.0819 112.39C27.4439 111.723 25.9932 110.667 24.8553 109.313C23.7175 107.959 22.9269 106.348 22.5519 104.62C21.6834 101.315 21.858 97.8219 23.0519 94.6199C24.8919 89.8399 28.5619 87.2799 33.5219 86.4399C35.7515 86.0342 38.0396 86.0784 40.2519 86.5699Z" fill="#FEFEFE"/>
<path d="M176.249 99.81C176.338 102.632 175.686 105.428 174.359 107.92C172.059 111.92 168.419 113.84 163.909 114.23C161.726 114.458 159.52 114.251 157.419 113.62C155.56 113.102 153.862 112.124 152.481 110.777C151.101 109.429 150.082 107.755 149.519 105.91C148.245 102.121 148.323 98.0081 149.739 94.27C151.479 89.61 154.989 87.06 159.819 86.27C162.397 85.8196 165.044 85.9806 167.549 86.74C172.189 88.22 174.859 91.48 175.869 96.17C176.111 97.3685 176.238 98.5874 176.249 99.81Z" fill="#FEFEFE"/>
<path d="M91.8112 100.77C91.8112 96.7699 91.8112 92.7699 91.8112 88.7699C91.8112 88.2799 91.9213 88.0599 92.4313 87.9299C96.7988 86.7491 101.307 86.1704 105.831 86.2099C107.824 86.2036 109.801 86.5664 111.661 87.2799C113.127 87.8372 114.386 88.8296 115.271 90.1238C116.156 91.4181 116.624 92.9521 116.611 94.5199C116.801 97.9899 116.661 101.52 116.691 104.94C116.691 107.59 116.691 110.23 116.691 112.88C116.691 113.5 116.501 113.64 115.911 113.63C113.581 113.63 111.241 113.63 108.911 113.63C108.321 113.63 108.191 113.46 108.191 112.9C108.191 107.7 108.191 102.5 108.191 97.3099C108.191 94.1099 107.101 93.0099 103.901 93.0099C102.89 93.0432 101.885 93.1805 100.901 93.4199C100.411 93.5199 100.261 93.7299 100.271 94.2499C100.271 100.05 100.271 105.86 100.271 111.66C100.271 112.12 100.271 112.59 100.271 113.04C100.271 113.49 100.171 113.63 99.7113 113.63C97.2812 113.63 94.8413 113.63 92.4113 113.63C91.8813 113.63 91.7812 113.45 91.7812 112.96C91.8212 108.89 91.8112 104.83 91.8112 100.77Z" fill="#FEFEFE"/>
<path d="M87.7309 102.88C87.7309 106.09 87.7309 109.29 87.7309 112.5C87.7309 112.93 87.6409 113.15 87.1709 113.2C82.6713 113.845 78.1241 114.096 73.5809 113.95C72.026 113.885 70.4997 113.511 69.0909 112.85C66.4309 111.54 65.5009 109.24 65.4409 106.47C65.3509 102.39 67.0509 99.8799 70.9009 98.3699C73.6195 97.3876 76.4653 96.8016 79.3509 96.6299C79.8409 96.6299 80.0509 96.4799 80.0009 95.9599C79.9509 95.4399 80.0009 94.9599 80.0009 94.4999C80.0186 94.2921 79.9947 94.0827 79.9307 93.8842C79.8666 93.6856 79.7635 93.5018 79.6276 93.3436C79.4917 93.1853 79.3256 93.0557 79.139 92.9624C78.9524 92.869 78.7491 92.8138 78.5409 92.7999C76.6352 92.5417 74.6972 92.6675 72.8409 93.1699C71.1011 93.548 69.4196 94.1567 67.8409 94.9799C67.3009 95.2599 67.2609 95.0799 67.2609 94.5899C67.2609 92.7899 67.2609 90.9999 67.2609 89.1999C67.2609 88.8999 67.2609 88.6599 67.6109 88.4999C72.1757 86.3648 77.2875 85.6874 82.2509 86.5599C83.8595 86.7416 85.3333 87.5452 86.3573 88.799C87.3813 90.0528 87.8743 91.6574 87.7309 93.2699C87.7909 96.4699 87.7309 99.6799 87.7309 102.88Z" fill="#FEFEFE"/>
<path d="M45.3789 121.57C45.9389 121.28 46.3789 121.04 46.8389 120.82C51.0389 118.82 53.0189 115.37 53.3989 110.82C53.7489 106.65 53.6389 102.47 53.6589 98.2999C53.6589 94.7099 53.6589 91.1099 53.6589 87.5199C53.6589 86.8399 53.8589 86.7299 54.4689 86.7399C56.8289 86.7399 59.1889 86.7399 61.5489 86.7399C62.0289 86.7399 62.1589 86.8699 62.1589 87.3499C62.1589 94.3499 62.1589 101.35 62.1589 108.41C62.2538 111.458 61.8346 114.501 60.9189 117.41C60.2818 119.12 59.3047 120.683 58.0466 122.005C56.7885 123.326 55.2754 124.379 53.5989 125.1C53.4946 125.157 53.3777 125.187 53.2589 125.187C53.1401 125.187 53.0232 125.157 52.9189 125.1L45.3789 121.57Z" fill="#FEFEFE"/>
<path d="M62.1306 78.1904C62.1306 79.4504 62.1306 80.7104 62.1306 81.9704C62.1306 82.3804 62.0106 82.5104 61.6006 82.5004C59.1206 82.5004 56.6406 82.5004 54.1606 82.5004C53.7506 82.5004 53.6406 82.3804 53.6406 81.9804C53.6406 79.427 53.6406 76.877 53.6406 74.3304C53.6406 73.9604 53.7306 73.8304 54.1206 73.8404C56.6206 73.8404 59.1206 73.8404 61.6306 73.8404C62.0906 73.8404 62.1306 74.0304 62.1206 74.4004C62.1206 75.6604 62.1306 76.9304 62.1306 78.1904Z" fill="#FEFEFE"/>
<path d="M136.879 99.8104C136.879 101.81 136.879 103.81 136.879 105.81C136.879 106.24 136.779 106.45 136.329 106.57C135.177 106.884 133.979 106.996 132.789 106.9C131.74 106.819 130.743 106.413 129.935 105.74C129.126 105.066 128.548 104.158 128.279 103.14C127.782 101.454 127.747 99.6647 128.179 97.9604C128.859 95.2104 130.829 93.8404 133.439 93.2204C134.322 93.0455 135.22 92.965 136.119 92.9804C136.599 92.9804 136.679 93.1604 136.679 93.5804C136.679 95.6404 136.679 97.7004 136.679 99.7604L136.879 99.8104Z" fill="#092E20"/>
<path d="M40.25 100.11C40.25 102.11 40.25 104.18 40.25 106.22C40.25 106.8 40.07 106.94 39.52 106.99C38.2909 107.135 37.0491 107.135 35.82 106.99C34.6455 106.859 33.5437 106.355 32.6763 105.552C31.8089 104.75 31.2214 103.69 31 102.53C30.625 100.965 30.625 99.334 31 97.7695C31.2867 96.3994 32.0433 95.1726 33.139 94.3015C34.2348 93.4304 35.6006 92.9699 37 92.9995C37.8997 92.9747 38.7991 93.0552 39.68 93.2395C40.18 93.3495 40.31 93.5695 40.31 94.0695C40.23 96.0795 40.25 98.0895 40.25 100.11Z" fill="#092E20"/>
<path d="M167.579 100.18C167.665 101.687 167.402 103.193 166.809 104.58C166.448 105.451 165.834 106.193 165.046 106.71C164.258 107.228 163.333 107.496 162.391 107.481C161.449 107.466 160.533 107.168 159.762 106.626C158.991 106.083 158.401 105.322 158.069 104.44C157.014 101.746 157.014 98.7538 158.069 96.0601C158.389 95.1128 159.001 94.2916 159.818 93.7141C160.634 93.1367 161.612 92.8328 162.612 92.8461C163.612 92.8595 164.582 93.1893 165.383 93.7883C166.183 94.3873 166.774 95.2246 167.069 96.1801C167.496 97.4677 167.67 98.8263 167.579 100.18Z" fill="#092E20"/>
<path d="M80.3794 105C80.3794 105.75 80.3794 106.5 80.3794 107.25C80.3794 107.57 80.3194 107.75 79.9794 107.79C78.3809 108.089 76.7478 108.16 75.1294 108C74.6602 107.975 74.2115 107.799 73.8508 107.498C73.4902 107.197 73.237 106.787 73.1294 106.33C72.9787 105.787 73.0174 105.209 73.2392 104.691C73.4609 104.173 73.8525 103.745 74.3494 103.48C75.7304 102.821 77.223 102.427 78.7494 102.32C79.2694 102.25 79.9594 101.93 80.2894 102.23C80.6194 102.53 80.3894 103.23 80.4094 103.83C80.3894 104.21 80.3794 104.6 80.3794 105Z" fill="#092E20"/>
</svg>
