<svg width="200" height="200" viewBox="0 0 200 200" fill="none" xmlns="http://www.w3.org/2000/svg">
<path d="M108.908 179.55C108.835 179.496 108.754 179.452 108.668 179.42C108.035 179.262 107.474 178.895 107.076 178.377C106.679 177.86 106.468 177.223 106.478 176.57C106.478 175.18 106.478 173.79 106.478 172.4V137.93C106.411 137.242 106.539 136.549 106.848 135.93C107.17 135.377 107.663 134.944 108.254 134.697C108.844 134.45 109.498 134.402 110.118 134.56C110.758 134.698 111.33 135.056 111.733 135.571C112.137 136.086 112.348 136.726 112.328 137.38C112.328 142.56 112.328 147.74 112.328 152.92C112.328 155.01 112.328 157.11 112.328 159.21C112.658 159.29 112.818 159.04 113.018 158.91L128.998 148.59C129.324 148.35 129.695 148.178 130.089 148.085C130.483 147.992 130.892 147.98 131.291 148.049C131.69 148.118 132.071 148.267 132.411 148.487C132.751 148.708 133.042 148.995 133.268 149.33C133.492 149.649 133.649 150.01 133.728 150.391C133.808 150.772 133.808 151.166 133.729 151.547C133.65 151.929 133.494 152.29 133.271 152.609C133.047 152.927 132.76 153.197 132.428 153.4C128.775 155.774 125.108 158.14 121.428 160.5C120.948 160.8 120.838 160.98 121.278 161.5C125.038 165.69 128.688 169.97 132.538 174.07C134.348 176.01 134.028 178.79 131.248 179.59H130.248C129.84 179.549 129.445 179.423 129.088 179.22C128.732 179.016 128.422 178.741 128.178 178.41C125.728 175.59 123.178 172.83 120.738 170.03C119.218 168.3 117.658 166.61 116.148 164.87C116.102 164.795 116.04 164.732 115.967 164.684C115.893 164.636 115.809 164.605 115.722 164.593C115.635 164.582 115.546 164.59 115.462 164.617C115.379 164.644 115.302 164.69 115.238 164.75C114.488 165.26 113.728 165.75 112.948 166.27C112.776 166.392 112.64 166.56 112.557 166.754C112.474 166.948 112.447 167.162 112.478 167.37C112.478 170.37 112.478 173.48 112.478 176.54C112.489 176.985 112.406 177.427 112.233 177.838C112.061 178.248 111.804 178.617 111.478 178.92C111.041 179.308 110.49 179.543 109.908 179.59L108.908 179.55Z" fill="#2495EC"/>
<path d="M90.8187 179.55C89.8687 179.38 88.9087 179.28 87.9887 179.05C84.5134 178.166 81.4431 176.124 79.2841 173.261C77.1251 170.398 76.0064 166.885 76.1124 163.3C76.2184 159.716 77.5428 156.275 79.8672 153.544C82.1916 150.814 85.3772 148.957 88.8987 148.28C91.1975 147.783 93.5809 147.834 95.8565 148.428C98.1321 149.022 100.236 150.143 101.999 151.7C102.343 151.968 102.624 152.308 102.824 152.697C103.023 153.085 103.135 153.512 103.152 153.948C103.169 154.384 103.091 154.819 102.923 155.222C102.755 155.624 102.501 155.985 102.179 156.28C101.629 156.772 100.917 157.044 100.179 157.044C99.4407 157.044 98.7287 156.772 98.1787 156.28C96.8761 155.169 95.326 154.387 93.6587 154C92.2727 153.745 90.8483 153.79 89.481 154.131C88.1137 154.472 86.8352 155.102 85.7313 155.978C84.6274 156.853 83.7236 157.955 83.0806 159.209C82.4377 160.463 82.0704 161.84 82.0035 163.248C81.9366 164.655 82.1715 166.061 82.6926 167.37C83.2137 168.68 84.0088 169.862 85.0246 170.839C86.0405 171.816 87.2535 172.564 88.5822 173.033C89.911 173.502 91.3248 173.682 92.7287 173.56C94.6664 173.433 96.5128 172.69 97.9987 171.44C98.4868 170.993 99.102 170.71 99.7587 170.63C100.361 170.535 100.978 170.636 101.518 170.919C102.058 171.202 102.493 171.651 102.759 172.2C103.038 172.789 103.118 173.453 102.987 174.092C102.855 174.731 102.519 175.309 102.029 175.74C99.9658 177.588 97.4203 178.812 94.6887 179.27L92.8887 179.55H90.8187Z" fill="#2495EC"/>
<path d="M193 152.56C192.846 153.166 192.511 153.71 192.039 154.121C191.567 154.532 190.982 154.79 190.36 154.86C189.841 154.888 189.321 154.799 188.84 154.6C184.69 153.15 180.95 153.79 177.84 156.95C176.962 157.824 176.268 158.866 175.799 160.013C175.33 161.16 175.096 162.39 175.11 163.63C175.11 167.7 175.11 171.78 175.11 175.85C175.11 178.04 174.67 178.71 172.7 179.55H171.7C169.7 178.76 169.2 178.03 169.2 175.83C169.2 167.69 169.2 159.546 169.2 151.4C169.142 150.591 169.369 149.788 169.84 149.13C170.22 148.646 170.739 148.29 171.328 148.111C171.916 147.933 172.546 147.939 173.13 148.13C173.709 148.315 174.214 148.679 174.574 149.17C174.933 149.66 175.128 150.252 175.13 150.86V151.33C175.466 151.216 175.773 151.032 176.03 150.79C178.07 149.378 180.408 148.456 182.863 148.097C185.317 147.738 187.822 147.951 190.18 148.72C190.838 148.867 191.448 149.178 191.953 149.624C192.458 150.069 192.842 150.636 193.07 151.27L193 152.56Z" fill="#2495EC"/>
<path d="M88.1209 68.6103C103.531 68.6103 118.931 68.6103 134.331 68.6103C137.802 68.6055 141.237 67.9015 144.431 66.5403C145.031 66.2803 145.181 66.0803 144.811 65.4403C141.891 60.4403 141.581 55.0703 143.061 49.5503C143.947 46.2733 145.443 43.1928 147.471 40.4703C147.681 40.1903 147.811 40.0503 148.201 40.2603C153.213 42.8652 157.066 47.2538 159.001 52.5603C159.389 53.6229 159.671 54.7217 159.841 55.8403C159.911 56.2903 160.061 56.3303 160.481 56.2703C164.779 55.4926 169.199 55.7081 173.401 56.9003C175.193 57.42 176.858 58.3052 178.291 59.5003C178.487 59.612 178.632 59.7946 178.697 60.0105C178.762 60.2263 178.742 60.4589 178.641 60.6603C176.541 66.6603 172.291 70.4803 166.391 72.5703C163.599 73.5172 160.657 73.9443 157.711 73.8303C157.476 73.7915 157.234 73.8446 157.037 73.9786C156.84 74.1126 156.702 74.3173 156.651 74.5503C154.081 81.2759 150.742 87.6817 146.701 93.6403C138.256 105.897 125.772 114.796 111.431 118.78C105.624 120.464 99.6532 121.517 93.6209 121.92C88.169 122.325 82.6925 122.265 77.2509 121.74C71.5665 121.235 65.9743 119.977 60.6209 118C52.7909 115 47.2909 109.52 43.4809 102.2C40.7345 96.7699 38.884 90.9313 38.0009 84.9103C37.3628 81.0558 37.0284 77.1571 37.0009 73.2503C36.9524 72.2035 37.2748 71.1732 37.9114 70.3409C38.548 69.5086 39.4579 68.9276 40.4809 68.7003C41.0119 68.6053 41.5525 68.5751 42.0909 68.6103H88.1209Z" fill="#2495EC"/>
<path d="M73.6913 36.5C75.6913 36.5 77.6913 36.5 79.6913 36.5C80.6913 36.5 81.0212 36.88 81.0212 37.83C81.0212 41.3767 81.0212 44.9267 81.0212 48.48C81.0212 49.42 80.6013 49.83 79.6813 49.83H67.6113C66.7213 49.83 66.2912 49.43 66.2812 48.55C66.2812 44.95 66.2812 41.35 66.2812 37.75C66.2812 36.89 66.6713 36.51 67.5513 36.5C69.5513 36.5 71.6413 36.5 73.6913 36.5Z" fill="#2495EC"/>
<path d="M91.1691 36.5099C93.1691 36.5099 95.1691 36.5099 97.2391 36.5099C98.1591 36.5099 98.5391 36.8999 98.5391 37.7999C98.5391 41.3799 98.5391 44.9499 98.5391 48.5299C98.5391 49.4499 98.1091 49.8399 97.1691 49.8399H85.1691C84.1691 49.8399 83.7991 49.4299 83.7891 48.4499C83.7891 44.9199 83.7891 41.3999 83.7891 37.8699C83.7891 36.8699 84.1691 36.5199 85.0991 36.5099C87.1291 36.4899 89.1491 36.5099 91.1691 36.5099Z" fill="#2495EC"/>
<path d="M108.509 36.5099C110.509 36.5099 112.509 36.5099 114.579 36.5099C115.489 36.5099 115.829 36.9099 115.829 37.8299C115.829 41.3899 115.829 44.9432 115.829 48.4899C115.829 49.4299 115.439 49.8399 114.519 49.8399H102.449C101.519 49.8399 101.129 49.4399 101.129 48.4899C101.129 44.9365 101.129 41.3865 101.129 37.8399C101.129 36.8399 101.459 36.5199 102.439 36.5099C104.469 36.4899 106.489 36.5099 108.509 36.5099Z" fill="#2495EC"/>
<path d="M73.6113 65.8503C71.6113 65.8503 69.6113 65.8503 67.6813 65.8503C66.6813 65.8503 66.2812 65.4903 66.2812 64.4403C66.2812 60.9603 66.2812 57.4803 66.2812 54.0003C66.2812 52.8803 66.6513 52.5303 67.7613 52.5303H79.5513C80.6613 52.5303 81.0212 52.8903 81.0212 54.0203C81.0212 57.4703 81.0212 60.9303 81.0212 64.3903C81.0212 65.5103 80.6713 65.8503 79.5312 65.8503C77.5612 65.8603 75.5813 65.8503 73.6113 65.8503Z" fill="#2495EC"/>
<path d="M91.1908 52.5303H97.1908C98.1308 52.5303 98.5508 52.9103 98.5508 53.8503C98.5508 57.3969 98.5508 60.9469 98.5508 64.5003C98.5508 65.5003 98.1608 65.8503 97.1608 65.8503C93.1608 65.8503 89.1608 65.8503 85.1608 65.8503C84.1608 65.8503 83.8108 65.4603 83.8008 64.4703C83.8008 60.9703 83.8008 57.4703 83.8008 53.9603C83.8008 52.9003 84.2008 52.5303 85.2708 52.5303H91.1908Z" fill="#2495EC"/>
<path d="M125.93 65.8503C123.93 65.8503 121.93 65.8503 120.01 65.8503C118.93 65.8503 118.57 65.4903 118.57 64.4103C118.57 60.9236 118.57 57.4403 118.57 53.9603C118.57 52.8903 118.96 52.5303 120.03 52.5303H131.88C132.94 52.5303 133.32 52.9003 133.32 53.9803V64.4203C133.32 65.4903 132.94 65.8503 131.86 65.8503C129.89 65.8603 127.91 65.8503 125.93 65.8503Z" fill="#2495EC"/>
<path d="M56.3512 65.8503C54.3512 65.8503 52.4413 65.8503 50.4813 65.8503C49.3913 65.8503 49.0312 65.5003 49.0312 64.4303C49.0312 60.9169 49.0312 57.4069 49.0312 53.9003C49.0312 52.9003 49.4213 52.5303 50.4013 52.5303H62.4013C63.3213 52.5303 63.7213 52.8803 63.7213 53.7803C63.7213 57.3603 63.7213 60.9403 63.7213 64.5203C63.7213 65.5203 63.3713 65.8503 62.3313 65.8503C60.3513 65.8603 58.3512 65.8503 56.3512 65.8503Z" fill="#2495EC"/>
<path d="M108.489 33.78H102.559C101.459 33.78 101.129 33.44 101.129 32.35C101.129 28.87 101.129 25.39 101.129 21.91C101.129 20.81 101.479 20.46 102.539 20.46C106.499 20.46 110.452 20.46 114.399 20.46C115.479 20.46 115.829 20.81 115.829 21.89V32.33C115.829 33.43 115.499 33.78 114.419 33.78H108.489Z" fill="#2495EC"/>
<path d="M108.459 65.8503C106.459 65.8503 104.509 65.8503 102.529 65.8503C101.529 65.8503 101.129 65.5003 101.129 64.4603C101.129 60.9403 101.129 57.4136 101.129 53.8803C101.129 52.8803 101.509 52.5303 102.499 52.5303H114.429C115.429 52.5303 115.829 52.8903 115.829 53.9203V64.4303C115.829 65.5103 115.489 65.8503 114.389 65.8503C112.409 65.8603 110.439 65.8503 108.459 65.8503Z" fill="#2495EC"/>
<path d="M38.5402 137.48C38.5593 137.09 38.4985 136.701 38.3615 136.335C38.2244 135.97 38.0141 135.637 37.7434 135.356C37.4727 135.075 37.1473 134.852 36.7873 134.701C36.4273 134.551 36.0404 134.475 35.6502 134.48C35.2575 134.452 34.8631 134.506 34.493 134.641C34.1228 134.775 33.7852 134.986 33.5021 135.259C33.219 135.533 32.9968 135.863 32.85 136.229C32.7032 136.594 32.6351 136.986 32.6502 137.38C32.6502 141.74 32.6502 146.09 32.6502 150.45C32.7057 150.723 32.6742 151.006 32.5602 151.26C32.3079 151.189 32.0797 151.051 31.9002 150.86C28.7533 148.58 24.8539 147.589 21.0002 148.09C17.3998 148.51 14.0535 150.156 11.5232 152.751C8.99277 155.346 7.4324 158.733 7.10401 162.343C6.77563 165.953 7.69924 169.566 9.71976 172.575C11.7403 175.585 14.7347 177.807 18.2002 178.87C19.3502 179.22 20.5502 179.31 21.7102 179.55H23.8302C24.3934 179.39 24.9748 179.302 25.5602 179.29C29.0972 178.679 32.3175 176.874 34.6836 174.175C37.0496 171.476 38.418 168.046 38.5602 164.46C38.5802 155.47 38.5402 146.47 38.5402 137.48ZM22.5402 173.61C20.5946 173.57 18.704 172.957 17.1062 171.846C15.5083 170.735 14.2746 169.177 13.5599 167.366C12.8453 165.556 12.6817 163.575 13.0897 161.673C13.4977 159.77 14.4591 158.03 15.8531 156.672C17.247 155.314 19.0113 154.399 20.9241 154.041C22.8369 153.682 24.8129 153.898 26.6037 154.659C28.3945 155.421 29.9201 156.695 30.9888 158.322C32.0575 159.948 32.6216 161.854 32.6102 163.8C32.6078 165.107 32.3448 166.401 31.8366 167.605C31.3283 168.809 30.585 169.9 29.6501 170.813C28.7152 171.727 27.6075 172.444 26.3919 172.925C25.1762 173.405 23.877 173.638 22.5702 173.61H22.5402Z" fill="#2495EC"/>
<path d="M165.64 160.32C165.027 157.613 163.712 155.115 161.827 153.078C159.942 151.042 157.553 149.538 154.901 148.718C152.249 147.899 149.428 147.793 146.723 148.411C144.017 149.029 141.522 150.35 139.489 152.239C137.456 154.129 135.957 156.521 135.143 159.174C134.33 161.828 134.229 164.649 134.853 167.353C135.477 170.057 136.802 172.55 138.696 174.579C140.59 176.608 142.985 178.102 145.64 178.91C146.64 179.19 147.64 179.29 148.64 179.55H151.89C152.01 179.4 152.19 179.43 152.35 179.41C155.532 179.053 158.51 177.666 160.83 175.46C161.135 175.199 161.385 174.879 161.565 174.52C161.745 174.16 161.85 173.768 161.875 173.367C161.9 172.966 161.845 172.564 161.712 172.185C161.578 171.806 161.37 171.457 161.1 171.16C160.827 170.866 160.495 170.631 160.127 170.47C159.759 170.31 159.362 170.227 158.96 170.227C158.558 170.227 158.161 170.31 157.793 170.47C157.424 170.631 157.093 170.866 156.82 171.16C155.643 172.206 154.235 172.957 152.711 173.351C151.187 173.745 149.591 173.771 148.055 173.426C146.519 173.081 145.087 172.375 143.878 171.367C142.668 170.36 141.716 169.079 141.1 167.63C140.72 166.73 140.72 166.73 141.68 166.73H162.68C165 166.73 166.08 165.61 166.03 163.28C165.997 162.283 165.866 161.292 165.64 160.32ZM158.91 160.87H141.49C140.73 160.87 140.69 160.87 140.99 160.13C141.625 158.457 142.718 156.997 144.143 155.915C145.568 154.832 147.268 154.173 149.05 154.01C151.204 153.739 153.388 154.185 155.263 155.281C157.138 156.377 158.599 158.06 159.42 160.07C159.75 160.87 159.75 160.87 158.91 160.87Z" fill="#2495EC"/>
<path d="M73.0011 161.41C72.4171 157.448 70.3493 153.856 67.2163 151.361C64.0834 148.866 60.1194 147.655 56.127 147.973C52.1347 148.29 48.4122 150.113 45.7133 153.073C43.0145 156.032 41.541 159.906 41.5911 163.91C41.6417 167.312 42.7752 170.609 44.827 173.322C46.8787 176.036 49.742 178.025 53.0011 179C54.0911 179.3 55.2211 179.38 56.3211 179.6H58.4411C59.1511 179.48 59.8711 179.4 60.5811 179.25C64.5434 178.436 68.0415 176.13 70.3528 172.81C72.6641 169.49 73.6121 165.409 73.0011 161.41ZM57.2811 173.61C55.3339 173.585 53.4378 172.984 51.8314 171.883C50.2251 170.782 48.9803 169.23 48.2538 167.424C47.5272 165.617 47.3514 163.636 47.7484 161.729C48.1454 159.823 49.0975 158.076 50.4849 156.71C51.8723 155.343 53.6329 154.417 55.5452 154.049C57.4574 153.681 59.4359 153.887 61.2314 154.641C63.027 155.394 64.5595 156.663 65.636 158.285C66.7125 159.908 67.2849 161.813 67.2811 163.76C67.2759 165.066 67.0123 166.358 66.5054 167.561C65.9985 168.764 65.2585 169.855 64.3279 170.771C63.3973 171.686 62.2946 172.409 61.0834 172.896C59.8723 173.384 58.5766 173.626 57.2711 173.61H57.2811Z" fill="#2495EC"/>
<path d="M182.159 175.27C181.887 175.254 181.613 175.293 181.357 175.387C181.1 175.48 180.865 175.624 180.667 175.812C180.468 175.999 180.31 176.225 180.202 176.476C180.094 176.727 180.039 176.997 180.039 177.27C180.076 177.801 180.312 178.298 180.701 178.661C181.09 179.024 181.602 179.225 182.134 179.225C182.666 179.225 183.178 179.024 183.567 178.661C183.956 178.298 184.192 177.801 184.229 177.27C184.229 177.002 184.175 176.736 184.07 176.488C183.966 176.241 183.812 176.017 183.619 175.831C183.426 175.644 183.197 175.498 182.946 175.402C182.695 175.306 182.428 175.261 182.159 175.27ZM182.159 178.86C181.94 178.878 181.72 178.85 181.513 178.778C181.306 178.706 181.115 178.592 180.954 178.443C180.793 178.294 180.664 178.114 180.576 177.913C180.488 177.712 180.443 177.495 180.443 177.275C180.443 177.056 180.488 176.839 180.576 176.638C180.664 176.437 180.793 176.256 180.954 176.107C181.115 175.958 181.306 175.844 181.513 175.773C181.72 175.701 181.94 175.673 182.159 175.69C182.366 175.69 182.571 175.732 182.761 175.814C182.951 175.896 183.122 176.016 183.264 176.167C183.405 176.318 183.514 176.497 183.584 176.692C183.654 176.886 183.683 177.094 183.669 177.3C183.679 177.505 183.646 177.71 183.573 177.901C183.5 178.093 183.388 178.268 183.245 178.414C183.101 178.561 182.929 178.676 182.738 178.753C182.548 178.829 182.344 178.866 182.139 178.86H182.159Z" fill="#2897EC"/>
<path d="M182.999 177.86C182.999 177.61 182.659 177.51 182.839 177.18C183.159 176.59 182.979 176.32 182.329 176.27C181.389 176.19 181.379 176.21 181.379 177.27V178.05C181.379 178.2 181.379 178.33 181.599 178.34C181.819 178.35 181.809 178.22 181.839 178.07C181.869 177.92 181.709 177.6 182.039 177.56C182.369 177.52 182.459 177.79 182.519 178.04C182.579 178.29 182.689 178.38 182.919 178.32C183.149 178.26 182.999 178 182.999 177.86ZM182.319 177.14C181.909 177.19 181.839 177.08 181.839 176.87C181.839 176.66 181.929 176.57 182.139 176.59C182.349 176.61 182.479 176.66 182.499 176.85C182.508 176.881 182.51 176.914 182.505 176.947C182.5 176.979 182.488 177.01 182.47 177.038C182.452 177.065 182.428 177.089 182.4 177.106C182.373 177.124 182.341 177.135 182.309 177.14H182.319Z" fill="#2898EC"/>
</svg>
