<svg width="200" height="200" viewBox="0 0 200 200" fill="none" xmlns="http://www.w3.org/2000/svg">
<path d="M176.501 103.45C176.48 97.5682 174.754 91.8187 171.533 86.8973C168.311 81.976 163.733 78.0936 158.351 75.72C157.718 75.4286 157.043 75.2363 156.351 75.15C156.421 74.89 156.491 74.62 156.541 74.34C157.331 69.843 157.402 65.2492 156.751 60.73C153.591 39.08 135.001 24 111.371 24H111.231C99.3614 24.32 87.8814 30.6 79.7414 41.22C79.5814 41.44 79.4214 41.66 79.2814 41.88C78.714 41.2251 78.0373 40.6736 77.2814 40.25C73.6064 38.0079 69.396 36.7955 65.0914 36.74C61.2388 36.7734 57.4564 37.774 54.0914 39.65C46.6514 43.65 42.4714 50.52 42.0014 59.45V59.73V60C42.1426 62.047 42.4774 64.0761 43.0014 66.06C43.1419 66.6434 43.3606 67.2051 43.6514 67.73L43.0014 68C37.4839 70.1473 32.7073 73.8481 29.2499 78.6544C25.7926 83.4606 23.8027 89.1661 23.5214 95.08C23.2952 101.101 24.8687 107.053 28.041 112.176C31.2132 117.298 35.8403 121.359 41.3314 123.84C42.0414 124.177 42.8012 124.396 43.5814 124.49C43.4587 124.882 43.3684 125.283 43.3114 125.69C42.639 129.732 42.5347 133.849 43.0014 137.92C44.2705 148.419 49.3482 158.086 57.2714 165.09C65.2982 172.123 75.5995 176.012 86.2714 176.04H86.4114C100.541 175.67 112.101 169.65 120.781 158.14C120.861 158.04 120.931 157.93 121.001 157.83C121.622 158.531 122.355 159.122 123.171 159.58C126.75 161.719 130.832 162.872 135.001 162.92C138.911 162.884 142.744 161.83 146.121 159.86C153.461 155.71 157.521 148.92 157.851 140.23V139.82C157.771 137.615 157.436 135.427 156.851 133.3C156.715 132.836 156.531 132.386 156.301 131.96L156.991 131.72C162.707 129.514 167.626 125.636 171.106 120.594C174.586 115.551 176.466 109.577 176.501 103.45Z" fill="white"/>
<path d="M86.3484 171.54C76.8074 171.599 67.577 168.151 60.4111 161.852C53.2451 155.552 48.6427 146.84 47.4784 137.37C47.0631 133.708 47.1539 130.007 47.7484 126.37C47.8336 125.631 48.19 124.95 48.7484 124.46C59.3618 114.9 69.9585 105.323 80.5385 95.7297C80.8245 95.4101 81.2148 95.2025 81.6397 95.1439C82.0646 95.0853 82.4965 95.1795 82.8585 95.4097C93.3918 100.25 103.928 105.06 114.468 109.84C115.341 110.198 116.053 110.863 116.468 111.71C118.558 115.78 120.698 119.82 122.848 123.86C123.229 124.5 123.368 125.256 123.238 125.99C121.458 135.256 119.695 144.53 117.948 153.81C117.847 154.395 117.607 154.947 117.248 155.42C109.368 165.88 98.8484 171.21 86.3484 171.54Z" fill="#33BEB0"/>
<path d="M111.349 28.46C133.279 28.46 149.529 42.46 152.249 61.37C152.836 65.4174 152.772 69.5327 152.059 73.56C151.963 74.1945 151.631 74.7695 151.129 75.17C140.149 84.7833 129.183 94.3933 118.229 104C118.002 104.248 117.694 104.406 117.36 104.446C117.026 104.486 116.689 104.406 116.409 104.22C105.709 99.3 94.9995 94.3966 84.2795 89.51C83.6457 89.2438 83.1401 88.7418 82.8695 88.11C80.9995 84 78.9995 79.84 77.0895 75.7C76.8302 75.2239 76.7419 74.6732 76.8395 74.14C78.6595 64.8733 80.4528 55.6 82.2195 46.32C82.3844 45.447 82.7584 44.6269 83.3095 43.93C91.0895 33.78 101.429 28.73 111.349 28.46Z" fill="#F4BD00"/>
<path d="M172 103.45C171.947 108.659 170.34 113.734 167.384 118.024C164.428 122.314 160.259 125.624 155.41 127.53C154.624 127.832 153.762 127.874 152.95 127.65C145.3 125.87 137.66 124.07 129.95 122.33C129.474 122.245 129.025 122.046 128.642 121.75C128.258 121.454 127.953 121.07 127.75 120.63C125.94 117.03 124.06 113.47 122.15 109.93C122.035 109.792 121.951 109.63 121.903 109.457C121.856 109.283 121.847 109.101 121.876 108.924C121.906 108.746 121.973 108.577 122.074 108.428C122.175 108.279 122.307 108.153 122.46 108.06C133.127 98.7797 143.794 89.4763 154.46 80.1497C154.717 79.8642 155.064 79.6763 155.443 79.6179C155.822 79.5596 156.21 79.6344 156.54 79.8297C161.118 81.8597 165.013 85.1686 167.755 89.3588C170.498 93.5489 171.972 98.4419 172 103.45Z" fill="#126655"/>
<path d="M45.7819 71.7695C48.2019 72.3195 50.5719 72.8495 52.9419 73.3995C58.7519 74.7595 64.5519 76.1495 70.3719 77.4695C70.7369 77.5234 71.0807 77.6743 71.3675 77.9065C71.6542 78.1387 71.8733 78.4437 72.0019 78.7895C73.6352 82.3695 75.3019 85.9262 77.0019 89.4595C77.1072 89.6184 77.1796 89.7967 77.215 89.984C77.2504 90.1713 77.248 90.3637 77.2079 90.5501C77.1679 90.7364 77.091 90.9128 76.9818 91.069C76.8725 91.2252 76.7332 91.358 76.5719 91.4595C66.2919 100.72 56.0319 110.01 45.7919 119.33C45.4806 119.697 45.0473 119.939 44.5715 120.013C44.0958 120.086 43.6095 119.986 43.2019 119.73C38.5672 117.634 34.6559 114.214 31.9598 109.9C29.2637 105.587 27.9033 100.573 28.0498 95.4884C28.1962 90.4039 29.8429 85.4763 32.7827 81.3253C35.7226 77.1743 39.8243 73.9853 44.5719 72.1595C45.0019 71.9995 45.3819 71.8995 45.7819 71.7695Z" fill="#2B4391"/>
<path d="M46.5391 59.6599C46.9191 52.5399 49.9991 46.9999 56.2891 43.5699C62.5791 40.1399 68.8791 40.4899 75.0591 44.0999C75.4964 44.3016 75.8419 44.6603 76.0271 45.1048C76.2123 45.5494 76.2237 46.0473 76.0591 46.4999C74.4257 54.4999 72.8391 62.4999 71.2991 70.4999C71.1291 71.3999 70.8691 71.6099 69.9291 71.3799C62.9291 69.6999 55.9291 68.0565 48.9291 66.4499C48.5431 66.4091 48.18 66.2466 47.8924 65.986C47.6048 65.7253 47.4075 65.38 47.3291 64.9999C46.9003 63.2483 46.6358 61.4606 46.5391 59.6599Z" fill="#EA448C"/>
<path d="M153.381 140.05C153.121 146.92 150.111 152.46 143.931 155.94C137.751 159.42 131.591 159.19 125.471 155.67C125.188 155.559 124.929 155.394 124.71 155.183C124.49 154.972 124.315 154.72 124.193 154.442C124.071 154.163 124.006 153.863 124 153.559C123.995 153.255 124.05 152.953 124.161 152.67C125.761 144.93 127.231 137.16 128.661 129.39C128.871 128.27 129.321 128.14 130.251 128.39C137.251 130.06 144.251 131.74 151.251 133.39C151.564 133.431 151.857 133.569 152.088 133.784C152.319 133.999 152.477 134.28 152.541 134.59C153.031 136.371 153.313 138.203 153.381 140.05Z" fill="#94C82F"/>
</svg>
