<svg width="200" height="200" viewBox="0 0 200 200" fill="none" xmlns="http://www.w3.org/2000/svg">
<path d="M28.7617 167.34V33.3402C29.8517 32.9802 30.1517 33.9802 30.6417 34.4702C51.8417 55.7102 73.0251 76.9569 94.1917 98.2102C95.3717 99.3802 96.0717 100.07 94.4517 101.69C72.9317 123.17 51.4484 144.7 30.0017 166.28C29.7817 166.54 29.4717 166.75 28.7617 167.34Z" fill="#34495E"/>
<path d="M166.768 171.51H33.4483C33.0583 170.44 34.0483 170.12 34.5383 169.63C55.6983 148.35 76.8516 127.084 97.9983 105.83C99.1683 104.66 99.8983 103.91 101.518 105.55C122.978 127.224 144.488 148.847 166.048 170.42C166.321 170.761 166.562 171.126 166.768 171.51Z" fill="#60B4CB"/>
<path d="M137.422 66.4199C137.902 66.8299 138.422 67.1899 138.782 67.6099C149.002 77.8699 159.222 88.1599 169.502 98.3799C170.732 99.6099 170.642 100.31 169.502 101.48C159.235 111.707 149.005 121.973 138.812 132.28C137.812 133.33 137.162 133.54 136.002 132.37C125.822 122.057 115.598 111.783 105.332 101.55C104.332 100.55 103.902 99.9299 105.152 98.6999C115.562 88.3399 125.912 77.8999 136.282 67.4999C136.592 67.1499 137.002 66.8299 137.422 66.4199Z" fill="#8CD637"/>
<path d="M130.639 59.7296C111.519 59.7296 92.9487 59.3196 74.4187 59.9296C66.5687 60.1896 60.9787 58.1096 55.8387 52.1396C49.4587 44.7296 42.1287 38.1396 35.2188 31.1996C34.5387 30.4996 33.8788 29.7796 33.2188 29.0496C33.9688 28.2096 34.8187 28.5896 35.5387 28.5896C56.0921 28.5896 76.6488 28.5896 97.2087 28.5896C98.7188 28.5896 100.049 28.6496 101.279 29.8996C110.679 39.4396 120.159 48.8996 129.609 58.4096C129.839 58.6496 130.049 58.9996 130.639 59.7296Z" fill="#8CD637"/>
<path d="M108.809 28.55H111.259C130.039 28.55 148.819 28.55 167.599 28.5C170.209 28.5 171.229 28.99 171.209 31.92C171.069 50.87 171.139 69.83 171.119 88.78C171.119 89.63 171.419 90.55 171.059 91.04C150.352 70.24 129.602 49.41 108.809 28.55Z" fill="#60B4CB"/>
<path d="M69.25 65.3701H130C129.89 66.5401 129 66.9401 128.38 67.5401C119.58 76.4201 110.72 85.2401 101.96 94.1601C100.51 95.6401 99.73 96.0601 98.03 94.3101C88.65 84.7301 79.14 75.3001 69.25 65.3701Z" fill="#EEA400"/>
<path d="M168.189 164.46C159.563 155.88 150.933 147.3 142.299 138.72C141.509 137.93 141.369 137.44 142.239 136.58C150.906 128.02 159.536 119.437 168.129 110.83C170.279 110.96 170.209 112.61 170.249 114.09C170.329 117.68 170.249 121.28 170.249 124.88C170.249 136.77 170.249 148.67 170.249 160.56C170.229 162.11 170.729 164.16 168.189 164.46Z" fill="#EEA400"/>
<path d="M170 109C170.13 108.58 170.7 108.22 170.81 108.43C171.039 108.962 171.138 109.542 171.1 110.12C171.1 128.467 171.1 146.8 171.1 165.12C171.1 165.7 171.64 166.67 170.64 166.87C170.07 166.98 169.72 166.23 169.43 165.7C170.14 156.7 169.72 147.77 169.72 138.81C169.72 129.43 170.09 120.05 169.51 110.67C169.537 110.082 169.705 109.509 170 109Z" fill="#FBAD00"/>
<path d="M169.998 109C169.998 126.947 169.998 144.897 169.998 162.85C170.049 163.852 169.831 164.85 169.368 165.74L168.148 164.51C169.558 163.89 169.388 162.62 169.388 161.42C169.388 145.6 169.388 129.773 169.388 113.94C169.388 112.72 169.498 111.48 168.078 110.88L169.998 109Z" fill="#EEA504"/>
</svg>
