<svg width="200" height="200" viewBox="0 0 200 200" fill="none" xmlns="http://www.w3.org/2000/svg">
<path d="M90.5302 153.79C90.5302 161.61 90.3602 169.44 90.5902 177.26C90.7102 181.33 89.2802 182 85.5902 181.17C73.5902 178.51 73.5302 178.62 73.5302 166.26C73.5302 153.11 73.5302 139.96 73.5302 126.81C73.4331 125.664 73.606 124.51 74.0349 123.442C74.4638 122.374 75.1369 121.421 76.0002 120.66C78.5602 118.39 79.8802 118.04 83.5402 120.41C90.7902 125.11 90.9902 131.22 90.6402 138.31C90.3302 143.46 90.5402 148.63 90.5302 153.79Z" fill="#F9B2AA"/>
<path d="M109.601 154.33C109.601 146.68 109.741 139.03 109.531 131.33C109.451 128.33 110.341 126.33 112.971 124.83C114.381 124.04 115.471 122.67 116.811 121.71C118.151 120.75 118.971 117.79 121.541 119.09C123.901 120.28 125.871 121.85 126.721 124.75C127.971 128.96 126.601 132.99 126.601 137.1C126.601 149.41 126.441 161.72 126.601 174.03C126.601 177.5 125.471 178.88 122.111 179.81C109.431 183.29 109.471 183.43 109.481 170.75C109.481 165.257 109.481 159.767 109.481 154.28L109.601 154.33Z" fill="#F9B2AA"/>
<path d="M64.6795 174.85C50.1095 166.21 40.4995 154.59 34.7795 139.77C33.0695 135.33 32.2295 130.54 30.9295 125.93C30.1395 123.11 31.3595 122.29 33.9295 122.67C34.0927 122.68 34.2564 122.68 34.4195 122.67C42.8095 122.85 49.4995 124.35 51.1095 134.88C52.0595 141.11 56.6095 146.54 61.3595 151.04C62.542 152.055 63.4641 153.338 64.0487 154.782C64.6333 156.226 64.8633 157.789 64.7195 159.34C64.4895 164.18 64.6795 169 64.6795 174.85Z" fill="#F68679"/>
<path d="M67.7518 52.4102C67.9518 53.6202 68.0318 53.9402 68.0618 54.2602C68.7918 64.0902 65.9318 72.2602 58.6418 79.4002C53.3318 84.6302 51.2818 92.3102 48.9518 99.4002C48.1318 101.9 47.0718 102.9 44.6518 103.15C41.2018 103.52 37.7518 104.02 34.3218 104.59C31.4918 105.06 31.0018 103.98 31.4818 101.35C33.7815 88.6956 39.6204 76.9519 48.3218 67.4802C53.8182 61.3064 60.4047 56.1978 67.7518 52.4102Z" fill="#F68679"/>
<path d="M132.661 52.7803C141.442 57.3666 149.12 63.809 155.161 71.6603C161.656 80.0861 166.164 89.8692 168.351 100.28C169.021 103.28 168.931 104.74 164.691 104.59C155.901 104.26 150.471 101.44 148.031 92.0803C145.941 84.0803 140.761 77.2603 134.621 71.4703C134.026 71.0166 133.538 70.4373 133.192 69.7735C132.847 69.1098 132.652 68.378 132.621 67.6303C132.691 62.8803 132.661 58.1203 132.661 52.7803Z" fill="#F68679"/>
<path d="M135.391 173.86C135.391 167.77 135.391 161.86 135.391 155.86C135.391 154.14 136.391 153.16 137.501 152.11C144.391 145.302 149.261 136.718 151.571 127.31C151.891 126.04 151.991 124.23 153.411 124.02C158.321 123.28 163.281 122.84 168.221 122.34C169.471 122.22 169.311 123.21 169.321 124.04C169.601 139.75 150.901 167.45 135.391 173.86Z" fill="#F68679"/>
<path d="M128.36 79.63C126.52 78 126.45 76.34 126.53 74.36C126.857 66.5432 126.185 58.7167 124.53 51.07C122.29 40.74 119.08 30.79 111.35 23.07C104.65 16.41 96.5501 16.51 89.6901 22.99C86.2313 26.3701 83.4751 30.4007 81.5801 34.85C75.9901 47.23 74.1901 60.3 74.7201 73.73C74.8401 76.88 73.8801 78.79 71.4901 80.86C57.1801 93.21 52.4901 113.8 60.2101 130.48C63.8908 122.92 69.5209 116.479 76.5201 111.82C82.5201 107.93 82.5201 107.94 86.7401 113.48C94.9501 124.26 105.54 124.39 114.15 113.81C114.847 113.094 115.458 112.298 115.97 111.44C117.37 108.44 119.05 108.38 121.83 109.99C130.12 114.83 136.15 121.7 140.96 130.78C148.31 110.85 143.93 93.34 128.36 79.63ZM99.9601 74.63C93.8001 74.47 88.4601 68.94 88.6801 62.95C88.9001 56.96 94.5401 51.6 100.49 51.73C101.994 51.7648 103.476 52.0955 104.852 52.703C106.227 53.3106 107.47 54.1832 108.509 55.2711C109.547 56.3589 110.362 57.6406 110.905 59.0431C111.448 60.4456 111.71 61.9414 111.675 63.445C111.64 64.9487 111.31 66.4307 110.702 67.8066C110.095 69.1825 109.222 70.4252 108.134 71.4638C107.046 72.5024 105.764 73.3166 104.362 73.8599C102.959 74.4031 101.464 74.6648 99.9601 74.63Z" fill="#F86853"/>
</svg>
