<svg width="200" height="200" viewBox="0 0 200 200" fill="none" xmlns="http://www.w3.org/2000/svg">
<g clip-path="url(#clip0)">
<path d="M146.681 167.68H137.631L125.561 166L115.791 162.78L109.161 159.54C106.911 159.44 105.551 157.45 103.511 156.91C100.571 154.34 97.5108 151.91 94.6608 149.23C93.833 148.652 93.0747 147.981 92.4008 147.23C90.1308 144.23 87.3108 141.68 85.3308 138.45C84.4208 136.55 82.5308 135.14 82.4608 132.81C81.3708 130.6 80.2808 128.4 79.2008 126.19C78.1208 122.943 77.0441 119.69 75.9708 116.43C75.4108 112.59 74.8541 108.746 74.3008 104.9C74.3008 101.7 74.3008 98.5097 74.3008 95.3097C74.8674 91.4697 75.4341 87.6331 76.0008 83.7997L79.6908 72.7997L82.4708 67.3797C82.5408 65.0497 84.4208 63.6297 85.3408 61.7297C87.6272 58.605 90.0983 55.6197 92.7408 52.7897C93.2858 52.1266 93.9029 51.5262 94.5808 50.9997C97.4405 48.3672 100.445 45.8967 103.581 43.5997C105.349 42.3818 107.185 41.2666 109.081 40.2597C111.011 39.6797 112.411 37.8197 114.631 37.9497L124.461 34.6297C128.349 32.6209 132.776 31.8995 137.101 32.5697H146.731C150.731 32.1497 154.621 32.0997 158.191 34.3197L168.001 37.4297C170.415 37.8812 172.712 38.8203 174.751 40.1897C176.651 41.1897 178.441 42.3897 180.251 43.5597C183.251 45.7897 186.111 48.2597 189.031 50.6197C189.785 51.2948 190.456 52.0568 191.031 52.8897C193.709 55.6881 196.195 58.6649 198.471 61.7997C199.611 63.6197 200.851 65.3797 201.831 67.2997C203.121 69.3997 204.421 71.4897 204.581 74.0497C205.647 77.3031 206.721 80.5531 207.801 83.7997C209.511 87.0126 210.112 90.7002 209.511 94.2897C209.451 94.8197 209.171 95.2897 209.511 95.8497V104.92C209.991 108.92 209.871 112.8 207.851 116.43C206.784 119.683 205.711 122.936 204.631 126.19C204.441 128.74 203.181 130.84 201.871 132.93C200.701 134.73 199.671 136.62 198.511 138.43C196.239 141.587 193.728 144.566 191.001 147.34C190.311 148.06 189.721 148.85 189.001 149.53C186.101 151.89 183.541 154.68 180.311 156.65C178.411 157.58 176.981 159.42 174.681 159.55L168.001 162.8L158.221 166L146.681 167.68Z" fill="#818181"/>
<path d="M119.871 102.19C114.331 102.19 108.791 102.19 103.251 102.19C101.691 102.19 100.961 102.48 101.041 104.29C101.102 106.872 101.806 109.399 103.089 111.642C104.372 113.884 106.194 115.771 108.39 117.132C110.586 118.493 113.086 119.285 115.665 119.437C118.245 119.588 120.821 119.094 123.161 118C125.811 116.81 128.091 115.05 129.071 112.28C129.711 110.44 130.641 110.02 132.431 110.03C138.651 110.08 138.931 110.42 135.961 115.95C132.481 122.44 126.701 125.56 119.621 126.25C104.471 127.74 94.4909 119.46 92.6209 104.35C91.7115 98.2972 92.6599 92.1114 95.3409 86.6096C99.8909 77.6196 108.161 73.1696 118.741 73.9996C127.041 74.5996 134.051 80.6096 137.021 89.7096C137.975 92.836 138.549 96.0659 138.731 99.3296C138.911 101.52 138.341 102.33 135.951 102.33C130.601 102.07 125.241 102.19 119.871 102.19Z" fill="#FEFEFE"/>
<path d="M191.098 126.13C190.478 126.26 190.308 126.32 190.098 126.33C180.508 126.67 180.508 126.67 175.208 118.75C172.478 114.67 169.688 110.64 167.028 106.52C166.028 104.99 165.518 104.89 164.468 106.52C160.538 112.52 156.468 118.4 152.468 124.41C152.117 125.086 151.568 125.639 150.895 125.997C150.221 126.354 149.456 126.498 148.698 126.41C146.248 126.27 143.798 126.41 141.238 126.41C141.138 125.18 141.998 124.54 142.528 123.79C147.938 116.16 153.318 108.51 158.848 100.96C160.108 99.2498 159.948 98.1798 158.708 96.5498C153.438 89.5998 148.328 82.5498 143.168 75.5498C142.918 75.2098 142.718 74.8198 142.248 74.0298H152.248C153.498 74.0298 153.828 75.1298 154.368 75.9098C157.738 80.7598 161.108 85.6098 164.368 90.5198C165.368 91.9898 165.868 92.1998 166.968 90.5898C170.418 85.5898 174.058 80.6998 177.518 75.6998C177.845 75.0786 178.352 74.5716 178.974 74.2464C179.596 73.9212 180.302 73.7933 180.998 73.8798C183.508 73.9898 185.998 73.8798 189.168 73.8798C187.038 76.7698 185.258 79.2298 183.438 81.6598C179.908 86.3798 176.438 91.1398 172.778 95.7998C171.548 97.3698 171.368 98.4698 172.668 100.22C178.398 107.95 183.948 115.82 189.558 123.65C190.048 124.39 190.488 125.16 191.098 126.13Z" fill="#FEFEFE"/>
<path d="M115.269 95.2801C111.269 95.2801 107.269 95.2001 103.269 95.2801C101.329 95.3401 101.059 94.7001 101.389 92.9201C101.953 89.5281 103.733 86.4576 106.396 84.2823C109.059 82.107 112.423 80.9758 115.859 81.1001C119.248 81.2171 122.49 82.511 125.029 84.7594C127.567 87.0077 129.243 90.07 129.769 93.4201C129.999 94.9301 129.479 95.3201 128.069 95.3001C123.799 95.2501 119.529 95.2801 115.269 95.2801Z" fill="#828282"/>
</g>
<defs>
<clipPath id="clip0">
<rect width="200" height="200" fill="white"/>
</clipPath>
</defs>
</svg>
