<svg width="200" height="200" viewBox="0 0 200 200" fill="none" xmlns="http://www.w3.org/2000/svg">
<path d="M173.429 7.8398C173.069 9.2598 171.819 9.9598 170.889 10.8998C141.749 40.1198 112.603 69.3298 83.4494 98.5298C74.5194 107.53 65.5594 116.42 56.8294 125.53C54.3994 128.09 53.1094 127.72 50.8794 125.4C43.466 117.713 35.9194 110.153 28.2394 102.72C26.0594 100.61 25.9794 99.4498 28.2394 97.2498C57.1194 68.4698 85.9427 39.6298 114.709 10.7298C115.709 9.7798 116.579 8.7798 117.509 7.7998L173.429 7.8398Z" fill="#67B6F6"/>
<path d="M128.801 147.06C143.561 161.773 158.318 176.49 173.071 191.21C173.291 191.43 173.321 191.84 173.431 192.16H117.431L96.6412 171.21C96.6357 171.025 96.6684 170.84 96.7372 170.668C96.806 170.496 96.9095 170.34 97.0412 170.21C99.3612 168.49 102.201 167.99 104.811 166.97C107.001 166.22 109.091 165.21 111.311 164.56C113.531 163.91 115.841 163 118.121 162.26C119.126 161.812 120.154 161.418 121.201 161.08C124.201 160.16 125.551 158.22 125.321 155.08C125.159 153.119 125.425 151.147 126.101 149.3C126.551 148.1 126.901 146.61 128.801 147.06Z" fill="#0D47A0"/>
<path d="M96 114.67C102.8 107.77 109.6 100.88 116.4 94.0001C116.828 93.5672 117.344 93.2321 117.914 93.0181C118.484 92.804 119.093 92.716 119.7 92.7601C137.12 92.7601 154.543 92.7601 171.97 92.7601C172.398 92.8119 172.82 92.9057 173.23 93.0401C172.95 94.5501 171.73 95.2801 170.85 96.1601C156.39 110.693 141.913 125.21 127.42 139.71C126.48 140.65 125.67 141.71 124.8 142.71C124.667 142.83 124.503 142.912 124.327 142.947C124.151 142.982 123.969 142.97 123.8 142.91C116.18 136.26 109.38 128.76 102.2 121.66C100 119.49 97.31 117.68 96 114.67Z" fill="#67B6F6"/>
<path d="M96.0001 114.67C105.72 123.67 115 133.11 124.12 142.75C124.57 144.56 123.05 145.3 122.12 146.29C120.06 148.49 117.88 150.57 115.77 152.72C113.23 155.16 110.77 157.67 108.31 160.18C104.51 163.73 101.19 167.81 96.9001 170.83C96.8544 170.975 96.7717 171.106 96.6601 171.21C87.8401 162.38 79.0801 153.49 70.1501 144.76C68.2901 142.94 68.3601 142.03 70.1501 140.25C78.8601 131.81 87.3901 123.21 96.0001 114.67Z" fill="#42A4F4"/>
<path d="M128.799 147.06C126.339 148.23 126.129 150.92 126.449 152.71C127.709 159.63 123.679 161.97 118.179 163.39C116.499 160.92 117.179 158.26 117.639 155.67C118.439 151.5 120.949 148.2 123.389 144.88C123.627 144.453 124.023 144.136 124.492 143.996C124.96 143.856 125.465 143.904 125.899 144.13C126.859 145.11 127.829 146.09 128.799 147.06Z" fill="#16448C"/>
<path d="M125.901 144.13C123.705 145.9 121.892 148.098 120.572 150.591C119.252 153.084 118.452 155.819 118.221 158.63C118.136 160.216 118.136 161.804 118.221 163.39L111.551 165.57C109.551 164.44 110.121 162.76 110.551 161.09C111.401 157.75 113.381 155 115.251 152.19L124.141 142.75H124.841L125.901 144.13Z" fill="#153B74"/>
<path d="M115.209 152.19C114.779 154.99 112.709 157.07 111.939 159.72C111.369 161.65 110.159 163.51 111.509 165.57L104.929 167.77C103.929 164.33 106.499 162.17 107.839 159.57L115.209 152.19Z" fill="#0D2A56"/>
<path d="M107.839 159.57L104.929 167.77L96.8789 170.83C99.9989 166.55 103.999 163.17 107.839 159.57Z" fill="#041B40"/>
</svg>
