<svg width="200" height="200" viewBox="0 0 200 200" fill="none" xmlns="http://www.w3.org/2000/svg">
<path d="M30.6191 117C26.0291 119.82 21.2591 122.24 15.6991 122.16C12.4591 122.16 9.69908 121.07 8.44908 117.64C8.26908 116.73 8.73908 116.78 9.32908 117.05C12.0091 118.28 14.6791 117.84 17.3291 117.05C20.0193 116.064 22.6359 114.887 25.1591 113.53C27.3778 112.133 29.4543 110.522 31.3591 108.72C31.8191 108.29 32.2091 107.72 32.9491 107.72C33.3691 107.87 33.2191 108.94 34.1891 108.34C34.6891 108.02 35.5091 108.57 36.1891 108.34C36.5518 108.159 36.9564 108.078 37.3609 108.106C37.7654 108.134 38.1549 108.27 38.4891 108.5C38.5391 109.81 37.6091 110.44 36.7391 111.18C34.6032 113.016 32.5606 114.959 30.6191 117Z" fill="#91251A"/>
<path d="M127.002 117.34C127.002 118.53 127.002 119.73 127.002 120.92C127.002 121.39 127.342 122.24 126.532 122.21C125.722 122.18 124.752 122.96 124.382 121.6C124.182 120.87 123.872 121 123.382 121.37C122.351 122.136 121.115 122.577 119.832 122.636C118.549 122.695 117.278 122.369 116.182 121.7C113.772 120.39 113.182 118.14 113.272 115.61C113.362 113.08 112.912 110.61 113.752 108.18C114.642 105.56 117.022 104.01 120.202 103.97C123.382 103.93 125.712 105.18 126.542 107.51C126.732 108.04 127.322 109.01 126.542 109.13C125.762 109.25 124.412 109.93 123.772 108.5C122.992 106.73 122.052 106.27 119.832 106.5C119.066 106.498 118.326 106.775 117.75 107.28C117.174 107.784 116.801 108.481 116.702 109.24C116.37 111.82 116.333 114.431 116.592 117.02C116.599 117.708 116.842 118.372 117.281 118.902C117.72 119.432 118.327 119.794 119.002 119.93C120.732 120.31 122.432 120.11 123.572 118.62C124.372 117.56 124.102 116.11 123.782 115.01C123.572 114.25 122.232 114.78 121.402 114.74C120.572 114.7 120.082 114.66 120.082 113.62C120.082 112.58 120.262 112.26 121.312 112.31C122.884 112.4 124.46 112.4 126.032 112.31C126.962 112.31 127.122 112.61 127.032 113.43C126.962 114.73 127.032 116.04 127.032 117.34H127.002Z" fill="#040404"/>
<path d="M131.311 113.25C131.311 110.64 131.311 108.04 131.311 105.43C131.311 104.54 131.491 104.22 132.491 104.25C135.201 104.35 137.921 104.37 140.631 104.25C141.711 104.25 141.851 104.58 141.891 105.5C141.931 106.42 141.571 106.82 140.591 106.78C139.011 106.71 137.441 106.78 135.861 106.78C135.591 106.78 135.181 106.65 135.071 106.78C133.961 108.07 134.841 109.62 134.571 111.03C134.431 111.82 134.941 111.89 135.571 111.89C137.091 111.89 138.621 111.97 140.131 111.89C141.341 111.78 141.301 112.43 141.301 113.24C141.301 114.05 141.301 114.57 140.191 114.49C138.731 114.37 137.251 114.49 135.791 114.43C134.921 114.43 134.581 114.61 134.561 115.58C134.481 119.78 134.441 119.78 138.561 119.78C139.156 119.835 139.755 119.835 140.351 119.78C141.851 119.49 141.881 120.36 141.861 121.45C141.861 122.16 141.641 122.37 140.931 122.36C138.051 122.36 135.174 122.36 132.301 122.36C131.471 122.36 131.301 122.05 131.301 121.36C131.301 118.7 131.301 116.04 131.301 113.36L131.311 113.25Z" fill="#040404"/>
<path d="M65.0008 113.19C65.0008 110.59 65.0008 107.98 65.0008 105.38C65.0008 104.56 65.1108 104.25 66.0008 104.27C68.9308 104.33 71.8608 104.34 74.7808 104.27C75.7808 104.27 75.7808 104.7 75.7808 105.44C75.7808 106.18 75.8408 106.83 74.7808 106.79C73.0008 106.72 71.2008 106.79 69.4208 106.71C68.4208 106.71 68.2408 107.01 68.2108 107.9C68.0608 112.15 68.0308 112.15 72.2108 112.13C72.6436 112.16 73.078 112.16 73.5108 112.13C74.3908 112.01 74.7608 112.27 74.7208 113.23C74.6808 114.19 74.7208 114.72 73.5408 114.65C72.1408 114.57 70.7208 114.65 69.3208 114.56C68.4208 114.49 68.1708 114.83 68.1908 115.65C68.1908 117.49 68.1208 119.34 68.1908 121.17C68.2808 122.72 67.1908 122.24 66.4808 122.28C65.7708 122.32 64.8608 122.58 64.9208 121.18C65.0208 118.52 64.9208 115.86 64.9208 113.18L65.0008 113.19Z" fill="#040404"/>
<path d="M91.8011 93.71C90.482 95.0628 88.6897 95.8514 86.8011 95.91C83.2011 95.91 81.0011 93.91 80.9111 90.3C80.8211 86.45 80.9111 82.59 80.9111 78.74C80.9111 77.92 81.1111 77.58 81.9911 77.57C82.8711 77.56 82.8611 78.12 82.8611 78.73C82.8611 82.43 82.8611 86.1233 82.8611 89.81C82.8611 92.3 83.9311 93.9 85.8011 94.26C88.1311 94.72 91.0011 93.46 91.8011 91.59C91.9438 91.1275 92.0014 90.643 91.9711 90.16C91.9711 86.52 91.9711 82.89 91.9711 79.25C91.9711 78.56 91.5011 77.54 92.9711 77.57C94.4411 77.6 93.8611 78.57 93.8711 79.18C93.8711 84.18 93.8711 89.28 93.8711 94.33C93.8711 94.89 94.1811 95.54 93.1711 95.62C92.1611 95.7 92.0211 95.28 92.0911 94.48C92.1218 94.3373 92.1107 94.1889 92.0593 94.0523C92.0079 93.9158 91.9182 93.797 91.8011 93.71Z" fill="#070707"/>
<path d="M184.442 87.2004C181.792 88.9604 181.572 91.5304 181.782 94.2804C181.782 94.8004 182.192 95.6204 181.002 95.6304C179.812 95.6404 179.942 95.0204 179.942 94.2804C179.942 89.1204 179.942 83.9604 179.942 78.8004C179.942 78.0704 180.002 77.5304 180.942 77.5704C181.882 77.6104 181.812 78.1204 181.812 78.7604C181.745 81.5344 181.852 84.3098 182.132 87.0704C184.322 84.3004 186.552 81.5504 188.702 78.7404C188.987 78.2509 189.439 77.8805 189.976 77.6969C190.512 77.5133 191.096 77.5288 191.622 77.7404C189.832 80.0504 188.132 82.3404 186.312 84.5304C186.163 84.6612 186.043 84.8208 185.959 84.9997C185.875 85.1785 185.828 85.3727 185.821 85.5703C185.814 85.768 185.848 85.9648 185.921 86.1489C185.993 86.3329 186.102 86.5002 186.242 86.6404C187.732 88.7004 189.162 90.7904 190.592 92.8904C190.762 93.2292 191.008 93.5249 191.309 93.7552C191.61 93.9856 191.96 94.1446 192.332 94.2204C192.752 94.2804 193.052 94.4804 193.042 94.9504C193.032 95.4204 192.622 95.6604 192.162 95.7104C191.623 95.7735 191.077 95.6774 190.592 95.434C190.107 95.1905 189.703 94.8104 189.432 94.3404C187.762 91.9404 186.062 89.5204 184.442 87.2004Z" fill="#070707"/>
<path d="M169.151 77.3398C172.261 77.3398 174.421 78.5698 175.151 80.7198C175.311 81.1998 175.921 82.0498 174.901 82.3398C174.191 82.5398 173.701 82.2798 173.381 81.3998C172.381 78.7398 167.801 77.9598 165.861 80.0298C165.575 80.3503 165.368 80.7337 165.257 81.1489C165.147 81.5641 165.135 81.9995 165.224 82.42C165.312 82.8405 165.498 83.2343 165.767 83.5696C166.036 83.9048 166.38 84.1721 166.771 84.3498C168.139 84.9597 169.554 85.4579 171.001 85.8398C175.001 87.1498 176.081 89.3098 175.101 92.7098C174.968 93.1752 174.741 93.6081 174.433 93.9814C174.125 94.3548 173.743 94.6606 173.311 94.8798C171.884 95.6573 170.265 96.0128 168.643 95.9048C167.021 95.7968 165.463 95.2298 164.151 94.2698C163.399 93.5665 162.882 92.648 162.671 91.6398C162.561 91.2598 162.341 90.6998 163.051 90.6398C163.551 90.6398 164.051 90.4298 164.431 91.1398C165.961 94.1398 168.781 95.1398 171.731 93.8298C172.257 93.61 172.703 93.2363 173.012 92.758C173.32 92.2796 173.477 91.719 173.461 91.1498C173.574 90.5522 173.486 89.9341 173.211 89.3916C172.936 88.8491 172.49 88.4126 171.941 88.1498C170.31 87.4508 168.641 86.8432 166.941 86.3298C163.891 85.2298 162.941 83.8398 163.261 81.0898C163.531 79.0898 165.391 77.5898 168.081 77.3398C168.511 77.3498 168.941 77.3498 169.151 77.3398Z" fill="#060606"/>
<path d="M41.0013 81.8904C42.6154 83.6683 43.8575 85.7512 44.6544 88.0165C45.4513 90.2817 45.7868 92.6835 45.6413 95.0804C45.3613 95.4804 45.3113 95.9804 45.0613 96.3904C44.8113 96.8004 44.6913 97.1704 44.4113 97.5004C44.2483 97.7458 44.0285 97.9482 43.7705 98.0905C43.5126 98.2328 43.2241 98.3106 42.9296 98.3175C42.6351 98.3244 42.3432 98.26 42.0789 98.13C41.8146 97.9999 41.5856 97.8079 41.4113 97.5704C40.9513 97.0304 40.3413 96.6704 39.9013 96.1204C39.6168 95.4754 39.557 94.7535 39.7313 94.0704C40.0388 92.9048 40.088 91.6861 39.8755 90.4995C39.6631 89.3129 39.1941 88.187 38.5013 87.2004C38.3081 86.9378 38.2126 86.6159 38.2313 86.2904C38.3996 86.0218 38.5117 85.7218 38.561 85.4087C38.6103 85.0956 38.5958 84.7757 38.5182 84.4683C38.4407 84.161 38.3017 83.8725 38.1098 83.6202C37.9179 83.3679 37.6769 83.1571 37.4013 83.0004C36.6013 82.4304 36.4713 81.4304 35.9313 80.7004C35.7213 80.4204 35.6113 80.1104 35.9313 79.8204C36.0526 79.7105 36.199 79.6321 36.3577 79.592C36.5163 79.5519 36.6824 79.5514 36.8413 79.5904C37.5213 79.7204 38.0813 80.2504 38.8413 80.2404L39.4913 80.5304C40.0409 80.9296 40.547 81.3854 41.0013 81.8904Z" fill="#E1AA06"/>
<path d="M149.571 86.5105C149.571 83.9605 149.571 81.4105 149.571 78.8605C149.571 78.0205 149.671 77.5505 150.701 77.5805C153.251 77.6505 155.801 77.5805 158.351 77.5805C158.851 77.5805 159.351 77.5805 159.351 78.2905C159.351 79.0005 159.021 79.2105 158.351 79.2005C156.511 79.2005 154.661 79.2005 152.811 79.2005C151.871 79.2005 151.431 79.3505 151.501 80.4105C151.601 81.8205 151.561 83.2305 151.501 84.6405C151.501 85.4405 151.741 85.6405 152.501 85.6405C154.231 85.5505 155.971 85.6405 157.711 85.6405C158.331 85.6405 158.771 85.7505 158.711 86.5204C158.651 87.2904 158.231 87.2605 157.711 87.2505C156.021 87.2505 154.341 87.2505 152.661 87.2505C151.771 87.2505 151.381 87.4205 151.431 88.4105C151.501 89.9205 151.501 91.4105 151.431 92.9605C151.431 93.9605 151.721 94.1905 152.631 94.1605C154.471 94.1105 156.321 94.1605 158.161 94.1605C158.661 94.1605 159.281 93.9905 159.281 94.9005C159.281 95.8105 158.731 95.7505 158.101 95.7405C155.661 95.7405 153.211 95.6705 150.771 95.7405C149.711 95.7405 149.481 95.4104 149.501 94.4505C149.601 91.7205 149.571 89.1205 149.571 86.5105Z" fill="#080808"/>
<path d="M5.14078 105.05C4.78586 104.813 4.49567 104.492 4.29658 104.115C4.09749 103.737 3.99581 103.316 4.00078 102.89C4.01875 101.872 3.86666 100.858 3.55078 99.8898C3.65193 99.7596 3.79693 99.6706 3.95881 99.6393C4.12069 99.608 4.28842 99.6366 4.43078 99.7198C6.91078 100.97 9.59078 100.57 12.2108 100.65C12.7608 100.8 13.5408 100.53 13.6608 101.5C13.7108 101.91 14.1808 101.8 14.4708 101.78C17.3642 101.58 20.2257 101.053 23.0008 100.21C23.8308 99.9398 24.6908 99.3398 25.5308 100.21C25.2008 101.49 23.9908 101.88 23.0608 102.49C21.8774 103.231 20.6081 103.826 19.2808 104.26C17.323 104.885 15.3158 105.343 13.2808 105.63C11.9642 105.857 10.6134 105.784 9.32876 105.417C8.04415 105.05 6.85879 104.398 5.86078 103.51C5.76078 103.42 5.61078 103.2 5.57078 103.28C5.53078 103.36 5.66078 103.68 5.69078 103.89C5.75042 104.191 5.68937 104.503 5.52078 104.76C5.42809 104.894 5.29501 104.996 5.14078 105.05Z" fill="#A93E1B"/>
<path d="M12.3607 101.06C9.36069 101.23 6.36069 101.34 3.55069 99.8504L3.22069 99.5504C2.85069 98.8804 3.05069 98.0104 2.44069 97.4304C1.92069 95.7704 2.87069 94.5904 3.78069 93.4304C4.38069 93.3004 4.65069 93.6204 4.88069 94.1204C5.96069 96.5104 7.44069 97.3604 9.88069 97.1204C10.3107 97.1204 10.7007 97.1204 10.9307 96.5504C11.5907 95.0004 11.9307 94.8804 13.6607 95.4204C13.9807 95.8104 13.8407 96.2404 13.7507 96.6504C13.6607 97.0604 13.7507 97.5604 14.2307 97.7204C14.803 97.85 15.3305 98.1295 15.7593 98.5301C16.188 98.9308 16.5026 99.4382 16.6707 100C16.2818 100.406 15.7958 100.707 15.2587 100.873C14.7216 101.039 14.151 101.066 13.6007 100.95C13.397 100.886 13.1825 100.863 12.9697 100.882C12.7569 100.9 12.5499 100.961 12.3607 101.06Z" fill="#F2C106"/>
<path d="M103.25 87.2305C103.25 84.9505 103.25 82.6705 103.25 80.3905C103.25 79.3905 102.98 79.1605 102.07 79.2205C100.99 79.2905 99.9004 79.2205 98.8104 79.2205C98.2104 79.2205 97.9204 79.0105 97.9104 78.3805C97.9004 77.7505 98.1904 77.5705 98.7904 77.5805C102.43 77.5805 106.067 77.5805 109.7 77.5805C110.32 77.5805 110.54 77.7805 110.54 78.4405C110.54 79.1005 110.19 79.2505 109.63 79.2205C109.467 79.2054 109.303 79.2054 109.14 79.2205C107.87 79.3505 106.14 78.6205 105.44 79.5305C104.74 80.4405 105.19 82.0105 105.19 83.3005C105.19 86.9905 105.19 90.6805 105.19 94.3705C105.19 95.0405 105.26 95.6205 104.19 95.6205C103.12 95.6205 103.19 95.0705 103.19 94.3805C103.19 91.9905 103.19 89.6105 103.19 87.2205L103.25 87.2305Z" fill="#070707"/>
<path d="M9.10156 87.05C11.6716 83.05 15.5016 80.95 19.8616 79.55C22.0516 78.55 24.1316 79.15 26.1916 80.03C26.6116 80.21 27.1916 80.31 27.1316 80.95C27.0716 81.59 26.5616 81.52 26.1316 81.66C25.1172 82.0094 24.0775 82.2802 23.0216 82.47C21.9054 83.0271 20.6384 83.2061 19.4116 82.98C19.2568 82.9298 19.0921 82.9182 18.9317 82.946C18.7714 82.9739 18.6203 83.0405 18.4916 83.14C17.4116 84.25 15.9616 84.32 14.5916 84.45C13.8972 84.4834 13.2208 84.6823 12.6189 85.0302C12.017 85.3782 11.5071 85.8649 11.1316 86.45C10.7316 87.02 10.3016 88.32 9.13156 87.27L9.10156 87.05Z" fill="#B5471F"/>
<path d="M38.7616 80.2796C37.7616 81.0696 37.0416 79.3796 36.0816 80.0696C36.7458 81.4917 37.6565 82.7849 38.7716 83.8896C38.932 84.0373 39.0539 84.2219 39.1268 84.4275C39.1997 84.633 39.2213 84.8533 39.1898 85.0691C39.1583 85.2849 39.0745 85.4897 38.9459 85.6658C38.8172 85.8419 38.6476 85.9839 38.4516 86.0796C37.94 86.0131 37.4607 85.793 37.0769 85.4484C36.693 85.1039 36.4227 84.651 36.3016 84.1496C35.3016 82.5596 33.6116 82.2796 32.0716 81.7596C31.6622 81.6733 31.2743 81.5058 30.9308 81.2671C30.5873 81.0283 30.2951 80.7232 30.0716 80.3696C29.3216 79.1296 27.7916 79.1696 26.4616 79.0296C25.1316 78.8896 23.9816 79.3796 22.8516 78.5996C28.3816 77.0796 33.7416 77.0996 38.7616 80.2796Z" fill="#DF9A13"/>
<path d="M13.6714 95.5302C12.9214 95.2302 12.1914 95.6802 11.4514 95.5302C11.0314 96.1102 12.0214 96.6703 11.4514 97.1903C10.8814 97.7103 10.2714 97.3003 9.73143 97.4803C7.59143 98.2303 6.43143 96.3602 4.83143 95.6802C4.45143 95.5202 4.58143 95.0002 4.57143 94.6802C4.56143 94.3602 4.57143 93.6802 3.90143 93.6002C3.44143 92.7902 4.49143 92.6002 4.54143 91.9602C4.63143 91.5402 4.60143 91.0502 5.20143 90.9602C5.29488 90.8857 5.40227 90.8304 5.5173 90.7978C5.63234 90.7652 5.75273 90.7558 5.87143 90.7702C6.99143 91.2102 6.87143 92.3502 7.20143 93.2202C7.71143 94.5902 7.86143 94.7502 9.14143 94.9302C8.73143 92.3602 9.14143 91.7702 11.3114 91.4902C11.4246 91.522 11.5296 91.5778 11.6193 91.6537C11.709 91.7296 11.7813 91.8239 11.8314 91.9302C11.4014 94.3302 11.5314 94.4302 14.0014 93.7102C14.3514 93.6102 14.6814 93.3702 15.0714 93.5902C15.2914 94.7302 14.5414 95.1802 13.6714 95.5302Z" fill="#E8AA11"/>
<path d="M22.8584 78.6002C25.0484 78.7202 27.2484 78.2702 29.4184 79.1802C30.1384 79.4802 30.7084 79.5002 30.6484 80.4402C30.6484 81.1202 31.1284 81.1202 31.6484 81.2102C33.4096 81.5382 35.0682 82.2783 36.4884 83.3702C36.7684 83.5702 37.4084 83.9202 36.4884 84.1702C36.0284 84.3102 35.6484 84.0402 35.2584 83.8802C32.0371 82.4554 28.4578 82.0472 24.9984 82.7102C24.3305 82.9612 23.5907 82.9396 22.9384 82.6502C22.8649 82.5994 22.8136 82.5225 22.795 82.4351C22.7764 82.3477 22.792 82.2565 22.8384 82.1802L27.2184 80.9002C24.6784 79.9002 22.4284 79.0302 19.8984 79.5502C20.778 78.9654 21.8028 78.6365 22.8584 78.6002Z" fill="#CE7015"/>
<path d="M17.5806 117.36C14.6806 118.36 11.7906 118.96 8.92063 117.23C8.59063 117.03 8.52062 117.42 8.45062 117.67C7.15062 115.82 5.92062 113.95 6.45062 111.5C6.45062 111.35 6.55062 111.12 6.45062 111.03C5.04062 109.24 5.53062 107.03 5.14062 105.03L5.26063 104.93C6.59063 105.21 6.26062 106.48 6.70062 107.31C6.48062 108.84 7.39062 109.72 8.54063 110.42C9.92077 111.168 11.4833 111.515 13.0506 111.42C13.7906 111.42 14.7306 111.12 15.1206 112.18C14.7806 113.1 13.9006 112.9 13.2206 113.05C11.5947 113.409 9.89601 113.23 8.38063 112.54C7.60063 112.21 8.28062 113.01 7.97062 113C8.06062 113.3 7.27063 112.93 7.62063 113.52C8.22769 114.571 9.10299 115.443 10.1571 116.045C11.2113 116.648 12.4064 116.96 13.6206 116.95C15.0006 117 16.3406 116.56 17.5806 117.36Z" fill="#A93E1B"/>
<path d="M30.6215 117C30.4715 115.54 31.7515 115 32.6215 114.48C33.2225 114.157 33.7396 113.698 34.1315 113.14C34.8016 112.075 35.7629 111.225 36.9015 110.69C37.6285 110.155 38.1704 109.407 38.4515 108.55C38.4611 108.064 38.6131 107.592 38.8887 107.192C39.1642 106.792 39.5511 106.482 40.0015 106.3C40.8215 106.08 41.2915 105.4 41.8915 104.89C42.4915 104.38 42.7315 104.37 43.0015 105.26C40.7336 109.647 37.2655 113.299 33.0015 115.79C32.2919 116.34 31.4843 116.751 30.6215 117Z" fill="#62361D"/>
<path d="M11.3581 91.6298C11.0508 91.7188 10.7501 91.8291 10.4581 91.9598C9.53813 92.4798 8.63812 92.9598 9.57812 94.2698C9.79813 94.5698 10.2581 95.0298 9.79813 95.3798C9.41621 95.57 8.97574 95.6058 8.56812 95.4798C8.19413 95.3584 7.85553 95.1472 7.58187 94.8648C7.30821 94.5825 7.1078 94.2374 6.99813 93.8598C6.60813 92.8598 6.79813 91.6798 5.82812 90.9498C5.82812 89.8298 6.64813 89.1798 7.26813 88.4198C8.02813 88.1398 8.26812 87.1698 9.14812 87.0498C9.21441 87.0687 9.27138 87.1115 9.30813 87.1698C9.30813 87.5798 9.60813 88.0698 9.09813 88.3998C8.83813 89.9298 8.98813 90.2498 10.2181 90.6098C10.6876 90.6799 11.124 90.8929 11.4681 91.2198C11.4972 91.2908 11.5023 91.3693 11.4824 91.4434C11.4625 91.5175 11.4188 91.583 11.3581 91.6298Z" fill="#DD9417"/>
<path d="M43.001 105.26C42.711 104.35 42.381 104.83 42.001 105.26C41.471 105.91 41.001 106.67 40.001 106.64C39.471 105.71 40.551 105.29 40.661 104.56C41.471 102.89 42.801 101.5 43.261 99.6504C43.661 98.4404 44.471 97.4304 44.861 96.2204C44.8984 95.997 44.9806 95.7836 45.1026 95.5928C45.2246 95.4021 45.3839 95.238 45.571 95.1104C45.9834 98.6941 45.0692 102.305 43.001 105.26Z" fill="#8B5D13"/>
<path d="M4.53028 91.9404C4.81028 92.6704 3.85028 92.9404 3.89028 93.5804C3.41977 94.1043 3.0652 94.7216 2.84979 95.3919C2.63438 96.0623 2.56298 96.7706 2.64028 97.4704C2.68231 97.5243 2.71333 97.5859 2.73156 97.6517C2.74978 97.7175 2.75486 97.7863 2.7465 97.8541C2.73815 97.9219 2.71652 97.9873 2.68285 98.0468C2.64918 98.1062 2.60413 98.1584 2.55028 98.2004C1.56028 96.3604 2.42028 93.6404 4.53028 91.9404Z" fill="#F3DF7E"/>
<path d="M7.22141 88.4199C7.09141 89.4599 6.00141 89.9399 5.78141 90.9999H5.19141C5.51725 89.914 6.24267 88.9921 7.22141 88.4199Z" fill="#F3DB9A"/>
<path d="M2.55129 98.1997L2.64129 97.4697C3.64129 97.9297 3.16129 98.8197 3.22129 99.5497C2.99817 99.4061 2.81808 99.2048 2.70012 98.9671C2.58216 98.7294 2.53074 98.4643 2.55129 98.1997Z" fill="#D9BD60"/>
<path d="M40.9984 81.8902C40.6365 81.8375 40.296 81.6866 40.0139 81.4538C39.7318 81.2211 39.519 80.9155 39.3984 80.5702C39.7844 80.5392 40.1672 80.6597 40.4658 80.9061C40.7645 81.1525 40.9555 81.5054 40.9984 81.8902Z" fill="#EFD588"/>
<path d="M109.999 120.14C109.109 120.01 108.799 119.3 108.439 118.66C107.959 117.82 107.569 116.92 107.079 116.08C106.589 115.24 106.379 114.7 107.509 114.08C109.899 112.7 109.819 110.31 109.379 108.08C108.939 105.85 107.269 104.93 105.189 104.56C103.109 104.19 100.749 104.49 98.5289 104.34C97.4489 104.26 97.1189 104.56 97.1489 105.66C97.2289 108.21 97.1489 110.76 97.1489 113.31C97.1489 115.86 97.2489 118.2 97.1489 120.63C97.0689 122.11 97.5589 122.37 98.9389 122.41C100.549 122.41 100.499 121.65 100.449 120.54C100.399 119.43 100.449 118.05 100.449 116.8C100.449 116.3 100.049 115.38 101.039 115.46C102.029 115.54 103.099 114.87 103.739 116.17C104.509 117.72 105.339 119.24 106.159 120.76C106.458 121.407 106.965 121.936 107.599 122.262C108.234 122.588 108.958 122.693 109.659 122.56C110.179 122.49 110.659 122.33 110.519 121.66C110.389 121.07 110.939 120.29 109.999 120.14ZM106.239 110.79C106.222 111.294 106.023 111.774 105.679 112.141C105.336 112.509 104.87 112.74 104.369 112.79C103.296 112.909 102.218 112.972 101.139 112.98C100.549 112.98 100.409 112.67 100.409 112.17C100.409 111.41 100.409 110.66 100.409 109.9C100.409 109.79 100.409 109.68 100.409 109.57C100.529 108.63 99.9789 107.04 100.709 106.86C101.46 106.625 102.251 106.543 103.035 106.62C103.818 106.698 104.578 106.932 105.269 107.31C106.579 108.11 106.289 109.53 106.199 110.79H106.239Z" fill="#040404"/>
<path d="M41.0017 104.64C41.0917 105.5 40.0017 105.77 40.0017 106.64C39.1817 107.07 38.8917 107.94 38.3617 108.64C36.5517 108.92 34.6617 108.64 32.7417 109.31C32.4217 108.98 33.5617 108.43 32.8317 107.99C33.458 106.204 34.689 104.694 36.3117 103.72C38.0017 103.67 39.6417 103.61 41.0017 104.64Z" fill="#A7551D"/>
<path d="M17.5793 117.36C15.4793 117.36 13.3493 117.65 11.2693 117.02C10.3434 116.801 9.48937 116.347 8.789 115.702C8.08864 115.058 7.56539 114.245 7.26933 113.34C6.99933 112.48 7.48933 112.82 7.84933 113.1C9.09933 113.73 9.91933 114.94 11.3093 115.44C14.5993 116.6 17.6093 115.51 20.6593 114.55C22.0993 114.09 23.3493 113.16 24.8693 112.87C25.3493 112.99 25.7693 113.14 25.4293 113.77C22.9745 115.293 20.3369 116.499 17.5793 117.36Z" fill="#F6BF2A"/>
<path d="M25.4112 113.77C25.4184 113.684 25.4072 113.598 25.3785 113.517C25.3497 113.435 25.3041 113.361 25.2446 113.299C25.1851 113.236 25.113 113.187 25.0331 113.155C24.9532 113.122 24.8674 113.107 24.7812 113.11C24.7812 112.32 25.4712 112.21 25.9212 111.91C28.2601 110.465 30.4157 108.743 32.3412 106.78C33.2093 105.886 33.9989 104.919 34.7013 103.89C35.2222 103.392 35.661 102.815 36.0012 102.18C36.4814 101.502 36.8808 100.771 37.1912 100C37.3912 99.4502 37.6213 98.9002 38.2913 98.7402C38.3678 98.7549 38.4404 98.7856 38.5042 98.8305C38.568 98.8753 38.6215 98.9332 38.6612 99.0002C38.8375 99.4606 38.8375 99.9699 38.6612 100.43C37.7912 101.6 37.5513 103.23 36.1112 104.01L32.8912 108.01C30.6478 110.235 28.135 112.17 25.4112 113.77Z" fill="#F2AC4E"/>
<path d="M92.9402 113.44V111.32C92.9402 108.48 92.0302 105.99 89.3302 104.77C87.9912 104.091 86.4934 103.786 84.9953 103.888C83.4973 103.991 82.0547 104.496 80.8202 105.35C80.0766 105.876 79.4781 106.581 79.0802 107.4C77.6602 110.07 78.2302 112.92 78.2302 115.7C78.2302 118.7 79.5002 121.04 82.3902 122.04C85.2802 123.04 88.3902 122.97 90.9102 120.68C93.1002 118.7 93.0002 116 92.9402 113.44ZM89.5902 116.55C89.4445 117.539 88.9413 118.439 88.1761 119.081C87.4108 119.723 86.4366 120.062 85.438 120.034C84.4395 120.005 83.4861 119.612 82.7585 118.927C82.0309 118.243 81.5796 117.315 81.4902 116.32C81.4202 115.32 81.4902 114.26 81.4902 113.23C81.4902 112.23 81.4302 111.17 81.4902 110.15C81.4966 109.65 81.6026 109.157 81.802 108.699C82.0013 108.24 82.2901 107.826 82.6514 107.481C83.0127 107.135 83.4392 106.865 83.906 106.687C84.3729 106.508 84.8706 106.424 85.3702 106.44C85.8854 106.391 86.4052 106.447 86.8982 106.604C87.3913 106.761 87.8474 107.016 88.239 107.355C88.6306 107.693 88.9495 108.107 89.1766 108.572C89.4037 109.037 89.5342 109.543 89.5602 110.06C89.7901 112.217 89.8002 114.392 89.5902 116.55Z" fill="#040404"/>
<path d="M144.501 83.2303C144.161 80.2303 142.181 78.3402 139.131 77.7702C137.239 77.6004 135.34 77.5403 133.441 77.5902C132.511 77.5302 132.231 77.8302 132.251 78.7602C132.301 81.3702 132.251 83.9702 132.251 86.5802C132.251 89.1902 132.251 91.8902 132.251 94.5802C132.251 95.2803 132.331 95.7002 133.251 95.6502C135.255 95.7034 137.261 95.6064 139.251 95.3602C140.523 95.1054 141.692 94.4838 142.614 93.5721C143.536 92.6605 144.171 91.4987 144.441 90.2303C144.814 87.9133 144.834 85.5533 144.501 83.2303ZM142.501 89.7802C141.991 92.4902 140.281 93.9302 137.351 93.9702C133.351 94.0402 134.241 94.6602 134.151 90.9702C134.151 89.5102 134.151 88.0502 134.151 86.5902C134.151 84.4802 134.151 82.3702 134.151 80.2602C134.151 79.5402 134.281 79.1202 135.151 79.1802C136.021 79.2402 137.151 79.1802 138.071 79.2402C140.611 79.4702 142.221 80.8003 142.591 83.3003C142.929 85.4491 142.905 87.6392 142.521 89.7802H142.501Z" fill="#070707"/>
<path d="M127.171 86.5704C127.171 85.5704 127.251 84.5104 127.171 83.4904C126.831 79.7404 124.331 77.3804 120.701 77.3304C116.421 77.2704 113.761 79.3304 113.381 83.2704C113.131 85.645 113.151 88.0403 113.441 90.4104C113.618 91.8448 114.289 93.1728 115.338 94.1671C116.387 95.1613 117.749 95.76 119.191 95.8604C123.071 96.2104 125.601 94.8604 126.751 91.7204C127.209 90.0446 127.351 88.2982 127.171 86.5704ZM125.171 90.3504C125.034 91.5235 124.447 92.5973 123.532 93.3441C122.617 94.0909 121.447 94.4519 120.271 94.3504C117.551 94.3504 115.781 92.9104 115.411 90.3504C115.231 89.1204 115.251 87.8704 115.181 86.6304H115.281C115.281 85.8204 115.281 85.0104 115.281 84.2004C115.281 81.1204 117.041 79.1304 119.821 78.9704C122.911 78.8004 124.971 80.3504 125.271 83.4504C125.532 85.746 125.488 88.0662 125.141 90.3504H125.171Z" fill="#050505"/>
<path d="M22.8017 82.5C24.0217 82.33 25.2317 82.09 26.4617 82.01C29.9917 81.8 33.4617 82.14 36.4617 84.17C37.0389 84.8941 37.7118 85.5367 38.4617 86.08C39.7417 88.08 40.7017 90.21 40.3917 92.66C40.1835 93.8217 40.0798 94.9997 40.0817 96.18C39.9417 97.3 40.2417 98.69 38.4617 98.79C38.3125 98.6225 38.207 98.4207 38.1547 98.2027C38.1024 97.9846 38.1048 97.7569 38.1617 97.54C38.6016 96.2356 38.936 94.8979 39.1617 93.54C39.5317 87.9 36.7117 84.31 31.1617 83.54C28.7439 83.2686 26.2972 83.4209 23.9317 83.99C23.616 84.0626 23.2851 84.0274 22.9917 83.89C22.8617 83.66 22.9917 83.27 22.3817 83.48C21.3817 83.84 20.4517 84.71 19.2617 84.09C19.3317 83.09 20.2117 83.19 20.8517 82.98C21.4741 82.7236 22.1314 82.5618 22.8017 82.5Z" fill="#F7C621"/>
<path d="M38.4519 98.7897C39.8119 98.4297 39.2519 96.8797 40.0719 96.1797C40.7719 96.0697 41.1619 96.5597 41.5319 97.0097C42.6819 98.4097 43.5319 98.3097 44.3419 96.6397C44.3927 96.5181 44.4752 96.4122 44.5806 96.3331C44.6861 96.254 44.8108 96.2045 44.9419 96.1897C45.0319 97.5697 44.1119 98.5897 43.6619 99.7697C43.384 100.187 43.0188 100.54 42.5916 100.803C42.1644 101.066 41.6852 101.233 41.1871 101.293C40.689 101.353 40.1839 101.304 39.7065 101.15C39.2291 100.995 38.7908 100.74 38.4219 100.4L38.4519 98.7897Z" fill="#D69B15"/>
<path d="M77.2405 94.3102C75.5005 89.1402 73.7205 84.0002 72.0605 78.7902C71.7405 77.7902 71.3005 77.4502 70.3205 77.6302C69.3805 77.4302 68.9105 77.7802 68.6005 78.7702C66.9705 83.9402 65.2405 89.0702 63.6005 94.2302C63.4605 94.6502 62.8405 95.3002 63.7205 95.5602C64.6005 95.8202 65.2005 95.7002 65.4305 94.6402C65.6605 93.5802 66.1505 92.4802 66.4305 91.3802C66.444 91.1685 66.5021 90.9621 66.6012 90.7746C66.7003 90.587 66.838 90.4226 67.0052 90.2922C67.1725 90.1618 67.3655 90.0683 67.5716 90.018C67.7776 89.9676 67.992 89.9616 68.2005 90.0002C69.4975 90.1252 70.8035 90.1252 72.1005 90.0002C72.3684 89.9299 72.6487 89.9203 72.9207 89.9721C73.1928 90.024 73.4499 90.1359 73.6732 90.2998C73.8965 90.4636 74.0803 90.6753 74.2114 90.9193C74.3424 91.1633 74.4173 91.4335 74.4305 91.7102C74.6605 92.7102 75.1605 93.7102 75.4305 94.8002C75.7005 95.8902 76.5305 95.6602 77.1105 95.5302C78.0005 95.3802 77.3905 94.7702 77.2405 94.3102ZM72.4205 88.4302C71.0605 88.4302 69.7105 88.4302 68.3505 88.4302C67.5705 88.4302 67.4105 88.1602 67.6305 87.4302C68.4805 84.8102 69.3005 82.1802 70.1405 79.5502H70.4805C71.3405 82.2002 72.1905 84.8602 73.0705 87.5502C73.3005 88.2702 73.0705 88.4502 72.4205 88.4302Z" fill="#060606"/>
<path d="M6.46939 107.36C5.87939 106.65 6.06939 105.55 5.25939 104.95C5.22805 104.828 5.23977 104.699 5.29258 104.584C5.34539 104.469 5.43607 104.376 5.54939 104.32C5.7974 104.362 6.02725 104.477 6.20939 104.65C7.79939 106.99 10.1294 106.59 12.4194 106.31C15.117 105.845 17.7559 105.087 20.2894 104.05C20.6405 103.838 21.0506 103.743 21.4594 103.78C22.5994 104.67 22.9894 106.1 23.8794 107.17C23.8651 107.282 23.8252 107.389 23.7627 107.483C23.7003 107.576 23.617 107.654 23.5194 107.71C23.1277 107.684 22.7368 107.773 22.3954 107.967C22.0539 108.16 21.7771 108.45 21.5994 108.8C20.9263 109.263 20.2135 109.664 19.4694 110C16.4694 111 13.4694 111.86 10.2494 110.92C8.43939 110.35 6.80939 109.52 6.46939 107.36Z" fill="#92241A"/>
<path d="M12.3594 101.06C13.7494 100.5 15.3594 100.74 16.6594 99.7801C17.0394 98.9001 17.8494 99.0701 18.5594 98.9901C21.2294 98.8301 23.9094 98.7501 26.3594 97.4401C26.9894 97.1001 27.7494 96.8801 28.3094 97.4401C28.8694 98.0001 28.4594 98.6401 28.0494 99.1701C27.1794 99.5901 26.5194 100.46 25.4194 100.41C25.0494 99.9101 24.5794 100.04 24.1094 100.23C22.4386 100.783 20.7311 101.217 18.9994 101.53C17.5394 101.86 16.0594 101.79 14.6294 102.18C13.6294 102.43 13.6994 102.34 13.3294 101.18C13.1894 100.84 12.6794 101.18 12.3594 101.06Z" fill="#B85319"/>
<path d="M5.87076 104.66L5.55076 104.32C5.33076 103.62 4.65076 103.1 4.71076 102.32C4.83076 102.32 4.99076 102.2 5.01076 102.23C7.94076 105.7 11.7208 105.72 15.7008 104.84C16.8608 104.59 18.0208 104.28 19.1708 104C19.6908 103.86 20.1708 103.73 20.5108 104.38C17.9503 105.611 15.1964 106.389 12.3708 106.68C11.2052 106.852 10.0159 106.76 8.89076 106.411C7.76565 106.061 6.73354 105.463 5.87076 104.66Z" fill="#F2BB23"/>
<path d="M20.5119 104.34L19.1719 104C21.3929 103.094 23.4924 101.915 25.4219 100.49C26.2219 100.12 26.7419 99.2797 27.6919 99.1797C27.7407 99.2346 27.7745 99.3012 27.7903 99.373C27.8061 99.4447 27.8032 99.5193 27.7819 99.5897C27.2519 100.53 26.2019 100.92 25.5219 101.69C24.1919 102.53 23.0319 103.69 21.4219 104L20.5119 104.34Z" fill="#F1A25C"/>
<path d="M18.5402 99.4198C17.8916 99.3465 17.2359 99.472 16.6602 99.7798C15.7402 99.7798 15.9802 98.5598 15.0002 98.4298C13.2602 98.2098 12.8102 97.0998 13.6702 95.5298C14.0002 94.8098 14.9402 94.5298 15.0102 93.5998C15.1602 92.8498 15.8502 92.4398 16.1602 91.7898C16.8865 91.0472 17.6836 90.3773 18.5402 89.7898C19.4255 89.1297 20.421 88.632 21.4802 88.3198C21.9218 88.174 22.3854 88.1064 22.8502 88.1198C23.6202 88.2598 23.6302 88.6598 23.1902 89.1898C22.9308 89.4807 22.6229 89.7243 22.2802 89.9098C21.8902 90.1298 21.5302 90.3798 21.1402 90.6098C19.6892 91.4107 18.3452 92.3918 17.1402 93.5298C16.5426 94.0407 15.9875 94.5992 15.4802 95.1998C15.4302 95.3898 15.4802 95.3798 15.6402 95.4398C17.8502 96.6798 17.8402 96.6798 19.9202 94.6298C20.4125 94.0987 20.9782 93.6407 21.6002 93.2698C23.3212 92.4453 25.1339 91.8277 27.0002 91.4298C28.0125 91.1757 29.0833 91.3113 30.0002 91.8098C30.4502 92.8098 29.7202 92.8098 29.0702 92.9298C26.9373 93.1742 24.8866 93.8953 23.0702 95.0398C22.7602 95.2498 22.4302 95.4298 22.0702 95.6198C21.5102 95.9698 20.9702 96.2498 21.6102 97.0598C21.9402 97.4798 21.6102 97.9698 21.2202 98.3098C20.4094 98.854 19.4984 99.2313 18.5402 99.4198Z" fill="#FAD634"/>
<path d="M22.7998 82.5C22.1925 82.8323 21.5331 83.0589 20.8498 83.17C20.3614 83.1877 19.8847 83.3245 19.4612 83.5685C19.0376 83.8125 18.6802 84.1563 18.4198 84.57C16.9998 86.3 14.9998 87.4 13.2998 88.86C12.2364 88.9875 11.1922 89.2427 10.1898 89.62C8.73981 90.15 8.58981 90.01 8.78981 88.38C9.23981 88.09 9.02981 87.54 9.25981 87.16C10.0398 87.86 10.4298 86.92 10.5498 86.64C11.6498 84.08 13.9598 84.04 16.1898 83.81C16.3498 83.81 16.5898 83.87 16.6598 83.81C18.3598 81.95 20.8598 83.15 22.7898 82.21C22.7898 82.28 22.7998 82.39 22.7998 82.5Z" fill="#CE421B"/>
<path d="M13.3 88.6699C14.63 86.8999 16.67 85.9499 18.23 84.4599C18.53 84.2399 18.79 83.8899 19.23 84.1599C20.45 84.1599 21.42 83.2799 22.6 83.1599C23.78 83.0399 22.95 83.5099 22.78 83.7799C22.26 84.7799 21.08 84.7799 20.3 85.3299C17.5129 86.547 15.0377 88.3795 13.06 90.6899C12.76 90.9899 12.55 91.3699 12.26 91.6899C12.1124 91.845 11.9133 91.941 11.7 91.9599L11.36 91.6299C11.36 91.5199 11.36 91.4099 11.36 91.2899C11.33 89.9099 12.44 89.3799 13.3 88.6699Z" fill="#FBCF5B"/>
<path d="M11.7 91.9996L11.99 91.5996C12.3211 91.8337 12.7003 91.991 13.0999 92.0602C13.4994 92.1294 13.9094 92.1087 14.3 91.9996C14.6246 91.8635 14.973 91.7934 15.325 91.7934C15.677 91.7934 16.0254 91.8635 16.35 91.9996C16.0928 92.6696 15.6172 93.2333 15 93.5996C14.07 94.4096 12.85 94.2996 11.77 94.5996C11.07 94.7996 11.17 94.2196 11.08 93.8396C11.0501 93.5067 11.0897 93.1712 11.1965 92.8544C11.3032 92.5376 11.4747 92.2465 11.7 91.9996Z" fill="#E6770D"/>
<path d="M32.5902 107C30.4302 109.62 27.5902 111.32 24.7802 113.15C21.2602 114.93 17.6902 116.58 13.6002 116.36C12.4382 116.389 11.2897 116.106 10.2747 115.539C9.25969 114.973 8.41544 114.144 7.83016 113.14C7.85488 112.682 7.70476 112.232 7.41016 111.88C8.58622 112.44 9.86186 112.762 11.1631 112.825C12.4642 112.889 13.7651 112.693 14.9902 112.25C16.5302 111.15 18.4902 111.01 20.0802 110.02C22.0251 109.199 23.8703 108.159 25.5802 106.92C26.0494 106.462 26.645 106.156 27.2902 106.04C28.8202 106.21 30.4102 105.66 31.9102 106.41C32.2002 106.52 32.7202 106.34 32.5902 107Z" fill="#90271A"/>
<path d="M20.2694 110.29C18.6364 111.229 16.8535 111.879 14.9994 112.21C13.9994 111.51 12.8094 111.96 11.7194 111.84C9.66937 111.62 7.79937 111.1 6.60937 109.22C6.23937 108.63 5.81937 108.03 6.47937 107.36C8.33937 110.84 11.5294 111.06 14.8794 110.68C16.4696 110.406 18.0423 110.039 19.5894 109.58C19.8994 109.72 20.4394 109.67 20.2694 110.29Z" fill="#EFB42C"/>
<path d="M13.2981 88.6701L11.3781 91.2901C10.7402 91.255 10.1072 91.1579 9.48811 91.0001C8.26811 90.5301 8.48811 89.4401 8.48811 88.4501C8.48811 88.4501 8.56811 88.3701 8.60811 88.3701C8.64811 88.3701 8.69811 88.3701 8.74811 88.4301C8.79811 89.2601 8.55811 90.1401 10.0181 89.2701C10.8981 88.7301 12.0981 88.0701 13.2981 88.6701Z" fill="#DA6B0C"/>
<path d="M38.4189 100.4C40.2489 100.86 42.0789 101.34 43.6589 99.7695C43.2889 101.67 41.9589 103.04 41.0389 104.64L36.1289 104C36.9989 102.85 37.3789 101.41 38.4189 100.4Z" fill="#BD821B"/>
<path d="M196.509 78.0004C194.359 77.1604 193.299 78.2204 193.619 80.9004C195.049 82.7904 196.619 82.7804 197.769 80.9004C197.769 79.7004 198.349 78.3104 196.509 78.0004ZM196.139 81.4904C196.043 81.5677 195.932 81.6226 195.812 81.6511C195.693 81.6797 195.569 81.681 195.449 81.6551C195.329 81.6292 195.216 81.5767 195.119 81.5014C195.022 81.4262 194.944 81.3301 194.889 81.2204C195.589 81.5604 194.989 79.8404 195.889 80.5604C195.889 80.8704 196.629 81.1604 196.139 81.4504V81.4904ZM196.489 79.8604C196.759 79.2104 196.649 78.7504 195.829 78.6604C195.009 78.5704 194.829 78.9404 194.909 79.6604C194.909 80.1004 194.909 80.5504 194.909 80.9904C194.619 80.8404 194.389 80.5804 194.049 80.5404C194.519 79.4104 195.049 78.3004 196.559 78.4104L196.619 78.3304C196.826 79.056 197.104 79.7594 197.449 80.4304C197.117 80.2454 196.797 80.0418 196.489 79.8204V79.8604Z" fill="#1E1E1E"/>
<path d="M38.4614 97.4903V98.8103C37.2114 99.7003 37.3914 101.49 36.1914 102.42C35.8422 102.104 35.4329 101.862 34.9879 101.707C34.543 101.552 34.0714 101.489 33.6014 101.52C33.472 101.543 33.3394 101.541 33.2111 101.512C33.0828 101.484 32.9613 101.431 32.8535 101.356C32.7458 101.28 32.654 101.185 32.5833 101.074C32.5125 100.963 32.4643 100.84 32.4414 100.71C32.5168 99.952 32.7778 99.2239 33.2014 98.5903C34.7214 96.4703 35.8514 96.2303 38.4614 97.4903Z" fill="#C07F1B"/>
<path d="M32.5912 107C30.9012 106.18 29.0013 106.86 27.2812 106.27C27.4987 105.587 27.8892 104.972 28.415 104.485C28.9407 103.998 29.5837 103.655 30.2812 103.49C31.1202 103.595 31.9661 103.635 32.8113 103.61C33.4913 103.61 33.6312 104.09 33.6212 104.61C33.8012 104.04 34.1112 103.68 34.7812 103.94C34.7812 103.94 34.8613 104 34.9013 104.04C34.3234 105.163 33.5398 106.167 32.5912 107Z" fill="#9F471A"/>
<path d="M34.9405 104C33.3005 104.67 31.7905 103.86 30.2305 103.6C30.2973 102.944 30.5516 102.321 30.963 101.805C31.3743 101.289 31.9254 100.902 32.5505 100.69C32.9305 101.2 33.4405 101.08 33.9705 101.06C34.9705 101.06 35.9705 101.06 36.1805 102.38C35.7305 102.93 35.7505 103.8 34.9405 104Z" fill="#AF6721"/>
<path d="M38.4594 97.4902C37.9783 97.5558 37.4905 97.5558 37.0094 97.4902C35.5594 97.0102 34.3594 97.0102 33.7094 98.6802C33.7094 98.7702 33.4194 98.7802 33.2694 98.8302L33.0894 98.6802C32.5155 97.9493 31.7493 97.3927 30.8767 97.073C30.0041 96.7533 29.0597 96.6831 28.1494 96.8702C27.1513 97.1115 26.1666 97.4052 25.1994 97.7502C24.8242 97.9092 24.419 97.9852 24.0117 97.9731C23.6044 97.961 23.2045 97.8611 22.8394 97.6802C22.4594 96.7602 23.0194 95.8202 22.7794 94.9002C24.5731 93.4104 26.8377 92.6059 29.1694 92.6302C29.6094 92.6302 29.9294 92.5602 29.9194 92.0402C29.4794 90.9102 28.4794 91.3802 27.7494 91.3902C26.6794 91.3902 25.6894 91.4802 25.1094 90.3302C24.8994 89.8902 24.4794 90.0402 24.1094 90.0602C23.4294 90.0602 22.7094 90.2902 22.1094 89.6902L22.7994 89.0002C24.0334 88.1861 25.4375 87.6655 26.904 87.4783C28.3705 87.2911 29.8604 87.4423 31.2594 87.9202C33.4694 88.6902 35.1794 89.9202 35.2594 92.5702C35.2594 92.9602 35.5394 92.7002 35.7094 92.6602C36.3495 92.4506 37.0356 92.4247 37.6896 92.5856C38.3437 92.7465 38.9395 93.0876 39.4094 93.5702C39.465 94.94 39.1359 96.2979 38.4594 97.4902Z" fill="#DDA50F"/>
<path d="M39.4291 93.5804C38.1892 93.092 36.8603 92.8706 35.5291 92.9304C35.3591 90.7504 33.9691 89.3104 32.4791 87.9304C32.2391 87.0304 31.3991 86.9304 30.7191 86.7404C28.3519 85.9049 26.0376 84.9265 23.7891 83.8104C28.3191 82.0804 35.5891 83.1104 37.7291 86.5604C38.9991 88.6504 40.2791 90.9004 39.4291 93.5804Z" fill="#E0AD05"/>
<path d="M23.7884 83.8102C24.2853 83.7401 24.7912 83.7732 25.2747 83.9074C25.7582 84.0416 26.2088 84.274 26.5984 84.5902C28.5184 85.7302 30.7084 86.0702 32.6584 87.0402C33.4084 87.4102 33.1784 87.5702 32.5784 87.7302C32.4612 87.7971 32.3317 87.8395 32.1976 87.855C32.0636 87.8705 31.9278 87.8586 31.7984 87.8202C29.3755 87.113 26.7976 87.1374 24.3884 87.8902C23.9312 88.0449 23.4357 88.0449 22.9784 87.8902C22.3784 86.7102 23.8684 87.0002 24.0884 86.2602C22.6866 86.2703 21.314 85.8592 20.1484 85.0802C20.8884 84.3702 21.9384 84.3002 22.7784 83.7802L23.7884 83.8102Z" fill="#CC7014"/>
<path d="M19.2305 84.1597L18.2305 84.4597C18.6305 83.0497 19.7305 83.0997 20.8505 83.1697C20.4005 83.6397 19.5705 83.5097 19.2305 84.1597Z" fill="#B5471F"/>
<path d="M21.4219 104L25.4219 101.43C25.4972 102.212 25.6928 102.977 26.0019 103.7C26.1619 104.12 26.0019 104.7 26.7919 104.34C27.2519 104.15 27.5519 104.54 27.4919 105.08C26.8468 105.812 26.1031 106.452 25.2819 106.98C24.8619 107.27 24.4119 107.71 23.8219 107.24C22.3519 106.61 22.3319 105 21.4219 104Z" fill="#9C371A"/>
<path d="M23.7708 107.24C25.3108 107 26.0308 105.52 27.3208 104.91C28.2508 103.64 29.6608 102.83 30.4808 101.47C31.094 100.876 31.6254 100.204 32.0608 99.4699C32.3208 99.0499 32.5008 98.3999 33.2408 98.7699C33.1809 99.4682 32.9358 100.138 32.5308 100.71L30.2008 103.62C29.1202 104.366 28.1302 105.235 27.2508 106.21C25.4508 107.34 23.6608 108.48 21.8608 109.6C21.3849 109.954 20.8281 110.185 20.2408 110.27L19.5508 109.56C20.0608 108.97 20.8608 108.93 21.4708 108.56C22.0193 108.091 22.6647 107.75 23.3608 107.56L23.7708 107.24Z" fill="#F3AD4B"/>
<path d="M5.87109 104.66C7.87787 105.765 10.0903 106.446 12.3711 106.66C11.2221 107.119 9.95079 107.17 8.76838 106.806C7.58597 106.443 6.56361 105.685 5.87109 104.66Z" fill="#A93E1B"/>
<path d="M23.39 107.58C22.8853 108.11 22.2218 108.461 21.5 108.58C21.75 107.5 22.31 107 23.39 107.58Z" fill="#9C371A"/>
<path d="M33.2408 98.7603C32.0908 99.5003 31.9508 101.09 30.7008 101.76C28.9708 101.92 28.5108 100.42 27.7008 99.4303V99.1603C28.0308 98.6803 28.5008 98.1603 27.9908 97.6403C27.4808 97.1203 26.9908 97.5703 26.5008 97.8703C24.0508 99.3603 21.2808 99.3203 18.5508 99.4503C19.3503 98.8697 20.2431 98.43 21.1908 98.1503C21.6908 97.8503 22.1208 97.3403 22.8208 97.5103C24.4708 97.8403 25.9608 97.0803 27.4208 96.6003C28.034 96.3402 28.6993 96.2265 29.3641 96.2682C30.0289 96.3098 30.6748 96.5057 31.2508 96.8403C31.5141 97.025 31.8207 97.1387 32.1408 97.1703C33.4008 97.1003 33.5308 97.7703 33.2408 98.7603Z" fill="#CA7A18"/>
<path d="M27.6588 99.4102C28.9688 99.8002 29.2688 101.5 30.6588 101.74C29.8281 103.074 28.6628 104.167 27.2788 104.91C26.5588 103.83 26.3388 105.31 25.6288 105.13C26.0588 103.89 24.6288 102.76 25.3688 101.39C25.9988 100.54 26.9988 100.12 27.6588 99.4102Z" fill="#AF501D"/>
<path d="M20.1505 85.0902C21.6105 85.0202 22.8605 86.0902 24.3605 85.8202C24.5005 85.8202 24.7905 86.0002 24.8505 86.1602C24.9105 86.3202 24.7005 86.6502 24.4805 86.8102C23.9605 87.1902 23.1905 87.1002 22.8005 87.7202C22.7205 88.5502 21.8005 88.1702 21.4505 88.7202C20.3505 88.8402 19.6105 89.7202 18.6005 90.0502C18.3539 90.217 18.0631 90.3062 17.7655 90.3062C17.4678 90.3062 17.177 90.217 16.9305 90.0502C16.4975 89.7843 15.9795 89.6931 15.4817 89.7953C14.9839 89.8974 14.5437 90.1852 14.2505 90.6002C13.5105 91.3502 13.4605 91.3002 12.7305 90.7502C14.5895 88.1711 17.1717 86.2014 20.1505 85.0902Z" fill="#B6441C"/>
<path d="M21.5184 93.6199L20.1484 94.8499C17.9584 95.7599 16.7284 95.1499 16.8984 93.2299C18.2084 92.1099 19.3784 90.7899 21.1284 90.2899C21.2608 90.1961 21.4165 90.1407 21.5784 90.1299C22.5184 90.2899 23.7484 90.3499 24.0484 91.3099C24.3484 92.2699 23.0484 92.4699 22.3984 92.9199C22.073 93.1098 21.7767 93.3456 21.5184 93.6199Z" fill="#E06514"/>
<path d="M21.4492 88.6798C21.6892 88.0598 22.4492 88.1498 22.7992 87.6798C24.1792 87.4398 25.5692 87.2798 26.9192 86.9498C28.8362 86.5758 30.8228 86.8355 32.5792 87.6898C34.3492 88.9798 35.9992 90.3298 35.5792 92.8898C35.4692 93.2598 35.7692 93.7598 35.2192 94.0098C34.7692 93.7598 34.9392 93.3398 34.9192 93.0098C34.9095 91.9444 34.5529 90.9112 33.9033 90.0667C33.2537 89.2222 32.3465 88.6124 31.3192 88.3298C28.9447 87.5937 26.386 87.7248 24.0992 88.6998C23.6728 88.8277 23.2386 88.9279 22.7992 88.9998C22.6892 88.7898 23.7192 88.5198 22.7992 88.3998C22.3368 88.4174 21.8805 88.512 21.4492 88.6798Z" fill="#FAC717"/>
<path d="M21.5202 93.6203C21.7102 92.6203 22.7002 92.5403 23.3402 92.0503C23.5502 91.8903 23.9202 91.7003 23.8202 91.3203C23.7688 91.1946 23.6736 91.0919 23.5522 91.0312C23.4308 90.9705 23.2915 90.956 23.1602 90.9903C22.3402 91.1303 21.9302 90.1403 21.1602 90.2903C21.252 90.102 21.3939 89.9427 21.5703 89.8298C21.7467 89.7169 21.9508 89.6548 22.1602 89.6503C23.1602 89.6503 24.2802 89.8803 25.3302 89.0303C25.3302 90.8003 26.3302 91.1203 27.7002 91.0303C28.4463 90.9903 29.194 90.9903 29.9402 91.0303C30.0339 91.0193 30.1288 91.0295 30.2181 91.0602C30.3073 91.0908 30.3885 91.1411 30.4557 91.2073C30.5229 91.2736 30.5744 91.354 30.6063 91.4428C30.6382 91.5316 30.6498 91.6264 30.6402 91.7203C30.6402 92.3003 30.2202 92.0303 29.9502 92.0303C26.8602 91.2203 24.2502 92.7203 21.5202 93.6203Z" fill="#E1870F"/>
<path d="M12.7289 90.7099C12.9889 90.9899 13.3389 91.0699 13.5489 90.7599C14.6389 89.1399 15.9589 88.7599 17.6589 89.8499C17.9591 89.963 18.2782 90.0174 18.5989 90.0099C18.0389 90.8899 17.0489 91.2799 16.3489 92.0099C15.2989 92.2199 14.2589 92.4399 13.2089 92.6199C12.4189 92.7599 11.9689 92.4399 11.9889 91.6199L12.7289 90.7099Z" fill="#D74716"/>
<path d="M16.9012 93.2305C17.1912 95.3605 18.8112 94.8405 20.1512 94.8505C19.5195 95.507 18.8518 96.1279 18.1512 96.7105C17.3912 97.2905 16.6913 96.8605 16.2013 96.2505C15.7113 95.6405 15.4112 95.3705 14.5312 96.4905C14.9086 95.1566 15.7488 94.0008 16.9012 93.2305Z" fill="#EBA009"/>
<path d="M22.8111 97.4903C22.3417 97.8579 21.7752 98.0804 21.1811 98.1303C21.8611 97.1303 21.1811 96.8404 20.1211 96.6504C20.8669 95.8672 21.7747 95.2563 22.7811 94.8604C24.0011 95.7304 23.0711 96.6103 22.8111 97.4903Z" fill="#E2B521"/>
</svg>
