<svg width="200" height="200" viewBox="0 0 200 200" fill="none" xmlns="http://www.w3.org/2000/svg">
<path d="M147.79 109.68C148.456 115.886 149.123 122.103 149.79 128.33C150.79 137.66 150.99 146.89 146.53 155.58C144.539 159.277 141.996 162.649 138.99 165.58C137.51 167.97 134.99 169.07 132.73 170.43C131.57 171.13 130.53 172.27 128.96 172.11C123.82 174.223 118.45 175.727 112.96 176.59C99.0695 178.59 85.4495 178.18 72.5195 171.89C72.3964 171.85 72.2687 171.827 72.1395 171.82C68.3435 170.58 64.9652 168.313 62.3795 165.27C58.9264 162.071 55.9854 158.361 53.6595 154.27C49.7795 147.2 49.2695 139.62 49.7695 131.76C50.2695 123.9 52.2095 116.52 52.9795 108.84C52.7771 108.552 52.6362 108.227 52.5656 107.882C52.4951 107.538 52.4964 107.183 52.5695 106.84C53.1295 102.84 52.7895 98.8396 52.8695 94.8396C52.7945 93.808 52.9874 92.7746 53.4295 91.8396C53.4295 81.7396 53.4995 71.6496 53.4295 61.5596C53.3978 57.8108 53.8482 54.0735 54.7695 50.4396C55.1395 49.0196 54.7695 48.5596 53.4995 48.0496C47.1395 45.4896 44.4995 40.5296 46.1095 34.1496C47.2495 29.5096 51.1095 26.6096 56.5895 26.2196C58.1351 26.0639 59.6962 26.218 61.1815 26.6731C62.6668 27.1281 64.0464 27.8748 65.2395 28.8696C66.2395 29.6596 66.7895 29.5496 67.6695 28.7796C74.7495 22.6196 83.1495 19.6696 92.3595 18.7796C102.07 17.7773 111.883 18.712 121.23 21.5296C125.489 22.7643 129.48 24.7821 133 27.4796C133.451 27.9524 134.062 28.2407 134.715 28.2888C135.367 28.3368 136.013 28.1411 136.53 27.7396C138.705 26.5925 141.159 26.0781 143.613 26.2549C146.066 26.4316 148.421 27.2924 150.41 28.7396C156.5 33.7396 155.35 43.5296 148.12 47.2496C146.42 48.1196 145.72 48.8196 146.03 50.9196C146.89 56.8196 146.46 62.7796 146.25 68.7296C145.99 76.0296 146.05 83.3496 146.25 90.6596C146.297 91.0424 146.377 91.4205 146.49 91.7896C146.935 92.4264 147.157 93.1932 147.12 93.9696C147.12 98.5396 147.71 103.07 148.12 107.61C148.211 107.959 148.228 108.323 148.171 108.679C148.115 109.035 147.985 109.376 147.79 109.68Z" fill="#4DCFE0"/>
<path d="M62.4406 165.28C65.501 167.738 68.7662 169.93 72.2006 171.83C69.4906 174.58 66.8506 177.41 64.0506 180.06C62.9701 181.055 61.5392 181.581 60.0716 181.523C58.6039 181.465 57.2191 180.828 56.2206 179.75C55.1597 178.697 54.5524 177.271 54.5281 175.777C54.5038 174.282 55.0645 172.837 56.0906 171.75C58.1706 169.56 60.3206 167.43 62.4406 165.28Z" fill="#FECB80"/>
<path d="M129 172.12C132.525 170.252 135.872 168.066 139 165.59C140.8 167.43 142.61 169.26 144.4 171.11C147.05 173.85 147.17 177.25 144.73 179.71C142.29 182.17 138.84 182.08 136.15 179.42C133.73 177 131.36 174.55 129 172.12Z" fill="#FECB80"/>
<path d="M53.4899 91.8896C53.5499 97.5496 53.7999 103.22 53.0399 108.89C51.3199 110.5 49.4999 112.01 46.9399 111.57C45.8454 111.442 44.8128 110.995 43.9714 110.283C43.1301 109.572 42.5173 108.628 42.2099 107.57C41.8536 106.592 41.7868 105.533 42.0173 104.518C42.2479 103.504 42.7661 102.577 43.5099 101.85C46.7699 98.4296 50.1499 95.1796 53.4899 91.8896Z" fill="#FECB80"/>
<path d="M147.79 109.68C146.95 103.767 146.512 97.8029 146.48 91.8301C149.82 95.1301 153.23 98.3601 156.48 101.76C157.452 102.799 158.008 104.158 158.045 105.58C158.081 107.002 157.595 108.387 156.678 109.474C155.761 110.562 154.477 111.274 153.069 111.478C151.662 111.682 150.228 111.362 149.04 110.58C148.61 110.31 148.21 110 147.79 109.68Z" fill="#FECB80"/>
<path d="M80.6498 30.13C83.7213 30.1182 86.7273 31.0174 89.2878 32.714C91.8482 34.4106 93.8481 36.8283 95.0345 39.6615C96.2208 42.4946 96.5404 45.616 95.9528 48.6308C95.3652 51.6456 93.8969 54.4185 91.7334 56.5987C89.5699 58.779 86.8084 60.2688 83.7983 60.8797C80.7881 61.4905 77.6644 61.1951 74.8221 60.0306C71.9799 58.8662 69.5467 56.8851 67.8304 54.3378C66.1141 51.7905 65.1917 48.7915 65.1798 45.72C65.1665 41.602 66.7883 37.6471 69.6889 34.7239C72.5895 31.8008 76.5318 30.1485 80.6498 30.13Z" fill="#F4F4F4"/>
<path d="M119.422 30.1299C122.493 30.124 125.498 31.029 128.055 32.7305C130.612 34.4321 132.607 36.8537 133.788 39.6891C134.969 42.5246 135.283 45.6465 134.689 48.6602C134.096 51.6739 132.622 54.4439 130.454 56.62C128.287 58.7961 125.522 60.2806 122.511 60.8856C119.5 61.4906 116.377 61.1891 113.537 60.0192C110.697 58.8493 108.267 56.8634 106.556 54.3128C104.844 51.7622 103.928 48.7614 103.922 45.6899C103.919 41.5727 105.549 37.6225 108.455 34.7056C111.361 31.7887 115.305 30.1431 119.422 30.1299Z" fill="#F4F4F4"/>
<path d="M107.791 61.8195C109.325 62.1828 110.755 62.8951 111.969 63.9011C113.183 64.907 114.149 66.1795 114.791 67.6195C117.051 72.8495 114.321 76.8895 108.711 76.6795H107.711C107.017 76.8182 106.298 76.7522 105.641 76.4895C101.874 75.3596 97.8577 75.3596 94.0906 76.4895C93.4913 76.7337 92.831 76.7861 92.2006 76.6395H91.0506C85.8606 76.8095 83.2006 73.2595 84.8806 68.2895C86.0806 64.7695 88.7406 62.7895 92.2006 61.7695C94.3225 63.4092 96.8929 64.3648 99.5706 64.5095C102.537 64.5773 105.438 63.6281 107.791 61.8195Z" fill="#FECB80"/>
<path d="M92.2805 76.6502C94.7256 75.5793 97.3661 75.0264 100.035 75.0264C102.705 75.0264 105.345 75.5793 107.79 76.6502V83.0502C107.79 86.0502 107.11 87.3902 105.16 88.1102C103.21 88.8302 101.89 88.1102 99.9905 85.7402C99.621 86.3257 99.1884 86.869 98.7005 87.3602C98.1765 87.8577 97.5164 88.1881 96.804 88.3092C96.0917 88.4303 95.3594 88.3366 94.7005 88.0402C93.9689 87.7631 93.3422 87.2642 92.9083 86.6133C92.4743 85.9624 92.2548 85.1921 92.2805 84.4102C92.2605 81.8202 92.2905 79.2402 92.2805 76.6502Z" fill="#EDEDED"/>
<path d="M107.791 61.8198C105.281 65.1898 101.671 65.2598 98.0208 64.8998C95.7608 64.6698 93.5908 63.9798 92.2808 61.8198C92.2205 61.106 92.403 60.3928 92.7987 59.7957C93.1943 59.1986 93.78 58.7525 94.4608 58.5298C96.2027 57.6957 98.1095 57.2627 100.041 57.2627C101.972 57.2627 103.879 57.6957 105.621 58.5298C106.299 58.7559 106.881 59.203 107.275 59.7996C107.668 60.3962 107.85 61.1076 107.791 61.8198Z" fill="#424242"/>
<path d="M57.651 33.9997C58.2563 34.0227 58.8466 34.1945 59.3698 34.4997C59.893 34.8049 60.333 35.2342 60.651 35.7497C61.321 36.8097 60.221 37.3597 59.881 38.1097C59.541 38.8597 59.211 39.3497 58.881 39.9797C57.751 42.0797 56.161 42.2797 54.601 40.4497C54.0806 39.9142 53.738 39.2313 53.6199 38.494C53.5018 37.7567 53.6139 37.0009 53.941 36.3297C54.2594 35.6177 54.7819 35.0163 55.4423 34.6015C56.1028 34.1867 56.8715 33.9773 57.651 33.9997Z" fill="#424243"/>
<path d="M146.51 37.8903C146.521 38.7314 146.242 39.5507 145.72 40.2103C144.61 41.7503 143.96 41.6503 143.11 39.9503C142.464 38.5535 141.732 37.1976 140.92 35.8903C140.2 34.8103 140.67 34.4503 141.62 34.1503C142.194 34.0016 142.795 33.9854 143.376 34.1031C143.957 34.2208 144.504 34.4693 144.976 34.8296C145.447 35.19 145.83 35.6528 146.096 36.1831C146.361 36.7133 146.503 37.2971 146.51 37.8903Z" fill="#424343"/>
<path d="M72.839 49.5196C72.0772 49.5059 71.3364 49.2675 70.7094 48.8344C70.0825 48.4013 69.5974 47.7928 69.3149 47.0851C69.0324 46.3774 68.9651 45.6021 69.1214 44.8563C69.2777 44.1105 69.6507 43.4275 70.1936 42.8929C70.7366 42.3582 71.4252 41.9957 72.1733 41.8509C72.9214 41.706 73.6956 41.7852 74.3988 42.0785C75.1021 42.3718 75.7031 42.8663 76.1265 43.4998C76.55 44.1333 76.777 44.8777 76.779 45.6396C76.7778 46.1539 76.6745 46.6628 76.4753 47.1368C76.2761 47.6109 75.9849 48.0408 75.6185 48.4016C75.2521 48.7625 74.8178 49.047 74.3407 49.2389C73.8636 49.4308 73.3532 49.5263 72.839 49.5196Z" fill="#434343"/>
<path d="M115.52 45.7295C115.501 46.4964 115.254 47.2402 114.811 47.8662C114.368 48.4922 113.748 48.9719 113.031 49.2441C112.314 49.5163 111.532 49.5687 110.785 49.3946C110.038 49.2205 109.359 48.8278 108.837 48.2666C108.314 47.7054 107.97 47.0011 107.849 46.2436C107.728 45.4862 107.836 44.7099 108.158 44.0138C108.48 43.3177 109.002 42.7334 109.658 42.3355C110.314 41.9375 111.073 41.744 111.84 41.7795C112.843 41.8386 113.785 42.2819 114.471 43.0175C115.156 43.7531 115.532 44.7243 115.52 45.7295Z" fill="#434343"/>
</svg>
