<svg width="200" height="200" viewBox="0 0 200 200" fill="none" xmlns="http://www.w3.org/2000/svg">
<path d="M160.621 12.1101C161.241 12.7101 162.101 12.5601 162.841 12.7401C167.554 13.8894 171.749 16.5795 174.76 20.3837C177.771 24.188 179.425 28.8887 179.461 33.7401C179.461 77.9134 179.461 122.09 179.461 166.27C179.411 171.766 177.29 177.04 173.521 181.041C169.752 185.041 164.614 187.473 159.131 187.85C153.707 188.087 148.383 186.332 144.162 182.918C139.941 179.503 137.113 174.664 136.211 169.31C135.994 167.897 135.887 166.47 135.891 165.04C135.891 121.707 135.891 78.3734 135.891 35.0401C135.891 23.5801 143.021 14.7701 154.231 12.4001C154.461 12.4001 154.671 12.3201 154.771 12.0801L160.621 12.1101Z" fill="#FAAB00"/>
<path d="M121.861 133.11C121.861 143.86 121.861 154.61 121.861 165.36C121.861 177.72 113.241 186.99 100.931 187.66C93.3005 188.07 87.2605 184.94 83.1105 178.45C80.0929 173.549 78.5225 167.895 78.5805 162.14C78.4305 152.19 78.5105 142.24 78.5105 132.28C78.5105 121.65 78.4605 111.01 78.5105 100.37C78.5805 88.1998 88.9205 78.0698 100.851 78.3698C106.408 78.5554 111.682 80.8641 115.588 84.8207C119.495 88.7773 121.736 94.0808 121.85 99.6398C121.98 110.79 121.85 121.94 121.85 133.1L121.861 133.11Z" fill="#E47400"/>
<path d="M42.2881 187.89C37.9846 187.878 33.7811 186.591 30.2087 184.191C26.6364 181.791 23.8554 178.386 22.2172 174.407C20.5789 170.427 20.1569 166.051 21.0045 161.832C21.8521 157.613 23.9312 153.739 26.9792 150.701C30.0271 147.663 33.9072 145.596 38.1292 144.762C42.3511 143.928 46.7256 144.364 50.6999 146.015C54.6742 147.666 58.0699 150.458 60.4582 154.038C62.8465 157.618 64.1201 161.826 64.1181 166.13C64.1142 168.992 63.5464 171.825 62.447 174.468C61.3477 177.111 59.7385 179.511 57.7113 181.532C55.684 183.553 53.2785 185.154 50.6322 186.245C47.9858 187.336 45.1505 187.895 42.2881 187.89Z" fill="#E47400"/>
</svg>
