<svg width="200" height="200" viewBox="0 0 200 200" fill="none" xmlns="http://www.w3.org/2000/svg">
<path d="M51.9087 100.68C50.5505 97.5274 49.5087 94.248 48.7987 90.8897C47.9868 87.2766 47.5346 83.592 47.4487 79.8897C47.3218 76.6575 47.4556 73.4204 47.8487 70.2097C48.2206 67.5637 48.7786 64.9472 49.5187 62.3797C50.5132 59.0259 51.8328 55.7771 53.4587 52.6797C54.6011 50.5235 55.8908 48.4486 57.3187 46.4697C57.3959 46.3859 57.4833 46.312 57.5787 46.2497C58.0187 45.6597 58.4687 45.0697 58.9187 44.4897C59.3687 43.9097 59.7187 43.7497 60.4187 44.2997C62.5187 45.9497 64.5487 47.6997 66.5887 49.4197C67.8956 50.3645 69.1231 51.4147 70.2587 52.5597C70.5287 52.8897 70.9887 53.0397 71.2587 53.3797C72.0887 54.1497 72.9487 54.8597 73.8287 55.5697C75.2387 56.7097 76.5487 57.9697 77.9987 59.0697C78.3387 59.3497 78.6287 59.6897 78.9987 59.9497C79.342 60.3264 79.728 60.662 80.1487 60.9497C81.3921 61.8763 82.5777 62.8782 83.6987 63.9497C83.8787 64.1297 84.0887 64.2897 84.0687 64.5797C83.5726 65.6002 82.8949 66.5219 82.0687 67.2997C81.3877 67.6008 80.8277 68.1221 80.4787 68.7797C79.5787 70.0897 78.3987 71.1597 77.4787 72.4097C76.8887 73.1697 76.2787 73.9197 75.6487 74.6497C75.0132 75.3108 74.4376 76.0269 73.9287 76.7897C73.5064 77.3632 73.0273 77.8925 72.4987 78.3697C71.1787 79.8097 69.9887 81.3697 68.7587 82.8797C67.9587 83.8797 67.0687 84.7597 66.2387 85.7197C65.9928 86.135 65.7046 86.5237 65.3787 86.8797C64.5973 87.6608 63.8721 88.4962 63.2087 89.3797C60.8487 92.1331 58.5153 94.9064 56.2087 97.6997C55.1044 98.8483 54.1007 100.089 53.2087 101.41C53.1469 101.521 53.0609 101.618 52.9572 101.692C52.8534 101.767 52.7343 101.817 52.6087 101.84C52.0787 101.6 52.1687 101 51.9087 100.68Z" fill="#EE5642"/>
<path d="M146.65 53C147.848 55.1778 148.851 57.4566 149.65 59.81C150.569 62.3921 151.278 65.044 151.77 67.74C152.185 69.8912 152.436 72.0708 152.52 74.26C152.654 77.1501 152.607 80.0457 152.38 82.93C152.148 85.4761 151.771 88.0069 151.25 90.51C150.882 92.3125 150.422 94.0949 149.87 95.85C149.153 98.1083 148.295 100.319 147.3 102.47C146.196 104.869 144.961 107.206 143.6 109.47C142.063 112.063 140.394 114.577 138.6 117C136.98 119.16 135.36 121.32 133.71 123.45C131.84 125.85 129.93 128.22 128.03 130.6C126.87 132.07 125.7 133.52 124.55 135C122.33 137.86 120.187 140.773 118.12 143.74C116.001 146.69 114.051 149.758 112.28 152.93C112.086 153.275 111.872 153.609 111.64 153.93C111.613 153.952 111.58 153.964 111.545 153.964C111.511 153.964 111.477 153.952 111.45 153.93C111.31 153.62 111.51 153.39 111.63 153.15C112.375 151.715 113.2 150.323 114.1 148.98C115.1 147.4 116.1 145.81 117.18 144.29C118.26 142.77 119.47 140.99 120.68 139.39C121.68 138.06 122.68 136.73 123.68 135.39C124.68 134.05 125.85 132.63 126.93 131.25C128.49 129.25 130.1 127.25 131.72 125.25C133.96 122.49 136.1 119.64 138.23 116.79C140.089 114.315 141.802 111.734 143.36 109.06C144.92 106.439 146.303 103.716 147.5 100.91C148.571 98.4287 149.456 95.8717 150.15 93.26C150.743 91.0804 151.181 88.8615 151.46 86.62C151.555 85.1706 151.735 83.7281 152 82.3C152.055 82.0976 152.085 81.8895 152.09 81.68C152.09 78.91 152.18 76.13 152.09 73.36C152.09 72.27 151.81 71.17 151.67 70.08C151.292 67.0231 150.622 64.0094 149.67 61.08C148.932 58.8603 148.04 56.695 147 54.6C146.839 54.2363 146.623 53.8991 146.36 53.6C146.289 53.4648 146.271 53.3078 146.31 53.16C146.38 53 146.46 52.9 146.65 53Z" fill="#94CEA2"/>
<path d="M146.648 52.9999C146.599 52.9955 146.549 53.0066 146.506 53.0317C146.463 53.0568 146.429 53.0946 146.408 53.1399C146.308 53.3099 146.188 53.4099 145.978 53.2899C145.943 52.7646 145.771 52.2576 145.478 51.8199C143.796 48.7411 141.784 45.8541 139.478 43.2099C136.94 40.2356 134.079 37.5525 130.948 35.2099C128.919 33.6929 126.78 32.3291 124.548 31.1299C121.972 29.734 119.266 28.592 116.468 27.7199C115.948 27.5599 115.468 27.1599 114.908 27.1899C113.478 26.7499 112.008 26.4899 110.558 26.0899C109.744 25.842 108.899 25.7041 108.048 25.6799C107.609 25.6924 107.175 25.5889 106.788 25.3799C106.232 25.247 105.658 25.2031 105.088 25.2499C104.972 25.2652 104.854 25.2652 104.738 25.2499C103.91 25.0521 103.058 24.978 102.208 25.0299C101.098 25.0299 99.9883 25.0299 98.8783 25.0299C96.0187 25.1004 93.1695 25.4014 90.3583 25.9299C86.7217 26.5848 83.1673 27.6343 79.7583 29.0599C77.3962 30.051 75.11 31.2141 72.9183 32.5399C69.6995 34.5091 66.6846 36.7937 63.9183 39.3599C63.7895 39.4915 63.6268 39.5849 63.4483 39.6299C63.3709 39.6295 63.2963 39.6011 63.2383 39.5499C64.3113 38.3719 65.4895 37.2941 66.7583 36.3299C68.8861 34.5671 71.1573 32.985 73.5483 31.5999C75.6242 30.4076 77.7793 29.3585 79.9983 28.4599C82.0606 27.6036 84.1788 26.8886 86.3383 26.3199C88.9608 25.6163 91.6363 25.128 94.3383 24.8599C96.6641 24.6292 99.0016 24.5391 101.338 24.5899C105.191 24.6747 109.022 25.1947 112.758 26.1399C117.181 27.2482 121.441 28.929 125.428 31.1399C130.504 33.9479 135.082 37.5731 138.978 41.8699C141.839 44.9774 144.28 48.447 146.238 52.1899C146.318 52.4799 146.488 52.7499 146.648 52.9999Z" fill="#7CA7E8"/>
<path d="M76.3294 136.18C75.3294 135.13 74.5294 133.91 73.6194 132.78C71.4494 130.12 69.2894 127.45 67.2094 124.78C65.1294 122.11 62.8794 119.27 60.8794 116.39C59.6394 114.62 58.3494 112.87 57.2094 111.03C55.9836 109.15 54.8813 107.193 53.9094 105.17C53.3599 104.224 52.9235 103.217 52.6094 102.17C53.0694 102.17 53.0894 102.57 53.2794 102.82C53.8041 104.053 54.3984 105.255 55.0594 106.42C55.8594 107.8 56.6794 109.16 57.4994 110.53C58.9694 112.99 60.6894 115.29 62.3494 117.61C64.0094 119.93 65.7494 122.1 67.5094 124.29C68.5094 125.52 69.4394 126.77 70.4194 127.99C70.9394 128.64 71.5394 129.21 72.0494 129.88C73.1994 131.37 74.4394 132.8 75.5394 134.34C75.844 134.833 76.2804 135.232 76.7994 135.49C76.8529 135.607 76.8672 135.739 76.8402 135.865C76.8132 135.991 76.7463 136.105 76.6494 136.19C76.6019 136.223 76.5453 136.239 76.4877 136.237C76.4302 136.236 76.3747 136.215 76.3294 136.18Z" fill="#F1CE4F"/>
<path d="M63.2505 39.5596H63.4205C63.4205 40.0496 63.0405 40.3296 62.7305 40.6196C62.0787 41.2468 61.4675 41.9148 60.9005 42.6196C60.4305 43.1896 60.4305 43.3696 61.0005 43.8296C62.2305 44.8296 63.4505 45.8296 64.6605 46.8296C66.1505 48.0696 67.6605 49.2596 69.1205 50.5496C70.5805 51.8396 72.0005 52.9996 73.4505 54.2496C74.5605 55.1796 75.7005 56.0796 76.7805 57.0496C77.6605 57.8296 78.6305 58.4996 79.4905 59.3096C80.8305 60.5796 82.2905 61.7096 83.7105 62.8796C84.0505 63.1596 84.4205 63.3996 84.7805 63.6596C84.8211 63.7146 84.843 63.7812 84.843 63.8496C84.843 63.918 84.8211 63.9845 84.7805 64.0396C84.7251 64.129 84.6402 64.1962 84.5405 64.2296C84.4394 64.2599 84.3316 64.2599 84.2305 64.2296C82.5605 62.8396 80.8405 61.4996 79.2305 60.0196C78.6505 59.4896 78.0105 59.0196 77.4005 58.5496C75.5505 56.9596 73.6705 55.4096 71.8105 53.8296C70.4305 52.6496 69.0705 51.4596 67.6805 50.2896C65.7738 48.7096 63.8738 47.1162 61.9805 45.5096C61.1555 44.9323 60.4005 44.2611 59.7305 43.5096C60.7646 42.0752 61.9442 40.7515 63.2505 39.5596Z" fill="#6B76BE"/>
<path d="M104.922 171C104.322 172.61 103.692 174.21 101.922 175C100.818 175.528 99.5523 175.606 98.3926 175.215C97.233 174.825 96.2713 173.998 95.7119 172.91C94.7205 170.735 93.8948 168.489 93.2419 166.19C92.3719 163.7 91.5219 161.19 90.4719 158.77C89.3419 156.17 87.9719 153.7 86.6719 151.19L86.7519 151.13C87.1619 151.19 87.3019 151.53 87.4719 151.82C88.8802 154.26 90.1359 156.785 91.2319 159.38C92.4919 162.38 93.4719 165.44 94.4919 168.5C94.9079 170.016 95.4985 171.48 96.2519 172.86C96.5691 173.461 97.0436 173.965 97.6249 174.317C98.2061 174.669 98.8722 174.857 99.5519 174.86C101.952 174.97 103.162 174.06 104.092 171.73C104.232 171.37 104.422 171.02 104.592 170.67C104.652 170.54 104.702 170.33 104.932 170.47C104.989 170.643 104.985 170.829 104.922 171Z" fill="#99D1A7"/>
<path d="M59.7203 43.4697C60.7203 44.3097 61.8003 45.1397 62.8203 45.9897C64.6903 47.5497 66.5703 49.0997 68.4203 50.6797C69.5903 51.6797 70.7303 52.6797 71.8803 53.6797C71.5303 53.8997 71.4303 53.4597 71.1703 53.4097C69.8503 52.3597 68.5803 51.2397 67.2903 50.1597L63.8603 47.2897C62.5903 46.2197 61.3403 45.1297 60.0503 44.0897C59.6303 43.7497 59.3303 44.0897 59.0503 44.3797C58.6128 45.0204 58.1174 45.6196 57.5703 46.1697C58.12 45.1486 58.8482 44.2341 59.7203 43.4697Z" fill="#B46681"/>
<path d="M104.92 171V170.4C104.847 169.991 104.91 169.569 105.1 169.2C106.206 165.562 107.508 161.986 109 158.49C109.11 158.25 109.15 157.93 109.52 157.93C109.558 157.97 109.58 158.024 109.58 158.08C109.58 158.135 109.558 158.189 109.52 158.23C108.7 160.42 107.85 162.59 107.07 164.79C106.36 166.79 105.72 168.79 105.07 170.85C105.027 170.906 104.976 170.956 104.92 171Z" fill="#9CD3A8"/>
<path d="M76.3281 136.18L76.5881 136.13C76.617 136.113 76.6498 136.104 76.6831 136.104C76.7165 136.104 76.7492 136.113 76.7781 136.13C78.0881 138.03 79.4981 139.87 80.8481 141.76C81.0381 142.03 81.3081 142.28 81.2781 142.66C81.2571 142.725 81.2191 142.784 81.1681 142.83C80.1681 141.83 79.4881 140.53 78.6081 139.42C77.9181 138.56 77.2781 137.66 76.6081 136.78C76.4554 136.613 76.3576 136.404 76.3281 136.18Z" fill="#A7DAB2"/>
<path d="M81.1719 142.85V142.66C81.4419 142.66 81.5819 142.83 81.7119 143.02C83.0419 144.94 84.4119 146.84 85.6219 148.84C85.6946 148.96 85.7295 149.1 85.7219 149.24C85.7219 149.293 85.7092 149.345 85.6848 149.392C85.6605 149.439 85.6252 149.48 85.5819 149.51C84.8619 148.65 84.3619 147.64 83.7319 146.72C82.8919 145.44 81.9419 144.2 81.1719 142.85Z" fill="#A0D5AD"/>
<path d="M109.499 158.23V158C109.329 157.43 109.719 157 109.909 156.53C110.199 155.82 110.589 155.17 110.909 154.53C111.029 154.31 111.119 154.06 111.419 154.01H111.569C111.166 155.006 110.705 155.977 110.189 156.92C110.052 157.399 109.817 157.845 109.499 158.23Z" fill="#A4D9B3"/>
<path d="M53.1502 102.85C52.9402 102.64 52.9302 102.28 52.6102 102.16C52.227 101.752 51.9821 101.234 51.9102 100.68C52.2902 100.94 52.1802 101.52 52.5902 101.77C52.8402 101.77 52.9802 101.55 53.1502 101.41C53.3202 101.27 53.4202 101.27 53.5202 101.47C53.5182 101.954 53.3908 102.429 53.1502 102.85Z" fill="#F5C34C"/>
<path d="M85.6094 149.51V149.21C85.961 149.388 86.2554 149.662 86.4588 150C86.6621 150.338 86.7663 150.726 86.7594 151.12L86.6894 151.18C86.2736 150.661 85.9117 150.102 85.6094 149.51Z" fill="#99D1A7"/>
<path d="M53.4198 101.33C53.0898 101.33 53.0598 101.97 52.5898 101.77C53.3598 100.84 54.0898 99.8702 54.8598 98.9402C56.2498 97.2602 57.6398 95.5802 59.0998 93.9402C59.8398 93.1102 60.5498 92.2302 61.2198 91.3402C62.1498 90.1002 63.2198 89.0202 64.2198 87.8202C64.5298 87.4302 64.7098 86.9402 65.2198 86.7402C65.3798 86.9302 65.2198 87.1302 65.2198 87.3202C64.6521 88.2281 63.981 89.0671 63.2198 89.8202C61.2198 92.3202 59.0998 94.7402 57.0398 97.2002C56.2298 98.2002 55.4498 99.2002 54.5998 100.12C54.2098 100.49 53.8398 100.89 53.4698 101.29L53.4198 101.33Z" fill="#E97317"/>
<path d="M65.0781 87.3103L65.2181 86.7503C66.3012 85.2493 67.4838 83.8227 68.7581 82.4803C69.6681 81.3603 70.5181 80.2003 71.4781 79.1203C72.0919 78.3311 72.7602 77.586 73.4781 76.8903C73.8981 76.5403 74.0181 75.8903 74.4781 75.5303C74.9381 75.1703 75.0381 74.7703 75.4781 74.5303C75.6881 74.5303 75.6881 74.6403 75.6881 74.7903C74.6245 76.4069 73.4198 77.9262 72.0881 79.3303C69.9781 81.8303 67.8981 84.3303 65.7681 86.8403C65.5881 87.0603 65.4581 87.3703 65.0781 87.3103Z" fill="#E97413"/>
<path d="M75.6283 74.7999C75.6292 74.7468 75.6168 74.6944 75.5924 74.6472C75.568 74.6001 75.5322 74.5598 75.4883 74.5299C76.1783 73.6599 76.8583 72.7699 77.5683 71.9099C78.7983 70.4399 80.0483 68.9899 81.2783 67.5199C81.3636 67.4129 81.4715 67.3261 81.5942 67.2656C81.7169 67.2051 81.8515 67.1724 81.9883 67.1699C82.0124 67.1926 82.0305 67.2209 82.041 67.2524C82.0515 67.2838 82.054 67.3173 82.0483 67.3499C81.6472 67.9663 81.1957 68.5483 80.6983 69.0899C79.1983 70.8899 77.6983 72.7299 76.1583 74.4699C75.9983 74.6299 75.9283 74.8999 75.6283 74.7999Z" fill="#EA771A"/>
<path d="M71.1719 53.4502C71.4619 53.4002 71.6019 53.7502 71.8819 53.7202L76.2819 57.3502C76.717 57.6504 77.1076 58.0107 77.4419 58.4202C77.6319 58.6602 78.0319 58.7402 77.9819 59.1502C77.2519 58.7102 76.6519 58.1502 75.9819 57.6102C74.9819 56.9002 74.2519 56.0002 73.2719 55.3102C72.492 54.7867 71.7857 54.1612 71.1719 53.4502Z" fill="#BF6377"/>
<path d="M78.0009 59.1499L77.4609 58.4199C78.1301 58.8162 78.748 59.2931 79.3009 59.8399C80.7609 61.1799 82.3009 62.3899 83.8309 63.6599C83.9836 63.8012 84.1241 63.9551 84.2509 64.1199C84.3309 64.3599 84.2509 64.5199 83.9909 64.5399C83.6009 63.8399 82.8909 63.4699 82.3709 62.8999C81.6909 62.1499 80.7509 61.7099 80.0909 60.8999C79.7309 60.5599 79.3009 60.2899 78.9609 59.8999C78.4809 59.8599 78.2609 59.4699 78.0009 59.1499Z" fill="#BB647B"/>
<path d="M83.9995 64.5401L84.2595 64.1201H84.5195C84.7495 64.4601 84.4395 64.6601 84.2995 64.8901C84.1476 65.1183 83.984 65.3386 83.8095 65.5501C83.4229 65.9684 83.0654 66.4128 82.7395 66.8801C82.5895 67.0701 82.4695 67.3101 82.1995 67.3701C82.1657 67.3697 82.1323 67.3623 82.1013 67.3486C82.0704 67.3348 82.0426 67.3149 82.0195 67.2901V67.1501C82.7379 66.326 83.3995 65.454 83.9995 64.5401Z" fill="#D58683"/>
<path d="M78.9414 60C79.4025 60.2236 79.7933 60.5695 80.0714 61C79.5882 60.8111 79.1877 60.4567 78.9414 60Z" fill="#BF6377"/>
<path d="M86.7701 151.12C86.5458 150.4 86.1514 149.745 85.6201 149.21C84.9163 147.924 84.1244 146.687 83.2501 145.51C82.6617 144.508 81.9929 143.554 81.2501 142.66C80.4701 141.27 79.4001 140.1 78.5101 138.79C78.0901 138.17 77.5901 137.6 77.1501 136.98C76.9901 136.75 76.7301 136.54 76.7901 136.19C77.4901 135.19 78.3701 134.27 79.1501 133.3C81.3201 130.6 83.5601 127.95 85.8101 125.3C87.6101 123.19 89.3301 121.02 91.1401 118.92C92.2701 117.61 93.3601 116.26 94.5001 114.92C95.5001 113.92 96.5001 112.77 97.4001 111.68C98.7334 110.114 100.067 108.53 101.4 106.93C102.94 105.06 104.5 103.21 106.05 101.36C107.43 99.7102 108.82 98.0802 110.21 96.4502C111.344 95.2985 112.329 94.0083 113.14 92.6102C114.08 91.2602 115.33 90.1702 116.28 88.8102C116.452 88.49 116.683 88.205 116.96 87.9702C117.714 87.3966 118.386 86.7239 118.96 85.9702C121.22 83.3402 123.4 80.6402 125.65 77.9702C127.4 75.9102 129.16 73.8502 130.89 71.7802C132.21 70.1802 133.64 68.6602 134.89 66.9902C135.68 65.9902 136.7 65.0602 137.47 63.9902C138.56 62.5102 139.84 61.2102 140.97 59.7802C142.49 57.8602 144.18 56.0802 145.68 54.1402C145.899 53.8712 146.172 53.6499 146.48 53.4902C147.04 53.5902 147.09 54.1402 147.27 54.4902C148.204 56.4582 149.016 58.4821 149.7 60.5502C150.28 62.2402 150.7 63.9802 151.08 65.7102C151.39 67.0102 151.58 68.3202 151.79 69.6302C151.9 70.2902 151.91 70.9602 152.03 71.6302C152.57 74.7502 152.29 77.8902 152.27 81.0102C152.208 82.733 152.011 84.4483 151.68 86.1402C151.56 86.9102 151.52 87.6902 151.37 88.4602C151.03 90.2602 150.59 92.0402 150.16 93.8202C149.595 95.8263 148.927 97.8022 148.16 99.7402C147.52 101.48 146.755 103.171 145.87 104.8C144.691 107.115 143.389 109.365 141.97 111.54C140.25 114.1 138.49 116.62 136.61 119.08C134.73 121.54 132.79 124.08 130.87 126.51C129.97 127.67 128.99 128.78 128.08 129.94C126.66 131.74 125.26 133.57 123.85 135.39C122.77 136.79 121.68 138.19 120.63 139.61C119.85 140.61 119.14 141.77 118.37 142.82C116.87 144.89 115.47 147.02 114.11 149.18C113.084 150.643 112.2 152.2 111.47 153.83C110.669 155.092 109.999 156.432 109.47 157.83C108.974 158.649 108.571 159.521 108.27 160.43C107.69 161.692 107.196 162.992 106.79 164.32C106.3 166.11 105.55 167.81 105.14 169.62C105.073 169.857 104.986 170.088 104.88 170.31C104.59 170.98 104.34 171.66 104.02 172.31C103.673 173.169 103.056 173.891 102.262 174.367C101.468 174.843 100.541 175.048 99.6201 174.95C98.9235 174.955 98.2378 174.777 97.631 174.435C97.0241 174.093 96.5171 173.598 96.1601 173C95.5568 171.95 95.0801 170.832 94.7401 169.67C93.8001 166.87 92.8701 164.08 91.8801 161.3C91.2901 159.63 90.4701 158.04 89.7401 156.42C89.0101 154.8 87.9901 153.05 87.0601 151.42C86.9793 151.306 86.8815 151.205 86.7701 151.12Z" fill="#43B561"/>
<path d="M146.422 53.5899C145.942 54.2499 145.422 54.8399 144.852 55.4599C142.852 57.8799 140.792 60.2199 138.852 62.6399C137.122 64.7799 135.292 66.8299 133.552 68.9599C132.102 70.7299 130.552 72.4599 129.112 74.2299C127.672 75.9999 125.922 77.8599 124.442 79.7699C123.172 81.3999 121.782 82.9499 120.442 84.5199C119.522 85.5999 118.572 86.6699 117.632 87.7399C117.462 87.9199 117.312 88.1499 117.022 88.1399C116.852 87.6099 117.472 87.3599 117.452 86.8799C117.528 86.6914 117.648 86.5236 117.802 86.3899C118.402 85.826 118.948 85.2065 119.432 84.5399C121.982 81.7999 124.292 78.8399 126.712 75.9899C129.462 72.7499 132.232 69.5199 134.952 66.2599C136.112 64.8799 137.242 63.4699 138.422 62.1099C140.252 59.9999 141.942 57.7699 143.822 55.7099C144.23 55.3008 144.592 54.8481 144.902 54.3599C145.151 53.8996 145.535 53.5262 146.002 53.2899L146.412 53.1699C146.412 53.3099 146.422 53.4499 146.422 53.5899Z" fill="#4BA7AA"/>
<path d="M146.002 53.2903C144.412 55.2003 142.772 57.0603 141.202 58.9803C139.822 60.6803 138.382 62.3203 137.002 63.9803C135.622 65.6403 134.002 67.5703 132.482 69.3603C130.112 72.1903 127.782 75.0503 125.352 77.8303C123.532 79.9303 121.842 82.1403 119.952 84.1703C119.392 84.7703 118.592 85.2303 118.362 86.1703C118.302 86.4103 118.002 86.3403 117.852 86.4803C117.612 86.0703 117.932 85.7803 118.072 85.4803C118.945 83.6102 119.509 81.6109 119.742 79.5603C120.056 76.9483 119.847 74.3 119.127 71.7695C118.408 69.2389 117.193 66.8767 115.552 64.8203C113.445 62.1956 110.721 60.1341 107.622 58.8203C104.727 57.552 101.561 57.0294 98.4119 57.3003C93.9977 57.5492 89.8233 59.3895 86.6619 62.4803C86.2319 62.9003 85.8219 63.3403 85.3819 63.7503C85.1819 63.9203 85.0019 64.1903 84.6719 64.0003L84.7919 63.7103C84.7919 63.3503 85.0319 63.1603 85.2219 62.9603C87.9419 60.1403 90.2919 57.0203 92.8319 54.0603C94.5419 52.0603 96.2019 50.0603 97.8919 48.0603C100.379 45.1403 102.842 42.197 105.282 39.2303C106.762 37.4303 108.282 35.6903 109.802 33.8903C111.322 32.0903 112.912 30.4103 114.312 28.5403C114.65 28.1021 114.901 27.6031 115.052 27.0703C116.212 27.4803 117.382 27.8803 118.532 28.3003C119.989 28.8176 121.414 29.4186 122.802 30.1003C123.882 30.6403 124.962 31.1903 126.002 31.8303C127.042 32.4703 128.342 33.2003 129.452 33.9903C131.12 35.1271 132.717 36.3661 134.232 37.7003C135.232 38.6403 136.342 39.5403 137.312 40.5403C138.442 41.7203 139.482 42.9803 140.552 44.2103C142.054 46.07 143.44 48.0203 144.702 50.0503C145.202 50.8003 145.522 51.6703 146.042 52.4303C146.123 52.5609 146.163 52.713 146.155 52.8665C146.148 53.0201 146.095 53.1678 146.002 53.2903Z" fill="#5392F8"/>
<path d="M115.052 27.0796C115.292 27.8896 114.672 28.3696 114.262 28.8696C112.262 31.2596 110.262 33.6096 108.262 35.9796C106.262 38.3496 104.182 40.7196 102.262 43.1596C100.752 45.0496 99.1419 46.8496 97.5919 48.6996C96.5919 49.9396 95.4819 51.1896 94.4119 52.4296C93.3419 53.6696 92.1219 55.1296 91.0019 56.4896C90.0019 57.6896 89.0519 58.9296 88.0019 60.1096C86.9519 61.2896 85.8519 62.4996 84.7719 63.6896C84.2419 63.7796 84.0019 63.3196 83.6719 63.0796C81.3219 61.3196 79.2319 59.2696 76.9319 57.4496C75.7519 56.4496 74.6119 55.4496 73.4519 54.4496C72.1419 53.3596 70.8719 52.2096 69.4519 51.1796C68.7819 50.6796 68.2019 50.0596 67.5619 49.5196C66.9219 48.9796 65.9619 48.2096 65.1719 47.5196C63.9219 46.5196 62.6919 45.3996 61.4219 44.3696C61.1819 44.1696 60.9419 43.9596 60.6919 43.7796C60.1419 43.3796 60.2219 43.0596 60.5919 42.5896C61.4319 41.4896 62.5219 40.5896 63.3519 39.5196C65.261 37.7228 67.2853 36.0526 69.4119 34.5196C71.0013 33.3977 72.6504 32.3628 74.3519 31.4196C75.8119 30.6096 77.3519 29.9096 78.8419 29.2196C80.8419 28.3196 82.8419 27.6696 84.9219 26.9696C86.3719 26.4696 87.8619 26.2496 89.3219 25.8396C90.8828 25.466 92.4713 25.2185 94.0719 25.0996C96.7283 24.8134 99.4017 24.7165 102.072 24.8096C102.952 24.8516 103.83 24.9384 104.702 25.0696H104.972C105.562 25.2596 106.182 25.0196 106.782 25.1996C107.083 25.3864 107.428 25.4899 107.782 25.4996C109.237 25.58 110.676 25.849 112.062 26.2996C112.684 26.4976 113.324 26.6382 113.972 26.7196C114.402 26.8096 114.652 27.1896 115.052 27.0796Z" fill="#2481ED"/>
<path d="M104.778 25.1205C103.895 25.1246 103.014 25.0375 102.148 24.8605C103.034 24.7719 103.928 24.8603 104.778 25.1205Z" fill="#5392F8"/>
<path d="M106.861 25.2603C106.261 25.2003 105.641 25.4103 105.051 25.1303C105.657 25.0628 106.27 25.1069 106.861 25.2603Z" fill="#5392F8"/>
<path d="M75.6315 74.8002C77.0615 73.3202 78.2915 71.6702 79.6315 70.1202L80.6315 68.9902C81.1815 69.4402 81.0015 69.9902 80.8015 70.5102C80.0385 72.4692 79.6649 74.5582 79.7015 76.6602C79.5243 79.461 80.0002 82.2647 81.0915 84.8502C81.6956 86.243 82.4182 87.5812 83.2515 88.8502C84.0233 89.9917 84.9486 91.0214 86.0015 91.9102C87.9613 93.7302 90.2576 95.1501 92.7615 96.0902C94.7634 96.9053 96.9105 97.3035 99.0715 97.2602C100.591 97.1702 102.071 97.3702 103.641 97.1302C103.993 97.0903 104.332 96.9816 104.641 96.8102C104.715 96.7524 104.8 96.7115 104.891 96.6902C106.818 96.2543 108.666 95.5258 110.371 94.5302C110.435 94.4998 110.502 94.4795 110.571 94.4702C111.041 94.5902 110.991 94.9002 110.801 95.2102C110.634 95.4855 110.44 95.7435 110.221 95.9802C108.761 97.6302 107.401 99.3702 105.931 100.98C105.4 101.554 104.925 102.177 104.511 102.84C103.271 104.13 102.191 105.56 101.051 106.94C100.307 107.705 99.6375 108.539 99.0515 109.43L98.9315 109.58C97.993 110.53 97.1083 111.532 96.2815 112.58C94.9815 114.32 93.4815 115.9 92.1115 117.58C90.7415 119.26 89.5015 120.69 88.2015 122.25C86.3115 124.53 84.3615 126.75 82.4815 129.03C80.9215 130.91 79.3415 132.78 77.7615 134.65C77.4815 134.99 77.2515 135.44 76.7615 135.46C76.5908 135.463 76.4222 135.423 76.2716 135.342C76.1211 135.262 75.9937 135.144 75.9015 135C75.0215 133.89 74.1315 132.77 73.2715 131.64C71.6015 129.44 69.6715 127.44 68.0315 125.22C66.5915 123.28 64.9715 121.49 63.5915 119.52C61.6915 116.77 59.5915 114.16 57.8515 111.3C56.8515 109.72 55.9615 108.11 54.9615 106.55C54.281 105.349 53.6829 104.103 53.1715 102.82C52.9915 102.26 53.5015 101.82 53.4415 101.3C53.8427 100.912 54.2137 100.494 54.5515 100.05C55.6815 98.4702 57.0115 97.0502 58.2515 95.5902L63.4515 89.3202C64.0593 88.7034 64.6114 88.0341 65.1015 87.3202C66.1015 86.3202 66.9215 85.2602 67.8215 84.2202C69.1915 82.6102 70.5515 80.9902 71.8815 79.3502C73.1076 78.0501 74.2341 76.6595 75.2515 75.1902C75.3605 75.0441 75.4883 74.913 75.6315 74.8002Z" fill="#FCC600"/>
<path d="M76.7387 135.49C77.8087 134.49 78.7387 133.27 79.7387 132.12C80.7387 130.97 81.4687 130.12 82.3087 129.06C83.8687 127.06 85.5988 125.31 87.1188 123.33C87.9588 122.23 88.8988 121.22 89.7988 120.16C90.8454 118.933 91.8921 117.7 92.9388 116.46C94.0788 115.11 95.2487 113.78 96.3187 112.38C97.0087 111.47 97.8587 110.7 98.5387 109.79C98.5855 109.71 98.6508 109.643 98.7292 109.594C98.8076 109.546 98.8967 109.517 98.9887 109.51C99.1287 109.67 99.0487 109.8 98.9887 109.94C97.5187 111.65 96.1287 113.41 94.6087 115.08C93.3787 116.8 91.8987 118.32 90.6087 119.98C89.4187 121.47 88.1688 122.91 86.9388 124.37C85.5188 126.05 84.0887 127.73 82.6787 129.37C81.1387 131.22 79.6187 133.08 78.0687 134.93C77.7205 135.381 77.3174 135.788 76.8688 136.14L76.7188 136.08L76.7387 135.49Z" fill="#A9C12E"/>
<path d="M84.6712 63.9999C84.9912 63.9999 85.1412 63.7199 85.3212 63.5199C87.2509 61.3504 89.6431 59.6417 92.3212 58.5199C94.2688 57.7319 96.3264 57.2496 98.4212 57.0899C100.749 56.8918 103.094 57.1188 105.341 57.7599C108.135 58.5317 110.731 59.8959 112.951 61.7599C116.422 64.6913 118.799 68.7105 119.696 73.1641C120.592 77.6176 119.957 82.2435 117.891 86.2899C117.881 86.336 117.881 86.3838 117.891 86.4299L117.571 86.8999C116.792 88.2826 115.855 89.5711 114.781 90.7399C113.876 91.8448 112.826 92.8235 111.661 93.6499C109.805 94.9599 107.738 95.944 105.551 96.5599C104.998 96.5743 104.449 96.6651 103.921 96.8299C101.601 97.3622 99.1971 97.4268 96.8512 97.0199C94.9004 96.6872 93.0011 96.1023 91.2012 95.2799C90.4714 94.9383 89.7692 94.5404 89.1012 94.0899C89.0299 94.0667 88.9625 94.033 88.9012 93.9899C87.9012 93.1599 86.8412 92.4299 85.9012 91.4999C84.6634 90.2907 83.5877 88.9259 82.7012 87.4399C82.1208 86.5259 81.6445 85.5498 81.2812 84.5299C80.7489 83.2102 80.3665 81.8349 80.1412 80.4299C80.0512 79.4299 79.9212 78.5199 79.8812 77.5499C79.7765 74.3089 80.4883 71.0937 81.9512 68.1999C82.4723 67.2558 83.05 66.3441 83.6812 65.4699C83.8912 64.9699 84.4012 64.6599 84.5012 64.0999L84.6712 63.9999Z" fill="#FEFEFE"/>
<path d="M54.5319 100.08C54.2519 100.57 54.0519 101.15 53.4219 101.33C53.6828 100.828 54.0642 100.399 54.5319 100.08Z" fill="#F5C34C"/>
<path d="M85.9004 91.9996C84.5266 90.8357 83.3659 89.4416 82.4704 87.8796C81.496 86.259 80.7299 84.5219 80.1904 82.7096C79.4971 80.0789 79.3038 77.3415 79.6204 74.6396C79.7406 73.1811 80.0776 71.7487 80.6204 70.3896C80.7167 70.1653 80.7663 69.9237 80.7663 69.6796C80.7663 69.4355 80.7167 69.1939 80.6204 68.9696C81.0359 68.3808 81.4974 67.8257 82.0004 67.3096H82.1604C82.2127 67.4275 82.2329 67.5571 82.2188 67.6854C82.2048 67.8136 82.157 67.9358 82.0804 68.0396C81.3813 69.2785 80.8659 70.6125 80.5504 71.9996C80.1534 73.2278 79.9444 74.5089 79.9304 75.7996C79.9304 76.4696 79.9304 77.1396 79.9304 77.7996C79.9362 79.7124 80.2571 81.6111 80.8804 83.4196C81.8403 86.3585 83.4424 89.0468 85.5704 91.2896C85.7104 91.4396 85.9404 91.4996 85.9904 91.7296C85.9958 91.7784 85.9905 91.8278 85.975 91.8744C85.9594 91.9211 85.934 91.9637 85.9004 91.9996Z" fill="#F9C244"/>
<path d="M85.9018 91.7498C84.3468 90.2692 83.0461 88.5428 82.0518 86.6398C81.1248 84.7606 80.4523 82.7664 80.0518 80.7098C79.7177 78.7509 79.6571 76.7552 79.8718 74.7798C80.0235 73.0104 80.4731 71.2793 81.2018 69.6598C81.5318 68.8898 81.8518 68.0998 82.2018 67.3198C82.7618 66.7598 83.0618 65.9898 83.7218 65.5098C83.3673 66.2513 82.949 66.9606 82.4718 67.6298C81.7074 69.1319 81.0944 70.7063 80.6418 72.3298C80.3545 73.4421 80.1869 74.5819 80.1418 75.7298C79.9524 77.7408 80.1045 79.7695 80.5918 81.7298C80.9567 83.201 81.4693 84.6316 82.1218 85.9998C83.0343 87.8184 84.1954 89.5012 85.5718 90.9998C86.4164 91.9066 87.355 92.7212 88.3718 93.4298C88.6269 93.563 88.8438 93.7592 89.0018 93.9998C88.9819 94.0286 88.9564 94.053 88.9268 94.0717C88.8972 94.0904 88.8641 94.1029 88.8296 94.1085C88.795 94.1141 88.7597 94.1127 88.7257 94.1043C88.6917 94.0959 88.6598 94.0808 88.6318 94.0598C87.6261 93.4106 86.7085 92.6342 85.9018 91.7498Z" fill="#FCECAE"/>
<path d="M94.5117 115.08C94.8744 114.466 95.3184 113.904 95.8317 113.41C96.8317 112.18 97.8317 110.99 98.8317 109.77C98.8727 109.689 98.8965 109.6 98.9017 109.51C99.5917 108.51 100.482 107.66 101.252 106.71C102.318 105.376 103.412 104.073 104.532 102.8C104.927 102.11 105.422 101.483 106.002 100.94C107.462 99.2197 108.912 97.5097 110.352 95.7797C110.952 95.0497 111.562 94.3397 112.082 93.5597C112.1 93.4965 112.127 93.436 112.162 93.3797C112.452 93.0697 112.702 92.6897 113.162 92.7097C112.704 93.6548 112.096 94.5193 111.362 95.2697C109.992 96.9097 108.672 98.5797 107.242 100.16C105.812 101.74 104.352 103.72 102.792 105.41C101.572 106.74 100.472 108.19 99.3217 109.58C98.6317 110.41 97.9417 111.23 97.2417 112.04C96.5417 112.85 95.6017 113.94 94.7817 114.89C94.719 114.985 94.6225 115.053 94.5117 115.08Z" fill="#7FB73A"/>
<path d="M113.238 92.7104L112.288 93.4204C112.068 93.5704 111.858 93.7704 111.578 93.5304C113.921 91.6724 115.947 89.4469 117.578 86.9404C117.648 87.4604 117.108 87.6904 117.028 88.1404C115.929 89.6658 114.734 91.1188 113.448 92.4904C113.372 92.5576 113.302 92.6312 113.238 92.7104Z" fill="#C1DBA3"/>
<path d="M111.578 93.5305L112.288 93.4205V93.5805C111.858 94.0105 111.468 94.5005 110.778 94.5205C109.602 95.1744 108.386 95.7555 107.138 96.2605C105.89 96.7269 104.606 97.0915 103.298 97.3505C102.174 97.4905 101.039 97.5206 99.9084 97.4405C98.1426 97.5106 96.3762 97.315 94.6684 96.8605C93.2968 96.4693 91.9591 95.9677 90.6684 95.3605C88.9063 94.5073 87.2951 93.3724 85.8984 92.0005V91.7305C86.7084 92.3905 87.5384 93.0305 88.3484 93.7305C88.4258 93.8259 88.5258 93.9006 88.6393 93.9477C88.7528 93.9948 88.8762 94.013 88.9984 94.0005C90.6014 95.0852 92.3716 95.8994 94.2384 96.4105C96.4003 97.056 98.654 97.3398 100.908 97.2505C102.504 97.0874 104.09 96.8371 105.658 96.5005C107.759 95.7863 109.75 94.787 111.578 93.5305Z" fill="#F5D463"/>
<path d="M110.751 94.5201L112.261 93.5801C111.955 94.2112 111.526 94.7754 111.001 95.2401C109.151 97.5101 107.231 99.7301 105.341 101.97C105.101 102.26 104.661 102.4 104.611 102.85C104.611 102.91 104.511 102.9 104.461 102.85C104.798 102.094 105.284 101.413 105.891 100.85C107.441 98.9301 109.071 97.0701 110.681 95.2001C110.771 95.1132 110.827 94.9973 110.84 94.8729C110.853 94.7484 110.821 94.6234 110.751 94.5201Z" fill="#C2C72D"/>
<path d="M104.481 102.84H104.631C103.191 104.73 101.631 106.51 100.071 108.31C99.7696 108.771 99.3868 109.175 98.9414 109.5C99.0301 108.953 99.3323 108.464 99.7814 108.14C101.141 106.8 102.221 105.24 103.441 103.8C103.766 103.457 104.114 103.136 104.481 102.84Z" fill="#A9C12E"/>
<path d="M105.61 96.47C104.429 96.9037 103.194 97.1762 101.94 97.28C98.395 97.5935 94.8293 96.9837 91.59 95.51C90.6452 95.1616 89.7686 94.6506 89 94C89.7 94 90.15 94.62 90.75 94.89C91.6 95.27 92.48 95.57 93.33 95.96C94.5601 96.4619 95.8514 96.7982 97.17 96.96C99.3773 97.3571 101.644 97.2821 103.82 96.74C104.397 96.5507 105.002 96.4594 105.61 96.47Z" fill="#FCECAE"/>
</svg>
