<svg width="200" height="200" viewBox="0 0 200 200" fill="none" xmlns="http://www.w3.org/2000/svg">
<path d="M8.44141 97.9996C8.71141 96.7096 8.75141 95.3896 9.03141 94.0996C11.3914 83.4096 17.5614 75.7596 27.6514 71.5296C36.3614 67.8596 45.0814 68.3896 53.5514 72.6096L53.8814 72.7896C53.9318 72.817 53.976 72.8544 54.0114 72.8996C53.8814 73.2596 53.5314 73.3896 53.2714 73.6196C52.2479 74.506 51.4348 75.6094 50.8914 76.8496C50.6714 77.3896 50.4614 77.4496 49.8914 77.2096C45.9342 75.387 41.5721 74.6215 37.2308 74.9878C32.8895 75.3541 28.7173 76.8397 25.1214 79.2996C22.2762 81.208 19.8586 83.6868 18.0218 86.5788C16.185 89.4708 14.9692 92.7129 14.4514 96.0996C13.479 102.647 15.1158 109.315 19.0095 114.668C22.9032 120.022 28.7428 123.633 35.2717 124.724C41.8006 125.816 48.4972 124.301 53.9206 120.506C59.344 116.71 63.0608 110.938 64.2714 104.43C65.1211 99.8294 64.6209 95.0817 62.8314 90.7596C62.5914 90.1696 62.6814 89.9496 63.2614 89.7596C64.8313 89.1214 66.2093 88.0879 67.2614 86.7596C69.2832 90.9456 70.3295 95.5356 70.3218 100.184C70.314 104.833 69.2523 109.42 67.2166 113.599C65.1808 117.778 62.224 121.441 58.5685 124.313C54.9129 127.185 50.6538 129.191 46.1114 130.18C44.7223 130.492 43.3116 130.699 41.8914 130.8C41.7414 130.8 41.5814 130.8 41.4714 130.93H37.3414C36.7222 130.811 36.091 130.767 35.4614 130.8C32.5135 130.53 29.6326 129.762 26.9414 128.53C23.4007 127.01 20.183 124.827 17.4614 122.1C13.5268 118.216 10.7084 113.346 9.30141 108C8.77876 106.193 8.51613 104.321 8.52141 102.44C8.52141 102.31 8.52141 102.18 8.44141 102.08V97.9996Z" fill="#3880FE"/>
<path d="M39.3983 114.18C36.6175 114.169 33.9028 113.332 31.5972 111.778C29.2917 110.223 27.499 108.019 26.4458 105.446C25.3927 102.872 25.1263 100.044 25.6804 97.3187C26.2346 94.5937 27.5843 92.0942 29.559 90.1363C31.5337 88.1784 34.0447 86.85 36.7743 86.3191C39.504 85.7883 42.3297 86.0788 44.8943 87.1539C47.4589 88.229 49.647 90.0404 51.1821 92.3591C52.7171 94.6778 53.5302 97.3997 53.5183 100.18C53.4945 103.907 51.9954 107.472 49.3491 110.096C46.7028 112.72 43.1249 114.188 39.3983 114.18Z" fill="#387FFE"/>
<path d="M132.67 89.5303C134.511 87.9113 136.746 86.8044 139.15 86.3203C143.09 85.6503 146.8 86.1103 149.76 89.1203C151.557 91.0924 152.617 93.6257 152.76 96.2903C153.11 99.5603 152.87 102.85 152.92 106.12C152.92 108.34 152.92 110.55 152.92 112.76C152.92 113.37 152.8 113.6 152.14 113.58C150.48 113.58 148.83 113.58 147.14 113.58C146.51 113.58 146.32 113.43 146.33 112.78C146.33 108 146.33 103.22 146.33 98.4403C146.393 96.8284 145.941 95.2381 145.04 93.9003C144.49 93.0157 143.683 92.3209 142.726 91.9096C141.769 91.4984 140.71 91.3904 139.69 91.6003C137.787 91.9012 136.033 92.8098 134.69 94.1903C134.225 94.6435 133.857 95.1867 133.61 95.7868C133.362 96.3869 133.24 97.0312 133.25 97.6803C133.25 102.68 133.25 107.75 133.25 112.79C133.25 113.43 133.06 113.59 132.44 113.58C130.73 113.58 129.03 113.58 127.32 113.58C126.81 113.58 126.68 113.43 126.68 112.94C126.68 104.387 126.68 95.8403 126.68 87.3003C126.68 86.8603 126.76 86.6703 127.26 86.6803C128.71 86.6803 130.17 86.6803 131.62 86.6803C131.98 86.6803 132.16 86.7503 132.2 87.1703C132.38 87.9103 132.53 88.6503 132.67 89.5303Z" fill="#3880FE"/>
<path d="M180.351 86C182.516 86.0874 184.632 86.668 186.539 87.6974C188.445 88.7268 190.091 90.1779 191.351 91.94C191.651 92.31 191.611 92.51 191.211 92.77C189.951 93.58 188.691 94.41 187.461 95.27C187.081 95.54 186.901 95.48 186.621 95.12C185.437 93.4402 183.693 92.2381 181.701 91.73C179.659 91.2971 177.529 91.692 175.778 92.8281C174.027 93.9643 172.798 95.7488 172.361 97.79C171.996 99.1352 171.945 100.546 172.212 101.914C172.479 103.283 173.057 104.571 173.901 105.68C174.606 106.588 175.503 107.327 176.529 107.845C177.554 108.364 178.682 108.647 179.83 108.676C180.979 108.705 182.119 108.478 183.169 108.011C184.219 107.545 185.153 106.851 185.901 105.98C186.291 105.54 186.531 104.74 187.121 104.76C187.711 104.78 188.121 105.33 188.591 105.66C189.391 106.19 190.171 106.78 191.011 107.25C191.671 107.63 191.601 107.94 191.191 108.46C185.611 115.4 177.261 115.84 171.191 110.93C166.531 107.16 165.031 102.08 166.571 96.34C168.111 90.6 172.131 87.34 177.971 86.21C178.76 86.0941 179.555 86.024 180.351 86Z" fill="#3880FE"/>
<path d="M92.7905 100.2C92.7905 104.39 92.7905 108.58 92.7905 112.78C92.7905 113.41 92.6105 113.59 91.9805 113.58C90.2705 113.58 88.5705 113.58 86.8605 113.58C86.3505 113.58 86.2305 113.43 86.2305 112.94C86.2305 104.4 86.2305 95.8601 86.2305 87.3201C86.2305 86.8301 86.3605 86.6701 86.8605 86.6801C88.5905 86.6801 90.3305 86.6801 92.0605 86.6801C92.6305 86.6801 92.7905 86.8201 92.7805 87.4001C92.7805 91.6601 92.7905 95.9301 92.7905 100.2Z" fill="#3880FE"/>
<path d="M163.169 100.19C163.169 104.41 163.169 108.63 163.169 112.85C163.169 113.42 163.039 113.59 162.459 113.58C160.729 113.58 158.989 113.58 157.259 113.58C156.759 113.58 156.609 113.45 156.609 112.94C156.609 104.4 156.609 95.8602 156.609 87.3202C156.609 86.8202 156.749 86.6702 157.259 86.6802C158.989 86.6802 160.719 86.6802 162.449 86.6802C163.019 86.6802 163.169 86.8201 163.169 87.3901C163.159 91.6501 163.169 95.9202 163.169 100.19Z" fill="#3880FE"/>
<path d="M53.1992 80.89C53.1992 79.1846 53.8767 77.5491 55.0825 76.3433C56.2884 75.1374 57.9239 74.46 59.6292 74.46C61.3346 74.46 62.9701 75.1374 64.1759 76.3433C65.3818 77.5491 66.0592 79.1846 66.0592 80.89C66.0434 82.5938 65.3562 84.2226 64.1467 85.4227C62.9372 86.6228 61.3031 87.2974 59.5992 87.3C58.7579 87.3 57.9249 87.1341 57.1477 86.8118C56.3706 86.4896 55.6646 86.0173 55.0702 85.4219C54.4758 84.8266 54.0046 84.1198 53.6835 83.3422C53.3625 82.5646 53.1979 81.7313 53.1992 80.89Z" fill="#3880FE"/>
<path d="M109.79 86.0598C107.011 86.0637 104.296 86.8909 101.987 88.4369C99.6784 89.983 97.8794 92.1784 96.8174 94.7462C95.7554 97.3139 95.4781 100.139 96.0204 102.864C96.5627 105.589 97.9004 108.093 99.8646 110.058C101.829 112.024 104.331 113.363 107.056 113.907C109.781 114.452 112.606 114.176 115.174 113.116C117.743 112.056 119.94 110.259 121.487 107.951C123.035 105.643 123.864 102.928 123.87 100.15C123.911 98.2891 123.575 96.4394 122.882 94.7121C122.189 92.9847 121.153 91.4156 119.838 90.0991C118.522 88.7826 116.954 87.7461 115.227 87.0518C113.5 86.3576 111.651 86.0202 109.79 86.0598ZM115.64 105.96C114.709 107.126 113.444 107.98 112.015 108.409C110.585 108.837 109.059 108.82 107.64 108.36C104.47 107.46 102.72 105.19 102.02 102.05C101.948 101.781 101.901 101.507 101.88 101.23C101.88 100.85 101.88 100.47 101.88 100.09C101.79 98.2725 102.311 96.4774 103.361 94.991C104.41 93.5047 105.927 92.4128 107.67 91.8898C108.765 91.5882 109.912 91.5262 111.033 91.7079C112.153 91.8897 113.222 92.311 114.165 92.943C115.109 93.5751 115.905 94.4032 116.499 95.3707C117.094 96.3382 117.473 97.4226 117.61 98.5498C117.865 99.8597 117.82 101.21 117.478 102.5C117.137 103.791 116.509 104.987 115.64 106V105.96Z" fill="#387FFE"/>
</svg>
