<svg width="200" height="200" viewBox="0 0 200 200" fill="none" xmlns="http://www.w3.org/2000/svg">
<g clip-path="url(#clip0)">
<path d="M86.8084 145.41C83.9914 145.268 81.1779 145.749 78.5684 146.82C77.0884 147.48 75.4084 148.13 75.2384 150.02C75.0684 151.91 76.6884 152.94 78.1684 153.75C81.6729 155.558 85.4667 156.739 89.3784 157.24C108.893 160.536 128.839 160.323 148.278 156.61C151.225 156.049 154.102 155.171 156.858 153.99C158.121 153.453 159.344 152.828 160.518 152.12C163.788 150.12 165.898 147.45 164.608 143.23C171.278 146.13 172.078 151.23 166.608 155.86C163.028 158.93 158.668 160.51 154.238 161.86C145.518 164.338 136.55 165.841 127.498 166.34C116.725 167.154 105.902 167.041 95.1484 166C87.1484 165.2 79.2884 164 71.7484 161.14C68.7766 160.147 66.0354 158.565 63.6884 156.49C59.8684 152.86 60.0684 148.75 64.3884 145.79C70.1484 141.85 76.6384 141.35 83.2684 142.53C84.8184 142.81 86.1784 144.16 87.6284 145.02C87.6484 145.73 87.1884 145.5 86.8084 145.41Z" fill="#0A62C2"/>
<path d="M131.531 21.1504C133.35 23.5989 134.52 26.468 134.931 29.4904C135.861 34.9304 134.421 39.8904 131.771 44.5804C128.771 49.8504 124.621 54.1904 120.491 58.5804C117.473 61.5461 114.638 64.6918 112.001 68.0004C109.661 71.1504 107.641 74.4304 108.261 78.6404C108.473 79.6768 108.809 80.6841 109.261 81.6404C111.799 88.0905 114.863 94.3215 118.421 100.27C118.661 100.66 119.131 101.03 118.761 101.75C111.221 96.0004 104.191 89.9004 99.4209 81.6504C97.1009 77.6504 95.5809 73.3604 96.6409 68.5904C97.3844 65.6725 98.8141 62.9743 100.811 60.7204C105.331 55.2104 111.051 51.0004 116.421 46.4304C120.377 43.2618 124.003 39.7003 127.241 35.8004C130.581 31.5104 132.581 26.8204 131.531 21.1504Z" fill="#F6412D"/>
<path d="M151.13 104.9C146.13 109.6 140.99 113.11 133.98 113.9C121.55 115.32 109.14 116.48 96.62 116.05C90.8091 115.976 85.0268 115.224 79.39 113.81C77.5021 113.362 75.7012 112.605 74.06 111.57C71 109.49 70.96 106.41 74.06 104.25C77.16 102.09 80.78 101.35 84.41 100.7C90.1565 99.7572 95.9783 99.3521 101.8 99.4902C100.18 100 98.54 100.49 96.92 101.04C94.5191 101.703 92.2282 102.714 90.12 104.04C89.51 104.46 88.77 104.98 88.89 105.8C89.01 106.62 89.98 106.8 90.67 106.93C95.0291 107.767 99.4616 108.163 103.9 108.11C118.329 108.416 132.76 107.554 147.05 105.53C148.33 105.39 149.6 105.16 151.13 104.9Z" fill="#0A62C2"/>
<path d="M155.859 47.2003C151.539 50.0803 147.469 52.8503 143.629 55.9203C140.373 58.4471 137.36 61.2727 134.629 64.3603C133.278 65.7718 132.407 67.5743 132.141 69.5103C131.875 71.4463 132.228 73.4168 133.149 75.1403C133.999 76.9403 134.949 78.7003 135.899 80.4603C142.039 91.7703 138.079 101.38 125.699 105.19C125.349 105.3 124.989 105.37 124.489 105.49C125.619 104.03 126.749 102.73 127.689 101.31C130.279 97.4103 130.499 93.3903 128.029 89.3103C126.959 87.5503 125.889 85.7903 124.669 84.1303C116.359 72.9203 122.029 61.5903 129.669 56.0303C136.569 51.0303 144.479 48.7103 152.759 47.4003C153.619 47.2703 154.489 47.1703 155.359 47.0703C155.53 47.0977 155.697 47.1413 155.859 47.2003Z" fill="#F6412D"/>
<path d="M95.0615 117.12C92.8915 120.12 93.2615 121.37 96.5015 122.64C100.411 124.17 104.501 124.44 108.651 124.57C117.654 124.981 126.665 123.968 135.351 121.57C135.813 121.409 136.306 121.364 136.789 121.437C137.271 121.51 137.729 121.7 138.121 121.99C140.601 123.65 143.121 125.21 145.931 126.99C142.388 128.524 138.704 129.71 134.931 130.53C121.514 133.731 107.555 133.929 94.0515 131.11C91.1503 130.575 88.3692 129.521 85.8415 128C82.9015 126.11 82.6515 123.83 85.2015 121.42C87.9051 118.91 91.3822 117.393 95.0615 117.12Z" fill="#0A62C2"/>
<path d="M143.479 141.89C140.208 143.877 136.639 145.326 132.909 146.18C121.169 149.07 109.349 149.76 97.4588 147.18C95.1754 146.762 93.0072 145.862 91.0988 144.54C88.6788 142.75 88.3188 140.45 90.1688 138.06C92.4788 135.06 95.7188 134 99.5388 133.74C99.1488 134.74 98.4488 135.63 99.0488 136.58C99.6961 137.442 100.647 138.025 101.709 138.21C105.782 139.208 109.993 139.523 114.169 139.14C120.539 138.74 126.849 137.95 132.869 135.66C133.093 135.551 133.342 135.502 133.591 135.518C133.84 135.533 134.08 135.614 134.289 135.75C137.269 137.78 140.269 139.76 143.479 141.89Z" fill="#0A62C2"/>
<path d="M82.3912 170.08C91.4145 172.082 100.572 173.419 109.791 174.08C129.031 175.25 147.991 174.08 166.121 166.77C171.627 164.6 176.68 161.422 181.021 157.4C180.939 160.176 179.851 162.827 177.961 164.86C174.671 168.64 170.391 170.92 165.841 172.77C158.042 175.827 149.826 177.691 141.471 178.3C123.766 180.04 105.892 178.169 88.9312 172.8C86.7412 172.1 84.5912 171.27 82.4112 170.5C82.3697 170.475 82.3369 170.437 82.3172 170.393C82.2975 170.348 82.292 170.298 82.3012 170.25C82.3312 170.12 82.3612 170.08 82.3912 170.08Z" fill="#0A62C2"/>
<path d="M150.891 133.2C155.294 130.024 159.165 126.169 162.361 121.78C164.215 119.329 165.484 116.487 166.071 113.47C166.961 108.02 163.831 103.79 158.321 102.92C156.84 102.64 155.317 102.674 153.851 103.02C157.481 99.5401 164.101 98.2901 168.511 100.24C173.291 102.34 174.981 106.36 175.101 111.24C175.219 114.191 174.614 117.126 173.338 119.789C172.062 122.452 170.154 124.763 167.781 126.52C163.191 130.2 157.781 132.13 152.131 133.3C151.932 133.388 151.715 133.426 151.498 133.408C151.281 133.391 151.072 133.319 150.891 133.2Z" fill="#0A62C2"/>
<path d="M86.8086 145.41L87.6286 145C87.8089 145.013 87.9822 145.075 88.1301 145.179C88.278 145.283 88.395 145.425 88.4686 145.59C88.1953 145.681 87.9054 145.713 87.6189 145.682C87.3324 145.65 87.056 145.558 86.8086 145.41Z" fill="#3D83CE"/>
<path d="M82.3881 170.08V170.46C81.8958 170.448 81.4268 170.248 81.0781 169.9C81.1734 169.82 81.2845 169.76 81.4042 169.726C81.524 169.691 81.6497 169.682 81.7732 169.699C81.8967 169.716 82.0152 169.758 82.1212 169.824C82.2271 169.89 82.3181 169.977 82.3881 170.08Z" fill="#81AFDF"/>
</g>
<defs>
<clipPath id="clip0">
<rect width="200" height="200" fill="white"/>
</clipPath>
</defs>
</svg>
