<svg width="200" height="200" viewBox="0 0 200 200" fill="none" xmlns="http://www.w3.org/2000/svg">
<path d="M99.6987 106.23C94.2787 111.58 88.0187 114.87 80.1387 113.83C78.2287 113.58 77.8287 114.83 77.1387 116.04C74.0587 121.34 69.0587 123.88 63.9287 122.84C58.4087 121.72 54.3487 117.68 53.5987 112.58C52.7587 106.83 55.1187 102.13 60.7987 99.2102C62.6187 98.2802 62.7387 97.3602 62.5187 95.6402C62.163 92.7886 62.4167 89.8941 63.2632 87.1479C64.1096 84.4018 65.5294 81.8666 67.4287 79.7102C68.5387 78.3502 69.4287 78.0002 70.6987 79.4802C72.1753 81.1668 73.7621 82.7536 75.4487 84.2302C77.4487 85.9602 78.3487 87.4002 76.4487 90.0802C74.3087 93.0802 75.3487 96.2802 77.9787 98.7502C80.6087 101.22 83.7487 101.41 86.8587 99.6002C87.873 98.8734 88.8111 98.0459 89.6587 97.1302C91.9487 93.2402 95.7287 90.7102 98.6587 87.3802C100.939 84.7502 103.539 82.4302 105.959 79.9302C107.829 78.0002 109.469 77.6902 111.529 79.9302C120.299 89.3602 121.059 85.8502 111.469 95.7602C110.589 96.6702 109.469 97.2102 108.529 98.0602C105.529 100.72 103.199 104.09 99.6987 106.23Z" fill="#5090CC"/>
<path d="M93.8617 159C93.8617 155.93 92.8617 152.34 94.1517 149.94C95.4417 147.54 99.1517 150.04 101.942 149.02C106.242 147.46 110.452 151.33 114.112 151.08C117.772 150.83 121.652 148.08 126.032 148.89C132.032 150 134.192 152.49 134.212 158.51C134.212 161.45 134.212 164.39 134.212 167.32C134.212 168.62 134.012 169.41 132.392 169.38C130.772 169.35 130.682 168.38 130.692 167.21C130.692 164.13 130.692 161.05 130.692 157.97C130.592 153.48 127.942 151.26 122.912 151.35C117.882 151.44 115.772 153.42 115.722 157.93C115.838 158.759 115.838 159.601 115.722 160.43C114.812 163.34 117.852 168.77 114.112 168.83C110.222 168.9 113.112 163.49 112.302 160.63C111.992 159.63 112.302 158.4 112.212 157.29C111.842 153.22 108.982 151.15 104.142 151.39C99.3017 151.63 97.3117 153.58 97.2717 157.89C97.2717 160.97 97.2717 164.05 97.2717 167.12C97.2717 168.24 97.4317 169.32 95.6817 169.38C93.7417 169.45 93.7517 168.38 93.7617 166.98C93.7617 164.32 93.7617 161.66 93.7617 158.98L93.8617 159Z" fill="#3C3B41"/>
<path d="M28.3303 152.14C28.3303 155.22 28.4003 158.29 28.3303 161.36C28.1903 166.03 25.6703 168.78 20.9103 169.36C17.0116 169.753 13.0748 169.496 9.26027 168.6C8.37027 168.41 7.13027 168.67 7.32027 167.12C7.51027 165.57 8.38027 165.39 9.72027 165.66C12.8837 166.234 16.1127 166.356 19.3103 166.02C22.7103 165.74 24.6303 164.1 24.5403 160.36C24.4103 154.78 24.4403 149.2 24.5403 143.62C24.5403 142.22 23.4603 139.95 26.3403 139.85C29.7103 139.74 28.1303 142.35 28.2503 143.77C28.5003 146.55 28.3303 149.35 28.3303 152.14Z" fill="#403F45"/>
<path d="M136.732 154.69C136.732 150.5 136.732 146.32 136.732 142.13C136.732 141.03 136.552 139.91 138.292 139.84C140.192 139.76 140.242 140.84 140.232 142.22C140.232 150.46 140.232 158.697 140.232 166.93C140.232 168.19 140.442 169.44 138.422 169.42C136.402 169.4 136.752 168 136.752 166.84C136.722 162.79 136.732 158.74 136.732 154.69Z" fill="#3B3A40"/>
<path d="M181.999 151.35C181.999 154.284 181.999 157.214 181.999 160.14C181.999 161.37 182.269 162.69 180.259 162.73C178.479 162.73 178.189 161.89 178.199 160.41C178.199 154.28 178.199 148.14 178.199 142C178.199 140.76 178.429 139.86 179.979 139.8C181.779 139.72 182.029 140.7 181.979 142.15C181.999 145.22 181.999 148.29 181.999 151.35Z" fill="#4C4C51"/>
<path d="M192.71 143.37C192.58 145.71 191.33 147.37 188.89 147.37C188.395 147.42 187.895 147.362 187.425 147.2C186.955 147.038 186.526 146.776 186.168 146.432C185.809 146.087 185.53 145.669 185.349 145.206C185.168 144.743 185.089 144.246 185.12 143.75C185.12 141.38 186.12 139.81 188.85 139.75C191.32 139.78 192.36 141.08 192.71 143.37Z" fill="#626266"/>
<path d="M98.0482 87.0697C98.1406 87.0921 98.2309 87.1222 98.3182 87.1597C96.6282 82.5097 92.4482 80.0697 89.1682 76.8297C86.6082 74.8297 84.7482 72.1697 82.0982 70.3097C80.218 68.6596 78.4569 66.8785 76.8282 64.9797C74.6582 61.9997 74.9982 58.8197 77.2982 56.0797C79.5982 53.3397 82.9082 52.1797 85.9182 54.2097C88.9282 56.2397 90.4682 55.3897 92.3482 53.0697C93.6011 51.5618 94.9903 50.1726 96.4982 48.9197C98.2082 47.4697 98.1482 46.4497 96.3582 45.0297C92.2484 41.5625 86.9389 39.8526 81.5782 40.2697C79.2282 40.4797 78.2882 39.9197 77.3482 37.7197C76.325 35.2405 74.4969 33.1781 72.1585 31.8647C69.8202 30.5513 67.1077 30.0634 64.4582 30.4797C61.8792 30.8217 59.4676 31.9482 57.5502 33.7065C55.6327 35.4647 54.302 37.7699 53.7382 40.3097C53.174 42.9256 53.4884 45.6547 54.6329 48.0737C55.7773 50.4928 57.6878 52.4668 60.0682 53.6897C62.3982 54.8597 62.9082 56.0797 62.5682 58.5197C62.0829 61.4296 62.2998 64.4133 63.2008 67.2225C64.1018 70.0316 65.6609 72.5849 67.7482 74.6697C74.6682 81.7697 81.7482 88.6697 88.8382 95.6697L98.0482 87.0697Z" fill="#7AC043"/>
<path d="M179.999 165.27C181.549 165.27 182.909 165.66 182.909 167.44C182.909 168.99 181.729 169.44 180.379 169.51C179.029 169.58 177.439 169.27 177.309 167.56C177.179 165.85 178.539 165.33 179.999 165.27Z" fill="#4C4B51"/>
<path d="M145.928 40.5799C145.487 38.1003 144.289 35.8182 142.498 34.0472C140.708 32.2763 138.413 31.1034 135.928 30.6899C129.308 29.7899 124.628 32.3199 121.928 38.6899C121.158 40.5099 120.458 40.8999 118.598 40.5599C111.948 39.3399 106.138 41.3599 101.328 45.9399C95.2583 51.6999 89.5583 57.8599 83.3783 63.5099C80.4783 66.1699 80.4883 68.0199 83.3783 70.2599L88.8383 75.7199C88.9356 75.8107 89.0099 75.9234 89.0551 76.0485C89.1003 76.1737 89.1151 76.3078 89.0983 76.4399C90.6383 76.3499 91.5483 75.1599 92.5483 74.1999C94.8383 71.9799 97.0683 69.6899 99.3483 67.4399C102.587 63.8646 106.022 60.4727 109.638 57.2799C110.463 56.5359 111.373 55.8914 112.348 55.3599C113.565 54.6511 114.988 54.3807 116.38 54.5936C117.772 54.8065 119.049 55.4898 119.998 56.5299C121.998 58.5999 122.628 61.0399 120.998 63.7299C120.522 64.4191 120.183 65.193 119.998 66.0099C120.01 66.0744 120.027 66.1379 120.048 66.1999C120.203 66.1424 120.364 66.1054 120.528 66.0899C121.208 69.6399 125.028 70.7299 126.528 73.6699C128.678 76.3199 130.248 75.8799 132.118 73.1199C135.112 68.854 136.436 63.6373 135.838 58.4599C135.618 56.3899 136.058 55.2999 138.148 54.3699C144.258 51.6999 146.938 46.5999 145.928 40.5799Z" fill="#F8A441"/>
<path d="M173.001 159.46C173.001 156.67 173.001 153.88 173.001 151.09C173.001 150.3 173.161 149.32 172.001 149.17C171.201 149.07 169.861 148.8 169.731 149.55C169.161 152.73 167.661 150.89 166.361 150.35C161.038 148.087 155.039 148.012 149.661 150.14C145.711 151.62 143.141 154.34 143.031 158.86C142.921 163.38 145.261 166.22 149.191 167.86C151.964 169.021 154.94 169.619 157.946 169.619C160.952 169.619 163.928 169.021 166.701 167.86C167.621 167.51 169.131 165.63 169.541 168.56C169.731 169.88 171.151 169.29 172.021 169.25C173.231 169.19 173.021 168.13 173.021 167.35C173.001 164.76 173.001 162.11 173.001 159.46ZM165.061 165.38C162.89 166.456 160.482 166.969 158.061 166.87C151.061 166.87 146.831 163.87 146.811 159.22C146.791 154.57 150.681 151.69 157.321 151.44C161.011 151.3 164.611 151.82 167.321 154.75C170.861 158.64 169.891 163.15 165.071 165.38H165.061Z" fill="#3C3B41"/>
<path d="M55.5917 151.3C49.8917 147.63 39.5917 147.82 34.0817 151.69C28.5717 155.56 28.5217 162.61 33.8917 166.49C37.1471 168.706 41.0532 169.762 44.9817 169.49C48.6246 169.742 52.259 168.892 55.4117 167.05C61.7317 163.21 61.8117 155.3 55.5917 151.3ZM45.0017 166.86C38.3217 166.86 34.0017 163.86 33.8617 159.28C33.7217 154.7 38.0817 151.57 44.7717 151.39C51.4617 151.21 56.2517 154.39 56.3317 159.04C56.4117 163.69 51.8417 166.89 45.0017 166.86Z" fill="#3D3D42"/>
<path d="M87.7896 151.65C82.0396 147.65 71.6996 147.65 65.9496 151.65C60.1996 155.65 60.2796 163.09 66.2796 166.92C69.4192 168.863 73.0849 169.782 76.7696 169.55C80.6486 169.869 84.5221 168.876 87.7696 166.73C93.4196 162.84 93.3696 155.51 87.7896 151.65ZM83.1596 165.65C81.0967 166.562 78.8649 167.029 76.6096 167.02C75.1096 166.74 73.6096 166.54 72.1196 166.18C68.4096 165.26 65.7396 163.18 65.5096 159.18C65.3196 155.84 68.2596 152.79 72.4496 151.91C75.8582 151.069 79.4385 151.243 82.7496 152.41C85.8496 153.59 88.0596 155.53 88.0896 159.11C88.1296 162.52 85.9996 164.42 83.1596 165.7V165.65Z" fill="#3D3C42"/>
<path d="M138.341 99.0001C136.081 98.1101 135.811 97.0001 135.991 95.0001C136.641 87.9401 133.871 82.2101 128.841 77.4101C127.631 76.2501 126.531 74.9901 125.371 73.7701C125.011 70.6401 122.031 69.5001 120.441 67.3001C116.751 64.3001 114.441 59.8201 109.681 58.0801L109.891 58.4701C106.397 61.175 103.259 64.3098 100.551 67.8001L100.261 67.6501L100.141 67.8901C100.461 69.8901 101.981 70.9501 103.241 72.2201C108.621 77.6701 114.121 83.0001 119.451 88.5001C122.261 91.4201 122.571 94.0201 120.761 96.7501C118.951 99.4801 115.961 100.25 112.241 98.7501C111.241 98.3501 110.311 97.5901 109.121 97.6701L108.931 97.8201C109.007 97.8763 109.074 97.9437 109.131 98.0201L100.501 107.21C105.321 112.75 111.551 114.67 118.611 113.68C120.851 113.37 121.611 113.78 122.611 115.8C123.691 118.249 125.554 120.271 127.906 121.548C130.258 122.826 132.968 123.287 135.611 122.86C141.281 121.86 145.491 117.64 146.091 112.35C146.731 106.12 144.181 101.27 138.341 99.0001Z" fill="#F34321"/>
</svg>
