<svg width="200" height="200" viewBox="0 0 200 200" fill="none" xmlns="http://www.w3.org/2000/svg">
<path d="M29.2094 177.82C25.8894 178.59 23.2794 178.28 21.7294 174.9C20.85 173.23 19.5892 171.791 18.0494 170.7C18.0494 172.94 17.9894 174.7 18.0494 176.51C18.1394 178.56 16.6794 178.06 15.5794 178.06C14.4794 178.06 13.0594 178.58 13.0694 176.52C13.1194 169.3 12.9894 162.07 13.1494 154.85C13.1994 152.27 15.7094 153.26 17.1494 152.98C18.5894 152.7 18.0494 154.16 18.0594 154.88C18.0594 158.65 18.0594 162.41 18.0594 166.75C21.4594 164.06 23.1094 158.75 28.8394 161.33C27.2194 163.11 25.6194 165.06 23.8394 166.78C22.5994 167.96 22.3894 168.67 23.7294 170.01C25.9926 172.278 27.8466 174.92 29.2094 177.82Z" fill="#3279E1"/>
<path d="M103.5 169.55C103.5 167.3 103.5 165.06 103.5 162.81C103.5 161.87 103.74 161.33 104.77 161.16C107.54 160.71 110.28 160.16 113.11 160.74C114.357 160.894 115.516 161.46 116.406 162.347C117.295 163.235 117.863 164.393 118.02 165.64C118.68 169.39 118.37 173.17 118.28 176.92C118.28 178.99 116.28 177.81 115.28 178.04C114.28 178.27 113.48 177.93 113.51 176.55C113.57 173.66 113.6 170.77 113.44 167.89C113.3 165.33 112.29 164.56 109.97 164.62C108.71 164.62 108.33 165.14 108.35 166.36C108.41 169.65 108.25 172.94 108.41 176.22C108.51 178.3 107.31 178.12 105.98 178.08C104.65 178.04 103.35 178.44 103.5 176.28C103.65 174.12 103.5 171.79 103.5 169.55Z" fill="#3178E1"/>
<path d="M46.2992 169.23C46.2992 171.4 46.2092 173.57 46.2992 175.73C46.3692 177.16 45.8192 177.73 44.4492 177.89C42.0899 178.361 39.675 178.489 37.2792 178.27C34.0192 177.78 32.0292 176.09 31.7692 172.88C31.5142 169.279 31.4641 165.667 31.6192 162.06C31.6892 159.89 33.5592 161.13 34.6192 160.89C35.6792 160.65 36.4692 160.89 36.4292 162.34C36.3492 164.91 36.3792 167.48 36.4292 170.04C36.3996 170.923 36.5145 171.804 36.7692 172.65C37.3792 174.37 38.8992 174.37 40.3892 174.24C41.8792 174.11 41.3892 172.85 41.3892 172.01C41.4492 169.01 41.5592 166.07 41.3892 163.11C41.2492 161.02 42.1892 160.85 43.8992 160.79C45.8092 160.73 46.4492 161.31 46.2992 163.22C46.1492 165.13 46.2992 167.22 46.2992 169.23Z" fill="#3178E1"/>
<path d="M141.641 165.17C141.641 162.85 141.641 160.52 141.641 158.17C141.641 155.31 144.021 156.38 145.351 156.04C147.031 155.62 146.541 157.27 146.421 157.98C145.961 160.68 147.351 161.05 149.551 160.85C150.901 160.73 152.471 160.33 152.351 162.85C152.281 164.52 151.841 165.03 150.161 165C146.471 164.94 146.471 165 146.471 168.67C146.471 169.31 146.471 169.95 146.471 170.59C146.541 173.8 147.471 174.7 150.581 174.21C152.041 173.98 152.481 174.21 152.741 175.72C153.001 177.23 152.691 177.87 151.151 178.2C144.961 179.55 141.681 177.01 141.641 170.72C141.631 168.86 141.641 167 141.641 165.17Z" fill="#3178E1"/>
<path d="M179.29 178.62C178.12 178.45 177.01 178.27 175.9 178.14C173.99 177.92 173.61 176.99 174.14 175.14C174.49 173.95 174.81 173.5 176.07 173.96C177.351 174.419 178.714 174.603 180.07 174.5C180.81 174.5 181.81 174.5 181.95 173.42C182.07 172.53 181.31 172.18 180.66 171.88C179.5 171.34 178.3 170.88 177.13 170.35C174.74 169.27 173.94 167.35 174.23 164.84C174.51 162.55 176.01 161.37 178.09 160.74C180.284 160.221 182.574 160.259 184.75 160.85C186.4 161.18 185.88 162.26 185.66 163.27C185.44 164.28 185.38 165.17 183.88 164.66C182.751 164.216 181.517 164.112 180.33 164.36C179.77 164.5 179.21 164.67 179.06 165.36C178.991 165.679 179.041 166.012 179.202 166.296C179.362 166.58 179.621 166.795 179.93 166.9C181.09 167.45 182.31 167.9 183.46 168.44C186.18 169.75 187.22 171.54 186.8 174.16C186.38 176.78 184.59 177.75 182.31 178.16C181.32 178.41 180.28 178.49 179.29 178.62Z" fill="#3178E1"/>
<path d="M89.6603 169.64C89.6603 167.56 89.6603 165.48 89.6603 163.39C89.6603 162.39 89.8003 161.7 90.9003 161.39C93.6715 160.565 96.5891 160.354 99.4503 160.77C100.92 161.03 100.85 161.9 100.53 162.86C100.21 163.82 100.69 165.42 98.7303 164.86C98.263 164.752 97.7884 164.678 97.3103 164.64C95.3103 164.37 94.3103 164.89 94.4903 167.19C94.6903 170.19 94.4903 173.28 94.5703 176.31C94.6503 178.26 93.4503 178.08 92.2403 178.02C91.0303 177.96 89.5403 178.52 89.6503 176.32C89.7603 174.12 89.6603 171.89 89.6603 169.64Z" fill="#347AE2"/>
<path d="M56.43 161C56.2191 160.993 56.0103 160.956 55.81 160.89C55.81 158.77 55.81 156.62 55.81 154.46C55.81 153.94 56.04 153.29 55.44 152.93C53.99 152.08 51 153.86 51 155.57C51 161.02 51 166.46 51 171.91C51 178.33 51.21 178.54 57.78 178.51C58.5794 178.493 59.3757 178.406 60.16 178.25C61.6423 178.062 63.034 177.433 64.1552 176.445C65.2765 175.458 66.0759 174.157 66.45 172.71C68.83 165 64.32 159.74 56.43 161ZM61.83 170.82C61.38 172.82 60.44 174.15 58.22 174.34C56.43 174.5 55.48 174.02 55.79 172.02C55.8501 171.228 55.8501 170.432 55.79 169.64C55.79 168.92 55.79 168.21 55.79 167.49C55.79 164.93 57.79 163.82 60.06 165.05C61.59 165.82 62.38 168.39 61.83 170.79V170.82Z" fill="#3078E1"/>
<path d="M128.9 160.51C124.69 161.26 122.01 164.66 121.9 169.34C121.83 174.22 124.19 177.34 128.6 178.27C130.87 178.77 133.06 178.27 135.28 178.02C137.28 177.74 136.75 176.35 136.64 175.11C136.51 173.45 135.52 173.81 134.41 174.02C132.11 174.44 129.77 174.78 127.8 172.97C127.566 172.81 127.381 172.59 127.263 172.332C127.145 172.075 127.099 171.791 127.13 171.51C127.32 170.76 128.04 171.03 128.56 171.02C129.84 171.02 131.13 171.02 132.41 171.02C133.86 171.02 135.3 171.02 136.75 171.02C136.901 171.045 137.056 171.039 137.205 171.001C137.353 170.964 137.493 170.896 137.614 170.802C137.735 170.708 137.836 170.59 137.909 170.455C137.982 170.321 138.027 170.172 138.04 170.02C138.302 168.748 138.251 167.431 137.891 166.184C137.531 164.936 136.873 163.795 135.973 162.859C135.073 161.923 133.959 161.219 132.727 160.81C131.494 160.401 130.181 160.298 128.9 160.51ZM133.08 166.93C132.9 168.49 131.08 167.3 130.08 167.8C129.21 167.16 127.36 168.67 127.29 166.8C127.23 165.33 128.63 164.57 130.18 164.53C131.73 164.49 133.26 165.37 133.08 166.93Z" fill="#3178E1"/>
<path d="M76.2407 160.66C72.1307 161.66 69.7507 165.11 69.8507 169.91C69.9407 174.46 72.3707 177.39 76.6207 178.28C78.6835 178.556 80.7774 178.496 82.8207 178.1C84.6407 177.89 84.9307 176.96 84.6607 175.29C84.3507 173.36 83.3207 173.88 82.0807 174.09C79.9507 174.45 77.7507 174.69 75.8907 173.09C75.6127 172.923 75.391 172.677 75.2538 172.383C75.1166 172.089 75.0703 171.761 75.1207 171.44C75.3407 170.73 76.0607 171 76.5807 170.99C77.8607 170.99 79.1407 170.99 80.4307 170.99C81.7207 170.99 83.1507 170.99 84.5107 170.99C85.3907 170.99 85.7807 170.7 85.9507 169.81C86.211 168.502 86.1346 167.149 85.7286 165.879C85.3225 164.608 84.6002 163.461 83.6294 162.547C82.6586 161.632 81.4712 160.979 80.1787 160.649C78.8863 160.319 77.5312 160.323 76.2407 160.66ZM81.0007 167C80.7807 168.69 78.9107 167 78.0607 167.95C77.0607 167.15 75.1907 168.75 75.1807 166.75C75.1807 165.27 76.5607 164.55 78.1007 164.53C79.8307 164.48 81.2207 165.44 81.0007 167Z" fill="#3178E1"/>
<path d="M161.938 160.53C157.108 161.14 154.478 165.21 154.938 170.89C155.318 175.67 158.728 178.58 164.008 178.51C165.445 178.419 166.874 178.239 168.288 177.97C169.578 177.79 169.838 177.16 169.688 175.83C169.478 173.99 168.988 173.6 167.128 174.04C164.888 174.57 162.458 174.79 160.588 172.83C160.208 172.44 159.778 171.95 160.068 171.34C160.358 170.73 160.908 171.03 161.348 171.02C162.638 171.02 163.918 171.02 165.198 171.02H169.538C170.178 171.02 170.838 171.02 170.918 170.11C171.358 164.49 168.348 159.71 161.938 160.53ZM165.938 166.81C165.718 168.76 163.778 166.97 162.938 167.88C161.938 167.27 160.158 168.45 160.098 166.88C160.038 165.31 161.438 164.45 163.098 164.49C164.758 164.53 166.118 165.35 165.998 166.81H165.938Z" fill="#3178E1"/>
<path d="M154.218 85.2799C151.165 72.2399 148.165 59.1866 145.218 46.1199C144.95 44.6619 144.323 43.2935 143.395 42.1379C142.466 40.9823 141.265 40.0758 139.898 39.4999C127.898 33.8666 115.955 28.1666 104.068 22.3999C102.835 21.7518 101.462 21.4131 100.068 21.4131C98.6749 21.4131 97.3021 21.7518 96.0685 22.3999C84.0685 28.1999 72.0485 33.9333 60.0085 39.5999C58.6895 40.1633 57.5287 41.0412 56.6274 42.1569C55.7262 43.2726 55.112 44.592 54.8385 45.9999C51.9518 58.8466 49.0051 71.6699 45.9985 84.4699C45.609 85.8589 45.5715 87.323 45.8892 88.7301C46.2069 90.1372 46.87 91.4431 47.8185 92.5299C56.1185 102.737 64.3685 112.993 72.5685 123.3C73.4739 124.525 74.6702 125.506 76.0494 126.154C77.4285 126.802 78.9472 127.096 80.4685 127.01C86.9685 126.93 93.4685 127.01 99.9785 127.01C106.728 127.01 113.468 127.01 120.208 127.01C121.493 127.085 122.776 126.852 123.952 126.33C125.128 125.808 126.162 125.013 126.968 124.01C135.548 113.29 144.138 102.583 152.738 91.8899C153.504 90.9915 154.039 89.9199 154.297 88.7681C154.554 87.6163 154.528 86.419 154.218 85.2799ZM139.798 85.0899C139.328 87.0899 137.598 86.9199 136.058 86.4899C134.518 86.0599 133.198 85.4899 131.738 85.0099C129.348 84.2999 128.228 84.8599 127.288 87.1299C125.185 92.4761 121.492 97.0484 116.708 100.23C114.858 101.45 114.828 102.84 115.648 104.46C116.468 106.08 117.438 107.31 118.288 108.76C119.398 110.63 119.148 112.35 117.608 112.85C115.698 113.48 114.848 112.18 114.218 110.67C113.308 108.5 113.358 105.81 111.088 104.37C108.818 102.93 106.728 104.94 104.528 105.16C100.223 105.753 95.8403 105.412 91.6785 104.16C89.4985 103.43 88.3285 104.34 87.5185 106.04C86.8285 107.48 86.4285 109.04 85.8685 110.55C85.3085 112.06 84.3685 113.74 82.3985 112.85C80.4285 111.96 80.9585 110.31 81.8085 108.75C82.9285 106.69 85.0685 105.05 84.7385 102.36C84.4085 99.6699 81.6085 99.2599 80.0685 97.6799C76.9081 94.6817 74.4289 91.0396 72.7985 86.9999C71.9885 84.8099 70.5385 84.5099 68.6885 84.9999C67.1385 85.3799 65.6885 86.0599 64.1385 86.5399C62.0785 87.1899 60.3685 86.5399 60.2085 85.0699C59.9985 83.0699 61.3685 82.5299 63.0285 82.1999C65.3285 81.7299 68.0285 82.4899 69.8785 80.5299C71.7285 78.5699 70.3785 75.9899 70.6285 73.7199C70.9775 69.4656 72.2614 65.3408 74.3885 61.6399C75.6485 59.5699 74.9585 58.2199 73.3885 56.9899C72.3885 56.2099 71.2285 55.5999 70.1385 54.9199C69.0485 54.2399 67.5585 53.4499 67.6285 51.7099C67.6362 51.2593 67.8015 50.8256 68.0956 50.484C68.3897 50.1425 68.794 49.9146 69.2385 49.8399C70.9385 49.4499 71.8785 50.6799 72.8985 51.6799C73.9185 52.6799 74.6385 53.5799 75.6385 54.3799C77.1285 55.5599 78.5185 55.9499 80.2185 54.3099C84.1873 50.5046 89.2138 47.9878 94.6385 47.0899C97.9485 46.4899 98.4285 45.8599 98.2485 41.8999C98.1485 41.2399 97.8985 39.9699 97.7985 38.6999C97.6585 36.9799 97.8985 35.2199 100.078 35.2299C102.258 35.2399 102.368 36.9299 102.248 38.5599C102.128 40.1899 101.858 41.5599 101.758 43.0999C101.608 45.2699 102.388 46.6799 104.758 47.0399C110.367 47.8521 115.586 50.3813 119.698 54.2799C121.498 55.9699 122.998 55.5199 124.518 54.2799C125.808 53.1999 126.888 51.8799 128.128 50.7399C129.368 49.5999 130.688 49.0799 131.898 50.5499C133.108 52.0199 132.228 53.2899 130.978 54.2099C129.728 55.1299 128.088 55.9399 126.738 56.9399C125.058 58.1799 124.298 59.5399 125.628 61.7499C128.594 66.6773 129.904 72.4242 129.368 78.1499C129.198 80.2699 130.238 81.1499 131.898 81.4999C133.558 81.8499 135.388 81.9499 137.128 82.2199C138.868 82.4899 140.258 83.1499 139.798 85.0899Z" fill="#3077E1"/>
<path d="M76.5391 75.7396C76.6035 72.0995 77.478 68.5194 79.0991 65.2596C79.5991 64.2596 80.0391 63.6196 81.1691 64.6896C83.5591 66.9496 86.0891 69.0596 88.4691 71.3196C90.1391 72.9096 89.8791 74.4596 87.7891 75.1496C84.5346 76.2726 81.2234 77.2239 77.8691 77.9996C75.1691 78.5696 77.6291 75.9996 76.5391 75.7396Z" fill="#3177E1"/>
<path d="M110.279 81.9999C113.879 82.5999 117.419 83.2199 120.969 83.7899C122.109 83.9699 121.969 84.5999 121.599 85.3399C119.962 89.1573 117.339 92.4705 113.999 94.9399C113.169 95.5599 112.689 95.6399 112.249 94.5399C110.949 91.2799 109.519 88.0699 108.249 84.7899C108.109 84.4703 108.056 84.1197 108.094 83.773C108.132 83.4263 108.26 83.0956 108.465 82.8135C108.67 82.5315 108.945 82.3081 109.264 82.1654C109.582 82.0226 109.932 81.9656 110.279 81.9999Z" fill="#3177E1"/>
<path d="M97.0019 54.5603C96.8619 57.5003 96.7719 60.4503 96.5719 63.4003C96.3519 66.5103 94.8919 67.2203 92.3819 65.4803C89.8719 63.7403 87.4819 61.9203 85.0019 60.2403C83.7419 59.4003 83.8519 58.8603 85.0019 57.9803C88.0552 55.5096 91.6498 53.7963 95.4919 52.9803C96.7419 52.6803 97.5019 53.0003 97.0019 54.5603Z" fill="#3077E1"/>
<path d="M99.9088 99.5296C97.7488 99.3096 94.6288 99.8396 93.4488 98.1996C92.2688 96.5596 94.8888 94.4496 95.7388 92.5096C96.3935 91.0523 97.1486 89.6422 97.9988 88.2896C99.1988 86.3596 100.759 86.2896 101.889 88.1396C103.659 91.1396 105.229 94.1396 106.889 97.1396C107.429 98.1396 106.989 98.4096 106.149 98.6296C104.103 99.1337 102.013 99.4351 99.9088 99.5296Z" fill="#3077E1"/>
<path d="M104.141 52.8801C108.273 53.6613 112.132 55.5012 115.341 58.2201C116.141 58.9001 116.231 59.4001 115.281 60.0501C112.521 62.0001 109.841 64.0001 107.001 65.8201C105.151 67.0501 103.681 66.3201 103.511 64.1201C103.251 60.8601 103.161 57.5801 102.941 54.3201C102.901 53.1601 103.251 52.6301 104.141 52.8801Z" fill="#3177E1"/>
<path d="M89.7586 82.0001C90.1317 81.9474 90.5121 82.0013 90.8559 82.1554C91.1998 82.3095 91.4931 82.5576 91.7021 82.8711C91.9111 83.1846 92.0273 83.5508 92.0373 83.9274C92.0473 84.3041 91.9507 84.6759 91.7586 85.0001C90.5486 88.2201 89.1386 91.3601 87.8486 94.5501C87.3886 95.7101 86.8486 95.4601 86.0486 94.8801C82.7559 92.4272 80.1576 89.1603 78.5086 85.4001C78.1986 84.7001 77.9086 84.0101 79.0886 83.8201C82.6586 83.2001 86.2086 82.5901 89.7586 82.0001Z" fill="#3077E1"/>
<path d="M123.422 75.2203C123.492 78.4003 123.492 78.4003 120.422 77.5003C117.882 76.7703 115.322 76.1003 112.812 75.3003C110.302 74.5003 109.812 72.9103 111.752 71.1203C114.092 68.9303 116.562 66.8703 118.892 64.6803C119.892 63.7703 120.302 64.0603 120.822 65.0803C122.456 68.2156 123.346 71.6854 123.422 75.2203Z" fill="#3077E1"/>
<path d="M103.902 75.9997C103.662 78.2897 101.642 80.2197 99.7419 79.9997C98.6707 79.8084 97.7038 79.2387 97.0174 78.3944C96.3309 77.5501 95.9706 76.4874 96.0019 75.3997C96.1519 73.5797 98.6319 71.9697 100.862 72.2397C101.704 72.4591 102.454 72.9426 103.001 73.6193C103.548 74.296 103.864 75.1303 103.902 75.9997Z" fill="#3278E1"/>
</svg>
