<svg width="200" height="200" viewBox="0 0 200 200" fill="none" xmlns="http://www.w3.org/2000/svg">
<path d="M36.8903 39.9996C43.3403 39.9996 49.7803 40.0796 56.2303 39.9996C57.3083 39.9133 58.3874 40.1532 59.3272 40.6882C60.2671 41.2232 61.0243 42.0286 61.5003 42.9996C75.2003 66.4596 89.0003 89.8796 102.68 113.36C103.68 115.16 104.61 115.66 106.68 115.12C121.21 111.43 135.77 107.9 150.33 104.38C151.87 104.01 152.12 103.72 151.15 102.38C146.1 95.1596 141.15 87.8796 136.15 80.6096C133.68 77.0096 134.82 74.3596 139.15 73.7196C147.43 72.4896 155.72 71.3096 164.01 70.0996C164.784 69.9486 165.584 70.0294 166.312 70.3319C167.04 70.6343 167.662 71.1449 168.1 71.7996C174.29 80.4396 180.5 89.0696 186.63 97.7996C188.42 100.34 187.28 103.07 184.2 103.8C178.33 105.28 172.45 106.74 166.55 108.11C164.94 108.48 164.65 108.83 165.67 110.28C171.29 118.28 176.82 126.44 182.38 134.53C184.7 137.91 183.95 140.22 180.07 141.53L125.7 159.63C122.83 160.63 121.44 160.07 119.91 157.47C113.71 146.91 107.524 136.34 101.35 125.76C101.264 125.521 101.129 125.303 100.955 125.118C100.78 124.934 100.57 124.787 100.337 124.686C100.103 124.586 99.8521 124.535 99.5982 124.535C99.3443 124.536 99.0932 124.588 98.8603 124.69C86.8603 127.69 74.8603 130.61 62.8603 133.53C60.2203 134.18 58.9203 133.61 57.6503 131.18C42.837 102.84 28.0403 74.4896 13.2603 46.1296C11.4603 42.6596 13.1003 39.9996 17.0003 39.9996H36.8903Z" fill="#B73B2F"/>
<path d="M39.1098 47.4798C44.1098 47.4798 48.9998 47.4798 53.9398 47.4798C54.3953 47.4382 54.8524 47.5402 55.247 47.7715C55.6415 48.0029 55.9538 48.352 56.1398 48.7698C62.6498 59.8898 69.2298 70.9998 75.7698 82.1398C81.9232 92.5798 88.0332 103.03 94.0998 113.49C96.4398 117.49 96.4098 117.56 91.9298 118.67C82.8598 120.92 73.7798 123.11 64.7198 125.39C64.5066 125.476 64.2778 125.517 64.048 125.509C63.8182 125.502 63.5925 125.446 63.3853 125.346C63.1782 125.247 62.9942 125.105 62.8451 124.93C62.6961 124.755 62.5853 124.55 62.5198 124.33C57.9898 115.56 53.4098 106.81 48.8498 98.0598C42.5298 85.9331 36.1965 73.7998 29.8498 61.6598C27.7098 57.5598 25.5098 53.4998 23.3698 49.3998C22.3698 47.4998 22.3698 47.4798 24.6298 47.4798H39.1098Z" fill="#F54F3F"/>
<path d="M125.561 151.72C125.021 151.83 124.971 151.1 124.711 150.67C121.024 144.443 117.357 138.21 113.711 131.97C112.191 129.39 110.661 126.816 109.121 124.25C108.451 123.15 108.061 122.47 109.931 122.02C125.131 118.38 140.311 114.653 155.471 110.84C155.859 110.677 156.295 110.669 156.69 110.818C157.084 110.967 157.406 111.261 157.591 111.64C162.731 119.173 167.887 126.683 173.061 134.17C173.701 135.08 174.061 135.62 172.611 136.11C157.277 141.19 141.944 146.3 126.611 151.44L125.561 151.72Z" fill="#F54F3F"/>
<path d="M162.222 77.9103C162.515 77.8532 162.819 77.8856 163.094 78.0033C163.368 78.121 163.601 78.3185 163.762 78.5702C168.055 84.5702 172.365 90.5936 176.692 96.6402C177.302 97.4802 176.982 97.7902 176.132 98.0002C171.062 99.2602 165.992 100.52 160.932 101.82C159.932 102.08 159.592 101.42 159.172 100.82C155.839 95.9402 152.505 91.0569 149.172 86.1702C148.082 84.5702 146.952 83.0102 145.882 81.4002C145.532 80.8702 145.172 80.2902 146.322 80.1402C151.542 79.4202 156.762 78.6503 161.982 77.9103C162.062 77.9006 162.142 77.9006 162.222 77.9103Z" fill="#F54F3F"/>
</svg>
