<svg width="200" height="200" viewBox="0 0 200 200" fill="none" xmlns="http://www.w3.org/2000/svg">
<path d="M30.9181 176.44C30.9181 174.07 30.9181 171.69 30.9181 169.32C30.9181 168.76 31.0681 168.56 31.6381 168.58C32.5781 168.58 33.5281 168.58 34.4681 168.58C35.0981 168.58 35.2581 168.8 35.2681 169.37C35.2763 170.289 35.1413 171.203 34.8681 172.08C34.8681 172.27 34.6481 172.55 34.8681 172.65C35.0881 172.75 35.2481 172.42 35.3281 172.22C35.6097 171.462 35.9825 170.74 36.4381 170.07C36.9448 169.312 37.6829 168.738 38.5425 168.434C39.4021 168.129 40.3371 168.11 41.2081 168.38C42.017 168.599 42.7369 169.066 43.2662 169.715C43.7955 170.365 44.1075 171.164 44.1581 172C44.1581 172.22 44.0681 172.58 44.3881 172.61C44.7081 172.64 44.6881 172.28 44.7881 172.07C44.9681 171.68 45.1081 171.27 45.3081 170.89C45.7433 169.991 46.449 169.249 47.3266 168.771C48.2041 168.292 49.2094 168.1 50.2016 168.221C51.1939 168.342 52.1233 168.771 52.8597 169.447C53.5961 170.123 54.1026 171.012 54.3081 171.99C54.5361 172.879 54.6503 173.793 54.6481 174.71C54.6481 177.65 54.6481 180.59 54.6481 183.53C54.6481 184.19 54.4381 184.34 53.8281 184.32C52.4481 184.32 51.0681 184.27 49.6981 184.32C49.0681 184.32 48.9481 184.12 48.9481 183.54C48.9481 180.95 48.9481 178.36 48.9481 175.77C48.9598 175.259 48.906 174.748 48.7881 174.25C48.6281 173.61 48.3581 173.07 47.6181 172.98C46.8781 172.89 46.4881 173.4 46.2081 173.98C45.8388 174.793 45.6576 175.678 45.6781 176.57C45.6781 178.87 45.6781 181.16 45.6781 183.45C45.6781 184.1 45.5381 184.34 44.8381 184.32C43.4381 184.26 42.0381 184.27 40.6381 184.32C40.0381 184.32 39.8481 184.19 39.8581 183.57C39.8581 180.84 39.8581 178.12 39.8581 175.4C39.8866 174.86 39.8049 174.319 39.6181 173.81C39.5477 173.598 39.4204 173.409 39.2499 173.265C39.0794 173.12 38.8724 173.025 38.6515 172.99C38.4307 172.954 38.2044 172.981 37.9974 173.066C37.7905 173.15 37.6108 173.29 37.4781 173.47C36.8903 174.257 36.587 175.219 36.6181 176.2C36.6181 178.63 36.6181 181.05 36.6181 183.48C36.6181 184.16 36.4381 184.35 35.7681 184.33C34.3681 184.27 32.9681 184.28 31.5581 184.33C30.9981 184.33 30.8281 184.18 30.8281 183.61C30.9281 181.24 30.9181 178.84 30.9181 176.44Z" fill="black"/>
<path d="M128.002 176.46C128.002 174.11 128.002 171.77 128.002 169.46C128.002 168.76 128.212 168.58 128.872 168.62C129.758 168.675 130.646 168.675 131.532 168.62C132.172 168.62 132.322 168.87 132.332 169.41C132.352 170.285 132.241 171.158 132.002 172C131.932 172.21 131.752 172.53 132.002 172.64C132.252 172.75 132.352 172.39 132.432 172.18C132.733 171.401 133.129 170.662 133.612 169.98C134.135 169.232 134.886 168.672 135.753 168.386C136.62 168.099 137.556 168.101 138.422 168.39C139.215 168.63 139.914 169.109 140.423 169.763C140.932 170.417 141.225 171.213 141.262 172.04C141.262 172.26 141.152 172.62 141.482 172.64C141.812 172.66 141.782 172.31 141.882 172.1C142.086 171.602 142.316 171.114 142.572 170.64C143 169.787 143.691 169.095 144.542 168.664C145.394 168.234 146.361 168.089 147.302 168.25C148.239 168.332 149.128 168.703 149.845 169.312C150.561 169.921 151.071 170.738 151.302 171.65C151.649 172.872 151.805 174.141 151.762 175.41C151.762 178.14 151.762 180.86 151.762 183.58C151.762 184.19 151.612 184.37 150.992 184.35C149.572 184.35 148.132 184.35 146.712 184.35C146.152 184.35 146.032 184.17 146.032 183.66C146.032 180.99 146.032 178.32 146.032 175.66C146.076 175.036 145.977 174.41 145.742 173.83C145.67 173.608 145.535 173.412 145.353 173.266C145.171 173.121 144.95 173.032 144.718 173.01C144.486 172.989 144.252 173.036 144.047 173.147C143.841 173.257 143.673 173.425 143.562 173.63C143.008 174.504 142.739 175.528 142.792 176.56C142.792 178.9 142.792 181.25 142.792 183.56C142.792 184.16 142.632 184.34 142.022 184.32C140.592 184.32 139.162 184.27 137.732 184.32C137.082 184.32 137.002 184.08 137.002 183.52C137.002 181.01 137.002 178.52 137.002 175.99C137.022 175.342 136.961 174.694 136.822 174.06C136.784 173.79 136.661 173.54 136.47 173.345C136.279 173.151 136.031 173.023 135.762 172.98C135.492 172.935 135.214 172.981 134.972 173.109C134.73 173.237 134.537 173.441 134.422 173.69C133.936 174.538 133.697 175.504 133.732 176.48C133.732 178.8 133.732 181.12 133.732 183.48C133.732 184.22 133.512 184.38 132.822 184.36C131.442 184.3 130.062 184.31 128.692 184.36C128.062 184.36 127.932 184.17 127.942 183.58C128.002 181.21 128.002 178.84 128.002 176.46Z" fill="black"/>
<path d="M103.551 174C103.551 170.85 103.551 167.69 103.551 164.54C103.551 163.95 103.681 163.73 104.311 163.76C105.491 163.76 106.681 163.76 107.871 163.76C108.421 163.76 108.631 163.94 108.681 164.47C108.915 166.825 108.687 169.203 108.011 171.47C108.011 171.62 107.901 171.77 107.861 171.93C107.821 172.09 107.581 172.52 107.861 172.63C108.141 172.74 108.211 172.31 108.341 172.1C108.621 171.61 108.831 171.1 109.141 170.61C109.693 169.668 110.543 168.936 111.556 168.528C112.57 168.121 113.69 168.062 114.741 168.36C116.981 168.89 117.881 170.55 118.261 172.62C118.481 174.033 118.571 175.462 118.531 176.89C118.531 179.13 118.531 181.37 118.531 183.6C118.531 184.22 118.351 184.38 117.751 184.36C116.321 184.36 114.891 184.36 113.471 184.36C112.901 184.36 112.741 184.21 112.741 183.64C112.741 181.11 112.741 178.58 112.741 176.04C112.766 175.42 112.715 174.799 112.591 174.19C112.551 173.908 112.424 173.644 112.227 173.438C112.029 173.231 111.772 173.092 111.491 173.04C111.196 172.984 110.892 173.023 110.62 173.15C110.349 173.278 110.125 173.488 109.981 173.75C109.546 174.406 109.31 175.174 109.301 175.96C109.301 178.47 109.221 180.96 109.301 183.48C109.301 184.2 109.111 184.4 108.401 184.37C107.051 184.31 105.701 184.31 104.401 184.37C103.691 184.37 103.561 184.15 103.571 183.51C103.571 180.35 103.551 177.2 103.551 174Z" fill="black"/>
<path d="M101.721 175.32C100.051 174.31 98.1329 173.784 96.1811 173.8C95.4208 173.806 94.6756 174.013 94.0211 174.4C93.6033 174.628 93.2614 174.974 93.0375 175.394C92.8136 175.814 92.7175 176.291 92.7611 176.765C92.8047 177.239 92.986 177.69 93.2828 178.062C93.5795 178.434 93.9787 178.712 94.4311 178.86C96.2499 179.435 98.2207 179.285 99.9311 178.44C100.501 178.2 101.031 177.89 101.711 177.54V182.54C101.711 182.77 101.531 182.91 101.351 183.04C99.801 184.131 97.9517 184.716 96.0561 184.716C94.1605 184.716 92.3112 184.131 90.7611 183.04C89.9867 182.384 89.3495 181.582 88.8861 180.679C88.4228 179.777 88.1424 178.791 88.0611 177.78C87.8911 176.686 87.8911 175.573 88.0611 174.48C88.7611 170.48 91.7811 168.09 96.0611 168.2C97.7964 168.172 99.5125 168.566 101.061 169.35C101.283 169.438 101.471 169.596 101.595 169.799C101.72 170.003 101.774 170.242 101.751 170.48C101.691 172.05 101.721 173.61 101.721 175.32Z" fill="black"/>
<path d="M86.4492 174.06C86.4492 177.24 86.4492 180.42 86.4492 183.6C86.4492 184.2 86.2992 184.38 85.6892 184.36C84.2592 184.36 82.8292 184.36 81.3992 184.36C80.9092 184.36 80.6992 184.26 80.6992 183.7C80.6992 177.286 80.6992 170.873 80.6992 164.46C80.6992 163.89 80.9292 163.8 81.4192 163.8C82.8392 163.8 84.2692 163.8 85.6992 163.8C86.3392 163.8 86.4492 164.03 86.4492 164.6C86.4392 167.75 86.4492 170.91 86.4492 174.06Z" fill="black"/>
<path d="M73.1394 168.64C74.8535 169.286 76.7359 169.331 78.4794 168.77C78.8394 168.65 78.9094 168.77 78.8994 169.09V170.3C78.8994 174.69 78.8994 179.09 78.8994 183.48C78.8994 184.21 78.6994 184.39 77.9994 184.37C76.5694 184.31 75.1394 184.37 73.7094 184.37C73.3494 184.37 73.1094 184.37 73.1094 183.87C73.1394 178.81 73.1394 173.77 73.1394 168.64Z" fill="black"/>
<path d="M120.459 168.69C122.17 169.3 124.035 169.321 125.759 168.75C126.229 168.59 126.089 168.97 126.099 169.15C126.099 170.28 126.099 171.42 126.099 172.55C126.099 176.24 126.099 179.93 126.099 183.63C126.099 184.17 125.989 184.38 125.399 184.36C123.919 184.36 122.399 184.36 120.949 184.36C120.569 184.36 120.359 184.36 120.359 183.85C120.359 178.85 120.359 173.85 120.359 168.85C120.387 168.794 120.421 168.74 120.459 168.69Z" fill="black"/>
<path d="M122.998 168.24C121.995 168.26 121.021 167.904 120.268 167.24C120.088 167.085 119.944 166.893 119.845 166.677C119.746 166.461 119.695 166.227 119.695 165.99C119.695 165.752 119.746 165.518 119.845 165.302C119.944 165.086 120.088 164.894 120.268 164.74C121.102 164.054 122.149 163.679 123.228 163.679C124.308 163.679 125.354 164.054 126.188 164.74C126.371 164.912 126.513 165.123 126.604 165.356C126.696 165.59 126.734 165.842 126.717 166.092C126.7 166.343 126.627 166.586 126.505 166.805C126.382 167.024 126.213 167.214 126.008 167.36C125.149 168.016 124.076 168.33 122.998 168.24Z" fill="black"/>
<path d="M76.0898 168.23C75.0978 168.286 74.1165 168 73.3098 167.42C73.0619 167.264 72.8576 167.048 72.7159 166.792C72.5743 166.536 72.5 166.248 72.5 165.955C72.5 165.662 72.5743 165.374 72.7159 165.118C72.8576 164.862 73.0619 164.646 73.3098 164.49C74.1005 163.949 75.0342 163.656 75.9922 163.647C76.9502 163.638 77.8892 163.914 78.6898 164.44C78.944 164.599 79.1535 164.821 79.2988 165.083C79.444 165.345 79.5202 165.64 79.5202 165.94C79.5202 166.24 79.444 166.535 79.2988 166.797C79.1535 167.06 78.944 167.281 78.6898 167.44C77.9368 167.989 77.0207 168.267 76.0898 168.23Z" fill="black"/>
<path d="M157.822 100.78C157.538 99.902 157.028 99.1135 156.344 98.494C155.659 97.8745 154.824 97.4456 153.922 97.2504C153.522 97.1804 153.482 96.9204 153.402 96.6404C152.96 94.9423 152.416 93.2726 151.772 91.6404C151.678 91.4525 151.636 91.2425 151.652 91.0329C151.668 90.8233 151.741 90.622 151.862 90.4504C153.014 88.6675 153.587 86.5717 153.502 84.4504C153.411 82.7165 152.874 81.0353 151.944 79.5692C151.014 78.1031 149.722 76.9015 148.192 76.0804C145.267 74.4473 142.121 73.2449 138.852 72.5104C138.742 72.5005 138.636 72.4686 138.538 72.4166C138.441 72.3646 138.356 72.2935 138.286 72.2076C138.217 72.1218 138.166 72.0228 138.136 71.9168C138.106 71.8107 138.098 71.6997 138.112 71.5904C138.012 68.2004 138.112 64.7904 137.722 61.4104C137.182 56.2204 135.632 51.4104 131.972 47.5504C131.622 47.1804 131.832 47.0204 132.062 46.7804C133.439 45.3351 134.725 43.8055 135.912 42.2004C138.722 38.3504 141.042 34.2604 141.692 29.4404C142.152 25.9904 141.632 22.7504 139.252 20.0304C137.413 18.0283 134.987 16.6597 132.322 16.1204C127.791 15.1709 123.104 15.2598 118.612 16.3804C114.377 17.3498 110.257 18.7678 106.322 20.6104C106.108 20.7643 105.842 20.8275 105.582 20.7863C105.321 20.7451 105.088 20.6028 104.932 20.3904C103.142 18.5504 101.252 16.8204 99.4719 14.9804C98.2809 13.7393 96.8388 12.7665 95.2421 12.1267C93.6453 11.487 91.9305 11.1951 90.2119 11.2704C88.0535 11.314 85.9135 11.678 83.8619 12.3504C78.3749 14.182 73.2288 16.9088 68.6319 20.4204C58.268 28.0515 49.2335 37.3394 41.8919 47.9104C38.0093 53.2346 34.8673 59.0611 32.5519 65.2304C31.0833 68.9017 30.4513 72.8542 30.7019 76.8004C30.7968 78.3424 31.208 79.8485 31.9099 81.2248C32.6118 82.6011 33.5894 83.8182 34.7819 84.8004C36.0319 85.8004 37.2419 86.9104 38.4919 87.9304C38.6836 88.0435 38.8246 88.2258 38.886 88.4397C38.9474 88.6536 38.9245 88.8829 38.8219 89.0804C37.6954 92.2862 37.3525 95.715 37.8219 99.0804C39.1119 108.41 47.8919 116.37 57.3719 116.82C57.6313 116.801 57.8896 116.869 58.1054 117.015C58.3212 117.16 58.482 117.373 58.5619 117.62C62.2282 125.784 68.1199 132.75 75.5619 137.72C85.2519 144.23 96.0419 147.01 107.842 147.09C110.042 147.03 112.462 146.95 114.842 146.68C123.922 145.68 132.392 142.87 139.842 137.49C150.022 130.15 156.402 120.38 158.212 107.82C158.744 105.484 158.609 103.044 157.822 100.78ZM67.7219 104.48C66.0119 109.88 61.7919 112.48 56.2019 111.63C49.8819 110.63 43.9719 105.09 42.9619 98.8204C42.1119 93.6004 43.1019 88.7104 47.3319 85.1404C54.0119 79.5104 63.3319 81.2404 66.9819 89.8904C68.006 92.4936 68.5416 95.2631 68.5619 98.0604C68.6253 100.231 68.3418 102.399 67.7219 104.48ZM54.1819 72.5604C53.5919 73.9204 53.0619 75.3104 52.5219 76.6904C52.4663 76.8641 52.3642 77.0193 52.2267 77.1391C52.0893 77.259 51.9216 77.339 51.7419 77.3704C47.6663 78.2483 44.0404 80.558 41.5219 83.8804C41.2819 84.2004 41.1219 84.2904 40.7919 83.9804C39.7919 83.0604 38.7919 82.1704 37.7919 81.2804C35.7019 79.4204 35.3719 77.0004 35.5019 74.4004C35.7319 69.9704 37.3119 65.9304 39.2119 62.0004C43.8393 52.595 49.9584 44.0005 57.3319 36.5504C63.0096 30.5463 69.4912 25.357 76.5919 21.1304C80.0644 18.9859 83.8698 17.4347 87.8519 16.5404C88.966 16.3304 90.0984 16.2333 91.2319 16.2504C92.057 16.2182 92.8789 16.3682 93.6394 16.6896C94.3999 17.0111 95.0802 17.4962 95.6319 18.1104C97.1719 19.6637 98.6819 21.2404 100.162 22.8404C100.662 23.3904 100.582 23.5604 99.9819 23.9104C92.0564 28.4782 84.5828 33.7887 77.6619 39.7704C67.1919 48.7904 59.6519 59.9404 54.1819 72.5604ZM78.7319 49.6804C78.4819 49.4304 78.8119 49.2504 78.9519 49.1004C83.4324 43.9071 88.7613 39.5114 94.7119 36.1004C94.7997 36.0407 94.8936 35.9904 94.9919 35.9504C95.2319 35.8604 95.4719 35.5304 95.7019 35.7304C95.9319 35.9304 95.702 36.2204 95.5419 36.4404C95.0806 37.3224 94.6958 38.2425 94.3919 39.1904C94.3219 39.4404 94.1319 39.7604 94.3919 39.9504C94.6519 40.1404 94.8819 39.8504 95.0919 39.7204C99.1906 37.1401 103.8 35.4787 108.602 34.8504C108.762 34.8405 108.922 34.8405 109.082 34.8504C109.262 34.8504 109.492 34.7504 109.602 34.9604C109.712 35.1704 109.452 35.3204 109.302 35.4604C108.752 36.0004 108.182 36.5404 107.642 37.1104C107.472 37.2904 107.182 37.4804 107.322 37.7904C107.462 38.1004 107.752 37.9304 107.982 37.9404C111.869 38.1677 115.673 39.1528 119.182 40.8404L119.612 41.0704C119.772 41.1604 119.982 41.2404 119.902 41.4804C119.822 41.7204 119.592 41.6304 119.412 41.6204C117.143 41.1369 114.845 40.8028 112.532 40.6204C104.871 39.9753 97.1636 41.0939 90.0019 43.8904C86.2059 45.2956 82.6038 47.1774 79.2819 49.4904C79.1119 49.6004 78.9319 49.8804 78.7319 49.6804ZM152.192 112.44C149.338 119.37 144.143 125.079 137.512 128.57C131.216 132.166 124.036 133.916 116.792 133.62C109.692 133.3 103.192 131.24 97.7919 126.39C91.8519 121.01 89.6719 114.14 90.3519 106.31C90.7184 100.693 93.0475 95.3841 96.9319 91.3104C97.13 91.1518 97.2921 90.953 97.4075 90.727C97.5229 90.5011 97.5889 90.2531 97.6012 89.9997C97.6135 89.7463 97.5718 89.4932 97.4788 89.2571C97.3858 89.021 97.2437 88.8074 97.0619 88.6304C96.1586 87.4538 95.194 86.3255 94.1719 85.2504C91.5588 82.495 89.78 79.0555 89.0419 75.3304C87.8419 68.1804 91.7219 61.1304 98.1419 58.7704C100.234 58.1247 102.443 57.9472 104.612 58.2504C107.032 58.4304 109.442 58.7704 111.872 58.8004C115.155 58.8591 118.35 57.7338 120.872 55.6304C121.587 55.0139 122.335 54.4364 123.112 53.9004C125.872 52.1404 129.762 52.2904 131.612 56.3604C132.566 58.8172 133.038 61.435 133.002 64.0704C133.152 67.0704 133.292 69.9904 133.472 72.9504C133.612 75.4304 134.202 76.1504 136.552 76.8704C138.923 77.4933 141.26 78.241 143.552 79.1104C144.776 79.5965 145.917 80.2713 146.932 81.1104C147.718 81.7631 148.28 82.6451 148.54 83.633C148.8 84.6209 148.745 85.6654 148.382 86.6204C147.708 88.4508 146.537 90.0574 145.002 91.2604C141.33 94.2023 137.117 96.3969 132.602 97.7204C125.755 99.9275 118.548 100.803 111.372 100.3C110.213 100.246 109.057 100.126 107.912 99.9404C103.352 99.0704 100.432 102.59 100.002 106.21C99.7086 108.006 99.9979 109.849 100.827 111.468C101.657 113.088 102.983 114.399 104.612 115.21C108.282 117.231 112.424 118.236 116.612 118.12C123.9 118.208 131.109 116.592 137.662 113.4C141.006 111.867 144.004 109.669 146.472 106.94C146.928 106.537 147.24 105.997 147.362 105.4C146.442 105.97 145.702 106.4 144.942 106.9C138.259 111.008 130.781 113.653 123.002 114.66C118.017 115.417 112.923 114.993 108.132 113.42C106.408 112.908 104.918 111.807 103.922 110.31C103.602 109.79 103.112 109.11 103.412 108.62C103.712 108.13 104.412 108.76 104.872 108.89C110.368 110.459 116.161 110.682 121.762 109.54C122.601 109.346 123.429 109.106 124.242 108.82C124.552 108.72 125.032 108.66 124.952 108.19C124.872 107.72 124.392 107.89 124.082 107.92C118.842 108.472 113.547 108.199 108.392 107.11C106.992 106.81 105.622 106.39 104.252 105.98C103.562 105.78 103.582 105.47 103.852 104.98C104.109 104.455 104.513 104.016 105.016 103.718C105.519 103.419 106.098 103.274 106.682 103.3C108.012 103.3 109.302 103.58 110.622 103.67C123.782 104.67 136.132 102.33 147.162 94.6704C148.162 93.9604 148.162 93.9404 148.622 95.1404C149.298 96.9047 149.804 98.7297 150.132 100.59C150.222 101.06 150.352 101.24 150.892 101.25C151.293 101.222 151.696 101.281 152.073 101.421C152.449 101.562 152.791 101.782 153.076 102.067C153.36 102.351 153.58 102.693 153.721 103.07C153.862 103.447 153.92 103.849 153.892 104.25C153.924 107.071 153.344 109.865 152.192 112.44Z" fill="black"/>
<path d="M168.06 170.9C167.541 170.023 166.788 169.307 165.885 168.834C164.983 168.361 163.966 168.148 162.95 168.22C161.986 168.23 161.045 168.518 160.242 169.051C159.438 169.583 158.805 170.336 158.42 171.22C158.26 171.53 158.13 171.86 157.96 172.17C157.79 172.48 157.86 172.75 157.54 172.64C157.22 172.53 157.44 172.2 157.54 172C157.835 171.073 157.954 170.1 157.89 169.13C157.89 168.74 157.75 168.56 157.32 168.57C156.27 168.57 155.21 168.57 154.16 168.57C153.67 168.57 153.59 168.77 153.59 169.2C153.59 175.5 153.59 181.806 153.59 188.12C153.59 188.59 153.75 188.71 154.2 188.7C155.55 188.7 156.89 188.7 158.2 188.7C159.51 188.7 159.28 188.9 159.28 187.64C159.28 185.99 159.28 184.33 159.28 182.64C159.66 182.78 159.76 183.05 159.93 183.24C160.347 183.72 160.866 184.101 161.449 184.355C162.032 184.609 162.664 184.73 163.3 184.71C164.345 184.725 165.372 184.439 166.259 183.885C167.146 183.332 167.854 182.535 168.3 181.59C169.066 180.062 169.441 178.368 169.39 176.66C169.512 174.651 169.05 172.651 168.06 170.9ZM163.33 179.69C163.213 180.022 163.005 180.315 162.729 180.535C162.453 180.754 162.12 180.891 161.77 180.93C161.416 180.97 161.058 180.902 160.742 180.737C160.426 180.571 160.168 180.314 160 180C159.486 179.067 159.217 178.019 159.217 176.955C159.217 175.89 159.486 174.842 160 173.91C160.161 173.617 160.404 173.377 160.698 173.217C160.991 173.058 161.325 172.986 161.658 173.01C161.992 173.034 162.312 173.154 162.579 173.354C162.847 173.554 163.052 173.827 163.17 174.14C163.557 175.122 163.73 176.175 163.68 177.23C163.692 178.063 163.574 178.893 163.33 179.69Z" fill="black"/>
<path d="M71.32 179.29C71.3609 177.622 71.3142 175.953 71.18 174.29C70.75 171.02 69.18 168.95 66.39 168.41C63.2808 167.906 60.0922 168.327 57.22 169.62C57.0946 169.668 56.9896 169.758 56.9223 169.875C56.855 169.991 56.8295 170.127 56.85 170.26C56.85 171.5 56.85 172.74 56.85 173.98C56.85 174.54 57.07 174.45 57.42 174.27C58.5177 173.691 59.6743 173.232 60.87 172.9C61.9015 172.563 62.9986 172.477 64.07 172.65C64.4283 172.685 64.7654 172.836 65.0305 173.079C65.2957 173.323 65.4745 173.646 65.54 174C65.65 174.51 65.66 174.76 64.94 174.7C62.8486 174.38 60.7095 174.632 58.75 175.43C57.7713 175.903 56.9734 176.682 56.4771 177.649C55.9809 178.616 55.8134 179.719 56 180.79C56.1021 181.708 56.4963 182.569 57.1247 183.246C57.753 183.923 58.5822 184.38 59.49 184.55C60.8595 184.933 62.3243 184.77 63.5759 184.095C64.8274 183.419 65.7682 182.285 66.2 180.93C66.29 180.71 66.3 180.3 66.65 180.39C67 180.48 66.81 180.82 66.8 181.05C66.7565 181.937 66.7833 182.827 66.88 183.71C66.93 184.14 67.06 184.39 67.58 184.36C68.6333 184.32 69.6833 184.32 70.73 184.36C71.25 184.36 71.37 184.18 71.36 183.7C71.3 182.33 71.32 181 71.32 179.29ZM64.82 179.4C64.5474 179.77 64.2017 180.08 63.8043 180.31C63.4069 180.541 62.9663 180.687 62.51 180.74C61.9 180.81 61.28 180.74 61.04 180.07C60.9186 179.765 60.9172 179.425 61.0359 179.119C61.1546 178.813 61.3847 178.563 61.68 178.42C62.4532 178.04 63.3095 177.861 64.17 177.9C64.62 177.96 65.3 177.77 65.46 178.11C65.62 178.45 65.13 179 64.82 179.4Z" fill="black"/>
<path d="M128.079 75.3498C126.819 75.8398 126.349 74.9098 125.909 73.8798C125.064 71.9228 124.635 69.8115 124.649 67.6798C124.649 66.2198 125.299 65.3498 126.359 65.2098C126.819 65.1442 127.288 65.2308 127.694 65.4565C128.1 65.6822 128.421 66.0345 128.609 66.4598C129.292 67.8069 129.738 69.2614 129.929 70.7598C130.134 71.9813 130.134 73.2284 129.929 74.4498C129.809 75.2098 129.519 75.5698 128.729 75.3898C128.514 75.3554 128.296 75.342 128.079 75.3498Z" fill="black"/>
<path d="M112.468 78.7504C112.04 78.6171 111.623 78.4534 111.218 78.2604C109.696 77.4644 108.022 77.0042 106.307 76.9111C104.592 76.8179 102.877 77.0939 101.278 77.7204C100.718 77.9204 100.148 78.0904 99.5781 78.2404C99.2581 78.3204 98.9081 78.3904 98.6781 78.0804C98.4481 77.7704 98.6281 77.4004 98.8281 77.0804C99.063 76.7506 99.3347 76.4486 99.6381 76.1804C101.373 74.6694 103.605 73.8513 105.906 73.8827C108.206 73.9141 110.415 74.7927 112.108 76.3504C112.611 76.7982 112.993 77.3657 113.218 78.0004C113.398 78.5204 113.138 78.8204 112.468 78.7504Z" fill="#010101"/>
<path d="M109.379 81.63C108.01 81.6472 106.656 81.9079 105.379 82.4C105.056 82.5294 104.721 82.6265 104.379 82.69C103.809 82.77 103.639 82.46 103.809 81.96C103.939 81.6034 104.164 81.289 104.459 81.05C105.453 80.1974 106.684 79.6688 107.987 79.5347C109.289 79.4007 110.602 79.6677 111.749 80.3C111.997 80.4623 112.226 80.6536 112.429 80.87C112.54 80.9486 112.62 81.0638 112.655 81.1954C112.689 81.3271 112.677 81.4667 112.619 81.5899C112.555 81.695 112.46 81.7774 112.347 81.8258C112.234 81.8742 112.109 81.8862 111.989 81.86L109.379 81.63Z" fill="#020202"/>
<path d="M121.601 81.7305C122.115 81.7376 122.62 81.873 123.069 82.1245C123.517 82.376 123.896 82.7355 124.171 83.1705C124.338 83.3903 124.44 83.6521 124.467 83.9267C124.493 84.2013 124.443 84.4779 124.322 84.7257C124.2 84.9735 124.013 85.1827 123.78 85.3301C123.546 85.4775 123.277 85.5573 123.001 85.5605C122.434 85.6072 121.865 85.501 121.353 85.253C120.841 85.005 120.406 84.6243 120.091 84.1505C119.933 83.9131 119.841 83.6383 119.823 83.3539C119.806 83.0695 119.864 82.7854 119.991 82.5305C120.158 82.26 120.397 82.0416 120.681 81.9002C120.966 81.7588 121.285 81.7 121.601 81.7305Z" fill="#010101"/>
<path d="M130.769 80.9999C130.769 82.3599 129.979 83.4099 128.989 83.3999C127.999 83.3899 127.169 82.2299 127.239 80.8799C127.309 79.5299 128.109 78.5399 129.049 78.5499C129.989 78.5599 130.779 79.5799 130.769 80.9999Z" fill="#010101"/>
<path d="M57.3809 99.9998C57.4232 98.8127 57.6597 97.6405 58.0809 96.5298C58.2845 96.0628 58.3921 95.5595 58.3973 95.05C58.4025 94.5405 58.3052 94.0351 58.1112 93.564C57.9171 93.0929 57.6303 92.6656 57.2678 92.3075C56.9052 91.9495 56.4744 91.668 56.0009 91.4798C55.5145 91.2887 54.9946 91.1972 54.4721 91.2109C53.9496 91.2246 53.4352 91.3432 52.9595 91.5596C52.4838 91.776 52.0564 92.0859 51.7027 92.4707C51.3491 92.8555 51.0764 93.3075 50.9009 93.7998C50.6209 94.4398 50.4209 95.1098 50.1409 95.7998C50.0765 96.025 49.9351 96.2203 49.7414 96.3519C49.5477 96.4835 49.3139 96.5429 49.0809 96.5198C48.5509 96.4398 48.4609 95.9598 48.3909 95.5198C47.7609 91.8598 50.8409 87.6498 54.4509 87.2198C55.5033 87.0832 56.5731 87.2031 57.5691 87.5693C58.5651 87.9355 59.4578 88.5372 60.171 89.3231C60.8841 90.109 61.3966 91.0556 61.6648 92.0824C61.9329 93.1092 61.9487 94.1856 61.7109 95.2198C61.4505 96.2924 61.0785 97.3348 60.6009 98.3298C60.2657 98.9775 60.0586 99.6837 59.9909 100.41C59.9561 100.701 59.9894 100.996 60.088 101.271C60.1867 101.547 60.3481 101.796 60.5595 101.999C60.7709 102.201 61.0265 102.352 61.3062 102.439C61.5858 102.526 61.8818 102.547 62.1709 102.5C62.4609 102.5 62.7509 102.4 63.0409 102.36C63.3309 102.32 63.7009 102.27 63.9109 102.6C64.1209 102.93 63.9609 103.27 63.7509 103.6C63.3363 104.061 62.8019 104.399 62.2071 104.576C61.6123 104.752 60.9802 104.761 60.3809 104.6C58.5009 104.1 57.3809 102.39 57.3809 99.9998Z" fill="black"/>
</svg>
