<svg width="200" height="200" viewBox="0 0 200 200" fill="none" xmlns="http://www.w3.org/2000/svg">
<path d="M38.5698 119.65C37.8454 118.383 37.4244 116.966 37.3398 115.51C38.4598 116.68 38.5398 118.16 38.5698 119.65Z" fill="#EBB8BA"/>
<path d="M82.6184 162.14C81.9479 162.216 81.2687 162.148 80.6269 161.939C79.9851 161.73 79.3956 161.386 78.8984 160.93C80.2195 161.019 81.4977 161.435 82.6184 162.14Z" fill="#D66A6F"/>
<path d="M180.689 87.0003C176.269 62.3203 163.489 43.0003 142.069 29.8503C124.349 19.0003 104.999 15.8703 84.6487 19.5303C69.7012 22.175 55.8414 29.098 44.7487 39.4603C29.1887 53.8103 20.1987 71.6003 18.3587 92.6703C16.4887 114.14 22.1687 133.67 35.5887 150.67C47.9821 166.704 65.9984 177.436 85.9987 180.7C98.8436 182.985 112.052 182.103 124.479 178.13C137.988 173.89 150.165 166.217 159.819 155.86C160.619 155.02 160.639 154.49 159.649 153.71C157.109 151.71 154.649 149.56 152.189 147.5C150.679 146.25 149.189 144.19 147.589 144.09C145.789 143.98 144.709 146.62 143.089 147.81C143.031 147.855 142.977 147.905 142.929 147.96C134.882 155.219 125.131 160.326 114.581 162.805C104.031 165.284 93.0263 165.056 82.5887 162.14C81.3787 161.64 80.0087 161.63 78.8687 160.93C58.8687 153.597 45.4254 139.837 38.5387 119.65C38.1387 118.27 37.8287 116.86 37.3087 115.51C37.1987 114.92 37.1187 114.32 36.9887 113.73C33.4504 98.8768 35.5903 83.2372 42.9887 69.8803C53.4987 50.5403 69.8187 39.0803 91.7287 36.1503C106.596 33.9692 121.745 37.3366 134.289 45.6103C149.349 55.4003 158.729 69.2603 162.749 86.7003C164.259 93.2603 165.119 99.9503 163.599 106.7C162.499 111.55 158.659 114.25 154.199 113.49C149.979 112.77 147.519 109.31 147.969 104.7C148.921 95.0003 146.916 85.2393 142.219 76.6994C137.521 68.1595 130.351 61.2402 121.649 56.8503C101.299 46.3503 75.3187 52.3403 61.4887 70.6303C46.0887 91.0003 48.8687 119.81 68.2687 136.37C82.9987 149 99.9387 151.53 117.999 144.73C126.863 141.323 134.445 135.238 139.689 127.32C140.239 126.52 140.599 125.48 141.759 126.93C146.609 133.03 153.279 134.19 160.349 132.82C170.179 130.9 176.349 124.5 179.539 115.23C182.729 105.96 182.369 96.4103 180.689 87.0003ZM99.8587 131.2C93.696 131.196 87.6728 129.366 82.5502 125.94C77.4276 122.513 73.4356 117.646 71.0786 111.952C68.7216 106.257 68.1054 99.9923 69.3079 93.9481C70.5104 87.9038 73.4777 82.3517 77.8347 77.9933C82.1917 73.6349 87.7429 70.6659 93.7868 69.4614C99.8306 68.2569 106.096 68.8711 111.791 71.2263C117.486 73.5814 122.355 77.5719 125.782 82.6934C129.21 87.8149 131.043 93.8376 131.049 100C131.03 108.269 127.739 116.193 121.894 122.042C116.05 127.89 108.127 131.187 99.8587 131.21V131.2Z" fill="#C0151B"/>
<path d="M113.94 99.7198C114.005 102.498 113.244 105.234 111.753 107.58C110.263 109.926 108.11 111.777 105.568 112.9C103.025 114.022 100.207 114.365 97.469 113.885C94.7313 113.406 92.1974 112.125 90.1879 110.205C88.1783 108.285 86.7833 105.812 86.1794 103.099C85.5755 100.386 85.7898 97.555 86.7952 94.9638C87.8007 92.3727 89.552 90.1379 91.8277 88.5423C94.1034 86.9467 96.8013 86.0619 99.58 85.9998C101.425 85.952 103.262 86.2695 104.984 86.9342C106.706 87.5988 108.279 88.5975 109.614 89.8726C110.949 91.1478 112.018 92.6742 112.76 94.3642C113.503 96.0542 113.904 97.8743 113.94 99.7198Z" fill="#C0151C"/>
</svg>
