<svg width="200" height="200" viewBox="0 0 200 200" fill="none" xmlns="http://www.w3.org/2000/svg">
<path d="M46.4081 102.51C44.3839 103.007 42.2477 102.74 40.4081 101.76C39.6681 101.33 39.6681 100.99 40.1781 100.4C42.0081 98.2804 44.5181 97.7204 47.1081 97.3104C50.8681 96.7204 54.7081 96.9104 58.4581 96.1304C60.4264 95.8233 62.2094 94.7927 63.4581 93.2404C64.4093 92.1879 65.3007 91.0829 66.128 89.9304C70.378 82.9304 76.828 78.7404 84.198 75.6204C89.798 73.2604 95.7581 72.2004 101.538 70.5004C105.726 69.2919 109.798 67.7158 113.708 65.7904C120.138 62.6104 124.278 57.2504 127.868 51.3004C130.328 47.2204 132.568 43.0004 135.558 39.2404C137.15 37.1661 139.18 35.4686 141.503 34.269C143.826 33.0694 146.385 32.3972 148.998 32.3004C151.437 32.2206 153.865 31.9396 156.258 31.4604C157.688 31.1205 159.069 30.5996 160.368 29.9104C162.748 28.6604 164.738 29.8204 164.768 32.4904C164.843 33.9704 164.602 35.4494 164.06 36.8289C163.519 38.2083 162.69 39.4566 161.628 40.4904C160.191 41.999 158.602 43.3561 156.888 44.5404C152.608 47.2604 150.438 51.2504 149.548 56.1304C148.182 64.5456 146.067 72.8218 143.228 80.8604C141.809 84.6311 141.582 88.7466 142.578 92.6504C143.108 94.9104 143.978 97.0304 146.038 98.3604C146.678 98.7804 146.338 99.0804 146.038 99.4204C145.15 100.419 143.94 101.074 142.618 101.27C137.618 102.13 133.108 101.27 129.438 97.5404C128.818 96.9204 128.588 97.1804 128.188 97.6604C126.369 99.9798 124.423 102.197 122.358 104.3C117.758 108.77 112.148 111.18 105.968 112.45C105.718 112.502 105.463 112.529 105.208 112.53C104.448 112.53 103.538 112.64 103.108 111.94C102.678 111.24 103.518 110.67 103.888 110.14C106.027 107.303 108 104.345 109.798 101.28C110.078 100.76 110.598 100.2 109.398 100.11C103.008 99.6204 96.7281 98.3204 90.3981 97.4904C82.4781 96.4904 75.0881 97.4904 68.1581 101.76C64.0281 104.3 59.7081 106.59 54.8481 107.57C50.9625 108.383 46.9715 108.566 43.0281 108.11C41.7381 107.96 41.5181 107.42 42.2681 106.34C42.8335 105.625 43.5085 105.004 44.2681 104.5C45.1253 104.011 45.8577 103.33 46.4081 102.51Z" fill="#1F305F"/>
<path d="M36.6315 143L48.6315 118.66L49.0715 118.78C49.5815 122.26 50.0715 125.78 50.6115 129.24C51.4615 135.24 52.3115 141.24 53.1215 147.19C53.1215 147.61 53.8815 148.59 52.6715 148.49C51.8115 148.41 50.4315 149.35 50.1815 147.49C49.5515 142.66 48.8815 137.83 48.1815 133.01C47.9515 131.3 47.7215 129.59 47.4715 127.81C46.8115 128.09 46.7315 128.81 46.4715 129.26C43.4715 135.26 40.4715 141.34 37.4715 147.39C37.2615 147.81 37.2015 148.46 36.5715 148.49C35.9415 148.52 35.7915 147.78 35.5715 147.32C32.5381 141.253 29.5148 135.173 26.5015 129.08C26.2615 128.59 25.9915 128.08 25.5815 127.33C25.0415 131.26 24.5815 134.87 24.0515 138.48C23.6415 141.55 23.2715 144.63 22.8115 147.69C22.5715 149.25 21.2815 148.36 20.4815 148.49C19.4815 148.65 19.8515 147.83 19.9215 147.36C21.2015 138.26 22.4881 129.167 23.7815 120.08C23.807 119.513 24.0217 118.971 24.3915 118.54L36.6315 143Z" fill="#1F305F"/>
<path d="M86.7287 129.36C87.3987 128.51 87.8187 127.94 88.2687 127.36C88.83 126.696 89.58 126.217 90.4195 125.989C91.2589 125.76 92.1479 125.792 92.9687 126.08C93.8987 126.32 94.3087 126.66 93.5787 127.61C93.0087 128.35 92.8087 129.26 91.4087 128.76C90.4087 128.41 89.5187 129.3 88.8687 130.11C87.7419 131.625 87.0816 133.436 86.9687 135.32C86.6938 139.221 86.6237 143.133 86.7587 147.04C86.7587 148.14 86.5387 148.57 85.3487 148.5C84.3487 148.44 83.7187 148.42 83.7387 147.07C83.8187 140.67 83.8187 134.27 83.7387 127.87C83.7387 126.66 84.0787 126.36 85.2687 126.34C86.4587 126.32 86.9087 126.72 86.7387 127.89C86.7059 128.38 86.7026 128.871 86.7287 129.36Z" fill="#203160"/>
<path d="M19.8998 161.6C19.8998 159.21 19.8998 156.82 19.8998 154.44C19.8998 153.59 20.0198 153.14 21.0398 153.16C23.9798 153.23 26.9298 153.22 29.8798 153.16C30.8798 153.16 30.8798 153.71 30.8798 154.41C30.8798 155.11 30.8798 155.68 29.8798 155.64C27.9498 155.57 26.0198 155.64 24.0898 155.64C23.2198 155.64 22.9798 155.91 22.9498 156.77C22.8398 160.62 22.8198 160.62 26.7098 160.62C27.2698 160.62 27.8298 160.62 28.3898 160.62C29.3898 160.53 29.8498 160.73 29.8598 161.9C29.8698 163.07 29.2198 163.16 28.3298 163.13C27.1098 163.13 25.8798 163.23 24.6698 163.13C23.1998 162.97 22.8498 163.58 22.9498 164.92C23.0498 166.26 22.8898 167.77 22.9998 169.19C23.1098 170.61 22.1898 170.27 21.4298 170.29C20.6698 170.31 19.8298 170.48 19.8898 169.14C19.9998 166.58 19.8998 164.09 19.8998 161.6Z" fill="#A2634C"/>
<path d="M64.6587 163.83C64.6587 165.51 64.6587 167.18 64.6587 168.83C64.6587 169.28 64.9787 170.01 64.2787 170.12C63.5787 170.23 62.4687 170.6 62.0387 169.89C61.6087 169.18 61.5087 169.42 61.1087 169.7C60.3829 170.176 59.5367 170.436 58.6687 170.45C56.1087 170.58 54.5887 169.45 54.2487 166.88C54.0287 164.045 53.9786 161.2 54.0987 158.36C54.0987 157.02 55.1587 157.61 55.7887 157.53C56.4187 157.45 57.1287 157.3 57.1087 158.41C57.0487 160.79 57.1087 163.18 57.1087 165.57C57.1087 167.37 57.7287 168.08 59.2187 168.06C59.5594 168.105 59.9059 168.07 60.231 167.959C60.5562 167.848 60.8514 167.664 61.0934 167.42C61.3354 167.176 61.5177 166.879 61.6262 166.553C61.7347 166.227 61.7664 165.88 61.7187 165.54C61.7187 163.31 61.7987 161.07 61.7187 158.84C61.6587 157.54 62.2887 157.48 63.2787 157.48C64.2687 157.48 64.8087 157.57 64.7387 158.78C64.5887 160.48 64.6587 162.16 64.6587 163.83Z" fill="#A2644C"/>
<path d="M72.9004 164C72.9004 162.32 72.9004 160.64 72.9004 159C72.9004 158.55 72.6004 157.82 73.3304 157.74C74.0604 157.66 75.1104 157.23 75.5404 158.07C75.8904 158.76 76.0504 158.59 76.4504 158.29C77.322 157.669 78.3822 157.368 79.4504 157.44C81.7204 157.44 83.1304 158.64 83.2504 160.94C83.3904 163.78 83.2504 166.63 83.3304 169.47C83.3304 170.76 82.4004 170.23 81.8104 170.28C81.2204 170.33 80.4504 170.58 80.4704 169.43C80.4704 167 80.5304 164.55 80.4704 162.12C80.4704 161.22 80.2904 160.23 79.1604 159.95C78.651 159.778 78.1029 159.757 77.5815 159.888C77.0602 160.019 76.5877 160.298 76.2204 160.69C76.0225 160.919 75.8748 161.187 75.787 161.476C75.6991 161.765 75.673 162.07 75.7104 162.37C75.7104 164.66 75.6404 166.95 75.7104 169.23C75.7704 170.53 74.9904 170.29 74.2504 170.3C73.5104 170.31 72.7304 170.48 72.8104 169.21C73.0004 167.41 72.9004 165.68 72.9004 164Z" fill="#A1634B"/>
<path d="M169.322 164C169.322 162.33 169.322 160.65 169.322 159C169.322 158.55 169.022 157.83 169.732 157.73C170.442 157.63 171.572 157.23 171.952 158.03C172.332 158.83 172.602 158.44 172.952 158.18C174.084 157.463 175.449 157.212 176.762 157.48C177.609 157.597 178.381 158.03 178.923 158.692C179.464 159.354 179.735 160.196 179.682 161.05C179.792 163.84 179.682 166.64 179.762 169.43C179.762 170.72 178.842 170.23 178.262 170.26C177.682 170.29 176.872 170.59 176.902 169.43C176.952 167.15 176.902 164.86 176.902 162.57C176.902 160.57 176.272 159.82 174.682 159.8C173.092 159.78 172.122 160.8 172.112 162.63C172.112 164.82 172.032 167.01 172.112 169.19C172.172 170.45 171.442 170.3 170.682 170.28C169.922 170.26 169.132 170.52 169.222 169.22C169.412 167.44 169.322 165.7 169.322 164Z" fill="#A1634B"/>
<path d="M97.9214 137.43C97.9214 134.18 97.9214 130.93 97.9214 127.69C97.9214 126.49 98.4114 126.39 99.3514 126.42C100.291 126.45 100.951 126.36 100.941 127.71C100.875 134.21 100.875 140.707 100.941 147.2C100.941 148.48 100.401 148.53 99.4014 148.55C98.4014 148.57 97.8814 148.41 97.9114 147.17C98.0014 143.93 97.9214 140.68 97.9214 137.43Z" fill="#223261"/>
<path d="M127.519 164C127.519 163.14 127.519 162.28 127.519 161.42C127.599 160.34 127.519 159.49 126.079 159.65C125.259 159.73 125.439 159.06 125.419 158.59C125.399 158.12 125.349 157.49 126.139 157.59C127.499 157.75 127.649 156.93 127.499 155.92C127.319 154.73 127.859 154.51 128.949 154.49C130.039 154.47 130.519 154.85 130.349 155.96C130.179 157.07 130.469 157.75 131.759 157.58C132.499 157.49 132.709 157.87 132.709 158.58C132.709 159.29 132.559 159.78 131.709 159.67C130.519 159.53 130.259 160.11 130.319 161.19C130.399 162.91 130.319 164.63 130.319 166.36C130.319 167.36 130.619 168.19 131.899 168.06C132.339 168.01 132.779 168.06 132.679 168.64C132.579 169.22 133.099 169.94 132.149 170.32C131.663 170.545 131.129 170.647 130.594 170.618C130.059 170.588 129.539 170.427 129.081 170.15C128.623 169.872 128.24 169.486 127.966 169.026C127.692 168.566 127.535 168.045 127.509 167.51C127.429 166.35 127.509 165.18 127.509 164.01L127.519 164Z" fill="#A2634B"/>
<path d="M144.001 164C144.001 165.73 143.921 167.46 144.001 169.19C144.081 170.49 143.251 170.26 142.521 170.24C141.791 170.22 140.961 170.58 140.981 169.24C141.051 165.68 141.041 162.13 140.981 158.57C140.981 157.27 141.811 157.57 142.521 157.57C143.231 157.57 144.041 157.47 143.981 158.69C143.941 160.42 144.001 162.2 144.001 164Z" fill="#A4674F"/>
<path d="M99.4788 122.75C99.1744 122.771 98.8691 122.73 98.5809 122.63C98.2926 122.53 98.0274 122.373 97.8008 122.169C97.5742 121.965 97.3909 121.717 97.2617 121.441C97.1326 121.165 97.0601 120.865 97.0488 120.56C97.014 120.242 97.046 119.919 97.1426 119.614C97.2392 119.308 97.3984 119.026 97.6101 118.785C97.8217 118.544 98.0811 118.35 98.3719 118.215C98.6626 118.08 98.9783 118.007 99.2988 118C99.9389 117.99 100.557 118.233 101.018 118.677C101.479 119.121 101.746 119.73 101.759 120.37C101.767 120.677 101.714 120.982 101.603 121.267C101.493 121.553 101.327 121.814 101.115 122.036C100.903 122.257 100.649 122.434 100.368 122.557C100.088 122.679 99.7852 122.745 99.4788 122.75Z" fill="#20315F"/>
<path d="M142.53 155.85C141.59 155.79 140.93 155.41 140.94 154.31C140.915 154.108 140.936 153.903 141.001 153.71C141.066 153.517 141.173 153.341 141.315 153.195C141.457 153.05 141.63 152.937 141.822 152.867C142.013 152.797 142.217 152.771 142.42 152.79C143.42 152.79 144.11 153.2 144.15 154.22C144.19 155.24 143.59 155.78 142.53 155.85Z" fill="#A3654E"/>
<path d="M129.739 86.7999C128.329 89.5999 126.989 92.4299 125.509 95.1799C121.389 102.8 115.319 108 106.739 110C106.495 110.055 106.248 110.095 105.999 110.12C105.817 110.094 105.638 110.043 105.469 109.97C110.779 102.97 114.759 95.5199 115.109 86.4399C113.859 86.9399 113.669 88.0499 113.239 88.9599C112.665 90.4773 111.877 91.905 110.899 93.1999C110.581 93.5918 110.173 93.9011 109.71 94.1013C109.247 94.3015 108.742 94.3868 108.239 94.3499C104.379 94.2199 100.579 93.4799 96.7391 93.1899C88.8491 92.5999 80.9991 92.5499 73.4791 95.5099C69.3891 97.1199 65.8891 99.8099 62.2191 102.17C56.8348 105.815 50.3703 107.518 43.8891 107C43.5091 107 42.9791 107.2 42.8291 106.68C42.6791 106.16 43.1391 105.99 43.4691 105.75C44.6846 105.015 45.8384 104.182 46.9191 103.26C47.3091 102.87 47.7991 102.4 47.5391 101.82C47.2791 101.24 46.6391 101.54 46.1691 101.52C44.8498 101.58 43.528 101.489 42.2291 101.25C41.7991 101.13 41.2291 101.13 41.0691 100.7C40.9091 100.27 41.5191 99.8299 41.9091 99.5499C43.4081 98.5889 45.1311 98.0341 46.9091 97.9399C49.7791 97.6499 52.6691 97.3599 55.5591 97.3399C59.8191 97.3399 63.0691 95.7099 65.3391 92.0299C66.5874 89.9946 67.9775 88.0498 69.4991 86.2099C73.2991 81.6499 78.2791 78.7699 83.6991 76.5299C89.1191 74.2899 94.8491 73.1599 100.449 71.5999C106.919 69.7899 113.279 67.5999 118.649 63.3899C123.069 59.8999 126.119 55.2699 128.999 50.5099C131.299 46.6899 133.429 42.7499 136.409 39.3699C138.221 37.3328 140.451 35.7096 142.946 34.6105C145.441 33.5113 148.143 32.9621 150.869 32.9999C153.299 32.9499 155.759 33.1699 158.059 32.0899C158.369 31.9399 158.619 31.9099 158.779 32.3099C159.359 33.7299 160.579 34.1399 161.949 34.3099C162.949 34.4099 163.029 34.8999 162.799 35.7899C162.105 38.0473 160.702 40.0213 158.799 41.4199C158.238 41.8981 157.635 42.3264 156.999 42.6999C151.069 45.9699 147.869 51.2099 145.839 57.4899C143.999 63.1799 142.249 68.8999 140.379 74.5899C138.649 80.364 135.411 85.5727 130.999 89.6799C130.599 90.0399 130.159 90.7499 129.659 90.4699C129.159 90.1899 129.389 89.3799 129.519 88.7999C129.649 88.2199 129.849 87.5499 130.019 86.9199L129.739 86.7999Z" fill="#BF765A"/>
<path d="M158.941 133.37C158.611 124.77 153.361 119.46 144.781 118.92C141.581 118.72 138.381 118.76 135.181 118.69C134.131 118.69 133.791 118.97 133.811 120.05C133.861 124.57 133.811 129.05 133.811 133.62V147.19C133.811 147.81 133.611 148.55 134.711 148.52C138.971 148.41 143.251 148.77 147.501 148.22C149.664 148.011 151.73 147.221 153.482 145.934C155.233 144.647 156.604 142.912 157.451 140.91C158.546 138.553 159.057 135.967 158.941 133.37ZM155.821 135.3C155.011 141.69 151.591 144.99 145.171 145.44C142.741 145.61 140.291 145.5 137.861 145.58C136.981 145.58 136.741 145.31 136.751 144.45C136.801 140.85 136.751 137.25 136.751 133.64V122.83C136.751 122.29 136.601 121.7 137.521 121.71C140.921 121.71 144.341 121.64 147.661 122.51C153.161 124 156.571 129.37 155.821 135.3Z" fill="#1F305F"/>
<path d="M177.522 134.19C176.51 133.374 175.376 132.722 174.162 132.26C174.422 132.03 174.522 131.92 174.642 131.83C175.839 131.035 176.758 129.886 177.271 128.543C177.784 127.2 177.864 125.731 177.502 124.34C176.922 121.34 174.792 119.85 171.962 119.17C169.132 118.49 165.962 118.8 162.962 118.71C162.232 118.71 162.152 119.11 162.152 119.71C162.152 120.93 162.152 122.14 162.152 123.36C162.152 131.28 162.152 139.2 162.152 147.12C162.152 147.68 161.792 148.57 162.932 148.54C166.282 148.45 169.652 148.89 172.932 148.25C174.508 148.05 175.989 147.384 177.186 146.339C178.383 145.293 179.241 143.915 179.652 142.38C180.162 140.959 180.232 139.417 179.852 137.956C179.472 136.495 178.66 135.182 177.522 134.19ZM166.162 121.71C166.772 121.71 167.382 121.71 168.162 121.71C169.17 121.66 170.18 121.755 171.162 121.99C172.052 122.109 172.873 122.532 173.486 123.189C174.099 123.845 174.465 124.694 174.522 125.59C174.663 126.526 174.497 127.482 174.05 128.317C173.604 129.151 172.899 129.819 172.042 130.22C170.104 131.001 168.017 131.342 165.932 131.22C165.392 131.22 165.242 130.98 165.242 130.48C165.242 127.84 165.242 125.21 165.242 122.57C165.222 121.81 165.552 121.68 166.162 121.71ZM171.802 145.32C169.885 145.517 167.957 145.583 166.032 145.52C165.282 145.52 165.232 145.15 165.242 144.58C165.242 143.01 165.242 141.44 165.242 139.87C165.242 138.3 165.242 136.72 165.242 135.15C165.242 134.57 165.302 134.15 166.042 134.21C167.967 134.155 169.893 134.255 171.802 134.51C173.165 134.702 174.422 135.357 175.36 136.366C176.297 137.375 176.859 138.676 176.952 140.05C177.002 142.64 174.882 144.77 171.802 145.32Z" fill="#1F305F"/>
<path d="M78.9984 127.37C78.9984 127 79.1384 126.59 78.5184 126.45C76.8584 126.05 76.2184 126.45 76.2084 128.17V130.31C73.8384 127.52 71.2084 125.96 67.7784 125.92C66.1488 125.865 64.5273 126.173 63.0313 126.822C61.5353 127.47 60.2022 128.443 59.1284 129.67C57.1433 131.874 56.0615 134.744 56.0986 137.709C56.1356 140.675 57.2889 143.517 59.3284 145.67C63.8784 150.46 69.7084 150.28 76.2184 144.98C76.2184 145.98 76.2184 146.82 76.2184 147.62C76.2184 148.9 77.1284 148.41 77.7184 148.45C78.3084 148.49 79.0384 148.74 79.0384 147.6C78.9984 140.88 79.0484 134.12 78.9984 127.37ZM67.6884 146.57C65.3591 146.485 63.1538 145.499 61.5367 143.82C59.9196 142.142 59.0169 139.901 59.0184 137.57C59.0179 135.261 59.9221 133.043 61.5371 131.393C63.1522 129.742 65.3496 128.79 67.6584 128.74C68.8172 128.73 69.966 128.955 71.0357 129.4C72.1055 129.846 73.074 130.503 73.8831 131.333C74.6921 132.162 75.325 133.147 75.7435 134.228C76.162 135.308 76.3576 136.462 76.3184 137.62C76.3476 138.773 76.148 139.921 75.7311 140.997C75.3143 142.072 74.6884 143.054 73.8896 143.887C73.0909 144.719 72.1352 145.384 71.0776 145.845C70.0201 146.306 68.8818 146.552 67.7284 146.57H67.6884Z" fill="#1F305F"/>
<path d="M128.349 127.65C128.349 126.37 127.709 126.44 126.839 126.44C125.969 126.44 125.319 126.44 125.459 127.63C125.51 128.466 125.51 129.304 125.459 130.14C119.999 124.89 113.609 124.55 108.979 129.14C106.768 131.278 105.48 134.196 105.388 137.27C105.297 140.345 106.409 143.333 108.489 145.6C113.259 150.6 119.389 150.48 125.489 145.04C125.535 145.822 125.535 146.607 125.489 147.39C125.339 148.57 126.039 148.56 126.869 148.56C127.699 148.56 128.389 148.61 128.379 147.34C128.299 140.766 128.289 134.203 128.349 127.65ZM116.999 146.57C114.663 146.509 112.445 145.531 110.826 143.846C109.206 142.161 108.317 139.906 108.349 137.57C108.414 135.87 108.977 134.226 109.969 132.844C110.961 131.462 112.338 130.402 113.928 129.797C115.518 129.192 117.251 129.068 118.911 129.44C120.571 129.813 122.085 130.665 123.264 131.892C124.443 133.118 125.234 134.665 125.541 136.338C125.847 138.012 125.655 139.738 124.987 141.303C124.319 142.868 123.205 144.202 121.785 145.138C120.365 146.075 118.7 146.572 116.999 146.57Z" fill="#1F305F"/>
<path d="M100.881 168.79C100.881 163.66 100.881 158.53 100.881 153.41C100.881 152.12 100.231 152.2 99.3711 152.21C98.5111 152.22 97.7611 152.06 97.8511 153.38C97.9711 154.98 97.8511 156.59 97.8511 158.38L97.1611 158.03C96.5247 157.626 95.8008 157.379 95.0497 157.311C94.2986 157.243 93.5422 157.356 92.8435 157.64C92.1448 157.924 91.5241 158.37 91.0331 158.943C90.5421 159.515 90.1952 160.197 90.0211 160.93C89.5649 162.448 89.4758 164.052 89.7611 165.61C90.4711 169.9 93.3911 171.42 97.3711 169.61C97.8311 169.4 97.8611 169.51 98.1211 169.86C98.7011 170.64 99.6211 170.26 100.361 170.19C101.101 170.12 100.871 169.27 100.881 168.79ZM96.0611 168C95.4643 168.197 94.814 168.15 94.252 167.869C93.69 167.588 93.2619 167.096 93.0611 166.5C92.6965 165.661 92.5142 164.753 92.5262 163.838C92.5383 162.923 92.7445 162.02 93.1311 161.19C93.349 160.642 93.7645 160.195 94.2958 159.937C94.8271 159.68 95.4356 159.631 96.0011 159.8C96.2933 159.829 96.5763 159.918 96.8326 160.061C97.0888 160.204 97.3127 160.399 97.4901 160.632C97.6676 160.866 97.7948 161.134 97.8638 161.42C97.9328 161.705 97.9421 162.001 97.8911 162.29C97.8911 162.84 97.8911 163.4 97.8911 163.96C97.8911 164.52 97.8911 164.96 97.8911 165.48C97.9395 165.766 97.9303 166.059 97.8641 166.342C97.7979 166.624 97.676 166.89 97.5056 167.125C97.3352 167.36 97.1196 167.558 96.8716 167.708C96.6236 167.859 96.348 167.958 96.0611 168Z" fill="#A2634B"/>
<path d="M118.451 161.48C118.455 160.479 118.091 159.511 117.426 158.762C116.762 158.013 115.845 157.535 114.851 157.42C111.931 156.97 109.191 158.15 108.491 160.16C108.418 160.349 108.374 160.547 108.361 160.75C108.361 161.02 108.361 161.34 108.731 161.29C109.671 161.14 110.831 161.93 111.501 160.49C111.744 160.091 112.113 159.786 112.55 159.622C112.987 159.459 113.467 159.448 113.911 159.59C114.29 159.65 114.641 159.822 114.921 160.084C115.201 160.346 115.396 160.686 115.481 161.06C115.761 161.99 115.661 162.52 114.481 162.49C113.007 162.348 111.521 162.582 110.161 163.17C109.437 163.497 108.838 164.05 108.454 164.745C108.07 165.441 107.922 166.242 108.031 167.03C108.108 167.768 108.404 168.466 108.879 169.036C109.355 169.606 109.989 170.021 110.701 170.23C111.376 170.458 112.092 170.54 112.8 170.469C113.509 170.398 114.195 170.177 114.811 169.82C115.061 169.68 115.351 169.1 115.661 169.56C116.541 170.93 117.781 169.89 118.911 170.25C118.121 167.26 118.591 164.35 118.451 161.48ZM115.621 165.64C115.632 165.983 115.569 166.324 115.436 166.64C115.303 166.957 115.104 167.241 114.851 167.473C114.599 167.705 114.3 167.881 113.973 167.987C113.647 168.094 113.302 168.129 112.961 168.09C111.721 168.09 110.961 167.4 110.961 166.32C110.961 165 112.061 164.37 114.201 164.38C115.631 164.39 115.631 164.39 115.621 165.64Z" fill="#A2634B"/>
<path d="M41.3981 157.35C38.2481 157.57 36.0781 160.06 36.0281 163.85C35.9941 164.827 36.1469 165.801 36.4781 166.72C36.832 167.78 37.4997 168.707 38.3927 169.379C39.2857 170.05 40.3617 170.434 41.4781 170.48C42.6463 170.625 43.83 170.388 44.8521 169.804C45.8742 169.22 46.6797 168.32 47.1481 167.24C48.9981 163.14 47.3881 156.93 41.3981 157.35ZM44.7781 165.54C44.3581 167.33 43.2781 168.22 41.7181 168.11C41.0064 168.027 40.348 167.692 39.862 167.166C39.3759 166.639 39.0943 165.956 39.0681 165.24C38.9135 164.244 38.9372 163.228 39.1381 162.24C39.2134 161.577 39.5224 160.962 40.0098 160.506C40.4972 160.049 41.1312 159.782 41.7981 159.75C42.4909 159.702 43.1765 159.916 43.7192 160.349C44.2619 160.783 44.6219 161.404 44.7281 162.09C44.8484 162.697 44.9253 163.312 44.9581 163.93C44.9352 164.47 44.8751 165.008 44.7781 165.54Z" fill="#A2634B"/>
<path d="M162.798 162C162.128 159.19 160.258 157.52 157.658 157.4C153.658 157.22 151.258 159.57 151.238 163.75C151.218 167.93 153.318 170.42 156.828 170.51C161.228 170.59 163.928 166.73 162.798 162ZM159.888 165.64C159.816 166.305 159.51 166.922 159.024 167.382C158.539 167.842 157.906 168.114 157.238 168.15C155.788 168.23 154.798 167.41 154.308 165.8C154.148 165.249 154.084 164.674 154.118 164.1C154.079 163.406 154.156 162.709 154.348 162.04C154.447 161.38 154.789 160.78 155.307 160.358C155.825 159.936 156.482 159.723 157.148 159.76C157.811 159.791 158.443 160.047 158.941 160.485C159.439 160.923 159.773 161.517 159.888 162.17C160.168 163.3 160.168 164.481 159.888 165.61V165.64Z" fill="#A2634B"/>
<path d="M145.799 40.5701C145.269 40.5701 144.219 40.5701 143.799 39.7401C143.379 38.9101 144.199 38.0501 144.799 37.4001C145.959 36.2401 147.479 36.1301 149.009 36.0801C149.609 36.0801 149.739 36.3901 149.789 36.9301C150.069 38.9401 148.429 40.5501 145.799 40.5701Z" fill="#20305F"/>
<path d="M158.38 34.1602C159.08 34.3602 159.68 34.7002 159.24 35.5202C158.254 37.2389 157.717 39.1788 157.68 41.1602C157.68 41.3402 157.62 41.5702 157.36 41.6002C157 40.0902 157 40.0002 158 36.5502C157.325 37.2207 156.842 38.0597 156.6 38.9802C156.25 39.8502 156.52 40.8802 155.68 41.9102C155.662 39.8582 156.227 37.8433 157.31 36.1002C157.6 35.5802 158.08 35.1002 158.07 34.4902C158.081 34.4097 158.117 34.3347 158.172 34.2756C158.228 34.2164 158.301 34.1761 158.38 34.1602Z" fill="#363A5E"/>
<path d="M157.792 33.5403C155.446 35.7186 153.6 38.3798 152.382 41.3403C152.274 41.0576 152.238 40.7528 152.277 40.4528C152.315 40.1528 152.427 39.8669 152.602 39.6203C153.732 37.307 155.216 35.1847 157.002 33.3303C157.252 33.0503 157.902 32.1803 157.742 33.5603L157.792 33.5403Z" fill="#30375E"/>
<path d="M158.38 34.1604L158.05 34.4904C156.078 36.4457 154.719 38.9341 154.14 41.6504C153.82 40.4604 153.83 40.4704 154.02 39.8704C154.726 38.023 155.741 36.3086 157.02 34.8004C157.32 34.4104 157.75 34.0904 157.81 33.5404C158.21 33.5204 158.42 33.7204 158.38 34.1604Z" fill="#30385E"/>
</svg>
