<svg width="200" height="200" viewBox="0 0 200 200" fill="none" xmlns="http://www.w3.org/2000/svg">
<path d="M21.1098 117.52C16.5129 114.156 13.209 109.317 11.7498 103.81C11.5898 103.24 11.7498 102.53 11.0898 102.13V94.1304C11.9498 93.1304 11.7698 91.8804 12.0898 90.7504C13.4206 85.5055 16.3112 80.7878 20.3798 77.2204C21.1257 76.63 21.6877 75.8391 21.9998 74.9404C22.1794 75.0667 22.3277 75.2324 22.4334 75.4248C22.5392 75.6171 22.5995 75.8312 22.6098 76.0504C22.5498 76.8204 23.0398 77.5404 22.8498 78.3304C22.6258 79.4956 22.6737 80.6968 22.9898 81.8404C23.1748 82.9494 23.1748 84.0814 22.9898 85.1904C22.6448 89.6204 22.6448 94.0705 22.9898 98.5004C23.3698 100.8 23.8398 103.1 23.0598 105.41C22.701 106.458 22.6593 107.589 22.9398 108.66C23.0148 109.023 23.0148 109.398 22.9398 109.76C22.7198 110.76 22.6298 111.76 22.4398 112.7C22.4398 113.17 22.4398 113.7 22.4398 114.12C22.0998 115.31 22.5898 116.77 21.1098 117.52Z" fill="#55AA4B"/>
<path d="M22.5483 109.79V108.73C22.2983 107.708 22.2983 106.641 22.5483 105.62C23.1483 103.29 22.7783 100.97 22.5483 98.6198C22.2833 94.1104 22.2833 89.5892 22.5483 85.0798V81.6098C22.2782 80.4689 22.2782 79.2807 22.5483 78.1398C22.5483 77.4398 21.7583 76.7398 22.5483 76.0498C23.5483 77.8298 25.1383 79.1398 26.3883 80.7298C32.3883 88.3098 34.9383 96.7298 31.9583 106.21C30.5927 110.555 27.8956 114.361 24.2483 117.09C23.0483 117.47 22.8583 116.46 22.4583 115.77C22.2152 115.185 22.129 114.548 22.2083 113.92C22.2083 113.43 22.2083 112.92 22.2083 112.44C22.5283 111.58 22.2183 110.65 22.5483 109.79Z" fill="#459D46"/>
<path d="M45.4802 101.28V103.47C46.4802 102.9 47.3302 102.36 48.2202 101.93C50.7102 100.71 52.2202 100.93 54.0902 102.99C54.6402 103.6 54.9602 103.51 55.4902 103.1C55.9044 102.786 56.3424 102.505 56.8002 102.26C61.0202 99.9098 64.5102 101.87 64.6402 106.69C64.6402 108.69 64.6402 110.75 64.6402 112.77C64.6402 113.96 64.9302 114.64 66.1702 114.77C66.5602 114.82 67.1702 114.77 67.0802 115.52C66.9902 116.27 66.4702 116.08 66.0202 116.08H60.6102C60.2302 116.08 59.7502 116.25 59.6102 115.68C59.5741 115.583 59.5623 115.479 59.576 115.376C59.5897 115.274 59.6283 115.176 59.6886 115.092C59.7489 115.008 59.8289 114.94 59.9216 114.895C60.0143 114.849 60.1169 114.827 60.2202 114.83C61.6502 114.65 61.7202 113.62 61.7102 112.53C61.7102 110.53 61.7102 108.59 61.6202 106.63C61.6434 105.953 61.4366 105.287 61.0335 104.743C60.6304 104.198 60.0547 103.806 59.4002 103.63C58.6942 103.454 57.9566 103.448 57.2476 103.611C56.5386 103.774 55.8782 104.103 55.3202 104.57C54.9202 104.84 54.9802 105.24 54.9902 105.66C54.9902 108.03 55.0602 110.41 55.0502 112.78C55.0502 113.78 55.2102 114.61 56.4702 114.78C56.8902 114.78 57.4702 114.91 57.3402 115.6C57.2102 116.29 56.7002 116.13 56.2802 116.14H50.7202C50.3202 116.14 49.8502 116.2 49.7902 115.62C49.7302 115.04 50.1102 114.91 50.5502 114.89C52.0802 114.81 52.2102 113.8 52.1802 112.59C52.1802 110.59 52.1802 108.65 52.1802 106.68C52.2324 106.006 52.0554 105.334 51.6779 104.773C51.3003 104.212 50.7444 103.795 50.1002 103.59C49.367 103.4 48.5986 103.392 47.8615 103.566C47.1244 103.741 46.441 104.092 45.8702 104.59C45.3702 104.97 45.5002 105.53 45.5002 106.03C45.5002 108.35 45.5002 110.67 45.5002 113.03C45.5002 114.03 45.7302 114.72 46.8402 114.86C47.2902 114.92 47.8402 115 47.6802 115.68C47.5202 116.36 47.1302 116.16 46.7402 116.16C44.8302 116.16 42.9202 116.16 41.0102 116.16C40.6402 116.16 40.1402 116.25 40.1002 115.63C40.0871 115.528 40.0964 115.424 40.1274 115.326C40.1585 115.227 40.2105 115.137 40.28 115.061C40.3494 114.985 40.4346 114.925 40.5297 114.885C40.6247 114.845 40.7273 114.826 40.8302 114.83C42.4702 114.76 42.5602 113.65 42.5602 112.41C42.5602 110.41 42.5602 108.41 42.6502 106.5C42.7502 104.97 42.3802 103.9 40.7402 103.56C40.4102 103.49 40.0002 103.37 40.0202 102.94C40.0402 102.51 40.5102 102.56 40.8302 102.48L45.4802 101.28Z" fill="#452D21"/>
<path d="M93.2998 101.16C93.6798 101.76 93.2997 102.43 93.5397 103.16C94.3697 103.04 94.8797 102.36 95.5397 101.99C99.4697 99.81 102.99 101.7 103.22 106.2C103.33 108.34 103.32 110.49 103.22 112.63C103.22 113.81 103.57 114.54 104.8 114.63C105.31 114.68 105.68 114.8 105.67 115.44C105.66 116.08 105.21 116.11 104.73 116.1C102.82 116.1 100.9 116.1 98.9897 116.1C98.5397 116.1 97.9897 116.2 97.9897 115.49C97.9897 114.78 98.2398 114.66 98.7998 114.63C99.9498 114.56 100.17 113.82 100.15 112.83C100.15 110.75 100.15 108.66 100.09 106.57C100.138 105.927 99.967 105.287 99.6035 104.754C99.24 104.222 98.7062 103.829 98.0897 103.64C97.3976 103.411 96.658 103.365 95.943 103.507C95.228 103.649 94.5619 103.974 94.0098 104.45C93.7998 104.653 93.6419 104.903 93.5496 105.18C93.4573 105.457 93.4334 105.752 93.4798 106.04C93.4798 108.3 93.4798 110.56 93.4798 112.82C93.4798 113.91 93.8098 114.62 95.0098 114.66C95.5598 114.66 95.8997 114.86 95.8298 115.49C95.7598 116.12 95.2998 116.14 94.8298 116.14C92.8298 116.14 90.8897 116.14 88.9197 116.14C88.5197 116.14 88.0597 116.14 87.9897 115.63C87.9197 115.12 88.0798 114.69 88.6898 114.63C90.1298 114.56 90.3098 113.63 90.2998 112.46C90.2998 110.32 90.2298 108.17 90.2998 106.03C90.4023 105.489 90.2863 104.93 89.977 104.474C89.6677 104.018 89.1904 103.704 88.6498 103.6C88.2298 103.47 87.5798 103.44 87.6498 102.88C87.7198 102.32 88.3798 102.26 88.8698 102.15L93.2998 101.16Z" fill="#452D21"/>
<path d="M22.5494 114C22.7494 115.24 22.6794 116.63 24.2594 117.12C22.9294 118.57 23.3294 120.37 23.2094 122.12C23.2094 122.64 23.7194 123.58 22.7294 123.61C21.7394 123.64 21.8794 122.7 21.8894 122.02C21.902 120.511 21.6376 119.013 21.1094 117.6C21.6665 116.502 21.9317 115.28 21.8794 114.05C21.9145 113.995 21.9619 113.949 22.0179 113.916C22.0739 113.882 22.1369 113.862 22.2019 113.858C22.2669 113.853 22.3321 113.863 22.3924 113.888C22.4527 113.913 22.5065 113.951 22.5494 114Z" fill="#A5A585"/>
<path d="M22.5518 85.0996C22.5518 89.6129 22.5518 94.1263 22.5518 98.6396C22.4208 98.5284 22.3208 98.3853 22.2612 98.2242C22.2017 98.063 22.1846 97.8893 22.2118 97.7196V85.9996C22.1882 85.8331 22.207 85.6633 22.2664 85.506C22.3258 85.3487 22.424 85.2089 22.5518 85.0996Z" fill="#65B25E"/>
<path d="M22.5611 78.1396V81.6096C22.2948 81.0701 22.1562 80.4764 22.1562 79.8746C22.1562 79.2729 22.2948 78.6792 22.5611 78.1396Z" fill="#5DAB5C"/>
<path d="M22.5511 109.79V112.57C22.508 112.617 22.4555 112.655 22.3969 112.681C22.3384 112.707 22.2751 112.72 22.2111 112.72C22.1471 112.72 22.0838 112.707 22.0253 112.681C21.9667 112.655 21.9142 112.617 21.8711 112.57C22.2911 111.69 22.0011 110.63 22.5511 109.79Z" fill="#64AD61"/>
<path d="M22.5492 105.62V108.73C22.2838 108.255 22.1445 107.719 22.1445 107.175C22.1445 106.631 22.2838 106.095 22.5492 105.62Z" fill="#65B25D"/>
<path d="M21.8711 112.57H22.5511V114H21.8811C21.8811 113.5 21.8711 113 21.8711 112.57Z" fill="#77AC69"/>
<path d="M167.151 102.38C166.879 100.295 165.951 98.3506 164.503 96.8266C163.054 95.3027 161.16 94.2778 159.091 93.8997C156.447 93.4735 153.762 93.3593 151.091 93.5596C149.181 93.5596 147.271 93.5596 145.361 93.5596C144.591 93.5596 144.041 93.8496 144.001 94.5596C143.961 95.2696 144.741 95.1196 145.171 95.1696C146.771 95.3196 147.471 96.0597 147.441 97.7597C147.351 102.39 147.371 107.02 147.441 111.65C147.441 113.19 147.271 114.44 145.381 114.65C145.263 114.659 145.148 114.693 145.044 114.749C144.94 114.806 144.849 114.884 144.777 114.979C144.705 115.073 144.654 115.182 144.627 115.298C144.601 115.413 144.599 115.533 144.621 115.65C144.621 116.3 145.211 116.09 145.551 116.09C148.971 116.09 152.381 116.16 155.801 116.09C157.836 116.007 159.82 115.43 161.581 114.41C163.667 113.256 165.332 111.468 166.333 109.305C167.335 107.142 167.621 104.716 167.151 102.38ZM162.061 110.64C161.169 112.227 159.735 113.439 158.021 114.054C156.307 114.67 154.43 114.647 152.731 113.99C152.252 113.867 151.83 113.582 151.538 113.182C151.246 112.783 151.102 112.294 151.131 111.8V104.15C151.131 101.66 151.131 99.1497 151.131 96.6797C151.131 95.5397 151.651 95.1797 152.721 95.1497C156.501 95.0697 159.981 95.8296 162.031 99.3496C163.04 101.059 163.574 103.006 163.579 104.991C163.585 106.975 163.061 108.925 162.061 110.64Z" fill="#8F714B"/>
<path d="M185.47 103.94C185.02 103.73 184.56 103.57 184.06 103.37C186.48 101.45 186.96 100.8 187.11 99.3003C187.43 96.3003 185.6 94.0203 182.24 93.8003C178.5 93.5503 174.73 93.6603 170.97 93.5803C170.709 93.5491 170.446 93.6218 170.238 93.7827C170.031 93.9437 169.895 94.1799 169.86 94.4403C169.73 95.1803 170.4 95.1203 170.79 95.1103C172.66 95.1103 173.1 96.1103 173.07 97.8003C173 102.08 173.07 106.36 173.01 110.64C173.01 112.44 173.3 114.52 170.48 114.64C169.93 114.64 169.74 115.26 169.8 115.64C169.87 116.23 170.44 115.98 170.8 115.98C173.86 115.98 176.93 116.08 180 115.98C182.516 115.986 184.95 115.088 186.86 113.45C187.599 112.832 188.168 112.035 188.512 111.134C188.856 110.234 188.963 109.26 188.824 108.307C188.685 107.353 188.303 106.451 187.716 105.686C187.129 104.922 186.355 104.321 185.47 103.94ZM176.55 99.2203V97.6603C176.55 95.1103 176.79 94.9403 179.38 95.3303C180.477 95.4004 181.525 95.8092 182.38 96.5003C182.969 97.0675 183.379 97.7959 183.557 98.5945C183.735 99.3932 183.673 100.227 183.38 100.99C182.93 102.55 181.66 103.04 180.17 103.15C176.5 103.42 176.51 103.43 176.55 99.2203ZM185 110.63C184.67 113.01 183.06 114.31 180.38 114.35C177.1 114.41 176.55 113.88 176.5 110.61C176.5 109.39 176.5 108.18 176.5 106.97C176.5 104.67 176.5 104.67 178.93 104.79C179.851 104.811 180.766 104.935 181.66 105.16C184.29 106 185.42 107.83 185 110.63Z" fill="#8F714B"/>
<path d="M118.729 114.32C117.289 114.17 115.839 114.09 114.399 113.92C113.799 113.85 113.249 113.57 113.299 112.82C113.349 112.07 113.849 111.99 114.389 111.9C114.739 111.85 115.089 111.9 115.389 111.82C118.639 111.33 120.919 109.03 120.879 106.1C120.879 104.88 120.719 104.01 122.399 103.99C122.605 103.964 122.803 103.892 122.978 103.78C123.154 103.669 123.302 103.519 123.413 103.344C123.524 103.168 123.594 102.97 123.62 102.763C123.645 102.557 123.624 102.348 123.559 102.15C123.299 101.15 122.659 102.15 122.189 102.15C121.152 102.244 120.106 102.156 119.099 101.89C118.227 101.587 117.33 101.356 116.419 101.2C113.479 100.75 109.949 102.68 109.129 105.1C108.219 107.8 109.249 110.1 112.309 111.89C109.189 114.37 109.189 114.37 111.789 116.48C111.019 117.09 110.229 117.66 109.499 118.31C109.161 118.56 108.879 118.878 108.671 119.244C108.464 119.61 108.336 120.016 108.295 120.434C108.255 120.853 108.303 121.276 108.436 121.675C108.569 122.074 108.785 122.44 109.069 122.75C109.718 123.655 110.657 124.311 111.729 124.61C113.453 125.159 115.297 125.208 117.048 124.751C118.798 124.295 120.383 123.351 121.619 122.03C122.359 121.408 122.893 120.576 123.15 119.644C123.407 118.712 123.375 117.724 123.059 116.81C122.349 114.81 120.559 114.5 118.729 114.32ZM111.859 106C111.859 103.82 112.859 102.55 114.659 102.56C116.659 102.56 118.089 104.28 118.089 106.77C118.089 108.96 116.939 110.47 115.259 110.45C113.249 110.38 111.859 108.57 111.859 106ZM119.069 122.53C118.112 123.074 117.03 123.359 115.929 123.359C114.828 123.359 113.747 123.074 112.789 122.53C112.185 122.298 111.682 121.859 111.369 121.292C111.056 120.725 110.954 120.066 111.079 119.43C111.234 118.751 111.593 118.135 112.108 117.664C112.622 117.194 113.268 116.893 113.959 116.8C114.418 116.755 114.88 116.755 115.339 116.8C116.381 116.762 117.422 116.897 118.419 117.2C119.489 117.52 120.419 118.04 120.639 119.33C120.743 119.954 120.647 120.594 120.365 121.16C120.083 121.725 119.629 122.188 119.069 122.48V122.53Z" fill="#452D21"/>
<path d="M77.4805 101.1C72.7605 101.1 69.4805 104.31 69.4805 108.79C69.4805 113.48 72.3605 116.43 76.8205 116.4C77.8657 116.419 78.9037 116.223 79.8702 115.825C80.8367 115.426 81.7112 114.834 82.4395 114.084C83.1679 113.334 83.7345 112.443 84.1045 111.465C84.4745 110.487 84.6399 109.444 84.5905 108.4C84.5505 104.07 81.6505 101.09 77.4805 101.1ZM78.2905 114.84C76.0805 115.19 73.9405 113.58 73.1005 110.9C72.5878 109.353 72.4743 107.702 72.7705 106.1C73.0705 104.56 73.7705 103.19 75.4405 102.82C76.2636 102.616 77.1291 102.668 77.9221 102.968C78.7151 103.268 79.3981 103.802 79.8805 104.5C80.9691 106.017 81.4926 107.867 81.3605 109.73C81.3505 112.87 80.3605 114.51 78.2905 114.84Z" fill="#452D21"/>
<path d="M134.14 101.11C129.51 101.11 126.14 104.21 126.06 108.57C125.99 113.26 128.8 116.35 133.19 116.4C134.235 116.453 135.279 116.289 136.258 115.921C137.237 115.552 138.13 114.985 138.881 114.256C139.631 113.527 140.223 112.651 140.621 111.684C141.018 110.716 141.212 109.676 141.19 108.63C141.23 104.17 138.38 101.12 134.14 101.11ZM134.92 114.83C132.71 115.19 130.58 113.59 129.71 110.92C129.25 109.422 129.13 107.84 129.36 106.29C129.56 104.73 130.21 103.29 131.86 102.87C132.644 102.633 133.481 102.635 134.263 102.877C135.046 103.12 135.738 103.591 136.25 104.23C137.397 105.62 138.016 107.369 138 109.17C138 112.82 137 114.48 134.92 114.83Z" fill="#452D21"/>
</svg>
