<svg width="200" height="200" viewBox="0 0 200 200" fill="none" xmlns="http://www.w3.org/2000/svg">
<g clip-path="url(#clip0)">
<path d="M66.9997 132.48C69.8097 126.21 72.5997 120.32 75.0697 114.31C76.9197 109.83 80.0697 109.15 84.3597 110.46C85.1019 110.639 85.7582 111.071 86.2148 111.683C86.6715 112.295 86.8996 113.047 86.8597 113.81C86.8597 121.09 86.8597 128.36 86.8597 135.63C86.8597 136.52 86.4897 136.63 85.7297 136.68C81.1297 136.89 81.1297 136.91 81.1297 132.34V114.85C80.4697 114.9 80.5497 115.51 80.3897 115.85C77.7897 121.57 75.1597 127.27 72.6797 133.04C71.5697 135.62 69.9397 137.04 67.0497 136.99C64.1597 136.94 62.6297 135.61 61.5497 133.1C58.9997 127 56.1797 120.94 53.4397 114.83C52.8297 115.12 53.1397 115.57 53.1297 115.89C53.1297 122.3 53.1297 128.71 53.1297 135.12C53.1297 136.28 52.8797 136.7 51.6197 136.69C47.4297 136.69 47.4297 136.69 47.4297 132.48C47.4297 126.53 47.4297 120.59 47.4297 114.64C47.4297 111.81 48.2197 110.84 50.9597 110.15C55.0297 109.15 57.4497 110.35 59.1197 114.15C61.7197 120.18 64.2997 126.15 66.9997 132.48Z" fill="#00608B"/>
<path d="M173.202 94.2301C172.932 95.8601 172.732 97.16 172.512 98.46C172.483 98.9992 172.29 99.5167 171.96 99.9438C171.63 100.371 171.177 100.687 170.663 100.851C170.149 101.015 169.596 101.019 169.08 100.861C168.564 100.704 168.107 100.393 167.772 99.9701C165.322 97.48 164.562 94.3101 164.232 90.9701C163.902 87.6301 164.802 84.21 165.732 80.97C165.872 80.45 166.102 79.9701 165.662 79.5501C163.242 76.9901 162.162 73.72 161.212 70.47C160.441 68.0545 159.2 65.815 157.562 63.88C156.721 62.9286 156.026 61.8567 155.502 60.7C154.302 57.63 156.362 54.94 159.612 55.43C162.249 55.8453 164.728 56.9569 166.792 58.65C167.581 59.3213 168.576 59.7024 169.612 59.73C172.915 59.8606 176.119 60.8986 178.872 62.73C184.854 66.3873 189.89 71.4029 193.572 77.3701C195.002 79.7001 195.732 82.37 196.922 84.77C197.473 85.7821 197.96 86.8275 198.382 87.9001C199.013 89.8512 200.084 91.6318 201.51 93.1052C202.937 94.5786 204.682 95.7057 206.612 96.4001C210.867 98.2574 214.543 101.228 217.252 105C214.202 106.42 210.892 106 207.822 107.33C208.367 108.389 209.266 109.223 210.362 109.69C213.363 111.434 216.017 113.715 218.192 116.42C218.375 116.581 218.499 116.798 218.544 117.037C218.59 117.276 218.553 117.524 218.442 117.74C215.272 114.54 210.802 113.6 207.442 110.84C206.171 109.841 205.128 108.584 204.382 107.15C203.912 106.23 204.162 105.86 205.072 105.51C207.897 104.425 210.921 103.955 213.942 104.13C214.014 103.939 214.008 103.727 213.926 103.54C213.844 103.353 213.691 103.206 213.502 103.13C209.922 100.72 206.612 97.84 202.242 96.88C201.332 96.7064 200.481 96.308 199.765 95.7212C199.049 95.1343 198.491 94.3776 198.142 93.52C196.402 89.7 194.622 85.89 192.882 82.06C189.116 73.3185 182.093 66.3883 173.302 62.74C171.602 62.02 169.792 62.13 168.022 61.95C167.159 61.8726 166.342 61.5224 165.692 60.95C163.873 59.5277 161.804 58.4592 159.592 57.8C159.257 57.6169 158.872 57.5481 158.495 57.604C158.117 57.66 157.769 57.8377 157.502 58.11C157.287 58.4253 157.179 58.8005 157.191 59.1815C157.204 59.5625 157.337 59.9296 157.572 60.23C157.841 60.801 158.176 61.338 158.572 61.83C161.142 64.8142 162.978 68.3589 163.932 72.18C164.473 74.4977 165.646 76.6198 167.322 78.31C168.382 79.31 168.152 80.5401 167.672 81.6901C166.055 85.4779 165.704 89.6867 166.672 93.6901C166.956 95.1699 167.567 96.5675 168.462 97.78C168.752 98.14 169.132 98.5601 169.612 98.4101C170.092 98.2601 169.922 97.72 169.982 97.34C170.222 95.92 170.382 94.4901 170.672 93.0801C171.082 91.4676 172.001 90.03 173.292 88.9801C175.23 94.2363 177.925 99.1817 181.292 103.66C178.732 102.55 176.672 100.16 173.202 94.2301Z" fill="#01608B"/>
<path d="M118.782 129C118.782 132 118.782 135 118.782 138C118.841 139.105 118.557 140.202 117.968 141.138C117.379 142.075 116.514 142.806 115.492 143.23C113.619 144.125 111.567 144.583 109.492 144.57C104.062 144.57 98.6316 144.5 93.2016 144.57C91.2016 144.57 91.9216 143.34 91.8116 142.4C91.7016 141.46 91.7516 140.62 93.2716 140.66C98.4116 140.77 103.552 140.66 108.692 140.71C109.613 140.741 110.534 140.613 111.412 140.33C112.069 140.064 112.601 139.556 112.896 138.911C113.192 138.266 113.23 137.532 113.002 136.86C112.712 136.17 112.132 136.44 111.662 136.44C108.032 136.44 104.392 136.44 100.752 136.44C98.5471 136.499 96.3654 135.982 94.4216 134.94C93.5567 134.53 92.835 133.869 92.35 133.043C91.865 132.218 91.6391 131.266 91.7016 130.31C91.8116 126.79 91.8016 123.31 91.7016 119.75C91.7016 118.58 92.0416 118.33 93.1416 118.33C97.3516 118.33 97.3516 118.33 97.3516 122.51C97.3516 125.05 97.3516 127.59 97.3516 130.13C97.3516 132.05 97.9716 132.88 99.8516 132.93C103.942 133.05 108.042 132.98 112.142 133.04C113.142 133.04 113.052 132.42 113.052 131.78C113.052 127.78 113.052 123.78 113.052 119.83C113.052 118.61 113.392 118.28 114.592 118.29C118.822 118.29 118.822 118.29 118.822 122.47V129H118.782Z" fill="#00608C"/>
<path d="M139.08 110.37C141.79 110.37 144.51 110.37 147.22 110.37C148.3 110.37 148.73 110.58 148.68 111.77C148.56 114.77 148.94 114.15 146.34 114.17C141.78 114.17 137.22 114.17 132.66 114.17C129.15 114.17 127.56 117.03 129.22 120.17C129.93 121.53 131.22 121.61 132.51 121.64C134.99 121.7 137.51 121.64 139.96 121.64C142.058 121.618 144.126 122.142 145.96 123.16C146.784 123.531 147.471 124.149 147.926 124.929C148.381 125.708 148.582 126.611 148.5 127.51C148.5 127.91 148.5 128.32 148.5 128.72C148.5 133.47 146.82 135.47 142.08 136.3C141.233 136.461 140.373 136.548 139.51 136.56C134.51 136.56 129.58 136.56 124.61 136.56C123.67 136.56 123.16 136.49 123.18 135.3C123.18 132.74 123.18 132.74 125.74 132.74H138.55C139.653 132.844 140.761 132.592 141.71 132.02C143.54 130.68 142.71 128.72 142.71 127.02C142.71 125.76 141.41 125.26 140.29 125.19C137.93 125.05 135.57 125.07 133.2 125.04C130.887 125.093 128.59 124.639 126.47 123.71C124.37 122.71 123.05 121.17 123.32 118.71C123.34 118.537 123.34 118.362 123.32 118.19C122.75 112.54 125.87 110.75 130.86 110.35C133.61 110.13 136.4 110.35 139.17 110.35L139.08 110.37Z" fill="#00608C"/>
<path d="M184 120.9C184 117.79 184 114.67 184 111.55C184 110.68 184.19 110.37 185.14 110.34C189.7 110.18 189.7 110.15 189.7 114.7C189.7 119.49 189.7 124.29 189.7 129.08C189.7 131.88 190.51 132.76 193.45 132.81C198.18 132.9 202.92 132.94 207.65 132.81C209.35 132.76 209.28 133.57 209.29 134.81C209.3 136.05 209.29 136.81 207.62 136.74C202.15 136.5 196.62 137.01 191.18 136.42C189.858 136.277 188.57 135.912 187.37 135.34C186.326 134.893 185.444 134.137 184.843 133.173C184.242 132.209 183.951 131.084 184.01 129.95C184 126.91 184 123.91 184 120.9Z" fill="#00608C"/>
<path d="M168 66.5203C168.244 66.3584 168.519 66.2498 168.807 66.2014C169.096 66.1531 169.391 66.1662 169.674 66.2398C169.957 66.3134 170.222 66.4459 170.45 66.6286C170.679 66.8114 170.866 67.0402 171 67.3003C171.75 68.3003 171.45 69.3003 170.5 70.3003C169.841 68.9332 169 67.6617 168 66.5203Z" fill="#106B95"/>
<path d="M177 135.49C179.91 134.33 180.45 132.04 180.41 129.39C180.36 125.7 180.41 122 180.41 118.31C180.41 113.41 178.81 111.31 173.87 110.7C168.716 110.13 163.514 110.13 158.36 110.7C157.502 110.823 156.664 111.061 155.87 111.41C154.706 111.784 153.699 112.536 153.011 113.547C152.322 114.558 151.991 115.77 152.07 116.99C152.07 120.99 152.07 124.99 152.07 128.92C152.07 133.52 153.55 135.41 158.07 136.38C161.311 136.973 164.626 137.047 167.89 136.6C169.092 136.383 170.33 136.494 171.474 136.922C172.618 137.35 173.625 138.078 174.39 139.03C174.92 139.65 175.47 140.49 176.39 140.52C178.31 140.52 180.23 140.52 182.58 140.52L177 135.49ZM174.57 131.49C174.04 132.23 173.43 132.57 172.8 131.69C170.5 128.47 167.18 128.37 163.72 128.69C163.57 128.69 163.43 128.76 163.06 128.85L167.51 132.94C164.99 132.88 162.85 133.17 160.72 132.73C159.993 132.628 159.331 132.253 158.871 131.681C158.41 131.108 158.185 130.382 158.24 129.65C158.24 125.5 158.24 121.34 158.24 117.19C158.214 116.637 158.372 116.091 158.688 115.637C159.005 115.184 159.462 114.847 159.99 114.68C160.626 114.42 161.303 114.275 161.99 114.25C165.1 114.25 168.22 114.16 171.33 114.25C174.05 114.32 175.03 115.42 175.03 118.11V129.36C175.123 130.102 174.969 130.855 174.59 131.5L174.57 131.49Z" fill="#00608C"/>
</g>
<defs>
<clipPath id="clip0">
<rect width="200" height="200" fill="white"/>
</clipPath>
</defs>
</svg>
