<svg width="200" height="200" viewBox="0 0 200 200" fill="none" xmlns="http://www.w3.org/2000/svg">
<path d="M106.048 28.3996C103.638 31.8696 99.6384 32.2396 96.1484 30.6996C95.6208 30.5322 95.152 30.2172 94.7976 29.7919C94.4432 29.3666 94.218 28.8488 94.1484 28.2996C94.848 27.3803 95.7523 26.6368 96.7896 26.1281C97.8268 25.6195 98.9683 25.3597 100.123 25.3694C101.279 25.3791 102.416 25.658 103.444 26.1841C104.473 26.7101 105.364 27.4687 106.048 28.3996Z" fill="#21C4B7"/>
<path d="M78.3516 108.39C83.3849 106.09 88.4682 103.92 93.6016 101.88C94.5416 102.62 95.6916 102.33 96.7416 102.45C98.9072 102.646 101.086 102.646 103.252 102.45C107.856 102.256 112.447 101.805 117.002 101.1C118.892 100.77 120.762 100.36 122.652 100.03C123.362 99.9105 124.092 99.7105 124.722 100.29C124.427 103.01 123.997 105.714 123.432 108.39C123.272 109.27 122.622 109.51 121.862 109.63C117.062 110.38 112.282 111.13 107.412 111.43C103.709 111.77 99.9887 111.89 96.2716 111.79C93.1916 111.6 90.1016 111.28 87.0316 110.91C84.8216 110.64 82.6016 110.41 80.4116 110.03C79.4516 109.87 78.4216 109.7 78.3516 108.39Z" fill="#38ADBB"/>
<path d="M158.328 96.8896C161.213 97.8216 164.024 98.9681 166.738 100.32C167.138 101.08 166.438 101.32 166.058 101.67C164.888 102.61 163.613 103.412 162.258 104.06C154.518 108.41 146.608 112.34 138.058 114.9C134.788 115.9 131.598 117.04 128.178 117.39C127.718 117.172 127.359 116.786 127.173 116.313C126.987 115.839 126.989 115.312 127.178 114.84C127.598 113.23 127.808 111.56 128.108 109.92C128.564 109.493 129.128 109.199 129.738 109.07C135.368 107.92 140.578 105.59 145.868 103.47C150.182 101.595 154.348 99.3955 158.328 96.8896Z" fill="#3CAABB"/>
<path d="M48 74.4199L54 68.4199C56 69.8299 57.92 71.2699 60 72.5899C64.8039 75.8133 70.0572 78.3102 75.59 79.9999C77.59 80.5899 79.52 81.5799 81.68 81.7699C82.0775 81.798 82.4635 81.915 82.8097 82.1124C83.1559 82.3097 83.4533 82.5822 83.68 82.9099C82.39 85.1799 80.96 87.3599 79.45 89.4899C77.99 89.7899 76.74 89.0199 75.45 88.6599C68.6863 86.7433 62.2114 83.9246 56.2 80.2799C53.2675 78.6215 50.5189 76.6572 48 74.4199Z" fill="#32B3BA"/>
<path d="M158.33 96.8898C157.72 97.7368 156.913 98.4231 155.98 98.8898C149.788 102.399 143.283 105.325 136.55 107.63C133.792 108.619 130.964 109.401 128.09 109.97C128.449 106.62 128.986 103.292 129.7 99.9998C131.37 98.7598 133.39 98.3798 135.29 97.7298C139.158 96.4042 142.889 94.7062 146.43 92.6598C146.75 92.4798 147.13 92.4698 147.43 92.2598C150.497 93.3258 153.502 94.5644 156.43 95.9698C157.08 96.2398 157.7 96.5798 158.33 96.8898Z" fill="#39ADBB"/>
<path d="M82.711 125.5L76.711 116.99C76.421 116.57 76.061 116.23 76.431 115.61C76.801 114.99 77.431 115.12 77.921 115.23L93.921 118.51C100.711 119.91 107.501 121.34 114.311 122.68C115.651 122.94 116.481 123.45 116.661 124.84C116.841 126.23 115.801 125.9 115.151 125.94C112.731 126.1 110.321 126.51 107.901 126.53C100.901 126.6 93.821 126.91 86.811 126.08C85.441 125.91 84.001 126.33 82.711 125.5Z" fill="#3DA9BB"/>
<path d="M127.002 49.19C128.532 50.69 130.002 52.19 131.612 53.68C132.382 54.39 131.912 55.08 131.802 55.79C131.292 57.37 129.902 58.11 128.642 58.86C123.649 62.0095 118.157 64.2885 112.402 65.6C109.612 66.16 106.772 66.47 103.972 66.97C103.747 67.0361 103.508 67.0442 103.279 66.9935C103.05 66.9428 102.838 66.835 102.662 66.68C101.362 64.79 101.572 63.08 103.082 61.35C104.023 60.1362 104.891 58.8673 105.682 57.55C108.802 57.72 111.682 56.72 114.552 55.71C118.393 54.3225 121.999 52.3529 125.242 49.87C125.782 49.47 126.272 49 127.002 49.19Z" fill="#2BBBB8"/>
<path d="M124.718 100.29C122.628 100.23 120.718 101 118.638 101.29C114.438 101.81 110.298 102.78 105.998 102.69C103.628 102.69 101.218 103.2 98.7985 103.09C97.2085 103.01 95.6185 102.91 94.0385 102.78C93.4985 102.78 93.3385 102.4 93.5985 101.91C103.932 97.4696 114.265 93.0296 124.598 88.5896C125.758 88.0896 126.708 88.6596 126.528 89.7896C125.998 93.2796 125.328 96.7796 124.718 100.29Z" fill="#36B0BA"/>
<path d="M48.0003 74.4199C50.2503 75.4199 52.0003 77.0799 54.0003 78.4199C57.6915 80.7842 61.5481 82.8796 65.5403 84.6899C69.9703 86.7899 74.7503 87.9199 79.3903 89.4599C77.8236 92.1266 76.157 94.7166 74.3903 97.2299C73.1603 97.6099 72.0703 96.9699 70.9703 96.6699C67.2109 95.5667 63.5432 94.1725 60.0003 92.4999L48.0603 75.2199C47.8803 74.9999 47.7003 74.7099 48.0003 74.4199Z" fill="#35B0BA"/>
<path d="M81.7515 132.74C83.7828 135.33 85.6594 138.038 87.3715 140.85C87.0915 141.96 86.6615 142.14 85.1015 142.02C82.0615 141.78 79.0615 141.39 76.1015 140.85C70.6215 139.85 65.1015 139.09 59.7915 137.29C59.7915 137.29 59.6915 137.29 59.6615 137.22C56.1915 134.22 56.1815 134.22 58.6615 130.35C59.1115 129.66 59.5815 129 60.0415 128.35C61.3767 128.448 62.6889 128.751 63.9315 129.25C68.8715 130.51 73.9315 131.45 78.9315 132.42C79.8015 132.58 80.8015 132.46 81.7515 132.74Z" fill="#42A4BC"/>
<path d="M113.211 77.6299L122.711 81.6299C123.141 81.8099 123.621 81.9499 123.421 82.6299C123.261 83.5399 122.581 83.8599 121.791 84.0599C115.56 85.7859 109.135 86.7134 102.671 86.8199C98.9008 86.9333 95.1278 86.8264 91.3705 86.4999C90.5958 86.4097 89.8319 86.2422 89.0905 85.9999C88.5705 85.8399 87.9305 85.7399 87.9705 84.9999C89.163 82.8297 90.4993 80.7417 91.9705 78.7499C92.3242 78.6669 92.6891 78.6433 93.0505 78.6799C96.0266 79.1451 99.045 79.2793 102.051 79.0799C105.791 78.9999 109.601 78.9999 113.211 77.6299Z" fill="#31B4B9"/>
<path d="M102.66 66.68C108.08 65.98 113.51 65.33 118.66 63.33C123.41 61.47 128.07 59.33 131.86 55.79L130 67.62C129.942 67.7922 129.847 67.9498 129.723 68.0826C129.599 68.2154 129.448 68.3202 129.28 68.39C124.79 70.22 120.4 72.39 115.58 73.24C115.429 73.2758 115.271 73.2758 115.12 73.24C111.29 71.65 107.46 70.05 103.62 68.47C102.74 68.1 102.67 67.42 102.66 66.68Z" fill="#2EB8B9"/>
<path d="M59.7383 137.29C59.9095 137.174 60.1065 137.102 60.3122 137.079C60.5178 137.056 60.7259 137.084 60.9183 137.16C63.2783 138.25 65.9183 138.49 68.3683 138.98C73.5583 139.98 78.7383 141.14 84.0483 141.38C85.1883 141.43 86.4683 142.38 87.3683 140.85C89.4283 143.47 91.2483 146.25 93.0383 149.05C92.9583 150.05 92.1183 149.86 91.5283 149.9C89.8779 149.951 88.226 149.87 86.5883 149.66C81.4483 149.2 76.3583 148.46 71.2783 147.66C70.6036 147.614 69.954 147.386 69.3983 147C66.0783 143.86 62.8583 140.624 59.7383 137.29Z" fill="#44A2BD"/>
<path d="M82.7109 125.5C90.7109 125.96 98.6409 126.35 106.611 126.1C109.721 126.01 112.831 125.7 115.941 125.5C116.122 125.505 116.298 125.439 116.431 125.316C116.564 125.192 116.643 125.021 116.651 124.84C117.651 125.84 118.241 127.12 119.651 127.84C120.531 128.31 119.651 129.58 119.721 130.48C119.606 130.716 119.422 130.911 119.193 131.04C118.965 131.168 118.702 131.224 118.441 131.2C114.681 131.45 110.951 131.94 107.171 132.11C103.971 132.24 100.761 132.54 97.5709 132.39C93.9809 132.22 90.3509 132.3 86.8209 131.39C85.34 129.506 83.9678 127.54 82.7109 125.5Z" fill="#3FA7BC"/>
<path d="M78.3483 108.39C79.3483 110.14 81.1983 109.67 82.6783 109.88C86.2383 110.38 89.8683 110.54 93.4183 111C97.1145 111.449 100.846 111.529 104.558 111.24C109.878 110.85 115.248 110.65 120.478 109.34C121.478 109.09 122.688 109.47 123.478 108.34C123.188 110.23 122.868 112.12 122.628 114.01C122.538 114.67 122.218 114.82 121.628 114.92C120.78 115.047 119.968 115.349 119.242 115.805C118.516 116.261 117.891 116.862 117.408 117.57C117.222 117.877 116.935 118.111 116.596 118.231C116.257 118.352 115.887 118.351 115.548 118.23L86.5483 112.23C84.1783 111.74 81.7883 111.23 79.4083 110.77C77.9983 110.53 77.5283 109.28 78.3483 108.39Z" fill="#3BABBB"/>
<path d="M87.3895 70.9996C87.4791 71.238 87.6002 71.4633 87.7495 71.6696C90.0595 73.9396 88.5795 75.7496 87.0595 77.5696C86.6107 77.7029 86.1295 77.6746 85.6995 77.4896C80.3696 76.2398 75.1748 74.4714 70.1895 72.2096C66.3086 70.2662 62.6248 67.9521 59.1895 65.2996C58.7595 64.9696 58.2695 64.5896 58.4295 63.8996C59.7775 62.3599 61.2382 60.9226 62.7995 59.5996C65.0195 60.8296 67.0495 62.3696 69.1295 63.7996C72.6095 66.1796 76.5295 67.4996 80.3795 69.0196C82.6495 69.9096 85.0595 70.3296 87.3895 70.9996Z" fill="#2FB6B9"/>
<path d="M77.2812 45.1398L82.2812 40.1398C82.8913 39.9398 83.2813 40.3598 83.6413 40.6798C89.3713 45.3898 96.0112 46.8398 103.241 46.1298C104.021 46.0598 104.791 45.9898 105.561 45.8898C106.131 45.8098 106.721 45.7498 107.011 46.4298C105.665 48.7816 104.196 51.0613 102.611 53.2598C101.924 53.7359 101.095 53.9618 100.261 53.8998C94.0827 53.8092 88.0174 52.2277 82.5813 49.2898C80.6313 48.2298 78.4612 47.2598 77.2812 45.1398Z" fill="#27BEB8"/>
<path d="M128.18 117.39C129.02 116.46 130.18 116.82 131.24 116.56C133.74 115.93 136.14 115.05 138.6 114.3C145.057 112.286 151.287 109.605 157.19 106.3C159.88 104.8 162.69 103.5 165.24 101.76C165.81 101.37 166.52 101.05 166.74 100.28L170.74 102.08C171.2 103.08 170.41 103.42 169.86 103.8C167.35 105.54 164.77 107.19 162.11 108.69C159.17 110.34 156.17 111.9 153.11 113.25C149.544 114.913 145.888 116.375 142.16 117.63C138.16 118.86 134.16 119.92 130.26 121.15C130.147 121.169 130.031 121.163 129.921 121.133C129.811 121.102 129.709 121.048 129.622 120.973C129.535 120.899 129.466 120.806 129.419 120.702C129.372 120.598 129.348 120.485 129.35 120.37C129.176 119.305 128.777 118.289 128.18 117.39Z" fill="#3DA9BB"/>
<path d="M88.0014 84.9996C88.6914 85.9096 89.8114 85.8296 90.7014 85.8996C95.9898 86.353 101.305 86.4064 106.601 86.0596C109.933 85.8325 113.247 85.3882 116.521 84.7296C118.521 84.3096 120.421 83.8496 122.371 83.3996C122.814 83.2453 123.193 82.9502 123.451 82.5596C123.515 82.7512 123.539 82.9536 123.523 83.1547C123.506 83.3559 123.45 83.5518 123.357 83.7307C123.264 83.9097 123.135 84.0682 122.98 84.1968C122.824 84.3255 122.645 84.4216 122.451 84.4796C115.971 87.1896 109.531 89.9796 103.071 92.7296C102.875 92.7916 102.675 92.8384 102.471 92.8696C96.9023 92.9923 91.3341 92.5872 85.8414 91.6596C85.5302 91.6511 85.2239 91.5804 84.9405 91.4516C84.6571 91.3228 84.4024 91.1385 84.1914 90.9096C85.3431 88.8658 86.6154 86.8923 88.0014 84.9996Z" fill="#33B2BA"/>
<path d="M81.7495 132.74C80.7823 133.077 79.7352 133.108 78.7495 132.83C75.1495 132.02 71.5095 131.41 67.8995 130.59C65.5195 130.04 63.1795 129.32 60.7795 128.81C60.4988 128.694 60.2414 128.528 60.0195 128.32C61.7595 125.58 63.5029 122.837 65.2495 120.09C65.6095 119.52 66.0595 119.6 66.5995 119.72C68.2195 120.139 69.9267 120.073 71.5095 119.53C71.6632 119.445 71.8331 119.393 72.0083 119.378C72.1834 119.363 72.3598 119.384 72.5259 119.442C72.692 119.5 72.844 119.591 72.9722 119.712C73.1003 119.832 73.2016 119.978 73.2695 120.14C76.0595 124.36 78.9095 128.54 81.7495 132.74Z" fill="#3FA6BC"/>
<path d="M107 46.4505C105.9 45.8505 104.76 46.3905 103.7 46.5305C96.9645 47.4908 90.1141 45.8924 84.4995 42.0505C83.6795 41.5105 83.1995 40.5805 82.2695 40.1605C83.7495 38.6938 85.2262 37.2171 86.6995 35.7305C88.1595 36.3205 89.1395 37.5805 90.5595 38.2805C92.9372 39.5351 95.5391 40.3081 98.216 40.5552C100.893 40.8023 103.592 40.5186 106.16 39.7205C107.973 39.1055 109.698 38.2548 111.29 37.1905C111.86 36.8105 112.45 36.1905 113.23 36.8005C111.26 40.0905 109.2 43.3205 107 46.4505Z" fill="#25C0B7"/>
<path d="M94.5486 142.61C92.9402 140.533 91.4415 138.374 90.0586 136.14C90.4586 135.3 91.1986 135.42 91.9286 135.44C98.8355 135.779 105.757 135.662 112.649 135.09C114.179 134.92 115.739 134.96 117.279 134.73C117.557 134.661 117.848 134.664 118.125 134.74C118.401 134.815 118.654 134.96 118.859 135.16C118.686 137.253 118.351 139.329 117.859 141.37C116.627 142.004 115.235 142.258 113.859 142.1C110.859 141.94 108.009 142.54 105.079 142.66C101.571 142.876 98.0537 142.859 94.5486 142.61Z" fill="#42A4BC"/>
<path d="M77.2819 45.1396C79.7867 47.2675 82.5814 49.0284 85.5819 50.3696C88.8319 51.6496 92.1619 52.9696 95.5819 53.1396C97.8819 53.2496 100.232 53.9396 102.582 53.2796C101.51 55.231 100.314 57.1116 99.0019 58.9096C98.5319 59.4996 97.8919 59.3596 97.2819 59.2896C92.4197 58.9133 87.6424 57.8041 83.1119 55.9996C79.8085 54.5361 76.6736 52.7188 73.7619 50.5797C73.3685 50.3198 73.0729 49.9363 72.9219 49.4897L77.2819 45.1396Z" fill="#29BCB8"/>
<path d="M94.5508 142.61C94.9978 142.379 95.4984 142.272 96.0008 142.3C100.001 142.3 104.061 142.53 108.001 141.95C111.261 141.49 114.531 141.77 117.771 141.37C117.351 144.037 116.924 146.733 116.491 149.46C114.786 149.754 113.067 149.954 111.341 150.06C109.851 150.16 108.341 150.31 106.871 150.37C104.521 150.47 102.171 150.37 99.8708 150.37L94.5508 142.61Z" fill="#44A2BD"/>
<path d="M142.47 128.65L147.81 129.65L140.11 137.65C137.88 138.79 135.38 139.03 132.99 139.58C130.19 140.23 127.36 140.77 124.51 141.22C123.94 141.32 122.92 141.71 123.15 140.36C123.377 137.831 123.785 135.321 124.37 132.85C125.213 133.095 126.108 133.095 126.95 132.85C131.68 131.91 136.35 130.73 140.95 129.47C141.56 129.37 142.3 129.48 142.47 128.65Z" fill="#42A4BC"/>
<path d="M69.3984 147C71.0458 147.051 72.6796 147.317 74.2584 147.79C75.2483 147.985 76.2508 148.109 77.2584 148.16C80.2584 148.71 83.3584 148.85 86.4184 149.22C88.1541 149.462 89.9068 149.559 91.6584 149.51C92.1584 149.51 92.7184 149.65 93.0684 149.1C94.7884 151 95.7284 153.43 97.3884 155.38C97.1884 156.61 96.1684 156.45 95.3884 156.49C92.1428 156.537 88.8973 156.393 85.6684 156.06C82.9442 156.003 80.2318 155.685 77.5684 155.11C74.7218 152.477 71.9984 149.773 69.3984 147Z" fill="#46A0BD"/>
<path d="M118.86 135.16C115.37 135.37 111.86 135.61 108.42 136.02C106.683 136.14 104.94 136.16 103.2 136.08C100.54 136.08 97.89 136.08 95.2 136.08C94.015 136.205 92.8173 136.124 91.66 135.84C91.3819 135.772 91.0925 135.765 90.8113 135.818C90.5301 135.871 90.2637 135.985 90.03 136.15C88.7974 134.671 87.6997 133.085 86.75 131.41C87.1222 131.228 87.5338 131.142 87.9477 131.16C88.3615 131.177 88.7644 131.298 89.12 131.51C89.2822 131.645 89.4895 131.713 89.7 131.7C92.28 131 94.78 132.24 97.34 132.05C100.57 131.8 103.84 131.72 107.05 131.64C110.99 131.54 114.85 130.77 118.78 130.78C119.083 130.733 119.376 130.638 119.65 130.5C119.512 132.072 119.248 133.63 118.86 135.16Z" fill="#41A5BC"/>
<path d="M87.3886 70.9997C86.1486 71.5597 84.9986 70.8097 83.9486 70.4897C78.6886 68.8797 73.4386 67.2297 68.8386 63.9997C66.9886 62.7097 65.0486 61.5297 63.2186 60.1997C63.108 60.1364 63.0135 60.0484 62.9424 59.9426C62.8713 59.8368 62.8255 59.7161 62.8086 59.5897C64.9286 57.0597 64.9186 57.0697 67.8086 58.3197C73.8953 60.9064 79.9586 63.4664 85.9986 65.9997C86.8786 66.3697 87.2986 66.7297 87.1186 67.7997C86.8989 68.8702 86.9927 69.9812 87.3886 70.9997Z" fill="#2DB8B9"/>
<path d="M113.221 36.8002C111.341 37.1202 110.021 38.5402 108.341 39.3002C101.481 42.3602 95.0114 41.3002 88.7714 37.7302C87.8799 37.3063 87.15 36.6045 86.6914 35.7302L90.1214 32.3102C90.7073 32.5128 91.2476 32.8288 91.7114 33.2402C93.9248 34.8752 96.5646 35.8339 99.3114 36.0002C102.747 36.2002 106.124 35.0399 108.711 32.7702C109.026 32.4301 109.412 32.1637 109.841 31.9902C110.981 33.0902 112.101 34.2302 113.281 35.3002C113.901 35.8802 113.821 36.3302 113.221 36.8002Z" fill="#24C1B7"/>
<path d="M83.64 82.8604C78.88 81.3704 74.03 80.1504 69.44 78.1604C67.36 77.2604 65.44 76.1004 63.44 75.0504C60.95 73.7504 58.75 72.0504 56.44 70.6304C55.4544 70.1053 54.6156 69.3422 54 68.4104C54.85 67.5104 55.45 66.4104 56.57 65.7504C56.7743 65.7025 56.9883 65.7169 57.1844 65.7917C57.3805 65.8666 57.5496 65.9985 57.67 66.1704C58.9452 67.2942 60.321 68.2984 61.78 69.1704C64.69 71.2704 68 72.6204 71.15 74.2704C74.71 76.1304 78.59 77.0204 82.36 78.2704C83.0191 78.4024 83.6881 78.4793 84.36 78.5004C85.09 78.6104 85.87 78.7804 85.55 79.8504C85.0529 80.9358 84.4103 81.9484 83.64 82.8604Z" fill="#31B5B9"/>
<path d="M77.5117 155.06C78.2917 154.83 79.1217 154.83 79.9017 155.06C85.0117 155.56 90.1217 156.06 95.2617 156.06C96.0317 156.06 96.8217 156.12 97.3617 155.39C99.2117 157.49 100.362 160.08 102.102 162.25C101.012 163.06 99.7217 162.88 98.5317 162.82C94.6217 162.61 90.7117 162.69 86.8217 162.19C86.1469 162.155 85.4709 162.233 84.8217 162.42L77.5117 155.06Z" fill="#489EBD"/>
<path d="M147.429 92.2404C146.179 93.7904 144.279 94.3104 142.619 95.1604C138.739 97.1604 134.509 98.2904 130.469 99.8804C130.217 99.9444 129.959 99.9779 129.699 99.9804C130.159 96.9204 130.629 93.8704 131.079 90.8104C131.169 90.1804 131.589 90.0004 132.079 89.8704C133.307 89.6268 134.42 88.9874 135.249 88.0504C135.351 87.905 135.48 87.7813 135.63 87.6864C135.78 87.5915 135.947 87.5273 136.122 87.4975C136.297 87.4677 136.476 87.473 136.649 87.513C136.822 87.5529 136.985 87.6268 137.129 87.7304C140.589 89.2504 143.999 90.7404 147.429 92.2404Z" fill="#36AFBA"/>
<path d="M130.309 121.19C131.619 119.85 133.489 119.82 135.109 119.36C139.661 118.125 144.136 116.619 148.509 114.85C153.058 112.943 157.508 110.803 161.839 108.44C164.689 106.9 167.349 105.01 170.089 103.26C170.296 103.149 170.469 102.985 170.592 102.785C170.715 102.584 170.783 102.355 170.789 102.12C171.299 102.33 171.789 102.56 172.319 102.75C173.549 103.19 173.899 103.75 172.749 104.75C172.39 105.11 172.056 105.495 171.749 105.9C167.318 108.983 162.635 111.686 157.749 113.98C151.663 117.097 145.264 119.561 138.659 121.33C137.724 121.622 136.809 121.972 135.919 122.38C134.019 122.139 132.142 121.741 130.309 121.19Z" fill="#3EA8BC"/>
<path d="M72.9213 49.5C76.6273 52.3679 80.7344 54.6759 85.1113 56.35C88.2419 57.5143 91.5143 58.2542 94.8413 58.55C96.2113 58.65 97.5513 59.23 98.9513 58.91C98.3813 60.37 97.6713 61.29 95.7613 60.82C94.8653 60.6351 93.94 60.6448 93.0481 60.8484C92.1561 61.0519 91.3183 61.4447 90.5913 62C90.3073 62.2159 89.9656 62.3426 89.6095 62.364C89.2534 62.3854 88.899 62.3004 88.5913 62.12C82.4113 59.4533 76.2179 56.8333 70.0113 54.26C68.9313 53.81 68.7313 53.46 69.6713 52.63C70.8113 51.63 71.8513 50.54 72.9213 49.5Z" fill="#2BBBB8"/>
<path d="M33.4713 89.0004L36.2013 86.2604C36.9213 86.0704 37.4013 86.5404 37.8513 86.9204C40.8859 89.4032 44.1278 91.6214 47.5413 93.5504C51.0725 95.5852 54.7074 97.4344 58.4313 99.0904L62.0013 104C61.5913 104.81 60.9113 104.71 60.2713 104.42C55.0913 102.1 49.7113 100.28 44.9113 97.1204C41.5113 94.8704 38.0213 92.7504 34.7013 90.3904C34.1513 90.0004 33.3613 89.8504 33.4713 89.0004Z" fill="#39ACBB"/>
<path d="M135.93 122.37C137.01 120.62 139.04 120.79 140.62 120.37C144.998 119.008 149.292 117.389 153.48 115.52C158.48 113.46 163 110.64 167.7 108.07C169.02 107.34 170.06 106.02 171.7 105.92C168.84 109.261 165.735 112.383 162.41 115.26C159.12 117.046 155.723 118.629 152.24 120C149.278 121.324 146.243 122.479 143.15 123.46C142.82 123.56 142.51 123.81 142.15 123.66C140.046 123.393 137.966 122.961 135.93 122.37Z" fill="#3FA7BC"/>
<path d="M58.4292 99.05C58.2233 99.1613 57.9913 99.2153 57.7574 99.2065C57.5235 99.1977 57.2962 99.1264 57.0992 99C51.6684 96.4063 46.4167 93.4531 41.3792 90.16C39.5992 88.97 38.0192 87.45 36.1992 86.26C37.3392 85.1333 38.4759 83.9967 39.6092 82.85C40.2292 82.58 40.6892 82.85 41.1592 83.25C44.2092 85.51 47.4792 87.45 50.6692 89.5C50.8752 89.6945 51.1226 89.8397 51.3928 89.9246C51.6631 90.0094 51.9491 90.0318 52.2292 89.99C54.4593 92.8949 56.5291 95.9194 58.4292 99.05Z" fill="#38AEBB"/>
<path d="M127.001 49.19C124.371 50.81 121.921 52.68 119.151 54.11C115.189 56.0766 110.95 57.4256 106.581 58.11C106.041 58.21 105.841 57.9 105.641 57.52C106.875 55.2855 108.244 53.1282 109.741 51.06C111.861 51.52 113.611 50.51 115.401 49.63C118.041 48.34 120.261 46.36 122.881 45.04L127.001 49.19Z" fill="#29BCB8"/>
<path d="M84.8281 162.36C85.3681 161.19 86.4881 161.46 87.2581 161.7C88.3444 161.96 89.4664 162.037 90.5781 161.93C93.0481 161.86 95.4981 162.3 97.9781 162.29C99.3481 162.29 100.728 162.08 102.098 162.19C103.718 163.99 104.688 166.19 106.178 168.1C106.04 168.321 105.846 168.502 105.617 168.625C105.387 168.747 105.129 168.808 104.868 168.8C100.578 168.9 96.2881 168.88 92.0081 168.8C91.6637 168.736 91.328 168.632 91.0081 168.49L84.8281 162.36Z" fill="#4A9CBE"/>
<path d="M144.301 66.4698L150.071 72.5798C145.611 74.4798 141.071 76.4298 136.441 78.4098C136.187 78.5169 135.908 78.5502 135.635 78.506C135.363 78.4618 135.109 78.3418 134.901 78.1598C134.593 78.0352 134.313 77.8488 134.079 77.6121C133.845 77.3754 133.662 77.0934 133.542 76.7834C133.421 76.4734 133.365 76.1419 133.377 75.8094C133.389 75.4769 133.468 75.1503 133.611 74.8498C133.881 74.1298 133.691 73.2998 134.071 72.5898C137.351 71.3698 139.931 69.0098 142.791 67.1198C143.261 66.8098 143.671 66.3998 144.301 66.4698Z" fill="#32B3BA"/>
<path d="M33.4688 89C36.6627 91.4892 40.0202 93.761 43.5188 95.8C45.5188 96.92 47.2788 98.29 49.3388 99.28C53.0488 101.08 56.9088 102.5 60.6388 104.28C61.1488 104.52 61.5387 104.28 61.9587 104.07C61.9969 104.422 61.9567 104.778 61.8409 105.113C61.7251 105.448 61.5367 105.753 61.2891 106.006C61.0415 106.26 60.7409 106.455 60.4089 106.578C60.0769 106.702 59.7217 106.75 59.3687 106.72C58.2188 106.47 57.0688 106.2 55.9288 105.94C48.9997 103.099 42.4145 99.4824 36.2987 95.16C34.9088 94.16 33.5187 93.16 32.1187 92.23C31.7163 92.0056 31.3997 91.6538 31.2188 91.23L33.4688 89Z" fill="#3AACBB"/>
<path d="M123.151 140.39C123.231 141.05 123.591 141.02 124.151 140.91C128.151 140.11 132.211 139.4 136.211 138.46C137.48 138.051 138.792 137.789 140.121 137.68L130.481 147.33C128.171 148.06 125.761 148.33 123.421 148.86C122.861 148.99 122.021 149.2 121.891 148.16C122.125 145.543 122.546 142.946 123.151 140.39Z" fill="#44A2BD"/>
<path d="M99.8984 150.38C101.511 149.856 103.225 149.726 104.898 150C106.508 150.36 108.178 149.46 109.778 149.68C112.088 149.99 114.288 148.56 116.578 149.46L115.648 155.08C115.612 155.365 115.481 155.629 115.276 155.831C115.071 156.032 114.804 156.159 114.518 156.19C111.129 156.813 107.668 156.957 104.238 156.62L99.8984 150.38Z" fill="#479FBD"/>
<path d="M109.841 31.9996C108.903 33.5488 107.401 34.6743 105.651 35.1396C103.651 35.6196 101.771 36.8096 99.5511 36.4896C96.0011 35.9996 92.6711 34.9996 90.1211 32.3096C91.3745 30.8751 92.7351 29.5379 94.1911 28.3096C95.1995 29.6684 96.6542 30.6286 98.3 31.0218C99.9458 31.4149 101.677 31.2159 103.191 30.4596C104.311 29.9596 104.891 28.7896 106.071 28.4096C107.477 29.4386 108.745 30.6453 109.841 31.9996Z" fill="#22C3B7"/>
<path d="M31.2205 91.21C35.2205 93.58 38.7605 96.72 42.8805 98.95C46.4513 100.996 50.1226 102.862 53.8805 104.54C54.6397 104.862 55.342 105.304 55.9605 105.85L41.0005 102.73C37.9324 101.13 35.0052 99.2737 32.2505 97.18C31.4505 96.6 30.6205 96.07 29.8105 95.52C29.1805 95.08 28.4605 94.64 28.8105 93.65C29.5204 92.7494 30.3288 91.931 31.2205 91.21Z" fill="#3BABBB"/>
<path d="M33.5681 106.18L49.2381 109.32C52.3481 109.96 55.4581 110.62 58.5581 111.32L58.6481 111.74L49.1481 115.62C47.9781 115.67 47.2281 114.74 46.2481 114.34C42.0233 112.527 37.9561 110.366 34.0881 107.88C33.8492 107.776 33.636 107.621 33.4632 107.426C33.2905 107.231 33.1625 107 33.0881 106.75C32.9981 106.4 33.0681 106 33.5681 106.18Z" fill="#3DA9BB"/>
<path d="M33.5705 106.18C32.9305 106.96 33.7305 107.18 34.1305 107.41C38.2282 110.009 42.5327 112.267 47.0005 114.16C47.7818 114.55 48.5193 115.023 49.2005 115.57L42.1105 118.68C41.7105 118.85 41.3805 118.96 41.0005 118.58C36.5305 114.19 32.0005 109.82 27.7305 105.21C29.7131 105.257 31.6792 105.583 33.5705 106.18Z" fill="#3FA7BC"/>
<path d="M156.532 78.6797L162.212 84.3697C160.168 86.4869 157.806 88.2718 155.212 89.6597C155.066 89.7583 154.897 89.8167 154.721 89.829C154.546 89.8413 154.37 89.8071 154.212 89.7297C151.464 88.7445 148.773 87.606 146.152 86.3197C145.942 85.6497 146.432 85.3197 146.862 85.1097C149.927 83.3107 152.867 81.3061 155.662 79.1097C155.932 78.9299 156.225 78.7854 156.532 78.6797Z" fill="#37AFBA"/>
<path d="M84.1297 90.9102C88.5167 91.7639 92.9634 92.2754 97.4297 92.4402C99.0897 92.5502 100.78 92.2802 102.43 92.8702C98.6297 94.6802 94.7597 96.3001 90.8397 97.8102C88.2697 98.3802 85.9097 97.0702 83.4197 96.9602C82.9037 96.9325 82.3993 96.7962 81.9397 96.5602C81.5497 96.3602 81.0497 96.2102 81.1497 95.5602C82.0063 93.9267 83.0034 92.3708 84.1297 90.9102Z" fill="#35B1BA"/>
<path d="M142.471 128.65C143.561 129.81 142.091 129.65 141.781 129.78C138.371 130.69 134.941 131.51 131.511 132.36C129.781 132.79 127.981 132.93 126.271 133.5C125.671 133.69 124.681 134.05 124.371 132.88C124.462 131.538 124.636 130.202 124.891 128.88C124.961 127.88 125.891 127.88 126.381 127.3C127.851 125.5 129.571 125.8 131.521 126.3C135.141 127.2 138.821 127.88 142.471 128.65Z" fill="#40A6BC"/>
<path d="M156.528 78.6802C155.178 80.1902 153.368 81.1102 151.848 82.4002C150.078 83.9002 147.778 84.5902 146.178 86.3202L138.328 83.1302C138.608 82.3102 139.258 82.2902 139.738 82.1302C143.868 80.3602 148.038 78.6902 152.118 76.8402C153.508 76.2102 154.488 76.1602 155.388 77.4702C155.735 77.9036 156.116 78.3083 156.528 78.6802Z" fill="#35B1BA"/>
<path d="M85.5491 79.8797C85.5415 79.7377 85.5055 79.5987 85.4432 79.4709C85.3808 79.3431 85.2934 79.2292 85.1861 79.1358C85.0788 79.0425 84.9538 78.9718 84.8186 78.9278C84.6834 78.8838 84.5407 78.8674 84.3991 78.8797C81.9191 78.9597 79.7491 77.8797 77.3991 77.2397C73.5891 76.2397 70.1591 74.3697 66.6791 72.6397C62.9713 70.8795 59.5523 68.5665 56.5391 65.7797L58.3991 63.9297C59.0791 65.2597 60.4791 65.7497 61.5891 66.5397C66.8965 70.4572 72.8696 73.381 79.2191 75.1697C81.8491 75.8597 84.4191 76.7797 87.0191 77.5997C86.6471 78.4296 86.1514 79.1983 85.5491 79.8797Z" fill="#31B5B9"/>
<path d="M113.212 77.6297C112.682 78.8297 111.472 78.5098 110.552 78.7998C108.102 79.5798 105.492 79.4798 103.012 79.5498C99.4062 79.8208 95.781 79.636 92.2217 78.9998C92.1417 78.9998 92.0817 78.8597 92.0117 78.7797C92.2944 77.98 92.7601 77.2574 93.3717 76.6697C94.3717 76.2697 95.3717 76.7298 96.3717 76.3998C98.1993 76.0668 99.8442 75.0826 101.002 73.6297C101.096 73.4609 101.225 73.314 101.381 73.1987C101.536 73.0834 101.714 73.0023 101.903 72.9607C102.092 72.9191 102.287 72.9181 102.477 72.9575C102.666 72.997 102.845 73.0762 103.002 73.1898C106.192 74.5798 109.432 75.8897 112.542 77.4897C112.758 77.5669 112.983 77.614 113.212 77.6297Z" fill="#30B7B9"/>
<path d="M115.07 73.2104C116.98 72.1104 119.19 71.9104 121.23 71.2104C124.23 70.1404 127.01 68.7404 129.95 67.6504C129.54 70.3604 129.14 73.0704 128.71 75.7804C128.54 76.7804 126.28 78.0904 125.31 77.6804C121.89 76.2004 118.48 74.7004 115.07 73.2104Z" fill="#30B6B9"/>
<path d="M144.3 66.4698C141.847 68.2231 139.394 69.9698 136.94 71.7098C136.134 72.3646 135.105 72.6802 134.07 72.5898C134.4 68.8998 135.26 65.2898 135.77 61.5898C135.91 60.5898 136.1 59.6598 136.25 58.7998L144.3 66.4698Z" fill="#30B6B9"/>
<path d="M91 168.49C94.41 168.27 97.82 168.49 101.22 168.4C102.88 168.4 104.58 168.64 106.22 168.1C107.88 170.1 107.88 170.1 106.05 171.82C102.05 175.54 98.28 175.54 94.29 171.82C93.12 170.74 92.06 169.6 91 168.49Z" fill="#4C9ABE"/>
<path d="M104.23 156.62C105.263 156.291 106.355 156.189 107.43 156.32C109.693 156.316 111.953 156.145 114.19 155.81C114.474 155.817 114.754 155.754 115.007 155.627C115.26 155.5 115.478 155.312 115.64 155.08C115.23 157.73 114.95 160.4 114.37 163.01C114.03 164.58 112.44 165.36 111.37 166.44C111.01 166.79 110.77 166.2 110.59 165.94C108.46 162.84 106.35 159.73 104.23 156.62Z" fill="#489EBD"/>
<path d="M122.921 45.0696C121.249 46.5853 119.402 47.8978 117.421 48.9796C115.611 49.9796 113.851 51.2496 111.701 51.5196C111.071 51.5996 110.091 52.6296 109.781 51.0896C112.081 47.4896 114.401 43.8896 116.691 40.2796C117.121 39.5996 117.431 39.4196 118.061 40.0896C119.641 41.7796 121.291 43.4096 122.921 45.0696Z" fill="#28BEB8"/>
<path d="M60 92.4997C61.7 92.3697 63 93.3797 64.47 93.9897C67.7143 95.2367 71.0223 96.3116 74.38 97.2097L71.69 101.54C71.6358 101.63 71.5757 101.717 71.51 101.8C71.04 102.28 66.45 102.04 66.07 101.49C64.0233 98.4964 62 95.4997 60 92.4997Z" fill="#38AEBB"/>
<path d="M142.121 123.65C143.841 122.2 146.121 122.06 148.121 121.26C152.751 119.41 157.231 117.21 161.861 115.36C162.057 115.302 162.258 115.258 162.461 115.23C161.181 117.06 159.391 118.42 157.881 120.04C156.761 121.04 155.709 122.112 154.731 123.25C153.021 125.64 150.981 126 148.321 125.08C146.282 124.49 144.213 124.012 142.121 123.65Z" fill="#40A6BC"/>
<path d="M154.238 89.7301C156.487 88.6124 158.581 87.2073 160.468 85.5501C160.988 85.0701 161.378 84.4001 162.208 84.3701C164.078 86.2301 165.938 88.1001 167.798 89.9601C166.308 91.2701 165.018 92.8601 162.998 93.4401C160.016 92.3548 157.093 91.1165 154.238 89.7301Z" fill="#39ADBB"/>
<path d="M48.1608 121.21C52.0408 119.53 55.9175 117.863 59.7908 116.21C60.2608 116.01 60.7908 115.54 61.3008 116.21C61.8108 116.88 61.5208 117.21 61.1908 117.75C59.6208 120.12 58.0708 122.49 56.5008 124.87C55.5008 125.49 54.6408 124.61 53.7208 124.43C52.1847 123.994 50.6783 123.459 49.2108 122.83C48.5608 122.62 47.6108 122.33 48.1608 121.21Z" fill="#3FA7BC"/>
<path d="M52.2298 89.9996C52.0098 91.1396 51.3698 90.4496 51.0098 90.1996C47.5498 87.8596 43.8798 85.8596 40.5898 83.2796C40.3076 83.0401 39.9584 82.8934 39.5898 82.8596C40.8598 81.5696 42.1598 80.2996 43.3698 78.9596C44.0198 78.2396 44.3698 78.3796 44.8298 79.1196C47.2798 82.7196 49.7598 86.3296 52.2298 89.9996Z" fill="#36AFBA"/>
<path d="M28.8202 93.6504C28.9402 94.5904 29.6702 94.9804 30.3602 95.4504C33.9102 97.8604 37.4502 100.3 40.9902 102.73C36.1902 101.73 31.4002 100.73 26.5902 99.7904C25.5902 99.6004 25.5902 99.0904 25.7502 98.3604C26.2248 96.4942 27.3044 94.8379 28.8202 93.6504Z" fill="#3CAABB"/>
<path d="M81.1289 95.5898C81.3716 95.8557 81.6643 96.0712 81.9903 96.2239C82.3164 96.3766 82.6693 96.4636 83.0289 96.4799C85.6089 96.9799 88.2189 97.3698 90.8189 97.8098L75.8889 104.29L75.6289 103.88C77.4622 101.113 79.2956 98.3498 81.1289 95.5898Z" fill="#37AFBA"/>
<path d="M48.1597 121.21C48.0697 121.86 48.4897 122.15 48.9997 122.34C51.4797 123.25 53.9397 124.22 56.4997 124.88C55.4997 126.53 54.4197 128.18 53.3897 129.88C53.0897 130.37 52.8597 130.54 52.3897 130.05C49.9697 127.6 47.5197 125.18 44.9297 122.58L48.1597 121.21Z" fill="#41A5BC"/>
<path d="M121.879 148.16C122.489 148.8 123.179 148.5 123.879 148.35C126.059 147.87 128.189 147.11 130.479 147.35L120.379 157.18C120.799 154.11 121.179 151.11 121.879 148.16Z" fill="#46A0BD"/>
<path d="M163 93.44C164.66 92.37 165.93 90.74 167.8 89.96C170.29 92.45 173.19 94.61 174.32 98.37L163 93.44Z" fill="#3BABBB"/>
<path d="M96.3906 76.3703C95.3906 76.9103 94.3906 76.5103 93.3906 76.6403C94.3306 76.0003 95.3906 76.5703 96.3906 76.3703Z" fill="#31B4B9"/>
</svg>
