<svg width="200" height="200" viewBox="0 0 200 200" fill="none" xmlns="http://www.w3.org/2000/svg">
<path d="M52.7007 126.15C52.7007 118.96 52.7007 111.78 52.7007 104.59C52.6123 103.045 52.9708 101.508 53.7334 100.162C54.496 98.8158 55.6304 97.7179 57.0006 96.9998L91.6706 76.9998C94.0806 75.6098 96.3607 73.9098 99.4107 74.1498C100.774 74.2029 102.108 74.5654 103.311 75.2098C115.884 82.4898 128.447 89.7531 141.001 96.9998C142.388 97.7476 143.538 98.869 144.321 100.237C145.104 101.605 145.489 103.165 145.431 104.74C145.431 117.8 145.431 130.85 145.431 143.91C145.431 144.82 145.431 145.74 145.431 146.65C145.611 150.78 144.161 153.89 140.431 156.03C127.971 163.11 115.601 170.35 103.161 177.48C101.897 178.25 100.446 178.658 98.9656 178.658C97.4857 178.658 96.0343 178.25 94.7706 177.48C90.5306 175.04 86.3406 172.48 82.1406 170.02C81.6507 169.73 80.9106 169.51 80.9906 168.84C81.0706 168.17 81.7907 168.26 82.2507 168.06C83.0695 167.817 83.858 167.482 84.6006 167.06C87.0807 165.13 89.2406 165.69 91.6006 167.43C93.4206 168.79 95.5406 169.72 97.4407 170.98C97.874 171.303 98.4001 171.477 98.9407 171.477C99.4812 171.477 100.007 171.303 100.441 170.98C112.501 163.98 124.574 157.013 136.661 150.08C137.244 149.803 137.728 149.355 138.05 148.796C138.371 148.237 138.515 147.593 138.461 146.95C138.421 133.103 138.421 119.256 138.461 105.41C138.504 104.829 138.371 104.249 138.078 103.745C137.786 103.242 137.347 102.839 136.821 102.59C124.661 95.6298 112.517 88.6298 100.391 81.5898C100.026 81.2821 99.5748 81.0963 99.0994 81.0586C98.6241 81.021 98.1488 81.1333 97.7406 81.3798C85.7206 88.4598 73.6607 95.4631 61.5607 102.39C60.8947 102.697 60.3428 103.206 59.9836 103.846C59.6245 104.485 59.4764 105.221 59.5607 105.95C59.6273 119.596 59.6273 133.263 59.5607 146.95C59.4803 147.681 59.6422 148.419 60.0215 149.049C60.4009 149.68 60.9768 150.168 61.6606 150.44C64.3806 151.83 66.9607 153.49 69.6607 155.02C71.071 155.961 72.7001 156.522 74.3906 156.65C77.7106 156.71 79.7907 154.7 79.7907 151.36V109.58C79.7907 106.96 79.9207 106.83 82.5807 106.84C87.4007 106.84 86.9106 106.29 86.9007 111.28C86.9007 125 86.9007 138.72 86.9007 152.43C86.9007 157.43 84.4406 161.43 80.6306 162.79C77.4881 163.977 74.0304 164.033 70.8506 162.95C65.3306 161.03 60.5006 157.74 55.6406 154.62C54.6741 153.932 53.9013 153.006 53.3968 151.932C52.8923 150.859 52.6732 149.673 52.7606 148.49C52.7206 141 52.7007 133.59 52.7007 126.15Z" fill="#7FBC00"/>
<path d="M110.048 105.83C113.27 105.725 116.484 106.199 119.538 107.23C125.458 109.34 127.538 113.45 128.308 118.59C128.468 119.72 128.038 120.36 126.838 120.36C126.316 120.315 125.791 120.315 125.268 120.36C122.778 120.71 121.018 120.36 120.338 117.36C119.828 115.09 117.858 113.72 115.538 113.22C111.704 112.377 107.736 112.343 103.888 113.12C102.454 113.339 101.155 114.088 100.248 115.22C98.5083 117.53 99.1583 120.06 101.878 121.02C105.768 122.4 109.878 122.63 113.938 123.24C116.713 123.585 119.455 124.154 122.138 124.94C126.638 126.37 129.638 129.13 129.878 134.12C130.118 139.11 128.288 142.89 123.928 145.37C119.388 147.96 114.378 148.37 109.358 148.22C105.188 148.12 101.038 147.6 97.2483 145.6C95.2012 144.632 93.4793 143.091 92.2916 141.163C91.104 139.235 90.5019 137.004 90.5583 134.74C90.5583 133.29 91.0683 132.87 92.3683 133.03C92.6283 133.03 92.8983 133.03 93.1583 133.03C94.4583 133.03 95.9083 132.73 97.0183 133.2C98.1283 133.67 97.7983 135.4 98.2583 136.52C98.6123 137.474 99.1905 138.329 99.944 139.013C100.698 139.697 101.604 140.19 102.588 140.45C107.736 141.915 113.191 141.915 118.338 140.45C119.104 140.272 119.816 139.912 120.413 139.4C121.01 138.888 121.475 138.24 121.768 137.51C122.848 134.74 122.148 132.97 119.418 131.87C116.281 130.778 113.005 130.132 109.688 129.95C106.513 129.672 103.364 129.15 100.268 128.39C94.935 126.97 92.115 123.927 91.8083 119.26C91.4683 113.66 93.9683 109.63 99.0183 107.53C102.535 106.196 106.293 105.617 110.048 105.83Z" fill="#7FBC00"/>
<path d="M93.8387 57.0802C93.8387 59.2302 93.7787 61.3902 93.8387 63.5402C93.9146 64.1154 93.8052 64.6998 93.5265 65.2087C93.2478 65.7176 92.8142 66.1244 92.2887 66.3702C88.3587 68.5502 84.4987 70.8302 80.6287 73.1002C80.2196 73.3666 79.7419 73.5084 79.2537 73.5084C78.7655 73.5084 78.2878 73.3666 77.8787 73.1002C73.8787 70.7602 69.8787 68.4302 65.8787 66.1602C65.4156 65.9295 65.0326 65.5649 64.7794 65.1137C64.5261 64.6626 64.4144 64.1457 64.4587 63.6302C64.4587 59.1302 64.4587 54.6302 64.4587 50.1202C64.4299 49.5718 64.5672 49.0274 64.8526 48.5582C65.1381 48.089 65.5584 47.7168 66.0587 47.4902C70.0587 45.2702 73.9987 42.9935 77.8787 40.6602C78.2711 40.3844 78.739 40.2363 79.2187 40.2363C79.6983 40.2363 80.1663 40.3844 80.5587 40.6602C84.5587 43.0135 88.5587 45.3235 92.5587 47.5902C93.003 47.802 93.3685 48.1497 93.6022 48.583C93.8358 49.0162 93.9257 49.5125 93.8587 50.0002C93.7987 52.3802 93.8387 54.7302 93.8387 57.0802Z" fill="#7FBC00"/>
<path d="M54.5398 69.9096C54.0598 70.6296 53.5398 70.2596 53.0298 69.9696C50.7698 68.6796 48.5398 67.3496 46.2598 66.1096C45.7961 65.8786 45.4137 65.5118 45.1636 65.058C44.9135 64.6043 44.8075 64.0851 44.8598 63.5696C44.8598 60.9596 44.8598 58.3496 44.8598 55.7396C44.9118 55.2252 44.808 54.7071 44.5619 54.2524C44.3159 53.7978 43.9389 53.4275 43.4798 53.1896C40.2798 51.2396 38.9998 51.2596 36.0198 53.5796C35.664 53.9139 35.395 54.3301 35.2365 54.7919C35.0779 55.2537 35.0344 55.7472 35.1098 56.2296C35.1098 58.7096 35.1098 61.2296 35.1098 63.6596C35.1909 64.2015 35.0895 64.7549 34.8216 65.2329C34.5536 65.7108 34.1344 66.0861 33.6298 66.2996C31.5398 67.2996 29.5598 68.6096 27.5198 69.7396C26.9598 70.0396 26.3698 70.7996 25.6798 69.9096C25.7798 62.9096 25.9598 55.8196 25.5898 48.7696C25.5898 47.8596 26.4198 47.6696 26.9998 47.3296C30.7398 45.1496 34.5098 43.0196 38.2498 40.8196C38.7367 40.4552 39.3256 40.2524 39.9336 40.2399C40.5416 40.2273 41.1383 40.4056 41.6398 40.7496C45.3998 43.0296 49.2598 45.1596 53.0698 47.3696C53.6598 47.7096 54.4098 47.9296 54.5198 48.7796C54.1998 53.1496 54.4298 57.5196 54.3898 61.8896C54.4498 64.5596 54.3598 67.2396 54.5398 69.9096Z" fill="#333333"/>
<path d="M160.168 55.4397C159.718 56.6297 160.748 58.0497 159.288 59.1597C157.358 60.6097 155.988 59.7397 154.528 58.5597C154.648 56.9997 153.528 55.1797 155.458 53.9997C155.955 53.6558 156.539 53.4601 157.143 53.4353C157.746 53.4105 158.345 53.5577 158.868 53.8597C159.468 54.2497 160.258 54.4897 160.168 55.4397Z" fill="#7FBD02"/>
<path d="M54.5385 69.9103C54.2871 69.5268 54.1906 69.0622 54.2685 68.6103V50.2503C54.2685 49.7403 54.1585 49.2503 54.5985 48.7803C54.8685 55.8303 54.9985 62.8703 54.5385 69.9103Z" fill="#303030"/>
<path d="M25.6704 48.7695C26.0904 49.1095 26.0504 49.5695 26.0504 50.0295V68.8095C26.103 69.2001 25.9988 69.5957 25.7604 69.9095C25.2604 67.4095 25.6204 64.9095 25.5804 62.3695C25.5204 57.8395 25.6304 53.2995 25.6704 48.7695Z" fill="#292829"/>
<path d="M171.931 50.3204C171.956 49.78 171.834 49.2427 171.579 48.7657C171.324 48.2886 170.944 47.8894 170.481 47.6104C166.591 45.3904 162.701 43.1704 158.851 40.9004C158.453 40.6193 157.984 40.4562 157.497 40.4296C157.011 40.4031 156.527 40.5143 156.101 40.7504C151.881 43.1571 147.674 45.5871 143.481 48.0404C143.231 48.1804 143.111 48.5304 142.931 48.7804C142.681 54.2604 142.721 59.7804 142.931 65.2204C142.931 65.6204 143.211 65.8004 143.481 65.9604C147.701 68.3804 151.931 70.7804 156.141 73.2304C156.575 73.456 157.065 73.5523 157.552 73.508C158.04 73.4637 158.504 73.2806 158.891 72.9804C160.891 71.8604 162.981 70.7104 165.021 69.5504C166.801 68.5504 166.811 68.0004 165.021 66.9604C161.701 65.0404 158.361 63.1604 155.021 61.2504C152.211 59.6504 152.211 59.6504 152.621 56.2504C153.291 55.0304 153.831 53.6904 155.381 53.2504C155.536 53.1736 155.686 53.0868 155.831 52.9904L156.491 52.5904C156.711 52.4796 156.954 52.4219 157.201 52.4219C157.447 52.4219 157.69 52.4796 157.911 52.5904C158.131 52.7104 158.341 52.8504 158.571 52.9704C158.721 53.0557 158.879 53.1293 159.041 53.1904C160.179 53.5927 161.146 54.3726 161.781 55.4004C162.141 56.4504 161.681 57.5604 162.051 58.6004C162.701 59.4804 163.421 59.0704 164.051 58.6904C165.584 57.7086 167.17 56.8106 168.801 56.0004C171.411 54.8704 172.251 53.0604 171.931 50.3204Z" fill="#333333"/>
<path d="M133.091 28.0002C133.132 27.4493 133.008 26.8985 132.736 26.4179C132.464 25.9372 132.055 25.5482 131.561 25.3002C129.411 24.1002 127.241 22.9102 125.071 21.7302C124.541 21.4402 123.951 20.9002 123.391 21.7302C123.277 21.9602 123.199 22.2064 123.161 22.4602C123.161 28.9802 123.184 35.5035 123.231 42.0302C122.151 43.0902 121.451 41.9402 120.701 41.5202C119.361 40.7702 118.191 40.1502 116.581 41.1402C112.771 43.5002 108.861 45.7102 104.961 47.9102C104.549 48.0965 104.204 48.4042 103.972 48.7919C103.739 49.1797 103.631 49.6292 103.661 50.0802C103.661 54.7469 103.661 59.4469 103.661 64.1802C103.622 64.6332 103.719 65.0875 103.94 65.4849C104.161 65.8823 104.495 66.2045 104.901 66.4102C108.961 68.7302 113.011 71.0635 117.051 73.4102C117.428 73.6618 117.872 73.796 118.326 73.796C118.78 73.796 119.223 73.6618 119.601 73.4102C123.601 71.0502 127.691 68.6902 131.761 66.4102C132.193 66.1933 132.551 65.8513 132.786 65.4286C133.021 65.0059 133.124 64.5221 133.081 64.0402C133.028 52.0535 133.031 40.0402 133.091 28.0002ZM123.561 59.6802C123.561 59.6802 123.461 59.7502 123.411 59.7502C123.349 59.7302 123.292 59.6998 123.241 59.6602C121.941 60.8702 120.241 61.4302 118.821 62.4402C118.681 62.5574 118.504 62.6215 118.321 62.6215C118.138 62.6215 117.961 62.5574 117.821 62.4402C117.421 62.2102 117.051 61.9602 116.651 61.7402C113.331 59.9002 112.861 58.9002 113.441 55.1502C113.49 54.8677 113.607 54.6013 113.781 54.3733C113.955 54.1453 114.181 53.9625 114.441 53.8402C118.261 51.4602 118.261 51.4502 122.131 53.8402C122.511 54.0702 122.861 54.3602 123.231 54.6302C124.061 56.3002 123.551 58.0002 123.561 59.7102V59.6802Z" fill="#333333"/>
<path d="M167.12 80.63C166.123 80.5934 165.127 80.7583 164.195 81.1149C163.262 81.4716 162.41 82.0126 161.691 82.7057C160.972 83.3988 160.401 84.2297 160.01 85.1488C159.619 86.0679 159.418 87.0563 159.418 88.055C159.418 89.0537 159.619 90.0421 160.01 90.9612C160.401 91.8803 160.972 92.7112 161.691 93.4043C162.41 94.0974 163.262 94.6384 164.195 94.9951C165.127 95.3517 166.123 95.5166 167.12 95.48C171.12 95.62 174.441 92.1 174.501 87.93C174.482 85.9858 173.696 84.1276 172.314 82.7603C170.931 81.393 169.065 80.6273 167.12 80.63ZM172.381 90.9C171.811 91.76 171.431 92.78 170.301 93.12C169.784 93.6367 169.09 93.937 168.361 93.96L168.001 94C167.201 94.2002 166.368 94.2335 165.555 94.0977C164.742 93.9619 163.965 93.66 163.274 93.2107C162.583 92.7615 161.991 92.1746 161.537 91.4867C161.083 90.7987 160.775 90.0245 160.633 89.2123C160.491 88.4002 160.518 87.5675 160.712 86.7662C160.906 85.9649 161.264 85.2123 161.762 84.5553C162.26 83.8982 162.888 83.3509 163.607 82.9473C164.326 82.5438 165.12 82.2928 165.941 82.21C166.197 82.0811 166.485 82.029 166.771 82.06C167.78 81.9142 168.81 82.062 169.737 82.4858C170.664 82.9096 171.45 83.5915 172.001 84.45C172.266 84.6454 172.476 84.907 172.61 85.2088C172.743 85.5105 172.795 85.8419 172.76 86.17C173.062 86.6286 173.243 87.1565 173.285 87.704C173.327 88.2515 173.229 88.8007 173.001 89.3C173.014 89.5969 172.964 89.8934 172.854 90.1694C172.744 90.4454 172.575 90.6945 172.361 90.9H172.381Z" fill="#80BD04"/>
<path d="M169.702 89.33C169.477 88.3923 169.586 87.4055 170.012 86.54C169.987 86.4831 169.975 86.4219 169.975 86.36C169.975 86.2982 169.987 86.237 170.012 86.18C169.992 85.8193 169.896 85.4669 169.729 85.1463C169.563 84.8257 169.33 84.5444 169.046 84.321C168.762 84.0977 168.433 83.9374 168.083 83.851C167.732 83.7647 167.367 83.7541 167.012 83.82C166.012 83.82 165.072 83.82 164.102 83.87V92.08C165.422 92.62 166.042 92.08 166.182 90.76C166.182 90.38 166.262 89.9 166.712 89.76C167.322 89.64 167.392 90.21 167.572 90.6C167.657 90.845 167.797 91.0673 167.982 91.25L168.072 91.84C168.662 92.47 169.312 92.25 169.972 91.98C169.972 91.64 169.972 91.3 169.922 90.98C169.694 90.4618 169.618 89.8898 169.702 89.33ZM166.702 87.47C165.992 87.47 165.592 87.33 165.652 86.47C165.652 85.85 165.652 85.29 166.552 85.34C167.232 85.34 167.892 85.34 167.992 86.25C168.002 87.12 167.502 87.42 166.742 87.47H166.702Z" fill="#81BE06"/>
</svg>
