<svg width="200" height="200" viewBox="0 0 200 200" fill="none" xmlns="http://www.w3.org/2000/svg">
<path d="M90.001 23.9995C99.001 23.9995 108.001 23.8995 117.081 23.9995C125.156 23.9843 132.978 26.8171 139.171 31.9995C142.494 34.6674 145.167 38.0559 146.988 41.9089C148.809 45.7618 149.73 49.9783 149.681 54.2395C149.681 72.4995 142.681 87.4795 127.411 97.9795C119.828 103.123 110.921 105.967 101.761 106.17C96.071 106.38 90.371 106.26 84.661 106.28C79.471 106.28 77.261 108.01 76.411 113.13C74.691 123.58 73.101 134.06 71.411 144.52C70.831 148.19 70.161 151.85 69.681 155.52C69.511 156.78 68.971 157.01 67.861 157C59.301 157 50.751 157 42.201 157C37.731 157 35.201 154 35.851 149.58C38.871 130.206 41.9277 110.84 45.021 91.4795L54.321 32.6895C54.461 31.7495 54.601 30.8095 54.791 29.8795C55.591 25.9995 58.001 23.9995 61.941 23.9995H90.001Z" fill="#008BD4"/>
<path d="M160.698 70.3301C163.719 75.7707 164.878 82.0497 163.998 88.2101C161.898 105.83 153.418 119.09 136.838 126.45C130.704 129.068 124.075 130.327 117.408 130.14C115.188 130.14 112.978 130.14 110.758 130.14C106.868 130.19 105.278 131.36 104.548 135.25C103.548 140.76 102.718 146.32 101.838 151.86C100.838 157.86 99.9783 163.86 98.9683 169.86C98.2683 173.99 95.7883 175.99 91.5783 175.99C85.5783 175.99 79.5783 175.99 73.5783 175.99C70.4783 175.99 68.2283 174.43 67.5083 171.99C67.0383 170.42 67.3183 169.6 69.2083 169.67C72.2883 169.77 75.3783 169.67 78.4683 169.72C79.7883 169.72 80.3683 169.43 80.5883 167.95C82.5883 155.14 84.5883 142.35 86.6483 129.55C87.1383 126.55 87.7283 123.48 88.1083 120.43C88.2883 118.92 89.1683 118.99 90.2483 118.97C95.3083 118.89 100.368 119.12 105.428 118.62C131.868 116.01 152.538 98.8401 159.848 73.3201C159.998 72.5201 160.288 71.7001 160.698 70.3301Z" fill="#008BD4"/>
</svg>
