<svg width="200" height="200" viewBox="0 0 200 200" fill="none" xmlns="http://www.w3.org/2000/svg">
<path d="M191.26 87.5299C188.16 81.0299 183.2 76.0299 177.51 71.7699C166.51 63.5199 153.99 58.5999 140.79 55.2899C122.315 50.7314 103.204 49.3183 84.26 51.1099C69.21 52.4399 54.58 55.5199 40.63 61.4499C30.48 65.7699 21.12 71.2999 13.82 79.7899C9.07 85.3199 5.93 91.5999 5.68 98.9999C5.38 108.11 9.34 115.49 15.4 121.92C22.52 129.47 31.28 134.56 40.73 138.55C59.65 146.55 79.53 149.4 99.91 149.6C105.39 149.6 110.84 149.3 116.29 148.81C131.2 147.46 145.69 144.33 159.49 138.44C169.57 134.14 178.92 128.66 186.1 120.16C194.37 110.38 197 99.5399 191.26 87.5299ZM183.51 115.53C177.33 123.53 169.01 128.7 160 132.85C147.17 138.76 133.61 141.94 119.62 143.56C102.755 145.543 85.6874 144.953 69 141.81C53.79 138.93 39.28 134.16 26.5 125.09C22.6277 122.382 19.1828 119.109 16.28 115.38C8.67 105.48 8.68 94.3799 16.38 84.4999C22.6 76.4999 30.89 71.3399 39.91 67.1799C52.7 61.2999 66.2 58.1199 80.1 56.4899C86.9493 55.7115 93.8366 55.3142 100.73 55.2999C119.48 55.5099 138.38 58.1799 156.38 65.5899C165.93 69.5199 174.79 74.5899 181.79 82.3899C185.451 86.2185 187.951 91.0072 189 96.1999C190.28 103.51 187.89 109.81 183.51 115.48V115.53Z" fill="#0076FE"/>
<path d="M105.999 78.0003C108.478 78.0423 110.951 78.2595 113.399 78.6503C120.059 79.9503 122.579 83.4603 121.479 90.2003C120.619 95.4503 119.559 100.67 118.579 105.89C118.129 108.24 117.579 110.56 117.199 112.89C117.009 114.23 116.399 114.54 115.199 114.5C112.739 114.43 110.269 114.42 107.819 114.5C106.349 114.5 105.979 114.21 106.289 112.65C107.719 105.5 109.289 98.3703 110.349 91.1403C110.819 87.8703 109.879 86.4803 106.549 86.2003C103.219 85.9203 99.9988 86.1103 96.7288 86.0003C95.4588 86.0003 95.5888 86.8903 95.4388 87.6603C93.8088 96.0303 92.1488 104.39 90.5688 112.77C90.3388 114 89.9388 114.53 88.6188 114.48C86.0888 114.38 83.5588 114.39 81.0288 114.48C79.6688 114.48 79.4988 114.13 79.7588 112.84C82.8121 97.3803 85.8121 81.9103 88.7588 66.4303C89.0188 65.0203 89.5588 64.6703 90.8788 64.7203C93.1294 64.8753 95.3881 64.8753 97.6388 64.7203C99.7888 64.5203 99.7988 65.4903 99.4488 67.0903C98.7888 70.0903 98.2788 73.0903 97.6088 76.0903C97.2888 77.5003 97.6088 78.0903 99.1388 77.9703C101.109 77.8903 103.099 78.0003 105.999 78.0003Z" fill="#0076FE"/>
<path d="M67.7586 78.2601C64.0886 78.0501 60.3886 78.2601 56.6986 78.2601V78.1201C52.9386 78.1201 49.1786 78.1201 45.4186 78.1201C44.3386 78.1201 43.9186 78.4301 43.6986 79.5701C40.7186 95.1834 37.6919 110.783 34.6186 126.37C34.3886 127.58 34.5286 127.93 35.7986 127.9C38.3886 127.82 40.9886 127.8 43.5786 127.9C44.9186 127.95 45.2986 127.44 45.4986 126.19C46.0486 122.89 46.8686 119.64 47.3686 116.34C47.5986 114.88 48.2286 114.63 49.5186 114.65C53.1386 114.72 56.7586 114.65 60.3786 114.5C73.0386 114.11 79.7486 104.65 81.3786 95.8401C83.1586 86.0001 77.6786 78.8201 67.7586 78.2601ZM68.7586 100.07C67.0186 104.15 63.7586 106.07 59.4886 106.47C56.5686 106.73 53.6186 106.59 50.6786 106.69C49.6186 106.69 49.3886 106.29 49.5686 105.34C50.7786 99.2601 51.9986 93.1701 53.1386 87.0701C53.3286 86.0701 53.8186 85.9101 54.6686 85.9301C56.1686 85.9301 57.6686 85.9301 59.7786 85.9301C61.6242 85.8878 63.4696 86.0251 65.2886 86.3401C68.9386 87.2001 70.5186 89.1801 70.3486 92.9101C70.2445 95.3749 69.6956 97.8006 68.7286 100.07H68.7586Z" fill="#0076FE"/>
<path d="M156.068 78.8496C154.287 78.3783 152.451 78.1397 150.608 78.1396C143.768 78.1396 136.938 78.1396 130.108 78.0596C128.738 78.0596 128.428 78.6296 128.198 79.8196C126.658 87.9996 125.008 96.1596 123.418 104.33C121.918 112.09 120.418 119.85 118.898 127.82C122.118 127.82 125.188 127.76 128.238 127.82C129.488 127.82 129.848 127.4 130.038 126.24C130.588 122.94 131.388 119.69 131.908 116.39C132.138 114.9 132.748 114.54 134.178 114.55C137.798 114.55 141.418 114.45 145.038 114.36C157.778 114.05 164.268 104.46 165.868 96.0796C167.518 87.5196 163.798 80.9296 156.068 78.8496ZM152.498 101.53C150.618 104.76 147.578 106.19 144.028 106.53C141.118 106.77 138.168 106.63 135.238 106.74C134.048 106.74 133.878 106.28 134.088 105.26C135.278 99.3196 136.488 93.3896 137.568 87.4296C137.808 86.1496 138.348 85.8996 139.468 85.9596C140.888 86.0296 142.328 85.9596 144.388 85.9596C146.361 85.906 148.333 86.0737 150.268 86.4596C153.268 87.2596 154.808 88.9896 154.848 92.1496C154.935 95.4321 154.123 98.6758 152.498 101.53Z" fill="#0076FE"/>
</svg>
