<svg width="200" height="200" viewBox="0 0 200 200" fill="none" xmlns="http://www.w3.org/2000/svg">
<path d="M111.311 174.44C111.231 173.94 110.791 174.06 110.511 174.01C104.191 172.94 100.341 169.01 98.0114 163.3C95.9885 158.044 94.8792 152.48 94.7314 146.85C94.5714 143.41 94.4414 139.98 94.2914 136.41C91.98 137.295 89.5686 137.893 87.1114 138.19C82.7557 138.633 78.3567 138.058 74.2614 136.51C72.56 135.91 71.0225 134.92 69.7714 133.62C69.2414 133.04 68.9314 133.14 68.3514 133.54C62.5514 137.54 56.5314 137.23 51.2114 132.54C47.2114 129.01 44.5714 124.47 42.3214 119.72C37.3214 109.26 34.2214 98.18 31.5614 86.95C30.0479 81.0312 28.9321 75.0177 28.2214 68.95C27.4914 61.55 27.8614 54.2 30.4314 47.14C34.3214 36.44 42.1214 30.28 53.1914 28.25C62.8614 26.48 72.3214 27.98 81.5914 30.78C82.5654 31.1365 83.6042 31.2817 84.6387 31.2058C85.6732 31.13 86.6797 30.8348 87.5914 30.34C93.4114 27.43 99.7114 26.8 106.141 27.2C108.513 27.3213 110.876 27.5683 113.221 27.94C113.842 28.0569 114.481 28.033 115.091 27.87C122.65 25.7046 130.564 25.0688 138.371 26C150.371 27.44 160.371 32.69 167.831 42.27C170.261 45.37 171.031 49.08 171.281 52.9C171.821 60.84 170.281 68.54 168.221 76.14C165.008 87.7713 160.331 98.9474 154.301 109.4L153.411 110.97C155.954 110.879 158.483 110.544 160.961 109.97C162.525 109.634 164.133 109.556 165.721 109.74C166.871 109.874 167.972 110.281 168.932 110.928C169.893 111.575 170.683 112.443 171.239 113.458C171.794 114.474 172.098 115.608 172.124 116.766C172.151 117.923 171.9 119.07 171.391 120.11C170.419 122.07 169.01 123.781 167.271 125.11C162.131 129.246 155.852 131.716 149.271 132.19C147.157 132.48 145.017 132.53 142.891 132.34C141.891 132.2 141.991 132.9 141.951 133.4C141.791 135.87 141.731 138.34 141.541 140.81C141.239 146.181 140.302 151.498 138.751 156.65C135.821 165.79 129.691 171.28 120.331 173.29C118.771 173.63 117.101 173.57 115.661 174.42H114.491C113.733 174.18 112.919 174.18 112.161 174.42L111.311 174.44Z" fill="black"/>
<path d="M139.09 127.39C138.36 133.19 137.67 138.91 136.92 144.63C136.46 148.18 136 151.74 135.22 155.25C133.64 162.34 129.41 166.89 122.43 168.92C118.92 169.92 115.43 170.73 111.69 170.2C109.643 169.914 107.686 169.171 105.965 168.024C104.244 166.878 102.803 165.359 101.75 163.58C99.2605 159.74 98.5605 155.42 98.2105 150.99C97.6705 144.21 97.5605 137.42 97.6005 130.63C97.6005 130.2 97.6005 129.77 97.6005 129.28C97.4371 129.3 97.2782 129.347 97.1305 129.42C90.8605 134.54 83.8205 134.91 76.4005 132.71C75.087 132.313 73.8779 131.63 72.8605 130.71C70.6205 128.71 70.8605 126.13 73.3205 124.53C75.2243 123.437 77.3366 122.755 79.5205 122.53C81.3507 122.334 83.1025 121.682 84.6155 120.634C86.1285 119.586 87.3542 118.175 88.1805 116.53C86.1305 116.32 83.9505 116.18 82.1205 115.16C80.2905 114.14 79.4605 114.7 78.3105 116.07C75.3105 119.71 72.0605 123.23 68.9405 126.81C67.8488 128.177 66.5656 129.379 65.1305 130.38C63.7513 131.355 62.1093 131.889 60.4206 131.912C58.732 131.935 57.0759 131.446 55.6705 130.51C53.1908 128.871 51.1098 126.698 49.5805 124.15C45.6405 118.15 43.1005 111.61 40.8705 104.89C36.8407 93.1027 33.9639 80.9525 32.2805 68.6099C31.3683 62.0635 31.9565 55.3955 34.0005 49.1099C37.2305 39.4199 44.0805 33.8399 54.0005 32.1099C63.1005 30.4899 72.0005 31.9099 80.6705 34.6199C83.7405 35.6199 86.1605 35.7099 89.1405 34.0599C94.6405 31.0099 100.83 30.8199 107 31.3599C108.986 31.5179 110.954 31.8526 112.88 32.3599C113.496 32.473 114.131 32.407 114.71 32.1699C125.78 28.9399 136.84 28.3799 147.85 32.4199C154.015 34.6964 159.474 38.5516 163.68 43.5999C167.03 47.5499 167.22 52.2899 167.07 57.0699C166.736 63.7109 165.564 70.2831 163.58 76.6299C159.889 89.2949 154.393 101.362 147.26 112.46C146.51 113.63 146.84 113.99 147.94 114.33C150.916 115.071 154.014 115.169 157.03 114.62C158.85 114.4 160.65 113.95 162.47 113.71C164.29 113.47 166.24 113.29 167.47 115.2C168.34 116.6 167.84 118.43 166.02 120.26C161.998 124.256 156.773 126.818 151.15 127.55C147.161 128.314 143.058 128.259 139.09 127.39Z" fill="#FEFEFE"/>
<path d="M142.201 64.36C139.638 63.9984 137.035 64.0288 134.481 64.45C127.261 65.66 123.721 70.79 124.821 78.27C125.671 84.01 127.921 89.27 130.461 94.39C132.461 98.51 134.931 102.39 136.891 106.61C138.001 108.98 139.791 110.93 141.451 113.13C136.451 114.58 135.301 118.24 135.201 122.73C134.954 127.476 134.457 132.206 133.711 136.9C132.981 142.76 132.361 148.64 131.131 154.44C130.725 156.951 129.583 159.284 127.849 161.145C126.114 163.005 123.867 164.309 121.391 164.89C118.391 165.72 115.391 166.55 112.241 166.06C111.038 165.896 109.879 165.496 108.83 164.884C107.782 164.271 106.865 163.458 106.131 162.49C104.083 159.817 102.857 156.607 102.601 153.25C101.715 143.146 101.478 132.995 101.891 122.86C102.051 118.21 99.7311 114.59 95.7211 113.44C94.7733 113.302 93.8184 113.218 92.8611 113.19C93.5904 110.376 94.5745 107.635 95.8011 105C97.9129 100.736 99.2664 96.1377 99.8011 91.41C100.337 84.8687 99.6586 78.2848 97.8011 71.99C96.5311 67.65 93.0211 65.22 88.4611 64.92C83.9011 64.62 79.8411 65.92 75.8411 67.77L74.1211 68.57C74.3342 65.5907 74.7924 62.634 75.4911 59.73C76.4198 55.5131 77.9951 51.4653 80.1611 47.73C84.9511 39.73 92.1011 35.48 101.381 35.34C119.691 35.09 132.231 44.23 140.481 60.04C141.081 61.19 141.531 62.43 142.041 63.63C142.117 63.8679 142.17 64.1123 142.201 64.36Z" fill="#306692"/>
<path d="M81.4994 39.0795C72.4994 48.9295 69.8994 60.7495 69.7394 73.3695C69.7394 76.7095 70.0294 80.0495 70.0194 83.3695C69.9478 86.6693 69.7108 89.9635 69.3094 93.2395C68.8962 96.4846 69.249 99.7814 70.3396 102.866C71.4301 105.95 73.2281 108.736 75.5894 111C76.4294 111.84 76.3594 112.24 75.5894 113C72.1194 116.67 68.8194 120.48 65.5894 124.35C61.7194 128.97 58.6394 128.97 54.7994 124.28C51.2194 119.91 48.9594 114.8 46.9794 109.58C41.8026 96.0438 38.2315 81.9474 36.3394 67.5795C35.593 61.9752 36.0811 56.2754 37.7694 50.8795C40.4594 42.3895 46.3194 37.5895 54.9994 36.1295C64.0494 34.6095 72.7294 36.4895 81.4994 39.0795Z" fill="#306692"/>
<path d="M120.852 34.7404C132.852 32.7404 144.122 33.2104 154.252 40.4104C156.223 41.9106 158.057 43.5839 159.732 45.4104C161.701 47.4562 162.822 50.1714 162.872 53.0104C163.292 60.6304 161.722 68.0104 159.662 75.2104C156.298 86.9129 151.341 98.0976 144.932 108.45C144.844 108.623 144.74 108.787 144.622 108.94C144.422 109.15 144.382 109.7 143.922 109.44C143.829 109.402 143.747 109.343 143.68 109.269C143.614 109.194 143.565 109.105 143.538 109.009C143.511 108.912 143.507 108.811 143.525 108.713C143.542 108.614 143.582 108.521 143.642 108.44C147.142 102.54 147.132 96.1204 146.172 89.6604C145.434 83.8844 145.589 78.0293 146.632 72.3004C147.396 68.1396 146.858 63.8444 145.092 60.0004C140.002 49.0904 132.522 40.4804 121.532 35.2204C121.297 35.0725 121.07 34.9123 120.852 34.7404Z" fill="#306692"/>
<path d="M95.8488 86.69C95.9716 91.5448 95.0189 96.3667 93.0588 100.81C91.4384 104.273 90.0813 107.853 88.9988 111.52C88.6888 112.61 87.9988 112.41 87.3388 112.32C83.71 111.789 80.3655 110.053 77.8439 107.39C75.3224 104.727 73.7707 101.292 73.4388 97.64C73.3137 95.4156 73.4142 93.1842 73.7388 90.98C74.3102 85.7224 74.3973 80.4235 73.9988 75.15C73.9215 74.6806 73.9999 74.1988 74.2219 73.7782C74.444 73.3575 74.7976 73.021 75.2288 72.82C78.9988 70.64 82.9988 69 87.5188 69C91.1388 69 93.2988 70.75 94.1688 74.3C95.1571 78.3605 95.7201 82.5129 95.8488 86.69Z" fill="#306692"/>
<path d="M140.78 105C139.85 103.18 139.1 101.62 138.26 100.12C135.17 94.5201 132.07 88.9201 130.08 82.8001C129.389 80.8319 128.962 78.7806 128.81 76.7001C128.54 71.5501 130.88 68.9001 136 68.4201C137.888 68.3001 139.782 68.3001 141.67 68.4201C142.58 68.4201 142.86 68.8101 142.74 69.6701C142.43 72.0201 142.21 74.3901 141.82 76.7301C141.264 81.0507 141.331 85.4287 142.02 89.7301C142.56 94.0701 142.96 98.4201 141.6 102.73C141.39 103.42 141.13 104.07 140.78 105Z" fill="#306692"/>
<path d="M76 127.9C77.6885 127.212 79.4551 126.735 81.26 126.48C83.1315 126.189 84.9232 125.516 86.5232 124.503C88.1233 123.489 89.4974 122.157 90.56 120.59C91.1791 119.773 91.847 118.995 92.56 118.26C92.7371 118.026 92.9596 117.83 93.2141 117.684C93.4686 117.538 93.75 117.445 94.0413 117.411C94.3326 117.376 94.6279 117.401 94.9095 117.483C95.191 117.565 95.4531 117.704 95.68 117.89C96.1691 118.177 96.5914 118.566 96.9188 119.029C97.2463 119.492 97.4714 120.02 97.5792 120.577C97.687 121.134 97.6751 121.708 97.5442 122.26C97.4133 122.812 97.1664 123.33 96.82 123.78C92.61 129.09 87.04 130.56 80.59 129.47C78.964 129.286 77.3976 128.75 76 127.9Z" fill="#306693"/>
<path d="M161.681 118.59C159.625 120.32 157.245 121.625 154.681 122.43C150.265 123.835 145.589 124.228 141.001 123.58C139.631 123.38 139.281 122.72 139.401 121.42C139.631 118.68 140.491 117.61 143.131 116.98C143.309 116.921 143.499 116.902 143.685 116.924C143.872 116.947 144.051 117.01 144.211 117.11C147.701 119.31 151.571 119.28 155.471 118.96C157.471 118.79 159.471 118.47 161.471 118.21L161.681 118.59Z" fill="#306693"/>
<path d="M87.4491 71.3295C88.8525 71.2537 90.2464 71.6022 91.4491 72.3295C91.6869 72.4323 91.894 72.5948 92.0503 72.8014C92.2066 73.008 92.3068 73.2515 92.341 73.5083C92.3752 73.765 92.3424 74.0263 92.2457 74.2666C92.1489 74.5069 91.9916 74.7181 91.7891 74.8795C91.3448 75.4348 90.7558 75.8567 90.087 76.0984C89.4183 76.3402 88.6957 76.3924 87.9991 76.2495C87.2812 76.1109 86.6099 75.7936 86.0471 75.327C85.4843 74.8603 85.0482 74.2593 84.7791 73.5795C84.6919 73.4043 84.6436 73.2123 84.6374 73.0167C84.6312 72.8211 84.6673 72.6264 84.7433 72.446C84.8192 72.2657 84.9332 72.1038 85.0775 71.9715C85.2217 71.8392 85.3928 71.7396 85.5791 71.6795C86.1638 71.4099 86.8064 71.2896 87.4491 71.3295Z" fill="#FDFDFE"/>
<path d="M136.36 70.2305C137.24 70.4005 138.48 70.2305 138.81 71.3105C139.14 72.3905 138.21 73.1605 137.39 73.7805C136.688 74.354 135.794 74.6391 134.89 74.5778C133.986 74.5165 133.138 74.1135 132.52 73.4505C131.64 72.5205 131.72 71.7305 132.83 71.1005C133.925 70.5434 135.132 70.2457 136.36 70.2305Z" fill="#FCFDFD"/>
</svg>
