<svg width="200" height="200" viewBox="0 0 200 200" fill="none" xmlns="http://www.w3.org/2000/svg">
<g clip-path="url(#clip0)">
<path d="M9.25027 115.51C7.07414 105.256 7.02649 94.6636 9.11027 84.39C10.7003 80 12.4203 75.67 15.5003 72.07C17.3205 69.789 19.6381 67.9544 22.276 66.7065C24.914 65.4586 27.8023 64.8304 30.7203 64.87C33.4403 64.87 36.1603 64.87 38.8803 64.87C40.7103 64.87 42.3103 64.49 43.3403 62.81C43.4003 58.3833 43.4536 53.9567 43.5003 49.53C44.7403 40.31 50.8803 35 58.9103 32.35C74.0003 27.42 89.1803 27 103.74 34.58C109.74 37.7 113.58 42.63 114.5 49.58L114.74 62.95C115.419 63.8992 115.745 65.056 115.66 66.22C115.72 72.13 116.03 78.04 115.47 83.94C113.58 95 104.69 99.72 94.8803 99.61C83.7603 99.48 72.6403 99.46 61.5203 99.61C51.8903 99.74 44.7203 106.8 44.5203 116.05C44.2603 121.91 45.1303 127.8 43.9903 133.62C43.8494 133.966 43.6145 134.265 43.3123 134.484C43.0101 134.703 42.6526 134.833 42.2803 134.86C36.2803 135.12 30.2103 136.1 24.3903 134.09C15.5803 131.06 11.8003 123.74 9.25027 115.51Z" fill="#4794D0"/>
<path d="M43.2819 134.1L43.5319 115.58C45.5319 105.96 52.1419 100.51 62.0419 100.45C73.2719 100.38 84.4919 100.54 95.7119 100.45C104.942 100.34 111.332 95.7802 113.862 88.0002C114.252 86.8002 113.952 85.5402 114.542 84.4202C114.615 78.2602 114.682 72.0969 114.742 65.9302C123.242 62.1402 136.742 65.1402 142.542 72.1502C145.542 75.7702 147.312 80.0603 148.862 84.4403C150.974 94.6692 150.94 105.225 148.762 115.44C147.382 120.5 145.252 125.2 141.572 128.98C139.755 130.933 137.556 132.491 135.111 133.557C132.667 134.624 130.029 135.176 127.362 135.18C124.642 135.18 121.922 135.18 119.212 135.18C117.382 135.18 115.762 135.49 114.732 137.18C114.202 142.54 115.342 147.99 113.902 153.31C111.602 161.01 105.902 165.63 98.7819 167.85C84.0219 172.44 69.1919 172.85 54.8719 165.85C52.2802 164.647 49.9773 162.902 48.1192 160.731C46.261 158.561 44.891 156.016 44.1019 153.27C42.6619 147.95 43.8019 142.5 43.2719 137.13C42.9249 136.701 42.7365 136.165 42.7383 135.613C42.7401 135.062 42.9321 134.527 43.2819 134.1Z" fill="#FEC751"/>
<path d="M114.498 49.53C111.498 39.26 103.948 33.92 94.1681 31.8C81.8781 29.13 69.4881 28.7 57.5681 33.94C50.5681 37.01 45.5681 41.94 43.4981 49.53C43.3981 42.71 47.0181 37.91 52.1481 34.07C56.9014 30.4818 62.5661 28.2991 68.4981 27.77C77.3281 26.95 86.2181 26.48 94.9181 28.85C100.718 30.252 105.952 33.3921 109.918 37.85C112.808 41.16 114.758 44.93 114.498 49.53Z" fill="#599FD5"/>
<path d="M44.1016 153.27C50.6616 165.41 61.6616 169.42 74.5616 169.71C81.0616 169.86 87.5616 170.07 94.0116 168.41C102.812 166.13 109.632 161.41 113.902 153.27C113.652 159.03 109.982 162.72 105.842 165.91C101.034 169.655 95.2207 171.886 89.1416 172.32C76.4616 173.21 63.6116 174.18 52.4516 166.09C48.0916 162.93 44.3316 159.2 44.1016 153.27Z" fill="#CBCBCB"/>
<path d="M114.728 137.14C114.248 134.92 114.988 133.99 117.398 134.14C121.221 134.395 125.056 134.395 128.878 134.14C137.208 133.36 142.418 128.2 146.048 121.14C146.988 119.28 147.858 117.39 148.758 115.51C148.088 124.51 138.968 138.58 125.838 137.27C122.168 136.79 118.428 137.13 114.728 137.14Z" fill="#CBCBCB"/>
<path d="M43.3394 62.8096C43.6494 64.9496 42.9694 66.0496 40.5594 65.9096C37.8594 65.7496 35.1194 66.0096 32.4194 65.8496C22.9994 65.2796 16.8794 70.1996 12.4994 77.9296C11.3094 80.0396 10.2394 82.2296 9.10938 84.3896C10.1931 77.1254 14.1083 70.5856 19.9994 66.1996C23.6994 63.4196 27.9994 62.6696 32.5894 62.8696C36.1894 62.9996 39.7694 62.8396 43.3394 62.8096Z" fill="#5A9FD5"/>
<path d="M148.858 84.39C146.088 79.71 144.328 74.39 139.928 70.73C136.428 67.82 132.628 65.86 127.988 65.87H114.738V62.87C118.428 62.87 122.118 63.03 125.798 62.87C134.048 62.43 139.928 66.28 144.258 72.87C146.558 76.38 148.488 80.09 148.858 84.39Z" fill="#FECC62"/>
<path d="M43.2817 134.1C43.2817 135.1 43.2817 136.1 43.2817 137.1C39.4617 137.1 35.6317 136.94 31.8217 137.1C24.0117 137.44 18.3517 133.83 14.1617 127.62C11.6917 123.95 9.39172 120.13 9.26172 115.48C11.5617 119.9 13.2617 124.64 17.0117 128.24C21.0117 132.07 25.5117 134.3 31.1517 134.13C35.1817 134 39.2317 134.11 43.2817 134.1Z" fill="#CBCBCB"/>
<path d="M114.541 84.3701C114.631 94.1601 107.221 101.37 96.7412 101.46C86.2612 101.55 75.7412 101.84 65.3112 101.39C54.4112 100.92 47.1312 105.22 43.5312 115.58C43.6385 111.022 45.5276 106.687 48.7934 103.505C52.0592 100.324 56.4418 98.5484 61.0013 98.5601C72.1213 98.4201 83.2513 98.5601 94.3713 98.5601C105.761 98.5101 110.871 94.9301 114.541 84.3701Z" fill="#CBA34E"/>
<path d="M55.9288 48.0499C54.7088 43.7299 55.8488 40.7399 59.1988 39.5199C60.663 39.0127 62.2668 39.0918 63.6741 39.7404C65.0815 40.3891 66.1833 41.5571 66.7488 42.9999C67.4488 44.7499 66.9988 46.3799 66.4488 47.9999C66.0988 51.1999 63.6788 51.8099 61.1888 51.8099C58.6988 51.8099 56.2788 51.2499 55.9288 48.0499Z" fill="#FCFDFD"/>
<path d="M55.9314 48.0498C59.8814 52.1498 62.5213 52.1498 66.4514 48.0498C67.9413 50.4398 66.0914 51.7798 64.6314 52.8998C63.666 53.7052 62.4486 54.1463 61.1914 54.1463C59.9341 54.1463 58.7168 53.7052 57.7514 52.8998C56.3014 51.7798 54.4514 50.4398 55.9314 48.0498Z" fill="#3A78A8"/>
<path d="M90.9414 154C90.8414 148.946 92.6714 146.303 96.4314 146.07C100.491 145.82 102.771 148.72 102.671 154C102.051 157.22 100.021 158.78 96.8114 158.78C93.6014 158.78 91.5714 157.19 90.9414 154Z" fill="#FEFDFC"/>
<path d="M90.9414 154C94.9414 159.35 98.6714 159.35 102.671 154C102.571 158.5 100.541 160.88 96.8114 160.88C93.0814 160.88 91.0514 158.46 90.9414 154Z" fill="#CDA142"/>
</g>
<defs>
<clipPath id="clip0">
<rect width="200" height="200" fill="white"/>
</clipPath>
</defs>
</svg>
