<svg width="200" height="200" viewBox="0 0 200 200" fill="none" xmlns="http://www.w3.org/2000/svg">
<path d="M101.339 165.82V167C101.339 170.46 101.339 173.93 101.339 177.39C101.339 178.19 100.989 178.3 100.339 178.29C99.6894 178.28 99.1894 178.29 99.1994 177.41C99.1994 172.783 99.1994 168.157 99.1994 163.53C99.1994 163.01 99.3694 162.78 99.8894 162.83H99.9994C102.059 162.75 102.069 162.75 102.999 164.58C104.766 167.913 106.526 171.23 108.279 174.53C108.4 174.843 108.622 175.107 108.909 175.28V174.15C108.909 170.66 108.909 167.15 108.909 163.67C108.909 162.73 109.419 162.83 110.019 162.82C110.619 162.81 110.959 162.82 110.949 163.62C110.949 168.22 110.949 172.82 110.949 177.41C110.949 178.09 110.749 178.23 110.079 178.32C108.599 178.51 107.869 177.88 107.229 176.6C105.439 173.01 103.509 169.51 101.639 165.97C101.649 166 101.569 166 101.339 165.82Z" fill="#02D6FD"/>
<path d="M146.559 176.35L148.499 171.1C149.009 169.74 149.499 168.38 150.039 167.02C150.094 166.891 150.189 166.784 150.309 166.714C150.43 166.644 150.57 166.614 150.709 166.63H152.199L150.389 171.39C149.639 173.39 148.869 175.39 148.159 177.44C147.939 178.06 147.669 178.39 146.989 178.32C146.623 178.285 146.255 178.285 145.889 178.32C145.801 178.336 145.711 178.334 145.623 178.315C145.536 178.296 145.453 178.26 145.38 178.209C145.306 178.158 145.244 178.092 145.196 178.017C145.147 177.942 145.115 177.858 145.099 177.77C144.289 175.58 143.439 173.4 142.609 171.22C142.149 170.02 141.679 168.84 141.259 167.64C141.149 167.33 140.779 166.75 141.349 166.69C141.919 166.63 142.649 166.18 142.999 167.08L146.559 176.35Z" fill="#02D6FD"/>
<path d="M84.0714 171.92C84.0714 170.92 84.0714 169.84 84.0714 168.79C84.0714 168.29 83.9414 168.04 83.4014 168.11C82.8614 168.18 82.6114 168.03 82.6214 167.42C82.6314 166.81 82.8314 166.55 83.4214 166.63C84.0114 166.71 84.1014 166.43 84.0714 165.94C84.0414 165.45 84.0714 164.94 84.0714 164.47C84.0714 163.34 84.4514 163.07 85.5714 163.32C85.9614 163.41 85.9514 163.67 85.9514 163.94C85.9864 164.553 85.9864 165.167 85.9514 165.78C85.8814 166.5 86.1914 166.67 86.8414 166.64C87.6714 166.64 88.5014 166.64 89.3314 166.64C89.9214 166.64 89.9414 166.95 89.9514 167.39C89.9614 167.83 89.9514 168.16 89.3314 168.14C88.4414 168.14 87.5514 168.14 86.6614 168.14C86.1514 168.14 85.9514 168.34 85.9514 168.85C85.9514 170.85 85.9514 172.9 85.9514 174.92C85.9514 176.21 86.4114 176.59 87.6914 176.63C88.0814 176.63 88.4814 176.63 88.8814 176.63C89.4814 176.63 89.8814 176.63 89.9414 177.48C90.0014 178.33 89.5214 178.36 88.9414 178.35C88.1514 178.35 87.3614 178.24 86.5714 178.16C84.7514 177.97 84.3014 176.69 84.1114 175.26C84.0813 174.711 84.0813 174.16 84.1114 173.61L84.0714 171.92Z" fill="#03D7FD"/>
<path d="M130.05 172.19C130.05 173.19 130.05 174.19 130.05 175.19C130.05 176.19 130.32 176.49 131.46 176.54C131.95 176.575 132.441 176.575 132.93 176.54C133.61 176.47 133.84 176.71 133.84 177.41C133.84 178.11 133.6 178.3 132.93 178.28C131.946 178.298 130.963 178.204 130 178C129.552 177.904 129.142 177.677 128.824 177.347C128.505 177.018 128.291 176.601 128.21 176.15C127.972 173.955 127.898 171.746 127.99 169.54C127.99 168.82 128.22 167.94 126.92 168.04C126.46 168.04 126.63 167.53 126.62 167.22C126.61 166.91 126.62 166.55 127.09 166.61C127.97 166.73 128.04 166.22 128 165.61C128 165.24 128 164.87 128 164.51C128 163.35 128.13 163.26 129.28 163.34C129.76 163.34 129.94 163.58 129.94 164.02C129.94 164.63 129.94 165.25 129.94 165.86C129.94 166.47 130.1 166.7 130.74 166.66C131.53 166.6 132.33 166.66 133.13 166.66C133.76 166.66 133.81 166.95 133.82 167.44C133.83 167.93 133.73 168.19 133.17 168.16C132.37 168.16 131.57 168.16 130.77 168.16C130.15 168.16 129.95 168.39 129.95 168.94V172.25L130.05 172.19Z" fill="#06D7FC"/>
<path d="M73.7189 173.6C74.1789 176.6 76.4889 177.32 79.0189 176.76C79.275 176.66 79.5393 176.583 79.8089 176.53C80.1289 176.53 80.5589 175.83 80.7089 176.46C80.8589 177.09 81.1689 177.74 80.1189 178.09C77.2989 179.03 74.5189 178.52 72.9189 176.59C70.7089 173.94 71.0789 168.15 75.1089 166.78C76.8371 166.201 78.7167 166.268 80.3989 166.97C80.7189 167.09 80.9489 168.45 80.6989 168.69C80.4489 168.93 80.3689 168.69 80.2089 168.62C79.3752 168.244 78.4732 168.043 77.5589 168.03C77.0871 167.992 76.6126 168.048 76.1629 168.195C75.7132 168.343 75.2974 168.578 74.9398 168.889C74.5823 169.199 74.2901 169.577 74.0805 170.001C73.8709 170.425 73.7479 170.887 73.7189 171.36C73.4938 172.089 73.4938 172.87 73.7189 173.6Z" fill="#01D6FD"/>
<path d="M138.252 172.52C138.252 174.2 138.252 175.89 138.252 177.58C138.252 178.23 137.972 178.37 137.422 178.32C136.872 178.27 136.342 178.46 136.352 177.59C136.352 174.16 136.352 170.72 136.352 167.29C136.352 166.55 136.772 166.61 137.242 166.63C137.712 166.65 138.242 166.43 138.242 167.27C138.222 169 138.252 170.77 138.252 172.52Z" fill="#03D7FD"/>
<path d="M136.371 163.38C136.371 162.21 136.851 161.87 137.931 162.17C138.211 162.24 138.241 162.41 138.241 162.63C138.241 162.85 138.241 163.18 138.241 163.45C138.241 164.54 137.781 164.88 136.731 164.56C136.001 164.33 136.541 163.71 136.371 163.38Z" fill="#04D7FD"/>
<path d="M42.4297 178C42.8497 178 43.2597 178 43.6797 178C44.0997 178 44.2797 178 44.3297 177.58C44.3898 177.593 44.4463 177.618 44.495 177.656C44.5438 177.693 44.5836 177.741 44.6114 177.796C44.6392 177.85 44.6544 177.91 44.6559 177.972C44.6573 178.033 44.6449 178.094 44.6197 178.15C44.5497 178.38 44.3197 178.37 44.1597 178.33C43.5897 178.21 42.8897 178.73 42.4297 178Z" fill="#56E0EE"/>
<path d="M73.7219 173.6C73.4984 173.27 73.3789 172.88 73.3789 172.48C73.3789 172.081 73.4984 171.691 73.7219 171.36V173.6Z" fill="#4FE0F0"/>
<path d="M59.8013 167.18C59.8013 167.71 59.8013 168.25 59.8013 168.79C59.6751 168.697 59.5726 168.575 59.502 168.436C59.4313 168.296 59.3945 168.141 59.3945 167.985C59.3945 167.828 59.4313 167.674 59.502 167.534C59.5726 167.394 59.6751 167.273 59.8013 167.18Z" fill="#6CE1EE"/>
<path d="M115.402 167.17V168.79C115.274 168.697 115.17 168.575 115.098 168.435C115.026 168.294 114.988 168.138 114.988 167.98C114.988 167.822 115.026 167.666 115.098 167.525C115.17 167.384 115.274 167.263 115.402 167.17Z" fill="#85E7F1"/>
<path d="M172.65 82.2801C171.177 78.961 168.869 76.0806 165.95 73.9201C161.858 70.7226 157.316 68.1481 152.47 66.2801C149.137 64.9467 145.78 63.7834 142.4 62.7901C141.93 62.6601 141.77 62.4801 141.87 62.0401C142.02 61.3201 142.15 60.6001 142.34 59.9001C143.132 56.7897 143.686 53.6241 144 50.4301C144.514 46.3485 144.557 42.2215 144.13 38.1301C143.828 34.4833 142.808 30.9321 141.13 27.6801C140.401 26.2228 139.363 24.942 138.089 23.9265C136.814 22.9111 135.334 22.1854 133.75 21.8001C130.616 21.1524 127.366 21.3456 124.33 22.3601C119.792 23.8324 115.511 26.0016 111.64 28.7901C107.704 31.5157 104.023 34.5916 100.64 37.9801C100.21 38.4101 99.9503 38.3501 99.5503 37.9801C98.8003 37.2301 97.9903 36.5301 97.2103 35.8201C92.2377 31.1137 86.5505 27.2255 80.3603 24.3001C76.8027 22.5128 72.8815 21.5684 68.9003 21.5401C66.7838 21.516 64.7027 22.0837 62.8917 23.1792C61.0806 24.2747 59.6116 25.8543 58.6503 27.7401C57.2723 30.2416 56.3736 32.9785 56.0003 35.8101C55.5541 38.684 55.3767 41.5932 55.4703 44.5001C55.6386 47.7748 55.9724 51.039 56.4703 54.2801C56.6315 54.4907 56.7438 54.7346 56.7991 54.994C56.8545 55.2535 56.8515 55.5219 56.7903 55.7801C57.2303 57.7801 57.6403 59.7801 58.1303 61.7801C58.2703 62.3601 58.2203 62.6101 57.6203 62.7801C52.7051 64.0412 47.9281 65.7898 43.3603 68.0001C38.5391 70.1612 34.1925 73.2538 30.5703 77.1001C28.5887 79.1465 27.2353 81.718 26.6703 84.5101C26.18 87.6168 26.8955 90.7935 28.6703 93.3901C30.7508 96.4589 33.3941 99.1056 36.4603 101.19C41.0859 104.403 46.1337 106.961 51.4603 108.79C53.4603 109.52 55.4603 110.18 57.5603 110.71C58.0503 110.84 58.2203 111.08 58.0503 111.71C57.5503 113.54 57.2103 115.4 56.8003 117.25C56.8615 117.508 56.8645 117.777 56.8091 118.036C56.7538 118.295 56.6415 118.539 56.4803 118.75C56.2403 120.35 55.9403 121.95 55.7803 123.56C55.1995 128.215 55.2836 132.929 56.0303 137.56C56.4275 140.077 57.1994 142.521 58.3203 144.81C59.0881 146.474 60.2352 147.936 61.6697 149.077C63.1041 150.217 64.7859 151.006 66.5803 151.38C69.2393 151.853 71.9693 151.74 74.5803 151.05C78.8316 149.923 82.8805 148.138 86.5803 145.76C91.2724 142.844 95.6113 139.394 99.5103 135.48C100.01 134.98 100.32 134.9 100.88 135.48C104.576 139.258 108.681 142.612 113.12 145.48C117.91 148.54 122.91 151.1 128.71 151.65C130.811 151.91 132.943 151.681 134.94 150.98C138.58 149.63 140.7 146.81 142.19 143.39C144 138.897 144.835 134.07 144.64 129.23C144.609 123.387 143.809 117.574 142.26 111.94C141.92 110.7 142.01 110.57 143.26 110.27C143.56 110.2 143.83 110.06 144.12 109.97C150.765 108.088 157.082 105.198 162.85 101.4C166.525 99.1199 169.592 95.9838 171.79 92.2601C172.705 90.7801 173.26 89.1059 173.409 87.3725C173.558 85.639 173.298 83.8947 172.65 82.2801ZM103.16 40.4601C108.286 35.2336 114.231 30.8796 120.76 27.5701C123.419 26.2241 126.298 25.3671 129.26 25.0401C134.03 24.6201 137.1 26.6201 138.96 31.5501C139.768 33.7824 140.311 36.1015 140.58 38.4601C140.58 38.7901 140.7 39.1201 140.72 39.4601C140.996 44.2321 140.755 49.02 140 53.7401C139.6 56.1201 139 58.4701 138.53 60.8201C138.39 61.5201 138.07 61.7101 137.3 61.5001C135.509 61.0022 133.693 60.5984 131.86 60.2901C129.15 59.8501 126.46 59.2901 123.71 59.0501C123.423 59.1164 123.125 59.1241 122.835 59.0725C122.544 59.021 122.267 58.9113 122.02 58.7501C120.36 58.7501 118.75 58.2501 117.08 58.3001C116.4 58.3001 116.15 57.7901 115.85 57.3601C113.317 53.6984 110.6 50.1673 107.71 46.7801C106.24 45.0501 104.71 43.35 103.2 41.67C102.75 41.22 102.68 40.92 103.16 40.4601ZM64.3903 108.76C63.9703 108.76 63.5503 108.84 63.2503 108.44C62.7103 108.44 62.6703 108.16 62.8203 107.72C63.5403 105.56 64.2203 103.38 64.9903 101.23C66.2203 97.8101 67.6003 94.4501 69.1903 90.8301C72.6674 97.7132 76.5371 104.391 80.7803 110.83C81.0703 111.05 81.3003 111.31 80.7803 111.37C80.5312 111.435 80.2703 111.441 80.0185 111.387C79.7668 111.333 79.5311 111.221 79.3303 111.06C75.9303 110.72 72.5603 110.25 69.1903 109.66C67.6103 109.38 66.0403 109.01 64.4403 108.79L64.3903 108.76ZM66.1103 74.9101C64.9303 71.9101 63.8603 68.8301 62.9503 65.7101C62.8003 65.1701 62.8803 65.0301 63.4203 64.9401C64.5403 64.7401 65.6503 64.4701 66.7603 64.2201C66.9664 64.0537 67.2078 63.9366 67.466 63.8777C67.7242 63.8188 67.9925 63.8196 68.2503 63.8801C69.9703 63.6901 71.6303 63.1701 73.3703 63.0901C73.5858 62.9346 73.8318 62.8266 74.0921 62.7732C74.3524 62.7197 74.621 62.7221 74.8803 62.7801L75.5903 62.7201C76.151 62.3813 76.8203 62.2703 77.4603 62.4101H78.5303C79.2242 62.0922 79.9969 61.9878 80.7503 62.1101C80.7503 62.1101 80.7503 62.1101 80.7503 62.1701C80.7546 62.1999 80.7546 62.2302 80.7503 62.2601C76.5467 68.745 72.701 75.455 69.2303 82.3601C68.0591 79.9337 67.0177 77.4469 66.1103 74.9101ZM71.3603 87.0601C71.2725 86.908 71.2263 86.7356 71.2263 86.5601C71.2263 86.3845 71.2725 86.2121 71.3603 86.0601C73.8962 80.7495 76.7033 75.5727 79.7703 70.5501C81.4003 67.8601 83.1403 65.2301 84.8303 62.5501C85.0031 62.2507 85.2505 62.0012 85.5485 61.8259C85.8464 61.6507 86.1847 61.5556 86.5303 61.5501C94.7233 60.9351 102.948 60.865 111.15 61.3401C112.15 61.3401 113.04 61.5501 113.99 61.6001C114.156 61.6144 114.315 61.6731 114.451 61.7698C114.586 61.8665 114.693 61.9979 114.76 62.1501C119.406 69.1424 123.679 76.3759 127.56 83.8201C128.059 84.6158 128.323 85.5359 128.323 86.4751C128.323 87.4142 128.059 88.3343 127.56 89.1301C123.767 96.4817 119.605 103.637 115.09 110.57C114.87 110.931 114.555 111.224 114.179 111.418C113.804 111.612 113.382 111.699 112.96 111.67C108.52 111.78 104.09 112.24 99.6703 112.03C95.2403 112.23 90.8703 111.77 86.4903 111.69C86.2309 111.705 85.9722 111.65 85.7416 111.531C85.5109 111.411 85.317 111.231 85.1803 111.01C79.9896 103.378 75.3704 95.3731 71.3603 87.0601ZM119.58 110.28C120.4 108.97 121.21 107.65 122.04 106.35C125.04 101.56 127.76 96.5601 130.4 91.5401C130.51 91.3301 130.5 91.01 130.8 90.9901C131.1 90.9701 131.15 91.34 131.26 91.5701C132.58 94.5701 133.88 97.5701 135 100.64C135.77 102.75 136.48 104.88 137.28 106.97C137.6 107.8 137.4 108.16 136.61 108.32C134.67 108.72 132.75 109.16 130.8 109.49C127.73 110 124.64 110.43 121.56 110.89C121.17 110.95 120.77 110.97 120.37 111.01C120.251 111.02 120.13 111.02 120.01 111.01C119.8 111.01 119.48 111.01 119.4 110.93C119.32 110.85 119.45 110.49 119.58 110.28ZM130.72 82.1401C127.194 75.244 123.302 68.5411 119.06 62.0601C120.55 62.2301 121.89 62.3501 123.23 62.5401C125.23 62.8401 127.23 63.1701 129.29 63.5401L131.55 63.9401C131.809 63.8759 132.079 63.8722 132.339 63.9295C132.599 63.9867 132.843 64.1033 133.05 64.2701L136.71 65.0401C137.36 65.1701 137.14 65.6501 137.05 65.9801C136.69 67.2401 136.32 68.4901 135.87 69.7201C134.87 72.5201 133.79 75.3401 132.63 78.1001C132.16 79.5192 131.518 80.8758 130.72 82.1401ZM100.72 44.2301C104.438 48.2952 107.933 52.5581 111.19 57.0001C111.349 57.2512 111.493 57.5116 111.62 57.7801C110.42 57.7201 109.33 57.6501 108.24 57.6201C102.29 57.4701 96.3403 57.5001 90.4003 57.6201C90.2403 57.6201 90.0903 57.6201 89.9403 57.6201C89.4703 57.6201 88.8303 58.0301 88.5903 57.5601C88.3503 57.0901 89.0103 56.7601 89.2903 56.3901C92.4465 52.1496 95.8385 48.0898 99.4503 44.2301C100 43.7001 100.18 43.6901 100.68 44.2301H100.72ZM59.4503 36.8001C59.7624 33.8542 60.7589 31.0222 62.3603 28.5301C63.0035 27.5543 63.8673 26.7435 64.8818 26.1633C65.8963 25.5831 67.0331 25.2497 68.2003 25.1901C71.5582 25.0913 74.893 25.7761 77.9403 27.1901C85.1803 30.1901 91.1303 35.0101 96.7903 40.2701C97.4203 40.8601 97.4103 41.1701 96.7903 41.7901C92.1881 46.7334 87.9377 51.9929 84.0703 57.5301C83.9139 57.7701 83.7006 57.9678 83.4494 58.1057C83.1982 58.2435 82.9168 58.3171 82.6303 58.3201C78.9003 58.5701 75.2203 59.1301 71.5303 59.7201C68.7003 60.1701 65.9003 60.7201 63.0903 61.3101C62.6003 61.5601 62.0903 62.0901 61.6503 61.2501L61.5803 60.7501C61.1703 60.4601 61.2303 60.0301 61.2703 59.6101C60.8003 57.3401 60.2703 55.09 59.8903 52.8001C59.5203 50.3201 59.2603 47.8001 59.0903 45.3201C58.8851 42.4756 59.0059 39.617 59.4503 36.8001ZM58.3803 107.26C56.7503 106.78 55.1203 106.26 53.5003 105.74C49.1288 104.27 44.9359 102.315 41.0003 99.9101C37.4748 97.9008 34.4091 95.1756 32.0003 91.9101C30.8764 90.3215 30.187 88.467 30.0003 86.5301C30.1924 84.1071 31.1723 81.8137 32.7903 80.0001C36.0803 76.0801 40.3303 73.4701 44.7903 71.2201C49.1832 69.1367 53.7465 67.4338 58.4303 66.1301C58.9403 65.98 59.2403 66.0101 59.4303 66.6901C60.5903 70.2801 61.7603 73.8601 63.1103 77.3801C64.2203 80.2901 65.5803 83.1201 66.8603 85.9701C66.9543 86.1543 67.0032 86.3582 67.0032 86.5651C67.0032 86.7719 66.9543 86.9758 66.8603 87.1601C65.4703 90.2801 64.0303 93.3901 62.8603 96.5801C61.5903 99.9601 60.3203 103.36 59.3803 106.86C59.2103 107.55 58.7503 107.37 58.3803 107.26ZM97.3003 132.73C91.5903 138.28 85.3703 143.12 77.9303 146.2C75.4775 147.298 72.8437 147.935 70.1603 148.08C65.7003 148.21 62.9003 146.7 60.9003 141.8C59.6138 138.523 58.9687 135.03 59.0003 131.51C58.9889 126.787 59.4647 122.075 60.4203 117.45C60.7303 115.86 61.1803 114.31 61.4203 112.72C61.5303 112.09 61.7503 111.84 62.5303 112C67.3669 113.045 72.2531 113.846 77.1703 114.4C79.1703 114.6 81.1703 114.78 83.1103 114.99C83.8003 115.07 84.0503 115.53 84.3403 115.99C87.8311 120.908 91.6006 125.623 95.6303 130.11C96.1626 130.729 96.7267 131.32 97.3203 131.88C97.7003 132.2 97.6203 132.42 97.3003 132.73ZM99.4603 128.91C95.5273 124.675 91.8825 120.182 88.5503 115.46C96.2603 115.76 103.93 115.75 111.86 115.3C110.78 116.8 109.86 118.09 108.95 119.3C106.42 122.59 103.81 125.81 101.01 128.89C100.43 129.56 100.09 129.59 99.4603 128.91ZM139.3 141.08C138.37 143.6 137.08 145.88 134.58 147.2C132.727 148.132 130.619 148.431 128.58 148.05C122.95 147.18 118.1 144.51 113.48 141.35C109.923 138.826 106.563 136.035 103.43 133C102.88 132.49 102.8 132.2 103.43 131.57C107.766 126.908 111.737 121.92 115.31 116.65C115.665 116.064 116.163 115.579 116.758 115.241C117.354 114.903 118.026 114.724 118.71 114.72C122.798 114.404 126.867 113.877 130.9 113.14C133.28 112.76 135.63 112.2 137.98 111.68C138.46 111.57 138.65 111.68 138.75 112.13C139.06 113.46 139.41 114.78 139.69 116.13C140.579 120.376 141.077 124.694 141.18 129.03C141.254 133.125 140.618 137.202 139.3 141.08ZM167.09 92.9401C163.84 96.8301 159.65 99.4801 155.2 101.76C150.995 103.82 146.627 105.529 142.14 106.87C141.4 107.11 140.99 107.01 140.71 106.08C139.81 103.21 138.79 100.38 137.71 97.5801C136.29 94.0301 134.82 90.51 133.17 87.0601C133.067 86.8555 133.013 86.6294 133.013 86.4001C133.013 86.1707 133.067 85.9446 133.17 85.7401C135.45 80.91 137.41 75.9501 139.22 70.9301C139.68 69.6801 140.05 68.3901 140.42 67.1001C140.63 66.3601 140.79 66.1001 141.77 66.3301C146.807 67.7194 151.689 69.6193 156.34 72.0001C160.577 74.0089 164.344 76.8842 167.4 80.4401C168.966 82.1924 169.846 84.4506 169.88 86.8001C169.635 89.0936 168.657 91.2468 167.09 92.9401Z" fill="#00D6FD"/>
<path d="M44.3293 177.6C43.6084 175.958 42.7937 174.359 41.8893 172.81C41.6175 172.264 41.2157 171.794 40.7193 171.44C40.1693 171.11 40.3393 170.87 40.7193 170.7C41.2266 170.499 41.662 170.151 41.9693 169.7C42.4084 169.071 42.6706 168.335 42.7287 167.57C42.7867 166.805 42.6385 166.038 42.2994 165.35C41.9603 164.661 41.4428 164.076 40.8008 163.656C40.1588 163.236 39.4159 162.995 38.6493 162.96C36.9293 162.87 35.2093 162.96 33.4993 162.88C32.7793 162.88 32.6193 163.14 32.6293 163.79C32.6293 166.68 32.6293 169.56 32.6293 172.45C32.6293 174.1 32.6293 175.76 32.6293 177.45C32.6293 178.38 33.0893 178.39 33.7693 178.45C34.4493 178.51 34.7693 178.33 34.7693 177.55C34.6993 176.36 34.7693 175.16 34.7693 173.96C34.7693 171.85 34.7693 171.91 36.8693 171.84C37.5861 171.788 38.3008 171.965 38.9114 172.344C39.522 172.723 39.9972 173.285 40.2693 173.95C40.9793 175.36 41.7193 176.75 42.4493 178.15C42.9368 178.337 43.4673 178.382 43.9793 178.28C44.2893 178.14 44.4693 178 44.3293 177.6ZM37.8893 170C37.0593 170 36.2293 170 35.4093 170C34.9693 170 34.7293 169.91 34.7393 169.4C34.7393 167.99 34.7393 166.58 34.7393 165.17C34.7393 164.82 34.8193 164.57 35.2393 164.58C36.3078 164.528 37.3786 164.572 38.4393 164.71C38.8613 164.768 39.2582 164.944 39.5839 165.218C39.9096 165.493 40.1508 165.854 40.2793 166.26C40.5301 166.574 40.6666 166.963 40.6666 167.365C40.6666 167.766 40.5301 168.156 40.2793 168.47C40.0928 168.944 39.7613 169.347 39.3321 169.622C38.903 169.897 38.3981 170.029 37.8893 170Z" fill="#01D6FD"/>
<path d="M124.15 171.17C124.1 168.85 122.95 167.1 121.15 166.65C119.235 166.174 117.217 166.357 115.42 167.17C115.27 167.414 115.191 167.694 115.191 167.98C115.191 168.266 115.27 168.546 115.42 168.79C116.793 168.186 118.295 167.935 119.79 168.06C120.323 168.089 120.834 168.283 121.253 168.614C121.672 168.945 121.978 169.398 122.13 169.91C122.39 170.91 122.31 170.96 121.33 170.99C119.806 170.858 118.271 170.983 116.79 171.36C116.138 171.569 115.562 171.964 115.134 172.498C114.705 173.031 114.443 173.679 114.38 174.36C114.265 175.085 114.377 175.828 114.701 176.487C115.025 177.145 115.545 177.688 116.19 178.04C117.49 178.77 120.39 178.7 121.57 177.33C121.72 177.16 121.85 176.91 122.15 176.94C122.225 177.034 122.28 177.144 122.309 177.261C122.338 177.379 122.342 177.501 122.32 177.62C122.32 178.51 122.95 178.24 123.42 178.28C123.89 178.32 124.23 178.09 124.23 177.48C124.15 175.4 124.2 173.28 124.15 171.17ZM122 174.52C121.868 174.959 121.651 175.367 121.36 175.721C121.07 176.075 120.712 176.368 120.307 176.582C119.902 176.796 119.458 176.927 119.002 176.968C118.546 177.009 118.086 176.958 117.65 176.82C117.193 176.641 116.809 176.314 116.559 175.892C116.309 175.47 116.207 174.976 116.27 174.49C116.305 173.942 116.551 173.428 116.955 173.056C117.359 172.684 117.89 172.481 118.44 172.49C119.022 172.455 119.607 172.455 120.19 172.49V172.43H120.37C122.5 172.44 122.5 172.44 122 174.52Z" fill="#01D6FD"/>
<path d="M68.5305 171.37C68.4305 169.46 68.0105 167.61 65.9205 166.84C64.9281 166.492 63.8768 166.343 62.8266 166.401C61.7765 166.459 60.7481 166.724 59.8005 167.18C59.6508 167.422 59.5716 167.701 59.5716 167.985C59.5716 168.27 59.6508 168.549 59.8005 168.79C61.1618 168.171 62.6616 167.92 64.1505 168.06C64.7466 168.092 65.3128 168.332 65.751 168.737C66.1893 169.143 66.4721 169.689 66.5505 170.28C66.6505 170.84 66.4605 170.99 65.9405 170.99C64.838 170.93 63.733 170.93 62.6305 170.99C60.8105 171.19 59.3705 171.9 58.8205 173.83C58.5595 174.744 58.664 175.723 59.1119 176.561C59.5598 177.399 60.3159 178.03 61.2205 178.32C63.1105 178.72 64.8705 178.56 66.2205 176.98C66.2205 176.93 66.3805 176.98 66.5205 176.9C66.5575 177.048 66.5776 177.199 66.5805 177.35C66.4705 178.18 66.9205 178.29 67.5805 178.29C68.2405 178.29 68.5805 178 68.5205 177.29C68.5405 175.35 68.6405 173.35 68.5305 171.37ZM66.4105 174.37C66.2479 175.137 65.8125 175.818 65.1851 176.287C64.5578 176.756 63.7814 176.981 63.0005 176.92C62.696 176.958 62.387 176.932 62.0935 176.843C61.8 176.753 61.5284 176.604 61.2965 176.403C61.0646 176.202 60.8774 175.955 60.7472 175.677C60.617 175.399 60.5465 175.097 60.5405 174.79C60.5364 174.492 60.5924 174.196 60.7053 173.92C60.8182 173.644 60.9856 173.393 61.1974 173.183C61.4093 172.973 61.6614 172.808 61.9385 172.697C62.2157 172.587 62.5122 172.534 62.8105 172.54C64.0005 172.45 65.2005 172.54 66.3905 172.47C67.0505 173.09 66.8205 173.71 66.4105 174.33V174.37Z" fill="#02D6FD"/>
<path d="M162.752 167.35C160.392 165.53 155.412 166.18 154.312 170.35C153.212 174.52 155.242 178.25 159.312 178.52C160.839 178.608 162.368 178.394 163.812 177.89C164.077 177.719 164.274 177.46 164.365 177.157C164.457 176.855 164.438 176.53 164.312 176.24C163.992 175.81 163.602 176.24 163.312 176.35C162.201 176.782 161.013 176.979 159.822 176.93C158.9 176.935 158.009 176.595 157.325 175.977C156.641 175.359 156.211 174.508 156.122 173.59C156.052 173.05 156.232 172.88 156.752 172.89C157.982 172.89 159.212 172.89 160.432 172.89H164.112C164.392 172.89 164.752 173 164.782 172.5C164.822 170.49 164.432 168.65 162.752 167.35ZM162.222 171.41C161.302 171.41 160.392 171.41 159.472 171.41C158.552 171.41 157.632 171.41 156.712 171.41C156.222 171.41 156.102 171.29 156.172 170.78C156.302 169.975 156.727 169.247 157.365 168.738C158.003 168.23 158.808 167.978 159.622 168.03C160.389 167.991 161.143 168.241 161.734 168.732C162.325 169.223 162.71 169.919 162.812 170.68C162.932 171.14 162.802 171.43 162.222 171.41Z" fill="#01D6FD"/>
<path d="M55.5011 168.72C54.2611 166.34 51.3111 165.96 49.0811 166.72C46.1711 167.78 45.3711 170.58 45.6211 173.37C45.6294 174.307 45.901 175.224 46.405 176.014C46.9089 176.804 47.6248 177.437 48.4711 177.84C49.6256 178.337 50.8754 178.574 52.1317 178.535C53.3881 178.495 54.6204 178.179 55.7411 177.61C55.5611 177.12 56.1311 176.42 55.3411 176.09C54.0027 176.706 52.5307 176.974 51.0611 176.87C50.2186 176.817 49.4195 176.477 48.7959 175.908C48.1723 175.339 47.7614 174.574 47.6311 173.74C47.5411 173.1 47.6311 172.81 48.4211 172.82C50.7811 172.82 53.1411 172.82 55.5011 172.82C55.9011 172.82 56.3111 172.89 56.3211 172.26C56.3389 171.031 56.0574 169.816 55.5011 168.72ZM53.6211 171.41C52.7311 171.41 51.8411 171.41 50.9611 171.41C50.0411 171.41 49.1311 171.41 48.2111 171.41C47.8011 171.41 47.5811 171.34 47.6511 170.85C47.7882 170.181 48.1132 169.566 48.5879 169.075C49.0626 168.584 49.6673 168.239 50.3311 168.08C52.1811 167.81 53.3811 168.37 54.0811 169.79C54.1945 170.071 54.2653 170.368 54.2911 170.67C54.3911 171.22 54.2011 171.44 53.6211 171.41Z" fill="#02D6FD"/>
<path d="M86.6289 86.3496C86.6427 83.7107 87.4378 81.135 88.9137 78.9474C90.3897 76.7598 92.4805 75.0583 94.9223 74.0575C97.3641 73.0568 100.048 72.8016 102.634 73.3241C105.221 73.8467 107.595 75.1236 109.457 76.9938C111.319 78.864 112.585 81.2437 113.096 83.8327C113.607 86.4217 113.34 89.104 112.328 91.5413C111.316 93.9787 109.605 96.0618 107.411 97.5279C105.217 98.9941 102.638 99.7776 99.9989 99.7796C96.4458 99.769 93.0422 98.3487 90.5354 95.8307C88.0286 93.3126 86.6236 89.9027 86.6289 86.3496Z" fill="#00D6FD"/>
</svg>
