<svg width="200" height="200" viewBox="0 0 200 200" fill="none" xmlns="http://www.w3.org/2000/svg">
<path d="M188.002 108.17C186.758 108.214 185.529 107.887 184.472 107.23C184.102 107 183.842 106.89 183.712 107.44C183.512 108.26 182.842 107.87 182.362 107.93C181.882 107.99 181.952 107.5 181.892 107.23C181.612 105.81 181.382 104.38 181.102 102.96C181.032 102.57 181.102 102.44 181.512 102.34C182.762 102.02 182.732 102.01 183.452 103.13C183.921 103.989 184.612 104.707 185.452 105.208C186.293 105.709 187.253 105.976 188.232 105.98C188.398 105.995 188.566 105.995 188.732 105.98C189.732 105.79 190.332 105.29 190.332 104.61C190.332 103.76 189.742 103.37 189.052 103.08C188.109 102.697 187.14 102.383 186.152 102.14C185.329 101.916 184.527 101.625 183.752 101.27C183.041 101.01 182.426 100.538 181.993 99.9171C181.56 99.2961 181.329 98.5567 181.332 97.7996C181.314 97.0425 181.527 96.2979 181.943 95.6654C182.36 95.0328 182.959 94.5423 183.662 94.2596C184.536 93.823 185.5 93.5957 186.477 93.5957C187.454 93.5957 188.418 93.823 189.292 94.2596C189.652 94.4296 189.882 94.6396 190.182 94.1096C190.482 93.5796 191.002 93.9496 191.432 93.9096C191.862 93.8696 191.782 94.2296 191.842 94.4596C192.172 95.6696 192.482 96.8896 192.842 98.1096C192.932 98.4296 192.842 98.6096 192.532 98.6596H192.462C192.062 98.857 191.627 98.9726 191.182 98.9996C190.792 98.9396 190.692 98.3696 190.442 97.9996C189.655 96.8806 188.465 96.11 187.122 95.8496C186.768 95.7897 186.406 95.7897 186.052 95.8496C185.412 95.9396 184.762 96.1096 184.562 96.8496C184.412 97.4196 184.802 97.9796 185.622 98.3496C186.797 98.7922 187.995 99.1695 189.212 99.4796C190.057 99.7124 190.869 100.048 191.632 100.48C192.175 100.814 192.629 101.277 192.953 101.827C193.277 102.377 193.462 102.998 193.491 103.635C193.521 104.273 193.394 104.908 193.122 105.486C192.851 106.063 192.442 106.566 191.932 106.95C190.81 107.813 189.416 108.246 188.002 108.17Z" fill="black"/>
<path d="M174.619 100.21C174.619 99.0903 174.619 97.9803 174.619 96.8603C174.619 95.9403 174.429 95.7103 173.549 95.7603C172.959 95.7603 172.909 95.5503 172.919 95.0703C172.919 93.8203 172.919 93.8203 174.179 93.8203C175.849 93.8203 177.509 93.8203 179.179 93.8203C179.659 93.8203 179.899 93.9103 179.809 94.4303C179.784 94.5726 179.784 94.7181 179.809 94.8603C179.899 95.5103 179.809 95.8603 178.969 95.7703C178.359 95.7003 178.099 96.1003 178.099 96.7103C178.099 98.8003 178.009 100.9 178.099 102.99C178.249 106.33 175.879 107.99 173.239 108.16C172.39 108.295 171.523 108.249 170.695 108.025C169.866 107.801 169.093 107.404 168.429 106.86C167.929 106.467 167.542 105.95 167.305 105.361C167.068 104.771 166.99 104.13 167.079 103.5C167.118 103.108 167.277 102.737 167.535 102.438C167.793 102.139 168.136 101.927 168.519 101.83C168.766 101.737 169.032 101.707 169.294 101.742C169.556 101.778 169.805 101.878 170.018 102.034C170.232 102.189 170.403 102.396 170.517 102.635C170.63 102.873 170.682 103.136 170.669 103.4C170.669 103.59 170.669 103.78 170.669 103.97C170.643 104.225 170.672 104.482 170.753 104.725C170.833 104.967 170.964 105.19 171.137 105.379C171.31 105.568 171.52 105.718 171.755 105.82C171.989 105.922 172.243 105.973 172.499 105.97C172.753 105.985 173.007 105.949 173.246 105.863C173.486 105.777 173.706 105.644 173.892 105.471C174.079 105.298 174.229 105.09 174.333 104.857C174.437 104.625 174.494 104.375 174.499 104.12C174.579 102.82 174.499 101.51 174.499 100.2L174.619 100.21Z" fill="black"/>
<path d="M144.78 97.6703C146.211 97.5786 147.62 98.0568 148.7 99.0003C149.062 99.3101 149.329 99.7156 149.47 100.17C149.59 100.525 149.575 100.911 149.43 101.255C149.284 101.6 149.017 101.879 148.68 102.04C148.323 102.241 147.905 102.302 147.506 102.212C147.106 102.121 146.755 101.885 146.52 101.55C146.35 101.29 146.21 101.01 146.06 100.75C145.943 100.508 145.765 100.299 145.544 100.145C145.323 99.9906 145.066 99.8959 144.798 99.8698C144.53 99.8437 144.259 99.887 144.013 99.9957C143.766 100.104 143.552 100.275 143.39 100.49C142.874 101.118 142.597 101.909 142.608 102.721C142.619 103.534 142.917 104.317 143.45 104.93C143.981 105.435 144.687 105.717 145.42 105.717C146.153 105.717 146.858 105.435 147.39 104.93C147.72 104.67 148.01 104.09 148.39 104.19C148.77 104.29 149.14 104.8 149.53 105.11C149.92 105.42 149.74 105.46 149.53 105.69C148.812 106.635 147.84 107.355 146.728 107.768C145.616 108.18 144.41 108.268 143.25 108.02C142.14 107.773 141.141 107.17 140.407 106.302C139.672 105.435 139.241 104.351 139.179 103.215C139.118 102.08 139.43 100.955 140.068 100.014C140.705 99.0724 141.633 98.3652 142.71 98.0003C143.377 97.7785 144.077 97.667 144.78 97.6703Z" fill="black"/>
<path d="M159.382 105.41V106.25C159.382 107.59 159.382 107.6 158.062 107.94C156.913 108.28 155.69 108.28 154.542 107.94C153.931 107.798 153.391 107.446 153.014 106.945C152.637 106.444 152.449 105.826 152.482 105.2C152.482 103.68 152.482 102.15 152.482 100.63C152.482 100.13 152.362 99.9904 151.862 100C150.942 100 150.982 100 150.922 99.0804C150.845 98.7548 150.895 98.4123 151.06 98.1214C151.225 97.8304 151.493 97.6123 151.812 97.5104C152.313 97.2778 152.744 96.9182 153.063 96.4674C153.383 96.0166 153.579 95.4902 153.632 94.9404C153.702 94.5704 153.792 94.4404 154.192 94.4404C155.672 94.4404 155.662 94.4404 155.682 95.9004C155.682 96.5604 155.392 97.4304 155.812 97.8104C156.232 98.1904 157.032 97.9104 157.672 97.9104C158.912 97.9104 158.852 97.9104 158.932 99.1304C158.932 99.9004 158.712 100.13 158.002 100.03C157.292 99.9304 156.762 100.03 156.142 100.03C155.772 100.03 155.662 100.13 155.672 100.5C155.672 101.76 155.672 103.03 155.672 104.29C155.64 104.569 155.681 104.852 155.792 105.11C155.903 105.368 156.079 105.593 156.303 105.761C156.528 105.93 156.792 106.037 157.071 106.072C157.35 106.107 157.633 106.069 157.892 105.96C158.382 105.8 158.832 105.6 159.382 105.41Z" fill="black"/>
<path d="M90.0017 94.6203C87.6719 91.927 84.7484 89.8114 81.4617 88.4403C79.2904 87.4138 77.0356 86.5741 74.7217 85.9303C74.3517 85.8303 74.1517 85.7203 74.2617 85.2703C74.9201 82.6482 75.3286 79.9695 75.4817 77.2703C75.8317 73.7853 75.3555 70.2669 74.0917 67.0003C72.4217 63.0903 69.4617 61.6703 65.9317 62.0003C63.0881 62.3255 60.354 63.2858 57.9317 64.8103C55.0023 66.5412 52.2927 68.6196 49.8617 71.0003C49.5317 71.3203 49.3217 71.4103 48.9417 71.0003C47.3686 69.475 45.6766 68.0772 43.8817 66.8203C40.6417 64.5703 37.2417 62.6703 33.2417 62.0803C31.652 61.7701 30.0049 61.9717 28.5369 62.6563C27.069 63.3408 25.8558 64.4731 25.0717 65.8903C23.8298 68.1527 23.1732 70.6896 23.1617 73.2703C22.9984 77.1903 23.4162 81.1128 24.4017 84.9103C24.5517 85.5303 24.4017 85.7603 23.8017 85.9103C20.8912 86.7175 18.0778 87.8409 15.4117 89.2603C12.8116 90.5823 10.4976 92.4036 8.60172 94.6203C7.36879 95.9858 6.65035 97.7382 6.57004 99.5762C6.48974 101.414 7.05258 103.223 8.16172 104.69C9.67542 106.807 11.6174 108.583 13.8617 109.9C16.9374 111.806 20.2624 113.277 23.7417 114.27C24.3417 114.45 24.5117 114.66 24.3517 115.27C23.537 118.402 23.127 121.625 23.1317 124.86C23.0059 127.48 23.4072 130.098 24.3117 132.56C25.9117 136.61 28.6117 138.08 32.2117 138.03C34.5258 137.939 36.7935 137.352 38.8617 136.31C42.4675 134.575 45.7779 132.284 48.6717 129.52C49.5117 128.73 49.5017 128.73 50.3617 129.52C52.3634 131.42 54.5473 133.118 56.8817 134.59C59.5401 136.416 62.5938 137.585 65.7917 138C67.1891 138.216 68.619 138.032 69.9162 137.469C71.2133 136.907 72.3247 135.988 73.1217 134.82C74.9817 132.14 75.5117 129.06 75.6817 125.9C75.8118 122.197 75.4179 118.494 74.5117 114.9C74.3917 114.4 74.5117 114.22 74.9617 114.09C76.9169 113.524 78.8313 112.826 80.6917 112C83.9897 110.601 86.9774 108.562 89.4817 106C92.8417 102.39 93.0617 98.4703 90.0017 94.6203ZM52.2717 73.6203C55.3594 70.5463 58.9999 68.0832 63.0017 66.3603C64.1021 65.9159 65.2672 65.6525 66.4517 65.5803C67.3238 65.4979 68.1992 65.6997 68.9471 66.1557C69.6951 66.6117 70.2755 67.2974 70.6017 68.1103C71.3297 69.7663 71.7434 71.5431 71.8217 73.3503C71.8817 74.0303 71.8217 74.7303 71.8217 75.4203C71.8141 78.3618 71.4787 81.2932 70.8217 84.1603C70.7117 84.6803 70.4717 84.8103 69.9817 84.7003C66.6884 83.946 63.3472 83.4181 59.9817 83.1203C59.7373 83.1052 59.5001 83.0319 59.2896 82.9067C59.0792 82.7815 58.9016 82.6079 58.7717 82.4003C56.8098 79.601 54.6722 76.9289 52.3717 74.4003C52.0817 74.1203 52.0017 74.0003 52.2917 73.6503L52.2717 73.6203ZM31.8317 104.34C33.4417 107.34 35.0717 110.24 36.9517 113.17C35.9517 113.05 35.1517 112.97 34.3517 112.84C32.7417 112.57 31.1317 112.27 29.5217 112C29.2317 111.94 29.0317 111.9 29.1517 111.51C29.9215 109.076 30.8161 106.683 31.8317 104.34ZM31.8317 95.5703C31.0036 93.7153 30.2791 91.8157 29.6617 89.8803C29.1317 88.2703 29.1417 88.2903 30.8017 87.9703C32.6217 87.6203 34.4417 87.2903 36.2817 87.0603C36.4317 87.0603 36.6217 86.9303 36.7217 87.1203C36.8217 87.3103 36.7217 87.3503 36.6317 87.4403C34.9617 90.0203 33.4917 92.7103 32.0217 95.4403C32.0017 95.4403 31.9017 95.4603 31.7817 95.5703H31.8317ZM34.0017 100.51C33.9144 100.386 33.8618 100.241 33.8495 100.09C33.8372 99.9387 33.8656 99.7869 33.9317 99.6503C36.0759 95.3246 38.4873 91.1365 41.1517 87.1103C41.2807 86.9028 41.4603 86.7315 41.6738 86.6125C41.8872 86.4936 42.1274 86.4309 42.3717 86.4303C44.3717 86.2403 46.3717 86.2503 48.3717 86.2103C51.1717 86.1503 53.9817 86.2603 56.7817 86.4503C56.9219 86.4639 57.0566 86.5122 57.1735 86.5907C57.2905 86.6693 57.3861 86.7757 57.4517 86.9003C59.5895 90.1061 61.5653 93.4169 63.3717 96.8203C63.8517 97.7203 64.3017 98.6403 64.7917 99.5303C64.8703 99.66 64.9118 99.8087 64.9118 99.9603C64.9118 100.112 64.8703 100.261 64.7917 100.39C62.6249 104.784 60.1869 109.039 57.4917 113.13C57.4201 113.263 57.3149 113.374 57.1868 113.453C57.0587 113.532 56.9121 113.576 56.7617 113.58C54.2917 113.75 51.8217 113.85 49.3517 113.82C46.8817 113.79 44.5417 113.75 42.1517 113.6C41.9762 113.598 41.8044 113.55 41.6534 113.461C41.5024 113.371 41.3777 113.243 41.2917 113.09C38.5852 109.063 36.1498 104.861 34.0017 100.51ZM66.9217 104.27C67.2353 104.744 67.481 105.259 67.6517 105.8C68.4017 107.57 69.0517 109.37 69.6517 111.19C69.8117 111.64 69.7417 111.78 69.2517 111.88C66.8067 112.404 64.3369 112.805 61.8517 113.08C63.6517 110.15 65.3517 107.28 66.9117 104.27H66.9217ZM66.9217 95.7103C65.3017 92.7103 63.7017 89.9003 61.8617 87.0103C63.7658 87.214 65.6582 87.5144 67.5317 87.9103L69.1317 88.2203C69.5217 88.2903 69.6317 88.4403 69.5017 88.8503C68.7817 91.1303 67.9217 93.3603 66.9317 95.7103H66.9217ZM49.0617 77.0003C49.2417 76.7903 49.3617 76.6003 49.6517 76.9203C51.3217 78.7103 52.8217 80.6303 54.4117 82.7003C50.9917 82.5903 47.7517 82.5803 44.4117 82.7003C45.0134 81.7761 45.6819 80.8971 46.4117 80.0703C47.2617 79.0003 48.1717 78.0003 49.0617 77.0003ZM27.5617 69.2203C28.6317 66.2203 30.2817 65.2203 33.4217 65.8403C36.3156 66.5336 39.0377 67.8096 41.4217 69.5903C43.1552 70.8085 44.8025 72.1451 46.3517 73.5903C46.7617 73.9603 46.7117 74.1603 46.3517 74.5903C44.0376 77.1178 41.8866 79.7898 39.9117 82.5903C39.7909 82.7784 39.6274 82.9353 39.4345 83.0482C39.2417 83.1612 39.0248 83.227 38.8017 83.2403C35.3702 83.5331 31.9624 84.0577 28.6017 84.8103C28.1817 84.9003 28.0317 84.8103 27.9317 84.3503C27.1432 81.1429 26.737 77.8533 26.7217 74.5503C26.7198 72.7242 27.0032 70.909 27.5617 69.1703V69.2203ZM25.6417 110.5C25.5317 110.87 25.4017 110.99 25.0017 110.86C20.9361 109.744 17.1188 107.868 13.7517 105.33C12.2472 104.266 11.0863 102.785 10.4117 101.07C10.2575 100.696 10.1761 100.295 10.1717 99.8903C10.3067 98.6041 10.8744 97.4019 11.7817 96.4803C13.6365 94.5602 15.8388 93.0094 18.2717 91.9103C20.4119 90.8809 22.6368 90.0378 24.9217 89.3903C25.4017 89.2503 25.5917 89.3103 25.7417 89.7903C26.7865 93.1722 28.0663 96.4769 29.5717 99.6803C29.633 99.7922 29.6651 99.9178 29.6651 100.045C29.6651 100.173 29.633 100.298 29.5717 100.41C28.0593 103.691 26.7469 107.061 25.6417 110.5ZM46.5117 126.61C43.4003 129.628 39.7461 132.031 35.7417 133.69C34.3904 134.234 32.9365 134.477 31.4817 134.4C30.7354 134.365 30.0138 134.122 29.3988 133.698C28.7837 133.273 28.2998 132.685 28.0017 132C27.1217 130.24 26.7017 128 26.7117 124.24C26.8137 121.426 27.2126 118.631 27.9017 115.9C27.9817 115.58 28.0717 115.44 28.4717 115.52C31.5281 116.214 34.6344 116.665 37.7617 116.87C38.3759 116.891 38.9746 117.069 39.5 117.388C40.0254 117.706 40.4599 118.155 40.7617 118.69C42.51 121.152 44.4244 123.49 46.4917 125.69C46.8717 126.06 46.8817 126.27 46.5117 126.61ZM49.7817 123.25C49.6317 123.42 49.5017 123.56 49.2717 123.31C47.5917 121.45 45.9717 119.55 44.3617 117.4C47.8217 117.47 51.0817 117.47 54.4817 117.4C53.2517 119.11 52.0217 120.63 50.7617 122.14C50.4417 122.51 50.1017 122.88 49.7817 123.25ZM71.1117 130.87C71.0517 131.05 70.9917 131.22 70.9117 131.4C69.8117 133.95 67.9117 134.88 65.2317 134.32C62.0789 133.558 59.1369 132.099 56.6217 130.05C55.2153 129.013 53.8791 127.884 52.6217 126.67C52.2617 126.32 52.1417 126.11 52.5517 125.67C54.8554 123.104 56.9868 120.388 58.9317 117.54C59.0404 117.373 59.1883 117.234 59.3625 117.137C59.5367 117.039 59.7321 116.986 59.9317 116.98C63.4071 116.653 66.8599 116.119 70.2717 115.38C70.7517 115.28 70.9017 115.38 70.9917 115.82C71.6421 118.611 71.9776 121.465 71.9917 124.33C72.1005 126.546 71.8022 128.762 71.1117 130.87ZM88.4717 99.8703C88.4307 101.227 87.8642 102.514 86.8917 103.46C85.0578 105.402 82.8682 106.974 80.4417 108.09C78.357 109.126 76.1936 109.996 73.9717 110.69C73.4917 110.85 73.3017 110.69 73.1617 110.28C72.0596 106.908 70.723 103.616 69.1617 100.43C69.0952 100.308 69.0604 100.17 69.0604 100.03C69.0604 99.8907 69.0952 99.7532 69.1617 99.6303C70.6558 96.4072 71.9385 93.0901 73.0017 89.7003C73.0917 89.4303 73.1817 89.2503 73.5517 89.3603C77.6694 90.4834 81.5537 92.3324 85.0217 94.8203C86.2307 95.6554 87.2468 96.7397 88.0017 98.0003C88.3237 98.5555 88.4863 99.1887 88.4717 99.8303V99.8703Z" fill="#53C0DD"/>
<path d="M114.21 106.4C114.21 106.04 114.07 105.95 113.75 105.98C113.49 106.023 113.223 106.003 112.973 105.921C112.722 105.839 112.495 105.698 112.31 105.51C111.19 104.26 110.09 102.98 108.97 101.69C109.54 101.48 110.06 101.32 110.54 101.09C111.287 100.789 111.913 100.249 112.32 99.554C112.728 98.8591 112.893 98.0488 112.79 97.25C112.684 96.4484 112.325 95.7014 111.766 95.1171C111.207 94.5328 110.476 94.1416 109.68 94C109.006 93.8596 108.319 93.7893 107.63 93.79C105.15 93.79 102.68 93.79 100.2 93.79C98.8001 93.79 98.8301 93.79 98.7901 95.19C98.7901 95.72 98.9001 95.92 99.4501 95.85C99.5797 95.8196 99.7148 95.8211 99.8436 95.8545C99.9725 95.8879 100.091 95.9522 100.19 96.0418C100.288 96.1314 100.363 96.2436 100.409 96.3687C100.454 96.4939 100.468 96.6282 100.45 96.76C100.45 99.52 100.45 102.28 100.45 105.04C100.45 105.67 100.11 106.04 99.5201 105.94C98.9301 105.84 98.6801 106.19 98.7601 106.77C98.7852 106.912 98.7852 107.058 98.7601 107.2C98.6801 107.74 98.8601 107.94 99.4501 107.92C101.09 107.92 102.73 107.92 104.37 107.92C105.64 107.92 105.62 107.92 105.66 106.66C105.66 106.11 105.55 105.92 104.97 105.95C104.16 105.95 103.97 105.76 103.97 104.95C103.97 104.14 103.97 103.14 103.97 102.24C103.97 102.06 103.9 101.83 104.21 101.83C104.72 101.83 105.21 101.83 105.56 102.34C106.78 104.09 108.1 105.78 109.36 107.51C109.448 107.648 109.571 107.76 109.717 107.834C109.863 107.908 110.027 107.941 110.19 107.93C111.04 107.93 111.9 107.93 112.76 107.93C114.29 107.94 114.28 107.94 114.21 106.4ZM107.93 99.66C107.128 99.8677 106.297 99.9421 105.47 99.88C103.99 99.88 103.99 99.88 103.99 98.43V97.9C104.05 97.4 103.71 96.59 104.11 96.24C104.51 95.89 105.24 96.14 105.83 96.15C106.469 96.1119 107.11 96.1488 107.74 96.26C108.119 96.3068 108.47 96.4859 108.729 96.7659C108.989 97.0458 109.142 97.4085 109.16 97.79C109.2 98.1954 109.1 98.6022 108.876 98.9426C108.652 99.2829 108.318 99.5361 107.93 99.66Z" fill="black"/>
<path d="M137.449 105.94C136.709 106.13 136.279 105.74 136.259 104.94C136.239 104.14 136.259 103.51 136.259 102.8V100.66C136.298 100.093 136.144 99.5302 135.823 99.0619C135.502 98.5936 135.032 98.2476 134.489 98.0799C133.493 97.68 132.414 97.5311 131.347 97.6462C130.279 97.7612 129.257 98.1368 128.369 98.7399C128.068 98.9364 127.829 99.2136 127.679 99.5399C127.482 99.868 127.42 100.26 127.506 100.633C127.592 101.005 127.819 101.331 128.139 101.54C128.48 101.739 128.884 101.802 129.269 101.717C129.654 101.631 129.994 101.404 130.219 101.08C130.399 100.83 130.519 100.54 130.679 100.28C130.892 99.9636 131.216 99.7395 131.587 99.6523C131.958 99.5651 132.348 99.6214 132.679 99.8099C133.349 100.22 133.199 100.9 133.159 101.49C133.119 102.08 132.589 101.8 132.299 101.84C131.166 101.961 130.052 102.216 128.979 102.6C128.299 102.803 127.719 103.25 127.349 103.856C126.98 104.462 126.848 105.183 126.979 105.88C127.137 106.551 127.522 107.147 128.069 107.568C128.615 107.989 129.29 108.208 129.979 108.19C131.101 108.19 132.195 107.84 133.109 107.19C133.349 107.02 133.549 106.88 133.819 107.19C134.143 107.56 134.554 107.845 135.014 108.02C135.474 108.194 135.971 108.253 136.459 108.19C137.819 108.19 137.899 108.07 137.899 106.76C137.899 106.61 137.899 106.47 137.899 106.33C137.999 105.93 137.889 105.83 137.449 105.94ZM132.879 105.45C132.269 105.73 131.689 106.16 130.949 105.91C130.776 105.868 130.618 105.777 130.496 105.647C130.373 105.518 130.291 105.355 130.259 105.18C130.223 104.992 130.242 104.799 130.313 104.621C130.384 104.444 130.504 104.291 130.659 104.18C131.355 103.78 132.13 103.538 132.929 103.47C133.119 103.47 133.159 103.58 133.169 103.73C133.179 103.88 133.169 104.2 133.169 104.49C133.169 104.78 133.369 105.23 132.879 105.45Z" fill="black"/>
<path d="M124.472 104.58C124.212 104.33 124.062 104.31 123.782 104.58C123.19 105.137 122.457 105.521 121.662 105.69C121.307 105.773 120.938 105.779 120.581 105.708C120.224 105.637 119.886 105.491 119.589 105.279C119.293 105.067 119.045 104.794 118.863 104.478C118.681 104.163 118.568 103.812 118.532 103.45C118.532 103.1 118.532 103 118.932 103.01C119.932 103.01 120.932 103.01 121.932 103.01C122.932 103.01 123.882 103.01 124.862 103.01C125.232 103.01 125.322 102.92 125.322 102.54C125.322 99.4597 123.232 97.5397 119.982 97.7097C119.01 97.7011 118.057 97.9817 117.245 98.5159C116.433 99.0501 115.798 99.8137 115.422 100.71C114.986 101.593 114.821 102.585 114.948 103.562C115.074 104.539 115.486 105.456 116.132 106.2C116.638 106.785 117.256 107.263 117.949 107.606C118.642 107.949 119.397 108.151 120.169 108.198C120.942 108.246 121.715 108.138 122.446 107.883C123.176 107.627 123.848 107.228 124.422 106.71C125.632 105.69 125.622 105.67 124.472 104.58ZM118.722 101C118.832 100.621 119.056 100.285 119.364 100.038C119.672 99.7912 120.048 99.6451 120.442 99.6197C120.823 99.6412 121.186 99.7867 121.477 100.034C121.768 100.281 121.969 100.617 122.052 100.99C122.142 101.34 122.052 101.45 121.682 101.44C121.312 101.43 120.832 101.44 120.402 101.44C119.972 101.44 119.492 101.44 119.042 101.44C118.592 101.44 118.662 101.27 118.722 101Z" fill="black"/>
<path d="M49.3287 107.57C47.8194 107.564 46.3457 107.111 45.0934 106.269C43.8412 105.426 42.8666 104.231 42.2927 102.835C41.7187 101.439 41.5711 99.9046 41.8685 98.4249C42.1659 96.9451 42.8949 95.5866 43.9635 94.5207C45.0322 93.4548 46.3926 92.7294 47.8731 92.4359C49.3537 92.1424 50.888 92.294 52.2824 92.8716C53.6769 93.4492 54.869 94.4269 55.7084 95.6813C56.5477 96.9357 56.9968 98.4106 56.9987 99.92C57.0068 100.929 56.8137 101.929 56.4309 102.862C56.048 103.795 55.483 104.642 54.7689 105.354C54.0548 106.067 53.2059 106.629 52.2719 107.01C51.3378 107.39 50.3373 107.581 49.3287 107.57Z" fill="#53C0DD"/>
</svg>
