<svg width="200" height="200" viewBox="0 0 200 200" fill="none" xmlns="http://www.w3.org/2000/svg">
<path d="M20.4208 64.9997C20.3033 64.4531 20.3552 63.8837 20.5696 63.3673C20.784 62.851 21.1507 62.4123 21.6208 62.1097C22.7923 61.2136 24.094 60.502 25.4808 59.9997C47.7308 51.2997 69.9207 42.4397 92.3207 34.1297C94.6415 33.2776 97.0254 32.6088 99.4507 32.1297C103.579 31.4018 107.829 31.8953 111.681 33.5497C126.601 39.3163 141.511 45.1163 156.411 50.9497L173.931 57.7397C175.473 58.2724 176.941 58.9981 178.301 59.8997C178.822 60.1839 179.235 60.6314 179.477 61.1734C179.719 61.7154 179.777 62.3219 179.641 62.8997C179.281 64.0705 178.477 65.0539 177.401 65.6397C174.039 67.7851 170.468 69.5811 166.741 70.9997C151.411 77.7997 136.001 84.2897 120.601 90.9997C116.741 92.6997 112.927 94.4963 109.161 96.3897C102.411 99.8097 95.7607 99.6597 88.9507 96.3897C80.5407 92.3897 71.8008 89.0297 63.1908 85.3897C51.5708 80.5197 39.8808 75.7897 28.3508 70.7197C26.4516 69.9741 24.6213 69.064 22.8808 67.9997C21.6983 67.3619 20.8145 66.2842 20.4208 64.9997Z" fill="#D92D1D"/>
<path d="M179.642 116.29C179.642 121.29 179.642 126.29 179.702 131.29C179.659 131.872 179.481 132.436 179.18 132.937C178.88 133.437 178.466 133.86 177.972 134.17C176.017 135.695 173.872 136.958 171.592 137.93C158.592 143.98 145.262 149.44 132.102 155.19C124.572 158.48 117.002 161.67 109.672 165.37C107.168 166.7 104.467 167.619 101.672 168.09C98.1495 168.596 94.5562 168.065 91.3316 166.56C71.7616 157.83 51.7816 150.09 32.1216 141.56C29.0903 140.349 26.1466 138.929 23.3116 137.31C22.3323 136.847 21.5193 136.094 20.9826 135.153C20.4459 134.212 20.2117 133.129 20.3116 132.05C20.5416 127.53 20.4116 122.98 20.4316 118.44C20.5072 118.414 20.5882 118.408 20.6669 118.422C20.7457 118.436 20.8196 118.47 20.8816 118.52C23.8816 121.84 27.9716 123.22 31.8816 124.9C50.1616 132.74 68.6316 140.16 86.8816 147.97C89.5516 149.11 92.1116 150.52 94.9516 151.19C99.2703 152.185 103.801 151.63 107.752 149.62C125.472 141.02 143.752 133.77 161.752 125.76C166.132 123.76 170.632 122.09 174.752 119.64C176.237 118.861 177.587 117.848 178.752 116.64C178.846 116.497 178.982 116.387 179.141 116.324C179.3 116.262 179.475 116.25 179.642 116.29Z" fill="#A51F1C"/>
<path d="M26.5983 113.06C25.1283 112.15 23.5983 111.29 22.1983 110.33C21.5717 109.941 21.0645 109.388 20.7327 108.73C20.401 108.071 20.2576 107.334 20.3183 106.6C20.4383 101.81 20.3983 97.0096 20.4183 92.2196C20.4939 92.1936 20.5749 92.1872 20.6537 92.2012C20.7324 92.2152 20.8063 92.2491 20.8683 92.2996C23.8083 95.5396 27.8683 96.9696 31.6983 98.6196C50.0183 106.47 68.5083 113.92 86.8483 121.72C88.1583 122.27 89.4583 122.87 90.7283 123.49C93.3667 124.818 96.2815 125.505 99.2355 125.495C102.189 125.484 105.099 124.777 107.728 123.43C125.378 114.98 143.518 107.64 161.418 99.7496C166.21 97.8213 170.885 95.6142 175.418 93.1396C176.618 92.4701 177.707 91.6202 178.648 90.6196C178.918 90.3196 179.158 89.9196 179.648 89.9996C179.648 94.9996 179.648 99.9996 179.708 105C179.695 105.501 179.568 105.992 179.338 106.437C179.108 106.882 178.78 107.269 178.378 107.57C176.972 108.826 175.367 109.84 173.628 110.57C173.479 110.88 173.27 111.157 173.012 111.386C172.755 111.614 172.454 111.789 172.128 111.9C164.048 115.64 155.838 119.11 147.668 122.66C134.718 128.29 121.668 133.6 108.948 139.88C102.038 143.31 95.3483 142.88 88.4583 139.55C79.0883 135.06 69.3683 131.37 59.7783 127.38C49.3183 123.02 38.8383 118.69 28.4383 114.18C27.7184 114.019 27.0716 113.625 26.5983 113.06Z" fill="#A51F1C"/>
<path d="M20.4208 64.9998C22.4208 67.9998 25.6708 69.1898 28.7308 70.5298C37.3208 74.2398 46.0008 77.8298 54.6108 81.4398C65.3308 85.9298 76.0808 90.3698 86.7908 94.8898C89.6508 96.0998 92.3708 97.6198 95.4508 98.2498C99.673 99.0963 104.057 98.5012 107.901 96.5598C120.901 90.2398 134.191 84.7198 147.421 79.0098C155.421 75.5698 163.367 72.0664 171.261 68.4998C174.361 67.0898 177.491 65.6098 179.641 62.7598C179.641 67.7598 179.641 72.7598 179.701 77.7598C179.676 78.3129 179.522 78.8525 179.251 79.3353C178.98 79.8181 178.6 80.2307 178.141 80.5398C176.402 81.986 174.448 83.1532 172.351 83.9998C171.431 85.3598 169.851 85.6998 168.491 86.3198C156.321 91.8098 144.001 96.9498 131.761 102.32C124.221 105.6 116.631 108.8 109.291 112.54C106.266 114.184 102.886 115.066 99.4429 115.112C96.0002 115.157 92.5982 114.364 89.5308 112.8C80.1808 108.38 70.5308 104.68 60.9708 100.69C50.3108 96.1898 39.5808 91.8998 29.0008 87.1798C28.4708 86.9498 27.8808 86.7898 27.6108 86.1798C25.8165 85.3094 24.0766 84.3309 22.4008 83.2498C21.7105 82.8218 21.1495 82.2143 20.7778 81.4921C20.4061 80.7699 20.2378 79.9602 20.2908 79.1498C20.4708 74.4498 20.4008 69.7098 20.4208 64.9998Z" fill="#A51F1C"/>
<path d="M27.64 86.21C34.56 89.13 41.48 92.09 48.41 94.98C59.52 99.62 70.66 104.2 81.77 108.84C84.73 110.067 87.66 111.37 90.56 112.75C96.67 115.66 102.71 115.29 108.64 112.36C120.77 106.36 133.3 101.28 145.64 95.86C154.56 91.96 163.64 88.34 172.32 84C172.86 84.83 173.86 84.8 174.64 85.16C175.904 85.6771 177.116 86.3133 178.26 87.06C178.779 87.3327 179.195 87.7675 179.444 88.2982C179.693 88.8289 179.762 89.4265 179.64 90C177.29 93.24 173.69 94.64 170.27 96.22C164.63 98.82 158.91 101.22 153.21 103.7L131.63 113.05C124.87 115.99 118.08 118.86 111.48 122.17C108.656 123.712 105.625 124.84 102.48 125.52C98.7355 126.246 94.8582 125.795 91.38 124.23C81.38 119.74 71.25 115.63 61.14 111.44C51.03 107.25 40.67 102.84 30.45 98.51C28.56 97.7 26.74 96.75 24.87 95.89C23.0902 95.0741 21.5533 93.8094 20.41 92.22C20.09 90.76 20.91 89.87 21.96 89.08C23.68 87.77 25.78 87.24 27.64 86.21Z" fill="#D92D1D"/>
<path d="M26.6008 113.06C30.6708 114.77 34.7308 116.5 38.8008 118.2C46.6708 121.48 54.5508 124.71 62.3908 128.03C71.0608 131.7 79.8208 135.16 88.3908 139.03C91.5908 140.47 94.7708 141.92 98.3908 142.03C101.928 142.066 105.422 141.242 108.571 139.63C120.011 134.02 131.781 129.16 143.461 124.08C152.461 120.16 161.581 116.42 170.461 112.2C171.543 111.795 172.579 111.276 173.551 110.65C173.551 111.43 174.251 111.32 174.661 111.5C175.919 112.009 177.122 112.646 178.251 113.4C178.759 113.679 179.163 114.116 179.401 114.645C179.639 115.173 179.699 115.765 179.571 116.33C177.341 119.25 174.101 120.75 170.901 122.21C164.291 125.21 157.621 128.07 150.951 130.96C143.571 134.16 136.141 137.28 128.771 140.52C122.221 143.4 115.631 146.19 109.271 149.52C102.431 153.06 95.7308 152.96 88.8408 149.58C81.6608 146.05 74.1508 143.25 66.7808 140.15C57.4475 136.217 48.0775 132.304 38.6708 128.41C34.0008 126.47 29.3308 124.54 24.8108 122.28C23.048 121.433 21.5174 120.17 20.3508 118.6C20.2196 118.027 20.2749 117.427 20.5088 116.887C20.7426 116.348 21.1428 115.897 21.6508 115.6C23.1554 114.496 24.8263 113.639 26.6008 113.06Z" fill="#D92D1D"/>
<path d="M67.3887 71.3196C62.4252 71.422 57.4884 70.5664 52.8487 68.7997C51.5153 68.2881 50.2854 67.5394 49.2188 66.5896C47.2188 64.7296 47.2188 62.5896 49.2188 60.7096C50.6045 59.4787 52.2479 58.5733 54.0287 58.0597C62.7293 55.2835 72.0782 55.2835 80.7787 58.0597C82.4541 58.5513 84.0123 59.378 85.3587 60.4897C87.7588 62.5397 87.7588 64.8896 85.3587 66.8896C83.2835 68.4404 80.8944 69.5189 78.3587 70.0497C74.7716 70.9412 71.0847 71.368 67.3887 71.3196Z" fill="#FEFEFE"/>
<path d="M77.8008 77.2304L114.331 71.6104C113.511 72.8204 112.851 73.8203 112.181 74.8103C109.394 78.857 106.634 82.9204 103.901 87.0004C103.491 87.6004 103.181 88.0503 102.271 87.6703C94.2708 84.3203 86.3408 81.0203 78.3708 77.6703C78.1721 77.5352 77.9818 77.3883 77.8008 77.2304Z" fill="#FEFEFE"/>
<path d="M83.6289 50.8102C86.9789 49.6102 90.3189 48.3602 93.6889 47.2202C94.7889 46.8402 94.8989 46.4502 94.3089 45.4802C93.3089 43.8702 92.4989 42.1702 91.4189 40.1602C94.7989 41.4702 97.8789 42.6002 100.909 43.8702C101.427 44.1089 101.988 44.2407 102.559 44.2579C103.129 44.2751 103.697 44.1772 104.229 43.9702C106.649 43.0902 109.109 42.3302 111.569 41.5502C111.879 41.4502 112.219 41.0902 112.569 41.4602C112.919 41.8302 112.569 42.1602 112.449 42.4602C111.869 43.9202 111.289 45.3902 110.609 46.8202C110.219 47.6502 110.379 47.9602 111.259 48.2702C114.32 49.3354 117.323 50.557 120.259 51.9302C117.129 52.2602 114.009 52.7802 110.879 52.8702C108.159 52.9502 106.329 53.6902 105.699 56.5902C105.255 58.0142 104.686 59.3962 103.999 60.7202C102.479 58.2002 100.999 55.9502 99.7489 53.6202C99.5372 53.2084 99.214 52.8644 98.8161 52.6274C98.4183 52.3905 97.9618 52.2702 97.4989 52.2802C92.8789 51.9302 88.2789 51.4802 83.6689 51.0702L83.6289 50.8102Z" fill="#FEFEFE"/>
<path d="M137.572 70.9997C135.802 72.0997 134.132 71.8597 132.232 71.0697C126.002 68.4797 119.692 66.0697 113.102 63.4897C116.392 62.1497 119.392 60.9197 122.402 59.7197C126.982 57.8864 131.568 56.0764 136.162 54.2897C136.662 54.0997 137.262 53.5097 137.882 54.1597C137.572 59.0997 137.812 64.0297 137.742 68.9697C137.79 69.6511 137.733 70.3359 137.572 70.9997Z" fill="#AE231E"/>
<path d="M137.572 71.0002C137.132 70.6402 137.252 70.1402 137.252 69.6902C137.252 64.9702 137.252 60.2502 137.252 55.5302C137.252 55.0002 137.002 54.3102 137.882 54.1602L159.112 62.5402L137.572 71.0002Z" fill="#7A140F"/>
</svg>
