<svg width="200" height="200" viewBox="0 0 200 200" fill="none" xmlns="http://www.w3.org/2000/svg">
<path d="M98.1719 175.66C91.4915 175.782 84.8373 174.792 78.4819 172.73C75.1819 171.73 72.6419 169.78 71.9119 166.13C71.7276 165.099 71.7578 164.041 72.0006 163.022C72.2435 162.003 72.6939 161.045 73.3235 160.208C73.9532 159.371 74.7487 158.673 75.6603 158.157C76.5719 157.641 77.5801 157.319 78.6219 157.21C81.7019 156.91 84.6219 157.92 87.5419 158.44C101.292 160.88 114.602 159.84 127.212 153.44C137.962 147.98 145.912 139.63 151.802 129.21C153.744 125.608 155.457 121.887 156.932 118.07C157.932 115.49 159.482 113.21 162.292 112.28C163.562 111.885 164.912 111.821 166.214 112.095C167.516 112.369 168.725 112.972 169.728 113.846C170.731 114.721 171.493 115.837 171.941 117.089C172.39 118.342 172.511 119.688 172.292 121C171.683 124.441 170.578 127.776 169.012 130.9C157.952 154.9 139.182 169.18 113.362 174.35C108.357 175.306 103.267 175.745 98.1719 175.66Z" fill="#50C08D"/>
<path d="M101.002 24.3202C107.706 24.2541 114.382 25.2049 120.802 27.1402C121.851 27.441 122.859 27.871 123.802 28.4202C127.032 30.3202 128.462 33.4202 127.722 36.8002C127.451 38.41 126.641 39.8801 125.426 40.97C124.211 42.0599 122.661 42.7052 121.032 42.8002C119.523 42.9331 118.003 42.7977 116.542 42.4002C110.95 40.9425 105.2 40.1801 99.4217 40.1302C84.8017 40.1302 72.0317 45.1802 60.8917 54.5002C52.5296 61.5226 46.327 70.7693 43.0017 81.1702C42.7817 81.8302 42.5617 82.4802 42.2917 83.1102C41.5407 84.9439 40.1359 86.4336 38.3495 87.2908C36.563 88.148 34.522 88.3117 32.6217 87.7502C30.7466 87.1127 29.1719 85.8071 28.198 84.0825C27.2241 82.358 26.9193 80.3352 27.3417 78.4002C28.3023 74.3268 29.7846 70.3943 31.7517 66.7002C42.7517 44.7002 60.4317 31.2202 84.4117 25.9502C89.8659 24.8044 95.4289 24.2578 101.002 24.3202Z" fill="#50C08D"/>
<path d="M73.1989 111.75H117.999C119.463 111.749 120.92 111.968 122.319 112.4C124.077 112.837 125.618 113.896 126.655 115.382C127.692 116.867 128.155 118.679 127.959 120.48C127.805 122.206 127.081 123.831 125.9 125.098C124.719 126.366 123.149 127.204 121.439 127.48C120.811 127.621 120.172 127.708 119.529 127.74C106.299 127.94 93.0689 128.13 79.8389 127.91C74.3589 127.82 68.8389 127.69 63.4189 127.83C58.4189 127.95 53.5089 128.06 48.5589 127.92C41.4089 127.73 34.2589 127.85 27.1089 127.76C26.0312 127.75 24.9592 127.602 23.9189 127.32C20.5089 126.38 18.6089 124.07 18.4989 120.78C18.3389 116.47 19.9789 113.78 23.6689 112.52C25.2158 111.984 26.842 111.714 28.4789 111.72L73.1989 111.75Z" fill="#A4D5B7"/>
<path d="M126.681 88.2101H81.9305C79.2817 88.3705 76.6642 87.5678 74.5605 85.9501C73.4663 85.0944 72.6373 83.9457 72.17 82.6376C71.7027 81.3294 71.6162 79.9155 71.9205 78.5601C72.5105 75.3101 74.7505 73.6601 77.6705 72.7501C79.0313 72.335 80.448 72.1326 81.8705 72.1501H171.241C173.895 72.0034 176.518 72.7925 178.651 74.3801C183.431 78.2601 182.101 85.2101 176.231 87.3801C174.564 87.9629 172.806 88.2407 171.041 88.2001C156.254 88.1935 141.467 88.1968 126.681 88.2101Z" fill="#A4D5B7"/>
<path d="M53.4416 142C58.0616 142 61.1816 145.15 61.1916 149.81C61.1916 154.07 57.6016 157.81 53.5416 157.81C51.4173 157.794 49.3811 156.959 47.8559 155.481C46.3307 154.002 45.4338 151.993 45.3516 149.87C45.4287 147.769 46.3125 145.779 47.8192 144.314C49.3259 142.848 51.3396 142.019 53.4416 142Z" fill="#A4D5B7"/>
<path d="M138.77 50.4602C138.77 45.6502 141.77 42.5302 146.07 42.3202C149.77 42.1502 154.07 45.7502 154.07 50.2002C154.107 51.261 153.926 52.3181 153.537 53.3058C153.149 54.2935 152.561 55.1905 151.81 55.9411C151.06 56.6916 150.163 57.2795 149.175 57.6682C148.187 58.0569 147.13 58.238 146.07 58.2002C141.72 58.1302 138.78 55.0002 138.77 50.4602Z" fill="#A4D5B7"/>
</svg>
