<svg width="200" height="200" viewBox="0 0 200 200" fill="none" xmlns="http://www.w3.org/2000/svg">
<path d="M149.208 74.5498C149.208 72.7498 148.518 72.4198 146.968 72.6398C144.678 72.9698 142.368 73.2998 140.058 73.4498C137.298 73.6298 134.558 74.4498 131.428 74.0698C136.268 65.8798 140.938 57.9998 145.598 50.0698C146.166 49.3788 146.532 48.5451 146.658 47.6598C146.788 39.7198 146.948 31.7798 147.088 23.8398C147.088 22.1098 145.648 21.4298 144.548 20.6598C143.448 19.8898 143.018 21.2398 142.418 21.7498C130.031 32.2498 117.661 42.7732 105.308 53.3198C87.7148 68.3132 70.1381 83.3132 52.5781 98.3198C51.6681 99.0998 50.5781 99.7098 50.5781 101.27C50.6781 106.45 50.6581 111.63 50.5781 116.8C50.5781 117.93 50.8181 118.43 52.0881 118.17C53.9181 117.8 55.7781 117.59 57.6281 117.29L81.6281 113.44C81.0581 114.49 80.6981 115.2 80.2981 115.87C76.7648 121.956 73.1881 128.03 69.5681 134.09C66.6181 139.09 62.5681 143.76 61.0781 149.16C59.5881 154.56 60.6181 160.84 60.5781 166.72C60.5781 170.79 60.5781 174.87 60.5781 179.5C61.6681 178.59 62.3381 178.07 62.9581 177.5L97.1981 146.73C114.045 131.57 130.895 116.406 147.748 101.24C148.251 100.886 148.662 100.418 148.947 99.8735C149.233 99.3291 149.384 98.7244 149.388 98.1098C149.248 90.2632 149.188 82.4098 149.208 74.5498ZM141.638 33.4398C141.638 37.9298 141.638 41.6598 141.638 45.4398C141.609 46.5167 141.261 47.5606 140.638 48.4398C135.391 57.2332 130.145 66.0198 124.898 74.7998C124.348 75.7398 123.898 76.6498 122.598 76.7998C119.958 77.0598 117.318 77.3698 114.038 77.7298L141.638 33.4398ZM58.3181 112.12C56.5581 112.42 55.8981 112.05 56.0481 110.18C56.1881 108.312 56.1881 106.437 56.0481 104.57C55.9883 104.097 56.0236 103.618 56.1519 103.159C56.2803 102.701 56.499 102.273 56.7953 101.9C57.0917 101.527 57.4596 101.217 57.8773 100.989C58.2951 100.761 58.7544 100.618 59.2281 100.57C70.2281 98.7598 81.2281 97.1898 92.2281 95.5698C92.5698 95.6098 92.9055 95.6904 93.2281 95.8098C90.9281 99.5598 88.7281 103.19 86.4881 106.81C85.8981 107.81 84.7981 107.73 83.8581 107.89C75.3381 109.31 66.8181 110.66 58.3181 112.12ZM143.908 96.8698C143.908 98.2898 142.498 98.8698 141.608 99.6498C122.468 116.923 103.311 134.176 84.1381 151.41L65.8781 167.85C65.8781 162.26 65.8781 157.46 65.8781 152.66C65.8781 151.38 66.6881 150.75 67.4681 150.04L130.168 93.2798C134.578 89.2798 138.998 85.2798 143.958 80.8398C143.928 86.6198 143.998 91.7398 143.908 96.8698Z" fill="#FC5750"/>
</svg>
