<svg width="200" height="200" viewBox="0 0 200 200" fill="none" xmlns="http://www.w3.org/2000/svg">
<path d="M40.5508 123.75C40.6508 121.34 40.7008 118.94 40.8508 116.54C40.9708 114.71 41.0308 112.89 41.1208 111.07C41.2608 108.42 41.4108 105.78 41.5208 103.13C41.6008 101.31 41.6808 99.4801 41.7908 97.6601C41.9608 94.8401 42.0708 92.0201 42.2008 89.1901C42.2808 87.3201 42.3508 85.4501 42.4808 83.5901C42.4457 82.6784 42.5162 81.7657 42.6908 80.8701C43.0608 80.8701 43.2208 81.1801 43.4408 81.3901C44.1308 82.0601 44.8208 82.7301 45.4408 83.3901C45.5876 83.5543 45.7681 83.6849 45.9701 83.7729C46.172 83.861 46.3905 83.9043 46.6108 83.9001C47.5508 83.9001 48.4808 84.0301 49.4208 84.0601C49.5369 84.0518 49.6534 84.0677 49.7631 84.1068C49.8727 84.1459 49.973 84.2073 50.0576 84.2873C50.1423 84.3672 50.2093 84.4638 50.2546 84.571C50.2999 84.6783 50.3225 84.7937 50.3208 84.9101C50.8808 88.7901 51.4708 92.6701 52.0308 96.5501C52.5908 100.43 53.1308 104.17 53.6908 107.99C54.2808 111.99 54.8708 115.99 55.5008 119.99C55.5608 120.42 55.4308 120.54 55.0708 120.62L41.0708 123.62C40.9408 123.69 40.7608 123.83 40.5508 123.75Z" fill="#5E8C3E"/>
<path d="M42.6918 80.8704C42.1344 80.8172 41.5733 80.9211 41.0718 81.1704C40.6518 81.3204 40.4618 81.1703 40.3218 80.8103C39.9556 79.7662 39.3767 78.8094 38.6218 78.0004C38.2828 77.5996 37.8661 77.2716 37.3969 77.0362C36.9278 76.8007 36.4158 76.6627 35.8918 76.6303C35.6662 76.6138 35.4468 76.549 35.2484 76.4403C35.05 76.3316 34.8772 76.1816 34.7418 76.0004C34.4647 75.6717 34.1161 75.4107 33.7227 75.2374C33.3293 75.064 32.9014 74.983 32.4718 75.0004C31.3993 75.0529 30.3489 75.325 29.3857 75.7997C28.4224 76.2744 27.5668 76.9417 26.8718 77.7604C24.8016 80.2055 23.3447 83.1092 22.6218 86.2304C22.5873 86.4353 22.4898 86.6244 22.3428 86.7713C22.1959 86.9183 22.0068 87.0158 21.8018 87.0504C20.3818 87.4904 18.9618 87.9503 17.5318 88.3803C17.2625 88.4329 17.0182 88.5734 16.8373 88.7797C16.6563 88.986 16.5489 89.2465 16.5318 89.5203C16.3918 90.6503 16.2418 91.7804 16.1018 92.9104C15.5218 97.2837 14.9485 101.66 14.3818 106.04C13.8618 110.04 13.3818 114.04 12.8218 117.97C12.7618 118.42 12.9018 118.54 13.3218 118.62C16.8018 119.26 20.3218 119.94 23.7618 120.62C27.7618 121.38 31.7618 122.14 35.7618 122.86C37.3318 123.15 38.8918 123.53 40.4918 123.69C40.559 123.63 40.6119 123.556 40.6465 123.473C40.6812 123.39 40.6966 123.3 40.6918 123.21C40.6918 122.38 40.8518 121.56 40.8518 120.74C40.8518 118.51 41.0318 116.28 41.1518 114.06C41.3218 110.9 41.4618 107.73 41.6318 104.58C41.7618 102.28 41.8518 99.9903 41.9518 97.7003C42.0018 96.7003 42.0218 95.7803 42.0818 94.8204C42.2618 92.3304 42.3018 89.8203 42.4618 87.3403C42.5618 85.8303 42.5618 84.3404 42.6918 82.8004C42.8139 82.1628 42.8139 81.5079 42.6918 80.8704ZM27.0018 85.5504C26.3118 85.6804 25.6318 85.9404 24.9518 86.1404C24.6118 86.2404 24.4418 86.2204 24.5818 85.7804C25.2956 83.2426 26.5434 80.8866 28.2418 78.8704C28.7497 78.2511 29.383 77.7464 30.1001 77.3896C30.8171 77.0329 31.6016 76.832 32.4018 76.8004C32.5383 76.789 32.6754 76.789 32.8118 76.8004C32.9118 76.8004 33.0518 76.8804 33.0818 76.9604C33.1118 77.0404 32.9818 77.1604 32.8718 77.2304C30.3818 78.7604 29.1918 81.1704 28.5418 83.8704C28.3118 84.8504 27.9418 85.3804 27.0018 85.5504ZM33.8718 83.3904L30.6918 84.3904C30.3818 84.4904 30.2018 84.4803 30.3118 84.0903C30.7853 82.0712 31.9358 80.2749 33.5718 79.0004C34.2618 78.5104 34.4718 78.5804 34.6418 79.4204C34.8608 80.1409 34.9819 80.8876 35.0018 81.6404C35.0018 83.0004 35.0018 83.0004 33.8518 83.3904H33.8718ZM38.6418 81.9304H38.5718C36.7318 82.6204 36.7118 82.6204 36.5718 80.6904C36.5164 80.0158 36.406 79.3469 36.2418 78.6904C36.1518 78.2104 36.3818 78.3004 36.5718 78.3704C37.0936 78.5806 37.5373 78.9475 37.8418 79.4204C38.2691 80.0357 38.6059 80.7093 38.8418 81.4204C39.0018 81.7404 38.9018 81.8704 38.6218 81.9304H38.6418Z" fill="#95BD46"/>
<path d="M78.5117 115.46C79.9917 107.73 81.4517 100.06 82.9017 92.4004C83.3217 90.1904 83.7517 87.9804 84.1417 85.7604C84.2117 85.3504 84.3517 85.2004 84.7817 85.2104C86.4117 85.2104 88.0417 85.2104 89.6717 85.2104C90.0217 85.2104 90.1817 85.2104 90.0917 85.6804C89.3617 89.3804 88.6617 93.0804 87.9617 96.7804C87.9617 96.8704 87.9617 96.9504 87.9617 97.1504C88.5018 96.5856 89.0762 96.0545 89.6817 95.5604C90.9506 94.5816 92.4996 94.0349 94.1017 94.0004C94.7326 93.9502 95.367 94.0323 95.9642 94.2417C96.5614 94.451 97.1083 94.7829 97.5697 95.2161C98.0311 95.6492 98.3968 96.1741 98.6434 96.7569C98.89 97.3397 99.0121 97.9677 99.0017 98.6004C99.0304 100.745 98.7919 102.885 98.2917 104.97C97.6917 108.21 97.0517 111.45 96.4617 114.69C96.3617 115.25 96.2217 115.51 95.5717 115.48C94.0017 115.41 92.4417 115.48 90.8717 115.48C90.4917 115.48 90.3717 115.41 90.4517 115C91.1917 111.174 91.9184 107.34 92.6317 103.5C92.8215 102.556 92.892 101.592 92.8417 100.63C92.8554 100.331 92.7924 100.033 92.6586 99.7647C92.5249 99.4964 92.3248 99.2668 92.0774 99.0975C91.83 98.9282 91.5435 98.825 91.245 98.7975C90.9465 98.77 90.6459 98.8192 90.3717 98.9404C89.2501 99.3557 88.328 100.181 87.7917 101.25C86.9381 102.8 86.3819 104.496 86.1517 106.25L84.5417 115C84.4917 115.29 84.4417 115.52 84.0217 115.51C82.2117 115.44 80.4017 115.46 78.5117 115.46Z" fill="black"/>
<path d="M175.601 108.9C176.461 106.53 177.231 104.34 178.051 102.16C178.941 99.7803 179.871 97.4203 180.761 95.0503C180.797 94.8691 180.901 94.7083 181.052 94.6007C181.202 94.493 181.388 94.4465 181.571 94.4703C183.401 94.4703 185.231 94.4703 187.161 94.4703C186.781 95.2903 186.451 96.0303 186.101 96.7703C183.681 101.88 181.411 107.06 178.871 112.11C177.303 115.391 175.261 118.423 172.811 121.11C171.204 122.795 169.209 124.062 167.001 124.8C166.571 124.94 166.361 124.92 166.211 124.41C165.831 123.09 165.391 121.78 164.921 120.48C164.751 120 164.921 119.86 165.331 119.69C167.8 118.836 169.884 117.131 171.211 114.88C171.444 114.497 171.526 114.041 171.441 113.6C170.291 107.44 169.161 101.28 168.001 95.1303C167.891 94.5703 168.001 94.4103 168.591 94.4303C170.221 94.4303 171.861 94.4303 173.491 94.4303C173.941 94.4303 174.131 94.5003 174.181 95.0303C174.621 99.6203 175.101 104.16 175.601 108.9Z" fill="black"/>
<path d="M152.859 115.46L155.859 99.6897C155.999 98.9097 156.019 98.9097 155.189 98.9097H153.649C153.359 98.9097 153.269 98.8497 153.339 98.5297C153.599 97.2897 153.829 96.0397 154.049 94.7797C154.099 94.4997 154.219 94.4197 154.489 94.4197C155.069 94.4197 155.659 94.4197 156.229 94.4197C156.799 94.4197 156.919 94.2597 156.989 93.7897C157.183 92.4029 157.588 91.0539 158.189 89.7897C158.939 88.111 160.21 86.7183 161.812 85.8178C163.415 84.9173 165.266 84.5568 167.089 84.7897C167.766 84.8425 168.436 84.9631 169.089 85.1497C169.349 85.2297 169.419 85.3397 169.339 85.6297C168.989 86.9397 168.679 88.2597 168.339 89.5797C168.279 89.8397 168.149 89.8997 167.909 89.8297C167.72 89.772 167.526 89.7285 167.329 89.6997C166.433 89.492 165.491 89.6466 164.709 90.1298C163.926 90.6129 163.365 91.3855 163.149 92.2797C162.959 92.8197 162.869 93.3997 162.719 93.9597C162.629 94.3197 162.719 94.4197 163.119 94.4097C164.189 94.4097 165.259 94.4097 166.329 94.4097C166.649 94.4097 166.759 94.4697 166.689 94.8197C166.449 95.9997 166.249 97.1797 166.039 98.3697C165.979 98.7397 165.849 98.9297 165.409 98.9097C164.409 98.9097 163.409 98.9097 162.409 98.9097C161.989 98.9097 161.849 99.0397 161.769 99.4597C160.809 104.633 159.839 109.803 158.859 114.97C158.799 115.29 158.749 115.48 158.339 115.48C156.559 115.44 154.749 115.46 152.859 115.46Z" fill="black"/>
<path d="M68.1501 115.86C66.3274 115.855 64.5281 115.449 62.8801 114.67C62.4901 114.48 62.3701 114.31 62.5401 113.87C62.9501 112.81 63.3101 111.73 63.6501 110.65C63.7801 110.25 63.9201 110.21 64.2901 110.38C65.7452 111.126 67.3657 111.491 69.0001 111.44C69.4502 111.464 69.8966 111.346 70.2755 111.102C70.6544 110.858 70.9465 110.5 71.1101 110.08C71.2445 109.71 71.2669 109.309 71.1744 108.927C71.0819 108.544 70.8786 108.198 70.5901 107.93C70.0953 107.445 69.5328 107.034 68.9201 106.71C67.5458 105.993 66.3837 104.927 65.5501 103.62C64.9155 102.336 64.7511 100.871 65.0855 99.4787C65.4199 98.0865 66.2318 96.8555 67.3801 96.0001C69.1721 94.6283 71.3847 93.9214 73.6401 94.0001C75.124 93.9642 76.6019 94.2015 78.0001 94.7001C78.4601 94.8801 78.6701 95.0701 78.4501 95.6301C78.0501 96.6301 77.7401 97.7401 77.4501 98.8001C77.3401 99.1601 77.2101 99.2201 76.8601 99.0901C75.5253 98.5035 74.0492 98.3159 72.6101 98.5501C72.2093 98.5895 71.8297 98.749 71.521 99.0077C71.2123 99.2664 70.9889 99.6123 70.8801 100C70.7888 100.384 70.8254 100.787 70.9843 101.148C71.1431 101.509 71.4155 101.808 71.7601 102C72.6001 102.59 73.5101 103.08 74.3401 103.67C75.1099 104.119 75.7754 104.727 76.2926 105.453C76.8098 106.178 77.1668 107.006 77.3401 107.88C77.5098 109.298 77.2233 110.734 76.522 111.978C75.8207 113.222 74.7412 114.211 73.4401 114.8C71.774 115.531 69.9693 115.893 68.1501 115.86Z" fill="black"/>
<path d="M144.758 115.46C143.908 115.46 143.058 115.46 142.208 115.46C141.858 115.46 141.818 115.37 141.878 115.04C143.172 108.374 144.445 101.68 145.698 94.9605C145.768 94.5905 145.888 94.4805 146.248 94.4805H151.248C151.638 94.4805 151.728 94.5505 151.648 94.9605C150.702 99.8205 149.768 104.677 148.848 109.53C148.508 111.3 148.158 113.07 147.848 114.84C147.758 115.33 147.578 115.5 147.078 115.47C146.318 115.42 145.538 115.46 144.758 115.46Z" fill="black"/>
<path d="M150.12 85.5305C150.506 85.5121 150.893 85.5744 151.254 85.7134C151.615 85.8524 151.943 86.065 152.218 86.3377C152.493 86.6105 152.708 86.9374 152.849 87.2977C152.99 87.658 153.055 88.0437 153.04 88.4305C153.06 88.895 152.983 89.3586 152.813 89.7914C152.643 90.2243 152.385 90.6168 152.054 90.9436C151.723 91.2705 151.328 91.5245 150.893 91.6893C150.458 91.8541 149.994 91.9261 149.53 91.9005C149.147 91.9183 148.765 91.8549 148.408 91.7147C148.051 91.5744 147.728 91.3603 147.46 91.0865C147.192 90.8127 146.985 90.4853 146.852 90.1258C146.719 89.7664 146.664 89.3829 146.69 89.0005C146.675 88.5441 146.753 88.0895 146.919 87.6643C147.086 87.2391 147.337 86.8524 147.658 86.5277C147.979 86.2029 148.363 85.947 148.786 85.7756C149.21 85.6041 149.663 85.5207 150.12 85.5305Z" fill="black"/>
<path d="M26.3604 116.44C24.0162 116.469 21.7415 115.645 19.9604 114.12C19.7445 113.994 19.5837 113.792 19.5097 113.553C19.4357 113.314 19.4537 113.056 19.5604 112.83C19.9094 111.868 20.2033 110.886 20.4404 109.89C20.5704 109.41 20.7104 109.38 21.1004 109.66C21.9192 110.283 22.8213 110.788 23.7804 111.16C24.1984 111.311 24.6366 111.399 25.0804 111.42C25.3969 111.451 25.7161 111.403 26.0091 111.279C26.3021 111.156 26.5596 110.961 26.7582 110.713C26.9569 110.464 27.0904 110.17 27.1467 109.857C27.2029 109.544 27.1801 109.222 27.0804 108.92C26.9508 108.396 26.6731 107.921 26.2804 107.55C25.7104 107.02 25.1304 106.49 24.5204 106.01C21.5204 103.68 21.1504 100.68 22.4004 97.4303C23.7404 93.9403 26.5104 92.3302 30.0704 91.8502C31.6035 91.6442 33.1626 91.7565 34.6504 92.1803C35.2004 92.3303 35.4504 92.5303 35.2004 93.1803C34.6804 94.5303 34.2504 95.9203 33.8204 97.3003C33.6404 97.8803 33.4004 97.9703 32.8204 97.7303C31.5273 97.154 30.0846 97.0034 28.7004 97.3003C28.2579 97.3702 27.8478 97.5748 27.5257 97.8861C27.2036 98.1974 26.9853 98.6004 26.9004 99.0403C26.8361 99.4447 26.8976 99.8591 27.0764 100.228C27.2552 100.596 27.5429 100.901 27.9004 101.1C28.9004 101.88 29.9004 102.62 30.8304 103.42C33.6304 105.76 34.0104 108.99 32.8304 112.16C32.3664 113.482 31.483 114.615 30.3149 115.388C29.1468 116.161 27.7581 116.53 26.3604 116.44Z" fill="#FEFEFE"/>
<path d="M141.251 98.5897C141.092 97.4678 140.575 96.4272 139.777 95.6233C138.978 94.8195 137.941 94.2955 136.821 94.1297C133.901 93.6097 131.651 94.8097 129.821 96.9197C129.661 97.0997 129.571 97.3497 129.291 97.4397C129.391 96.5397 129.461 95.6497 129.571 94.7797C129.571 94.4297 129.511 94.3597 129.191 94.3597C127.741 94.3597 126.291 94.3597 124.841 94.3597C124.441 94.3597 124.351 94.4997 124.311 94.8497C123.811 99.2797 122.911 103.65 122.081 108.03C121.081 113.15 120.151 118.28 119.161 123.4C119.091 123.81 119.161 123.89 119.561 123.88C121.151 123.88 122.731 123.88 124.321 123.88C124.831 123.88 125.041 123.76 125.131 123.21C125.571 120.66 126.071 118.13 126.541 115.59C126.591 115.35 126.541 115.03 127.001 115.22C128.518 115.879 130.192 116.09 131.825 115.83C133.458 115.569 134.984 114.848 136.221 113.75C140.911 109.79 142.381 104.54 141.251 98.5897ZM133.461 109C133.039 109.686 132.485 110.281 131.831 110.75C131.25 111.169 130.556 111.399 129.84 111.41C129.125 111.42 128.423 111.211 127.831 110.81C127.641 110.68 127.451 110.59 127.521 110.29C128.041 107.93 128.221 105.49 128.961 103.17C129.299 102.059 129.876 101.035 130.651 100.17C130.941 99.8501 131.278 99.5769 131.651 99.3597C131.985 99.0985 132.384 98.9335 132.805 98.8825C133.226 98.8316 133.653 98.8965 134.04 99.0705C134.427 99.2444 134.759 99.5206 135.001 99.8694C135.242 100.218 135.384 100.626 135.411 101.05C135.491 101.47 135.501 101.89 135.531 102.2C135.449 104.609 134.735 106.954 133.461 109Z" fill="black"/>
<path d="M120.369 101C120.264 99.3446 119.605 97.7732 118.499 96.538C117.392 95.3028 115.903 94.4757 114.269 94.1895C112.618 93.8635 110.912 93.9424 109.297 94.4196C107.683 94.8967 106.208 95.758 104.999 96.9295C103.397 98.4352 102.171 100.297 101.423 102.365C100.674 104.432 100.423 106.647 100.689 108.83C100.754 110.486 101.385 112.069 102.477 113.316C103.569 114.563 105.056 115.397 106.689 115.68C108.446 116.054 110.269 115.968 111.983 115.43C113.696 114.892 115.242 113.921 116.469 112.61C119.109 109.93 120.199 106.61 120.419 102.61C120.439 102.072 120.422 101.534 120.369 101ZM114.369 102.49C114.3 104.732 113.726 106.93 112.689 108.92C112.28 109.736 111.658 110.427 110.889 110.92C110.567 111.134 110.201 111.274 109.818 111.328C109.435 111.382 109.045 111.349 108.676 111.232C108.307 111.115 107.97 110.917 107.688 110.651C107.406 110.386 107.188 110.061 107.049 109.7C106.588 108.417 106.498 107.031 106.789 105.7C106.998 103.97 107.559 102.303 108.439 100.8C108.74 100.273 109.125 99.8003 109.579 99.3995C109.969 99.0227 110.458 98.7637 110.988 98.6522C111.519 98.5408 112.071 98.5814 112.579 98.7695C113.053 98.975 113.46 99.3083 113.755 99.7323C114.05 100.156 114.221 100.654 114.249 101.17C114.357 101.594 114.407 102.031 114.399 102.47L114.369 102.49Z" fill="black"/>
</svg>
