<svg width="200" height="200" viewBox="0 0 200 200" fill="none" xmlns="http://www.w3.org/2000/svg">
<path d="M100.048 35.7998C108.888 35.7998 117.735 35.7998 126.588 35.7998C133.438 35.7998 138.468 38.8598 141.848 44.7998C150.628 60.1331 159.405 75.4665 168.178 90.7998C171.638 96.7998 171.758 102.8 168.288 108.86C159.508 124.193 150.745 139.543 141.998 154.91C138.468 161.12 133.168 164.19 126.088 164.2C108.755 164.2 91.4382 164.2 74.1382 164.2C66.9082 164.2 61.5182 161.2 57.9182 154.8C49.2515 139.52 40.5448 124.28 31.7982 109.08C28.2482 102.9 28.3182 96.8398 31.8482 90.6798C40.6482 75.3465 49.4248 60.0131 58.1782 44.6798C59.6283 41.8997 61.8402 39.59 64.555 38.021C67.2698 36.4519 70.3753 35.6884 73.5082 35.8198C82.3482 35.8198 91.1982 35.7998 100.048 35.7998Z" fill="#6DB23F"/>
<path d="M99.6405 126.46C105.537 126.475 111.297 124.681 116.141 121.319C120.986 117.957 124.682 113.19 126.73 107.66C128.768 102.065 129.065 95.9844 127.581 90.2176C126.098 84.4508 122.905 79.2678 118.42 75.3501C117.85 74.8701 117.24 74.4301 116.7 73.9201C114.42 71.7501 114.1 68.6501 116.06 66.6101C118.21 64.3601 120.68 64.2901 123.06 66.1601C127.248 69.3218 130.75 73.3008 133.354 77.856C135.958 82.4111 137.61 87.4476 138.211 92.6601C141.021 113.75 125.77 134.3 102.72 136.66C82.7805 138.66 62.5805 121.86 61.0605 101.66C60.0005 87.3301 64.8405 75.5401 76.0005 66.4101C78.4805 64.4101 81.0505 64.3301 83.3105 66.7401C85.1805 68.7401 84.7705 71.8701 82.5005 74.0401C81.5005 74.9901 80.5005 75.8501 79.5005 76.8201C74.0639 82.2419 70.9877 89.5908 70.9408 97.2687C70.894 104.947 73.8804 112.332 79.2505 117.82C81.8791 120.576 85.0444 122.765 88.5512 124.251C92.058 125.737 95.832 126.489 99.6405 126.46Z" fill="#FEFEFE"/>
<path d="M105.301 80.1096C105.301 85.5896 105.301 91.1096 105.301 96.5396C105.301 100.54 103.081 103.11 99.8011 103.16C96.5211 103.21 94.0611 100.63 94.0411 96.7196C93.9811 85.653 93.9811 74.5796 94.0411 63.4996C94.0411 59.6796 96.6011 56.9596 99.8111 57.0296C103.021 57.0996 105.271 59.6896 105.301 63.6896C105.331 69.1596 105.301 74.6396 105.301 80.1096Z" fill="#FEFEFE"/>
</svg>
