<svg width="200" height="200" viewBox="0 0 200 200" fill="none" xmlns="http://www.w3.org/2000/svg">
<path d="M101.151 173.16H99.1505C98.1505 172.64 97.1505 173.04 96.1505 172.91H93.5005C81.6105 173.23 71.0405 169.06 61.2405 162.91C43.6305 151.91 32.4705 136.06 28.0105 115.74C26.4705 108.74 26.8005 101.57 27.0105 94.4504C27.0659 89.7556 27.6905 85.0849 28.8705 80.5405C32.2197 68.2686 38.7137 57.0834 47.7105 48.0905C57.8619 37.6632 70.9685 30.602 85.2605 27.8605C92.0005 26.5805 99.0005 26.7705 105.841 27.0005C110.534 27.0624 115.204 27.6835 119.751 28.8505C132.023 32.2095 143.217 38.6899 152.241 47.6604C161.99 57.2113 168.84 69.3238 172.001 82.6004C172.76 86.1651 173.095 89.807 173.001 93.4504V96.1605C173.131 97.1605 172.731 98.2205 173.251 99.1605V101.1C172.731 102.1 173.131 103.1 173.001 104.1V106.77C173.241 120.43 168.001 132.26 160.321 143.07C150.231 157.33 136.501 166.66 119.681 171.44C115.511 172.45 111.23 172.931 106.941 172.87H104.251C103.171 173 102.121 172.64 101.151 173.16Z" fill="#1A2343"/>
<path d="M172.751 93.27C172.897 93.249 173.046 93.2809 173.171 93.36V96.28C172.991 96.59 172.831 96.58 172.711 96.28L172.751 93.27Z" fill="#60667C"/>
<path d="M172.709 96.2402C172.862 96.2555 173.016 96.2555 173.169 96.2402V99.2002C172.379 98.3102 172.749 97.2402 172.709 96.2402Z" fill="#2E3653"/>
<path d="M172.709 104.1C172.709 103.1 172.379 102.03 173.169 101.1V104.02C172.999 104.33 172.879 104.32 172.709 104.1Z" fill="#2E3653"/>
<path d="M172.711 104.1C172.864 104.085 173.018 104.085 173.171 104.1V107C173.047 107.08 172.896 107.109 172.751 107.08C172.731 106.08 172.721 105.09 172.711 104.1Z" fill="#60667C"/>
<path d="M93.3613 173.16C93.3804 173.015 93.3524 172.868 93.2812 172.74H96.2812C96.6112 172.87 96.6212 173.02 96.2812 173.2L93.3613 173.16Z" fill="#60667C"/>
<path d="M96.2812 173.16C96.3015 173.008 96.3015 172.853 96.2812 172.7C97.2812 172.7 98.3512 172.37 99.2812 173.16H96.2812Z" fill="#2E3653"/>
<path d="M101.148 173.16C102.028 172.37 103.098 172.75 104.098 172.7C104.268 172.81 104.318 172.92 104.258 173.02C104.198 173.12 104.128 173.16 104.068 173.16H101.148Z" fill="#2E3653"/>
<path d="M104.07 173.16C104.05 173.008 104.05 172.853 104.07 172.7H107.07C106.999 172.828 106.971 172.975 106.99 173.12L104.07 173.16Z" fill="#60667C"/>
<path d="M135.84 97.1399C135.39 108.83 129.35 119.6 116.97 126.14C104.42 132.73 91.9702 131.65 80.2202 123.7C78.7602 122.7 78.1302 123.02 77.0702 124.1C71.0702 130.16 65.0702 136.15 59.0702 142.17C58.5502 142.68 58.0702 143.23 57.5002 143.69C55.8702 144.99 54.1802 145.03 52.6902 143.55C52.3439 143.259 52.064 142.897 51.8696 142.489C51.6751 142.081 51.5705 141.635 51.5629 141.183C51.5554 140.731 51.6449 140.282 51.8256 139.868C52.0063 139.453 52.2738 139.082 52.6102 138.78C54.3602 136.86 56.2502 135.08 58.0802 133.24C62.6602 128.66 67.2002 124.02 71.8702 119.52C73.2202 118.22 73.4302 117.42 72.2302 115.79C57.0002 95.1899 68.2702 65.6799 93.3302 60.3699C115.14 55.7499 135.79 72.5199 135.84 97.1399Z" fill="#50E2C1"/>
<path d="M131.061 95.0604C131.031 101.095 129.215 106.985 125.841 111.989C122.468 116.992 117.688 120.885 112.105 123.175C106.522 125.465 100.386 126.05 94.4702 124.857C88.5548 123.664 83.1253 120.746 78.8666 116.47C74.6079 112.195 71.7108 106.754 70.5407 100.834C69.3707 94.9138 69.9801 88.7798 72.2921 83.2058C74.6041 77.6317 78.5151 72.8672 83.5318 69.5133C88.5485 66.1594 94.4461 64.3664 100.481 64.3604C104.508 64.3564 108.496 65.1486 112.216 66.6915C115.935 68.2344 119.313 70.4974 122.155 73.3506C124.997 76.2037 127.247 79.5906 128.775 83.3164C130.304 87.0422 131.08 91.0334 131.061 95.0604Z" fill="#1A2343"/>
<path d="M85.0007 95.11C87.8307 96.83 88.4407 99.39 88.1707 102.32C88.1107 102.97 88.0507 103.62 88.0407 104.32C87.9807 107.64 89.0407 108.94 92.2907 109.26C93.2907 109.36 93.8707 109.45 93.8807 110.72C93.8807 112.15 93.0807 111.99 92.1607 111.99C87.7807 111.99 85.2907 109.48 85.1607 105.05C85.1607 103.35 85.5807 101.67 85.2707 99.96C84.9607 98.25 84.1707 96.96 82.2707 96.71C81.2707 96.61 80.6507 96.39 80.6807 95.12C80.7107 93.85 81.3107 93.96 82.1507 93.77C84.6307 93.2 85.5107 91.85 85.4207 88.88C85.2257 87.1922 85.2257 85.4877 85.4207 83.8C85.6948 82.1019 86.62 80.5775 87.9998 79.5506C89.3797 78.5236 91.1055 78.075 92.8107 78.3C93.9207 78.4 93.8807 78.95 93.8907 79.72C93.9007 80.49 93.7807 80.98 92.7507 81.13C88.6007 81.73 87.8707 82.74 88.1407 87.13C88.4207 91.71 88.1007 92.61 85.0007 95.11Z" fill="#FDFDFD"/>
<path d="M116.732 95.2402C113.872 93.4502 113.252 90.9002 113.482 88.0102C113.482 87.2802 113.652 86.5502 113.662 85.8302C113.662 82.6902 112.542 81.3502 109.442 81.1702C108.362 81.1102 107.852 80.9402 107.852 79.7002C107.852 78.4602 108.452 78.2902 109.502 78.3002C113.692 78.3702 116.312 80.8502 116.502 85.0702C116.502 86.5202 116.322 87.9902 116.352 89.4402C116.402 91.7802 117.262 93.6002 119.902 93.8102C120.902 93.8902 121.052 94.3502 121.072 95.1902C121.092 96.0302 120.732 96.5102 119.842 96.5902C117.012 96.8702 116.342 98.8402 116.342 101.24C116.342 103.18 116.672 105.12 116.282 107.06C115.881 108.688 114.875 110.102 113.469 111.014C112.062 111.926 110.361 112.268 108.712 111.97C107.892 111.79 107.892 111.33 107.932 110.76C107.972 110.19 107.682 109.58 108.712 109.33C113.652 108.16 113.952 107.7 113.522 102.64C113.232 99.6302 113.832 97.0002 116.732 95.2402Z" fill="#FDFDFD"/>
</svg>
