<svg width="200" height="200" viewBox="0 0 200 200" fill="none" xmlns="http://www.w3.org/2000/svg">
<path d="M22.25 109.33V107.39C22.55 107.12 22.48 106.76 22.5 106.39C22.52 106.02 22.55 105.69 22.25 105.39V103C22.6501 101.08 22.6501 99.0992 22.25 97.1798V94.7798C22.55 94.5098 22.48 94.1498 22.5 93.7798C22.52 93.4098 22.55 93.0898 22.25 92.7798V90.9098C22.9 89.4598 22.72 87.9098 22.83 86.3998C23.54 76.7298 27.26 68.0998 32.15 59.9498C41.6259 43.8472 56.5475 31.6637 74.22 25.5998C79.8513 23.6957 85.7374 22.6506 91.68 22.4998C98.9809 22.1462 106.297 22.2832 113.58 22.9098C121.94 23.6598 129.58 26.7998 136.88 30.6098C143.979 34.3286 150.434 39.1635 156 44.9298C165.679 54.7727 172.606 66.9824 176.09 80.3398C177.32 85.0598 177.37 89.9198 177.57 94.7298C178.018 101.953 177.733 109.204 176.72 116.37C175.209 124.987 172.018 133.223 167.33 140.61C157.809 156.482 143.025 168.513 125.55 174.61C120.32 176.5 114.91 177.05 109.45 177.44C109.131 177.404 108.809 177.49 108.55 177.68H107.09C106.79 177.36 106.39 177.46 106.02 177.44C105.65 177.42 105.02 177.3 104.67 177.68H102.24C100.484 177.3 98.6663 177.3 96.91 177.68H95C94.6 177.3 94.1 177.49 93.65 177.44C93.2 177.39 92.88 177.36 92.58 177.68H90.61C89.17 177.04 87.61 177.21 86.11 177.1C76.37 176.39 67.69 172.62 59.48 167.68C43.11 157.84 31.81 143.8 25.35 125.83C23.7854 121.51 22.9048 116.972 22.74 112.38C22.7482 111.343 22.5826 110.312 22.25 109.33Z" fill="#7433FE"/>
<path d="M22.25 97.21C22.9998 99.0775 22.9998 101.162 22.25 103.03V97.21Z" fill="#7C3EF8"/>
<path d="M96.9102 177.68C97.7516 177.316 98.6585 177.129 99.5751 177.129C100.492 177.129 101.399 177.316 102.24 177.68H96.9102Z" fill="#7D40F8"/>
<path d="M93.4916 177.26C93.7535 177.195 94.0281 177.199 94.2878 177.272C94.5476 177.346 94.7834 177.487 94.9716 177.68H93.5216C93.175 177.574 93.165 177.434 93.4916 177.26Z" fill="#AB84FC"/>
<path d="M104.672 177.68C104.86 177.487 105.096 177.346 105.356 177.272C105.615 177.199 105.89 177.195 106.152 177.26C106.492 177.434 106.492 177.574 106.152 177.68H104.672Z" fill="#AB84FC"/>
<path d="M22.25 92.8496C22.73 93.0096 22.69 93.3996 22.66 93.7896C22.63 94.1796 22.41 94.1496 22.25 93.7896V92.8496Z" fill="#C4A8FE"/>
<path d="M22.25 93.81C22.3863 93.7951 22.5237 93.7951 22.66 93.81C22.6946 93.9985 22.6744 94.1929 22.6017 94.3702C22.529 94.5475 22.407 94.7001 22.25 94.81V93.81Z" fill="#AF8AFC"/>
<path d="M22.25 105.45C22.407 105.56 22.529 105.713 22.6017 105.89C22.6744 106.067 22.6946 106.262 22.66 106.45C22.5 106.8 22.37 106.79 22.25 106.45V105.45Z" fill="#AF8AFC"/>
<path d="M22.25 106.42C22.3863 106.435 22.5237 106.435 22.66 106.42C22.66 106.81 22.73 107.2 22.25 107.42V106.42Z" fill="#C4A8FE"/>
<path d="M93.4883 177.26C93.4883 177.4 93.4883 177.54 93.4883 177.68H92.4883C92.7083 177.21 93.0983 177.24 93.4883 177.26Z" fill="#C4A8FE"/>
<path d="M106.121 177.68C106.121 177.54 106.121 177.4 106.121 177.26C106.511 177.26 106.901 177.26 107.061 177.68H106.121Z" fill="#C4A8FE"/>
<path d="M122.998 62.1996C122.428 63.0296 121.548 62.7797 120.778 62.8297C111.73 63.3419 103.182 67.1513 96.7519 73.5377C90.3213 79.924 86.4531 88.4449 85.8784 97.4896C85.7484 99.4196 85.2684 100.29 83.2384 99.9996C82.2726 99.9396 81.3041 99.9396 80.3384 99.9996C76.0084 99.9096 76.1984 100.84 76.5184 95.9996C78.0684 72.9296 98.5184 53.6196 121.518 53.3896C121.995 53.4209 122.468 53.5013 122.928 53.6297C123.494 56.4561 123.518 59.3643 122.998 62.1996Z" fill="#FEFEFE"/>
<path d="M79.0013 136.94C89.4313 136.43 97.8813 131.86 104.631 124.08C109.985 117.937 113.07 110.143 113.371 102C113.451 100.36 114.001 99.9197 115.521 99.9997C117.296 100.11 119.076 100.11 120.851 99.9997C122.421 99.8997 122.931 100.39 122.851 102C122.141 125.52 102.311 145.56 78.7013 146.59C76.9513 146.66 76.2013 146.32 76.3113 144.4C76.4513 142.07 76.3113 139.73 76.3113 137.4C77.0013 136.21 78.0013 136.74 79.0013 136.94Z" fill="#FEFEFE"/>
<path d="M121.998 99.5103H114.398V99.2803H122.088L121.998 99.5103Z" fill="#6E2AFE"/>
<path d="M76.1789 137.37V145.7H75.5789C75.8189 142.8 75.0489 139.88 76.0689 137.01C76.1989 137.06 76.2589 137.14 76.2489 137.23C76.2389 137.32 76.2089 137.37 76.1789 137.37Z" fill="#6E2AFE"/>
<path d="M123 62.2004V53.6104C123.94 56.3966 123.94 59.4141 123 62.2004Z" fill="#6F2CFE"/>
<path d="M76.1803 137.37C76.1332 137.25 76.0964 137.127 76.0703 137C76.4823 136.678 76.9875 136.499 77.5103 136.488C78.0331 136.477 78.5453 136.636 78.9703 136.94L76.2903 137.43L76.1803 137.37Z" fill="#6C28FE"/>
</svg>
