<svg width="200" height="200" viewBox="0 0 200 200" fill="none" xmlns="http://www.w3.org/2000/svg">
<path d="M125.83 75.11L162.67 54C163.82 53.36 164.21 54.15 164.39 55C164.537 56.0399 164.574 57.0923 164.5 58.14C164.5 71.69 164.5 85.24 164.5 98.79C156.09 104.32 147.14 108.93 138.5 114.05C134.63 116.34 130.64 118.42 126.71 120.59C124.15 121.16 124.95 119.16 124.95 118.08C124.89 106.3 124.95 94.52 124.95 82.73C124.95 81.16 124.95 79.58 124.95 78C124.889 77.4836 124.935 76.96 125.086 76.4624C125.238 75.9649 125.491 75.5043 125.83 75.11Z" fill="#4040B1"/>
<path d="M37.1819 28.5501C38.8919 28.0201 39.9419 29.3701 41.1819 30.0601C48.9619 34.4501 56.6819 38.9401 64.4219 43.4001C67.2686 45.0535 70.1219 46.6968 72.9819 48.3301C73.6921 48.6447 74.2953 49.1593 74.718 49.811C75.1406 50.4627 75.3644 51.2234 75.3619 52.0001C75.3619 66.3701 75.3619 80.7401 75.3619 95.1101C75.3619 95.2801 75.1619 95.4401 74.8719 95.8901L36.4419 73.5301C35.877 72.5068 35.6595 71.3277 35.8219 70.1701C35.8219 57.4001 35.8219 44.6301 35.8219 31.8601C35.8619 30.7001 35.0019 28.9401 37.1819 28.5501Z" fill="#5C4EE4"/>
<path d="M81.4192 53.4902C88.2792 57.3702 95.0192 61.4902 101.859 65.3602C106.529 68.0302 111.209 70.7102 115.959 73.2702C117.062 73.8169 118.048 74.5745 118.859 75.5002C120.019 76.1402 119.799 77.2702 119.799 78.3002C119.799 91.6336 119.799 104.967 119.799 118.3C119.799 119.3 120.069 120.46 118.869 121.09C106.043 114.03 93.3392 106.727 80.7592 99.1802C80.2492 96.9002 80.5392 94.5802 80.5292 92.2702C80.5292 80.4836 80.5292 68.6936 80.5292 56.9002C80.5492 55.7402 79.9292 54.3102 81.4192 53.4902Z" fill="#5C4EE4"/>
<path d="M117.999 172C108.212 166.46 98.4257 160.913 88.639 155.36C85.989 153.85 83.399 152.25 80.779 150.69C80.279 148.3 80.569 145.87 80.559 143.47C80.559 131.69 80.559 119.91 80.559 108.13C80.559 106.99 80.269 105.81 80.849 104.72C88.999 109.18 96.929 114 104.999 118.61C109.839 121.4 114.659 124.22 119.529 126.98C119.816 127.544 119.918 128.184 119.819 128.81C119.819 142.47 119.819 156.136 119.819 169.81C119.779 170.92 120.299 172.7 117.999 172Z" fill="#5C4EE4"/>
<path d="M37.1816 28.5496C35.9716 29.5496 36.4716 30.8996 36.4716 32.0896C36.4716 45.8996 36.4716 59.7196 36.4716 73.5296C35.0016 73.2196 35.1616 72.0996 35.1616 70.9996C35.1616 56.9196 35.1616 42.8396 35.1616 28.7596C35.1616 28.1896 34.8016 27.2696 35.5116 27.0996C36.4216 26.9296 37.0616 27.5696 37.1816 28.5496Z" fill="#594BE4"/>
<path d="M164.481 98.8C163.671 97.67 163.881 96.38 163.881 95.12C163.881 82.45 163.881 69.77 163.881 57.12C163.881 56.02 164.641 54.45 162.711 54C163.521 53.76 164.901 51.33 164.911 54.39C164.981 68.93 164.911 83.4799 164.911 98.0199C164.881 98.2699 164.621 98.53 164.481 98.8Z" fill="#3737AF"/>
<path d="M125.828 75.1104C125.398 76.4 125.178 77.7507 125.178 79.1104C125.178 91.8604 125.178 104.6 125.178 117.34C125.178 118.57 124.518 120.25 126.638 120.59C125.378 121.83 124.488 122.39 124.488 119.81C124.488 105.73 124.488 91.6504 124.488 77.5804C124.558 76.5304 124.398 75.4204 125.828 75.1104Z" fill="#3838B0"/>
<path d="M118 172C120.13 171.7 119.5 170 119.5 168.78C119.5 154.86 119.5 140.94 119.5 127.02C120.5 127.53 120.1 128.49 120.1 129.25C120.1 143.05 120.1 156.846 120.1 170.64C120.13 172.19 120.29 174.06 118 172Z" fill="#503FE3"/>
<path d="M118.869 121.12C119.401 120.084 119.62 118.917 119.499 117.76C119.499 104.8 119.499 91.8329 119.499 78.8595C119.601 77.7019 119.379 76.5387 118.859 75.4995C120.489 75.1895 120.119 76.4095 120.119 77.2295C120.119 91.2295 120.119 105.23 120.119 119.23C120.109 120.07 120.589 121.39 118.869 121.12Z" fill="#503FE3"/>
<path d="M81.4199 53.4898C80.5699 54.7198 80.8299 56.1298 80.8299 57.4898C80.8299 71.3898 80.8065 85.2898 80.7599 99.1898C79.6899 98.5898 79.9999 97.5498 79.9899 96.6398C79.9899 82.8198 79.9899 68.9998 80.0499 55.1798C80.0499 54.6298 78.6999 52.1298 81.4199 53.4898Z" fill="#5344E3"/>
<path d="M80.8211 104.68C80.8211 120.013 80.7977 135.347 80.7511 150.68C79.7511 150.06 79.9911 149.03 79.9911 148.12C79.9911 134.213 79.9911 120.307 79.9911 106.4C79.9911 105.8 79.7611 105.14 80.2911 104.62C80.3305 104.603 80.373 104.594 80.4161 104.594C80.4591 104.594 80.5017 104.603 80.5411 104.62C80.6368 104.627 80.7311 104.647 80.8211 104.68Z" fill="#5344E3"/>
</svg>
