<svg width="200" height="200" viewBox="0 0 200 200" fill="none" xmlns="http://www.w3.org/2000/svg">
<path d="M192 20.4403C190.76 22.2803 189.74 24.2503 188.63 26.1603L122.73 140.29C115.303 153.15 107.877 166.017 100.45 178.89C100.31 179.12 100.16 179.36 99.95 179.72L8 20.3203H45C46.09 21.9503 47 23.6903 48 25.3903L57.47 41.7803L67.47 59.1103C70.75 64.7903 74.03 70.457 77.31 76.1103C80.89 82.437 84.4933 88.7336 88.12 95.0003C91.9333 101.6 95.74 108.194 99.54 114.78C99.67 114.99 99.72 115.33 100 115.33C100.28 115.33 100.34 114.99 100.47 114.78C104.003 108.647 107.54 102.52 111.08 96.4003L123.57 74.7503C127.05 68.717 130.527 62.6836 134 56.6503C138 49.7436 142 42.8403 146 35.9403C148.89 30.9403 151.81 25.9403 154.69 20.8703C154.791 20.6629 154.93 20.4763 155.1 20.3203H191.3H192.06L192 20.4403Z" fill="#41B782"/>
<path d="M155.082 20.3198C154.565 21.567 153.925 22.7595 153.172 23.8798C148.699 31.6598 144.209 39.4365 139.702 47.2098L120.142 81.0798C113.589 92.4132 107.032 103.77 100.472 115.15C100.352 115.37 100.202 115.72 100.042 115.74C99.8819 115.76 99.6619 115.38 99.5319 115.15C92.6919 103.33 85.8485 91.5132 79.0019 79.6998C73.2085 69.6198 67.4085 59.5398 61.6019 49.4598C56.1352 39.9798 50.6585 30.4932 45.1719 20.9998C45.0158 20.7954 44.9283 20.5469 44.9219 20.2898H63.4819C68.3119 20.2898 73.1419 20.2898 77.9819 20.2898C78.2268 20.2705 78.4716 20.3273 78.6829 20.4527C78.8942 20.578 79.0615 20.7656 79.1619 20.9898C85.9419 32.7632 92.7319 44.5298 99.5319 56.2898L99.9319 56.9698C100.252 56.8598 100.312 56.5598 100.442 56.3398C107.255 44.5465 114.059 32.7665 120.852 20.9998C120.948 20.7727 121.114 20.5828 121.327 20.4584C121.54 20.334 121.787 20.2819 122.032 20.3098C132.792 20.3098 143.555 20.3098 154.322 20.3098L155.082 20.3198Z" fill="#34495E"/>
</svg>
