<svg width="200" height="200" viewBox="0 0 200 200" fill="none" xmlns="http://www.w3.org/2000/svg">
<path d="M54.5719 116.52C51.6319 114.88 49.0219 113.46 46.4419 111.97C45.3603 111.336 44.1248 111.015 42.8719 111.04C36.6419 111.1 30.4019 111.04 24.1719 111.04C20.3019 111.04 18.1719 108.93 18.1719 105.04V89.1695C18.1719 85.7195 20.3319 83.4995 23.7419 83.4895H68.3919C69.0643 83.4696 69.7341 83.5836 70.362 83.8251C70.9899 84.0666 71.5635 84.4306 72.0494 84.8959C72.5352 85.3613 72.9236 85.9187 73.1918 86.5357C73.4601 87.1527 73.6029 87.8168 73.6119 88.4895C73.6919 94.2795 73.6819 100.08 73.6119 105.88C73.6242 106.582 73.4912 107.279 73.2211 107.927C72.9511 108.575 72.5499 109.16 72.0427 109.646C71.5355 110.131 70.9334 110.507 70.2741 110.748C69.6148 110.99 68.9127 111.092 68.2119 111.05C63.4019 111.05 58.5919 111.05 53.7719 111.05C52.5519 111.05 52.3719 111.33 52.8919 112.4C53.4119 113.47 53.9219 114.9 54.5719 116.52Z" fill="#9A5C8E"/>
<path d="M107.181 95.2904C106.901 98.1104 106.541 100.93 106.361 103.76C106.281 105.01 105.791 105.25 104.651 105.21C102.231 105.12 102.221 105.21 102.501 102.86C102.971 99.0204 103.501 95.1804 103.901 91.3204C104.041 90.0504 104.471 89.6404 105.811 89.6804C109.411 89.7904 109.421 89.6804 110.201 93.1704C110.521 94.6004 110.821 96.0304 111.201 97.7804C111.761 95.3204 112.281 93.1904 112.701 91.0504C112.891 90.1104 113.171 89.6804 114.271 89.6804C118.481 89.6804 118.471 89.6804 119.021 93.8404C119.521 97.5704 120.021 101.3 120.541 105.04C120.372 105.097 120.198 105.14 120.021 105.17C116.301 105.37 116.321 105.36 116.021 101.63C115.852 99.5452 115.562 97.4717 115.151 95.4204C114.471 98.1904 113.751 100.96 113.151 103.75C112.931 104.75 112.681 105.24 111.501 105.23C110.321 105.22 109.781 104.89 109.501 103.71C108.881 100.9 108.121 98.1204 107.421 95.3304L107.181 95.2904Z" fill="#010101"/>
<path d="M125.928 96.1098C125.678 98.6498 125.368 101.19 125.198 103.73C125.128 104.83 124.818 105.23 123.658 105.21C121.008 105.21 120.988 105.21 121.308 102.7C121.818 98.6998 122.398 94.7998 122.838 90.8298C122.948 89.8298 123.288 89.7098 124.148 89.6998C128.348 89.6198 128.348 89.5998 129.148 93.6398C129.398 94.8998 129.658 96.1598 130.008 97.8298C130.568 95.3298 131.058 93.2098 131.498 91.0898C131.698 90.0898 132.018 89.5598 133.188 89.6898C134.358 89.8198 136.118 89.2998 137.018 89.9198C137.918 90.5398 137.588 92.3198 137.768 93.5998C138.278 97.1098 138.768 100.6 139.258 104.14C139.368 104.89 139.258 105.14 138.368 105.2C135.298 105.32 135.268 105.37 134.878 102.31C134.666 100.073 134.332 97.85 133.878 95.6498C133.188 98.4398 132.418 101.22 131.878 104.03C131.648 105.19 131.038 105.19 130.168 105.2C129.298 105.21 128.668 105.2 128.428 104.04C127.858 101.35 127.088 98.7098 126.428 96.0398L125.928 96.1098Z" fill="#010101"/>
<path d="M173.11 97.3004C173.11 95.1704 173.11 93.0404 173.11 90.9104C173.11 90.0404 173.26 89.6604 174.25 89.6904C176.32 89.7704 178.4 89.7804 180.48 89.6904C182.18 89.6204 181.48 90.8304 181.6 91.6004C181.72 92.3704 181.7 93.2604 180.4 93.0704C179.76 92.9704 179.09 93.0704 178.4 93.0704C177.71 93.0704 177.32 93.2004 177.23 94.0704C177.07 95.6104 177.67 95.9304 179.04 95.7904C179.99 95.7004 181.04 95.3904 181.04 97.1804C181.04 98.9704 180.37 99.1804 178.96 98.9904C177.55 98.8004 177.17 99.2304 177.24 100.63C177.3 101.63 177.62 101.99 178.58 101.86C178.913 101.84 179.247 101.84 179.58 101.86C181.58 101.86 182.1 102.53 181.64 104.6C181.52 105.13 181.24 105.17 180.84 105.17C178.54 105.17 176.24 105.17 173.95 105.17C173.14 105.17 173.09 104.79 173.09 104.17C173.12 101.89 173.11 99.6004 173.11 97.3004Z" fill="#010101"/>
<path d="M140.5 97.3703C140.5 95.2403 140.5 93.1103 140.5 90.9703C140.5 90.1003 140.62 89.7003 141.63 89.7403C143.71 89.8303 145.79 89.8403 147.87 89.7403C149.5 89.6603 148.87 90.8003 148.87 91.5003C148.87 92.2003 149.25 93.2803 147.81 93.0803C147.32 93.0103 146.81 93.1503 146.33 93.0803C144.71 92.7403 144.57 93.6303 144.64 94.9003C144.64 95.6303 144.9 95.9003 145.64 95.8303C145.97 95.8303 146.3 95.8303 146.64 95.8303C146.989 95.7893 147.342 95.8479 147.659 95.9993C147.976 96.1507 148.243 96.3888 148.431 96.6858C148.618 96.9829 148.717 97.327 148.717 97.6782C148.717 98.0294 148.617 98.3733 148.43 98.6703C147.99 99.5603 147.06 98.9903 146.36 99.0703C145.66 99.1503 144.65 98.8503 144.67 100.31C144.67 101.6 145.02 102.13 146.32 101.92C146.593 101.895 146.867 101.895 147.14 101.92C147.498 101.881 147.86 101.943 148.185 102.099C148.51 102.254 148.784 102.498 148.978 102.802C149.172 103.106 149.276 103.458 149.28 103.818C149.284 104.178 149.187 104.532 149 104.84C148.79 105.34 148.4 105.23 148.05 105.23C145.91 105.23 143.78 105.18 141.65 105.23C140.65 105.23 140.5 104.81 140.52 103.97C140.53 101.75 140.5 99.5603 140.5 97.3703Z" fill="black"/>
<path d="M169.529 89.3203C171.889 89.3203 172.779 90.5703 172.039 92.7803C171.799 93.5003 171.339 93.1003 170.979 93.0703C167.219 92.7803 165.149 95.3003 166.199 98.9403C166.289 99.4126 166.475 99.8614 166.745 100.259C167.015 100.657 167.363 100.996 167.769 101.254C168.174 101.513 168.628 101.685 169.103 101.762C169.577 101.839 170.063 101.818 170.529 101.7C171.779 101.48 171.989 101.84 171.949 102.98C171.889 105.48 171.879 105.55 169.469 105.54C164.729 105.54 161.469 102.19 161.469 97.2803C161.469 92.3703 164.719 89.3103 169.529 89.3203Z" fill="#010101"/>
<path d="M87.3787 91.1496C87.7587 92.8796 87.3787 93.3796 85.8187 93.0596C85.0904 92.8826 84.3231 92.9668 83.6506 93.2976C82.9781 93.6283 82.443 94.1847 82.1387 94.8696C81.6663 95.6771 81.4299 96.6009 81.4564 97.536C81.4829 98.4712 81.7713 99.3801 82.2887 100.16C82.666 100.805 83.247 101.306 83.9403 101.585C84.6336 101.863 85.3999 101.904 86.1187 101.7C87.4087 101.39 87.5387 101.89 87.5087 102.98C87.4587 105.52 87.4387 105.62 84.8887 105.54C81.7587 105.45 79.2587 104.19 77.8887 101.27C77.1294 99.8604 76.7916 98.2625 76.9157 96.6667C77.0399 95.0708 77.6206 93.5443 78.5887 92.2696C80.5887 89.5696 83.4487 88.9896 86.5887 89.3896C88.1687 89.6096 87.1787 90.7996 87.3787 91.1496Z" fill="#010101"/>
<path d="M32.6515 98.0701C31.3815 100.61 30.3315 102.76 29.2115 104.88C28.7669 105.754 28.2305 106.579 27.6115 107.34C26.2115 108.99 25.1915 108.84 24.4115 106.83C23.2208 103.432 22.3503 99.9302 21.8115 96.3701C21.4115 94.2301 21.1015 92.0701 20.8115 89.9201C20.6215 88.6801 20.9415 87.7201 22.3615 87.5201C23.7815 87.3201 24.2915 88.0301 24.5115 89.3401C25.0915 92.7801 25.7715 96.2001 26.4215 99.6201C26.5332 100.061 26.6701 100.495 26.8315 100.92L31.1815 92.6801C31.3915 92.3001 31.5715 91.9001 31.8015 91.5201C31.9661 91.1401 32.251 90.8246 32.6123 90.6223C32.9737 90.4199 33.3915 90.3419 33.8015 90.4001C34.8015 90.5501 35.0815 91.3101 35.2815 92.1301C35.7315 93.9801 36.1615 95.8401 36.6415 97.6801C36.7951 98.2545 37.038 98.8012 37.3615 99.3001C37.7328 96.2515 38.3651 93.2405 39.2515 90.3001C39.5813 89.3207 39.9997 88.3735 40.5015 87.4701C40.6044 87.2569 40.7512 87.068 40.9322 86.9155C41.1133 86.763 41.3245 86.6505 41.552 86.5854C41.7795 86.5203 42.0183 86.5039 42.2525 86.5375C42.4868 86.571 42.7114 86.6537 42.9115 86.7801C43.1466 86.8656 43.3612 86.9996 43.5414 87.1732C43.7216 87.3468 43.8634 87.5563 43.9576 87.7881C44.0518 88.0199 44.0964 88.2689 44.0885 88.519C44.0805 88.7691 44.0202 89.0147 43.9115 89.2401C41.6115 94.7301 41.0315 100.51 40.9815 106.38C40.9815 107.25 40.8115 108.04 39.9015 108.38C39.541 108.492 39.1543 108.489 38.7956 108.371C38.437 108.253 38.1243 108.025 37.9015 107.72C35.8709 105.569 34.3501 102.989 33.4515 100.17C33.1315 99.5901 33.0015 99.0001 32.6515 98.0701Z" fill="#FCFCFC"/>
<path d="M56.5504 96.2302C56.625 99.0381 55.6639 101.775 53.8504 103.92C53.1846 104.764 52.2859 105.394 51.2655 105.732C50.2451 106.069 49.1481 106.1 48.1104 105.82C47.1199 105.609 46.2098 105.121 45.4858 104.413C44.7618 103.705 44.2536 102.806 44.0204 101.82C43.4855 100.083 43.3771 98.243 43.7044 96.4553C44.0317 94.6675 44.7849 92.985 45.9004 91.5502C46.5623 90.4983 47.5553 89.6964 48.7231 89.271C49.8908 88.8455 51.1669 88.8206 52.3504 89.2002C53.5334 89.6397 54.5612 90.4171 55.3061 91.4358C56.051 92.4545 56.4802 93.6696 56.5404 94.9302C56.5804 95.3602 56.5504 95.8002 56.5504 96.2302Z" fill="#FCFCFC"/>
<path d="M70.6917 96.2903C70.7648 97.793 70.5192 99.2942 69.9712 100.695C69.4231 102.096 68.5849 103.366 67.5117 104.42C66.8972 105.027 66.149 105.482 65.3272 105.747C64.5054 106.013 63.6328 106.083 62.7793 105.951C61.9258 105.818 61.1151 105.488 60.4122 104.986C59.7093 104.484 59.1338 103.825 58.7317 103.06C56.6717 99.2902 58.0017 92.8702 61.3417 90.2002C62.1377 89.5251 63.1141 89.098 64.1503 88.9718C65.1864 88.8456 66.2369 89.0258 67.1717 89.4902C69.4617 90.4902 70.3417 92.4903 70.6817 94.8203C70.72 95.3094 70.7234 95.8006 70.6917 96.2903Z" fill="#FDFBFC"/>
<path d="M101.379 93.6597C100.915 92.3386 100.045 91.1982 98.8933 90.4014C97.7417 89.6046 96.3678 89.1923 94.9678 89.2233C93.5678 89.2544 92.2135 89.7272 91.0984 90.5743C89.9834 91.4214 89.1647 92.5993 88.7593 93.9397C88.4798 94.9964 88.3485 96.0868 88.3693 97.1797C88.3693 97.8897 88.3693 98.5997 88.4793 99.2997C88.9593 102.99 91.0693 105.23 94.3093 105.52C97.8593 105.85 100.309 104.32 101.379 101.06C102.159 98.6546 102.159 96.0648 101.379 93.6597ZM96.9993 100.52C96.8778 100.981 96.5953 101.384 96.2029 101.655C95.8105 101.927 95.3339 102.049 94.8593 102C94.4184 101.977 93.9998 101.798 93.6777 101.496C93.3555 101.194 93.1507 100.788 93.0993 100.35C92.6943 98.532 92.6943 96.6474 93.0993 94.8297C93.3393 93.8297 93.8493 92.9397 94.9993 92.8297C96.1493 92.7197 96.8693 93.6297 97.1193 94.7197C97.3193 95.6097 97.3793 96.5397 97.4593 97.1497C97.4688 98.2893 97.3139 99.4243 96.9993 100.52Z" fill="#010101"/>
<path d="M159.339 99.1795C159.109 98.6995 158.739 98.2995 159.479 97.8295C160.232 97.368 160.811 96.6705 161.125 95.8457C161.44 95.0208 161.473 94.1151 161.219 93.2695C161.003 92.438 160.551 91.6868 159.918 91.1066C159.284 90.5263 158.496 90.1418 157.649 89.9995C155.549 89.4395 153.409 89.8095 151.289 89.6595C150.349 89.5995 150.119 89.9095 150.129 90.8295C150.179 94.5995 150.129 98.3695 150.129 102.13C150.129 105.28 150.129 105.25 153.229 105.13C154.069 105.13 154.379 104.89 154.349 104.01C154.289 102.27 154.349 100.52 154.349 98.7795L154.649 98.6895L157.329 104.21C157.539 104.65 157.649 105.13 158.329 105.11C159.549 105.11 160.769 105.11 162.209 105.11C161.149 103 160.239 101.09 159.339 99.1795ZM154.999 96.2695C153.529 96.2695 154.729 94.9595 154.189 94.3995C154.639 93.8995 153.639 92.7995 154.929 92.7795C155.188 92.7384 155.453 92.7548 155.705 92.8274C155.957 92.9 156.19 93.0272 156.388 93.1999C156.585 93.3726 156.743 93.5866 156.848 93.8267C156.954 94.0668 157.005 94.3272 156.999 94.5895C157.059 95.8895 155.999 96.2795 154.999 96.2695Z" fill="#010101"/>
<path d="M52.741 96.6395C52.7708 97.5123 52.6171 98.3816 52.2898 99.1912C51.9625 100.001 51.4689 100.733 50.841 101.34C49.621 102.43 48.551 102.23 47.841 100.78C47.3671 99.4985 47.2784 98.1067 47.5858 96.7758C47.8932 95.4449 48.5833 94.2331 49.571 93.2896C49.7413 93.0876 49.9625 92.9349 50.2117 92.8474C50.4609 92.7598 50.729 92.7405 50.9882 92.7915C51.2474 92.8426 51.4882 92.962 51.6856 93.1375C51.883 93.313 52.0299 93.5381 52.111 93.7896C52.5767 94.6644 52.7945 95.6499 52.741 96.6395Z" fill="#995C8E"/>
<path d="M61.521 98.3802C61.538 96.5603 62.254 94.8166 63.521 93.5102C64.711 92.3402 65.741 92.5802 66.471 94.1002C66.9445 95.2947 67.0708 96.5987 66.8355 97.8619C66.6002 99.1252 66.0128 100.296 65.141 101.24C63.751 102.53 62.561 102.24 61.921 100.46C61.623 99.8089 61.4858 99.0955 61.521 98.3802Z" fill="#9A5C8F"/>
</svg>
