<svg width="200" height="200" viewBox="0 0 200 200" fill="none" xmlns="http://www.w3.org/2000/svg">
<path d="M14.9997 95.5696C15.9356 78.2472 22.1273 61.6211 32.7499 47.906C43.3725 34.191 57.9218 24.038 74.4597 18.7996C81.4345 16.5635 88.6807 15.2851 95.9997 14.9996C118.61 14.1196 138.58 20.9996 155.71 35.7596C169.402 47.4562 178.946 63.2655 182.92 80.8296C184.837 88.9407 185.512 97.296 184.92 105.61C183.745 122.795 177.399 139.223 166.716 152.736C156.032 166.248 141.511 176.212 125.06 181.32C118.357 183.417 111.415 184.654 104.4 185C103.78 185.14 103.15 184.93 102.54 185.12H96.7197C95.6938 185.006 94.6614 184.963 93.6297 184.99C89.6155 184.779 85.6272 184.22 81.7097 183.32C76.3692 182.176 71.1566 180.501 66.1497 178.32C61.9326 176.473 57.8697 174.293 53.9997 171.8C50.4856 169.524 47.1433 166.994 43.9997 164.23C41.3877 161.938 38.9134 159.493 36.5897 156.91C34.0953 154.132 31.7837 151.196 29.6697 148.12C27.9509 145.629 26.3717 143.045 24.9397 140.38C20.1392 131.498 16.9659 121.829 15.5697 111.83C15.1871 109.18 14.9966 106.507 14.9997 103.83C14.9997 103.65 15.0597 103.45 14.9297 103.28V97.4296C15.0697 96.8196 14.8497 96.1796 14.9997 95.5696Z" fill="#21759A"/>
<path d="M102.539 185.09C103.145 184.926 103.777 184.885 104.399 184.97C104.394 185.01 104.394 185.051 104.399 185.09H102.539Z" fill="#A1C4D4"/>
<path d="M100.001 18.79C116.06 18.792 131.759 23.5567 145.11 32.4814C158.461 41.406 168.866 54.0898 175.008 68.9285C181.15 83.7671 182.754 100.094 179.616 115.844C176.478 131.594 168.74 146.06 157.38 157.411C146.02 168.763 131.548 176.491 115.796 179.617C100.044 182.743 83.7178 181.128 68.8838 174.974C54.0497 168.821 41.3736 158.407 32.4588 145.049C23.544 131.691 18.7909 115.99 18.8008 99.93C18.8273 78.4081 27.3927 57.7761 42.6166 42.5634C57.8406 27.3508 78.4789 18.8006 100.001 18.79Z" fill="#FDFDFD"/>
<path d="M39.1484 59.7802C62.8984 22.6202 116.358 15.6402 149.148 46.1002C147.717 45.9925 146.278 46.1588 144.908 46.5902C140.048 48.2402 137.268 51.7402 136.318 56.6802C135.558 60.6002 136.658 64.2602 138.368 67.7602C139.618 70.3402 141.158 72.7602 142.648 75.1802C145.222 79.1835 147.139 83.5721 148.328 88.1802C149.606 93.6579 149.541 99.3632 148.138 104.81C146.748 110.52 144.858 116.08 143.138 121.71C140.998 128.89 138.848 136.074 136.688 143.26L136.388 144.26C135.608 141.94 134.888 139.83 134.178 137.71C126.178 113.984 118.198 90.2469 110.238 66.5002C110.028 65.8902 110.128 65.7502 110.748 65.7302C113.228 65.6402 115.698 65.3802 118.168 65.1302C118.643 65.121 119.109 64.9991 119.528 64.7746C119.947 64.5501 120.306 64.2293 120.577 63.8387C120.847 63.4482 121.021 62.999 121.084 62.5281C121.147 62.0572 121.097 61.5781 120.938 61.1302C120.728 60.4741 120.293 59.9134 119.709 59.5474C119.125 59.1814 118.431 59.0336 117.748 59.1302C110.558 59.6502 103.368 60.1302 96.1484 60.0202C90.5484 59.9102 84.9584 59.5702 79.3784 59.1302C78.9669 59.0802 78.5494 59.1159 78.1523 59.2353C77.7553 59.3547 77.3873 59.5551 77.0716 59.8238C76.7559 60.0925 76.4993 60.4238 76.318 60.7967C76.1368 61.1695 76.0347 61.5759 76.0184 61.9902C75.974 62.3801 76.0109 62.7749 76.1266 63.1497C76.2424 63.5246 76.4346 63.8714 76.6911 64.1683C76.9476 64.4652 77.2628 64.7058 77.6169 64.8748C77.971 65.0438 78.3563 65.1375 78.7484 65.1502C81.0484 65.3902 83.3484 65.6702 85.6584 65.7602C85.8855 65.753 86.1083 65.8234 86.2901 65.9597C86.4718 66.096 86.6018 66.2902 86.6584 66.5102C90.2584 76.4169 93.8751 86.3202 97.5084 96.2202C97.7031 96.7186 97.7031 97.2719 97.5084 97.7702C92.3418 113.25 87.1784 128.734 82.0184 144.22C82.0184 144.37 81.9084 144.52 81.8484 144.69C81.5484 144.6 81.5784 144.31 81.5184 144.11C72.8518 118.204 64.1684 92.3169 55.4684 66.4502C55.2584 65.8202 55.4684 65.7002 56.0084 65.6802C58.4684 65.5902 60.9084 65.3302 63.3584 65.0902C63.869 65.0794 64.3687 64.9409 64.812 64.6875C65.2553 64.4341 65.6282 64.0737 65.8966 63.6393C66.165 63.2049 66.3204 62.7102 66.3487 62.2003C66.3769 61.6905 66.2772 61.1817 66.0584 60.7202C65.7936 60.1485 65.3555 59.6747 64.8063 59.366C64.257 59.0572 63.6245 58.9293 62.9984 59.0002C55.8584 59.5202 48.7084 60.0002 41.5384 59.9102C40.7884 59.9102 40.0284 59.8502 39.2784 59.8102C39.2184 59.8502 39.1884 59.8102 39.1484 59.7802Z" fill="#21749A"/>
<path d="M101.279 106.41C102.679 110.23 104.019 113.88 105.349 117.53L123.539 167.37C123.617 167.644 123.725 167.909 123.859 168.16C124.239 168.7 124.139 168.9 123.479 169.16C115.541 171.835 107.205 173.134 98.8292 173C92.4571 172.902 86.1258 171.964 79.9992 170.21C79.4892 170.07 79.3192 169.96 79.5192 169.38C86.7058 148.653 93.8659 127.917 100.999 107.17L101.279 106.41Z" fill="#21759A"/>
<path d="M68.1086 165.63C51.0772 157.356 37.9271 142.788 31.434 125.001C24.941 107.214 25.6132 87.6004 33.3086 70.2998L68.1086 165.63Z" fill="#21759A"/>
<path d="M136.711 163C137.601 160.42 138.441 158 139.291 155.53C145.804 136.717 152.318 117.914 158.831 99.1205C160.141 95.3605 161.571 91.6405 162.551 87.7705C164.376 80.7865 164.945 73.5336 164.231 66.3505C164.231 66.0005 164.141 65.6505 164.081 65.2305C180.891 94.0005 175.001 140.44 136.711 163Z" fill="#21759A"/>
</svg>
