<svg width="200" height="200" viewBox="0 0 200 200" fill="none" xmlns="http://www.w3.org/2000/svg">
<path d="M121.812 100.41C118.168 95.7548 113.696 91.8122 108.622 88.7795C101.562 84.5396 93.8117 81.9995 86.0017 79.6096C80.2517 77.8796 74.4417 76.3795 68.7617 74.4595C54.1417 69.5396 44.8617 57.2596 43.9017 41.8996C43.8017 40.2796 43.7317 38.6796 43.7917 37.0596C43.7701 36.6658 43.892 36.2777 44.1347 35.9669C44.3774 35.6562 44.7245 35.4439 45.1117 35.3695C61.5417 29.6895 76.8217 32.2695 91.1117 41.8695C100.712 48.3495 107.212 57.4496 112.332 67.6395C117.286 77.4209 120.458 88.006 121.702 98.8996C121.742 99.2395 121.752 99.5996 121.812 100.41Z" fill="#0071BD"/>
<path d="M123.779 99.8904C123.559 96.6604 123.299 93.3004 122.859 89.9604C121.539 79.9604 118.479 70.5204 114.969 61.1604C113.931 58.8077 113.163 56.3454 112.679 53.8204C111.982 48.5514 113.253 43.2105 116.249 38.8204C120.539 32.1104 126.379 27.4404 134.249 25.5304C135.14 25.2811 136.077 25.2481 136.983 25.4342C137.889 25.6203 138.738 26.0201 139.459 26.6004C145.659 31.2204 148.959 37.6004 150.529 44.9504C152.649 54.9504 150.259 64.1504 145.599 72.9504C141.119 81.4004 134.999 88.6304 128.449 95.5204C126.999 97.0704 125.369 98.4204 123.779 99.8904Z" fill="#0071BD"/>
<path d="M82.3516 134C82.4998 122.1 86.5035 110.57 93.7616 101.14C96.8093 97.3189 99.6148 93.3111 102.162 89.1397C102.492 88.5597 102.772 88.3697 103.452 88.6897C110.182 91.9097 116.212 96.0097 120.872 101.95C121.221 102.37 121.472 102.862 121.606 103.392C121.741 103.921 121.757 104.474 121.652 105.01C119.032 122.49 106.742 135.51 89.2016 139.32C87.3816 139.71 85.5316 139.95 83.6916 140.32C83.0016 140.45 82.6916 140.26 82.6916 139.51C82.4416 137.62 82.3816 135.8 82.3516 134Z" fill="#0071BD"/>
<path d="M41.7792 160.65C41.7792 163.33 41.7792 166 41.7792 168.65C41.7192 172.72 39.1192 175 35.0992 174.56C33.4892 174.39 31.8992 174.14 30.2892 173.96C29.2892 173.84 29.1792 173.36 29.6392 172.55C29.9244 171.929 30.4128 171.424 31.0237 171.119C31.6347 170.813 32.3316 170.726 32.9992 170.87C34.1844 171.126 35.3984 171.223 36.6092 171.16C37.3592 171.1 38.0092 170.86 38.2092 170.03C38.4092 169.2 38.4492 168.62 37.2092 168.8C32.2092 169.51 29.5092 167.13 29.4892 162.07C29.4892 158.79 29.4892 155.51 29.4892 152.23C29.4892 150.94 29.9792 150.92 30.9292 151.23C31.5699 151.414 32.128 151.812 32.5103 152.358C32.8925 152.904 33.0757 153.565 33.0292 154.23C33.0292 157 33.0292 159.78 33.0292 162.55C33.0792 165.61 34.8092 166.79 37.7592 165.94C38.5392 165.72 38.2992 165.19 38.2992 164.75C38.2992 161.27 38.2992 157.75 38.2992 154.3C38.2755 153.624 38.4808 152.96 38.882 152.415C39.2832 151.871 39.8566 151.478 40.5092 151.3C41.4492 150.95 41.8692 151.05 41.8492 152.21C41.7292 155 41.7792 157.83 41.7792 160.65Z" fill="#0171BD"/>
<path d="M126.89 160.55C126.89 158.89 126.89 157.22 126.89 155.55C126.89 154.64 127.16 154.3 128.1 154.3C129.04 154.3 129.29 154.73 129.29 155.59C129.29 158.59 129.29 161.65 129.29 164.68C129.29 165.61 128.77 166.84 130.49 167.05C132.21 167.26 133.72 166.75 134.3 165.36C134.563 164.596 134.668 163.786 134.61 162.98C134.61 160.66 134.61 158.33 134.61 155.98C134.61 155.14 134.41 154.25 135.82 154.27C137.23 154.29 136.93 155.11 136.93 155.9C136.93 158.22 136.93 160.54 136.93 162.9C136.93 167.84 134.15 169.99 129.33 168.81C128.518 168.57 127.653 168.57 126.84 168.81C125.865 169.08 124.846 169.158 123.84 169.04C122.714 169.041 121.628 168.618 120.8 167.854C119.971 167.09 119.461 166.043 119.37 164.92C118.93 161.71 119.24 158.47 119.17 155.24C119.17 154.35 119.75 154.34 120.4 154.33C121.05 154.32 121.52 154.54 121.51 155.33C121.51 158.05 121.51 160.78 121.51 163.51C121.57 166.41 123.23 167.6 126.01 166.93C126.68 166.76 126.92 166.51 126.91 165.82C126.87 164.09 126.89 162.32 126.89 160.55Z" fill="#0171BE"/>
<path d="M96.9993 163C96.9993 164.56 96.9993 166.13 96.9993 167.69C96.9993 168.6 96.7093 168.93 95.7793 168.92C94.8493 168.91 94.6793 168.5 94.6893 167.71C94.6893 164.636 94.6893 161.56 94.6893 158.48C94.6893 156.56 94.3493 156.22 92.5593 156.17C90.1993 156.1 89.4593 156.55 89.4093 158.39C89.3293 161.39 89.4093 164.44 89.4093 167.47C89.4093 168.28 89.4093 168.93 88.2693 168.93C87.1293 168.93 87.0493 168.37 87.0593 167.51C87.0593 164.88 87.0593 162.26 87.0593 159.64C87.0593 154.93 90.5793 152.64 94.9693 154.52C95.2446 154.655 95.5474 154.726 95.8543 154.726C96.1612 154.726 96.4641 154.655 96.7393 154.52C98.395 153.854 100.237 153.814 101.919 154.41C102.683 154.627 103.354 155.089 103.829 155.725C104.305 156.361 104.558 157.136 104.549 157.93C104.649 161.26 104.609 164.59 104.639 167.93C104.639 168.79 104.179 168.88 103.479 168.93C102.779 168.98 102.309 168.67 102.319 167.8C102.319 164.93 102.319 162.05 102.319 159.18C102.319 156.48 100.529 155.32 97.9493 156.3C97.1393 156.62 97.0193 157.3 97.0093 158.03C97.0093 159.69 97.0093 161.36 97.0093 163.03L96.9993 163Z" fill="#0171BD"/>
<path d="M162.65 162.06C162.65 164.24 162.65 165.99 162.65 167.73C162.65 168.73 162.29 168.95 161.4 168.94C160.51 168.93 160.26 168.58 160.27 167.76C160.27 161.86 160.27 155.97 160.27 150.07C160.27 149.21 160.61 148.95 161.44 148.94C162.27 148.93 162.68 149.27 162.66 150.18C162.66 153 162.66 155.82 162.66 158.64V160.5L167.41 155.17C167.74 154.8 168.02 154.29 168.6 154.36C169.18 154.43 170.19 153.95 170.54 154.63C170.81 155.15 169.95 155.57 169.54 156C168.166 157.553 166.763 159.07 165.33 160.55C164.84 161.06 164.84 161.38 165.33 161.91C166.81 163.63 168.27 165.37 169.66 167.15C170.03 167.63 171.13 168.23 170.41 168.76C170.007 169.024 169.522 169.135 169.044 169.071C168.567 169.006 168.128 168.772 167.81 168.41C167.03 167.48 166.28 166.53 165.52 165.59L162.65 162.06Z" fill="#0272BE"/>
<path d="M48.1407 159.84C48.1407 162.35 48.0707 164.84 48.1407 167.39C48.2007 168.99 47.1407 168.68 46.2607 168.73C45.3807 168.78 44.5507 168.73 44.5707 167.34C44.6307 162.3 44.6307 157.263 44.5707 152.23C44.5707 150.67 45.5107 150.91 46.4707 150.87C47.4307 150.83 48.1907 150.87 48.1407 152.29C48.0707 154.8 48.1407 157.32 48.1407 159.84Z" fill="#0272BE"/>
<path d="M58.4311 159.85C58.4311 157.48 58.4311 155.11 58.4311 152.75C58.4311 149.92 59.5211 148.82 62.3611 148.75C63.1611 148.75 63.9611 148.86 64.7711 148.92C65.3911 148.98 65.4211 149.41 65.4311 149.92C65.4442 150.02 65.4341 150.122 65.4016 150.218C65.369 150.314 65.3149 150.401 65.2434 150.472C65.1719 150.544 65.0849 150.598 64.9891 150.63C64.8934 150.663 64.7914 150.673 64.6911 150.66C63.8811 150.66 63.0811 150.66 62.2711 150.66C60.2711 150.66 60.9211 152.22 60.7611 153.3C60.5711 154.62 61.5211 154.3 62.2211 154.3C62.9211 154.3 63.6311 154.3 64.3311 154.3C65.0311 154.3 65.4211 154.38 65.4111 155.19C65.4011 156 65.0911 156.19 64.4111 156.19H64.1111C60.7711 156.29 60.7711 156.29 60.7711 159.58C60.7711 162.25 60.7711 164.92 60.7711 167.58C60.7711 168.51 60.5111 168.95 59.4811 168.93C58.4511 168.91 58.4011 168.31 58.4111 167.55C58.4411 165 58.4311 162.42 58.4311 159.85Z" fill="#0271BE"/>
<path d="M54.5582 159.81C54.5582 162.39 54.5082 164.96 54.5582 167.53C54.5582 168.81 53.8382 168.79 52.9982 168.71C52.1582 168.63 51.0682 169.2 51.0782 167.6C51.0782 162.4 51.0782 157.2 51.0782 152.01C51.0782 150.41 52.2182 151.01 53.0082 150.89C53.7982 150.77 54.5882 150.89 54.5482 152.1C54.5082 154.67 54.5582 157.24 54.5582 159.81Z" fill="#0171BE"/>
<path d="M67.2983 161.9C67.2983 159.98 67.2983 158.07 67.2983 156.16C67.2447 155.833 67.3185 155.499 67.5047 155.225C67.6908 154.951 67.9749 154.76 68.2983 154.69C69.8976 154.24 71.5589 154.051 73.2183 154.13C73.8583 154.13 73.9683 154.5 73.9383 155.01C73.9083 155.52 74.0983 156.08 73.3383 156.18C73.1883 156.18 73.0383 156.18 72.8883 156.18C69.6983 156.4 69.6983 156.4 69.6983 159.56C69.6983 162.23 69.6983 164.9 69.6983 167.56C69.6983 168.48 69.5183 168.95 68.4583 168.93C67.3983 168.91 67.2983 168.44 67.3083 167.61C67.3283 165.72 67.2983 163.81 67.2983 161.9Z" fill="#0372BE"/>
<path d="M152.301 161.81C152.301 159.9 152.301 157.99 152.301 156.07C152.259 155.752 152.339 155.43 152.524 155.169C152.71 154.907 152.987 154.725 153.301 154.66C154.862 154.244 156.477 154.066 158.091 154.13C158.721 154.13 158.851 154.48 158.821 155C158.791 155.52 158.981 156.07 158.231 156.17C158.081 156.17 157.931 156.17 157.781 156.17C154.581 156.4 154.581 156.4 154.581 159.58C154.581 162.24 154.581 164.91 154.581 167.58C154.581 168.37 154.581 168.92 153.481 168.94C152.381 168.96 152.251 168.41 152.271 167.54C152.321 165.64 152.301 163.73 152.301 161.81Z" fill="#0271BE"/>
<path d="M46.4186 146.18C47.5586 146.34 48.2186 146.95 48.1586 148.09C48.1662 148.32 48.1254 148.549 48.0387 148.762C47.952 148.976 47.8214 149.168 47.6554 149.328C47.4894 149.487 47.2917 149.61 47.0751 149.688C46.8586 149.766 46.6281 149.797 46.3986 149.78C46.1586 149.801 45.917 149.77 45.6904 149.688C45.4639 149.606 45.2578 149.476 45.0865 149.307C44.9153 149.137 44.7829 148.933 44.6987 148.707C44.6144 148.482 44.5802 148.24 44.5986 148C44.5887 147.759 44.629 147.517 44.717 147.292C44.8049 147.067 44.9387 146.862 45.1097 146.691C45.2807 146.52 45.4853 146.387 45.7106 146.299C45.9358 146.211 46.1769 146.17 46.4186 146.18Z" fill="#0674BF"/>
<path d="M54.629 148C54.6372 148.242 54.5935 148.484 54.5009 148.709C54.4083 148.933 54.2689 149.136 54.092 149.302C53.915 149.469 53.7046 149.596 53.4748 149.675C53.2449 149.753 53.0009 149.782 52.759 149.76C52.2869 149.748 51.8389 149.549 51.5135 149.206C51.1882 148.864 51.0121 148.407 51.024 147.935C51.0359 147.462 51.2349 147.014 51.5772 146.689C51.9194 146.364 52.3769 146.188 52.849 146.2C53.0884 146.185 53.3281 146.221 53.5522 146.307C53.7763 146.392 53.9795 146.524 54.1481 146.695C54.3167 146.866 54.4469 147.07 54.5298 147.295C54.6128 147.52 54.6466 147.76 54.629 148Z" fill="#0573BF"/>
<path d="M85.3999 161.74V156C85.3999 155.44 85.4599 154.87 84.6899 154.71C82.6895 154.177 80.6067 154.024 78.5499 154.26C77.5727 154.396 76.6622 154.833 75.9452 155.51C75.2281 156.188 74.7404 157.072 74.5499 158.04C74.0155 160.252 73.9848 162.555 74.4599 164.78C75.0299 167.59 76.7999 168.96 79.6899 169.06C81.2508 169.082 82.8096 168.938 84.3399 168.63C85.1999 168.47 85.4799 168.04 85.4599 167.17C85.3599 165.36 85.3999 163.55 85.3999 161.74ZM82.5399 166.93C79.3899 168.17 76.7999 166.61 76.5399 163.27C76.4232 161.915 76.4466 160.551 76.6099 159.2C76.8799 157.04 77.9499 156.12 80.1399 156.12H80.4399C83.0299 156.18 83.0299 156.18 83.0299 158.74V161.61C83.0299 163.07 83.0299 164.53 83.0299 165.99C82.9999 166.38 83.0899 166.72 82.5399 166.93Z" fill="#0271BE"/>
<path d="M109.071 162.35H114.521C117.891 162.35 118.131 162.06 117.521 158.66C116.951 155.66 114.771 154.03 111.521 154.15C110.152 154.083 108.81 154.552 107.779 155.457C106.749 156.362 106.111 157.633 106.001 159C105.796 160.754 105.796 162.526 106.001 164.28C106.082 165.53 106.621 166.707 107.517 167.584C108.412 168.461 109.599 168.976 110.851 169.03C112.612 169.165 114.383 169.074 116.121 168.76C116.941 168.63 117.261 168.29 117.191 167.48C117.121 166.67 116.441 166.85 115.941 166.87C114.283 167.082 112.608 167.122 110.941 166.99C110.047 166.794 109.261 166.266 108.743 165.512C108.225 164.758 108.013 163.834 108.151 162.93C108.311 162.32 108.661 162.35 109.071 162.35ZM108.431 158.65C108.941 156.71 110.571 155.82 112.801 156.26C113.59 156.463 114.275 156.95 114.727 157.627C115.179 158.304 115.366 159.124 115.251 159.93C115.251 160.52 114.931 160.56 114.491 160.56H110.001C108.001 160.56 108.001 160.48 108.431 158.65Z" fill="#0171BD"/>
<path d="M150.45 159.54C150.05 155.91 147.82 154.01 144.26 154.14C140.93 154.26 138.88 156.45 138.73 160.06C138.73 160.56 138.73 161.06 138.73 161.57H138.78C138.73 162.376 138.73 163.184 138.78 163.99C138.851 165.395 139.471 166.716 140.508 167.667C141.545 168.618 142.915 169.122 144.32 169.07C147.64 169.17 149.69 167.55 150.32 164.36C150.608 162.769 150.652 161.144 150.45 159.54ZM148 164.34C147.846 165.156 147.403 165.888 146.753 166.404C146.103 166.921 145.289 167.186 144.46 167.152C143.63 167.118 142.841 166.787 142.235 166.219C141.629 165.652 141.248 164.885 141.16 164.06C140.97 162.509 140.97 160.941 141.16 159.39C141.251 158.57 141.631 157.809 142.233 157.245C142.835 156.68 143.619 156.35 144.443 156.312C145.267 156.275 146.077 156.533 146.728 157.041C147.379 157.548 147.826 158.271 147.99 159.08C148.127 159.974 148.204 160.876 148.22 161.78C148.198 162.637 148.125 163.492 148 164.34Z" fill="#0171BD"/>
</svg>
