<svg width="54" height="54" viewBox="0 0 54 54" fill="none" xmlns="http://www.w3.org/2000/svg">
<path d="M50.4783 0H3.52174C1.58031 0 0 1.58031 0 3.52174V50.4783C0 52.4197 1.58031 54 3.52174 54H50.4783C52.4197 54 54 52.4197 54 50.4783V3.52174C54 1.58031 52.4197 0 50.4783 0ZM51.6522 50.4783C51.6522 51.126 51.1248 51.6522 50.4783 51.6522H3.52174C2.87517 51.6522 2.34783 51.126 2.34783 50.4783V3.52174C2.34783 2.87517 2.87517 2.34783 3.52174 2.34783H50.4783C51.1248 2.34783 51.6522 2.87517 51.6522 3.52174V50.4783Z" fill="#9D21E9"/>
<path d="M31.7391 9.30859H15.1498C14.496 9.30859 13.9648 9.83721 13.9648 10.4879V43.5086C13.9648 44.161 14.496 44.6879 15.1498 44.6879H31.7391C36.3129 44.6879 40.0338 40.9836 40.0338 36.4327V34.0741C40.0338 31.0752 38.419 28.4442 36.0086 26.9982C38.419 25.5523 40.0338 22.9213 40.0338 19.9224V17.5638C40.0338 13.0118 36.3129 9.30859 31.7391 9.30859ZM37.6639 34.0741V36.4327C37.6639 39.6839 35.0059 42.3293 31.7391 42.3293H16.3347V28.1776H31.7391C35.0059 28.1776 37.6639 30.8229 37.6639 34.0741ZM37.6639 19.9224C37.6639 23.1736 35.0059 25.8189 31.7391 25.8189H16.3347V11.6672H31.7391C35.0059 11.6672 37.6639 14.3126 37.6639 17.5638V19.9224Z" fill="#9D21E9"/>
</svg>
