<svg width="47" height="66" viewBox="0 0 47 66" fill="none" xmlns="http://www.w3.org/2000/svg">
<path d="M10.6352 66C10.3861 65.5048 9.84489 65.5965 9.44206 65.4773C-0.0599139 62.6531 -3.12883 51.1114 3.81468 44.0996C4.6388 43.2682 4.67262 42.9228 3.81468 42.0762C2.6102 40.8798 1.65702 39.4573 1.01054 37.8914C0.364055 36.3256 0.0371777 34.6477 0.0489091 32.9551C0.0606405 31.2626 0.410748 29.5893 1.07887 28.0325C1.747 26.4756 2.71981 25.0663 3.94076 23.8865C4.4543 23.3822 4.94937 23.1407 4.10681 22.3215C0.146114 18.4672 -0.988584 13.7631 0.871834 8.63115C2.71688 3.55112 6.56994 0.512882 12.0374 0.2653C19.4513 -0.0964009 26.8787 -0.0882532 34.2917 0.289739C39.7008 0.595397 43.4769 3.65197 45.2882 8.65864C47.1178 13.7326 45.9739 18.3572 42.1608 22.2635C42.0194 22.4102 41.8533 22.5355 41.7149 22.6792C41.5766 22.8228 41.5151 22.9053 41.4074 23.0184C46.6781 28.6823 47.536 34.9391 43.7998 40.3676C39.9714 45.9183 34.0211 47.1562 25.9367 43.9804C25.9367 47.0706 25.9798 50.0936 25.9367 53.1257C25.8383 59.1044 21.9391 64.0682 16.2841 65.5843C15.8382 65.7066 15.2293 65.3979 14.9311 66H10.6352ZM20.2017 33.1449C20.2017 31.1122 20.1648 29.0796 20.2202 27.0501C20.2448 26.2156 20.0449 25.9039 19.1439 25.9344C17.0498 25.9986 14.9526 25.9344 12.8585 25.9589C11.0552 25.9697 9.32249 26.6567 8.0067 27.8824C6.69091 29.1081 5.88897 30.7823 5.76119 32.5702C5.65222 34.3087 6.18111 36.0274 7.24982 37.4078C8.31852 38.7882 9.85454 39.7366 11.5731 40.0772C14.0547 40.5449 16.5731 40.1506 19.064 40.3095C20.0757 40.3737 20.2479 39.9702 20.2202 39.0869C20.1618 37.1093 20.2017 35.1255 20.2017 33.1449ZM20.1648 13.0815C20.1648 10.9969 20.1279 8.90928 20.1833 6.82164C20.2048 6.00859 19.9434 5.79159 19.1501 5.80993C16.9975 5.86189 14.845 5.77937 12.6924 5.84661C10.8073 5.93277 9.02914 6.74212 7.73193 8.10449C6.43472 9.46686 5.71948 11.2761 5.7366 13.1518C5.78082 15.0272 6.56236 16.8108 7.91374 18.1204C9.26511 19.4299 11.0788 20.1612 12.9661 20.1575C14.9095 20.1575 16.8622 20.0688 18.8087 20.1911C20.0387 20.2675 20.2386 19.806 20.1894 18.73C20.091 16.8503 20.1648 14.9644 20.1648 13.0937V13.0815ZM25.9921 12.8676C25.9921 15.0072 26.0198 17.1468 25.9767 19.2619C25.9583 20.0016 26.195 20.2156 26.9269 20.1972C29.0795 20.1483 31.2136 20.1972 33.36 20.1544C35.2147 20.1117 36.9816 19.3608 38.294 18.0574C39.6064 16.7541 40.3635 14.9984 40.408 13.1549C40.4911 9.39221 37.4283 6.0361 33.6429 5.86187C31.4011 5.75795 29.1502 5.86189 26.9054 5.80993C26.1366 5.79465 25.9829 6.07583 25.9829 6.77578C26.0167 8.81452 25.9921 10.838 25.9921 12.8676ZM20.1925 50.3106C20.1925 49.1919 20.1495 48.0732 20.1925 46.9484C20.2325 46.1689 19.9957 45.8816 19.1685 45.9C17.016 45.9519 14.8634 45.8633 12.7262 45.9305C10.8389 45.9839 9.04807 46.7719 7.73948 48.1249C6.43088 49.4778 5.70916 51.2874 5.72972 53.1641C5.75028 55.0408 6.51148 56.8344 7.84941 58.1586C9.18733 59.4829 10.995 60.232 12.8831 60.2445C13.8161 60.2672 14.7445 60.1071 15.6153 59.7732C16.4861 59.4392 17.2822 58.9381 17.9581 58.2983C18.634 57.6585 19.1765 56.8927 19.5546 56.0445C19.9327 55.1963 20.139 54.2824 20.1618 53.3549C20.2263 52.3463 20.1925 51.3284 20.1925 50.3106ZM25.9952 32.8881C25.9583 37.0084 29.0948 40.2728 33.1201 40.3003C37.0131 40.3278 40.3865 37.0023 40.408 33.1204C40.4172 31.2455 39.6818 29.4427 38.3616 28.1035C37.0414 26.7644 35.2429 25.997 33.3569 25.968C29.2086 25.9314 26.0321 28.9115 25.9952 32.8759V32.8881Z" fill="#A02EEA"/>
</svg>
