<svg width="54" height="54" viewBox="0 0 54 54" fill="none" xmlns="http://www.w3.org/2000/svg">
<path d="M27 0C12.1606 0 0 12.2661 0 27.1055C0 41.8587 12.0498 54 27 54C41.9317 54 54 41.8769 54 27.1055C54 12.2661 41.8394 0 27 0ZM31.7461 50.3613C30.2275 50.6777 28.6138 50.8359 27 50.8359C25.3862 50.8359 23.7725 50.6777 22.2539 50.3613V42.9575C22.2539 41.1855 22.7285 40.5527 23.3613 39.6983C23.6835 39.33 23.878 38.9995 25.3228 36.8193L22.8867 36.4395C16.6216 35.522 14.1538 32.2627 13.1729 29.7315C11.9073 26.3462 12.5718 22.106 14.8501 19.417C15.1982 19.0054 15.4829 18.3091 15.2299 17.5816C14.7549 16.126 14.8184 13.8164 15.1348 12.9302C16.8124 13.17 18.5374 14.3718 19.976 15.2402C20.6389 15.6271 20.9866 15.5249 21.3047 15.5566C22.4607 15.316 24.264 14.7339 27.0317 14.7339C28.7402 14.7339 30.5439 14.9869 32.3159 15.4932C32.6327 15.4858 33.1419 15.7552 34.0244 15.2402C35.5281 14.324 37.1946 13.1634 38.8652 12.9302C39.1816 13.8164 39.2451 16.126 38.7705 17.5816C38.5171 18.3091 38.8018 19.0054 39.1503 19.417C41.4282 22.1064 42.0927 26.3462 40.8271 29.7315C39.8462 32.2627 37.3784 35.522 31.1133 36.4395L28.6772 36.8193C30.1707 39.0729 30.328 39.3431 30.6391 39.6983C31.2715 40.5527 31.7461 41.1855 31.7461 42.9575V50.3613ZM34.9102 49.4438V42.9575C34.9102 41.1538 34.5303 39.9516 34.024 39.0655C38.8335 37.7685 42.2509 34.9205 43.7695 30.8389C45.3833 26.5361 44.6557 21.4102 41.9659 17.8662C42.4409 15.7466 42.4409 12.3609 41.3017 10.7788C40.7954 10.083 40.0991 9.70312 39.2134 9.70312C39.1816 9.70312 39.1816 9.70312 39.1816 9.70312C36.7283 9.83578 34.7973 11.0713 32.727 12.3291C30.8286 11.8228 28.8984 11.5698 26.9683 11.5698C25.0068 11.5698 23.0449 11.8545 21.3051 12.3291C19.1257 11.0149 17.2132 9.83249 14.6919 9.70312C13.9009 9.70312 13.2046 10.083 12.6983 10.7788C11.5595 12.3609 11.5595 15.7466 12.0341 17.8662C9.34428 21.4102 8.61671 26.5674 10.2305 30.8389C11.7491 34.9205 15.1665 37.7685 19.976 39.0655C19.5834 39.7522 19.2728 40.6384 19.1504 41.8377C18.1789 42.1727 17.3364 42.2818 16.5528 42.0515C15.7264 41.8072 15.0824 41.2556 14.523 40.3146C13.2664 38.2036 11.1261 36.4802 8.68922 36.7044L8.96732 39.8561C10.0957 39.7527 11.2188 40.9466 11.8022 41.9308C12.7646 43.5516 14.0611 44.6145 15.6568 45.0858C16.8412 45.4348 17.9239 45.4265 19.0898 45.1777V49.4438C9.88234 46.2163 3.16406 37.4204 3.16406 27.1055C3.16406 14.0063 13.9009 3.16406 27 3.16406C40.0991 3.16406 50.8359 14.0063 50.8359 27.1055C50.8359 37.4204 44.1177 46.2163 34.9102 49.4438Z" fill="#9E2EE9"/>
</svg>
