<svg width="62" height="45" viewBox="0 0 62 45" fill="none" xmlns="http://www.w3.org/2000/svg">
<path d="M56.5508 0.671875H5.44922C2.44452 0.671875 0 3.10715 0 6.10048V38.6721C0 41.6655 2.44452 44.1007 5.44922 44.1007H56.5508C59.5555 44.1007 62 41.6655 62 38.6721V6.10048C62 3.10715 59.5555 0.671875 56.5508 0.671875ZM50.6456 4.29095L31 23.7637L11.3544 4.29095H50.6456ZM7.14453 40.4817H5.44922C4.44765 40.4817 3.63281 39.6699 3.63281 38.6721V11.952L7.14453 15.3981V40.4817ZM50.9805 40.4817H10.6562V18.999L24.5778 32.7127C26.2896 34.4202 28.5704 35.3606 31 35.3606C33.4296 35.3606 35.7104 34.4202 37.4181 32.7167L50.9805 19.3084V40.4817ZM58.3672 38.6721C58.3672 39.6699 57.5523 40.4817 56.5508 40.4817H54.6133V15.7076L58.3672 11.952V38.6721ZM58.3672 6.84686L34.8519 30.1553C33.8264 31.1781 32.4585 31.7415 31 31.7415C29.5415 31.7415 28.1737 31.1782 27.1441 30.1513L3.63281 6.84686V6.10048C3.63281 5.10271 4.44765 4.29095 5.44922 4.29095H6.20375L31 28.869L55.7962 4.29095H56.5508C57.5523 4.29095 58.3672 5.10271 58.3672 6.10048V6.84686Z" fill="#9D21E9"/>
</svg>
