<svg width="62" height="69" viewBox="0 0 62 69" fill="none" xmlns="http://www.w3.org/2000/svg">
<path d="M48.3089 6.65681C47.8382 6.32466 47.1865 6.43598 46.8535 6.90501C46.5203 7.37405 46.6319 8.02304 47.1027 8.3548C54.4972 13.5671 58.9119 22.0587 58.9119 31.0701C58.9119 40.805 55.5012 49.8128 49.3081 56.4338C44.2792 61.8104 37.9014 65.1424 32.044 65.5011V59.9166C32.044 59.3421 31.5766 58.8764 30.9999 58.8764C15.6092 58.8764 3.08799 46.4025 3.08799 31.0701C3.08799 15.7378 15.6093 3.26382 31 3.26382C35.5382 3.26382 40.0429 4.37302 44.0271 6.4714C44.537 6.7405 45.1687 6.54601 45.4381 6.03818C45.7076 5.53035 45.5129 4.90095 45.0032 4.63251C40.7192 2.37635 35.8772 1.18359 31 1.18359C22.9867 1.18359 15.453 4.29231 9.78682 9.93706C4.12052 15.5819 1 23.0871 1 31.0701C1 39.0532 4.12052 46.5583 9.78682 52.2032C15.2062 57.6021 22.3344 60.6809 29.9559 60.9391V66.5735C29.9559 67.148 30.4233 67.6137 31 67.6137C37.7033 67.6137 45.1185 63.9644 50.8358 57.8521C57.3903 50.8446 61 41.3333 61 31.0703C61.0001 21.3848 56.2557 12.2581 48.3089 6.65681Z" fill="#9D21E9" stroke="#9921E9"/>
<path d="M30.7728 23.3711H19.6359C19.0594 23.3711 18.5918 23.8366 18.5918 24.4113V27.7397C18.5918 28.3142 19.0592 28.7798 19.6359 28.7798C20.2126 28.7798 20.68 28.3143 20.68 27.7397V25.4513H29.7288V35.506C29.7288 37.3797 28.1987 38.9038 26.3181 38.9038H26.2485V34.3965C26.2485 33.822 25.7811 33.3564 25.2044 33.3564H20.68V32.1779C20.68 31.6034 20.2126 31.1377 19.6359 31.1377C19.0592 31.1377 18.5918 31.6032 18.5918 32.1779V34.3965C18.5918 34.9711 19.0592 35.4367 19.6359 35.4367H24.1603V39.944C24.1603 40.5185 24.6277 40.9842 25.2044 40.9842H26.3181C29.3502 40.9842 31.8169 38.5266 31.8169 35.5061V24.4113C31.8168 23.8366 31.3493 23.3711 30.7728 23.3711Z" fill="#9D21E9" stroke="#9921E9"/>
<path d="M46.3646 23.3711H35.2277C34.6512 23.3711 34.1836 23.8366 34.1836 24.4113V34.3965C34.1836 34.9711 34.651 35.4367 35.2277 35.4367H39.7521V39.944C39.7521 40.5185 40.2195 40.9842 40.7962 40.9842H41.9099C44.942 40.9842 47.4087 38.5266 47.4087 35.5061V24.4113C47.4086 23.8366 46.9411 23.3711 46.3646 23.3711ZM45.3204 35.506C45.3204 37.3797 43.7904 38.9038 41.9098 38.9038H41.8402V34.3965C41.8402 33.822 41.3728 33.3564 40.7961 33.3564H36.2717V25.4513H45.3204V35.506Z" fill="#9D21E9" stroke="#9921E9"/>
</svg>
