<svg width="61" height="54" viewBox="0 0 61 54" fill="none" xmlns="http://www.w3.org/2000/svg">
<path d="M0.266358 37.2092C9.63799 52.9979 8.43572 52.3505 9.18809 52.7384C9.45752 53.4604 9.63037 53.8124 10.8758 53.964C10.8911 53.9769 10.9038 53.9872 10.9165 54C31.3323 54 31.9118 53.8356 50.0781 54C50.7593 54 51.3897 53.63 51.7303 53.0339C57.3375 42.7282 59.8742 39.0694 60.6876 37.2734C60.7003 37.2529 60.713 37.2349 60.7283 37.2117C60.7384 37.1912 60.7359 37.1681 60.746 37.1475C61.1146 36.2842 61.0587 35.8603 60.7283 35.2822C60.713 35.2539 60.6978 35.2308 60.6825 35.2051C40.3252 0.295063 41.5173 0.0432635 39.4966 0.0432635C27.9212 0.264229 23.5264 -0.131454 21.5845 0.0484022C21.554 0.0484022 21.5311 0.0432635 21.5006 0.0432635C21.7599 -0.0286788 20.4305 -0.0158319 19.8484 1.00935C19.8433 1.01962 19.8383 1.0299 19.8332 1.03761C0.197729 36.13 -0.742738 35.4235 0.266358 37.2092ZM48.9775 50.1459H14.3175C14.9046 49.1208 12.0273 54.1953 21.1244 38.1753C31.8432 38.1778 54.3102 38.1624 55.7768 38.1907L48.9775 50.1459ZM38.0376 34.388C33.93 34.3983 29.0523 34.3906 23.2494 34.3469C25.298 30.7678 27.7407 26.5412 30.6663 21.5412C32.7404 25.11 35.1755 29.3443 38.0376 34.388ZM38.3985 3.89732L55.7336 34.2467C54.6101 34.2493 60.1741 34.2107 42.3815 34.3212C23.9255 2.31972 26.5359 6.92146 24.8609 3.89732H38.3985ZM21.4675 5.88087C22.4487 7.57665 23.895 9.99186 25.9589 13.4913L28.4473 17.7925L18.3005 35.4183C17.9904 35.8705 11.1072 47.9106 10.9267 48.2266L4.11719 36.2508L21.4675 5.88087Z" fill="#9D21E9"/>
</svg>
