<svg width="64" height="57" viewBox="0 0 64 57" fill="none" xmlns="http://www.w3.org/2000/svg">
<path d="M31.5468 12.3242C30.8666 12.3242 30.3145 12.8764 30.3145 13.5566C30.3145 14.2367 30.8666 14.7889 31.5468 14.7889C32.227 14.7889 32.7791 14.2367 32.7791 13.5566C32.7791 12.8764 32.227 12.3242 31.5468 12.3242Z" fill="#9921E9"/>
<path d="M11.0917 34.5037C11.7719 34.5037 12.324 33.9516 12.324 33.2714C12.324 32.5912 11.7719 32.0391 11.0917 32.0391C10.4115 32.0391 9.85938 32.5912 9.85938 33.2714C9.85938 33.9516 10.4115 34.5037 11.0917 34.5037Z" fill="#9921E9"/>
<path d="M41.4065 0C30.3121 0 21.2063 7.64915 20.502 17.284C9.9362 17.814 0 25.4328 0 35.7378C0 40.0442 1.70409 44.2168 4.80611 47.523C5.41988 50.0531 4.6747 52.7349 2.82571 54.5839C2.47334 54.9362 2.36792 55.4662 2.55854 55.9269C2.74917 56.3871 3.1983 56.6875 3.69701 56.6875C7.21158 56.6875 10.5986 55.3093 13.1152 52.8807C15.5669 53.7164 18.7657 54.2228 21.6891 54.2228C32.7821 54.2228 41.8869 46.5756 42.5931 36.9427C45.1733 36.8281 47.857 36.3515 49.9804 35.628C52.4971 38.0566 55.8841 39.4348 59.3986 39.4348C59.8974 39.4348 60.3465 39.1344 60.5371 38.6742C60.7277 38.2135 60.6223 37.6835 60.2699 37.3311C58.421 35.4822 57.6758 32.8004 58.2895 30.2702C61.3916 26.9641 63.0956 22.7915 63.0956 18.4851C63.0956 7.77768 52.3941 0 41.4065 0ZM21.6891 51.7582C18.7806 51.7582 15.4663 51.1872 13.2462 50.3039C12.7706 50.1142 12.2271 50.2389 11.881 50.6168C10.393 52.2434 8.45836 53.3775 6.35039 53.8989C7.51196 51.6734 7.80849 49.0499 7.10182 46.564C7.04598 46.3681 6.94249 46.189 6.80048 46.0432C4.00461 43.1636 2.46467 39.5036 2.46467 35.7378C2.46467 27.0536 11.2682 19.7174 21.6891 19.7174C31.5295 19.7174 40.1742 26.5602 40.1742 35.7378C40.1742 44.5716 31.8819 51.7582 21.6891 51.7582ZM56.2952 28.7905C56.1532 28.9368 56.0497 29.1159 55.9938 29.3113C55.2872 31.7972 55.5837 34.4207 56.7453 36.6461C54.6373 36.1253 52.7026 34.9907 51.2147 33.3641C50.8686 32.9867 50.3251 32.8615 49.8495 33.0512C47.9254 33.8166 45.1806 34.3466 42.5893 34.4746C42.2292 29.8144 39.9046 25.4343 35.9303 22.1821H52.0046C52.6853 22.1821 53.237 21.6304 53.237 20.9497C53.237 20.2691 52.6853 19.7174 52.0046 19.7174H32.1443C29.3469 18.2935 26.2059 17.4631 22.973 17.2888C23.6811 9.01195 31.6783 2.46467 41.4065 2.46467C51.8275 2.46467 60.631 9.80093 60.631 18.4851C60.631 22.2509 59.091 25.9108 56.2952 28.7905Z" fill="#9E2EE9"/>
<path d="M31.5469 32.0391H16.0194C15.3388 32.0391 14.7871 32.5907 14.7871 33.2714C14.7871 33.9521 15.3388 34.5037 16.0194 34.5037H31.5469C32.2276 34.5037 32.7792 33.9521 32.7792 33.2714C32.7792 32.5907 32.2276 32.0391 31.5469 32.0391Z" fill="#9921E9"/>
<path d="M31.5485 39.4336H11.0917C10.411 39.4336 9.85938 39.9853 9.85938 40.6659C9.85938 41.3466 10.411 41.8983 11.0917 41.8983H31.5485C32.2292 41.8983 32.7808 41.3466 32.7808 40.6659C32.7808 39.9853 32.2292 39.4336 31.5485 39.4336Z" fill="#9921E9"/>
<path d="M52.0039 12.3242H36.4765C35.7958 12.3242 35.2441 12.8759 35.2441 13.5566C35.2441 14.2372 35.7958 14.7889 36.4765 14.7889H52.0039C52.6846 14.7889 53.2363 14.2372 53.2363 13.5566C53.2363 12.8759 52.6846 12.3242 52.0039 12.3242Z" fill="#9921E9"/>
</svg>
