<svg width="63" height="63" viewBox="0 0 63 63" fill="none" xmlns="http://www.w3.org/2000/svg">
<path d="M58.6443 30.4204C59.8499 28.8782 60.5769 26.9419 60.5769 24.8365C60.5769 19.8253 56.5016 15.75 51.4904 15.75C49.9588 15.75 48.5171 16.1339 47.25 16.8065V9.08654C47.25 4.07534 43.1747 0 38.1635 0C34.8873 0 32.0188 1.74809 30.4204 4.35574C28.8782 3.15012 26.9419 2.42308 24.8365 2.42308C19.8253 2.42308 15.75 6.49841 15.75 11.5096C15.75 13.0412 16.1339 14.4829 16.8065 15.75H9.08654C4.07534 15.75 0 19.8253 0 24.8365C0 28.1127 1.74809 30.9812 4.35574 32.5796C3.15012 34.1218 2.42308 36.0581 2.42308 38.1635C2.42308 43.1747 6.49841 47.25 11.5096 47.25C13.0412 47.25 14.4829 46.8661 15.75 46.1935V53.9135C15.75 58.9247 19.8253 63 24.8365 63C28.1127 63 30.9812 61.2519 32.5796 58.6443C34.1218 59.8499 36.0581 60.5769 38.1635 60.5769C43.1747 60.5769 47.25 56.5016 47.25 51.4904C47.25 49.9588 46.8661 48.5171 46.1935 47.25H53.9135C58.9247 47.25 63 43.1747 63 38.1635C63 34.8873 61.2519 32.0188 58.6443 30.4204ZM51.4904 20.5962C53.8289 20.5962 55.7308 22.4981 55.7308 24.8365C55.7308 27.175 53.8289 29.0769 51.4904 29.0769H47.25V24.8365C47.25 22.4981 49.1519 20.5962 51.4904 20.5962ZM33.9231 9.08654C33.9231 6.74806 35.825 4.84615 38.1635 4.84615C40.5019 4.84615 42.4038 6.74806 42.4038 9.08654V29.0769H33.9231V9.08654ZM20.5962 11.5096C20.5962 9.17113 22.4981 7.26923 24.8365 7.26923C27.175 7.26923 29.0769 9.17113 29.0769 11.5096V15.75H24.8365C22.4981 15.75 20.5962 13.8481 20.5962 11.5096ZM9.08654 20.5962H29.0769V29.0769H9.08654C6.74806 29.0769 4.84615 27.175 4.84615 24.8365C4.84615 22.4981 6.74806 20.5962 9.08654 20.5962ZM11.5096 42.4038C9.17113 42.4038 7.26923 40.5019 7.26923 38.1635C7.26923 35.825 9.17113 33.9231 11.5096 33.9231H15.75V38.1635C15.75 40.5019 13.8481 42.4038 11.5096 42.4038ZM29.0769 53.9135C29.0769 56.2519 27.175 58.1538 24.8365 58.1538C22.4981 58.1538 20.5962 56.2519 20.5962 53.9135V33.9231H29.0769V53.9135ZM42.4038 51.4904C42.4038 53.8289 40.5019 55.7308 38.1635 55.7308C35.825 55.7308 33.9231 53.8289 33.9231 51.4904V47.25H38.1635C40.5019 47.25 42.4038 49.1519 42.4038 51.4904ZM53.9135 42.4038H33.9231V33.9231H53.9135C56.2519 33.9231 58.1538 35.825 58.1538 38.1635C58.1538 40.5019 56.2519 42.4038 53.9135 42.4038Z" fill="#9D21E9"/>
</svg>
