<svg width="44" height="44" viewBox="0 0 44 44" fill="none" xmlns="http://www.w3.org/2000/svg">
<path d="M38.5 0H5.5C2.46675 0 0 2.46675 0 5.5V38.5C0 41.5332 2.46675 44 5.5 44H38.5C41.5332 44 44 41.5332 44 38.5V5.5C44 2.46675 41.5332 0 38.5 0ZM41.25 38.5C41.25 40.018 40.018 41.25 38.5 41.25H5.5C3.98475 41.25 2.75 40.018 2.75 38.5V5.5C2.75 3.98475 3.98475 2.75 5.5 2.75H38.5C40.018 2.75 41.25 3.98475 41.25 5.5V38.5Z" fill="#9F2EEA"/>
<path d="M16.5 5.5H8.25C6.73475 5.5 5.5 6.73475 5.5 8.25V33C5.5 34.518 6.73475 35.75 8.25 35.75H16.5C18.0153 35.75 19.25 34.518 19.25 33V8.25C19.25 6.73475 18.0153 5.5 16.5 5.5ZM16.5 33H8.25V8.25H16.5V33Z" fill="#9F2EEA"/>
<path d="M35.75 5.5H27.5C25.982 5.5 24.75 6.73475 24.75 8.25V22C24.75 23.518 25.982 24.75 27.5 24.75H35.75C37.268 24.75 38.5 23.518 38.5 22V8.25C38.5 6.73475 37.268 5.5 35.75 5.5ZM35.75 22H27.5V8.25H35.75V22Z" fill="#9F2EEA"/>
</svg>
