<svg width="45" height="44" viewBox="0 0 45 44" fill="none" xmlns="http://www.w3.org/2000/svg">
<path d="M4.80975 25.8654H4.81259C5.52321 25.8654 6.10002 25.2902 6.10165 24.5791C6.11076 20.3461 7.76454 16.3662 10.7583 13.3724C11.2618 12.869 11.2618 12.0528 10.7583 11.5494C10.255 11.046 9.43878 11.046 8.93535 11.5494C5.456 15.0286 3.53401 19.6541 3.52344 24.5736C3.52189 25.2855 4.09785 25.8639 4.80975 25.8654Z" fill="#9E2EE9"/>
<path d="M37.8975 24.5791C37.899 25.2901 38.4757 25.8654 39.1865 25.8654H39.1894C39.9013 25.8639 40.4771 25.2855 40.4757 24.5736C40.4651 19.6541 38.5431 15.0286 35.0638 11.5494C34.5605 11.046 33.7443 11.046 33.2408 11.5494C32.7374 12.0527 32.7374 12.8689 33.2408 13.3724C36.2346 16.3662 37.8883 20.3461 37.8975 24.5791Z" fill="#9E2EE9"/>
<path d="M25.1811 40.1942C23.0704 40.623 20.9301 40.623 18.8195 40.1942C18.1217 40.0519 17.4412 40.503 17.2995 41.2007C17.1578 41.8984 17.6084 42.5789 18.3061 42.7206C19.5317 42.9697 20.766 43.0943 22.0003 43.0943C23.2345 43.0943 24.4688 42.9698 25.6945 42.7206C26.3922 42.5789 26.8428 41.8985 26.7011 41.2007C26.5593 40.503 25.8785 40.0522 25.1811 40.1942Z" fill="#9E2EE9"/>
<path d="M29.4286 13.6599L28.6303 10.4581C28.2692 9.00969 27.267 7.86131 25.9706 7.28355C26.4472 6.54586 26.7252 5.66835 26.7252 4.72656C26.7252 2.12034 24.6049 0 21.9987 0C19.3924 0 17.2721 2.12034 17.2721 4.72656C17.2721 5.66835 17.55 6.54586 18.0266 7.28363C16.7303 7.86131 15.7282 9.00969 15.367 10.4581L14.5687 13.6599C14.4076 14.3061 14.5503 14.9776 14.9603 15.5024C15.3703 16.0271 15.9873 16.328 16.6533 16.328H27.344C28.0099 16.328 28.6269 16.0271 29.037 15.5024C29.447 14.9776 29.5897 14.3061 29.4286 13.6599ZM21.9987 2.57813C23.1833 2.57813 24.1471 3.54191 24.1471 4.72656C24.1471 5.91121 23.1833 6.875 21.9987 6.875C20.814 6.875 19.8502 5.91121 19.8502 4.72656C19.8502 3.54191 20.814 2.57813 21.9987 2.57813ZM17.2033 13.75L17.8685 11.0818C18.1077 10.1228 18.9649 9.45313 19.9532 9.45313H24.0442C25.0324 9.45313 25.8898 10.1228 26.1288 11.0818L26.7941 13.75H17.2033Z" fill="#9E2EE9"/>
<path d="M14.1264 38.13C13.7653 36.6816 12.7631 35.5332 11.4668 34.9555C11.9434 34.2177 12.2213 33.3402 12.2213 32.3984C12.2213 29.7922 10.101 27.6719 7.49477 27.6719C4.88854 27.6719 2.7682 29.7922 2.7682 32.3984C2.7682 33.3402 3.04612 34.2177 3.52273 34.9555C2.22637 35.5332 1.22425 36.6816 0.86314 38.13L0.0647809 41.3319C-0.0963519 41.9781 0.0463903 42.6496 0.456398 43.1743C0.86632 43.699 1.48344 44 2.14937 44H12.8401C13.506 44 14.1231 43.699 14.5331 43.1743C14.9431 42.6496 15.0859 41.978 14.9247 41.3319L14.1264 38.13ZM7.49477 30.25C8.67941 30.25 9.6432 31.2138 9.6432 32.3984C9.6432 33.5831 8.67941 34.5469 7.49477 34.5469C6.31012 34.5469 5.34633 33.5831 5.34633 32.3984C5.34633 31.2138 6.31012 30.25 7.49477 30.25ZM2.69937 41.4219L3.36469 38.7537C3.60369 37.7947 4.461 37.125 5.44928 37.125H9.54025C10.5285 37.125 11.3858 37.7947 11.6249 38.7537L12.2902 41.4219H2.69937Z" fill="#9E2EE9"/>
<path d="M43.9365 41.3319L43.1381 38.13C42.777 36.6816 41.7748 35.5333 40.4785 34.9555C40.9551 34.2177 41.2331 33.3402 41.2331 32.3984C41.2331 29.7922 39.1127 27.6719 36.5065 27.6719C33.9003 27.6719 31.7799 29.7922 31.7799 32.3984C31.7799 33.3402 32.0578 34.2177 32.5345 34.9555C31.2381 35.5332 30.236 36.6816 29.8749 38.13L29.0765 41.3318C28.9154 41.978 29.0581 42.6495 29.4681 43.1742C29.8781 43.699 30.4952 43.9999 31.1612 43.9999H41.8519C42.5178 43.9999 43.1349 43.699 43.5449 43.1742C43.9549 42.6496 44.0976 41.9781 43.9365 41.3319ZM36.5065 30.2501C37.6911 30.2501 38.6549 31.2139 38.6549 32.3985C38.6549 33.5832 37.6911 34.547 36.5065 34.547C35.3218 34.547 34.358 33.5832 34.358 32.3985C34.358 31.2139 35.3218 30.2501 36.5065 30.2501ZM31.7111 41.422L32.3763 38.7538C32.6155 37.7948 33.4727 37.1251 34.461 37.1251H38.552C39.5403 37.1251 40.3975 37.7948 40.6366 38.7538L41.3019 41.422H31.7111Z" fill="#9E2EE9"/>
<path d="M25.3854 22.1548L20.0102 27.5301L18.6146 26.1345C18.1113 25.6312 17.2951 25.6312 16.7916 26.1345C16.2882 26.6379 16.2882 27.4541 16.7916 27.9575L19.0987 30.2646C19.3504 30.5163 19.6803 30.6422 20.0102 30.6422C20.34 30.6422 20.67 30.5163 20.9216 30.2646L27.2083 23.9779C27.7117 23.4746 27.7117 22.6583 27.2083 22.1549C26.7049 21.6515 25.8887 21.6515 25.3854 22.1548Z" fill="#9E2EE9"/>
</svg>
