<svg viewBox="0 0 26 25" fill="none" xmlns="http://www.w3.org/2000/svg">
<g clip-path="url(#clip0)">
<path d="M24.8281 11.5234H1.78125C1.24189 11.5234 0.804688 11.9606 0.804688 12.5C0.804688 13.0394 1.24189 13.4766 1.78125 13.4766H24.8281C25.3675 13.4766 25.8047 13.0394 25.8047 12.5C25.8047 11.9606 25.3675 11.5234 24.8281 11.5234Z" fill="white"/>
<path d="M24.8281 3.71094H1.78125C1.24189 3.71094 0.804688 4.14814 0.804688 4.6875C0.804688 5.22686 1.24189 5.66406 1.78125 5.66406H24.8281C25.3675 5.66406 25.8047 5.22686 25.8047 4.6875C25.8047 4.14814 25.3675 3.71094 24.8281 3.71094Z" fill="white"/>
<path d="M24.8281 19.3359H1.78125C1.24189 19.3359 0.804688 19.7731 0.804688 20.3125C0.804688 20.8519 1.24189 21.2891 1.78125 21.2891H24.8281C25.3675 21.2891 25.8047 20.8519 25.8047 20.3125C25.8047 19.7731 25.3675 19.3359 24.8281 19.3359Z" fill="white"/>
</g>
<defs>
<clipPath id="clip0">
<rect x="0.804688" width="25" height="25" fill="white"/>
</clipPath>
</defs>
</svg>
