<svg xmlns="http://www.w3.org/2000/svg" viewBox="0 0 300 300"><path d="M196.258 103.762c-3.664-3.672-9.593-3.672-13.246 0l-33.125 33.204-33.125-33.204c-3.663-3.672-9.593-3.672-13.247 0-3.663 3.672-3.663 9.616 0 13.278l33.125 33.204-33.125 33.204c-3.663 3.671-3.663 9.615 0 13.277 3.663 3.672 9.593 3.672 13.247 0l33.125-33.203 33.125 33.194c3.662 3.672 9.592 3.672 13.246 0 3.663-3.672 3.663-9.616 0-13.278l-33.125-33.194 33.125-33.195c3.653-3.671 3.653-9.615 0-13.287zM262.302 0H37.472C16.778 0 0 16.818 0 37.56v225.366c0 20.743 16.778 37.561 37.472 37.561h224.83c20.693 0 37.471-16.818 37.471-37.56V37.56C299.773 16.818 282.995 0 262.302 0zm18.735 262.926c0 10.377-8.384 18.78-18.735 18.78H37.472c-10.352 0-18.736-8.403-18.736-18.78V37.561c0-10.376 8.384-18.78 18.736-18.78h224.83c10.351 0 18.735 8.413 18.735 18.78v225.365z"/></svg>