<svg width="125" height="225" viewBox="0 0 125 225" fill="none" xmlns="http://www.w3.org/2000/svg">
<path fill-rule="evenodd" clip-rule="evenodd" d="M115 224.5C115 224.225 115.675 224 116.5 224C117.325 224 118 223.775 118 223.5C118 223.225 118.345 223 118.766 223C119.762 223 123 219.762 123 218.766C123 218.345 123.225 218 123.5 218C123.775 218 124 217.55 124 217C124 216.45 124.225 216 124.5 216C124.792 216 125 214.333 125 212C125 209.667 124.792 208 124.5 208C124.225 208 124 207.55 124 207C124 206.45 123.775 206 123.5 206C123.225 206 123 205.661 123 205.248C123 204.834 102.299 183.797 76.998 158.498L30.996 112.5L76.998 66.502C102.299 41.203 123 20.1655 123 19.752C123 19.3385 123.225 19 123.5 19C123.775 19 124 18.55 124 18C124 17.45 124.225 17 124.5 17C124.792 17 125 15.3335 125 13C125 10.6665 124.792 9 124.5 9C124.225 9 124 8.55 124 8C124 7.45 123.775 7 123.5 7C123.225 7 123 6.65501 123 6.23351C123 5.23801 119.762 2 118.766 2C118.345 2 118 1.775 118 1.5C118 1.225 117.325 1 116.5 1C115.675 1 115 0.775 115 0.5C115 0.222 113.666 0 112 0C110.334 0 109 0.222 109 0.5C109 0.775 108.374 1 107.61 1C106.794 1 105.924 1.413 105.5 2C105.104 2.55 104.491 3 104.139 3C103.302 3 3 103.302 3 104.139C3 104.491 2.55 105.104 2 105.5C1.45 105.896 1 106.621 1 107.11C1 107.599 0.775 108 0.5 108C0.2035 108 0 109.833 0 112.5C0 115.167 0.2035 117 0.5 117C0.775 117 1 117.401 1 117.89C1 118.379 1.45 119.104 2 119.5C2.55 119.896 3 120.509 3 120.861C3 121.698 103.302 222 104.139 222C104.491 222 105.104 222.45 105.5 223C105.924 223.587 106.794 224 107.61 224C108.374 224 109 224.225 109 224.5C109 224.778 110.334 225 112 225C113.666 225 115 224.778 115 224.5Z" fill="white"/>
</svg>
