<svg width="125" height="225" viewBox="0 0 125 225" fill="none" xmlns="http://www.w3.org/2000/svg">
<path fill-rule="evenodd" clip-rule="evenodd" d="M10 0.5C10 0.775 9.325 1 8.5 1C7.675 1 7 1.225 7 1.5C7 1.775 6.655 2 6.2335 2C5.238 2 2 5.238 2 6.2335C2 6.655 1.775 7 1.5 7C1.225 7 1 7.45 1 8C1 8.55 0.775 9 0.5 9C0.2085 9 0 10.6665 0 13C0 15.3335 0.2085 17 0.5 17C0.775 17 1 17.45 1 18C1 18.55 1.225 19 1.5 19C1.775 19 2 19.3385 2 19.752C2 20.1655 22.701 41.203 48.002 66.502L94.004 112.5L48.002 158.498C22.701 183.797 2 204.835 2 205.248C2 205.662 1.775 206 1.5 206C1.225 206 1 206.45 1 207C1 207.55 0.775 208 0.5 208C0.2085 208 0 209.667 0 212C0 214.333 0.2085 216 0.5 216C0.775 216 1 216.45 1 217C1 217.55 1.225 218 1.5 218C1.775 218 2 218.345 2 218.766C2 219.762 5.238 223 6.2335 223C6.655 223 7 223.225 7 223.5C7 223.775 7.675 224 8.5 224C9.325 224 10 224.225 10 224.5C10 224.778 11.3335 225 13 225C14.6665 225 16 224.778 16 224.5C16 224.225 16.6255 224 17.3895 224C18.2055 224 19.0765 223.587 19.5 223C19.8965 222.45 20.509 222 20.861 222C21.698 222 122 121.698 122 120.861C122 120.509 122.45 119.896 123 119.5C123.55 119.104 124 118.379 124 117.89C124 117.401 124.225 117 124.5 117C124.796 117 125 115.167 125 112.5C125 109.833 124.796 108 124.5 108C124.225 108 124 107.599 124 107.11C124 106.621 123.55 105.896 123 105.5C122.45 105.104 122 104.491 122 104.139C122 103.302 21.698 3 20.861 3C20.509 3 19.8965 2.55 19.5 2C19.0765 1.413 18.2055 1 17.3895 1C16.6255 1 16 0.775 16 0.5C16 0.222 14.6665 0 13 0C11.3335 0 10 0.222 10 0.5Z" fill="white"/>
</svg>
