<svg fill="none" xmlns="http://www.w3.org/2000/svg" viewBox="0 0 769 422"><path d="M281.402 38.04l-67.213 14.52 19.87 91.98 67.213-14.52-19.87-91.98zM601.371.27h-229.08v148.96h229.08V.27z" fill="#F5F5F5"/><path d="M517.14 75.66c3.999-16.75-6.335-33.56-23.082-37.56-16.746-4-33.564 6.33-37.563 23.08-3.998 16.75 6.336 33.56 23.082 37.56 16.747 4 33.564-6.33 37.563-23.08z" fill="#E0E0E0"/><path d="M497.309 68.45l-8.147 4.7-8.128 4.7v-18.8l8.128 4.7 8.147 4.7z" fill="#F5F5F5"/><path d="M601.371 122.48h-229.08v26.75h229.08v-26.75z" fill="#E0E0E0"/><path d="M394.562 135.84l-3.307 1.91-3.307 1.92v-7.63l3.307 1.91 3.307 1.89zM582.527 135.24H413.546v1.22h168.981v-1.22z" fill="#F5F5F5"/><path d="M416.912 135.86c0 .5-.148.99-.426 1.41a2.52 2.52 0 01-2.597 1.07 2.5 2.5 0 01-1.296-.69c-.354-.35-.594-.8-.692-1.29-.098-.5-.048-1 .144-1.47.191-.46.516-.85.932-1.13.416-.28.905-.43 1.405-.43.671 0 1.315.27 1.789.74.474.48.741 1.12.741 1.79zM758.022 107.56H545.376c-6.04 0-10.936 4.89-10.936 10.93v189.48c0 6.04 4.896 10.94 10.936 10.94h212.646c6.04 0 10.936-4.9 10.936-10.94V118.49c0-6.04-4.896-10.93-10.936-10.93z" fill="#F5F5F5"/><path d="M547.209 107.56h208.98a12.8 12.8 0 014.887.97c1.549.64 2.957 1.58 4.142 2.77a12.76 12.76 0 013.74 9.02v10.84H534.44v-10.82a12.785 12.785 0 013.733-9.04 12.675 12.675 0 014.145-2.77c1.55-.64 3.212-.97 4.891-.97z" fill="#EBEBEB"/><path d="M548.762 121.24c1.024 0 1.853-.83 1.853-1.85 0-1.03-.829-1.85-1.853-1.85-1.023 0-1.852.82-1.852 1.85 0 1.02.829 1.85 1.852 1.85zM561.71 119.39c.004.37-.101.73-.302 1.03-.201.31-.489.55-.827.69-.338.15-.711.19-1.072.12a1.857 1.857 0 01-.954-.51 1.795 1.795 0 01-.512-.94c-.073-.36-.038-.74.102-1.08.139-.34.377-.63.682-.83.305-.21.664-.31 1.031-.31.488 0 .956.19 1.303.53s.544.81.549 1.3zM570.953 121.24c1.023 0 1.853-.83 1.853-1.85 0-1.03-.83-1.85-1.853-1.85-1.023 0-1.852.82-1.852 1.85 0 1.02.829 1.85 1.852 1.85zM740.771 150.18h-88.564v3.21h88.564v-3.21zM740.771 163.37h-88.564v3.21h88.564v-3.21zM740.771 176.56h-88.564v3.21h88.564v-3.21zM740.771 189.75h-88.564v3.2h88.564v-3.2zM696.489 202.93h-44.282v3.21h44.282v-3.21zM558.145 232.08h88.564v-3.21h-88.564v3.21zM558.145 245.26h88.564v-3.2h-88.564v3.2zM558.145 258.47h88.564v-3.21h-88.564v3.21zM558.145 271.66h88.564v-3.21h-88.564v3.21zM602.427 284.84h44.282v-3.2h-44.282v3.2zM737.783 225.34h-75.775v63.05h75.775v-63.05z" fill="#FAFAFA"/><path d="M661.868 269.35l22.41-15.7 15.618 10.82 24.581-20.8 13.306 13.19v31.53h-75.775l-.14-19.04z" fill="#EBEBEB"/><path d="M701.21 250.02a6.35 6.35 0 006.355-6.35c0-3.51-2.845-6.36-6.355-6.36a6.359 6.359 0 00-6.354 6.36 6.35 6.35 0 006.354 6.35z" fill="#EBEBEB"/><path d="M633.921 148.23h-75.776v63.05h75.776v-63.05z" fill="#FAFAFA"/><path d="M558.025 192.26l22.39-15.7 15.618 10.81 24.581-20.79 13.307 13.19v31.53h-75.776l-.12-19.04z" fill="#EBEBEB"/><path d="M597.347 172.93a6.35 6.35 0 006.355-6.35c0-3.51-2.845-6.36-6.355-6.36a6.359 6.359 0 00-6.354 6.36 6.35 6.35 0 006.354 6.35z" fill="#EBEBEB"/><path d="M.464 206h282.147v143.56c0 2.46-.976 4.82-2.713 6.55a9.257 9.257 0 01-6.549 2.72H9.727a9.26 9.26 0 01-6.55-2.72 9.246 9.246 0 01-2.713-6.55V206z" fill="#F5F5F5"/><path d="M282.611 206.06H.464v28.39h282.147v-28.39z" fill="#EBEBEB"/><path d="M17.675 222.53a2.231 2.231 0 100-4.462 2.231 2.231 0 000 4.462zM31.042 222.53c1.232 0 2.231-1 2.231-2.23a2.232 2.232 0 00-4.462 0c0 1.23.999 2.23 2.231 2.23zM44.388 222.53c1.232 0 2.231-1 2.231-2.23a2.232 2.232 0 00-4.462 0c0 1.23.999 2.23 2.231 2.23z" fill="#FAFAFA"/><path d="M248.668 257.33H142.135v3.87h106.533v-3.87zM248.668 273.21H142.135v3.86h106.533v-3.86zM248.668 289.07H142.135v3.86h106.533v-3.86zM248.668 304.94H142.135v3.87h106.533v-3.87zM195.402 320.8h-53.267v3.86h53.267v-3.86z" fill="#EBEBEB"/><path d="M115.104 254.62H23.93v75.86h91.174v-75.86z" fill="#FAFAFA"/><path d="M23.791 307.59l26.932-18.88 18.804 13.01 29.561-25.02 16.016 15.85v37.93H23.93l-.139-22.89z" fill="#EBEBEB"/><path d="M78.73 276.7a7.634 7.634 0 01-1.281 4.25 7.653 7.653 0 01-3.432 2.83 7.634 7.634 0 01-8.345-1.66 7.62 7.62 0 01-2.094-3.92 7.639 7.639 0 013.266-7.85 7.591 7.591 0 014.257-1.28c2.023 0 3.964.8 5.395 2.23a7.631 7.631 0 012.234 5.4z" fill="#EBEBEB"/><path d="M272.91 54.66l-67.213 14.52 19.87 91.98 67.213-14.52-19.87-91.98z" fill="#fff"/><path d="M292.771 146.66c-.051-.15-.091-.3-.12-.46l-.299-1.29c-.259-1.16-.637-2.83-1.115-5.02-.976-4.39-2.371-10.78-4.164-18.87-3.525-16.17-8.525-39.12-14.461-66.27l.338.22-67.19 14.54.239-.38c7.39 34.36 14.243 66.17 19.801 91.99l-.299-.2 48.844-10.42 13.585-2.87 3.586-.73 1.255-.24-1.196.28-3.525.79-13.506 2.99-48.864 10.7h-.239v-.26c-5.598-25.9-12.49-57.61-19.92-91.95v-.32h.319l67.21-14.48h.279v.28c5.836 27.25 10.756 50.28 14.223 66.51 1.713 7.97 3.067 14.46 3.984 18.84.438 2.16.796 3.83 1.035 4.98.1.54.2.96.259 1.28.06.32-.059.36-.059.36z" fill="#263238"/><path d="M250.779 78.81c0 .16-7.251 1.89-16.255 3.83-9.003 1.93-16.374 3.38-16.394 3.22-.02-.16 7.231-1.89 16.255-3.84s16.354-3.39 16.394-3.21zM270.181 82.97c0 .18-11.215 2.75-25.099 5.76s-25.199 5.3-25.239 5.12c-.039-.18 11.195-2.75 25.1-5.74 13.904-2.98 25.198-5.3 25.238-5.14zM271.974 91.32c0 .18-11.195 2.75-25.099 5.74s-25.179 5.36-25.179 5.14c0-.22 11.195-2.75 25.099-5.76s25.139-5.3 25.179-5.12zM273.767 99.67c0 .16-11.195 2.73-25.079 5.73-13.885 3.01-25.199 5.3-25.239 5.12-.04-.18 11.195-2.73 25.099-5.73 13.904-3.01 25.199-5.3 25.219-5.12zM275.58 107.99c0 .18-11.195 2.75-25.1 5.74-13.904 2.99-25.198 5.3-25.238 5.14-.04-.16 11.215-2.75 25.099-5.76 13.884-3 25.139-5.28 25.239-5.12zM277.472 116.36c0 .16-11.195 2.73-25.099 5.74-13.904 3-25.179 5.3-25.219 5.12-.04-.18 11.195-2.73 25.099-5.74 13.904-3.01 25.08-5.32 25.219-5.12zM279.185 124.67c0 .18-11.215 2.75-25.099 5.73-13.884 2.99-25.199 5.3-25.239 5.14-.04-.16 11.195-2.75 25.1-5.75 13.904-3.01 25.198-5.28 25.238-5.12zM257.711 138.03c0 .18-5.976 1.62-13.466 3.23-7.489 1.61-13.565 2.79-13.585 2.61-.02-.18 5.976-1.61 13.446-3.23 7.47-1.61 13.566-2.77 13.605-2.61z" fill="#263238"/><path d="M587.348 290.1l17.21 44.16 7.172-11.57 9.94 13.05 11.852-11.28-11.295-10.87 10.419-7.05-45.298-16.44zM580.874 296.64a47.702 47.702 0 01-6.255 4.34 48.256 48.256 0 01-6.614 3.82 89.92 89.92 0 0112.869-8.16zM582.248 287.67c-.949-.12-1.879-.36-2.769-.72-1.693-.53-3.984-1.35-6.474-2.37-2.49-1.01-4.721-1.99-6.315-2.74-.887-.35-1.73-.81-2.509-1.36.924.22 1.825.54 2.689.94l6.374 2.59 6.375 2.53c.91.29 1.79.67 2.629 1.13zM587.407 267.75c.308.78.515 1.6.618 2.43.299 1.52.657 3.63.956 5.98.299 2.35.478 4.48.558 5.97.101.84.101 1.68 0 2.51-.543-2.8-.942-5.62-1.195-8.46a83.447 83.447 0 01-.937-8.43zM611.212 277.57c0 .18-3.108 1.54-6.694 3.85-3.585 2.31-6.334 4.26-6.533 4.14-.199-.12.597-.66 1.693-1.51 1.096-.86 2.689-2 4.502-3.17a23.234 23.234 0 017.032-3.31z" fill="#9E22E9"/><path d="M187.195 297.63c-.132-1.8-.405-3.59-.817-5.36-.55-2.04-1.403-4-2.53-5.79a21.787 21.787 0 00-5.558-6.16 21.47 21.47 0 00-9.163-3.98 21.744 21.744 0 00-11.414.95 20.761 20.761 0 00-5.478 2.97c-.873.64-1.699 1.34-2.47 2.09a24.35 24.35 0 00-2.112 2.51 21.589 21.589 0 00-4.221 12.82c0 4.62 1.48 9.11 4.221 12.82.645.89 1.35 1.72 2.112 2.51.776.76 1.601 1.46 2.47 2.11a20.052 20.052 0 005.478 2.95 21.58 21.58 0 0010.681 1.1c3.597-.54 7-1.97 9.896-4.17a21.796 21.796 0 005.558-6.17 20.509 20.509 0 002.45-5.8c.41-1.76.683-3.54.817-5.34.009.12.009.24 0 .36v1.04c-.013.57-.067 1.14-.159 1.71-.08.77-.22 1.54-.419 2.29a20.579 20.579 0 01-2.39 5.98 22.222 22.222 0 01-6.293 6.83 21.97 21.97 0 01-8.548 3.64c-3.916.75-7.961.44-11.713-.91a21.172 21.172 0 01-5.617-3.07c-.9-.66-1.752-1.37-2.55-2.15a25.613 25.613 0 01-2.171-2.57 22.114 22.114 0 010-26.38 22.66 22.66 0 012.191-2.58c.786-.79 1.632-1.52 2.53-2.18a21.161 21.161 0 015.637-3 22.04 22.04 0 0111.713-.94c3.092.6 6.021 1.85 8.593 3.67a22.064 22.064 0 016.327 6.87 20.522 20.522 0 012.391 5.97c.201.76.341 1.53.418 2.31.093.56.147 1.13.16 1.7v1.05c-.001.1-.008.2-.02.3z" fill="#263238"/><path d="M165.183 308.67c-.398-7.36-.398-14.74 0-22.09.425 7.35.425 14.73 0 22.09z" fill="#263238"/><path d="M176.239 297.63c-3.671.3-7.355.4-11.036.3-3.688.1-7.378 0-11.056-.3 3.676-.32 7.368-.42 11.056-.32 3.682-.1 7.366 0 11.036.32zM524.759 368.75c-.14 0-15.378-23.47-34.023-52.63-18.646-29.17-33.645-52.87-33.486-52.97.159-.1 15.378 23.47 34.023 52.63 18.645 29.16 33.625 52.87 33.486 52.97z" fill="#263238"/><path d="M531.372 420.2c19.528 0 35.358-15.83 35.358-35.36s-15.83-35.36-35.358-35.36c-19.527 0-35.358 15.83-35.358 35.36s15.831 35.36 35.358 35.36z" fill="#fff"/><path d="M496.014 384.84v-.58-2.92c0-.46.14-.96.2-1.5.144-1.24.377-2.46.697-3.66a33.671 33.671 0 013.864-9.49 35.541 35.541 0 0110.132-11 35.419 35.419 0 0113.772-5.83 30.96 30.96 0 014.502-.54c.777 0 1.534-.12 2.331-.1l2.35.12c.795.02 1.588.1 2.371.24.797.14 1.613.24 2.41.4a35.6 35.6 0 014.741 1.38c1.596.56 3.153 1.22 4.661 1.99.757.42 1.475.89 2.231 1.33.754.44 1.473.93 2.152 1.48 1.4 1.05 2.731 2.2 3.984 3.42a43.057 43.057 0 013.506 4.13 35.21 35.21 0 015.099 9.84 37.835 37.835 0 011.833 11.23 37.22 37.22 0 01-1.833 11.26 34.794 34.794 0 01-5.099 9.84 44.192 44.192 0 01-3.506 4.12 41.033 41.033 0 01-3.984 3.43c-.683.54-1.402 1.04-2.152 1.49-.756.44-1.474.92-2.231 1.32a35.773 35.773 0 01-4.661 1.99c-1.55.56-3.133 1.02-4.741 1.39-.797.16-1.613.24-2.41.38-.783.15-1.575.23-2.371.26h-4.681c-1.51-.09-3.013-.27-4.502-.54a35.442 35.442 0 01-13.769-5.85 35.366 35.366 0 01-10.135-11 33.317 33.317 0 01-3.864-9.48 25.531 25.531 0 01-.697-3.67c0-.54-.16-1.03-.2-1.49-.039-.46 0-.86 0-1.24v-2.25c.014.19.014.37 0 .56l.12 1.69v1.22c0 .46.159.95.239 1.49.148 1.23.394 2.44.737 3.63a33.54 33.54 0 003.984 9.36 35.36 35.36 0 0010.094 10.8 35.353 35.353 0 0013.631 5.71c1.468.27 2.952.44 4.442.52h2.271l2.33-.12a15.2 15.2 0 002.331-.26c.797-.14 1.574-.22 2.37-.38 1.587-.36 3.15-.82 4.682-1.37a42.028 42.028 0 004.561-1.99c.737-.4 1.455-.88 2.192-1.32a20.34 20.34 0 002.111-1.45 39.083 39.083 0 003.984-3.39 35.656 35.656 0 003.446-3.98 33.824 33.824 0 005-9.66 34.616 34.616 0 000-22.11 34.02 34.02 0 00-5-9.64 32.783 32.783 0 00-7.41-7.45 20.338 20.338 0 00-2.112-1.46c-.737-.44-1.454-.9-2.191-1.29a36.04 36.04 0 00-4.561-2 36.363 36.363 0 00-4.682-1.37c-.796-.18-1.573-.26-2.37-.4-.771-.13-1.549-.22-2.331-.26l-2.33-.12c-.757 0-1.514 0-2.271.1-1.491.07-2.975.23-4.442.5a35.212 35.212 0 00-13.631 5.72 35.213 35.213 0 00-10.094 10.79 33.474 33.474 0 00-3.984 9.37 22.689 22.689 0 00-.737 3.64c0 .52-.179 1.02-.239 1.48v1.23l-.12 1.67c.009.22.002.43-.02.64zM390.299 371.12c-.16 0-.299-24.37-.299-54.38 0-30.02.139-54.37.299-54.37.159 0 .319 24.35.319 54.37 0 30.01-.14 54.38-.319 54.38z" fill="#263238"/><path d="M389.582 420.98c19.527 0 35.358-15.83 35.358-35.36s-15.831-35.36-35.358-35.36c-19.528 0-35.358 15.83-35.358 35.36s15.83 35.36 35.358 35.36z" fill="#fff"/><path d="M354.244 385.62v-.56V382.13c0-.46.139-.95.199-1.49.143-1.24.376-2.48.697-3.69a33.613 33.613 0 013.865-9.48 35.83 35.83 0 0110.148-10.98c4.12-2.9 8.808-4.89 13.756-5.85 1.486-.28 2.99-.46 4.501-.54h2.331l2.351.1c.802.03 1.601.11 2.39.26.777.14 1.594.22 2.39.38 1.614.37 3.203.83 4.761 1.39 1.593.55 3.144 1.22 4.642 1.99.757.4 1.474.88 2.231 1.32.749.45 1.468.95 2.151 1.49a38.615 38.615 0 013.984 3.43 41.547 41.547 0 013.506 4.12 34.686 34.686 0 015.1 9.82 35.13 35.13 0 010 22.51 34.047 34.047 0 01-5.1 9.82 32.147 32.147 0 01-7.55 7.57c-.678.55-1.397 1.04-2.151 1.48-.757.44-1.474.91-2.231 1.33a37.959 37.959 0 01-9.402 3.41c-.797.16-1.614.26-2.411.38-.781.15-1.574.24-2.37.26l-2.351.12c-.796 0-1.553 0-2.33-.1a30.96 30.96 0 01-4.502-.54 35.559 35.559 0 01-13.764-5.84 35.617 35.617 0 01-10.14-10.99 33.674 33.674 0 01-3.865-9.49 25.665 25.665 0 01-.697-3.68c0-.54-.159-1.02-.199-1.48-.04-.45 0-.87 0-1.23v-1.69-.58.58l.099 1.67v1.23c0 .46.16.94.24 1.48.145 1.23.392 2.45.737 3.64a33.445 33.445 0 003.984 9.37 35.26 35.26 0 008.944 9.96 34.773 34.773 0 0014.78 6.53c1.466.29 2.951.46 4.442.52h2.271l2.331-.14c.788-.02 1.574-.1 2.351-.24.776-.14 1.573-.24 2.35-.4 1.589-.35 3.153-.81 4.681-1.37a34.444 34.444 0 004.562-2c.737-.39 1.454-.85 2.191-1.29.736-.44 1.442-.92 2.112-1.45a43.079 43.079 0 003.984-3.39 39.865 39.865 0 003.446-3.98 33.804 33.804 0 005-9.67 37.347 37.347 0 001.813-11.05 38.04 38.04 0 00-1.813-11.06 34.264 34.264 0 00-5-9.66 33.418 33.418 0 00-7.41-7.43 20.354 20.354 0 00-2.112-1.45c-.737-.44-1.454-.92-2.191-1.32a41.705 41.705 0 00-4.562-1.99 36.302 36.302 0 00-4.681-1.37c-.777-.16-1.574-.24-2.351-.38a15.46 15.46 0 00-2.35-.26l-2.311-.12h-2.291c-1.49.08-2.973.25-4.442.52a35.342 35.342 0 00-13.63 5.71 35.376 35.376 0 00-10.095 10.8 33.813 33.813 0 00-3.984 9.34c-.341 1.2-.587 2.42-.737 3.65 0 .54-.179 1.03-.239 1.47v1.24l-.099 1.69.04.58z" fill="#263238"/><path d="M389.582 369.78l-15.339 13.95v17.67h11.952v-10.6h7.59v10.6h11.135v-17.67l-15.338-13.95zM253.568 369.98c-.159-.1 15.079-24.16 33.984-53.78 18.904-29.62 34.381-53.51 34.541-53.43.159.08-15.08 24.16-34.004 53.79-18.924 29.62-34.521 53.5-34.521 53.42z" fill="#263238"/><path d="M247.731 420.54c19.528 0 35.358-15.83 35.358-35.36s-15.83-35.36-35.358-35.36c-19.527 0-35.358 15.83-35.358 35.36s15.831 35.36 35.358 35.36z" fill="#fff"/><path d="M283.089 385.28a4.677 4.677 0 010-.58l-.119-1.67v-1.24c0-.45-.14-.93-.219-1.47a25.712 25.712 0 00-.757-3.65 33.451 33.451 0 00-3.984-9.36 35.406 35.406 0 00-8.964-9.96 34.644 34.644 0 00-14.781-6.53 28.593 28.593 0 00-4.422-.52c-.757 0-1.514-.1-2.291 0l-2.33.12c-.783.02-1.563.1-2.331.26-.777.12-1.574.22-2.351.38a38.662 38.662 0 00-9.262 3.38c-.738.4-1.435.86-2.172 1.3-.739.43-1.444.92-2.111 1.45a39.083 39.083 0 00-3.984 3.39 41.152 41.152 0 00-3.427 3.98 34.113 34.113 0 00-5.019 9.66 35.003 35.003 0 000 22.12 34.234 34.234 0 005.019 9.64 32.054 32.054 0 007.411 7.45 17.77 17.77 0 002.111 1.45c.737.44 1.434.92 2.172 1.32 1.486.75 3.016 1.42 4.581 1.99 1.528.56 3.092 1.02 4.681 1.37.777.16 1.574.26 2.351.38.776.15 1.561.23 2.35.26l2.311.12h2.291c1.49-.08 2.974-.25 4.442-.52a35.447 35.447 0 0013.601-5.77 35.483 35.483 0 0010.064-10.82 34.178 34.178 0 003.984-9.36c.324-1.2.57-2.41.737-3.63 0-.54.179-1.04.219-1.47v-1.24l.12-1.69a3.739 3.739 0 010-.56c.013.19.013.39 0 .58v2.91c0 .45-.12.95-.199 1.49a26.225 26.225 0 01-.698 3.69 32.611 32.611 0 01-3.844 9.46 35.557 35.557 0 01-10.141 10.99 35.598 35.598 0 01-13.763 5.86 34.06 34.06 0 01-4.502.54c-.757 0-1.534.1-2.311.1l-2.37-.12c-.796-.03-1.588-.12-2.371-.26-.797-.12-1.593-.22-2.39-.38a39.257 39.257 0 01-4.761-1.39 37.446 37.446 0 01-4.661-2c-.757-.39-1.474-.87-2.211-1.31-.75-.45-1.469-.95-2.152-1.49a40.104 40.104 0 01-3.984-3.43 42.513 42.513 0 01-3.486-4.12 35.03 35.03 0 01-5.119-9.83 35.44 35.44 0 010-22.5 34.485 34.485 0 015.119-9.83 31.665 31.665 0 017.55-7.57c.679-.54 1.398-1.03 2.151-1.47.737-.44 1.454-.92 2.211-1.33 1.51-.77 3.067-1.43 4.662-2a37.486 37.486 0 014.76-1.37c.797-.16 1.594-.26 2.391-.38.781-.15 1.574-.24 2.37-.26l2.371-.12c.777 0 1.554 0 2.311.1 1.511.08 3.015.26 4.501.54a35.103 35.103 0 0114.96 6.69 35.737 35.737 0 018.984 10.14 32.871 32.871 0 013.845 9.48 25.8 25.8 0 01.697 3.69c0 .52.159 1.02.199 1.47V384.76c-.002.18-.016.35-.04.52z" fill="#263238"/><path d="M261.397 366.77h-27.749v36.82h27.749v-36.82z" fill="#263238"/><path d="M248.887 372.65c-3.027.43-6.097.43-9.124 0 3.027-.42 6.097-.42 9.124 0zM256.915 377.83c-3.024.32-6.066.43-9.104.32-3.045.11-6.093 0-9.123-.32 3.03-.32 6.078-.43 9.123-.32 3.038-.11 6.08 0 9.104.32zM256.915 380.98c-3.024.32-6.066.42-9.104.32-3.045.1-6.093 0-9.123-.32 3.03-.32 6.078-.43 9.123-.32 3.038-.11 6.08 0 9.104.32zM256.915 384.12c-3.024.32-6.066.43-9.104.32-3.045.11-6.093 0-9.123-.32 3.03-.32 6.078-.42 9.123-.31 3.038-.11 6.08-.01 9.104.31zM256.915 387.27c-3.024.32-6.066.43-9.104.32-3.045.11-6.093 0-9.123-.32 3.03-.32 6.078-.42 9.123-.32 3.038-.1 6.08 0 9.104.32zM256.915 390.42c-3.024.32-6.066.43-9.104.32-3.045.11-6.093 0-9.123-.32 3.03-.32 6.078-.43 9.123-.32 3.038-.11 6.08 0 9.104.32zM256.915 393.57c-3.024.32-6.066.42-9.104.32-3.045.1-6.093 0-9.123-.32 3.03-.32 6.078-.43 9.123-.32 3.038-.11 6.08 0 9.104.32zM256.915 396.71c-3.024.32-6.066.43-9.104.32-3.045.11-6.093 0-9.123-.32 3.03-.32 6.078-.42 9.123-.31 3.038-.11 6.08-.01 9.104.31z" fill="#455A64"/><path d="M551.352 202.85H241.536c-16.81 0-30.437 13.63-30.437 30.44 0 16.81 13.627 30.44 30.437 30.44h309.816c16.81 0 30.438-13.63 30.438-30.44 0-16.81-13.628-30.44-30.438-30.44z" fill="#fff"/><path d="M499.66 202.29v61.48h51.792c4.044.01 8.05-.78 11.788-2.32a30.795 30.795 0 009.997-6.66 30.82 30.82 0 006.677-9.99 30.74 30.74 0 002.334-11.79 30.725 30.725 0 00-30.717-30.72H499.66z" fill="#9E22E9"/><path d="M547.846 231.3a29.26 29.26 0 00-.518-3.13 12.877 12.877 0 00-4.741-6.99 12.642 12.642 0 00-5.751-2.4c-2.087-.31-4.218-.1-6.201.63-1.148.4-2.224.98-3.187 1.73a11.466 11.466 0 00-2.769 2.79 12.65 12.65 0 000 14.96 12.103 12.103 0 002.689 2.69 12.47 12.47 0 003.188 1.73c2.134.78 4.436.98 6.673.58a12.603 12.603 0 005.358-2.35c2.312-1.74 3.98-4.2 4.741-6.99.23-1.04.403-2.09.518-3.15.076 1.08-.018 2.16-.279 3.21a13.072 13.072 0 01-4.701 7.29 13.135 13.135 0 01-5.997 2.61c-2.189.35-4.43.13-6.513-.62-2.462-.9-4.608-2.5-6.175-4.6a13.203 13.203 0 01-2.59-7.85c0-2.83.908-5.58 2.59-7.85a13.066 13.066 0 012.829-2.81 12.55 12.55 0 013.346-1.79 13.34 13.34 0 016.972-.54c2.468.48 4.746 1.66 6.561 3.39a13.121 13.121 0 013.678 6.41c.247 1 .341 2.02.279 3.05z" fill="#fff"/><path d="M559.898 249.45a65.176 65.176 0 01-7.49-4.96 64.376 64.376 0 01-7.092-5.48 62.423 62.423 0 017.47 4.96 64.983 64.983 0 017.112 5.48z" fill="#fff"/><path d="M472.947 227.59h-226.61v13.03h226.61v-13.03z" fill="#EBEBEB"/><path d="M552.926 263.77l2.091-.14c.862-.06 1.72-.16 2.57-.32 1.171-.19 2.329-.46 3.466-.8a29.347 29.347 0 008.884-4.46l1.215-.9 1.156-1.05c.824-.74 1.596-1.53 2.311-2.37.776-.82 1.394-1.81 2.151-2.77l.956-1.57.478-.82.418-.86c1.213-2.42 2.065-5 2.53-7.67.12-.69.219-1.41.319-2.13l.12-2.21v-4.58a28.64 28.64 0 00-8.343-19.46 28.66 28.66 0 00-19.426-8.43h-26.254l-287.605.1a28.738 28.738 0 00-18.924 7.19 28.345 28.345 0 00-9.363 17.67 21.05 21.05 0 00-.199 2.51v2.55c-.024 1.69.043 3.38.199 5.06a27.444 27.444 0 002.869 9.54 28.312 28.312 0 009.695 10.96 28.317 28.317 0 0013.87 4.66c1.614.12 3.247.1 4.88.1h190.874l87.17.1h31.852-309.955c-1.634 0-3.267 0-4.921-.1a28.959 28.959 0 01-14.171-4.75 28.999 28.999 0 01-9.912-11.19 27.901 27.901 0 01-2.928-9.78c-.162-1.7-.236-3.41-.219-5.12v-2.57c.013-.86.086-1.72.219-2.57a28.775 28.775 0 019.562-18.04 29.291 29.291 0 0119.342-7.37l287.605.09h26.254a28.99 28.99 0 0119.7 8.6 28.963 28.963 0 018.368 19.79v4.6c0 .76-.1 1.5-.14 2.23-.04.74-.219 1.44-.319 2.15a28.157 28.157 0 01-2.589 7.73l-.419.86-.497.82-.977 1.57c-.675.97-1.4 1.91-2.171 2.81a25.84 25.84 0 01-2.33 2.35l-1.176 1.06-1.215.91a28.985 28.985 0 01-8.964 4.42c-1.142.34-2.307.59-3.486.76-.848.16-1.707.26-2.57.3l-2.051.54z" fill="#263238"/><path d="M392.331 225.92c-1.116-1.29-1.215-2.37 1.255-2.59 5.478-.5 9.501-2.89 10.139-4.26.637-1.38-1.096-2.75-2.57-1.99a20.622 20.622 0 01-5.338 1.51c-1.472.24-2.971.24-4.443 0a55.35 55.35 0 01-3.386-.64 26.58 26.58 0 01-8.287-3.19l-12.25 13.15 5.737 6.5a8.757 8.757 0 007.669 3.6 39.118 39.118 0 0011.553-3.98c.897-1.38 8.845 3.52 11.395 5.36 2.549 1.83 4.442 1.37 4.342-.4 0-1.2-7.749-7.01-10.318-8.77a31.469 31.469 0 01-5.498-4.34" fill="#FFBE9D"/><path d="M385.04 237.25s-.339.22-.976.22a4.227 4.227 0 01-3.725-2.83c-.179-.59-.14-.99 0-.99.139 0 .478 1.43 1.892 2.47.857.55 1.81.93 2.809 1.13zM389.98 235.34s-.339.2-.956.16a3.722 3.722 0 01-2.151-.86 3.906 3.906 0 01-1.375-1.89c-.179-.56-.139-.93 0-.95.14-.02.518 1.35 1.833 2.35.817.53 1.71.93 2.649 1.19z" fill="#EB996E"/><path d="M403.187 99.19c.518 10.76 13.625 25.48 23.366 27.89 5.12 1.23 11.016.65 15.08 4.1 6.972 5.98 2.888 18.15 7.589 26.06 2.889 4.88 8.626 7.27 11.952 11.95 5.398 7.69 1.773 19.3-5.597 25.02-7.371 5.71-17.171 6.81-26.394 6.57-20.319-.52-41.115-6.97-55.776-21.37-6.893-6.76-33.864-27.63-24.462-77.11" fill="#263238"/><path d="M476.493 176.12l-77.23-22.93a47.964 47.964 0 00-11.235-3.38l-26.075.17c-3.421-.01-6.809.67-9.96 2l-70.278 23.34a13.444 13.444 0 00-6.519 5.1 13.41 13.41 0 00-2.286 7.95c0 7.49 5.399 13.57 12.072 13.57h32.33c0 .3-.139.47-.139.47l112.886.42h43.087c6.653 0 12.052-6.13 12.052-13.7.076-2.81-.721-5.56-2.28-7.89a13.547 13.547 0 00-6.425-5.12z" fill="#4B4AA1"/><path d="M461.015 184.45h-.697l-1.992-.22c-1.733-.22-4.223-.5-7.311-.8-8.05-.78-16.136-1.12-24.223-1.02-8.084.12-16.157.66-24.183 1.64-3.087.38-5.577.74-7.29.99l-1.992.28a2.71 2.71 0 01-.697 0c.215-.09.443-.15.677-.18l1.992-.39c1.693-.34 4.183-.76 7.271-1.2a195.374 195.374 0 0148.505-.64c3.087.36 5.597.72 7.31 1l1.992.36c.219.03.433.09.638.18z" fill="#263238"/><path opacity=".6" d="M442.808 165.68s0 .1-.219.26l-.677.72c-.598.62-1.494 1.53-2.729 2.65a42.715 42.715 0 01-4.682 3.76 23.595 23.595 0 01-7.211 3.45c-3.181.79-6.515.72-9.661-.2a47.114 47.114 0 01-10.159-4.48 60.356 60.356 0 00-10.996-5.16 16.884 16.884 0 00-12.569.66c-3.984 1.83-7.53 4.62-11.295 6.63-.936.52-1.992.91-2.889 1.35-.896.44-1.991.74-2.968 1-1.949.55-3.953.89-5.976 1.02a30.55 30.55 0 01-19.76-5.44 54.126 54.126 0 01-5.976-5.3 28.795 28.795 0 00-4.622-3.77 12.513 12.513 0 00-4.721-1.77c.443 0 .884.06 1.315.16 1.255.25 2.455.72 3.546 1.39a29.812 29.812 0 014.741 3.73 52.592 52.592 0 005.976 5.2 30.557 30.557 0 0019.462 5.22c1.969-.15 3.918-.49 5.816-1.04.976-.24 1.992-.62 2.909-.95.916-.34 1.892-.84 2.808-1.34 3.705-1.99 7.171-4.8 11.335-6.67a17.535 17.535 0 0113.007-.68 62.382 62.382 0 0111.096 5.24 47.303 47.303 0 009.96 4.5c3.056.92 6.3 1.01 9.402.26a22.985 22.985 0 007.132-3.29 46.942 46.942 0 004.721-3.66c1.235-1.1 2.171-1.99 2.808-2.57l.717-.66c.359-.16.359-.24.359-.22z" fill="#fff"/><path opacity=".2" d="M322.91 184.29l48.803 9.2-5.637 9.18-1.474.02-41.692-18.4z" fill="#000"/><path opacity=".6" d="M470.696 174.65c.021.24.021.49 0 .73-.024.72-.097 1.43-.219 2.13a18.43 18.43 0 01-4.103 8.86 18.504 18.504 0 01-8.048 5.53 18.907 18.907 0 01-6.873 1.07 31.32 31.32 0 01-7.31-1.33c-2.45-.7-4.801-1.46-7.112-1.99a19.663 19.663 0 00-6.753-.36 21.567 21.567 0 00-10.517 4.3 20.778 20.778 0 00-5.239 5.72l-.638 1.05-.398.8c-.1.23-.22.45-.359.66.051-.24.131-.48.239-.7l.359-.84.597-1.09c1.3-2.32 3.055-4.35 5.16-5.98a21.505 21.505 0 0110.717-4.54 21.09 21.09 0 016.952.32c2.35.48 4.721 1.23 7.151 1.99a30.71 30.71 0 007.171 1.33c3.056.1 6.087-.56 8.825-1.92a18.567 18.567 0 006.872-5.86 19.112 19.112 0 003.068-7.1c.458-1.77.458-2.8.458-2.78z" fill="#fff"/><path d="M281.735 200.44s88.246 38.95 87.787 38.07c-.458-.88 13.944-26.43 13.944-26.43l-71.493-35.34-30.238 23.7z" fill="#4B4AA1"/><path d="M322.232 181.8c.634.19 1.248.44 1.833.75l4.84 2.29c4.104 2 9.721 4.71 15.936 7.75a814.044 814.044 0 0115.837 7.97l4.781 2.45c.598.28 1.172.62 1.713 1-.625-.2-1.231-.46-1.813-.76l-4.861-2.29c-3.984-1.99-9.72-4.7-15.936-7.77-6.215-3.07-11.812-5.87-15.936-7.97l-4.78-2.47c-.561-.28-1.1-.6-1.614-.95z" fill="#263238"/><path opacity=".6" d="M341.614 193.61c-.108.91-.385 1.8-.816 2.61a12.377 12.377 0 01-5.259 5.26 16.46 16.46 0 01-4.901 1.75c-1.98.3-3.995.3-5.976 0a45.058 45.058 0 01-12.868-4.32 66.62 66.62 0 00-12.41-4.86 22.06 22.06 0 00-5.777-.68c-1.697.05-3.38.33-5 .84a13.691 13.691 0 00-6.155 3.86 26.93 26.93 0 00-1.594 2.19c.336-.85.814-1.65 1.415-2.35a13.38 13.38 0 016.195-4.12c1.65-.57 3.376-.88 5.119-.94 2.011-.06 4.021.15 5.976.62 4.37 1.2 8.603 2.86 12.63 4.94a46.313 46.313 0 0012.689 4.3c1.92.3 3.876.3 5.796 0 1.67-.29 3.283-.84 4.781-1.63a12.554 12.554 0 005.259-4.98c.343-.81.643-1.64.896-2.49zM379.064 220.28c0 .12-1.992-.2-5.119-.26-4.1-.06-8.187.48-12.132 1.6a44.81 44.81 0 00-6.334 2.37 42.976 42.976 0 00-4.861 2.65c-2.649 1.69-4.123 2.99-4.203 2.89.29-.36.617-.68.976-.96.948-.83 1.946-1.6 2.988-2.31a39.064 39.064 0 014.841-2.81 39.952 39.952 0 0113.147-3.73 36.07 36.07 0 015.597-.13c1.257.04 2.508.17 3.745.39.461.06.915.16 1.355.3z" fill="#fff"/><path opacity=".2" d="M389.96 149.63c-1.454 4.08.737 8.46 2.849 12.25a34.017 34.017 0 005.119 7.43c1.02 1.1 2.25 1.99 3.619 2.61 1.369.62 2.848.96 4.349.99 3.984-.14 7.51-3.06 11.474-2.83a15.3 15.3 0 017.291 3.25 55.65 55.65 0 0012.231 6.77 21.875 21.875 0 0013.745.88 13.723 13.723 0 005.979-3.47 13.717 13.717 0 003.522-5.95" fill="#000"/><path d="M390.299 148.49c.199-4.74.458-9.04.458-9.04s10.617-1.34 11.076-12.17c.458-10.84-.638-35.86-.638-35.86l-19.521-9.38-21.036 16.93 3.307 49.8a13.202 13.202 0 004.368 8.97 13.195 13.195 0 0018.126-.52 13.225 13.225 0 003.86-8.73z" fill="#FFBE9D"/><path d="M399.382 111.08a1.354 1.354 0 01-.845 1.24c-.247.1-.517.12-.778.07a1.32 1.32 0 01-.689-.37 1.372 1.372 0 01-.37-.69c-.052-.26-.027-.53.073-.78.1-.24.27-.46.49-.61.22-.15.479-.23.745-.23.363 0 .709.15.966.4.257.26.403.61.408.97zM400.677 108.17c-.159.2-1.175-.65-2.629-.71-1.454-.06-2.53.67-2.69.47-.159-.2.001-.41.578-.75a3.443 3.443 0 012.152-.62c.73.05 1.426.33 1.992.8.537.39.697.73.597.81zM383.267 111.08c0 .36-.143.7-.397.96-.254.25-.598.4-.957.4-.36 0-.704-.15-.958-.4a1.37 1.37 0 01-.397-.96c0-.36.143-.7.397-.96.254-.25.598-.39.958-.39.359 0 .703.14.957.39.254.26.397.6.397.96zM384.582 108.39c-.179.2-1.195-.66-2.65-.72-1.454-.05-2.529.68-2.689.48-.159-.2 0-.42.578-.75a3.442 3.442 0 012.151-.62c.735.05 1.433.34 1.992.82.538.43.697.79.618.79zM390.04 120.96a9.502 9.502 0 012.37-.36c.359 0 .718 0 .777-.36.054-.41-.023-.83-.219-1.19-.338-.98-.677-1.99-1.056-3.07a52.94 52.94 0 01-2.33-7.97 56.554 56.554 0 012.928 7.83c.359 1.08.677 1.99.996 3.09.234.49.297 1.04.179 1.57a.857.857 0 01-.245.35.914.914 0 01-.372.21c-.212.03-.426.03-.638 0a8.33 8.33 0 01-2.39-.1z" fill="#263238"/><path d="M385.259 122.46c-1.494-.98 4.104 2.41 7.072 2.37a3.927 3.927 0 01-2.139 1.58 3.99 3.99 0 01-2.662-.11 3.123 3.123 0 01-1.935-1.45 3.142 3.142 0 01-.336-2.39z" fill="#fff"/><path d="M390.757 139.45a26.025 26.025 0 01-14.064-4.6s3.307 7.96 13.945 7.25l.119-2.65z" fill="#EB996E"/><path d="M349.184 109.71c0 9.38-2.49 34.18 14.601 37.63l-.617-34.17s16.553-7.81 19.342-24.06l.1.1c1.056 2.45 2.948 7.73 1.793 11.95l15.517 3.83 1.773 1.63a21.34 21.34 0 00-5.119-23.07c-10.658-10.97-19.761-3.03-25.478-3.7-3.785-.46-16.952-.38-22.31 22.31l.398 7.55z" fill="#263238"/><path d="M363.646 113.55a3.757 3.757 0 00-2.471-.24c-.828.2-1.564.67-2.091 1.34a6.206 6.206 0 00-.754 7.44 6.177 6.177 0 003.01 2.55c1.254.5 2.637.58 3.939.23" fill="#FFBE9D"/><path d="M363.307 121.62s-.478.18-1.235 0a3.284 3.284 0 01-1.384-.71 3.25 3.25 0 01-.887-1.28 2.33 2.33 0 010-1.76c.209-.44.532-.82.937-1.09.677-.44 1.195-.4 1.195-.32 0 .08-.419.22-.936.68-.33.27-.57.63-.687 1.04a2.1 2.1 0 00.029 1.25c.166.4.412.77.723 1.08a3.2 3.2 0 001.09.71c.717.24 1.175.32 1.155.4z" fill="#EB996E"/><path d="M361.893 123.77c-.301.06-.569.23-.752.48-.183.24-.268.55-.238.85.03.31.172.59.399.8.227.2.523.32.83.32.307 0 .603-.12.83-.32.227-.21.369-.49.399-.8.03-.3-.055-.61-.238-.85a1.228 1.228 0 00-.752-.48" fill="#9E22E9"/><path d="M393.307 202.97v-17.81s-26.454 5.48-26.932 17.59l26.932.22z" fill="#FFBE9D"/><path d="M390.558 146.62a22.166 22.166 0 006.92 14.39 22.192 22.192 0 0014.793 6.01c3.984 0 7.968-.86 11.573.73 3.108 1.38 5.1 4.39 7.55 6.76a22.337 22.337 0 0022.171 5c3.207-1.08 8.286-3.37 8.884-6.7.458-2.53-2.649-5.06-4.462-6.87a22.59 22.59 0 00-6.514-3.98c-18.844-8.85-39.063-15.3-59.859-16.4M516.074 388.91a13.205 13.205 0 006.992 7.01 13.327 13.327 0 0010.278 0l.797-.38 7.371 7.39a3.46 3.46 0 002.45 1.01c.919 0 1.8-.36 2.45-1.01l.598-.6a3.466 3.466 0 000-4.9l-7.271-7.27c.223-.41.422-.83.597-1.25 1.02-2.42 1.298-5.08.797-7.65-.5-2.58-1.755-4.94-3.605-6.8a13.337 13.337 0 00-4.184-2.83 13.327 13.327 0 00-10.278 0 13.322 13.322 0 00-4.183 2.83 13.117 13.117 0 00-2.809 14.45zm20.557 1.55c-.617.76-1.334 1.43-2.131 1.99-.672.51-1.409.92-2.191 1.24a10.747 10.747 0 01-7.269.3 10.715 10.715 0 01-4.176-17.99 10.673 10.673 0 016.66-2.92 10.719 10.719 0 0111.098 8c.626 2.42.387 4.99-.676 7.25-.35.76-.791 1.47-1.315 2.13zm8.665 8.68a1.022 1.022 0 010 1.48l-.577.6c-.204.19-.474.31-.757.31-.278 0-.542-.12-.737-.31l-6.992-7c.459-.34.892-.72 1.295-1.13.279-.28.557-.6.816-.9l6.952 6.95z" fill="#263238"/><path d="M543.962 403.96a3.51 3.51 0 01-2.47-1.01l-7.351-7.37-.797.36a13.178 13.178 0 01-7.672.79c-2.58-.5-4.951-1.76-6.809-3.62a13.235 13.235 0 01-2.829-14.48 13.243 13.243 0 013.851-5.11 13.31 13.31 0 015.795-2.7c2.123-.41 4.316-.3 6.385.34 2.069.63 3.951 1.76 5.483 3.28a13.28 13.28 0 013.617 6.81c.504 2.58.229 5.25-.789 7.68-.179.39-.378.81-.597 1.23l7.25 7.25c.328.32.588.71.766 1.13a3.466 3.466 0 01-.766 3.81l-.597.6c-.324.32-.709.58-1.133.75a3.24 3.24 0 01-1.337.26zm-9.821-8.44l7.39 7.39c.649.64 1.521.99 2.431 1 .45 0 .897-.09 1.314-.26a3.38 3.38 0 001.116-.74l.598-.6a3.437 3.437 0 001.002-2.43c0-.91-.36-1.78-1.002-2.43l-7.291-7.29c.223-.41.422-.83.597-1.25a13.159 13.159 0 000-10.24 13.169 13.169 0 00-2.808-4.17 12.94 12.94 0 00-4.183-2.83 13.233 13.233 0 00-10.239 0 12.944 12.944 0 00-4.184 2.83 13.169 13.169 0 00-2.808 4.17 13.161 13.161 0 00-.791 7.63 13.229 13.229 0 003.599 6.79 13.227 13.227 0 006.779 3.62c2.57.5 5.231.23 7.644-.79l.796-.38.04-.02zm9.821 5.97a1.07 1.07 0 01-.757-.31l-7.012-7.02c.454-.35.886-.73 1.295-1.13.287-.29.56-.58.816-.9l6.972 6.97c.104.1.187.22.243.35a1.022 1.022 0 010 .82 1.08 1.08 0 01-.243.35l-.577.6c-.196.2-.458.32-.737.33v-.06zm-7.689-7.33l6.972 6.98c.19.19.448.29.717.29.136.01.272-.02.399-.07.126-.05.241-.13.338-.22l.597-.6a1.062 1.062 0 000-1.44l-6.872-6.87c-.259.3-.518.6-.797.88-.422.4-.875.78-1.354 1.11v-.06zm-8.068.34c-2.344.01-4.626-.75-6.502-2.16a10.796 10.796 0 01-3.901-5.63 10.82 10.82 0 014.588-12.16 10.889 10.889 0 016.649-1.65c2.336.19 4.55 1.13 6.307 2.68a10.822 10.822 0 011.305 14.84c-.618.76-1.335 1.43-2.131 1.99-.683.49-1.418.89-2.192 1.22-1.299.58-2.7.9-4.123.93v-.06zm0-21.51c-1.588 0-3.156.35-4.591 1.03a10.82 10.82 0 00-3.71 2.89 10.74 10.74 0 00-2.234 8.91c.309 1.56.96 3.02 1.906 4.3a10.571 10.571 0 003.562 3.07c1.4.75 2.949 1.18 4.534 1.26 1.586.08 3.17-.2 4.637-.8a10.3 10.3 0 002.191-1.24c.787-.57 1.497-1.24 2.111-1.99a10.622 10.622 0 002.331-6.69 10.746 10.746 0 00-3.166-7.56c-2.012-2-4.734-3.12-7.571-3.12v-.06z" fill="#263238"/></svg>