<svg xmlns="http://www.w3.org/2000/svg" viewBox="0 0 646 450"><defs/><symbol id="a" viewBox="0 0 371 406"><path d="M64.455 110.677c0-1.723-.157-3.418-.452-5.058a2.414 2.414 0 011.19-2.534l3.971-2.285a2.456 2.456 0 00.905-3.354l-5.577-9.647a2.467 2.467 0 00-3.36-.903l-3.971 2.285a2.44 2.44 0 01-2.798-.24 28.579 28.579 0 00-8.772-5.058 2.429 2.429 0 01-1.597-2.294v-4.57a2.462 2.462 0 00-2.466-2.46H30.346a2.462 2.462 0 00-2.465 2.46v4.57c0 1.023-.637 1.953-1.597 2.294a28.578 28.578 0 00-8.772 5.059 2.44 2.44 0 01-2.798.239l-3.97-2.285a2.454 2.454 0 00-3.362.903l-5.577 9.647a2.444 2.444 0 00.905 3.354l3.97 2.285a2.426 2.426 0 011.192 2.534 28.471 28.471 0 000 10.116 2.413 2.413 0 01-1.191 2.534l-3.97 2.285a2.456 2.456 0 00-.906 3.354l5.577 9.647a2.467 2.467 0 003.361.903l3.97-2.285a2.44 2.44 0 012.799.24 28.586 28.586 0 008.772 5.058 2.43 2.43 0 011.597 2.294v4.57a2.462 2.462 0 002.465 2.46h11.155a2.462 2.462 0 002.465-2.46v-4.57c0-1.022.637-1.953 1.597-2.294a28.588 28.588 0 008.772-5.058 2.44 2.44 0 012.798-.24l3.97 2.285a2.455 2.455 0 003.361-.903l5.578-9.647a2.444 2.444 0 00-.905-3.354l-3.97-2.285a2.426 2.426 0 01-1.192-2.534 26.1 26.1 0 00.48-5.058zm-26.528 15.221c-10.055 1.263-18.513-7.177-17.248-17.211.868-6.837 6.399-12.356 13.25-13.222 10.055-1.262 18.513 7.178 17.248 17.211-.858 6.837-6.399 12.356-13.25 13.222zM355.828 86.827c0-2.36-.213-4.673-.622-6.912a3.313 3.313 0 011.635-3.465l5.451-3.124c1.616-.931 2.173-2.986 1.235-4.59l-7.671-13.187a3.4 3.4 0 00-4.625-1.226l-5.461 3.133c-1.226.7-2.768.581-3.845-.331a39.144 39.144 0 00-12.064-6.921 3.33 3.33 0 01-2.201-3.143v-6.248c0-1.852-1.514-3.364-3.39-3.364h-15.343c-1.867 0-3.39 1.502-3.39 3.364v6.248c0 1.4-.873 2.663-2.201 3.143a39.156 39.156 0 00-12.064 6.92 3.368 3.368 0 01-3.845.323l-5.461-3.133a3.4 3.4 0 00-4.625 1.226l-7.671 13.187c-.938 1.604-.381 3.659 1.235 4.59l5.452 3.124a3.314 3.314 0 011.634 3.465 38.47 38.47 0 00-.622 6.911c0 2.36.213 4.673.622 6.912a3.314 3.314 0 01-1.634 3.465l-5.452 3.124c-1.616.931-2.173 2.986-1.235 4.59l7.671 13.187a3.4 3.4 0 004.625 1.226l5.461-3.133c1.226-.701 2.768-.581 3.845.332a39.188 39.188 0 0012.064 6.921 3.329 3.329 0 012.201 3.142v6.248c0 1.853 1.514 3.364 3.39 3.364h15.343c1.867 0 3.39-1.502 3.39-3.364v-6.248c0-1.401.873-2.663 2.201-3.142a39.177 39.177 0 0012.064-6.921 3.382 3.382 0 013.845-.332l5.461 3.133a3.4 3.4 0 004.625-1.226l7.671-13.187c.938-1.604.381-3.659-1.235-4.59l-5.451-3.124a3.313 3.313 0 01-1.635-3.465c.399-2.24.622-4.543.622-6.902zm-36.48 20.799c-13.829 1.733-25.457-9.814-23.711-23.527 1.189-9.354 8.795-16.902 18.222-18.081 13.829-1.733 25.456 9.814 23.71 23.527-1.188 9.354-8.795 16.902-18.221 18.081z" fill="#DCD1E6" stroke="#BEC8D2" stroke-miterlimit="10"/><g opacity=".2"><path opacity=".2" d="M205.826 286.906H103.173v27.333h102.653v-27.333z"/><path opacity=".2" d="M126.639 292.285h-16.563v16.558h16.563v-16.558z"/><path opacity=".2" d="M110.076 292.285l16.563 16.558M126.639 292.285l-16.563 16.558" stroke="#000" stroke-width=".5" stroke-miterlimit="10"/><path opacity=".2" d="M194.273 295.945h-61.869v1.947h61.869v-1.947zM194.273 303.23h-61.869v1.947h61.869v-1.947zM187.602 299.594h-55.198v1.946h55.198v-1.946z"/></g><path d="M179.746 97.095c1.83 0 3.314-1.187 3.314-2.651 0-1.464-1.484-2.651-3.314-2.651s-3.313 1.187-3.313 2.65c0 1.465 1.483 2.652 3.313 2.652zM170.137 82.514c3.111 0 5.633-2.374 5.633-5.302 0-2.928-2.522-5.302-5.633-5.302s-5.633 2.374-5.633 5.302c0 2.928 2.522 5.302 5.633 5.302zM196.315 84.505c1.83 0 3.313-1.187 3.313-2.651 0-1.464-1.483-2.65-3.313-2.65s-3.314 1.186-3.314 2.65 1.484 2.65 3.314 2.65z" fill="#5620D8" stroke="#BEC8D2" stroke-miterlimit="10"/><path d="M316.268 110.348H35.936v180.923h280.332V110.348z" fill="#E5E9ED"/><path d="M316.656 117.941H35.722v15.784h280.934v-15.784z" fill="#BEC8D2"/><path d="M52.433 123.976l1.578 1.66v2.232h-3.156v-2.232l1.578-1.66zm0-1.117a.503.503 0 00-.379.176l-1.91 2.011a.808.808 0 00-.203.544v2.472c0 .397.259.72.582.72h3.83c.322 0 .58-.323.58-.72v-2.472a.776.776 0 00-.203-.544l-1.91-2.011a.557.557 0 00-.387-.176z" fill="#174159"/><path d="M59.86 127.533l2.205-1.421c.249-.166.249-.406 0-.563l-2.206-1.42M45.004 127.533l-2.206-1.421c-.249-.166-.249-.406 0-.563l2.206-1.42" stroke="#174159" stroke-miterlimit="10" stroke-linecap="round"/><path d="M284.157 130.739H71.671a2.4 2.4 0 01-2.4-2.398v-5.009a2.4 2.4 0 012.4-2.398h212.486a2.4 2.4 0 012.399 2.398v5.009a2.4 2.4 0 01-2.399 2.398z" fill="#F2F2F2"/><path d="M213.707 124.355h-71.595v2.962h71.595v-2.962z" fill="#BEC8D2"/><path d="M76.902 124.358c.821.821.821 2.14 0 2.961a2.089 2.089 0 01-2.962 0 2.087 2.087 0 010-2.961 2.089 2.089 0 012.962 0z" stroke="#BEC8D2" stroke-miterlimit="10"/><path d="M76.903 127.316l1.255 1.255M283.3 125.836a2.1 2.1 0 01-2.095 2.094 2.1 2.1 0 01-2.095-2.094 2.1 2.1 0 012.095-2.094" stroke="#BEC8D2" stroke-miterlimit="10" stroke-linecap="round"/><path d="M281.205 123.16l1.117.747-1.117.757v-1.504z" stroke="#BEC8D2" stroke-miterlimit="10" stroke-linecap="round" stroke-linejoin="round"/><path d="M295.581 122.855l.738 2.27h2.381l-1.929 1.402.739 2.269-1.929-1.402-1.938 1.402.739-2.269-1.929-1.402h2.39l.738-2.27zM303.747 123.348h7.797M303.747 125.832h7.797M303.747 128.32h7.797" stroke="#174159" stroke-miterlimit="10" stroke-linecap="round" stroke-linejoin="round"/><path d="M316.656 110.727H35.722v7.213h280.934v-7.213z" fill="#174159"/><path d="M41.35 116.025a1.688 1.688 0 10.001-3.377 1.688 1.688 0 000 3.377z" fill="#FAE54E"/><path d="M45.98 116.025a1.688 1.688 0 100-3.377 1.688 1.688 0 000 3.377z" fill="#2D80EA"/><path d="M52.313 114.337a1.69 1.69 0 01-3.378 0 1.69 1.69 0 013.378 0z" fill="#E148BE"/><path d="M232.54 148.785h-25.024v4.345h25.024v-4.345zM263.773 148.785h-25.024v4.345h25.024v-4.345z" fill="#BEC8D2"/><path d="M238.428 11.773v72.044" stroke="#BEC8D2" stroke-miterlimit="10" stroke-linecap="round"/><path d="M242.774 99.813a1.207 1.207 0 00-1.163 1.246c.046 1.513-1.144 2.942-2.657 3.182-.369.055-.757.083-1.154 0a2.868 2.868 0 01-1.051-.378 3.256 3.256 0 01-1.44-1.725c-.249-.72-.314-1.605.028-2.288 1.707-3.431 5.121-5.627 5.121-9.067 2.473-.85 4.254-3.192 4.254-5.941a6.3 6.3 0 00-6.293-6.291 6.3 6.3 0 00-6.293 6.29c0 2.667 1.67 4.936 4.014 5.859-.222 2.407-3.027 4.575-4.208 7.822-.563 1.55-.443 3.247.148 4.704a6.479 6.479 0 003.045 3.349c1.347.71 2.906.849 4.299.544 1.403-.323 2.658-1.144 3.47-2.26a5.762 5.762 0 001.126-3.791l-.01-.12a1.197 1.197 0 00-1.236-1.135zm-4.346-17.572a2.605 2.605 0 012.602 2.6c0 .877-.443 1.652-1.107 2.123a2.203 2.203 0 00-1.698-.59 2.204 2.204 0 00-1.283.58 2.603 2.603 0 01-1.107-2.121 2.583 2.583 0 012.593-2.592z" fill="#BEC8D2"/><path opacity=".2" d="M285.959 199.156l-40.7 53.461-35.206-26.578-36.272 47.639.417 3.017 159.962-21.901-2.964-21.467-45.237-34.171z"/><path opacity=".2" d="M318.022 164.879l11.961 86.747-152.654 20.911-11.96-86.747 152.653-20.911zm3.169-4.164L161.19 182.632l12.971 94.059 160-21.917-12.97-94.059z"/><path opacity=".2" d="M248.275 209.404c4.634-5.76 3.72-14.186-2.043-18.819-5.762-4.632-14.191-3.718-18.825 2.043-4.634 5.761-3.719 14.186 2.044 18.819 5.762 4.633 14.19 3.718 18.824-2.043z"/><path d="M162.379 165.576l-6.49 24.3 7.952-24.521M294.397 146.566l-53.399-41.465a3.247 3.247 0 00-5.243-.093l-71.914 60.348" stroke="#BEC8D2" stroke-miterlimit="10" stroke-linecap="round" stroke-linejoin="round"/><path d="M315.536 232.252c-1.474-1.626-.542-2.957-1.122-4.241-.58-1.283.133-2.738 1.731.751l-.666-4.887s1.912.96 2.264 8.377h-2.207z" fill="#F2F2F2"/><path d="M255.127 249.649l-.563-1.891.563 1.891z" fill="#428DEC"/><path d="M105.257 59.878a34.315 34.315 0 002.659-5.489 2.928 2.928 0 012.799-1.88l5.523.075a2.966 2.966 0 003.014-2.907l.186-13.348a2.964 2.964 0 00-2.929-2.99l-5.533-.074c-1.241-.018-2.351-.796-2.753-1.962a34.09 34.09 0 00-5.961-10.59 2.897 2.897 0 01-.243-3.341l2.827-4.712a2.93 2.93 0 00-1.036-4.036L92.25 1.793a2.98 2.98 0 00-4.068 1.027l-2.827 4.712a2.96 2.96 0 01-3.079 1.388 34.562 34.562 0 00-12.222-.157 2.936 2.936 0 01-3.042-1.462l-2.705-4.795a2.982 2.982 0 00-4.04-1.13L48.52 7.893a2.934 2.934 0 00-1.138 4.008l2.696 4.786a2.904 2.904 0 01-.336 3.341 33.944 33.944 0 00-3.601 4.934 34.567 34.567 0 00-2.66 5.49 2.929 2.929 0 01-2.798 1.878l-5.524-.074a2.966 2.966 0 00-3.013 2.907l-.187 13.348a2.964 2.964 0 002.93 2.99l5.533.074c1.24.018 2.35.796 2.752 1.962a34.101 34.101 0 005.962 10.59c.784.944.877 2.286.242 3.342l-2.827 4.711a2.93 2.93 0 001.036 4.036l11.56 6.832a2.98 2.98 0 004.068-1.028l2.827-4.712a2.96 2.96 0 013.079-1.388c4.068.787 8.21.824 12.222.157a2.936 2.936 0 013.042 1.463l2.706 4.795a2.982 2.982 0 004.04 1.13l11.746-6.518a2.934 2.934 0 001.139-4.008l-2.697-4.785a2.904 2.904 0 01.336-3.342 33.766 33.766 0 003.602-4.934zm-36.892-.564c-11.205-4.85-14.741-18.727-7.23-28.289 5.122-6.516 14.274-8.812 21.907-5.507 11.205 4.85 14.741 18.726 7.23 28.288-5.131 6.517-14.275 8.821-21.907 5.508z" fill="#DCD1E6" stroke="#BEC8D2" stroke-miterlimit="10"/><path d="M226.8 4.316l-84.019 52.795-12.076 11.464v39.789" stroke="#BEC8D2" stroke-miterlimit="10" stroke-linecap="round"/><path d="M149.266 90.635c1.059-1.8 3.521-5.334 4.752-2.991.781 1.482.463 4.102-.238 4.354-.702.264-2.542.423-2.542.423l-1.972-1.787z" fill="#BEC8D2"/><path d="M149.266 90.634c.397-1.827 1.045-2.528 2.329-3.203 1.854-.992 1.47-1.958 2.092-1.958.622 0 1.271 1.8-.291 2.435 0 0 .066 3.202-2.714 4.022l-1.416-1.296z" fill="#F2F2F2"/><path d="M154.017 87.64c.08.675-.662.57-1.39.543-.979-.04-1.972-.185-1.813 1.099.264 2.011-.04 3.15.926 3.189.967.053 1.642.264 2.264-.066.648-.344.979-3.243.013-4.764z" fill="#F2F2F2"/><path d="M230.022 34.592a8.099 8.099 0 000-11.457 8.105 8.105 0 00-11.46 0 8.099 8.099 0 000 11.457 8.105 8.105 0 0011.46 0z" stroke="#BEC8D2" stroke-miterlimit="10" stroke-linecap="round"/><path d="M224.294 31.858a2.995 2.995 0 10.001-5.991 2.995 2.995 0 00-.001 5.99z" stroke="#BEC8D2" stroke-miterlimit="10" stroke-linecap="round"/><path d="M96.174 90.469l8.685-2.418-3.85-13.442-9.404-5.347 4.569 21.207zM35.57 42.475c2.536 3.897 6.944 4.876 8.834 3.907 1.89-.97 1.973-4.782.175-8.517-1.798-3.736-4.592-5.343-6.685-5.01-2.987.476-5.837 4.211-2.324 9.62zM36.305 209.076c1.43-1.577.526-2.869 1.09-4.114.562-1.245-.13-2.657-1.68.729v-4.742s-1.21.932-1.56 8.127h2.15zM110.426 217.891c.545.055.877.645-1.31 1.734l1.31-1.734z" fill="#F2F2F2"/><path d="M370.611 397.226c0 5.164-109.439 12.765-189.171 4.094-80.699-8.774-125.623-1.485-125.623-6.649s74.13-9.292 155.319-9.292 159.475 6.683 159.475 11.847z" fill="#9C71B1"/><path d="M121.427 394.661h18.556l-11.868-7.39 1.29-5.865c-2.711 0-3.366 1.848-6.101 1.848-.771 4.315-1.877 11.407-1.877 11.407z" fill="#442D47"/><path d="M192.164 141.823l14.394-7.546-.436 4.955-2.734 13.675-10.417-2.864-.807-8.22z" fill="#F6957E"/><path d="M221.882 138.43c-3.785 1.536-17.019 1.149-17.019 1.149s-10.144 8.007-9.718 9.84c.431 1.834 1.07 1.348 2.278 2.914 1.209 1.565 4.082 3.082 4.082 3.082s2.189 2.18 4.819 1.56c2.63-.614 8.98-7.234 11.853-7.903.589-.138 3.145-.718 6.85-1.58l-3.145-9.062z" fill="#F1A975"/><path d="M206.557 134.277s7.94 6.243 7.207 7.423c-.733 1.179-8.702-2.116-8.702-2.116l1.495-5.307z" fill="#F6957E"/><path d="M218.331 149.712s-7.806-3.667-8.618-2.354c-.813 1.313 3.318 3.592 3.318 3.592s-4.428-2.031-5.181-1.476c-.752.555 3.106 3.394 3.106 3.394s-4.299-2.383-5.399-1.71c-1.099.674 2.744 4.826 2.744 4.826s10.486-2.343 10.03-6.272z" fill="#F15F5C"/><path d="M283.708 168.219l-13.205 1.943 7.425-34.267 7.177 3.691-1.397 28.633z" fill="#240D45"/><path d="M284.014 77.777s-23.805 34.411-28.743 39.351c-4.938 4.94-36.95 20.929-36.95 20.929l5.454 11.46 38.406-19.626 23.378-21.449-1.545-30.665z" fill="#4B4B9F"/><path d="M312.9 382.764l-.203 12.66 1.407.039 1.818-14.428-3.022 1.729z" fill="#1D1D22"/><path d="M303.162 271.444s1.506 19.794 3.933 25.71c2.422 5.911-1.907 84.092-3.967 90.399-.456 1.398-1.075 2.646-1.714 3.741-2.244 3.84-2.754 4.628.253 4.638 3.868.015 7.256-.723 8.004-2.309 1.298-2.735 2.442-12.159 5.092-12.149 0 0 1.807-3.513 1.357-5.361-.679-2.785-2.571-1.353-2.556-5.222.015-3.87 12.828-62.678 10.822-71.235-2.006-8.561-3.427-9.582-3.392-19.764.034-10.182-17.832-8.448-17.832-8.448zM294.415 250.715s-14.433 27.514-13.512 35.664c.921 8.151 3.968 14.731 1.352 25.854-2.615 11.123-23.314 51.465-23.809 58.838-.208 3.106.738 3.398.738 3.398-.04 5.357-1.714 11.099-2.828 12.204-1.432 1.422-3.041 8.483-4.399 8.478-1.357-.005-12.823 1.223-12.823 1.223-.297-2.616 3.214-.515 5.265-5.935 2.056-5.426 3.304-13.566 5.919-24.551 2.615-10.99 13.344-61.127 13.378-72.666.04-11.54-1.02-11.594.768-19.195 1.788-7.596 8.485-21.831 8.485-21.831l21.466-1.481z" fill="#F6957E"/><path d="M280.907 286.379c-.921-8.15 13.512-35.664 13.512-35.664l-21.457 1.481s-6.696 14.23-8.484 21.831c-1.313 5.574-1.095 7.09-.897 12.055 4.101.882 10.481 2.17 17.767 3.349a49.238 49.238 0 01-.441-3.052z" fill="#E85654"/><path d="M320.993 279.892c.035-10.182-17.831-8.448-17.831-8.448s.961 12.625 2.581 20.721c6.042.292 11.758.173 16.474-.605-.778-2.978-1.244-5.807-1.224-11.668z" fill="#F6957E"/><path d="M279.347 156.396s-2.516 38.756-4.413 47.987c-1.902 9.231-12.754 74.663-12.754 74.663s48.366 4.073 60.036 0c0 0 1.303-83.963-1.446-94.755-2.749-10.791-14.761-30.432-14.761-30.432l-26.662 2.537z" fill="#4B4B9F"/><path opacity=".53" d="M279.348 156.396s-.129 1.987-.352 5.168c3.631 3.607 8.678 9.459 10.684 15.766 2.288 7.184 19.921 6.124 30.461 4.811-3.596-11.049-14.131-28.282-14.131-28.282l-26.662 2.537z" fill="#1E0E32"/><path d="M304.356 74.51l-14.671-1.06-5.201 10.171 20.878 2.175-1.006-11.287z" fill="#240D45"/><path d="M284.013 77.781s6.682-5.098 29.322.015c.615.139 1.184 24.665 1.184 24.665s-10.505 41.134-8.504 51.4c0 0-12.006 10.138-29.922 1.313 0 0 2.328-32.3.699-39.494-1.63-7.194-4.879-13.72-.268-21.187 4.612-7.466 7.489-16.712 7.489-16.712z" fill="#D5EBD8"/><path d="M288.165 111.242v47.486c11.026.937 17.841-4.816 17.841-4.816-1.996-10.266 8.504-51.4 8.504-51.4s-.564-24.576-1.178-24.715c-3.591-.812-6.786-1.362-9.609-1.719l-15.558 35.164z" fill="#A5C1AD"/><path d="M304.356 74.508l-12.809 36.685v60.884l28.302 1.367-9.867-12.912-3.343-16.192 7.875-41.878-1.188-24.674-8.97-3.28zM289.686 73.45l-10.545 35.009-2.734 61.702h-5.904l6.34-32.602-3.715-36.76 10.61-23.743 5.948-3.607z" fill="#4B4B9F"/><path d="M304.356 74.508l-12.809 36.685 16.365-21.335 2.724-14.374-6.28-.976zM289.685 73.45l-10.545 35.009.951-25.046 4.393-8.903 5.201-1.06z" fill="#24272E"/><path d="M314.382 163.888c.366-.366 3.576-5.098 4.264-4.409.689.683-2.843 5.048-2.843 5.048s4.091-4.142 4.899-3.334c.807.808-5.469 6.401-6.127 6.401-.664-.005-.193-3.706-.193-3.706z" fill="#E85654"/><path d="M308.838 159.211s-1.728 2.641-.455 3.915c1.273 1.273.589 2.596 1.456 3.463s4.735 1.001 4.735 1.001.273-3.736 2.184-8.017c.357-.793 1.486-2.349 3.091-4.395-1.714-1.13-3.517-2.14-5.344-3.057-3.2 4.157-5.612 6.986-5.667 7.09z" fill="#F6957E"/><path d="M313.325 77.789s-2.244 17.852 0 22.767c2.185 4.786 14.963 10.311 17.153 20.007 1.639 7.244-11.511 21.94-18.46 30.962 1.738 1.74 7.038 5.208 8.752 6.338 7.073-9.003 24.914-30.205 25.354-35.179.55-6.104-23.299-45.534-32.799-44.895z" fill="#4B4B9F"/><path d="M313.327 77.79c-.337 4.161-.605 8.15-.684 12.396-.069 7.496.381 9.865 2.036 11.743 3.843 4.454 14.121 9.894 15.8 18.634-2.392-8.665-12.333-13.491-16.35-18.169-1.516-1.744-1.808-3.612-1.996-5.98-.406-5.54.347-13.056 1.194-18.625z" fill="#54597E"/><path d="M313.832 372.867c-1.189 7.076-5.161 19.279-7.896 20.419-4.527.951-4.551.48-4.522-1.997-2.243 3.84-4.789 5.807-1.778 5.817 3.869.015 9.901.267 10.649-1.318 1.298-2.735 2.036-13.096 4.681-13.091l-.867 12.754 1.407.04s2.14-17.56 1.689-19.319c-.614-2.393-2.615-2.869-3.363-3.305zM243.006 392.93c-3.15 1.947-7.053 1.992-6.815 4.088 0 0 14.849-.59 16.206-.585 1.358.005 2.536-8.339 3.968-9.761 1.431-1.422.51 9.776.51 9.776l1.461.005s1.021-11.535 2.393-16.009c1.094-3.562-.441-5.069-1.536-5.975-4.487 8.507-4.963 20.493-16.187 18.461z" fill="#3B3846"/><path d="M175.4 213.73s6.389 18.946 7.527 20.894c1.139 1.948 1.169 10.84-.652 12.052-1.82 1.207-.496-3.607-.977-6.154-.482-2.546-2.859-5.932-2.859-5.932s1.971 2.635 2.613 5.824c.491 2.449-.141 5.56-.998 6.041-1.966 1.109-.356-1.865-1.033-5.417-.677-3.548-2.658-5.216-2.658-5.216s1.645 6.619-.1 7.561c-1.74.942-7.783-25.771-7.783-25.771l6.92-3.882z" fill="#F6957E"/><path d="M153.071 82.516s10.277 15.098 11.708 33.136c.595 7.51.07 44.735 3.705 60.229 4.71 20.058 11.263 39.24 11.263 39.24l-15.24 9.217-11.986-47.799-3.259-34.047 3.809-59.976zM140.78 239.509l-20.679 147.197 9.811-1.667 16.857-79.793s11.107-74.052 11.107-100.789l-17.096 35.052z" fill="#4B4B9F"/><path d="M86.302 395.321h19.881l-12.452-7.39 1.354-5.865c-2.845 0-3.532 1.848-6.402 1.848-.814 4.32-2.381 11.407-2.381 11.407z" fill="#442D47"/><path d="M126.798 71.25l-.733 11.266 27.172-3.032-6.349-7.645-20.09-.589z" fill="#395967"/><path d="M162.131 159.594c-.069-39.363-6.083-78.517-14.655-83.495 0 0-9.966-.687-15.093-.86-7.65-.26-13.604 3.615-19.956 25.328-4.006 13.686-4.561 44.221-4.135 73.011.189 12.766 1.369 25.552 1.641 34.594 21.607 0 30.929.925 51.896.925 1.329-38.95.322-37.802.302-49.503z" fill="#D5EBD8"/><path d="M147.273 76.55s11.731 5.18 15.322 39.972c3.591 34.791 8.536 105.828 8.536 105.828h-16.34s-1.77-101.479-1.77-108.435c0-6.962-5.748-37.364-5.748-37.364z" fill="#4B4B9F"/><path d="M153.991 183.25l-40.689 1.025-3.365 22.103-1.315 94.035s-19.69 66.273-23.645 88.281c0 0 11.25-.688 10.605-.688l33.109-78.622 14.951-71.828 12.246-27.921-1.897-26.385z" fill="#4B4B9F"/><path d="M146.611 226.99c-.254-13.123-.869-28.702-1.584-43.74l-31.885.805-3.391 22.325-.253 17.959 37.113 2.651z" fill="#24272E"/><path d="M113.818 184.305l-1.007 6.898h41.751l-.545-7.953-40.199 1.055z" fill="#3B1C36"/><path d="M153.237 183.914h-10.603v5.965h10.603v-5.965z" fill="#A180BA"/><path d="M153.237 183.914h-10.603v.56c2.047-.059 7.363.025 8.353 2.422.494 1.199.781 2.206.95 2.983h1.3v-5.965zM143.959 237.594l-18.026 70.798-30.353 79.64 33.329-78.615 15.05-71.823z" fill="#9C71B1"/><path d="M137.505 122.711c.059.471-12.832-46.16-12.832-46.16s-4.322 1.175-10.066 4.224l-8.31 26.161s-3.429 47.747-3.429 51.535c0 2.037-4.132 32.537-7.95 60.3l47.053 3.579c-.703-38.719-4.466-99.639-4.466-99.639z" fill="#4B4B9F"/><path d="M137.515 137.997s-28.575-33.514-31.591-29.265a9110.698 9110.698 0 00-1.729 24.948c7.213 18.334 30.558 48.279 35.787 54.869-.768-18.916-1.762-37.9-2.467-50.552z" fill="#4B4B9F"/><path d="M137.332 122.941l4.639 99.409s-1.791-98.187-4.639-99.409z" fill="#714A7B"/><path d="M132.734 61.47c-.475-.303-6.355-14.934-6.355-14.934s-3.923-10.985-1.392-12.848c2.536-1.858 8.554-8.309 13.834-8.428 5.275-.119 8.817 1.467 9.292 1.764.476.302 3.893 6.075 3.893 6.075s-1.594-1.947-2.412 5.272c-.817 7.223-16.86 23.098-16.86 23.098z" fill="#4B4B9F"/><path d="M146.047 60.807c-.629 1.868-.356 15.212-.852 18.57-.49 3.316-15.627 8.459-15.924-3.606-.297-12.065.897-26.255.897-26.255l15.879 11.291z" fill="#F6957E"/><path d="M146.047 60.806l-5.27-3.745-10.61-7.541v.039c-.005.05-.01.144-.025.278-.034.44-.104 1.318-.188 2.527v.005c-.015.242-.034.505-.054.777 0 .02 0 .035-.005.055-.06.877-.124 1.883-.183 2.993-.005.064-.005.123-.01.188l-.045.808v.01c-.01.143-.015.287-.025.43 0 .015 0 .03-.005.045-.005.055-.005.109-.01.164 0 .02 0 .044-.004.064l-.015.287c1.971 6.466 9.42 13.492 15.869 14.325.015-.446.04-.897.07-1.348.084-4.539.153-9.295.51-10.36z" fill="#F27172"/><path d="M129.568 38.467c-1.937 4.826-2.041 13.65 2.58 20.32 4.622 6.674 11.001 10.112 15.573 6.748 4.571-3.364 5.879-24.481 2.575-29.917-3.303-5.43-17.771-4.504-20.728 2.85z" fill="#F6957E"/><path d="M129.578 58.738s-1.03-6.907-3.675-8.586c-2.65-1.685-3.844-2.71-4.324-5.148-.48-2.438-9.317-4.068-7.875-8.082 1.441-4.008 8.36-5.886 11.882-12.857 3.517-6.971 7.316-10.831 15.518-8.294 8.202 2.541 9.342 7.546 9.342 7.546s3.62-.63 5.829 3.7c2.214 4.331.624 6.794-.797 8.825 0 0 .307-5.717-1.654-5.321-1.962.396.014 6.689.014 6.689s-2.947-2.408-6.082-6.14c-3.135-3.725-2.363.635-1.436 5.362.926 4.727-6.033.272-9.129-3.146-3.096-3.42-7.519-.223-9.133 4.622-1.625 4.841 5.344 12.452 1.52 20.83z" fill="#24272E"/><path d="M131.094 46.045s-2.893-4.94-4.393-2.794c-1.506 2.145-.263 8.562 2.927 8.626 3.185.065 1.466-5.832 1.466-5.832z" fill="#F6957E"/><path d="M129.466 46.403s.109-2.864-1.442-1.913c-1.555.947.01 5.545 1.442 5.456 1.426-.094 0-3.543 0-3.543z" fill="#F27172"/><path d="M145.86 45.078a17.92 17.92 0 011.159 4.078c.461 3.032-.03 4.325-.045 4.519-.351-.065-1.287-.203-2.531-.53.798-.025 1.59-.006 2.378.04l-.268.197c.139-2.745-.396-5.494-.693-8.304z" fill="#252C64"/><path d="M141.947 45.81c.168.856-.208 1.654-.837 1.783-.63.129-1.278-.466-1.447-1.323-.168-.857.208-1.655.837-1.784.634-.128 1.278.466 1.447 1.323zM150.609 44.579c.168.857-.208 1.655-.837 1.783-.629.13-1.278-.465-1.447-1.323-.168-.857.208-1.654.837-1.783s1.278.466 1.447 1.323z" fill="#304B9E"/><path d="M137.022 43.636s1.332-2.334 3.546-2.785c2.219-.45 1.546 1.417 1.03 1.521-.515.11-4.66.828-4.576 1.264zM147.593 39.777s2.625.778 3.121 1.982c0 0-2.779-.228-3.279-.882-.501-.649.158-1.1.158-1.1z" fill="#252C64"/><path d="M138.865 56.832s6.776 2.547 10.451.1c0 0-1.03 3.413-1.966 4.027-1.971 1.293-6.816.307-8.485-4.127z" fill="#fff"/><path d="M298.392 22.188c.911.842 9.619-.432 16.999 7.51 9.757 10.5 8.603 35.036 8.603 35.036s-10.357 2.358-14.453 2.522c-4.096.158-12.422-1.026-16.865-1.685-4.537-.669-6.984-26.205-3.928-32.969 3.051-6.768 9.644-10.414 9.644-10.414z" fill="#2E182B"/><path d="M298.393 22.192s-9.723-.56-12.13 5.723c-2.407 6.283-1.392 26.37-4.76 28.455 0 0 2.536 1.596 4.681 1.512 0 0 1.406 2.477-1.972 6.134 0 0 4.166 1.555 8.46 1.555.297 0 3.447.887 3.74-1.783.341-3.157-2.18-10.153-1.853-13.21 1.382-12.937 3.834-28.386 3.834-28.386z" fill="#24272E"/><path d="M298.215 23.344c-.926-.01-1.798.09-2.551.298 0 0-8.336 3.493-8.712 9.627-.382 6.139.47 8.522-.199 12.49-1.055 6.244 2.893 17.853 9.689 17.704.158-3.29-2.195-9.93-1.878-12.887 1.15-10.826 3.056-23.407 3.651-27.232z" fill="#341A30"/><path d="M294.143 60.908s-1.56 11.846-3.189 14.968c-1.625 3.126-4.22 16.762-1.942 16.762 2.278 0 12.873-10.613 13.557-14.909.683-4.296 4.002-22.034 4.002-22.034l-12.428 5.213z" fill="#F6957E"/><path d="M294.357 59.579c-.089.04-.352 2.497-.362 2.591-.376 2.641-.485 2.477-.371 2.83.882 2.76 4.443 4.493 9.698-.204.169-.149 1.897-1.774 1.927-1.917.738-3.994 1.332-7.18 1.332-7.18s-12.12 3.835-12.224 3.88z" fill="#F15F5C"/><path d="M296.495 23.6s-7.88 3.34-8.232 9.215c-.357 5.877.451 8.156-.183 11.961-.634 3.805 1.005 13.968 6.964 16.534 5.963 2.567 13.893-7.269 15.285-11.688 1.387-4.42 1.872-10.742.366-17.649-1.51-6.917-9.817-9.587-14.2-8.373z" fill="#F6957E"/><path d="M305.931 56.529c2.169-2.398 3.829-5.109 4.398-6.912 1.387-4.42 1.872-10.742.367-17.649-1.511-6.912-9.817-9.582-14.201-8.368 0 0-7.88 3.34-8.232 9.215a50.6 50.6 0 00-.064 4.886l7.42-.253s-.461-6.297 1.015-7.898l.248 7.571 5.081.04s1.858-3.335 1.744-6.219c0 0 .173 4.044-.867 6.234 0 0 4.141-.214 4.225 1.932.069 1.754-.545 12.753-.857 15.667-.064.62-.158 1.204-.277 1.754z" fill="#F15F5C"/><path d="M321.117 33.788c-5.948-12.258-16.736-14.066-22.724-11.604-3.814.198-8.153 1.794-10.065 5.01-2.972 5.004-.589 9.785-.589 9.785l7.078-.074s.277-7.264 1.753-8.864l.347 8.78 5.022-.198s1.63-4.455 1.521-7.343c0 0 .98 5.093-.055 7.283 0 0 3.581.396 3.665 2.542.07 1.754-.544 12.753-.856 15.667-.59 5.49-3.616 8.467-3.666 8.547 0 0 11.803 2.076 14.24-.56l-1.233 3.681s6.622-.768 8.44-1.72c1.818-.94.55-23.871-2.878-30.932z" fill="#24272E"/><path d="M288.328 27.195c-2.972 5.005-.589 9.786-.589 9.786l7.078-.075s.277-7.263 1.753-8.863l.347 8.78 5.022-.199s1.63-4.454 1.521-7.343c0 0 .98 5.094-.055 7.284 0 0 3.581.396 3.665 2.541.07 1.754-.544 12.754-.856 15.667-.035.313-.075.62-.124.917 6.607-6.61 5.468-22.45 3.705-28.049-1.764-5.599-11.392-5.465-11.392-5.465-3.819.208-8.163 1.804-10.075 5.02z" fill="#24272E"/><path d="M298.412 22.68c8.926-.481 15.231 1.53 18.376 9.944 3.061 8.086 6.077 20.646 3.244 28.822l-2.917-1.115c2.709-6.516 1.08-17.377-.753-24.234-2.278-8.587-5.245-13.323-17.95-13.417z" fill="#653870"/><path d="M296.866 23.145c-3.041.911-6.399 2.442-7.756 5.301-1.259 2.641-.674 5.688-.109 8.522l.752-.01c-1.436-5.98-2.164-10.677 7.113-13.813z" fill="#363A68"/><path d="M297.192 23.375c-6.285 2.68-6.042 7.546-4.507 13.556l.748-.01c-1.971-5.9-2.447-10.687 3.759-13.546z" fill="#653870"/><path d="M298.332 23.09c1.996 4.846 1.575 8.82.367 13.665l.723-.03c.906-4.855 1.089-8.973-1.09-13.635z" fill="#363A68"/><path d="M293.812 49.452c.985-1.21 1.203-3.711 1.015-5.292-.332 1.492-.778 4.177-1.545 5.123l-.159.199c.079.044 1.114 1.154 2.412 1.065-.386-.12-1.238-.605-1.723-1.095z" fill="#452241"/><path d="M299.888 52.102c-2.962 1.417-7.409 1.61-7.409 1.61s.336.6.906 1.238c1.298-.118 3.839-.44 5.909-1.268.406-.857.594-1.58.594-1.58z" fill="#fff"/><path d="M299.294 53.68c-2.071.827-4.612 1.15-5.909 1.268 2.214 2.463 4.448 1.769 5.909-1.268zM296.882 43.078c.669-.743 2.149-1.03 3.036-.857 1.273.253 1.991 1.288 2.784 1.452-1.194.292-1.6-1.046-4.344-.902-.49.044-.991.099-1.476.307zM293.044 43.505c-.604-.793-2.061-1.199-2.957-1.1-1.288.149-2.09 1.125-2.893 1.22 1.164.39 1.679-.913 4.404-.546.485.084.98.178 1.446.426z" fill="#2E182B"/><path d="M146.611 71.25l6.964 49.704 2.314-24.536-2.404-2.728V79.132l-6.874-7.882z" fill="#24272E"/><path d="M129.236 69.262l8.096 11.912-3.902 7.307-12.003-14.183 4.911-3.76 2.898-1.276z" fill="#E6F3E8"/><path d="M146.872 71.25l-3.576 9.29 3.576 5.29 1.726-8.95-1.726-5.63z" fill="#F5FAF5"/><path d="M137.331 122.942L126.575 71.25l-11.114 8.468 9.724 17.701-.724 5.539 12.87 19.984z" fill="#24272E"/><path d="M143.318 80.527l-2.583 2.077-3.929-1.477-2.124 3.992s8.636.459 10.603-1.482l-1.967-3.11z" fill="#A5C1AD"/><path d="M137.332 80.993l5.965-.466-.183 5.727-4.754.238-1.028-5.5z" fill="#6DA3C2"/><path d="M137.995 86.047l4.974-.219 9.606 87.851-4.183 6.256-7.801-5.048-2.596-88.84z" fill="#4B4B9F"/><path d="M185.711 142.823l7.086-1.327.867 10.06-7.953 4.52v-13.253z" fill="#D5EBD8"/><path d="M189.797 142.16l-4.086.759v13.158l5.964-3.354-1.878-10.563z" fill="#9EBFA7"/><path d="M114.473 80.527s-10.074 7.395-8.849 28.401c.849 14.62 35.925 59.079 35.925 59.079l48.8-8.884-1.309-16.968-35.466 1.654-39.101-63.282z" fill="#4B4B9F"/><path d="M154.026 142.969c-13.395-21.847-25.123-40.928-39.226-62.442 13.262 22.838 24.976 41.66 38.616 63.622 16.63-.961 21.865-1.205 35.609-2.235-5.894.105-29.39.802-34.999 1.055z" fill="#714A7B"/><path d="M202.918 169.16a.656.656 0 01-.055-1.309c27.019-2.279 30.883-16.345 30.917-16.484a.657.657 0 01.798-.476c.351.09.564.441.475.793-.153.615-4.046 15.112-32.081 17.476h-.054z" fill="#59317D"/><path d="M225.027 169.163a.656.656 0 01-.247-1.264c16.87-7.01 17.509-18.292 17.514-18.406a.674.674 0 01.678-.63.655.655 0 01.63.679c-.015.496-.625 12.219-18.322 19.571a.648.648 0 01-.253.05zM337.881 48.268a.653.653 0 01-.654-.654c0-18.803-7.227-30.72-7.301-30.838a.658.658 0 01.213-.902.656.656 0 01.901.213c.075.124 7.499 12.357 7.499 31.527a.654.654 0 01-.658.654zM108.186 53.732a.663.663 0 01-.57-.327c-9.277-16.048 1.05-37.79 1.496-38.706a.66.66 0 01.877-.307c.326.158.46.55.307.877-.104.218-10.466 22.038-1.541 37.477a.656.656 0 01-.569.986z" fill="#59317D"/></symbol><symbol id="b" viewBox="0 0 646 385"><path opacity=".1" d="M596.488 303.79a730.63 730.63 0 01-2.153 5.129c-1.116 2.62-2.219 5.189-3.306 7.707-.484 1.116-.968 2.211-1.44 3.306a1075.817 1075.817 0 01-14.548 31.807c-3.839 8.026-9.54 14.751-16.505 19.47-6.964 4.719-14.937 7.259-23.082 7.353l-94.083 1.144h-.992l-8.065.097-6.899.083-21.155.256h-.857l-10.77.132h-.328l-66.382.804-59.254.693-6.893.083-42.807.52h-.049l-27.763.333h-.298l-87.785 1.06-26.261.319a49.319 49.319 0 01-16.546-2.648c-9.33-3.148-17.714-9.079-24.251-17.154-11.28-13.883-19.5-30.081-25.02-47.658a176.834 176.834 0 01-2.234-7.707C-12.352 236.732 10.95 143.6 52.888 81.276a237.858 237.858 0 015.36-7.624l.044-.055c12.897-17.688 27.359-32.465 42.763-42.972 27.297-18.652 57.542-23.906 87.289-8.248 25.17 13.252 48.67 19.483 71.451 21.174 2.302.166 4.603.291 6.893.367 52.255 1.837 101.229-19.199 158.739-32.777a426.69 426.69 0 016.899-1.58C473.353.44 518.865-4.37 572.988 5.742a107.143 107.143 0 0116.601 4.436 99.708 99.708 0 016.899 2.772c25.833 11.742 39.922 33.436 45.909 60.62.567 2.522 1.057 5.089 1.47 7.7 10.615 65.387-20.473 158.138-47.379 222.52z" fill="#4B4AA1"/></symbol><symbol id="c"><use x="-20" width="100%" href="#a"/><use y="23" width="100%" href="#b"/></symbol><use href="#c"/></svg>