<svg fill="none" xmlns="http://www.w3.org/2000/svg" viewBox="0 0 571 639"><path d="M93.77 4.98S97.46-.05 99.6.29c2.13.33 4.93 5.17 3.74 7.04-1.18 1.88-7.46 2.45-7.46 2.45l-2.11-4.8z" fill="#F2F2F2"/><path d="M76.48 232.16h-5.36c-.56-.05-1.11.01-1.64.17-.42.17-.78.45-1.06.8-.28.35-.47.77-.54 1.22-.03.32-.03.64 0 .97v.99c.02.35 0 .69-.07 1.04-.07.35-.21.69-.42.99-.21.3-.47.56-.78.75-.33.21-.7.34-1.08.38H44.56c-.26.01-.53-.02-.78-.08-.53-.13-1-.42-1.34-.83-.37-.41-.6-.93-.66-1.47v-1.64c.05-.54-.01-1.08-.16-1.6-.18-.52-.53-.97-.99-1.27-.45-.31-1-.46-1.55-.42H26.49a8.65 8.65 0 00-3.65.68 8.82 8.82 0 00-3.06 2.32c-.83 1-1.42 2.19-1.71 3.46-.08.33-.11.66-.16.98-.06.33 0 .55 0 .84v133.75c-.05 1.39.25 2.76.87 4 .62 1.24 1.54 2.3 2.68 3.08a8.616 8.616 0 005.37 1.47H81.4c1.72-.1 3.37-.74 4.71-1.83.66-.54 1.23-1.17 1.7-1.88.46-.7.81-1.47 1.03-2.28.23-.81.34-1.65.33-2.49v-12.53-69.88V240.73c.02-1.15-.19-2.29-.61-3.36-.37-.92-.91-1.76-1.58-2.48a8.02 8.02 0 00-1.89-1.55 7.88 7.88 0 00-3.12-1.1c-.37 0-.66 0-.84-.08h-4.65zM548.42 232.16h-5.43c-.55-.05-1.11.01-1.64.17-.41.18-.77.45-1.05.81-.28.35-.47.77-.54 1.21-.03.32-.03.64 0 .97v.99c.03.35.03.69 0 1.04-.08.36-.22.7-.43 1-.21.3-.48.55-.8.74-.32.21-.68.34-1.06.38H516.51c-.26.01-.53-.02-.79-.08a2.59 2.59 0 01-1.34-.83c-.36-.42-.6-.93-.67-1.47v-1.64c.04-.54-.01-1.08-.16-1.6-.18-.52-.53-.97-.99-1.27-.46-.31-1-.46-1.55-.42h-12.53a8.39 8.39 0 00-3.7.7c-1.16.51-2.2 1.28-3.01 2.25a8.334 8.334 0 00-1.72 3.47c-.1.32-.11.66-.18.98-.06.33 0 .55 0 .84v133.79c-.03.91.08 1.82.33 2.69a8.284 8.284 0 003.23 4.45 8.545 8.545 0 005.37 1.46h54.58c1.72-.1 3.37-.74 4.71-1.82a8.99 8.99 0 001.7-1.89c.46-.7.81-1.47 1.03-2.28.23-.81.34-1.65.33-2.49v-12.52-69.89-47.16-3.94c.05-2.16-.74-4.25-2.19-5.85a7.978 7.978 0 00-1.89-1.54 7.98 7.98 0 00-3.13-1.1c-.36 0-.64 0-.85-.08h-4.76l.09-.07z" fill="#FAFAFA"/><path fill-rule="evenodd" clip-rule="evenodd" d="M240.29 125.32c.38 2.39.44 4.82.17 7.22l5.56 3.76-4.03 10.34-6.57-.93a27.142 27.142 0 01-4.97 5.24l1.34 6.56-10.12 4.5-4.02-5.37c-2.38.39-4.81.44-7.21.17l-3.73 5.57-10.32-4.03.97-6.63c-1.95-1.42-3.71-3.1-5.22-4.99l-6.57 1.35-4.48-10.14 5.37-4.03c-.38-2.39-.44-4.81-.17-7.22l-5.56-3.72 4.03-10.35 6.61.97c1.42-1.96 3.09-3.72 4.97-5.23l-1.34-6.57 10.09-4.46 4.02 5.37c2.39-.37 4.81-.43 7.21-.17l3.73-5.56 10.32 4.03-.97 6.62c1.96 1.42 3.72 3.09 5.22 4.98l6.57-1.35 4.48 10.12-5.37 4.03-.01-.08zm-15.88-.08a11.87 11.87 0 00-4.51-5.23c-1.98-1.25-4.3-1.89-6.65-1.83-2.35.06-4.63.81-6.55 2.17a11.97 11.97 0 00-4.23 5.45c-.84 2.2-1.02 4.6-.5 6.9.52 2.29 1.71 4.38 3.42 6 1.7 1.62 3.85 2.69 6.17 3.09 2.31.4 4.69.1 6.84-.86 1.42-.64 2.71-1.54 3.78-2.68 1.08-1.13 1.92-2.46 2.47-3.92.56-1.45.83-3.01.79-4.57-.04-1.56-.39-3.09-1.03-4.52z" fill="#E0E0E0"/><path fill-rule="evenodd" clip-rule="evenodd" d="M232.24 65.23c.24 1.58.28 3.19.12 4.77l3.66 2.48-2.68 6.82-4.38-.63c-.93 1.3-2.04 2.46-3.29 3.46l.86 4.34-6.71 2.97-2.68-3.55c-1.58.25-3.18.29-4.77.12l-2.45 3.67-6.83-2.69.64-4.38a18.29 18.29 0 01-3.46-3.29l-4.34.86-2.96-6.72 3.54-2.69c-.25-1.58-.28-3.18-.11-4.77l-3.5-2.27 2.69-6.84 4.37.64c.94-1.29 2.04-2.45 3.29-3.45l-.95-4.41 6.71-2.97 2.68 3.55c1.58-.26 3.18-.3 4.76-.12l2.47-3.69 6.82 2.69-.64 4.38c1.29.94 2.46 2.05 3.46 3.3l4.33-.86 2.97 6.72-3.54 2.68-.08-.12zm-10.5 0a7.922 7.922 0 00-2.97-3.46 7.837 7.837 0 00-4.39-1.22c-1.55.03-3.06.53-4.33 1.42a7.856 7.856 0 00-3.15 8.14c.33 1.52 1.11 2.9 2.23 3.98a7.854 7.854 0 008.59 1.52c.95-.42 1.81-1.01 2.53-1.76.72-.76 1.28-1.64 1.66-2.61.37-.97.55-2.01.52-3.05a7.829 7.829 0 00-.69-3.01v.05z" fill="#F5F5F5"/><path fill-rule="evenodd" clip-rule="evenodd" d="M423.38 510.03c.44 2.8.52 5.66.21 8.48l6.51 4.37-4.67 12.09-7.76-1.12a31.257 31.257 0 01-5.82 6.12l1.52 7.72-11.87 5.25-4.61-6.26c-2.8.45-5.64.52-8.46.22l-4.37 6.51-12.08-4.67 1.14-7.77a31.962 31.962 0 01-6.13-5.83l-7.69 1.51-5.36-11.93 6.28-4.69c-.45-2.8-.51-5.65-.2-8.47l-6.52-4.31 4.67-12.1 7.76 1.14c1.66-2.29 3.62-4.36 5.83-6.14l-1.51-7.7 11.87-5.31 4.69 6.29c2.8-.45 5.65-.51 8.47-.2l4.36-6.53 12.08 4.68-1.13 7.76c2.29 1.67 4.35 3.64 6.12 5.85l7.7-1.52 5.26 11.87-6.29 4.69zm-18.62-.09a13.857 13.857 0 00-5.28-6.13 13.812 13.812 0 00-7.78-2.16c-2.76.07-5.43.95-7.68 2.54a13.871 13.871 0 00-4.96 6.38c-.99 2.58-1.2 5.39-.6 8.08a13.954 13.954 0 0011.21 10.67c2.71.47 5.51.12 8.02-1 3.37-1.5 6.01-4.28 7.34-7.72 1.32-3.45 1.23-7.29-.27-10.66z" fill="#E0E0E0"/><path fill-rule="evenodd" clip-rule="evenodd" d="M392.05 582c.26 1.63.3 3.29.13 4.93l3.79 2.54-2.68 7.07-4.52-.66c-.97 1.34-2.11 2.54-3.4 3.58l.89 4.49-6.91 3.06-2.69-3.67c-1.63.27-3.28.31-4.92.13l-2.55 3.8-7.06-2.69.67-4.52a18.03 18.03 0 01-3.57-3.41l-4.48.89-3.16-6.96 3.67-2.69c-.26-1.63-.3-3.29-.12-4.93l-3.8-2.56 2.68-7.05 4.53.65c.98-1.34 2.14-2.55 3.44-3.58l-.88-4.49 6.91-3.07 2.68 3.67c1.63-.27 3.29-.31 4.93-.12l2.55-3.8 7.04 2.69-.65 4.52c1.33.97 2.53 2.12 3.57 3.4l4.48-.88 3.07 6.92-3.66 2.69.02.05zm-10.84 0a8.137 8.137 0 00-3.07-3.5 8.025 8.025 0 00-4.5-1.21c-1.58.05-3.12.56-4.41 1.48a8.11 8.11 0 00-2.86 3.68c-.57 1.48-.69 3.1-.34 4.65a7.974 7.974 0 002.28 4.06 8.015 8.015 0 004.14 2.13c1.56.28 3.17.09 4.63-.54a8.061 8.061 0 004.31-4.54c.39-1 .57-2.07.54-3.15a8.172 8.172 0 00-.72-3.11v.05z" fill="#F5F5F5"/><path fill-rule="evenodd" clip-rule="evenodd" d="M276.7 98.5c.23 1.42.26 2.87.1 4.3l3.33 2.23-2.37 6.17-3.95-.58a16.9 16.9 0 01-2.96 3.13l.76 3.93-6.04 2.68-2.37-3.19c-1.43.22-2.88.25-4.31.1l-2.24 3.31-6.16-2.38.57-4.03c-1.17-.82-2.22-1.8-3.14-2.9l-3.91.77-2.69-6.04 3.2-2.4a16.36 16.36 0 01-.11-4.31l-3.32-2.22 2.38-6.18 4.02.58c.85-1.17 1.85-2.22 2.97-3.12l-.78-3.92 6.04-2.69 2.39 3.21c1.42-.23 2.87-.27 4.31-.11l2.23-3.32 6.09 2.37-.55 4.03c1.16.85 2.21 1.85 3.11 2.97l3.92-.77 2.68 6.05-3.2 2.39v-.06zm-9.48 0a7.006 7.006 0 00-2.7-3.1 7.002 7.002 0 00-3.96-1.08c-1.4.03-2.75.49-3.89 1.3a7.053 7.053 0 00-2.52 3.24 7.039 7.039 0 00-.3 4.11c.3 1.36 1.01 2.61 2.02 3.57 1.01.97 2.29 1.62 3.67 1.86 1.37.24 2.79.07 4.07-.49.87-.38 1.64-.93 2.3-1.61a7.15 7.15 0 001.49-2.37c.34-.88.49-1.82.46-2.76-.03-.94-.25-1.87-.64-2.73v.06z" fill="#EBEBEB"/><path d="M570.67 638.23c0 .21-127.69.35-285.16.35-157.47 0-285.19-.14-285.19-.35 0-.2 127.67-.35 285.19-.35 157.53 0 285.16.17 285.16.35z" fill="#455A64"/><path d="M150.19 175.7h-8.67c-.91-.09-1.82 0-2.69.28-.87.35-1.6 1-2.05 1.83-.24.42-.4.87-.5 1.34-.04.51-.04 1.02 0 1.53v1.59c.03.55-.01 1.11-.1 1.65-.12.57-.36 1.11-.69 1.59-.33.48-.76.89-1.25 1.21-.52.34-1.11.57-1.73.66H99.27c-.42.02-.84-.03-1.25-.13-.84-.21-1.6-.68-2.16-1.34-.57-.66-.94-1.48-1.06-2.35-.03-.45-.03-.9 0-1.35v-1.34c.08-.86-.01-1.73-.27-2.55-.28-.83-.82-1.54-1.54-2.03-.73-.5-1.61-.74-2.5-.69H70.46c-2.03-.08-4.06.3-5.92 1.12-1.86.82-3.51 2.06-4.82 3.61-1.31 1.61-2.23 3.5-2.68 5.53-.12.51-.21 1.03-.27 1.56v214.77c-.04 1.42.14 2.84.54 4.2.86 2.89 2.68 5.39 5.15 7.1 2.5 1.69 5.48 2.5 8.48 2.33h87.2c2.75-.17 5.38-1.19 7.52-2.92a13.44 13.44 0 002.68-3c.74-1.12 1.3-2.36 1.67-3.65.36-1.32.52-2.67.49-4.04v-19.75c0-42 0-79.81.07-111.55.07-31.75 0-57.46.08-75.27v-6.29c.04-1.84-.28-3.67-.96-5.37-.6-1.46-1.45-2.81-2.51-3.97-.88-.97-1.9-1.8-3.02-2.46-1.52-.93-3.22-1.53-4.98-1.76-.45-.07-.9-.11-1.34-.12h-7.6l-.05.03z" fill="#FAFAFA"/><path d="M157.47 175.84h.46c.45.02.9.05 1.34.11 3.09.41 5.94 1.9 8.05 4.2 1.09 1.17 1.95 2.54 2.54 4.03.69 1.7 1.03 3.53.99 5.37v213.08c.02 1.36-.15 2.72-.51 4.03-.33 1.35-.87 2.64-1.59 3.82-.78 1.15-1.71 2.19-2.78 3.08a13.396 13.396 0 01-7.69 2.98c-2.79.08-5.56 0-8.36 0H71.29c-3.04.14-6.04-.71-8.56-2.42a13.688 13.688 0 01-5.37-7.3c-.41-1.46-.6-2.99-.55-4.51v-22.33-34.86-65.85-59.64-30.25c0-.54 0-1.08.08-1.61.08-.54.13-1.08.27-1.6.48-2.08 1.44-4.01 2.8-5.65 1.33-1.58 2.99-2.83 4.87-3.66a13.43 13.43 0 015.99-1.15h20.09c.95-.05 1.89.2 2.68.74.75.53 1.32 1.27 1.63 2.14.25.87.34 1.78.27 2.68v1.35c-.03.42-.03.84 0 1.26.1.83.45 1.61.99 2.25a4.08 4.08 0 002.04 1.26c.39.09.79.13 1.19.11h33.07c.58-.07 1.13-.26 1.62-.57.48-.3.88-.69 1.2-1.15.33-.47.55-.99.67-1.54.1-.53.13-1.08.11-1.62v-1.59c-.02-.52 0-1.04.06-1.56.09-.5.27-.98.51-1.42.47-.86 1.22-1.53 2.12-1.88.87-.29 1.78-.38 2.69-.29H157.51 141.72c-.88-.08-1.77.01-2.61.29-.87.36-1.59 1-2.05 1.82-.23.42-.39.88-.48 1.35-.07.51-.09 1.02-.07 1.53v1.59c.03.55 0 1.1-.09 1.65-.12.57-.35 1.11-.69 1.59-.33.48-.75.88-1.25 1.19-.51.33-1.08.54-1.69.61H99.63c-.42.01-.84-.03-1.25-.12-.84-.22-1.59-.69-2.16-1.35-.56-.66-.93-1.47-1.04-2.34-.03-.44-.03-.89 0-1.34v-1.34c.07-.87-.02-1.73-.27-2.56-.29-.81-.83-1.52-1.54-2.01-.73-.51-1.61-.75-2.49-.69H70.93a13.221 13.221 0 00-10.64 4.91 13.23 13.23 0 00-2.69 5.53c-.13.51-.17 1.04-.27 1.56-.09.53 0 1.05 0 1.59v212.97c-.05 1.49.13 2.97.54 4.41.86 2.87 2.67 5.37 5.13 7.09a13.67 13.67 0 008.46 2.33h86.94c2.73-.16 5.35-1.18 7.47-2.9a14.21 14.21 0 002.69-3c.73-1.13 1.29-2.36 1.65-3.66.36-1.31.53-2.67.5-4.03v-4.03-15.94-111.55c0-31.74 0-57.46.06-75.27v-6.29c.04-1.84-.29-3.67-.98-5.37-.59-1.46-1.43-2.8-2.49-3.95-2.09-2.3-4.91-3.79-7.97-4.22-.45-.08-.9-.12-1.35-.13l-.51.04z" fill="#263238"/><path d="M160.05 197.44s-2.2.12-4.91.15-4.91 0-4.91 0 2.18-.12 4.91-.15c2.72-.02 4.91-.05 4.91 0zM160.08 199.97s-2.2.12-4.93.13c-2.72.02-4.91 0-4.91 0s2.2-.12 4.91-.14c2.71-.03 4.93-.06 4.93.01zM160.09 202.48s-2.2.12-4.91.15-4.91 0-4.91 0 2.2-.12 4.91-.15c2.71-.02 4.91-.05 4.91 0zM70.65 205.36h2.87v-1.52-.89a.73.73 0 01.25-.43c.13-.12.29-.19.46-.21h.99c.2.02.37.12.5.27.13.15.2.34.2.53v2.24l-.11-.1h2.69l-.11.1v-3.31-.83a.89.89 0 00-.11-.36.952.952 0 00-.25-.28l-1.17-1.14-1.11-1.1-.54-.54c-.19-.17-.34-.36-.55-.4a.689.689 0 00-.32-.01c-.1.01-.2.06-.29.12-.16.13-.33.33-.49.48l-.95.97c-.6.62-1.23 1.18-1.67 1.72-.14.31-.18.66-.13.99v3.4c.01.12.01.24 0 .35-.01-.1-.01-.21 0-.32v-2.46-1.48c0-.19.05-.38.14-.55.5-.6 1.08-1.14 1.68-1.77l.94-.97c.18-.16.31-.34.51-.51a.942.942 0 01.78-.15c.25.09.46.25.63.46l.55.52 1.11 1.1 1.16 1.15c.11.09.21.2.29.32.09.13.14.28.15.44v4.26h-3.09v-.09-2.23a.61.61 0 00-.14-.42c-.1-.12-.24-.2-.39-.23h-.95c-.14.02-.27.08-.38.17-.1.1-.17.22-.2.36v2.36h-2.95v-.01zM137.4 293.55c0 .38-10.54.69-23.53.69-12.99 0-23.51-.31-23.51-.69 0-.37 10.52-.68 23.51-.68 12.99 0 23.53.33 23.53.68z" fill="#263238"/><path d="M83.71 231.89l-.25 45.72 60.75.34.25-45.73-60.75-.33z" fill="#9E22E9"/><path d="M83.45 277.61l21.38-28.3 13.04 17.86 8.97-9.46 17.36 20.24-60.75-.34zM123.56 245.93c-.01.95-.29 1.87-.83 2.65-.53.79-1.28 1.39-2.15 1.75-.88.35-1.84.44-2.76.25-.93-.19-1.78-.65-2.44-1.33a4.786 4.786 0 01.77-7.35c.79-.52 1.72-.8 2.66-.79.63 0 1.25.13 1.83.37.58.25 1.1.61 1.55 1.05.44.45.79.98 1.02 1.57.24.58.36 1.2.35 1.83z" fill="#E8505B"/><path d="M83.45 277.61l21.38-28.3 13.04 17.86 8.97-9.46 17.36 20.24-60.75-.34zM123.56 245.93c-.01.95-.29 1.87-.83 2.65-.53.79-1.28 1.39-2.15 1.75-.88.35-1.84.44-2.76.25-.93-.19-1.78-.65-2.44-1.33a4.786 4.786 0 01.77-7.35c.79-.52 1.72-.8 2.66-.79.63 0 1.25.13 1.83.37.58.25 1.1.61 1.55 1.05.44.45.79.98 1.02 1.57.24.58.36 1.2.35 1.83z" fill="#B156EE"/><path d="M155.7 310.41c0 .39-18.68.69-41.69.69-23.02 0-41.71-.3-41.71-.69 0-.39 18.61-.73 41.71-.73 23.09 0 41.69.35 41.69.73zM155.7 322.04c0 .39-18.68.7-41.69.7-23.02 0-41.71-.31-41.71-.7 0-.39 18.66-.68 41.71-.68 23.04 0 41.69.31 41.69.68zM155.7 333.7c0 .37-18.68.68-41.69.68-23.02 0-41.71-.31-41.71-.68 0-.38 18.66-.7 41.71-.7 23.04 0 41.69.31 41.69.7zM155.7 345.34c0 .37-18.68.68-41.69.68-23.02 0-41.71-.31-41.71-.68 0-.38 18.61-.72 41.71-.72 23.09 0 41.69.34 41.69.72zM155.7 356.98c0 .39-18.68.69-41.69.69-23.02 0-41.71-.3-41.71-.69 0-.39 18.66-.69 41.71-.69 23.04 0 41.69.31 41.69.69zM137.76 367.61c0 .18-2.68.36-7.01.48-4.32.12-10.32.2-16.93.2-6.62 0-12.59-.07-16.92-.2-4.34-.13-7.01-.3-7.01-.48 0-.19 2.68-.37 7.01-.49 4.32-.12 10.32-.2 16.92-.2 6.6 0 12.6.07 16.93.2 4.34.14 7.01.35 7.01.49z" fill="#263238"/><path d="M233.55 156.15h-9.63a7.38 7.38 0 00-2.84.31c-.98.4-1.79 1.12-2.29 2.05-.27.48-.45 1-.54 1.54-.07.57-.1 1.14-.08 1.71v1.79c.02.61-.02 1.23-.12 1.84-.13.63-.39 1.23-.76 1.77-.37.53-.84.98-1.39 1.33-.57.36-1.22.59-1.89.67h-36.93c-.45.02-.9-.03-1.34-.13-.94-.24-1.78-.76-2.4-1.49-.66-.76-1.06-1.7-1.17-2.69-.04-.48-.04-.97 0-1.45v-1.44c.08-.96-.01-1.92-.28-2.85-.33-.92-.93-1.71-1.73-2.26-.81-.56-1.79-.83-2.77-.76h-22.44c-2.25-.09-4.49.33-6.54 1.25a14.61 14.61 0 00-5.32 4.02c-1.49 1.79-2.53 3.9-3.06 6.17-.15.56-.19 1.15-.3 1.73-.1.58 0 .99-.06 1.49v238.16c-.04 1.58.16 3.15.59 4.67.96 3.22 2.98 6.01 5.73 7.92 2.76 1.88 6.06 2.79 9.39 2.61h96.89c3.06-.18 5.98-1.31 8.35-3.24 1.16-.97 2.18-2.09 3.02-3.35.81-1.24 1.43-2.6 1.84-4.03.39-1.44.58-2.94.56-4.43v-22.32c0-46.83 0-89.01.08-124.44.08-35.42 0-64.08.08-83.89v-7.01c.05-2.06-.32-4.09-1.08-6-.66-1.62-1.61-3.11-2.79-4.41-.98-1.08-2.11-2.01-3.36-2.75-1.68-1.04-3.57-1.7-5.53-1.95-.5-.08-1-.13-1.5-.15H239.42l-5.87.01z" fill="#FAFAFA"/><path d="M241.59 156.01h.51c.5 0 1 .03 1.5.1 3.44.47 6.61 2.13 8.97 4.68 1.19 1.3 2.15 2.8 2.82 4.44.77 1.92 1.15 3.97 1.11 6.04V408.91c.03 1.53-.16 3.05-.56 4.53a15.42 15.42 0 01-1.91 4.19c-.86 1.29-1.9 2.45-3.09 3.44a15.048 15.048 0 01-8.57 3.33c-3.12.1-6.2 0-9.4 0h-87.45c-3.43.18-6.82-.76-9.67-2.68a15.36 15.36 0 01-5.89-8.15 16.73 16.73 0 01-.62-5.03v-24.86-38.88-73.49-66.5-33.75c0-.61 0-1.21.09-1.8.08-.59.14-1.2.3-1.78a15.2 15.2 0 013.13-6.3c1.5-1.77 3.38-3.18 5.5-4.12 2.09-.89 4.34-1.32 6.61-1.25h22.22c1.03-.06 2.06.23 2.91.82.84.58 1.48 1.42 1.83 2.39.27.95.37 1.94.29 2.93v1.45c-.03.45-.03.9 0 1.34.11.93.49 1.8 1.1 2.5a4.5 4.5 0 002.27 1.35c.44.1.89.14 1.34.12h36.95a4.35 4.35 0 001.82-.63 4.784 4.784 0 002.08-3c.11-.6.14-1.21.11-1.82v-1.77c-.02-.58 0-1.16.07-1.73.1-.56.29-1.09.56-1.59.53-.95 1.37-1.7 2.38-2.11.95-.3 1.95-.4 2.95-.31h17.57H224.02c-.98-.09-1.96.02-2.9.32-.98.39-1.79 1.12-2.29 2.05-.27.48-.46 1-.55 1.54-.04.57-.04 1.14 0 1.71v1.77c.03.62-.01 1.24-.11 1.84a4.832 4.832 0 01-2.16 3.12c-.57.36-1.21.59-1.88.67H177.2a5.5 5.5 0 01-1.34-.14c-.94-.23-1.78-.75-2.4-1.48a4.933 4.933 0 01-1.17-2.62c-.03-.49-.03-.97 0-1.45v-1.11c.08-.96-.02-1.92-.3-2.85a4.645 4.645 0 00-1.9-2.25c-.82-.55-1.79-.82-2.77-.77h-22.26a14.9 14.9 0 00-6.55 1.26c-2.06.92-3.88 2.29-5.33 4.02a15.14 15.14 0 00-3.04 6.17c-.15.57-.19 1.16-.3 1.74-.11.57 0 1.16-.08 1.77V408.63c-.06 1.65.15 3.31.6 4.9a14.78 14.78 0 005.74 7.92c2.76 1.87 6.06 2.78 9.39 2.59H242.48c3.05-.18 5.97-1.31 8.34-3.24 1.16-.96 2.17-2.09 3.01-3.34.82-1.24 1.45-2.6 1.85-4.04.4-1.44.58-2.93.55-4.42v-22.36c0-46.83 0-89 .07-124.43.07-35.43 0-64.08.09-83.91v-7.05c.04-2.05-.32-4.09-1.07-6a15.03 15.03 0 00-2.79-4.42c-.98-1.06-2.11-1.96-3.36-2.69-2.13-1.28-4.55-2-7.03-2.09l-.55-.04z" fill="#263238"/><path d="M244.46 180.09s-2.45.15-5.47.16c-3.02.02-5.49 0-5.49 0s2.45-.13 5.47-.16c3.02-.03 5.49-.05 5.49 0zM244.49 182.9s-2.46.15-5.49.16c-3.03.02-5.48 0-5.48-.07 0-.06 2.45-.13 5.48-.16 3.03-.02 5.49.02 5.49.07zM244.5 185.71s-2.44.15-5.47.16c-3.04.01-5.49 0-5.49 0s2.45-.13 5.49-.16c3.03-.03 5.47-.05 5.47 0zM144.75 188.92h3.21v-1.69-.98a.87.87 0 01.28-.49.84.84 0 01.51-.24c.37-.02.74-.02 1.11 0 .22.03.41.14.55.31.15.16.22.37.22.59v2.47l-.11-.1h2.95l-.1.12v-4.63c-.02-.14-.06-.27-.13-.39a.834.834 0 00-.29-.3l-1.34-1.35-1.25-1.23-.6-.6c-.17-.2-.38-.36-.62-.45a.701.701 0 00-.35-.02.86.86 0 00-.32.15c-.18.15-.38.36-.55.54l-1.06 1.07c-.67.69-1.34 1.35-1.87 1.93-.15.34-.2.72-.15 1.1V184.16c0-.21.06-.43.17-.61.55-.68 1.2-1.27 1.87-1.98l1.05-1.09c.19-.19.35-.36.58-.56.12-.09.26-.15.4-.18.15-.03.3-.02.44.02.28.09.53.26.72.49l.6.61c.42.39.83.8 1.25 1.22l1.34 1.34c.12.11.23.23.32.35.11.15.16.32.16.5V189.02h-3.18v-.11-2.49a.673.673 0 00-.16-.47.715.715 0 00-.43-.24h-1.07c-.16.02-.3.08-.42.18-.11.11-.19.25-.23.4V189h-3.27l-.23-.08z" fill="#263238"/><path d="M204.44 204.3c.01 1.96-.57 3.88-1.66 5.51a9.856 9.856 0 01-4.44 3.66c-1.81.75-3.81.95-5.73.57a9.85 9.85 0 01-5.07-2.72 9.913 9.913 0 01-2.72-5.08c-.38-1.92-.18-3.92.57-5.73a9.882 9.882 0 013.66-4.45 9.884 9.884 0 015.5-1.67c2.63 0 5.14 1.05 7 2.9a9.94 9.94 0 012.89 7.01z" fill="#9E22E9"/><path d="M197.95 208.3h-6.79v-.76c0-.91.36-1.77.99-2.41.64-.64 1.5-.99 2.4-.99.9 0 1.77.35 2.4.99.64.64 1 1.5 1 2.41v.76z" fill="#fff"/><path d="M196.54 202.31a2.014 2.014 0 01-1.24 1.85 1.996 1.996 0 01-2.18-.44c-.28-.28-.47-.64-.54-1.03-.08-.39-.04-.79.12-1.16.15-.36.41-.68.74-.89.33-.22.72-.34 1.11-.33.26 0 .52.05.77.15a1.992 1.992 0 011.22 1.85z" fill="#fff"/><path d="M219.19 230.5c0 .42-11.74.77-26.22.77-14.48 0-26.24-.35-26.24-.77 0-.41 11.75-.77 26.24-.77 14.49 0 26.22.34 26.22.77z" fill="#263238"/><path d="M139.46 256.6l-.19 34.09 45.3.25.19-34.08-45.3-.26z" fill="#9E22E9"/><path d="M139.26 290.69l15.95-21.1 9.71 13.3 6.68-7.04 12.95 15.09-45.29-.25zM169.18 267.08c-.01.7-.22 1.39-.61 1.98-.4.59-.96 1.04-1.61 1.31a3.5 3.5 0 01-2.07.19c-.69-.14-1.33-.48-1.82-.98a3.575 3.575 0 01-.75-3.91c.27-.65.73-1.21 1.32-1.59.59-.39 1.29-.6 1.99-.59.95 0 1.85.39 2.51 1.06.67.67 1.04 1.58 1.04 2.53z" fill="#E8505B"/><path d="M139.26 290.69l15.95-21.1 9.71 13.3 6.68-7.04 12.95 15.09-45.29-.25zM169.18 267.08c-.01.7-.22 1.39-.61 1.98-.4.59-.96 1.04-1.61 1.31a3.5 3.5 0 01-2.07.19c-.69-.14-1.33-.48-1.82-.98a3.575 3.575 0 01-.75-3.91c.27-.65.73-1.21 1.32-1.59.59-.39 1.29-.6 1.99-.59.95 0 1.85.39 2.51 1.06.67.67 1.04 1.58 1.04 2.53z" fill="#B156EE"/><path d="M139.3 301.22l-.44 78.8 104.68.58.44-78.8-104.68-.58z" fill="#9E22E9"/><path d="M138.86 380.01l36.84-48.79L198.18 362l15.44-16.29 29.93 34.88-104.69-.58zM207.99 325.4c-.01 1.64-.5 3.23-1.42 4.58a8.122 8.122 0 01-3.71 3.02c-1.51.62-3.17.78-4.77.45a8.24 8.24 0 01-6.43-6.52c-.31-1.61-.14-3.27.49-4.77.64-1.5 1.7-2.79 3.06-3.69a8.306 8.306 0 014.59-1.36c1.08.01 2.15.23 3.15.65 1 .42 1.9 1.03 2.66 1.8.76.77 1.36 1.68 1.77 2.68.41 1.01.61 2.08.61 3.16z" fill="#E8505B"/><path d="M138.86 380.01l36.84-48.79L198.18 362l15.44-16.29 29.93 34.88-104.69-.58zM207.99 325.4c-.01 1.64-.5 3.23-1.42 4.58a8.122 8.122 0 01-3.71 3.02c-1.51.62-3.17.78-4.77.45a8.24 8.24 0 01-6.43-6.52c-.31-1.61-.14-3.27.49-4.77.64-1.5 1.7-2.79 3.06-3.69a8.306 8.306 0 014.59-1.36c1.08.01 2.15.23 3.15.65 1 .42 1.9 1.03 2.66 1.8.76.77 1.36 1.68 1.77 2.68.41 1.01.61 2.08.61 3.16zM199.25 256.6l-.19 34.09 45.29.25.19-34.08-45.29-.26z" fill="#B156EE"/><path d="M199.05 290.69l15.94-21.1 9.72 13.3 6.69-7.04 12.94 15.09-45.29-.25zM225.39 270.62c1.97 0 3.57-1.6 3.57-3.57 0-1.98-1.6-3.58-3.57-3.58-1.97 0-3.57 1.6-3.57 3.58 0 1.97 1.6 3.57 3.57 3.57z" fill="#B156EE"/><path opacity=".2" d="M199.05 290.69l15.94-21.1 9.72 13.3 6.69-7.04 12.94 15.09M225.39 270.62c1.97 0 3.57-1.6 3.57-3.57 0-1.98-1.6-3.58-3.57-3.58-1.97 0-3.57 1.6-3.57 3.58 0 1.97 1.6 3.57 3.57 3.57z" fill="#B156EE"/><path d="M514.77 169.43h-8.63a7 7 0 00-2.61.29 4.221 4.221 0 00-2.53 3.22c-.07.51-.09 1.02-.07 1.53v1.6c.03.55 0 1.1-.11 1.64-.12.58-.35 1.12-.69 1.6-.33.49-.76.9-1.25 1.21-.52.32-1.09.52-1.69.59h-33.14c-.42.02-.85-.02-1.26-.12-.84-.21-1.59-.68-2.15-1.34-.57-.66-.93-1.48-1.04-2.35-.03-.45-.03-.9 0-1.35v-1.34c.08-.86-.01-1.73-.26-2.56-.29-.82-.83-1.53-1.54-2.03-.73-.49-1.6-.73-2.48-.68h-19.99a13.203 13.203 0 00-10.64 4.73 13.37 13.37 0 00-2.68 5.54c-.11.51-.2 1.02-.26 1.54 0 .45 0 .89-.06 1.35v213.57c-.04 1.42.14 2.83.53 4.2a13.25 13.25 0 005.13 7.09c2.49 1.69 5.46 2.51 8.45 2.34H522.75c2.74-.16 5.35-1.18 7.48-2.9 1.04-.87 1.94-1.88 2.68-3.01.74-1.13 1.3-2.36 1.67-3.66.35-1.29.52-2.62.49-3.96v-4.04-15.94-111.55c0-31.74 0-57.47.08-75.26v-6.28c.03-1.84-.3-3.66-.98-5.37a13.34 13.34 0 00-5.5-6.43c-1.51-.92-3.21-1.52-4.97-1.76-.59-.11-1.04-.08-1.34-.12h-7.58l-.01.01z" fill="#FAFAFA"/><path d="M515.22 259.87h-74.93v15.34h74.93v-15.34z" fill="#EBEBEB"/><path d="M522.15 169.31h.45c.45.01.9.05 1.35.11 3.09.42 5.93 1.9 8.05 4.19 1.07 1.19 1.93 2.55 2.53 4.04.69 1.7 1.02 3.53 1 5.37v213.09c.03 1.36-.15 2.72-.51 4.03-.37 1.34-.94 2.6-1.71 3.75-.76 1.17-1.69 2.21-2.76 3.1a13.535 13.535 0 01-7.69 2.98c-2.79.08-5.57 0-8.37 0h-78.48c-3.08.17-6.12-.67-8.67-2.39-2.54-1.77-4.4-4.35-5.28-7.31-.42-1.47-.61-2.99-.56-4.51v-4.5-52.67-65.86-59.63-27.01-3.24-1.62c0-.53.13-1.07.27-1.6.69-3.06 2.44-5.79 4.94-7.7 2.49-1.91 5.58-2.89 8.72-2.75h19.93c.93-.04 1.84.21 2.61.74.75.52 1.32 1.27 1.63 2.13.27.87.36 1.79.27 2.69v1.35c-.03.42-.03.84 0 1.26.1.83.45 1.61 1 2.23a3.82 3.82 0 002.03 1.26c.39.11.8.15 1.21.12h33.13a3.75 3.75 0 001.62-.57c.48-.3.89-.69 1.21-1.16.32-.46.55-.98.66-1.53.1-.53.14-1.07.11-1.61v-1.6a8.9 8.9 0 01.08-1.55c.08-.5.25-.99.49-1.44.48-.85 1.23-1.51 2.14-1.88.87-.27 1.78-.36 2.68-.28h15.81-15.65a6.38 6.38 0 00-2.6.28c-.88.35-1.6 1-2.05 1.83-.24.42-.4.87-.49 1.34-.04.51-.04 1.03 0 1.54v1.59c.03.56-.01 1.11-.1 1.66-.12.57-.35 1.1-.68 1.58-.33.48-.75.89-1.24 1.2a3.9 3.9 0 01-1.71.6h-33.21c-.43.01-.85-.03-1.26-.12-.84-.22-1.59-.7-2.16-1.35a4.42 4.42 0 01-1.04-2.33c-.03-.45-.03-.9 0-1.34v-1.35c.07-.86-.01-1.72-.25-2.55a4.037 4.037 0 00-4.03-2.69h-19.98c-2-.05-3.98.33-5.81 1.12-1.89.82-3.56 2.08-4.88 3.67a13.159 13.159 0 00-2.69 5.48c-.13.51-.17 1.03-.27 1.56-.09.52-.07 1.05-.07 1.58v212.93c-.05 1.49.13 2.97.54 4.4.86 2.88 2.67 5.38 5.14 7.1 2.49 1.68 5.46 2.5 8.46 2.33H522.94c2.74-.15 5.36-1.17 7.49-2.9 1.03-.87 1.93-1.87 2.68-3 .74-1.12 1.3-2.36 1.67-3.65.35-1.32.51-2.67.49-4.03V376.1c0-41.99 0-79.81.07-111.55.07-31.75 0-57.47.07-75.27v-6.29c.04-1.83-.29-3.66-.97-5.37-.6-1.46-1.45-2.79-2.51-3.95-.86-.98-1.88-1.81-3-2.48-1.52-.92-3.2-1.51-4.96-1.74-.44-.08-.89-.12-1.34-.12l-.48-.02z" fill="#263238"/><path d="M524.71 190.91s-2.2.12-4.91.15-4.91 0-4.91-.07 2.2-.12 4.91-.15c2.71-.02 4.91.02 4.91.07zM524.74 193.42c0 .07-2.2.13-4.91.15-2.71.03-4.92 0-4.93-.07-.01-.06 2.2-.12 4.93-.13 2.72-.01 4.91 0 4.91.05zM524.75 195.95s-2.19.12-4.91.15-4.91 0-4.91-.07 2.2-.12 4.91-.15c2.71-.02 4.91.02 4.91.07zM435.32 198.83h2.87v-1.52-.89c.04-.17.12-.32.25-.44.12-.11.28-.18.45-.2h1.01c.19.02.36.12.49.27.13.15.19.34.19.53v2.22l-.09-.09h2.68l-.11.1v-4.14a.94.94 0 00-.11-.36.839.839 0 00-.26-.27l-1.16-1.14-1.11-1.1-.55-.54c-.19-.17-.32-.36-.55-.4a.686.686 0 00-.6.1c-.16.14-.34.34-.5.49l-.94.97c-.6.61-1.22 1.18-1.68 1.72-.13.31-.18.65-.13.99V198.88a1.71 1.71 0 010-.32v-2.46-1.48a.9.9 0 01.15-.55c.48-.61 1.07-1.14 1.67-1.78.3-.32.62-.64.94-.96.16-.18.33-.35.51-.51.11-.08.24-.14.37-.16.13-.03.27-.02.4.01.25.09.47.24.63.46l.55.52 1.11 1.1 1.17 1.14c.11.1.21.21.3.33.08.13.13.28.13.44V198.91h-2.89v-.1-2.23c.01-.15-.05-.3-.14-.42a.62.62 0 00-.39-.22h-.97c-.13.01-.26.07-.36.16-.11.09-.17.21-.2.35v2.43h-2.93l-.2-.05z" fill="#263238"/><path d="M515.38 282.73h-74.93v15.34h74.93v-15.34zM515.38 304.98h-74.93v15.33h74.93v-15.33z" fill="#EBEBEB"/><path d="M497.37 350.78H459.8c-2.03 0-3.98-.81-5.41-2.25a7.659 7.659 0 01-2.24-5.42c0-2.04.81-3.99 2.24-5.42a7.628 7.628 0 015.41-2.25h37.57c2.03 0 3.98.81 5.41 2.25a7.624 7.624 0 012.24 5.42c0 2.03-.8 3.98-2.24 5.42a7.628 7.628 0 01-5.41 2.25z" fill="#9E22E9"/><path d="M501.9 244.03c0 .37-10.52.68-23.51.68-12.99 0-23.52-.31-23.52-.68 0-.38 10.53-.69 23.52-.69s23.51.31 23.51.69z" fill="#263238"/><path d="M453.34 153.57h-9.63c-.98-.09-1.97.01-2.9.31a4.6 4.6 0 00-2.3 2.05c-.26.48-.44 1-.53 1.54-.08.57-.1 1.15-.07 1.72v1.78c.02.61-.02 1.23-.12 1.84-.14.63-.39 1.23-.76 1.77-.37.53-.84.98-1.39 1.33-.57.36-1.22.59-1.89.67h-36.93c-.45.01-.9-.03-1.34-.13-.94-.24-1.78-.76-2.41-1.49a5.06 5.06 0 01-1.16-2.69c-.03-.48-.03-.97 0-1.45v-1.44c.08-.96-.01-1.92-.28-2.85a4.76 4.76 0 00-1.72-2.26c-.82-.55-1.8-.82-2.78-.76h-22.38c-2.25-.09-4.49.33-6.55 1.25a14.61 14.61 0 00-5.32 4.02c-1.48 1.79-2.53 3.9-3.06 6.16-.15.58-.19 1.16-.29 1.74-.11.58 0 .99 0 1.49v238.16c-.05 1.58.16 3.16.6 4.67.95 3.22 2.97 6.01 5.72 7.92a15.28 15.28 0 009.39 2.61h96.89c3.06-.18 5.98-1.31 8.35-3.24 1.16-.96 2.18-2.09 3.02-3.35.81-1.24 1.43-2.6 1.84-4.03.41-1.44.6-2.94.56-4.44v-4.5-17.78c0-46.84 0-89.01.07-124.44.07-35.43 0-64.08.08-83.89v-7.02c.04-2.05-.33-4.09-1.09-5.99-.66-1.63-1.6-3.12-2.79-4.41a14.69 14.69 0 00-8.88-4.7c-.5-.08-1-.13-1.5-.14H459.26l-5.92-.03z" fill="#FAFAFA"/><path d="M461.38 153.78h.51c.51.01 1.01.05 1.51.12 1.97.24 3.86.89 5.56 1.92 1.27.72 2.41 1.63 3.4 2.69 1.2 1.3 2.15 2.8 2.82 4.43.77 1.92 1.15 3.97 1.11 6.04V406.61c.04 1.53-.15 3.06-.56 4.54-.42 1.49-1.06 2.9-1.91 4.2-.85 1.29-1.89 2.45-3.08 3.44a15.148 15.148 0 01-8.58 3.33c-3.11.08-6.2 0-9.33 0h-87.52c-3.43.19-6.82-.75-9.66-2.69a15.204 15.204 0 01-5.9-8.13c-.46-1.64-.67-3.34-.61-5.04v-24.85-38.88-73.49-66.52-33.73c0-.61 0-1.21.08-1.82.08-.6.16-1.18.31-1.76.53-2.31 1.6-4.47 3.12-6.3 1.5-1.77 3.39-3.18 5.51-4.13 2.08-.89 4.33-1.31 6.6-1.25h22.22c1.04-.05 2.07.24 2.93.82.83.6 1.46 1.43 1.81 2.4.28.95.38 1.94.29 2.93v1.45c-.03.47-.03.94 0 1.41.12.92.51 1.78 1.11 2.49.6.66 1.39 1.13 2.26 1.34.44.11.89.16 1.34.13h37.07c.65-.07 1.27-.28 1.83-.63a4.77 4.77 0 002.08-3c.1-.59.14-1.2.12-1.81v-1.77c-.03-.58 0-1.16.08-1.74.09-.56.28-1.1.55-1.6.53-.94 1.37-1.68 2.37-2.09.96-.3 1.96-.41 2.96-.31h17.56-17.48c-.98-.09-1.97.02-2.9.32-.99.39-1.8 1.11-2.3 2.04-.27.48-.45 1-.53 1.55-.08.56-.11 1.14-.08 1.71v1.77c.03.62-.01 1.23-.11 1.84-.13.64-.39 1.24-.76 1.77s-.84.99-1.39 1.34c-.57.36-1.22.59-1.89.67h-37.01c-.46.01-.91-.03-1.35-.14-.93-.23-1.77-.75-2.4-1.48a4.935 4.935 0 01-1.17-2.68c-.03-.49-.03-.97 0-1.45v-1.46c.09-.96-.01-1.92-.28-2.85-.33-.91-.93-1.7-1.73-2.25-.81-.56-1.78-.83-2.76-.77h-22.35c-2.22-.07-4.43.36-6.48 1.24-2.1.92-3.96 2.33-5.43 4.1a14.973 14.973 0 00-3.01 6.11c-.15.57-.19 1.16-.3 1.73-.1.58-.06 1.17-.08 1.78V405.95c-.05 1.66.15 3.32.61 4.92.96 3.21 2.98 6 5.73 7.92 2.76 1.87 6.06 2.78 9.39 2.59h96.91c3.01-.06 5.94-1.05 8.37-2.84a15.68 15.68 0 003.02-3.33c.81-1.24 1.43-2.6 1.84-4.03.4-1.45.59-2.94.56-4.44v-22.37c0-46.83 0-89.02.07-124.43.07-35.42.07-64.1.09-83.91v-7.01c.05-2.05-.31-4.08-1.07-5.98a14.95 14.95 0 00-2.79-4.43c-.98-1.05-2.11-1.96-3.36-2.68-1.68-1.03-3.57-1.7-5.52-1.97-.5-.07-1-.12-1.51-.13l-.51-.05z" fill="#263238"/><path d="M464.25 177.82s-2.45.13-5.47.16c-3.02.03-5.53-.01-5.53-.01s2.46-.14 5.49-.16c3.03-.03 5.51-.06 5.51.01zM464.28 180.66s-2.45.13-5.49.16c-3.03.02-5.47 0-5.47 0s2.45-.14 5.47-.16c3.02-.03 5.49-.1 5.49 0zM464.29 183.44c0 .07-2.44.13-5.47.16s-5.48 0-5.48 0 2.45-.14 5.48-.16c3.03-.03 5.47-.1 5.47 0zM364.54 186.65h3.21l-.07.07v-1.71-.97c.04-.19.14-.36.28-.49s.32-.21.52-.23h1.11c.22.03.41.14.55.31.14.17.22.38.21.6v2.47l-.1-.1h2.95l-.11.12V182a.824.824 0 00-.13-.4c-.07-.12-.17-.22-.28-.3l-1.35-1.34-1.24-1.24-.61-.59c-.2-.2-.37-.42-.62-.46a.781.781 0 00-.34-.01c-.12.02-.23.06-.33.13-.17.16-.37.38-.55.55l-1.06 1.07c-.67.7-1.34 1.34-1.86 1.93-.15.35-.2.73-.15 1.1v3.79c.01.13.01.26 0 .39v-.36-1.05-1.69-1.06-.58c0-.22.06-.44.18-.63.53-.66 1.19-1.27 1.86-1.98l1.05-1.07c.18-.2.37-.39.57-.57.12-.09.26-.15.41-.18.15-.03.31-.03.45.01.28.11.52.28.7.51l.6.59 1.27 1.24 1.34 1.26c.12.11.23.23.33.36.1.15.15.32.15.5v4.74h-3.18v-.1-2.48a.673.673 0 00-.16-.47.73.73 0 00-.43-.25h-1.07c-.16.01-.3.08-.41.18-.12.11-.2.24-.22.4-.02.31-.02.62 0 .94v1.77H364.54z" fill="#263238"/><path d="M438.95 245.86c2.09-13.56-7.18-26.25-20.72-28.35-13.53-2.1-26.2 7.19-28.3 20.75-2.09 13.55 7.18 26.24 20.72 28.34 13.53 2.1 26.2-7.19 28.3-20.74z" fill="#9E22E9"/><path d="M422.97 252.09h-17.01v-2.1c0-2.26.89-4.42 2.49-6.02a8.485 8.485 0 0112.03 0c1.6 1.6 2.49 3.76 2.49 6.02v2.1z" fill="#fff"/><path d="M414.47 242.08c2.76 0 5-2.25 5-5.02a5.004 5.004 0 10-10.01 0c0 2.77 2.24 5.02 5.01 5.02z" fill="#fff"/><path d="M453.85 295.34h-83.58v17.09h83.58v-17.09zM453.85 320.15h-83.58v17.1h83.58v-17.1z" fill="#EBEBEB"/><path d="M433.76 371.22h-41.95a8.554 8.554 0 01-6.04-2.5 8.63 8.63 0 01-1.85-2.77 8.749 8.749 0 01-.64-3.28 8.554 8.554 0 012.5-6.04c.79-.79 1.73-1.42 2.77-1.85 1.03-.43 2.14-.65 3.26-.65h41.95c1.13 0 2.23.22 3.27.65a8.522 8.522 0 014.62 4.62 8.554 8.554 0 010 6.54 8.672 8.672 0 01-1.85 2.78c-.79.79-1.73 1.42-2.77 1.85-1.04.43-2.14.65-3.27.65z" fill="#9E22E9"/><path d="M438.98 285.04c0 .42-11.74.77-26.22.77-14.48 0-26.23-.35-26.23-.77 0-.41 11.74-.78 26.23-.78 14.5 0 26.22.35 26.22.78z" fill="#263238"/><path d="M381.82 307.65h-3.72a.69.69 0 01-.25-.04.826.826 0 01-.22-.14.701.701 0 01-.14-.21.742.742 0 01-.05-.25c0-.33.06-.65.18-.95.13-.3.31-.57.53-.8.23-.23.5-.41.8-.54.3-.12.62-.19.95-.19h.08c.65 0 1.28.26 1.74.73.47.46.73 1.09.73 1.75 0 .16-.07.33-.19.45s-.28.19-.44.19z" fill="#E0E0E0"/><path d="M381.44 303.24c0 .29-.09.58-.25.82-.16.25-.39.44-.66.55-.27.11-.57.14-.85.08-.29-.05-.55-.2-.76-.4-.21-.21-.35-.47-.4-.76-.06-.29-.03-.58.08-.85s.3-.5.54-.67c.25-.16.53-.25.82-.25.2 0 .39.04.57.11.18.08.34.19.48.32.14.14.25.3.32.48s.11.38.11.57zM382.16 328.97h-4.4v3.11h4.4v-3.11z" fill="#E0E0E0"/><path d="M382.66 329.64h-1.48v-.97a1.249 1.249 0 00-1.24-1.25 1.249 1.249 0 00-1.25 1.25v.97h-1.48v-.97c0-.72.29-1.42.8-1.93s1.2-.8 1.93-.8c.72 0 1.41.29 1.92.8s.8 1.21.8 1.93v.97z" fill="#E0E0E0"/><path d="M365.6 101.36h-14.34c-1.46-.14-2.93.02-4.32.47a6.749 6.749 0 00-3.41 3.04c-.4.71-.67 1.49-.81 2.3-.1.84-.14 1.7-.1 2.55v2.69c.04.9-.02 1.8-.17 2.69-.2.94-.58 1.84-1.14 2.63-.55.79-1.25 1.47-2.06 1.99-.86.54-1.82.87-2.82.99-1.02.1-2.01 0-3.03 0h-52.05c-.7.02-1.4-.05-2.08-.21a6.948 6.948 0 01-3.57-2.21 7.315 7.315 0 01-1.74-3.89c-.08-.72-.11-1.44-.08-2.17v-2.15c.12-1.43-.02-2.87-.43-4.24a6.953 6.953 0 00-2.56-3.36 6.761 6.761 0 00-4.18-.99h-33.05c-3.31-.09-6.61.54-9.65 1.85-3.1 1.37-5.85 3.42-8.05 6a22.293 22.293 0 00-4.55 9.2c-.22.84-.28 1.72-.43 2.58-.15.86-.08 1.46-.11 2.2V477.6c-.06 2.36.24 4.71.89 6.97 1.42 4.78 4.43 8.93 8.52 11.78a22.69 22.69 0 0014.05 3.87h130.44c4.65 0 9.3.07 13.86 0 4.55-.27 8.9-1.95 12.43-4.83 1.73-1.43 3.24-3.1 4.48-4.97 1.23-1.87 2.16-3.92 2.76-6.07.59-2.15.87-4.37.83-6.59v-6.72-26.45c0-69.7.08-132.48.1-185.2.03-52.73.1-95.43.13-124.87v-10.43c.06-3.06-.49-6.09-1.62-8.93-.98-2.42-2.39-4.64-4.16-6.57a22.127 22.127 0 00-6.97-5.16c-2.64-1.24-5.5-1.94-8.42-2.07h-.76-11.83z" fill="#FAFAFA"/><path d="M376.86 101.19h.77c.74 0 1.49.05 2.23.16 2.93.36 5.75 1.33 8.28 2.86 1.87 1.08 3.56 2.44 5.03 4.03 1.78 1.93 3.2 4.17 4.2 6.6 1.14 2.85 1.7 5.9 1.65 8.96V476.83c.04 2.27-.25 4.54-.85 6.72-.62 2.21-1.57 4.31-2.81 6.23a23.952 23.952 0 01-4.59 5.1 22.268 22.268 0 01-12.75 4.96c-4.62.14-9.22 0-13.87 0H234.16c-5.11.27-10.16-1.15-14.38-4.03-4.2-2.92-7.28-7.19-8.73-12.1a24.13 24.13 0 01-.93-7.47v-7.3-29.56-57.8-109.17-98.8-44.78-5.37c0-.89.07-1.79.12-2.69.05-.9.22-1.78.44-2.69.8-3.45 2.39-6.68 4.65-9.41 2.19-2.61 4.95-4.69 8.07-6.08 3.12-1.38 6.51-2.03 9.92-1.9h33c1.55-.09 3.07.34 4.35 1.21 1.24.88 2.18 2.12 2.68 3.56.42 1.41.57 2.89.45 4.35v2.15c-.05.71-.05 1.41 0 2.11.17 1.37.74 2.66 1.65 3.7a6.512 6.512 0 003.37 2.1c.65.14 1.32.21 1.98.2H335.72c.95-.11 1.87-.44 2.68-.94.79-.5 1.47-1.15 2-1.91.53-.77.9-1.63 1.09-2.54.16-.89.22-1.79.17-2.69v-2.69c-.04-.85 0-1.71.11-2.56.14-.83.42-1.63.83-2.37a6.984 6.984 0 013.53-3.12 11 11 0 014.38-.47h26.1-26.1c-1.46-.13-2.92.02-4.31.46a6.83 6.83 0 00-3.41 3.04c-.39.71-.66 1.49-.79 2.29-.12.85-.15 1.7-.11 2.54v2.69c.05.9-.01 1.8-.17 2.69-.2.95-.58 1.84-1.13 2.64-.55.79-1.25 1.47-2.07 1.98-.85.54-1.81.88-2.8 1-1.02.09-2.02 0-3.04 0h-51.65c-.69.02-1.39-.05-2.07-.22a6.866 6.866 0 01-3.57-2.2 7.51 7.51 0 01-1.74-3.88c-.05-.73-.05-1.45 0-2.17v-2.15c.12-1.42-.03-2.86-.43-4.23a6.868 6.868 0 00-2.56-3.35 6.696 6.696 0 00-4.12-1.14h-33.02c-3.34-.13-6.66.51-9.71 1.87-3.06 1.36-5.76 3.4-7.91 5.96a22.02 22.02 0 00-4.53 9.17c-.23.85-.3 1.72-.44 2.58-.15.86-.11 1.75-.13 2.69v353.3c-.07 2.46.24 4.92.9 7.29 1.43 4.78 4.43 8.92 8.51 11.76 4.12 2.8 9.05 4.15 14.01 3.86h130.06c4.63 0 9.27.08 13.83 0 4.53-.26 8.87-1.94 12.39-4.81 1.72-1.43 3.23-3.11 4.48-4.97 1.2-1.87 2.11-3.92 2.68-6.06.6-2.14.88-4.36.84-6.58v-6.72-26.41c0-69.56.06-132.22.1-184.85.04-52.63.1-95.21.12-124.64v-10.42c.07-3.04-.48-6.07-1.61-8.9a21.9 21.9 0 00-4.14-6.55 21.528 21.528 0 00-4.98-4.04c-2.51-1.53-5.3-2.52-8.21-2.9-.74-.11-1.49-.18-2.23-.2l-.69-.01z" fill="#263238"/><path d="M381.13 136.96c0 .1-3.64.2-8.13.24-4.5.04-8.15 0-8.15-.1 0-.11 3.64-.2 8.13-.24 4.5-.05 8.15.01 8.15.1zM381.17 141.14c0 .1-3.65.2-8.14.23-4.5.03-8.15 0-8.15-.09 0-.1 3.65-.2 8.15-.25 4.49-.04 8.14 0 8.14.11zM381.2 145.31c0 .09-3.64.2-8.13.24-4.5.04-8.15 0-8.15-.11 0-.1 3.64-.2 8.13-.24 4.5-.04 8.15.01 8.15.11zM233 150.07h1.29l3.48-.08-.1.1v-2.52-1.47a1.341 1.341 0 011.17-1.06h1.66c.32.05.61.21.82.46.21.25.33.56.32.88v3.69l-.16-.16h4.39l-.17.17v-5.48-1.35c-.02-.21-.09-.41-.2-.59-.1-.18-.25-.34-.42-.46l-1.92-1.89-1.95-1.98-.9-.88c-.3-.3-.55-.61-.89-.68-.18-.04-.35-.05-.53-.01-.17.03-.34.1-.48.2-.27.23-.55.55-.82.81l-1.57 1.58c-.99 1.04-2.03 1.98-2.78 2.87-.22.51-.29 1.08-.21 1.64V149.5c.02.19.02.38 0 .57v-.53-1.57-2.51-1.58-.86c-.02-.32.07-.65.24-.92.8-1 1.77-1.88 2.78-2.93l1.55-1.62c.29-.26.51-.55.85-.83.18-.13.39-.23.61-.27.22-.04.45-.04.66.02.42.14.78.4 1.05.75l.9.89c.62.59 1.23 1.2 1.87 1.82l1.7 1.88c.18.17.34.35.48.54.15.22.23.48.24.74v6.99h-4.72v-.16-3.68c0-.26-.09-.5-.25-.7-.16-.19-.39-.32-.63-.37h-1.6c-.23.03-.44.13-.61.28-.17.16-.28.36-.33.58v4.04h-4.55c-.09.01-.18.01-.27 0z" fill="#263238"/><path d="M368.49 172.12H238.26c-6.51 0-11.79 5.29-11.79 11.82v4.39c0 6.52 5.28 11.81 11.79 11.81h130.23c6.51 0 11.8-5.29 11.8-11.81v-4.39c0-6.53-5.29-11.82-11.8-11.82z" fill="#F5F5F5"/><path d="M368.48 200.14l.88-.06c2.28-.19 4.44-1.04 6.24-2.45a11.54 11.54 0 003.5-4.45c.48-1.03.79-2.13.93-3.26.12-1.26.15-2.52.11-3.78.05-1.37-.01-2.75-.18-4.11-.26-1.43-.77-2.8-1.53-4.04-.84-1.38-1.97-2.58-3.31-3.5a11.48 11.48 0 00-4.44-1.87c-1.78-.22-3.58-.29-5.37-.2h-5.68l-121.38.08c-2.89 0-5.66 1.09-7.78 3.05a11.509 11.509 0 00-3.68 7.51c-.11 1.35 0 2.88 0 4.3-.08 1.41.07 2.81.43 4.17a11.69 11.69 0 004.77 6.53c1.14.75 2.4 1.29 3.72 1.59 1.33.25 2.68.36 4.03.31h78.48l36.78.09h12.6H355l-36.78.08h-78.5c-1.39.06-2.8-.04-4.17-.31-1.39-.31-2.71-.88-3.9-1.67a12.04 12.04 0 01-5.01-6.85c-.38-1.4-.53-2.86-.46-4.31v-4.35c.25-3.03 1.64-5.85 3.87-7.91 2.24-2.06 5.17-3.2 8.21-3.19l121.39.08h5.67c1.79-.07 3.59.01 5.37.23 2.4.48 4.59 1.67 6.29 3.43 1.7 1.75 2.83 3.98 3.22 6.4.17 1.38.22 2.76.17 4.15.03 1.27-.02 2.54-.14 3.8-.15 1.15-.48 2.27-.96 3.32a11.95 11.95 0 01-3.61 4.51c-1.14.85-2.42 1.5-3.78 1.92-.83.24-1.69.39-2.56.44-.54.34-.84.32-.84.32z" fill="#263238"/><path d="M370.85 185.47s0-.45-.27-1.21c-.3-1.08-.95-2.03-1.85-2.69-.72-.53-1.57-.86-2.46-.94a4.9 4.9 0 00-2.58.5c-.8.4-1.47 1.02-1.94 1.78-.46.76-.71 1.64-.71 2.53 0 .9.25 1.77.71 2.53.47.76 1.14 1.38 1.94 1.78.8.4 1.69.58 2.58.5.89-.08 1.74-.4 2.46-.94.9-.66 1.55-1.61 1.85-2.69.23-.75.22-1.21.27-1.21.05 0 0 .11 0 .33.01.31-.01.63-.08.94a5.06 5.06 0 01-1.84 2.93c-.69.55-1.52.91-2.39 1.05-.88.15-1.78.07-2.61-.23a5.326 5.326 0 01-2.49-1.98c-.62-.89-.94-1.95-.94-3.04 0-1.08.32-2.14.94-3.03.61-.9 1.48-1.59 2.49-1.98.83-.3 1.73-.38 2.6-.23.88.14 1.7.5 2.4 1.05a5.06 5.06 0 011.84 2.93c.07.31.09.63.08.94.03.25.03.38 0 .38z" fill="#263238"/><path d="M373.64 194.22c-.94-.61-1.78-1.38-2.48-2.26a9.8 9.8 0 01-2.05-2.69c.94.62 1.78 1.38 2.48 2.27.83.77 1.53 1.67 2.05 2.68z" fill="#263238"/><path d="M247.23 183.34h-2.69v-.71h6.31v.71h-2.68v7.11h-.84l-.1-7.11zM256.45 187.75h-4.92c.02.29.09.57.22.83.13.25.3.48.51.67.22.19.47.34.74.43.27.09.56.13.84.12.34.01.68-.06.99-.19.31-.14.59-.34.81-.59l.44.52a3.1 3.1 0 01-1.56.91c-.6.14-1.23.1-1.81-.12-.57-.22-1.07-.61-1.43-1.11-.35-.51-.55-1.11-.56-1.72-.02-.39.03-.78.17-1.14a3 3 0 01.61-.98 2.881 2.881 0 012.09-.87c.38 0 .77.07 1.12.22.36.15.68.37.95.65.26.28.47.62.6.98s.18.75.16 1.14l.03.25zm-4.92-.59h4.16c0-.55-.21-1.08-.61-1.47-.39-.39-.91-.61-1.47-.61a2.082 2.082 0 00-2.08 2.08zM261.64 190.44l-1.87-2.46-1.87 2.46h-.89l2.32-3.06-2.21-2.87h.9l1.75 2.3 1.76-2.3h.87l-2.2 2.87 2.34 3.01-.9.05zM266.95 190.06c-.35.29-.79.43-1.24.42-.24.03-.47 0-.69-.08-.22-.07-.42-.2-.58-.36a1.69 1.69 0 01-.37-.58c-.08-.22-.11-.46-.08-.69v-3.54h-1.05v-.68h1.09v-1.34h.79v1.34h1.78v.68h-1.78v3.49c-.02.14-.01.28.04.42.04.13.12.26.21.36.1.1.22.18.35.23.14.05.28.07.42.05.32.01.63-.1.87-.29l.24.57z" fill="#E0E0E0"/><path d="M331.38 226.84c0 .16-11.26.28-25.13.28-13.88 0-25.15-.12-25.15-.28 0-.17 11.26-.3 25.15-.3 13.89 0 25.13.13 25.13.3z" fill="#E8505B"/><path d="M371.48 237.17c0 .16-20.24.28-45.18.28-24.95 0-45.2-.12-45.2-.28 0-.16 20.24-.29 45.2-.29 24.96 0 45.18.13 45.18.29zM370.42 244.55c0 .16-19.99.28-44.66.28-24.67 0-44.66-.12-44.66-.28 0-.16 19.99-.28 44.66-.28 24.67 0 44.66.12 44.66.28zM333.81 251.59c0 .16-11.81.28-26.37.28s-26.37-.12-26.37-.28c0-.16 11.81-.28 26.37-.28s26.37.12 26.37.28z" fill="#263238"/><path d="M331.38 283.01c0 .15-11.26.29-25.13.29-13.88 0-25.15-.14-25.15-.29 0-.14 11.26-.29 25.15-.29 13.89 0 25.13.08 25.13.29z" fill="#E8505B"/><path d="M371.48 293.35c0 .15-20.24.28-45.18.28-24.95 0-45.2-.13-45.2-.28 0-.15 20.24-.3 45.2-.3 24.96 0 45.18.14 45.18.3zM370.42 300.73c0 .16-19.99.28-44.66.28-24.67 0-44.66-.12-44.66-.28 0-.16 19.99-.3 44.66-.3 24.67 0 44.66.14 44.66.3zM333.81 307.77c0 .15-11.81.28-26.37.28s-26.37-.13-26.37-.28c0-.15 11.81-.29 26.37-.29s26.37.13 26.37.29z" fill="#263238"/><path d="M331.38 339.25c0 .16-11.26.29-25.13.29-13.88 0-25.15-.13-25.15-.29 0-.16 11.26-.28 25.15-.28 13.89 0 25.13.06 25.13.28z" fill="#E8505B"/><path d="M371.48 349.52c0 .16-20.24.29-45.18.29-24.95 0-45.2-.13-45.2-.29 0-.17 20.24-.29 45.2-.29 24.96 0 45.18.14 45.18.29zM370.42 356.91c0 .15-19.99.28-44.66.28-24.67 0-44.66-.13-44.66-.28 0-.15 19.99-.3 44.66-.3 24.67 0 44.66.11 44.66.3zM333.81 363.94c0 .16-11.81.29-26.37.29s-26.37-.13-26.37-.29c0-.16 11.81-.29 26.37-.29s26.37.14 26.37.29z" fill="#263238"/><path d="M331.38 395.36c0 .16-11.26.28-25.13.28-13.88 0-25.15-.12-25.15-.28 0-.16 11.26-.28 25.15-.28 13.89 0 25.13.12 25.13.28z" fill="#E8505B"/><path d="M371.48 405.7c0 .16-20.24.28-45.18.28-24.95 0-45.2-.12-45.2-.28 0-.17 20.24-.29 45.2-.29 24.96 0 45.18.12 45.18.29zM370.42 413.07c0 .17-19.99.3-44.66.3-24.67 0-44.66-.13-44.66-.3 0-.16 19.99-.28 44.66-.28 24.67 0 44.66.14 44.66.28zM333.81 420.12c0 .16-11.81.29-26.37.29s-26.37-.13-26.37-.29c0-.16 11.81-.29 26.37-.29s26.37.13 26.37.29z" fill="#263238"/><path d="M331.38 451.15c0 .15-11.26.28-25.13.28-13.88 0-25.15-.13-25.15-.28 0-.15 11.26-.3 25.15-.3 13.89 0 25.13.14 25.13.3z" fill="#E8505B"/><path d="M371.48 461.55c0 .15-20.24.28-45.18.28-24.95 0-45.2-.13-45.2-.28 0-.15 20.24-.29 45.2-.29 24.96 0 45.18.06 45.18.29zM370.42 468.86c0 .16-19.99.29-44.66.29-24.67 0-44.66-.13-44.66-.29 0-.16 19.99-.28 44.66-.28 24.67 0 44.66.12 44.66.28zM333.81 475.91c0 .16-11.81.28-26.37.28s-26.37-.12-26.37-.28c0-.17 11.81-.3 26.37-.3s26.37.13 26.37.3z" fill="#263238"/><path d="M227.24 226.41l-.17 30.83 40.96.23.17-30.83-40.96-.23z" fill="#9E22E9"/><path d="M227.07 257.25l14.41-19.08 8.81 12.04 6.03-6.39 11.72 13.66-40.97-.23zM254.12 235.88c0 .64-.19 1.27-.54 1.8-.36.54-.87.95-1.46 1.2-.59.24-1.24.3-1.87.18-.63-.13-1.21-.44-1.66-.9-.45-.45-.75-1.03-.88-1.66-.12-.63-.05-1.29.2-1.88.25-.59.67-1.09 1.2-1.45.54-.35 1.17-.53 1.81-.53.42 0 .84.09 1.23.25.39.17.74.41 1.04.71.3.3.53.65.69 1.05.16.39.25.81.24 1.23z" fill="#E8505B"/><path d="M227.07 257.25l14.41-19.08 8.81 12.04 6.03-6.39 11.72 13.66-40.97-.23zM254.12 235.88c0 .64-.19 1.27-.54 1.8-.36.54-.87.95-1.46 1.2-.59.24-1.24.3-1.87.18-.63-.13-1.21-.44-1.66-.9-.45-.45-.75-1.03-.88-1.66-.12-.63-.05-1.29.2-1.88.25-.59.67-1.09 1.2-1.45.54-.35 1.17-.53 1.81-.53.42 0 .84.09 1.23.25.39.17.74.41 1.04.71.3.3.53.65.69 1.05.16.39.25.81.24 1.23z" fill="#B156EE"/><path d="M227.16 281.89l-.17 30.84 40.96.22.17-30.83-40.96-.23z" fill="#9E22E9"/><path d="M227.07 312.7l14.41-19.08 8.81 12.04 6.03-6.37 11.72 13.66-40.97-.25z" fill="#E8505B"/><path d="M254.12 291.35c0 .64-.19 1.26-.55 1.8-.36.53-.87.94-1.46 1.18-.59.25-1.24.31-1.87.18-.63-.13-1.2-.44-1.65-.9a3.27 3.27 0 01-.88-1.67 3.245 3.245 0 011.4-3.31c.54-.35 1.17-.54 1.81-.53.42 0 .84.08 1.23.25.39.16.75.4 1.04.7.3.31.54.66.7 1.06.16.39.24.81.23 1.24zM227.07 312.7l14.41-19.08 8.81 12.04 6.03-6.37 11.72 13.66-40.97-.25z" fill="#B156EE"/><path opacity=".2" d="M254.12 291.35c0 .64-.19 1.26-.55 1.8-.36.53-.87.94-1.46 1.18-.59.25-1.24.31-1.87.18-.63-.13-1.2-.44-1.65-.9a3.27 3.27 0 01-.88-1.67 3.245 3.245 0 011.4-3.31c.54-.35 1.17-.54 1.81-.53.42 0 .84.08 1.23.25.39.16.75.4 1.04.7.3.31.54.66.7 1.06.16.39.24.81.23 1.24z" fill="#B156EE"/><path d="M227.24 337.35l-.17 30.83 40.96.23.17-30.83-40.96-.23z" fill="#9E22E9"/><path d="M227.07 368.17l14.41-19.08 8.81 12.04 6.03-6.39 11.72 13.66-40.97-.23z" fill="#E8505B"/><path d="M254.12 346.81c0 .65-.19 1.27-.55 1.8-.36.53-.87.95-1.46 1.19s-1.24.3-1.87.17c-.63-.12-1.2-.44-1.65-.89a3.27 3.27 0 01-.88-1.67c-.12-.63-.05-1.28.2-1.87.25-.59.67-1.09 1.2-1.45.54-.35 1.17-.53 1.81-.53a3.247 3.247 0 013.2 3.25zM227.07 368.17l14.41-19.08 8.81 12.04 6.03-6.39 11.72 13.66-40.97-.23z" fill="#B156EE"/><path opacity=".2" d="M254.12 346.81c0 .65-.19 1.27-.55 1.8-.36.53-.87.95-1.46 1.19s-1.24.3-1.87.17c-.63-.12-1.2-.44-1.65-.89a3.27 3.27 0 01-.88-1.67c-.12-.63-.05-1.28.2-1.87.25-.59.67-1.09 1.2-1.45.54-.35 1.17-.53 1.81-.53a3.247 3.247 0 013.2 3.25z" fill="#B156EE"/><path d="M227.26 392.8l-.18 30.83 40.96.23.17-30.83-40.95-.23z" fill="#9E22E9"/><path d="M227.07 423.64l14.41-19.09 8.81 12.05 6.03-6.39 11.72 13.66-40.97-.23z" fill="#E8505B"/><path d="M254.12 402.27c0 .64-.19 1.27-.54 1.8-.36.53-.87.95-1.46 1.19-.59.25-1.24.31-1.87.18-.63-.12-1.21-.44-1.66-.89-.45-.46-.75-1.04-.88-1.67-.12-.63-.05-1.28.2-1.87.25-.59.67-1.1 1.2-1.45.54-.35 1.17-.54 1.81-.53.42 0 .84.09 1.23.25a3.18 3.18 0 011.73 1.75c.16.39.25.81.24 1.24zM227.07 423.64l14.41-19.09 8.81 12.05 6.03-6.39 11.72 13.66-40.97-.23z" fill="#B156EE"/><path opacity=".2" d="M254.12 402.27c0 .64-.19 1.27-.54 1.8-.36.53-.87.95-1.46 1.19-.59.25-1.24.31-1.87.18-.63-.12-1.21-.44-1.66-.89-.45-.46-.75-1.04-.88-1.67-.12-.63-.05-1.28.2-1.87.25-.59.67-1.1 1.2-1.45.54-.35 1.17-.54 1.81-.53.42 0 .84.09 1.23.25a3.18 3.18 0 011.73 1.75c.16.39.25.81.24 1.24z" fill="#FAFAFA"/><path d="M227.24 448l-.17 30.83 40.96.23.17-30.83-40.96-.23z" fill="#9E22E9"/><path d="M227.07 478.82l14.41-19.08 8.81 12.04 6.03-6.37 11.72 13.64-40.97-.23z" fill="#E8505B"/><path d="M254.12 457.52c0 .64-.19 1.27-.55 1.8-.36.53-.87.94-1.46 1.19a3.228 3.228 0 01-3.52-.73c-.45-.45-.76-1.03-.88-1.66-.12-.63-.05-1.28.2-1.87a3.218 3.218 0 013.01-1.98c.85.01 1.67.36 2.27.96.6.61.93 1.43.93 2.29zM227.07 478.82l14.41-19.08 8.81 12.04 6.03-6.37 11.72 13.64-40.97-.23z" fill="#B156EE"/><path opacity=".2" d="M254.12 457.52c0 .64-.19 1.27-.55 1.8-.36.53-.87.94-1.46 1.19a3.228 3.228 0 01-3.52-.73c-.45-.45-.76-1.03-.88-1.66-.12-.63-.05-1.28.2-1.87a3.218 3.218 0 013.01-1.98c.85.01 1.67.36 2.27.96.6.61.93 1.43.93 2.29z" fill="#FAFAFA"/><path d="M549.36 176.92c1.85-7.87-3.02-15.74-10.87-17.58-7.85-1.85-15.71 3.03-17.56 10.89-1.84 7.86 3.03 15.73 10.88 17.58 7.85 1.84 15.71-3.03 17.55-10.89z" fill="#9E22E9"/><path d="M534.25 178.34c-.15 0-.3-.05-.41-.16l-4.93-4.03a.673.673 0 01-.24-.46c-.02-.18.03-.35.15-.49.11-.14.28-.23.45-.25.18-.02.36.04.5.15l4.39 3.63 6.24-7.65c.12-.13.28-.21.46-.23a.65.65 0 01.73.59c.02.18-.03.35-.14.49l-6.71 8.17c-.06.07-.13.13-.21.17-.08.04-.16.07-.25.07h-.03z" fill="#fff"/><path d="M472.13 173.59c11.06 0 20.02-8.98 20.02-20.06 0-11.07-8.96-20.05-20.02-20.05-11.06 0-20.02 8.98-20.02 20.05 0 11.08 8.96 20.06 20.02 20.06z" fill="#9E22E9"/><path d="M470.92 160.5c-.3 0-.6-.11-.84-.3l-6.71-5.56c-.27-.23-.45-.55-.48-.91-.04-.35.07-.7.29-.98.11-.13.25-.25.41-.33.15-.08.32-.14.5-.15.17-.02.35 0 .52.05.17.05.33.13.46.25l5.69 4.69 8.27-10.2c.23-.28.55-.45.9-.48.35-.04.7.07.98.29.14.11.25.25.33.4.09.16.14.33.16.51.01.17 0 .35-.06.52-.05.17-.13.33-.24.46l-9.13 11.2c-.23.27-.56.44-.91.48l-.14.06z" fill="#fff"/><path d="M387.21 425.83a41.752 41.752 0 01-24.22-18.41 41.83 41.83 0 01-5.3-29.98c-.38 1.03-.74 2.07-1.05 3.15a41.792 41.792 0 004.1 31.35 41.682 41.682 0 0024.85 19.51 41.64 41.64 0 0031.38-3.5 41.793 41.793 0 0019.95-24.51c.31-1.08.55-2.17.76-3.24a41.76 41.76 0 01-20.23 22.7 41.675 41.675 0 01-30.24 2.93z" fill="#263238"/><path d="M407.78 351.96a41.74 41.74 0 0124.21 18.41 41.89 41.89 0 015.32 29.98c.37-1.04.74-2.09 1.03-3.16a41.752 41.752 0 001.39-16.3c-.61-5.47-2.3-10.77-4.96-15.59a41.576 41.576 0 00-10.56-12.48 41.683 41.683 0 00-30.82-8.78c-5.46.65-10.74 2.37-15.53 5.06a41.713 41.713 0 00-19.78 25.24 40.12 40.12 0 00-.77 3.24 41.759 41.759 0 0120.24-22.69 41.653 41.653 0 0130.23-2.93z" fill="#455A64"/><path d="M438.8 396.92s0-.23.12-.67c.12-.45.23-1.12.4-1.94.09-.43.2-.91.32-1.44.12-.52.14-1.11.22-1.74.21-1.45.32-2.92.33-4.39.13-4.02-.36-8.04-1.43-11.92a41.795 41.795 0 00-7.97-15.54 41.752 41.752 0 00-13.64-10.91c-1.58-.77-3.21-1.45-4.88-2.01-.85-.27-1.7-.61-2.57-.84l-2.68-.61c-.44-.1-.89-.22-1.34-.29l-1.35-.17c-.92-.11-1.85-.26-2.8-.32-1.92-.13-3.84-.13-5.76 0-1.96.13-3.91.4-5.84.8-.96.23-1.91.53-2.89.78-.98.26-1.94.59-2.88.98-1.92.73-3.79 1.58-5.61 2.56a45.622 45.622 0 00-5.2 3.52c-3.43 2.64-6.4 5.82-8.81 9.41a41.206 41.206 0 00-7.15 25.16c.18 4.31 1.05 8.57 2.58 12.6.72 1.97 1.59 3.88 2.59 5.73 1.02 1.79 2.16 3.5 3.42 5.13.59.83 1.23 1.62 1.93 2.35s1.34 1.5 2.06 2.2a45.279 45.279 0 009.42 6.84c.83.43 1.7.79 2.55 1.19l1.27.58c.43.19.87.31 1.34.47l2.61.89c.86.25 1.75.43 2.61.64 1.72.41 3.46.69 5.21.85 5.86.53 11.76-.18 17.33-2.1a41.67 41.67 0 0014.95-9.02c2.95-2.73 5.47-5.9 7.47-9.4a30.7 30.7 0 002.01-3.91c.27-.58.54-1.11.74-1.6l.48-1.35c.3-.79.51-1.42.68-1.87.16-.44.25-.63.25-.63s0 .23-.19.66c-.19.43-.35 1.08-.6 1.9-.14.41-.28.87-.46 1.34-.17.47-.45 1.05-.71 1.63-.55 1.37-1.21 2.69-1.96 3.96-1.98 3.54-4.5 6.75-7.45 9.53a41.934 41.934 0 01-15.07 9.22 41.878 41.878 0 01-17.52 2.18c-1.78-.16-3.54-.44-5.28-.85-.88-.21-1.78-.38-2.68-.64l-2.69-.89c-.42-.16-.88-.28-1.34-.47l-1.34-.59c-.86-.41-1.74-.77-2.59-1.21-1.71-.93-3.36-1.95-4.94-3.08a44.503 44.503 0 01-4.63-3.82c-.72-.71-1.34-1.48-2.09-2.22a22.21 22.21 0 01-1.96-2.37c-1.28-1.66-2.45-3.4-3.49-5.22a47.844 47.844 0 01-2.68-5.82c-1.59-4.1-2.49-8.43-2.69-12.82a41.59 41.59 0 017.26-25.54c2.46-3.63 5.49-6.85 8.97-9.51 1.68-1.31 3.45-2.5 5.3-3.56 1.84-.99 3.74-1.85 5.69-2.6.95-.39 1.93-.72 2.92-.98 1-.25 1.96-.56 2.96-.78a43.6 43.6 0 015.93-.82c1.94-.13 3.89-.13 5.84 0 .96.07 1.9.23 2.85.34l1.35.17c.47.07.92.2 1.34.31l2.68.62c.89.24 1.75.58 2.61.86 1.69.58 3.34 1.27 4.93 2.07a41.957 41.957 0 0113.76 11.1 42.066 42.066 0 017.97 15.78c1.06 3.91 1.52 7.97 1.34 12.02-.02 1.47-.15 2.95-.4 4.4-.09.64-.15 1.23-.25 1.76-.11.54-.25 1-.34 1.43-.22.82-.38 1.47-.48 1.93.1.35.04.57.04.57zM422.93 420.75c.54.36 40.05 36.85 54.6 50.51a6.287 6.287 0 004.38 1.71c1.63-.01 3.19-.66 4.35-1.8.62-.59 1.11-1.31 1.45-2.1a6.347 6.347 0 00-.05-5.01c-.35-.78-.85-1.49-1.48-2.08l-54.23-50.16-9.02 8.93z" fill="#263238"/><path d="M219.94 288.32l.81-3.17c.52-2.08.47-4.27-.14-6.33l-3.31-11.07a4.175 4.175 0 00-1.91-2.41c-2.52-1.45-7.5-4.25-7.93-3.9-3.04 2.54 3.77 7.02 3.77 7.02s2.69 2.94.55 5.12c-2.37 2.47-6.81-2.96-6.81-2.96s.22-.56.44-.45c1.24.98 2.71 1.62 4.28 1.84v-3.6l-4.03-2.53c-.88-.57-1.96-.76-2.99-.54l-1.34.31c-.9.19-1.69.73-2.2 1.49l-1.34 1.99-.57.77c-.27.36-.43.79-.48 1.24-.05.45.03.9.21 1.31l.65 1.35-.89 1.23c-.36.51-.58 1.1-.66 1.72-.08.62 0 1.25.22 1.83l6.8 9.41 10.07 16.46 10.9-11.72-4.1-4.41z" fill="#FFBE9D"/><path d="M198.85 278.59c-.16-.2-.29-.43-.37-.68-.09-.3-.11-.61-.05-.92.05-.3.18-.59.38-.83v-.08l-.11-.24c-.4-.94-.89-1.84-1.46-2.69.32.96.73 1.89 1.22 2.78l.12.24v-.14c-.22.27-.36.6-.42.94a2 2 0 00.12 1.03c.23.46.55.63.57.59zM199.68 266.38c-.27.59-.34 1.24-.22 1.88.38 1.54 1 3 1.84 4.34.27.39.48.82.63 1.26.12.44.15.9.08 1.35-.13.68-.04 1.38.25 2.01.33.55.79 1.01 1.34 1.35-.34-.07-.66-.22-.93-.44-.28-.21-.49-.49-.64-.8a3.24 3.24 0 01-.36-2.18c.03-.4 0-.8-.1-1.19-.15-.42-.36-.81-.6-1.17-.87-1.38-1.48-2.9-1.77-4.51-.21-1.29.41-1.97.48-1.9zM205.05 270.46c-.13-.51-.3-1.02-.51-1.5-.42-.78-.86-1.35-.77-1.45.1-.11.69.4 1.14 1.26.46.86.27 1.75.14 1.69z" fill="#EB996E"/><path d="M223.67 344.64l4.15 5.21 21.55-25.92-28.22-37.18-13.94 10.95 16.46 46.94z" fill="#4B4AA1"/><path d="M319.55 595.5l1.78 42.12 22.72-.51-1.7-42.21-22.8.6z" fill="#9E22E9"/><path d="M332.47 635.77c.19 0-.16-9.23-.78-20.6-.62-11.37-1.34-20.58-1.47-20.56-.14.01.16 9.23.79 20.6.63 11.37 1.29 20.58 1.46 20.56z" fill="#263238"/><path d="M321.21 634.71l22.72-.57.12 2.97-22.72.51-.12-2.91zM343.5 623.62s-.17-.36-.62-.9c-.64-.75-1.35-1.44-2.12-2.07-1.15-.93-2.42-1.71-3.78-2.29a12.085 12.085 0 00-7.55-.68c-2.52.6-4.79 1.99-6.46 3.97-.64.77-1.16 1.62-1.56 2.54-.16.33-.27.68-.31 1.05.66-1.15 1.4-2.25 2.23-3.28 2.16-2.35 5.16-3.75 8.35-3.89 3.18-.05 6.28 1 8.77 2.97 1.98 1.46 2.96 2.67 3.05 2.58z" fill="#263238"/><path opacity=".3" d="M342.83 606.91l.19 4.65-22.78.4-.14-3.5 22.73-1.55z" fill="#000"/><path d="M266.08 598.01l1.12 25.64s-25.65 9.75-25.91 14.5l49.66-.36-.08-40.02-24.79.24z" fill="#9E22E9"/><path d="M282.23 621.49c.48.14.89.46 1.15.89.27.43.36.94.27 1.43-.13.49-.43.91-.86 1.18-.42.27-.93.37-1.42.27a2.146 2.146 0 01-1.51-2.43c.18-.5.55-.91 1.03-1.14.47-.23 1.02-.26 1.52-.09" fill="#E0E0E0"/><path d="M291 637.78v-4.03l-48.11 1.82s-2.23.98-1.96 2.56l50.07-.35zM266.71 623.83c0 .24 1.24.33 2.44 1.11 1.21.78 1.87 1.8 2.08 1.71.22-.1-.14-1.51-1.62-2.42-1.48-.91-2.9-.63-2.9-.4zM261.51 626.03c0 .24 1 .65 1.85 1.68.84 1.04 1.08 2.12 1.34 2.11.25-.01.39-1.34-.69-2.69-1.07-1.34-2.49-1.33-2.5-1.1zM258.57 632.35c.22 0 .56-1.17-.08-2.52-.65-1.34-1.79-1.85-1.88-1.65-.1.2.6.92 1.11 2.03.51 1.12.6 2.12.85 2.14zM267.14 617.91c.11.22 1.22-.13 2.6 0 1.39.14 2.47.51 2.59.3.13-.22-.91-1.08-2.54-1.16-1.64-.08-2.77.66-2.65.86zM266.22 612.39c.81.23 1.68.23 2.49 0 .9-.17 1.78-.45 2.62-.83.5-.22.98-.49 1.43-.78.29-.16.54-.36.76-.6.17-.17.28-.4.3-.65.02-.24-.05-.49-.2-.69-.12-.17-.28-.31-.47-.4-.18-.1-.39-.15-.6-.15-.32 0-.64.04-.94.13-.53.15-1.05.33-1.56.56-.84.38-1.61.9-2.29 1.53-1.16 1.09-1.54 2-1.46 2.05.08.06.67-.7 1.83-1.58.69-.54 1.44-1 2.23-1.35.47-.18.95-.33 1.44-.44.54-.15.99-.16 1.13.08.13.24 0 .12 0 .28-.17.17-.35.31-.55.43-.43.29-.88.55-1.35.77-.77.39-1.58.71-2.41.95-.82.17-1.62.4-2.4.69z" fill="#263238"/><path d="M266.52 612.74c.1 0 .58-.85.65-2.43.04-.91-.09-1.82-.36-2.69-.16-.53-.37-1.04-.65-1.52-.14-.33-.36-.62-.64-.84-.28-.23-.61-.37-.97-.42-.22 0-.44.08-.62.2-.19.13-.34.3-.43.51-.12.29-.2.6-.24.91-.09.56-.09 1.13 0 1.7.14.94.52 1.83 1.09 2.59.98 1.34 2.01 1.57 2.03 1.49.01-.08-.78-.59-1.53-1.83-.72-1.13-1-2.49-.78-3.81.08-.53.27-.96.47-.9.2.05.67.39.88.8.25.43.46.88.63 1.35.29.8.46 1.64.51 2.5.15 1.43-.16 2.35-.04 2.39z" fill="#263238"/><path opacity=".3" d="M291.02 613.14l-.06 5.69h-23.98v-5.16l24.04-.53z" fill="#000"/><path d="M371.39 186.42l3.55 13.82s1.35 7.63-2.22 7.62c-3.14 0-3.45-4.1-3.45-4.1s1.57-8.36-2.54-7.89c-.58.07-2.08 5.83-2.8 8.76a4.32 4.32 0 00.43 3.17l5.91 10.5c1.11 1.94 2.71 3.55 4.65 4.67l2.96 1.68.39 6.23 16.66.27-5.08-19.46-2.12-11.87c-.28-.58-.7-1.09-1.22-1.47-.51-.39-1.12-.64-1.76-.75l-1.57-.22-.59-1.51a2.62 2.62 0 00-.84-1.1c-.37-.29-.81-.48-1.28-.54l-.96-.12-1.34-3.37c-.46-1.12-3.72-8.47-4.93-8.46-.01 0-2.72.74-1.85 4.14z" fill="#FFBE9D"/><path d="M383.28 203.15c-.07-.51-.17-1.02-.31-1.51a5.748 5.748 0 00-2.27-2.89c-.56-1.16-.98-2.37-1.25-3.62-.15-.51-.21-1.04-.17-1.57 0 0 .11.59.36 1.52.35 1.2.8 2.37 1.34 3.49.24.22.54.43.82.67a5.29 5.29 0 011.42 2.34c.11.37.16.76.17 1.14-.01.15-.05.3-.11.43zM385.81 201.74c-.03-.26-.11-.51-.24-.75a1.95 1.95 0 00-.64-.7 2.06 2.06 0 00-.9-.31h-.09v-.08l-.1-.25c-.4-.98-.72-1.99-.95-3.03.49.93.9 1.91 1.21 2.92l.1.27-.12-.1c.36.04.71.17 1.01.38.29.21.53.49.68.82.19.5.08.86.04.83z" fill="#EB996E"/><path d="M287.77 268.58l30.21-.39-3.37-25.71s2.06-.44 2.2-11.65c.13-11.21.66-30.24.66-30.24a38.891 38.891 0 00-20.21-2.86c-6.87.87-13.38 3.55-18.87 7.78l-1.67 1.27 11.05 61.8z" fill="#FFBE9D"/><path d="M280.24 220.53c-.19-.08-7.69-2.28-7.45 5.38.24 7.66 7.88 5.83 7.88 5.62 0-.22-.43-11-.43-11zM316.16 218.93c.19-.09 7.01-1.93 6.71 5.73-.29 7.66-7.87 5.84-7.87 5.62 0-.23 1.16-11.35 1.16-11.35z" fill="#FFBE9D"/><path d="M277.76 219.63c1.14 6.43.91 9.8 1.97 14.09 1.68 6.72 5.03 11.99 11.14 15.37 6.1 3.39 14.36 3.32 19.6-1.34 3.64-3.2 6.22-6.82 6.71-11.64.5-4.83 1.09-13.36 1.12-18.2 0-8.75.66-17.11.66-17.11l-24.97-4.53-14.15 8.58-2.08 14.78zM303.5 253c-1.42.42-2.91.54-4.38.38-1.47-.16-2.89-.62-4.19-1.33.08-.19 1.92.39 4.27.64 1.44.03 2.87.14 4.3.31z" fill="#263238"/><path d="M278.96 230.59c-.73-6.58-1.2-14.1-2.24-21.04-.37-2.61-1.34-6.36-1.07-8.98.07-2.64.63-5.25 1.64-7.7.72-1.49 1.79-2.8 3.1-3.82 1.32-1.02 2.85-1.72 4.48-2.05 1.63-.33 3.31-.28 4.92.15 1.6.43 3.09 1.22 4.34 2.32a8.044 8.044 0 018.58-3.48c1.62.37 3.08 1.24 4.18 2.48a7.976 7.976 0 012 4.43 5.6 5.6 0 013.28-1.53c1.23-.14 2.47.14 3.53.78a5.65 5.65 0 012.48 6.39c.9.15 1.75.52 2.47 1.08.72.57 1.29 1.3 1.66 2.13.37.84.52 1.76.44 2.67-.07.91-.37 1.79-.87 2.55-1.15 1.79-3.23 2.77-4.51 4.46-.72 1-1.14 2.18-1.2 3.41-.07 1.22.21 2.44.81 3.52" fill="#263238"/><path d="M313.68 206.81c-.04.26-.14.51-.28.73a5 5 0 01-1.45 1.62c-.94.7-2.08 1.07-3.25 1.04-.76-.02-1.51-.2-2.21-.52a5.5 5.5 0 01-1.81-1.36l.52-.14c-.18.87-.58 1.68-1.16 2.35-.59.67-1.33 1.18-2.17 1.48-.92.36-1.92.48-2.9.36s-1.92-.49-2.72-1.07a8.426 8.426 0 01-3.17-4.15h.61a7.08 7.08 0 01-5.65 3.1c-.89.02-1.76-.15-2.58-.48-.82-.34-1.56-.84-2.17-1.47a6.748 6.748 0 01-1.74-2.93c-.14-.38-.19-.8-.13-1.21 0 0 .09.42.36 1.14.38 1.03 1 1.95 1.8 2.69.59.56 1.29.99 2.05 1.28.76.29 1.57.42 2.38.39 1.02-.04 2.01-.33 2.89-.83.89-.5 1.65-1.2 2.21-2.05l.37-.57.23.64a7.998 7.998 0 002.93 3.8 5.4 5.4 0 002.41.96c.87.11 1.76.01 2.58-.3.73-.25 1.39-.69 1.91-1.27.52-.58.89-1.28 1.07-2.03l.12-.64.4.49c.45.52 1 .94 1.61 1.25.61.3 1.28.48 1.96.52 1.07.06 2.13-.23 3.02-.82.78-.53 1.45-1.21 1.96-2zM313.56 203.77c-.14-.99-.51-1.94-1.06-2.78-.65-.9-1.6-1.53-2.68-1.77-.65-.16-1.33-.17-1.98-.04-.66.12-1.28.39-1.82.78l-.6.43v-.76c.06-.74-.02-1.49-.26-2.2-.24-.77-.64-1.49-1.17-2.1a5.917 5.917 0 00-1.89-1.48 5.853 5.853 0 00-3.89-.33c-1.21.36-2.32.98-3.25 1.83.14-.33.35-.62.62-.85a6.187 6.187 0 016.79-1.22c.82.38 1.55.92 2.15 1.6.6.68 1.04 1.48 1.31 2.35.26.8.35 1.64.27 2.47l-.54-.31c.63-.43 1.35-.72 2.1-.85s1.53-.09 2.26.1c.97.26 1.83.82 2.47 1.59.65.76 1.04 1.71 1.13 2.71.16.56.08.85.04.83zM297.66 204c-.1 0 0-.43 0-1.05a4.97 4.97 0 00-.78-2.27c-.5-.79-1.1-1.6-1.44-2.03-.1-.1-.23-.17-.38-.2a.755.755 0 00-.42.05s0-.17.16-.3c.14-.1.3-.15.47-.15.17 0 .33.05.47.15.32.26.61.55.87.87.32.37.61.77.87 1.18.52.8.76 1.74.68 2.69-.13.75-.43 1.1-.5 1.06zM282.82 194.36c-.08 0 0-.59.47-1.34.28-.48.66-.89 1.12-1.2.6-.38 1.32-.54 2.03-.44 1.21.22 2.3.9 3.03 1.9.57.71.82 1.19.75 1.26-.06.07-.48-.32-1.11-.91-.73-.79-1.7-1.33-2.75-1.55-.52-.06-1.04.03-1.51.25-.48.21-.88.56-1.18.99-.48.59-.72 1.09-.85 1.04zM286.73 226.86a17.07 17.07 0 01-3.55-10.37c.2 0 .6 2.4 1.58 5.25.98 2.85 2.16 5.01 1.97 5.12zM290.09 228.69c-.87-1.01-1.5-2.2-1.85-3.48-.57-1.2-.88-2.5-.91-3.83.68 1.12 1.21 2.33 1.57 3.59.56 1.18.96 2.43 1.19 3.72zM311.11 229.21c.24 2.28-.05 4.59-.86 6.74-.81 2.14-2.11 4.07-3.8 5.62a42.66 42.66 0 003.21-5.81c.66-2.14 1.14-4.33 1.45-6.55zM314.46 223.66c.8 1.93.97 4.05.48 6.08a9.707 9.707 0 01-2.59 5.5c.8-1.82 1.44-3.71 1.91-5.64.24-1.97.31-3.95.2-5.94z" fill="#455A64"/><path d="M304.8 434.81l7.34 70.91 5.27 106.79h28.14l.77-227.3-80.57 5.77-16.7 119.25 14.47 104.36h30.86l-7.22-99.24 17.64-80.54z" fill="#263238"/><path d="M304.8 434.81a85.086 85.086 0 01-11.42 10.29c1.66-1.95 3.49-3.75 5.47-5.37 1.83-1.82 3.82-3.47 5.95-4.92zM304.72 433.33c-.12-3.04-.07-6.07.15-9.1 0-3.04.17-6.07.52-9.09.34 3.03.4 6.08.17 9.12.01 3.04-.27 6.08-.84 9.07zM314.02 406.92c.15-.02.3-.02.45 0l1.35-.08 5.36-.26 19.09-.8h.32v20.79l-.23.08-12.41 4.98H327.72l-10.96-3.81h-.18v-.18c-.8-6.19-1.48-11.35-1.95-15.05-.21-1.72-.37-3.1-.51-4.14-.07-.44-.11-.89-.13-1.34.04.13.07.26.09.4 0 .31.11.67.19 1.12.16 1.04.38 2.44.66 4.19.55 3.64 1.34 8.71 2.23 14.78l-.19-.23 10.99 3.74h-.23l12.4-5.01-.21.32v-.38-19.83l.32.31-18.87.47-5.37.09h-1.98v-.16zM273.42 407.27c.14-.02.28-.02.42 0l1.25-.07 4.83-.15 17.44-.4h.22v.32c-.19 5.89-.4 12.68-.63 19.89v.19l-.15.1-2.01 1.34-10.2 6.72-.19.12-.17-.12-11.49-7-.15-.1v-.16c.21-6.18.4-11.33.52-15.02.08-1.72.14-3.11.19-4.14.01-.45.04-.9.1-1.35.02.14.02.27 0 .41v5.32c0 3.64-.14 8.73-.23 14.85l-.14-.26 11.54 6.93h-.41l10.18-6.72 2.03-1.35-.16.27c.25-7.22.51-14 .72-19.89l.31.32-17.22.1h-6.2l-.4-.15zM337.62 439.39c-1.27.08-2.54.04-3.81-.12-2.35-.18-5.59-.5-9.15-.96-3.56-.45-6.78-.98-9.09-1.34-1.26-.16-2.51-.45-3.71-.86 1.27.01 2.53.13 3.78.36l9.11 1.21 9.1 1.16c1.27.08 2.53.26 3.77.55zM336.97 518.43s-.11.42-.66.9c-.82.65-1.84 1-2.89.98a6.77 6.77 0 01-4.2-1.61c-1.4-1.17-2.68-2.47-3.84-3.89-2.14-2.5-4.04-5.2-5.69-8.06-.73-1.15-1.33-2.38-1.78-3.67.79 1.1 1.52 2.24 2.2 3.42 1.76 2.74 3.7 5.36 5.81 7.83a31.22 31.22 0 003.71 3.83 6.47 6.47 0 003.81 1.63c.94.05 1.88-.19 2.68-.7.58-.36.79-.69.85-.66zM281.39 520.93c-.04.33-.17.64-.37.9a6.08 6.08 0 01-1.95 1.86 7.373 7.373 0 01-3.86 1 9.067 9.067 0 01-4.65-1.48 16.314 16.314 0 01-5.59-6.72c-.58-1.04-1.04-2.16-1.34-3.31.68.98 1.29 2.01 1.82 3.09 1.31 2.52 3.21 4.68 5.53 6.31a8.67 8.67 0 004.29 1.43c1.26.04 2.5-.23 3.61-.8.99-.57 1.84-1.35 2.51-2.28zM283.19 510.23a7.03 7.03 0 01-2.32 1.35 18.356 18.356 0 01-12.71.52c-.87-.23-1.69-.62-2.41-1.16 2.84.91 5.8 1.36 8.79 1.35 2.97-.25 5.89-.94 8.65-2.06z" fill="#455A64"/><path d="M374.77 259.95h-40.96s-5.58-3.21-8.28-2.69c-1.97.63-3.72 1.82-5.03 3.43l5.43 45.27 13.29-9.85 49.47-5.15c2.12-.02 4.21-.48 6.15-1.33 1.94-.85 3.69-2.09 5.15-3.63 1.57-1.68 2.77-3.69 3.49-5.87.72-2.19.95-4.52.68-6.81l-9.15-48.69-18.79.63-.74 12.35-.71 22.34zM261.83 271.36a25.226 25.226 0 00-9.91 11.53c-2.4 5.76-18.78 34.49-27.35 49.52a14.249 14.249 0 00-1.77 8.79c.37 3.04 1.71 5.88 3.83 8.1 5.23 5.47 11.48 3.33 19.12.85 3.42-1.12 18.79-24.79 18.79-24.79l-2.71-54z" fill="#4B4AA1"/><path d="M268.97 374.03l-9.41-81.06 2.27-21.61 23.94-10.21 31.03-2.04 29.52 3.26-6.9 83.14 7.56 46.89-82.72 3.74 4.71-22.11z" fill="#4B4AA1"/><path d="M268.93 373.68c-.2 0-2.45-18.02-5.04-40.32s-4.52-40.32-4.33-40.4c.19-.08 2.44 18.04 5.03 40.32 2.59 22.28 4.52 40.37 4.34 40.4zM345.72 280.56c.02.24.02.49 0 .73 0 .56-.13 1.24-.19 2.07-.2 1.91-.46 4.51-.78 7.65-.66 6.55-1.54 15.42-2.52 25.23s-1.71 18.81-2.19 25.24c-.23 3.16-.42 5.75-.55 7.66-.07.85-.12 1.53-.16 2.08-.02.25-.05.49-.11.73-.03-.24-.03-.49 0-.73v-2.09c0-1.82.16-4.44.32-7.68.36-6.48 1.05-15.43 1.99-25.28.94-9.85 1.94-18.81 2.68-25.21.41-3.23.74-5.82 1.01-7.62.12-.84.23-1.52.31-2.07.03-.25.09-.49.19-.71zM331.49 361.26c-.41.57-.86 1.1-1.34 1.6a18.6 18.6 0 01-1.68 1.76c-.7.65-1.45 1.43-2.39 2.15-.99.85-2.03 1.64-3.11 2.37-1.23.86-2.49 1.66-3.8 2.39a47.318 47.318 0 01-19.57 5.85c-1.58.06-3.08.17-4.48.09-1.3-.02-2.61-.11-3.9-.27-1.18-.09-2.24-.33-3.18-.49-.8-.14-1.59-.32-2.37-.56-.67-.14-1.33-.35-1.97-.61 0-.17 2.86.72 7.57 1.17 1.28.13 2.57.18 3.85.17 1.34.07 2.87-.07 4.43-.15 6.77-.56 13.34-2.53 19.31-5.76 1.34-.8 2.69-1.5 3.79-2.3 1.1-.81 2.18-1.55 3.11-2.27 3.73-2.96 5.61-5.24 5.73-5.14z" fill="#4B4AA1"/><path opacity=".3" d="M287.75 376.4c-4.02-1.16-4.25-4.96-2.68-6.59 1.57-1.63 4.03-1.84 6.32-1.52 2.2.54 4.45.84 6.71.9 3.68-.24 6.71-2.81 9.31-5.47 2.61-2.66 4.98-5.64 8.34-7.17 3.35-1.54 8.05-.99 9.8 2.25.5 1.07.72 2.24.65 3.41a6.92 6.92 0 01-1.06 3.31 15.438 15.438 0 01-4.98 4.9 40.802 40.802 0 01-15.55 6.41c-5.57 1.03-11.3.88-16.82-.43" fill="#4B4AA1"/><path d="M336.67 261.6c2.21.81 4.1 2.31 5.37 4.29 1.46 1.85 2.3 4.11 2.37 6.47-.73-2.13-1.71-4.16-2.94-6.05-1.4-1.76-3.01-3.34-4.8-4.71z" fill="#4B4AA1"/><path d="M333.81 260.69c-.21-.15-.43-.29-.67-.4-.71-.29-1.49-.35-2.23-.15-1.17.3-2.23.93-3.06 1.83a34.287 34.287 0 01-3.38 3.44 9.98 9.98 0 01-5.55 1.71c-2.11.1-4.35-.11-6.71-.18-5.11-.18-10.23-.07-15.33.34-9.27.7-18.4 2.72-27.11 5.99a80.39 80.39 0 00-7.71 3.43l-2.03 1.07c-.47.25-.73.35-.73.35s.23-.15.7-.4l2-1.12c2.5-1.3 5.07-2.48 7.69-3.52a96.665 96.665 0 0127.16-6.09c5.11-.41 10.24-.51 15.36-.32 2.36.07 4.6.3 6.71.2a9.75 9.75 0 005.46-1.64c1.19-1.05 2.32-2.18 3.38-3.38.84-.91 1.93-1.54 3.14-1.82.75-.2 1.56-.13 2.27.19.24.11.46.27.64.47zM343.1 277.3s-.28-.09-.83-.19c-.81-.13-1.62-.16-2.43-.08-1.28.16-2.53.49-3.71 1a43.4 43.4 0 00-4.55 2.34 26.183 26.183 0 01-5.7 2.46c-2.31.61-4.67.99-7.06 1.14-5.02.31-10.53.39-16.3.83-11.57.81-21.97 2.21-29.53 3.43-3.76.6-6.71 1.17-8.85 1.56l-2.41.44-.84.15.83-.2 2.39-.5c2.08-.42 5.1-1.02 8.84-1.64 7.49-1.34 17.9-2.69 29.53-3.51 5.78-.45 11.31-.52 16.32-.82 2.36-.14 4.71-.52 7-1.11 1.98-.57 3.89-1.38 5.68-2.41 1.48-.86 3.01-1.63 4.59-2.31 1.2-.5 2.46-.82 3.75-.95.82-.08 1.64-.04 2.45.13.28.05.56.13.83.24zM343.3 300.15s-1.05.5-2.98 1.25c-2.73 1.07-5.51 2-8.33 2.78-9.36 2.54-18.97 3.98-28.65 4.29-9.67.3-19.35.07-28.99-.69l-8.78-.68-2.37-.22c-.54 0-.84-.09-.84-.09h.84l2.38.16 8.78.59c9.64.71 19.3.91 28.96.61 9.67-.32 19.26-1.72 28.61-4.2 3.57-.99 6.42-1.96 8.36-2.68.97-.35 1.72-.68 2.23-.86l.78-.26zM340.16 326.53s-.98.43-2.79 1.05c-2.57.86-5.2 1.54-7.87 2.02-3.95.71-7.96 1.12-11.98 1.22-4.54.16-9.53 0-14.76-.29-10.44-.7-19.89-1.44-26.73-1.2-3.43.09-6.19.32-8.06.54-.95.09-1.69.21-2.18.27l-.77.09c3.64-.66 7.33-1.03 11.03-1.09 6.87-.29 16.33.42 26.78 1.1 5.2.31 10.18.47 14.76.33 4.01-.1 8-.49 11.95-1.16 2.67-.46 5.3-1.11 7.88-1.94.91-.26 1.6-.55 2.08-.69l.66-.25zM337.61 346.95s-3.8 1.25-10.07 2.69c-3.14.74-6.91 1.46-11.12 2.11-4.21.64-8.86 1.14-13.77 1.46-4.91.32-9.59.31-13.85.22-4.25-.1-8.05-.41-11.28-.76-6.41-.67-10.32-1.46-10.32-1.46l.72.08 2.05.3c1.77.26 4.36.57 7.56.88 3.19.31 7.03.57 11.28.69 4.26.12 8.93 0 13.83-.23s9.54-.83 13.75-1.44c4.22-.6 7.97-1.34 11.1-2.04s5.68-1.35 7.41-1.8l2-.53.71-.17zM340.44 354.41l-.7.27-2.01.72c-1.76.65-4.25 1.67-7.3 3.01-3.05 1.35-6.71 3.04-10.74 4.72a69.882 69.882 0 01-13.71 4.21c-8.59 1.48-17.31 1.98-26.01 1.48-3.33-.14-6.02-.31-7.89-.43l-2.13-.17h-.76.76l2.14.11 7.89.34c8.68.46 17.38-.05 25.95-1.52 4.68-.92 9.26-2.31 13.67-4.15 4.03-1.67 7.68-3.35 10.74-4.67 3.06-1.31 5.58-2.32 7.34-2.94 1.75-.62 2.76-.98 2.76-.98zM344.64 376.66s-.91.62-2.68 1.63a55.304 55.304 0 01-7.75 3.55 85.455 85.455 0 01-27.63 4.68c-10.99.2-20.92-.68-28.1-.98-3.6-.18-6.49-.27-8.51-.33h-3.12 3.12c2.02 0 4.93.08 8.52.24 7.18.25 17.12 1.09 28.08.89a86.56 86.56 0 0027.58-4.58c2.66-.98 5.24-2.16 7.71-3.54.9-.44 1.56-.88 2.03-1.13.47-.24.75-.43.75-.43zM357.15 294.6c.01-.11.03-.23.07-.34.08-.29.16-.61.25-.95.23-.83.52-2.03.85-3.53 1.62-7.84 1.5-15.93-.37-23.71-.34-1.49-.68-2.69-.93-3.51l-.3-.94-.09-.32c.06.09.11.2.13.32.11.28.21.59.34.93.29.8.65 1.98 1.03 3.48 1.99 7.79 2.11 15.95.36 23.8-.33 1.5-.66 2.69-.92 3.52-.13.34-.22.65-.31.94-.03.11-.07.21-.11.31zM377.02 289.73c-.01-.1-.01-.2 0-.3v-.88-3.22a50.123 50.123 0 00-4.68-20.58c-.58-1.22-1.09-2.22-1.45-2.88l-.41-.78c-.1-.17-.14-.26-.13-.28.07.08.13.17.18.26l.46.75c.4.65.92 1.63 1.53 2.85 3.12 6.44 4.72 13.5 4.69 20.66.01 1.07-.03 2.15-.13 3.22l-.1.89c.03.1.04.2.04.29zM403.88 280.39s-.1-.08-.26-.26l-.68-.8c-.58-.71-1.45-1.7-2.56-2.89a65.142 65.142 0 00-20.59-14.78c-1.49-.67-2.69-1.18-3.57-1.51l-.98-.37c-.12-.04-.23-.1-.34-.16.13.01.25.05.37.1l.99.34c.87.28 2.11.77 3.61 1.42a61.163 61.163 0 0120.65 14.79c1.09 1.21 1.95 2.22 2.5 2.95.24.3.46.58.64.84.19.25.22.33.22.33zM397.79 242.32c-.29.02-.58.02-.86 0h-10c-3.01 0-5.71.16-7.66.27l-2.33.12c-.28.02-.57.02-.85 0 .28-.07.56-.11.85-.12.54 0 1.35-.14 2.31-.22 1.96-.15 4.69-.29 7.68-.35 2.99-.05 5.72 0 7.67.08l2.34.14c.28 0 .57.03.85.08zM245.75 295.66c.19.16.36.33.51.53.3.36.76.86 1.34 1.46 1.54 1.55 3.22 2.95 5.02 4.18 1.81 1.24 3.68 2.38 5.61 3.41l1.75.96c.22.1.43.23.63.38-.24-.07-.46-.17-.68-.29-.42-.19-1.04-.48-1.79-.87-1.96-1-3.86-2.11-5.68-3.35a32.47 32.47 0 01-5.01-4.28c-.47-.49-.92-1-1.34-1.54-.14-.18-.26-.38-.36-.59zM251.41 284.9s.31.47.94 1.09c.84.78 1.74 1.49 2.69 2.13.95.65 1.94 1.25 2.96 1.8.78.43 1.34.65 1.28.69a15.09 15.09 0 01-4.39-2.25 15.17 15.17 0 01-2.69-2.24c-.35-.34-.62-.76-.79-1.22zM260.95 330.75s-.1 0-.29-.12l-.82-.43c-.7-.37-1.7-.95-2.9-1.73a60.972 60.972 0 01-8.75-6.95 56.36 56.36 0 01-7.28-8.45c-.66-.93-1.26-1.89-1.8-2.88l-.45-.81c-.1-.18-.14-.28-.13-.29l.17.27.5.78c.4.68 1.03 1.65 1.87 2.81 2.18 3 4.63 5.81 7.32 8.37 2.68 2.57 5.58 4.9 8.66 6.97 1.18.81 2.16 1.42 2.84 1.82l.8.47.26.17z" fill="#FAFAFA"/><path d="M223.67 344.62c-.14-.5-.23-1.02-.25-1.54-.15-1.41-.18-2.83-.09-4.25.32-4.71 1.86-9.26 4.45-13.21 2.89-4.62 5.53-8.79 7.48-11.79l2.33-3.52c.27-.45.59-.86.94-1.25-.19.48-.42.93-.71 1.35l-2.15 3.64c-1.84 3.06-4.41 7.26-7.29 11.88-2.54 3.86-4.1 8.28-4.56 12.89-.31 3.6-.05 5.8-.15 5.8z" fill="#263238"/><path d="M247.16 350.08a16.93 16.93 0 01-4.64-.7 21.74 21.74 0 01-9.74-5.64c-2.7-2.7-4.64-6.06-5.63-9.75-.44-1.5-.67-3.06-.68-4.63.01.1.01.21 0 .32 0 .2 0 .52.12.93.15 1.12.39 2.24.71 3.33 1.02 3.64 2.96 6.95 5.63 9.63a21.97 21.97 0 009.63 5.62c1.09.32 2.21.56 3.34.72.4 0 .71.08.92.12l.34.05zM233.69 304.2c-.08.06-.16.12-.25.16l-.69.43c-.86.5-1.7 1.06-2.5 1.65a35.689 35.689 0 00-12.19 15.34c-.48 1.17-.84 2.12-1.04 2.8-.1.27-.19.53-.27.78-.08.26-.09.26-.11.26a1.31 1.31 0 010-.28c.07-.24.14-.51.22-.8.27-.96.59-1.92.98-2.84 1.24-3.09 2.91-5.98 4.98-8.59 2.08-2.58 4.52-4.85 7.26-6.72.82-.58 1.67-1.11 2.56-1.59l.72-.38c.23-.2.31-.24.33-.22zM226.16 294.25l-.77.27a23.942 23.942 0 00-8.22 4.49 34.428 34.428 0 00-5 5.24c-.57.73-1.03 1.34-1.34 1.75-.15.22-.32.43-.51.63.12-.24.26-.48.42-.7.28-.43.71-1.06 1.26-1.8 1.44-1.99 3.11-3.79 4.98-5.38 1.87-1.57 3.98-2.83 6.26-3.71.69-.26 1.4-.48 2.11-.67.27-.06.54-.1.81-.12z" fill="#FAFAFA"/></svg>