<svg xmlns="http://www.w3.org/2000/svg" width="40" height="40">
    <circle cx="19.996668696403503" cy="19.136584281921387" r="19.5" fill="#7121E9" id="svg_1"/>
    <path d="M19.233822408561707,23.886725898132326 L12.690071408561707,17.342845898132325 C12.538600408561706,17.191495898132324 12.455153408561706,16.989455898132324 12.455153408561706,16.774025898132326 C12.455153408561706,16.558595898132324 12.538600408561706,16.356549898132325 12.690071408561707,16.205197898132326 L13.171862408561706,15.723287898132327 C13.485802408561707,15.409704698132323 13.996052408561706,15.409704698132323 14.309512408561707,15.723287898132327 L19.804562408561708,21.218335898132324 L25.305692408561704,15.717189898132325 C25.457192408561706,15.565838898132323 25.659092408561705,15.482272098132324 25.874392408561707,15.482272098132324 C26.089992408561706,15.482272098132324 26.291892408561708,15.565838898132323 26.443492408561706,15.717189898132325 L26.925192408561706,16.199100898132325 C27.07659240856171,16.350572898132324 27.160092408561706,16.552495898132324 27.160092408561706,16.767925898132326 C27.160092408561706,16.983355898132324 27.07659240856171,17.185395898132324 26.925192408561706,17.336745898132325 L20.375422408561704,23.886725898132326 C20.223472408561705,24.038435898132324 20.020592408561708,24.121755898132324 19.80492240856171,24.121275898132325 C19.588412408561705,24.121755898132324 19.385652408561707,24.038435898132324 19.233822408561707,23.886725898132326 z" fill="white" fill-opacity="0.88" id="svg_2"/>
</svg>