<svg width="87" height="60" viewBox="0 0 87 60" fill="none" xmlns="http://www.w3.org/2000/svg">
<path d="M67.6883 59.2C60.4883 59.2 55.2216 56.7333 51.8883 51.8C50.4216 49.8 49.2216 47.1333 48.2883 43.8C47.355 40.4667 46.8883 36.8 46.8883 32.8C46.8883 25.8667 48.6883 19.4667 52.2883 13.6C55.8883 7.73333 61.155 3.19999 68.0883 -3.8147e-06L69.8883 3.6C66.4216 5.19999 63.2883 7.53332 60.4883 10.6C57.8216 13.5333 55.955 16.6667 54.8883 20C54.2216 21.8667 53.8883 24.0667 53.8883 26.6C53.8883 28.6 54.0216 30.0667 54.2883 31C57.755 26.8667 62.6216 24.8 68.8883 24.8C74.2216 24.8 78.4883 26.3333 81.6883 29.4C84.8883 32.3333 86.4883 36.5333 86.4883 42C86.4883 47.2 84.755 51.4 81.2883 54.6C77.8216 57.6667 73.2883 59.2 67.6883 59.2ZM21.6883 59.2C14.4883 59.2 9.22162 56.7333 5.88828 51.8C4.42162 49.8 3.22162 47.1333 2.28828 43.8C1.35495 40.4667 0.888281 36.8 0.888281 32.8C0.888281 25.8667 2.68828 19.4667 6.28828 13.6C9.88828 7.73333 15.1549 3.19999 22.0883 -3.8147e-06L23.8883 3.6C20.4216 5.19999 17.2883 7.53332 14.4883 10.6C11.8216 13.5333 9.95495 16.6667 8.88828 20C8.22162 21.8667 7.88828 24.0667 7.88828 26.6C7.88828 28.6 8.02162 30.0667 8.28828 31C11.7549 26.8667 16.6216 24.8 22.8883 24.8C28.2216 24.8 32.4883 26.3333 35.6883 29.4C38.8883 32.3333 40.4883 36.5333 40.4883 42C40.4883 47.2 38.755 51.4 35.2883 54.6C31.8216 57.6667 27.2883 59.2 21.6883 59.2Z" fill="black"/>
</svg>
