<svg fill="none" xmlns="http://www.w3.org/2000/svg" viewBox="0 0 892 552"><path d="M517.59 226.71H401.8v97.46h115.79v-97.46z" fill="#9E22E9"/><path d="M285.55 286.44H59.458L76.18 125.4h228.01l-18.64 161.04z" fill="#F5F5F5"/><path d="M84.32 259.43c-.2 0 2.2-24.2 5.21-54.1 3.02-29.9 5.74-54.03 5.94-54.01.2.02-2.2 24.2-5.21 54.07-3.02 29.88-5.74 54.06-5.94 54.04zM125.48 156.69c-3.77.36-7.56.49-11.35.37-3.79.12-7.58-.01-11.35-.37 3.77-.36 7.56-.47 11.35-.36 3.79-.11 7.58 0 11.35.36zM222.06 156.69c0 .19-20.24.37-45.21.37-24.97 0-45.21-.18-45.21-.37 0-.2 20.24-.36 45.21-.36 24.97 0 45.21.07 45.21.36zM122.82 213.93c-3.77.35-7.57.47-11.35.35-3.79.12-7.58 0-11.36-.35 3.76-.34 7.52-.45 11.29-.33 3.81-.13 7.62-.02 11.42.33zM219.38 213.93c0 .2-20.24.35-45.21.35-24.97 0-45.17-.15-45.17-.35 0-.2 20.24-.35 45.21-.35 24.97 0 45.17.15 45.17.35zM188.58 240.31c0 .2-20.24.37-45.21.37-24.97 0-45.17-.17-45.17-.37 0-.2 20.24-.35 45.21-.35 24.97 0 45.17.15 45.17.35zM135.6 172.86c0 .19-7.15.35-15.97.35s-15.97-.16-15.97-.35c0-.2 7.15-.38 15.97-.38s15.97.18 15.97.38zM134.68 196.55c0 .2-7.15.35-15.98.35-8.82 0-15.97-.15-15.97-.35 0-.2 7.15-.37 15.97-.37 8.83 0 15.98.17 15.98.37zM161.67 230.41c0 .2-7.15.35-15.97.35s-15.97-.15-15.97-.35c0-.2 7.15-.38 15.97-.38s15.97.18 15.97.38zM251.65 172.86c0 .19-18.26.35-40.79.35-22.53 0-40.79-.16-40.79-.35 0-.2 18.26-.38 40.79-.38 22.53 0 40.79.18 40.79.38zM226.48 197.91c0 .2-18.26.38-40.79.38-22.52 0-40.78-.18-40.78-.38 0-.19 18.26-.35 40.78-.35 22.53 0 40.79.16 40.79.35zM254.55 230.41c0 .2-18.26.35-40.78.35-22.53 0-40.79-.15-40.79-.35 0-.2 18.26-.38 40.79-.38 22.52 0 40.78.18 40.78.38zM180.06 259.43c0 .19-18.26.35-40.79.35-22.52 0-40.78-.16-40.78-.35 0-.2 18.26-.38 40.78-.38 22.53 0 40.79.18 40.79.38zM270.28 259.43c0 .19-18.26.35-40.78.35-22.53 0-40.79-.16-40.79-.35 0-.2 18.26-.38 40.79-.38 22.52 0 40.78.18 40.78.38zM180.06 268.86c0 .2-18.26.36-40.79.36-22.52 0-40.78-.16-40.78-.36 0-.19 18.26-.37 40.78-.37 22.53 0 40.79.11 40.79.37zM184 179.65c0 .2-18.26.36-40.79.36-22.53 0-40.79-.16-40.79-.36 0-.19 18.26-.35 40.79-.35 22.53 0 40.79.16 40.79.35zM162.26 172.94c-3.48.36-6.99.48-10.49.36-3.51.12-7.02 0-10.52-.36 3.5-.35 7.01-.47 10.52-.35 3.5-.12 7.01 0 10.49.35zM120.2 221.72c-3.49.35-6.99.47-10.49.35-3.51.12-7.03 0-10.52-.35 3.49-.38 7.01-.51 10.52-.38 3.5-.13 7.01 0 10.49.38zM119.65 230.41c-3.49.35-7.01.47-10.52.35-3.51.12-7.02 0-10.51-.35 3.49-.37 7-.49 10.51-.38 3.51-.11 7.03.01 10.52.38zM301.7 142.43c0 .2-50.84.35-113.56.35-62.73 0-113.57-.15-113.57-.35 0-.2 50.84-.37 113.57-.37 62.72 0 113.56.17 113.56.37z" fill="#E0E0E0"/><path d="M89.91 137.44c1.48 0 2.68-1.21 2.68-2.69s-1.2-2.68-2.68-2.68c-1.49 0-2.69 1.2-2.69 2.68 0 1.48 1.2 2.69 2.69 2.69zM101.46 137.44c1.48 0 2.68-1.21 2.68-2.69s-1.2-2.68-2.68-2.68c-1.49 0-2.69 1.2-2.69 2.68 0 1.48 1.2 2.69 2.69 2.69zM113.01 137.44c1.48 0 2.68-1.21 2.68-2.69s-1.2-2.68-2.68-2.68c-1.49 0-2.69 1.2-2.69 2.68 0 1.48 1.2 2.69 2.69 2.69z" fill="#fff"/><path d="M872.62 205.92H646.55l16.7-161.06h228.01l-18.64 161.06z" fill="#F5F5F5"/><path d="M671.39 178.88c-.2 0 2.2-24.2 5.23-54.07 3.04-29.88 5.72-54.06 5.92-54.03.2.02-2.2 24.2-5.21 54.09-3.02 29.9-5.74 54.04-5.94 54.01zM712.57 76.17c-7.56.49-15.14.49-22.7 0 7.56-.47 15.14-.47 22.7 0zM809.13 76.17c0 .19-20.24.37-45.21.37-24.97 0-45.21-.18-45.21-.37 0-.2 20.24-.36 45.21-.36 24.97 0 45.21.16 45.21.36zM709.8 133.41c-7.56.47-15.14.47-22.7 0 7.56-.5 15.14-.5 22.7 0zM806.45 133.41c0 .2-20.24.35-45.19.35s-45.21-.15-45.21-.35c0-.2 20.24-.37 45.21-.37 24.97 0 45.19.17 45.19.37zM775.67 159.79c0 .2-20.26.35-45.21.35s-45.21-.15-45.21-.35c0-.2 20.24-.35 45.21-.35 24.97 0 45.21.15 45.21.35zM722.56 92.34c0 .19-7.15.35-15.95.35-8.8 0-15.97-.16-15.97-.35 0-.2 7.15-.38 15.97-.38s15.95.18 15.95.38zM721.75 116.01c0 .2-7.15.37-15.95.37-8.8 0-15.98-.17-15.98-.37 0-.2 7.15-.35 15.98-.35 8.82 0 15.95.15 15.95.35zM748.74 149.8c0 .2-7.15.37-15.95.37-8.8 0-15.97-.17-15.97-.37 0-.2 7.15-.35 15.97-.35s15.95.22 15.95.35zM838.74 92.34c0 .19-18.28.35-40.79.35-22.5 0-40.81-.16-40.81-.35 0-.2 18.26-.38 40.81-.38s40.79.18 40.79.38zM813.55 117.39c0 .2-18.26.36-40.79.36-22.52 0-40.78-.16-40.78-.36 0-.19 18.26-.37 40.78-.37 22.53 0 40.79.18 40.79.37zM841.62 149.8c0 .2-18.26.37-40.78.37-22.53 0-40.79-.17-40.79-.37 0-.2 18.26-.35 40.79-.35 22.52 0 40.78.22 40.78.35zM767.13 178.88c0 .2-18.26.38-40.79.38-22.52 0-40.78-.18-40.78-.38 0-.19 18.26-.35 40.78-.35 22.53 0 40.79.16 40.79.35zM857.35 178.88c0 .2-18.26.38-40.78.38-22.53 0-40.79-.18-40.79-.38 0-.19 18.26-.35 40.79-.35 22.52 0 40.78.16 40.78.35zM767.13 188.34c0 .2-18.26.36-40.79.36-22.52 0-40.78-.16-40.78-.36 0-.19 18.26-.37 40.78-.37 22.53 0 40.79.15 40.79.37zM771.11 99.2c0 .2-18.28.35-40.78.35-22.51 0-40.81-.15-40.81-.35 0-.2 18.26-.37 40.81-.37s40.78.11 40.78.37zM749.4 92.42c-7 .47-14.01.47-21.01 0 6.99-.49 14.02-.49 21.01 0zM707.23 141.18c-7.01.49-14.03.49-21.04 0 7.01-.47 14.03-.47 21.04 0zM706.72 149.8c-6.99.5-14.02.5-21.01 0 7-.47 14.01-.47 21.01 0zM888.77 61.91c0 .2-50.84.35-113.54.35s-113.57-.15-113.57-.35c0-.2 50.82-.37 113.57-.37 62.74 0 113.54.26 113.54.37z" fill="#E0E0E0"/><path d="M676.98 56.89a2.68 2.68 0 000-5.36c-1.49 0-2.69 1.2-2.69 2.68 0 1.48 1.2 2.68 2.69 2.68zM688.53 56.89a2.68 2.68 0 000-5.36c-1.49 0-2.69 1.2-2.69 2.68 0 1.48 1.2 2.68 2.69 2.68zM700.1 56.89a2.68 2.68 0 000-5.36c-1.48 0-2.69 1.2-2.69 2.68 0 1.48 1.21 2.68 2.69 2.68z" fill="#fff"/><path d="M114.48 538.41c-2.2-1.81-6.8-7.48-3.17-14.1 1.63-2.25 3.95-3.89 6.6-4.69 2.63-.87 5.1-2.15 7.33-3.78 3.98-3.37 5.08-8.96 7.72-13.47 1.44-2.64 3.56-4.85 6.14-6.39 2.58-1.55 5.53-2.38 8.53-2.41 6.85.31 12.54 5.88 15.14 12.21 2.6 6.34 2.68 13.4 2.73 20.24 0 3.79-.13 8.05-2.93 10.63-2.79 2.57-6.47 2.37-9.94 2.2l-37.4-1.15" fill="#F5F5F5"/><path d="M186.02 436.02H87.66l17.71 105.18a11.743 11.743 0 008.41 9.35h.35l.86.22c.66.13 1.33.2 2 .22H161.34c.8.01 1.61-.07 2.4-.22 2.55-.39 4.91-1.61 6.71-3.47 1.8-1.86 2.94-4.26 3.25-6.82l8.54-72.47.37-2.88 3.39-28.6.02-.51zm-18.56 67.1h-10.08l1.01-30.54h11.71l-2.64 30.54zm3.6-30.54h9.66l-3.58 30.54h-8.69l2.61-30.54zM142.2 537l-.62-26.53h14.55l-.88 26.53H142.2zm-15.71-26.53h14.13l.61 26.53h-12.65l-2.09-26.53zm1.1 26.53H115.8c-1.12-7.17-2.6-16.48-4.18-26.53h13.95l2.02 26.53zm-1.65-33.84l-2.37-30.53h16.19l.7 30.53h-14.52zm15.4 0l-.72-30.53h16.67l-1.01 30.53h-14.94zm-.88-37.86l-.66-28.25h18.68l-.88 28.21-17.14.04zm-.99 0h-16.48l-2.2-28.25h18.18l.5 28.25zm-17.6 0h-17.6c-.61-3.89-1.21-7.59-1.74-11-1.82-11.44-2.53-15.73-2.9-17.33h20.02l2.22 28.33zm.57 7.33l2.38 30.53H110.3c-.48-3.1-.99-6.24-1.47-9.37-1.15-7.21-2.2-14.41-3.37-21.16h16.98zm-13.2 30.53h-9.3l-5.13-30.53h9.79c1.5 9.37 3.17 19.89 4.84 30.49l-.2.04zm1.15 7.31c1.45 9.17 2.88 18.24 4.18 26.53h-8.91l-4.4-26.53h9.13zM156.24 537l.88-26.53h9.72l-2.2 26.53h-8.4zm2.39-71.7l.95-28.25h13.55l-2.33 28.21-12.17.04zm-59.77-28.29c.37 2.02 2.2 13.2 4.58 28.25h-9.86l-4.77-28.25h10.05zM173.15 537h-7.61l2.2-26.53h8.47L173.15 537zm8.45-71.7h-9.9l2.42-28.25h10.8l-3.32 28.25z" fill="#E0E0E0"/><path d="M802.71 551.61c0 .2-179.55.35-400.95.35-221.41 0-400.998-.15-400.998-.35 0-.2 179.498-.38 400.998-.38 221.49 0 400.95.18 400.95.38zM480.78 251.31H326.93l11.36-109.61h155.16l-12.67 109.61z" fill="#263238"/><path d="M472.95 251.31H319.1l11.35-109.61h155.17l-12.67 109.61z" fill="#455A64"/><path d="M467.23 246.34H324.47l10.56-101.69H479l-11.77 101.69z" fill="#F5F5F5"/><path d="M339.96 229.4c-.22 0 1.21-15.4 3.14-34.19 1.94-18.79 3.7-34.1 3.9-34.08.2.02-1.23 15.4-3.17 34.17-1.94 18.76-3.63 34.12-3.87 34.1zM365.94 164.52c-4.76.5-9.56.5-14.32 0 4.76-.47 9.56-.47 14.32 0z" fill="#263238"/><path d="M426.92 164.52c0 .2-12.78.37-28.6.37-15.81 0-28.6-.17-28.6-.37 0-.2 12.79-.35 28.6-.35 15.82 0 28.6.15 28.6.35z" fill="#E8505B"/><path d="M364.25 200.66c-4.77.47-9.56.47-14.33 0 4.77-.47 9.56-.47 14.33 0z" fill="#263238"/><path d="M425.23 200.66c0 .2-12.78.36-28.6.36-15.82 0-28.6-.16-28.6-.36 0-.19 12.78-.35 28.6-.35 15.82 0 28.6.09 28.6.35zM405.78 217.32c0 .2-12.78.37-28.6.37-15.82 0-28.6-.17-28.6-.37 0-.2 12.78-.35 28.6-.35 15.82 0 28.6.15 28.6.35zM372.25 174.73c-3.34.35-6.71.47-10.07.35-3.36.12-6.73 0-10.08-.35 3.35-.36 6.72-.48 10.08-.36 3.36-.12 6.73 0 10.07.36zM371.75 189.69c-3.35.35-6.72.47-10.08.35-3.37.12-6.74 0-10.1-.35 3.36-.36 6.73-.48 10.1-.36 3.36-.11 6.73 0 10.08.36zM388.8 211.07c-3.36.35-6.73.47-10.1.35-3.36.12-6.73 0-10.08-.35a69.3 69.3 0 0110.08-.37c3.37-.12 6.75 0 10.1.37z" fill="#E8505B"/><path d="M445.6 174.73c0 .19-11.53.35-25.74.35-14.21 0-25.76-.16-25.76-.35 0-.2 11.53-.36 25.76-.36 14.24 0 25.74.16 25.74.36zM429.72 190.54c0 .2-11.53.38-25.76.38-14.24 0-25.77-.18-25.77-.38 0-.19 11.53-.35 25.77-.35 14.23 0 25.76.16 25.76.35zM447.45 211.07c0 .2-11.55.35-25.76.35s-25.76-.15-25.76-.35c0-.2 11.52-.37 25.76-.37 14.23 0 25.76.17 25.76.37zM400.41 229.4c0 .19-11.55.35-25.76.35s-25.76-.16-25.76-.35c0-.2 11.53-.38 25.76-.38 14.24 0 25.76.18 25.76.38zM457.37 229.4c0 .19-11.53.35-25.76.35-14.23 0-25.76-.16-25.76-.35 0-.2 11.55-.38 25.76-.38s25.76.18 25.76.38zM400.39 235.36c0 .2-11.53.35-25.74.35-14.21 0-25.65-.11-25.65-.35s11.53-.38 25.76-.38c14.24 0 25.63.18 25.63.38zM402.9 179.02c0 .19-11.53.37-25.74.37-14.21 0-25.76-.18-25.76-.37 0-.2 11.53-.36 25.76-.36 14.23 0 25.74.16 25.74.36z" fill="#263238"/><path d="M389.17 174.79c-4.39.47-8.81.47-13.2 0 4.39-.49 8.82-.49 13.2 0zM362.57 205.57c-4.38.49-8.81.49-13.2 0 4.39-.46 8.82-.46 13.2 0zM362.2 211.07c-4.39.46-8.81.46-13.2 0 4.39-.49 8.81-.49 13.2 0z" fill="#455A64"/><path d="M477.22 155.52c0 .2-32.12.35-71.72.35s-71.7-.15-71.7-.35c0-.2 32.1-.37 71.7-.37s71.72.17 71.72.37z" fill="#263238"/><path d="M345.17 150.66c-.05.42-.25.8-.56 1.08-.31.28-.72.44-1.14.44-.42 0-.83-.16-1.15-.44-.31-.28-.51-.66-.56-1.08.05-.42.25-.81.56-1.09.32-.28.73-.43 1.15-.43.42 0 .83.15 1.14.43.31.28.51.67.56 1.09zM352.48 150.66c0 .34-.1.67-.28.96-.19.28-.45.51-.77.64-.31.13-.66.17-.99.11-.34-.07-.64-.23-.89-.47-.24-.24-.4-.54-.47-.88-.07-.33-.04-.68.09-.99.13-.32.35-.59.63-.77.29-.19.62-.3.96-.3.22 0 .45.04.65.13.21.08.4.2.56.36.16.16.29.35.37.55.09.21.14.43.14.66zM359.76 150.66c0 .33-.1.66-.29.94-.18.28-.45.5-.76.62-.31.13-.65.17-.98.1a1.72 1.72 0 01-.86-.46c-.24-.24-.4-.54-.47-.87a1.705 1.705 0 01.72-1.74c.28-.19.61-.29.94-.29.23 0 .45.04.66.13.2.08.39.21.55.36.16.16.28.35.36.56.09.2.13.42.13.65z" fill="#fff"/><path d="M682.89 254.63H521.04l11.97-115.28h163.22l-13.34 115.28z" fill="#263238"/><path d="M674.64 254.63H512.81l11.97-115.28h163.2l-13.34 115.28z" fill="#455A64"/><path d="M668.64 249.42H518.47l11.11-106.99h151.44l-12.38 106.99z" fill="#EBEBEB"/><path d="M534.83 229.97c-.19 0 1.3-16.13 3.35-35.95 2.04-19.82 3.87-35.88 4.07-35.86.2.02-1.3 16.1-3.35 35.93-2.04 19.82-3.87 35.9-4.07 35.88zM562.18 161.72c-5.01.5-10.06.5-15.07 0a80.71 80.71 0 0115.07 0z" fill="#263238"/><path d="M626.31 161.72c0 .2-13.44.38-30.01.38-16.56 0-30.03-.18-30.03-.38 0-.19 13.44-.35 30.03-.35 16.59 0 30.01.16 30.01.35z" fill="#E8505B"/><path d="M560.4 199.74c-5.01.5-10.06.5-15.07 0a80.71 80.71 0 0115.07 0z" fill="#263238"/><path d="M624.55 199.74c0 .2-13.44.37-30.03.37-16.59 0-29.92-.17-29.92-.37 0-.2 13.44-.35 30.03-.35 16.59 0 29.92.15 29.92.35zM604.2 217.27c0 .2-13.44.36-30.03.36-16.59 0-30.03-.16-30.03-.36 0-.19 13.44-.37 30.03-.37 16.59 0 30.03.18 30.03.37zM568.82 172.46c-7.06.47-14.14.47-21.2 0 7.06-.47 14.14-.47 21.2 0zM568.27 188.19a150 150 0 01-21.2 0c7.06-.47 14.14-.47 21.2 0zM586.2 210.7c-7.06.47-14.14.47-21.2 0a150 150 0 0121.2 0z" fill="#E8505B"/><path d="M646 172.46c0 .2-12.12.35-27.08.35-14.96 0-27.11-.15-27.11-.35 0-.2 12.13-.35 27.11-.35 14.98 0 27.08.15 27.08.35zM629.26 189.11c0 .2-12.12.36-27.08.36-14.96 0-27.11-.16-27.11-.36 0-.19 12.12-.37 27.11-.37 14.98 0 27.08.18 27.08.37zM647.91 210.7c0 .19-12.14.35-27.1.35s-27.08-.16-27.08-.35c0-.2 12.12-.38 27.08-.38 14.96 0 27.1.16 27.1.38zM598.44 229.97c0 .2-12.15.35-27.11.35-14.96 0-27.08-.15-27.08-.35 0-.2 12.12-.38 27.08-.38 14.96 0 27.11.18 27.11.38zM658.36 229.97c0 .2-12.14.35-27.1.35s-27.08-.15-27.08-.35c0-.2 12.12-.38 27.08-.38 14.96 0 27.1.18 27.1.38zM598.44 236.24c0 .2-12.15.35-27.11.35-14.96 0-27.1-.15-27.1-.35 0-.2 12.14-.38 27.1-.38s27.11.18 27.11.38zM601.05 176.97c0 .2-12.12.37-27.08.37-14.96 0-27.1-.17-27.1-.37 0-.2 12.14-.35 27.1-.35s27.08.15 27.08.35z" fill="#263238"/><path d="M586.6 172.53c-4.64.47-9.33.47-13.97 0 4.64-.5 9.33-.5 13.97 0zM558.62 204.91c-4.64.47-9.31.47-13.95 0 4.64-.47 9.31-.47 13.95 0zM558.29 210.7c-4.64.47-9.31.47-13.95 0 4.63-.5 9.31-.5 13.95 0z" fill="#455A64"/><path d="M679.22 152.24c0 .2-33.77.38-75.42.38-41.64 0-75.43-.18-75.43-.38s33.77-.35 75.43-.35c41.67 0 75.42.11 75.42.35z" fill="#263238"/><path d="M540.4 147.16c0 .36-.11.71-.3 1-.2.3-.48.53-.81.67-.33.13-.7.17-1.05.1-.35-.07-.67-.24-.92-.49-.25-.26-.42-.58-.49-.93-.07-.35-.04-.71.1-1.04.14-.33.37-.61.66-.81.3-.2.65-.3 1.01-.3.47 0 .93.19 1.27.52.34.34.53.8.53 1.28zM548.01 147.16a1.793 1.793 0 01-1.8 1.78c-.44-.05-.85-.26-1.15-.59-.29-.33-.46-.76-.46-1.2 0-.44.17-.87.46-1.2.3-.33.71-.54 1.15-.59.48 0 .94.19 1.27.52.34.34.53.8.53 1.28zM555.8 147.16c-.01.47-.2.93-.54 1.26-.33.34-.79.52-1.26.52-.45-.05-.85-.26-1.15-.59-.3-.33-.46-.76-.46-1.2 0-.44.16-.87.46-1.2.3-.33.7-.54 1.15-.59.47 0 .93.19 1.27.52.34.34.53.8.53 1.28z" fill="#fff"/><path d="M398.41 100.76h-140.8L268.02.46h142.01l-11.62 100.3z" fill="#EBEBEB"/><path d="M273.08 83.93c-.2 0 1.21-15.11 3.12-33.7 1.92-18.59 3.63-33.66 3.83-33.64.2.02-1.19 15.11-3.1 33.7-1.92 18.59-3.65 33.66-3.85 33.64zM298.73 20c-4.7.47-9.44.47-14.15 0 4.71-.5 9.45-.5 14.15 0zM358.88 20c0 .2-12.61.35-28.16.35-15.56 0-28.16-.15-28.16-.35 0-.2 12.6-.37 28.16-.37 15.55 0 28.16.13 28.16.37zM297.06 55.6c-4.71.47-9.44.47-14.15 0 4.71-.47 9.44-.47 14.15 0zM357.21 55.6c0 .19-12.61.35-28.16.35-15.56 0-28.16-.16-28.16-.35 0-.2 12.6-.36 28.16-.36 15.55 0 28.16.16 28.16.36zM338 72.03c0 .2-12.61.35-28.16.35s-28.16-.15-28.16-.35c0-.2 12.61-.37 28.16-.37s28.16.17 28.16.37zM305 30.01c-3.3.35-6.63.47-9.94.35-3.32.12-6.65 0-9.95-.35 3.3-.35 6.63-.47 9.95-.35 3.31-.12 6.64 0 9.94.35zM304.45 44.77c-3.3.36-6.63.47-9.94.35-3.32.12-6.65.01-9.95-.35 3.3-.37 6.63-.49 9.95-.37 3.32-.12 6.64 0 9.94.37zM321.26 65.85c-3.3.37-6.63.49-9.95.37-3.32.12-6.64 0-9.94-.37 3.3-.36 6.63-.47 9.94-.35 3.32-.12 6.65-.01 9.95.35zM377.31 30.01c0 .2-11.37.35-25.41.35-14.03 0-25.41-.15-25.41-.35 0-.2 11.38-.35 25.41-.35 14.04 0 25.41.15 25.41.35zM361.63 45.63c0 .2-11.38.35-25.41.35-14.04 0-25.41-.15-25.41-.35 0-.2 11.37-.37 25.41-.37 14.03 0 25.41.17 25.41.37zM379.12 65.85c0 .2-11.38.37-25.41.37-14.04 0-25.41-.17-25.41-.37 0-.2 11.37-.35 25.41-.35 14.03 0 25.41.15 25.41.35zM332.72 83.93c0 .2-11.37.35-25.41.35-14.04 0-25.41-.15-25.41-.35 0-.2 11.37-.37 25.41-.37 14.04 0 25.41.24 25.41.37zM388.91 83.93c0 .2-11.38.35-25.41.35-14.04 0-25.41-.15-25.41-.35 0-.2 11.37-.37 25.41-.37 14.03 0 25.41.24 25.41.37zM332.72 89.81c0 .19-11.37.35-25.41.35-14.04 0-25.41-.16-25.41-.35 0-.2 11.37-.36 25.41-.36 14.04 0 25.41.16 25.41.36zM335.18 34.26c0 .19-11.37.35-25.41.35-14.03 0-25.38-.16-25.38-.35 0-.2 11.35-.38 25.38-.38 14.04 0 25.41.18 25.41.38zM321.63 30.08c-4.35.47-8.74.47-13.09 0 4.35-.5 8.74-.5 13.09 0zM295.39 60.44c-4.35.49-8.74.49-13.09 0 4.35-.47 8.74-.47 13.09 0zM295.08 65.85c-4.39.51-8.82.51-13.2 0 4.39-.48 8.81-.48 13.2 0zM408.4 11.07c0 .2-31.66.35-70.71.35s-70.75-.15-70.75-.35c0-.2 31.68-.38 70.75-.38s70.71.18 70.71.38z" fill="#E0E0E0"/><path d="M278.23 6.27c0 .33-.1.66-.29.93-.18.28-.44.49-.75.62-.3.12-.64.16-.96.09-.33-.06-.62-.22-.86-.46-.23-.23-.39-.53-.46-.85-.06-.33-.03-.66.1-.97.13-.3.34-.56.62-.75.27-.18.59-.28.92-.28.45 0 .87.18 1.19.49.31.31.49.74.49 1.18zM285.44 6.27c.01.34-.09.67-.27.95a1.727 1.727 0 01-1.74.74c-.33-.06-.63-.22-.87-.46-.24-.24-.4-.54-.47-.87-.07-.33-.04-.67.09-.98.13-.31.35-.58.62-.76a1.732 1.732 0 011.59-.17c.21.08.4.21.55.36.16.16.29.34.37.55.09.2.13.42.13.64zM292.64 6.27c0 .45-.18.87-.49 1.18-.32.32-.74.49-1.19.49-.44 0-.86-.17-1.18-.49a1.665 1.665 0 010-2.36 1.7 1.7 0 011.18-.49c.45 0 .87.18 1.19.49.31.31.49.74.49 1.18z" fill="#fff"/><path d="M590.54 118.16H435.99L447.43 8.08h155.85l-12.74 110.08z" fill="#263238"/><path d="M582.68 118.16H428.13L439.55 8.08H595.4l-12.72 110.08z" fill="#455A64"/><path d="M576.94 113.17H433.55l10.6-102.15h144.61l-11.82 102.15z" fill="#FAFAFA"/><path d="M449.3 96.03c-.2 0 1.23-15.4 3.19-34.32s3.69-34.27 3.89-34.25c.2.02-1.23 15.4-3.19 34.32s-3.69 34.27-3.89 34.25zM475.41 30.87c-4.78.5-9.6.5-14.39 0 4.79-.47 9.61-.47 14.39 0z" fill="#263238"/><path d="M536.66 30.87c0 .2-12.83.37-28.6.37-15.77 0-28.6-.17-28.6-.37 0-.2 12.83-.35 28.6-.35 15.77 0 28.6.15 28.6.35z" fill="#E8505B"/><path d="M473.72 67.17c-4.79.5-9.62.5-14.41 0 4.79-.47 9.62-.47 14.41 0z" fill="#263238"/><path d="M534.97 67.17c0 .2-12.83.37-28.6.37-15.78 0-28.6-.17-28.6-.37 0-.2 12.84-.35 28.6-.35 15.75 0 28.6.15 28.6.35zM515.43 83.91c0 .2-12.83.35-28.6.35-15.77 0-28.6-.15-28.6-.35 0-.2 12.85-.35 28.6-.35 15.75 0 28.6.24 28.6.35zM481.75 41.12c-6.74.5-13.5.5-20.24 0 6.74-.47 13.5-.47 20.24 0zM481.24 56.15c-6.74.49-13.52.49-20.26 0 6.75-.47 13.52-.47 20.26 0zM498.36 77.62c-6.74.5-13.5.5-20.24 0 6.74-.47 13.5-.47 20.24 0z" fill="#E8505B"/><path d="M555.45 41.12c0 .2-11.6.37-25.87.37-14.28 0-25.88-.17-25.88-.37 0-.2 11.58-.35 25.88-.35 14.3 0 25.87.15 25.87.35zM539.48 57.03c0 .19-11.6.35-25.88.35-14.27 0-25.87-.16-25.87-.35 0-.2 11.57-.38 25.87-.38s25.88.18 25.88.38zM557.27 77.62c0 .2-11.57.37-25.87.37s-25.87-.17-25.87-.37c0-.2 11.59-.35 25.87-.35 14.28 0 25.87.15 25.87.35zM510.04 96.03c0 .2-11.59.35-25.87.35-14.28 0-25.87-.15-25.87-.35 0-.2 11.57-.37 25.87-.37s25.87.17 25.87.37zM567.26 96.03c0 .2-11.59.35-25.87.35-14.28 0-25.87-.15-25.87-.35 0-.2 11.57-.37 25.87-.37s25.87.17 25.87.37zM510.04 102.02c0 .19-11.59.37-25.87.37-14.28 0-25.9-.18-25.9-.37 0-.2 11.6-.36 25.9-.36 14.3 0 25.87.16 25.87.36zM512.55 45.43c0 .2-11.6.38-25.87.38-14.28 0-25.88-.18-25.88-.38s11.58-.35 25.88-.35c14.3 0 25.87.15 25.87.35z" fill="#263238"/><path d="M498.75 41.19c-4.43.47-8.9.47-13.33 0 4.43-.5 8.9-.5 13.33 0zM472.02 72.12c-4.43.47-8.9.47-13.33 0 4.43-.5 8.9-.5 13.33 0zM471.72 77.62c-4.43.5-8.91.5-13.34 0 4.44-.47 8.9-.47 13.34 0z" fill="#455A64"/><path d="M587.17 21.83c0 .19-32.25.35-72 .35-39.76 0-72.05-.16-72.05-.35 0-.2 32.25-.38 72.05-.38 39.79 0 72 .18 72 .38z" fill="#263238"/><path d="M452.84 18.66c.95 0 1.72-.77 1.72-1.72s-.77-1.71-1.72-1.71-1.72.76-1.72 1.71.77 1.72 1.72 1.72zM460.17 18.66c.94 0 1.71-.77 1.71-1.72s-.77-1.71-1.71-1.71c-.95 0-1.72.76-1.72 1.71s.77 1.72 1.72 1.72zM467.49 18.66c.95 0 1.72-.77 1.72-1.72s-.77-1.71-1.72-1.71-1.71.76-1.71 1.71.76 1.72 1.71 1.72z" fill="#fff"/><path d="M363.17 532.8h-12.04v16.43h12.04V532.8zM432.8 346.55h106.83v-5.2H432.8v5.2z" fill="#263238"/><path d="M556.17 346.55l20.05-75.11h-83.43l-18.13 75.11h81.51z" fill="#263238"/><path d="M479.66 340.85h74.51l17.36-65.94h-74.91l-16.96 65.94z" fill="#F5F5F5"/><path d="M498.47 287.7l-4.62 18.65h49.41l5.28-18.65h-50.07z" fill="#E0E0E0"/><path d="M538.2 285.23c0 .2-8.67.35-19.36.35s-19.36-.15-19.36-.35c0-.2 8.67-.37 19.36-.37s19.36.17 19.36.37z" fill="#455A64"/><path d="M515.58 291.26c-5.18.47-10.41.47-15.59 0 5.18-.47 10.41-.47 15.59 0zM528.1 290.97c-3.37.47-6.79.47-10.16 0 3.37-.49 6.79-.49 10.16 0z" fill="#263238"/><path d="M542.23 294.65c0 .2-9.55.35-21.34.35-11.8 0-21.34-.15-21.34-.35 0-.2 9.54-.38 21.34-.38 11.79 0 21.34.18 21.34.38z" fill="#455A64"/><path d="M512.5 297.73c-4.6.5-9.23.5-13.83 0 4.6-.47 9.23-.47 13.83 0z" fill="#9E22E9"/><path d="M538.4 302.15c0 .2-8.8.35-19.8.35s-19.8-.15-19.8-.35c0-.2 8.8-.35 19.8-.35s19.8.15 19.8.35zM509.27 311.72c-5.12.47-10.28.47-15.4 0 5.12-.47 10.28-.47 15.4 0z" fill="#455A64"/><path d="M522.36 311.79c-1.72.33-3.48.44-5.24.3-1.74.11-3.5-.02-5.21-.39 1.72-.35 3.48-.46 5.24-.33 1.74-.11 3.5.03 5.21.42zM529.73 311.43c0 .2-.99.36-2.2.36-1.21 0-2.2-.16-2.2-.36 0-.19.99-.37 2.2-.37 1.21 0 2.2.18 2.2.37z" fill="#263238"/><path d="M499.11 315.55c0 .2-1.1.35-2.45.35-1.34 0-2.42-.15-2.42-.35 0-.2 1.08-.35 2.42-.35 1.35 0 2.45.15 2.45.35z" fill="#9E22E9"/><path d="M513.67 315.55c-3.86.47-7.76.47-11.62 0 3.86-.47 7.76-.47 11.62 0z" fill="#263238"/><path d="M548.41 315.11c0 .2-6.95.35-15.53.35-8.58 0-15.51-.15-15.51-.35 0-.2 6.95-.38 15.51-.38 8.55 0 15.53.18 15.53.38z" fill="#455A64"/><path d="M498.36 319.53c0 .2-1.12.35-2.49.35-1.36 0-2.51-.15-2.51-.35 0-.2 1.13-.37 2.51-.37 1.39 0 2.49.17 2.49.37zM506.01 319.38c-1.98.46-4.04.46-6.02 0 1.97-.5 4.05-.5 6.02 0z" fill="#263238"/><path d="M528.83 319.2c-6.51.47-13.05.47-19.56 0 6.51-.5 13.05-.5 19.56 0zM516.77 326c-3.94.35-7.9.47-11.86.35-3.94.12-7.9 0-11.83-.35 3.93-.36 7.89-.47 11.83-.35 3.96-.12 7.92-.01 11.86.35z" fill="#455A64"/><path d="M530.61 325.8c-3.57.47-7.19.47-10.76 0 3.57-.5 7.19-.5 10.76 0z" fill="#9E22E9"/><path d="M551.14 325.8c-5.93.47-11.89.47-17.82 0 5.93-.5 11.89-.5 17.82 0zM546.36 284.92c0 .2-.83.38-1.85.38-1.01 0-1.84-.18-1.84-.38 0-.19.83-.35 1.84-.35 1.02 0 1.85.16 1.85.35z" fill="#263238"/><path d="M508.81 282.42c-2.68.5-5.42.5-8.1 0 2.68-.47 5.42-.47 8.1 0z" fill="#000"/><path d="M570.28 279.6h-74.91l1.25-4.73h74.8l-1.14 4.73z" fill="#EBEBEB"/><path d="M499.77 278.13c.45 0 .81-.37.81-.82 0-.45-.36-.81-.81-.81-.45 0-.82.36-.82.81 0 .45.37.82.82.82zM502.58 278.13c.45 0 .82-.37.82-.82 0-.45-.37-.81-.82-.81-.45 0-.81.36-.81.81 0 .45.36.82.81.82zM505.4 278.13c.45 0 .81-.37.81-.82 0-.45-.36-.81-.81-.81-.45 0-.82.36-.82.81 0 .45.37.82.82.82z" fill="#FAFAFA"/><path d="M656.49 348.13H478.87v103.64h177.62V348.13z" fill="#263238"/><path d="M559.78 348.13h-80.91v103.64h80.91V348.13z" fill="#455A64"/><path d="M551.53 383.33v-2.05-5.76c0-4.99 0-12.17-.15-20.99l.26.27-65.07.11c-.33.3.41-.44.35-.38v28.78l-.35-.35 46.64.17h17.18-17.03l-46.86.16h-.33v-.33-28.78s.68-.68.37-.35h65.34v.26c0 8.8-.11 16.11-.13 21.14v7.18c.02.32-.05.64-.22.92z" fill="#263238"/><path d="M521.77 368.92a3.98 3.98 0 00-1.26-1.98c-.34-.24-.73-.39-1.14-.44-.41-.06-.82-.01-1.21.13-.45.18-.84.48-1.12.87-.28.39-.44.85-.47 1.33.01.46.14.9.38 1.29.23.39.58.71.98.91.41.21.87.3 1.32.27.46-.04.89-.2 1.26-.47.62-.52 1.06-1.22 1.26-2 .07.24.07.49 0 .73-.13.66-.48 1.26-.99 1.69-.4.33-.87.54-1.38.63-.5.09-1.02.05-1.51-.12-.6-.21-1.13-.6-1.51-1.12-.37-.53-.57-1.15-.57-1.8 0-.64.2-1.27.57-1.79a3.11 3.11 0 013.02-1.25c.51.09.98.31 1.38.63.52.43.87 1.03.99 1.7.11.55.02.81 0 .79zM551.53 415.01c-.01-.18-.01-.35 0-.53v-1.52-5.74c0-5.01 0-12.16-.15-20.99l.26.25-65.07.11.35-.36v28.74l-.35-.33 46.64.15h17.18-3.57l-13.46.11-46.86.15h-.33v-.35V385.97l.37-.37 65.08.11h.26v.26c0 8.8-.11 16.1-.13 21.14v7.15c-.2.6-.2.77-.22.75z" fill="#263238"/><path d="M521.77 400.6c-.2-.78-.64-1.48-1.26-2-.34-.24-.73-.38-1.14-.43-.41-.05-.83 0-1.21.14-.47.18-.87.49-1.15.9-.29.41-.44.89-.44 1.39 0 .5.15.98.44 1.39.28.41.68.72 1.15.9.38.14.8.2 1.21.15.41-.05.8-.2 1.14-.44.62-.52 1.06-1.22 1.26-2 .07.23.07.48 0 .7-.12.67-.47 1.27-.99 1.7-.4.32-.87.54-1.38.63-.5.09-1.02.04-1.51-.13-.6-.21-1.12-.6-1.48-1.12a3.067 3.067 0 010-3.56c.36-.52.88-.91 1.48-1.12.49-.17 1.01-.22 1.51-.13.51.09.98.31 1.38.63.52.43.87 1.03.99 1.7.07.22.07.47 0 .7zM551.53 446.8v-2.2-5.76c0-5 0-12.17-.15-20.99l.26.26-65.07.11c-.33.31.41-.44.35-.37V446.62l-.35-.35 46.64.18h17.18-17.03l-46.86.17h-.33v-28.6s.68-.68.37-.35h65.34v.27c0 8.8-.11 16.1-.13 21.14v7.17c-.04.2-.11.38-.22.55z" fill="#263238"/><path d="M521.77 432.32c-.2-.78-.64-1.48-1.26-2-.37-.26-.8-.42-1.26-.46-.45-.03-.91.06-1.32.26a2.526 2.526 0 00-1.36 2.2c.03.48.19.95.47 1.34.28.39.67.69 1.12.86.39.15.8.19 1.21.14.41-.05.8-.21 1.14-.44a3.98 3.98 0 001.26-1.98s.11.24 0 .7c-.12.66-.47 1.27-.99 1.69-.4.33-.87.54-1.38.63-.5.09-1.02.05-1.51-.12-.6-.21-1.13-.6-1.51-1.12a3.12 3.12 0 01-.57-1.79c0-.65.2-1.27.57-1.8.38-.52.91-.91 1.51-1.12a2.99 2.99 0 011.51-.12c.51.09.98.3 1.38.63.52.43.87 1.03.99 1.69.09.26.09.55 0 .81zM360.57 536.12l-118.71-.09v-187.9h118.71v187.99z" fill="#263238"/><path d="M662.94 340.89h-426.8v9.86h426.8v-9.86zM255.1 350.75h-13.24v199.34h13.24V350.75zM656.49 350.75h-13.24v199.41h13.24V350.75zM573.03 350.75h-13.25v199.41h13.25V350.75z" fill="#263238"/><path d="M296.2 340.89c0 .2-12.74.35-28.42.35-15.69 0-28.41-.15-28.41-.35 0-.2 12.72-.35 28.41-.35 15.68 0 28.42.15 28.42.35z" fill="#455A64"/><path d="M420.94 540.39l.33-14.26-26.71-.81-.7 20.85 1.65.16c7.35.64 37.4 2.7 42.41 1.36 5.55-1.52-16.98-7.3-16.98-7.3z" fill="#9E22E9"/><path opacity=".4" d="M431.94 543.6s7.88 2.53 6.84 3.81c-1.03 1.27-31.5.35-44.92-1.26v-.59l35.55 1.41s.99-3.37 2.53-3.37z" fill="#fff"/><path d="M393.51 545.56h.44l1.32.11 4.86.37c4.09.27 9.74.57 15.99.77 6.25.2 11.95.24 16.04.22H438.8c-.15-.02-.3-.02-.46 0h-6.2c-4.09 0-9.77-.13-16.02-.33s-11.92-.46-16.01-.68l-4.84-.24h-1.32l-.44-.22z" fill="#263238"/><path d="M429.45 547.41c.23-.77.56-1.51.97-2.2.5-.68 1.08-1.29 1.72-1.83-.84.29-1.54.87-1.98 1.63-.51.69-.76 1.54-.71 2.4zM421.6 543.16s.46-.4.88-1.01c.42-.62.68-1.12.59-1.17-.08-.04-.46.4-.85.99-.3.35-.51.75-.62 1.19zM419.55 541.95s.51-.2.97-.59c.46-.4.82-.8.75-.86-.07-.07-.48.2-.95.59-.46.4-.81.79-.77.86zM418.28 539.38c.44.18.91.25 1.38.22.47.1.95.1 1.41 0a2.85 2.85 0 00-1.38-.22c-.47-.11-.95-.11-1.41 0zM417.86 537.59c.45.32.99.5 1.54.51.54.11 1.1.05 1.61-.18a8.27 8.27 0 00-1.57-.15c-.52-.11-1.05-.17-1.58-.18z" fill="#263238"/><path d="M422.68 540.85c.57.1 1.15.1 1.71 0 .62-.06 1.23-.17 1.83-.35.37-.08.72-.22 1.06-.4.2-.11.36-.29.44-.5.03-.13.03-.26-.01-.39a.745.745 0 00-.21-.32c-.65-.34-1.4-.44-2.11-.3-.72.14-1.37.53-1.83 1.09-.26.35-.46.74-.6 1.15v.46c.18-.53.46-1.02.82-1.45.41-.43.92-.75 1.49-.9.69-.2 1.42-.13 2.05.19.26.22.15.53-.15.71-.32.16-.65.28-.99.37-.59.19-1.18.33-1.79.42-1.07.2-1.71.18-1.71.22z" fill="#263238"/><path d="M423.12 540.96c.21-.36.29-.78.22-1.19-.04-.45-.18-.89-.42-1.27-.14-.27-.34-.49-.58-.65-.25-.16-.53-.26-.83-.28-.17.04-.33.14-.43.29-.1.15-.14.33-.12.5.04.28.13.54.27.77.21.39.48.75.79 1.06.5.55.92.77.94.73.03-.05-.33-.31-.79-.88-.26-.32-.49-.67-.68-1.04-.22-.37-.37-1.03 0-1.1.37-.06.86.42 1.12.77.22.34.37.73.44 1.12.05.39.07.78.07 1.17zM394.28 538.28c.65-.01 1.31.04 1.95.13 1.57.22 3.04.88 4.25 1.89a8.642 8.642 0 012.57 3.89c.38 1.15.4 1.92.47 1.92.02-.18.02-.35 0-.53-.02-.49-.1-.98-.25-1.45a8.097 8.097 0 00-2.57-4.08 8.147 8.147 0 00-4.44-1.88c-.49-.06-.97-.06-1.46 0-.18 0-.36.04-.52.11zM397.4 527.23c-.24 1.82-.37 3.65-.4 5.48-.1 1.83-.1 3.67 0 5.5.24-1.82.37-3.65.4-5.48.1-1.83.1-3.67 0-5.5zM406.99 543.75c1.26.35 2.57.52 3.87.51 1.31.11 2.63.05 3.92-.18 0-.11-1.74 0-3.89-.13-2.16-.13-3.9-.35-3.9-.2z" fill="#263238"/><path d="M401.8 543.6s.13.37.29.77c.15.4.26.77.35.77.09 0 .15-.42 0-.88-.16-.46-.64-.66-.64-.66zM399.86 541.07s0 .35.36.64c.35.28.55.48.61.42.07-.07-.11-.36-.37-.64-.27-.29-.53-.46-.6-.42zM397.07 539.88s.37 0 .75.24c.37.25.68.38.75.31.06-.06-.16-.44-.64-.61-.49-.18-.88-.03-.86.06zM395.07 539.2s.11.22.33.31c.22.09.44.11.46 0 .02-.11-.11-.22-.33-.31-.22-.09-.33 0-.46 0z" fill="#263238"/><path opacity=".3" d="M394.32 537.55l26.69.37.06-3.21-26.9 1.15.15 1.69z" fill="#000"/><path d="M463.05 542.61v-14.26l-26.75-.15-.16 20.86 1.65.13c7.37.42 37.4 1.69 42.44.22 5.5-1.61-17.18-6.8-17.18-6.8z" fill="#9E22E9"/><path opacity=".4" d="M474.14 545.54s7.94 2.33 6.95 3.63c-.99 1.29-31.51 1.18-44.95 0v-.6l35.58.46s.85-3.43 2.42-3.49z" fill="#fff"/><path d="M435.77 548.51h1.78l4.84.22c4.11.17 9.77.33 16.04.35 6.27.02 11.92 0 16.04-.18l4.84-.2h1.78-6.62c-4.12 0-9.77.14-16.04 0-6.27-.13-11.93-.13-16.02-.24l-4.86-.13h-1.78v.18z" fill="#263238"/><path d="M471.76 549.39c.21-.81.51-1.58.9-2.31.48-.69 1.04-1.31 1.67-1.85-.83.29-1.52.89-1.93 1.67-.52.72-.75 1.61-.64 2.49zM463.88 545.36s.47-.42.86-1.03c.27-.36.46-.76.57-1.19 0 0-.46.39-.85 1.01-.29.35-.49.77-.58 1.21zM461.73 544.19s.48-.19.94-.61c.47-.42.8-.82.73-.88-.07-.07-.48.22-.95.64-.46.41-.79.79-.72.85zM460.36 541.66c.45.17.93.24 1.41.2.47.05.94 0 1.39-.15-.45-.16-.92-.22-1.39-.18-.47-.06-.95-.02-1.41.13zM459.9 539.88c.46.31 1.01.48 1.56.46.55.11 1.11.04 1.61-.19-.52-.09-1.05-.12-1.58-.11-.53-.1-1.06-.15-1.59-.16z" fill="#263238"/><path d="M464.81 543.03c.57.08 1.15.08 1.71 0 .62-.09 1.23-.22 1.83-.4.36-.11.72-.26 1.06-.44.2-.12.34-.3.41-.53.03-.12.02-.25-.03-.38a.756.756 0 00-.23-.3c-.65-.32-1.4-.4-2.11-.24-.71.17-1.34.57-1.78 1.14-.26.35-.45.74-.58 1.15v.46c.19-.52.46-1.01.8-1.45a2.9 2.9 0 011.47-.95c.67-.22 1.41-.17 2.05.13.26.22.15.53-.14.71-.3.17-.63.31-.96.42-.59.19-1.18.34-1.79.44-1.07.19-1.71.17-1.71.24z" fill="#263238"/><path d="M465.25 543.12c.21-.36.28-.79.2-1.19-.05-.45-.21-.88-.47-1.26-.13-.26-.34-.48-.59-.63a1.65 1.65 0 00-.84-.25c-.08.02-.16.05-.24.1-.07.05-.13.11-.18.18-.05.07-.08.15-.1.24-.02.08-.02.17 0 .25.03.28.13.54.28.77.23.39.5.74.82 1.06.26.31.59.55.96.7 0 0-.33-.33-.81-.85-.27-.33-.5-.67-.7-1.04-.25-.37-.4-1.01 0-1.1.39-.09.85.4 1.12.73.23.34.4.72.48 1.12.06.39.08.78.07 1.17zM436.34 541.18h1.98c1.57.18 3.07.8 4.3 1.79a8.35 8.35 0 012.67 3.82c.2.63.36 1.27.49 1.91.04-.18.04-.36 0-.55-.06-.48-.15-.96-.29-1.43a8.224 8.224 0 00-2.7-4 8.007 8.007 0 00-4.4-1.76c-.49-.06-.99-.06-1.48 0-.2.05-.39.12-.57.22z" fill="#263238"/><path d="M439.2 530.09a47.76 47.76 0 00-.26 5.48c-.11 1.83-.11 3.67 0 5.5.18-1.83.26-3.66.24-5.5.12-1.82.13-3.65.02-5.48zM449.19 546.35c1.28.3 2.6.43 3.91.4 1.31.08 2.62-.02 3.9-.29 0-.11-1.74 0-3.9 0-2.15 0-3.89-.2-3.91-.11zM443.97 546.31s.14.37.31.79c.18.42.27.75.35.75.09 0 .16-.44 0-.88-.15-.44-.61-.71-.66-.66zM441.99 543.84s0 .35.4.64c.4.29.55.46.62.4.06-.07 0-.36-.4-.64-.4-.29-.55-.44-.62-.4zM439.2 542.72s.37 0 .77.22.68.35.75.29c.06-.07-.16-.42-.64-.6-.48-.17-.88 0-.88.09zM437.18 542.17s0 .24.33.31c.33.06.44.11.46 0 .02-.11-.11-.22-.33-.31-.22-.09-.44-.07-.46 0z" fill="#263238"/><path opacity=".3" d="M436.38 540.48l26.69-.33-.02-3.22-26.86 1.85.19 1.7z" fill="#000"/><path d="M409.15 303.8l10.71 32.21c2.88 8.8 10.47 10.21 19.65 10.21h59.51v-13.36l-54.36-7.76-12.96-33-22.55 11.7z" fill="#FFBE9D"/><path d="M505.55 330.2l4.73-2.2s5.08-9.83 6.25-9.44c1.17.4 1.52 3.28-.53 7.81l6.27-1.8s13.6 6.29 13 7.13c-.18.42-.46.81-.81 1.12-.35.3-.76.53-1.21.66-.45.13-.92.15-1.38.08-.46-.08-.9-.26-1.28-.52-2.95-1.52-6.84-3.3-6.84-3.3l-7.33 2.2 9.46 1.19 8.8 8.09c-.79.59-1.75.9-2.74.88-.99-.03-1.93-.38-2.69-1.01l-23.08 4.95-7.22.42V333.1l6.6-2.9z" fill="#FFBE9D"/><path d="M529.4 340.94c-.47-.49-.92-1.01-1.34-1.54-.5-.52-1.07-.95-1.7-1.3-.78-.37-1.62-.59-2.48-.64-2.35-.16-4.67-.56-6.93-1.19 2.35-.09 4.7.07 7.02.46.96.07 1.9.34 2.75.8.66.4 1.24.92 1.71 1.54.71 1.05.97 1.82.97 1.87zM525.7 341.86s-.15-.48-.79-.62c-.64-.13-1.71-.24-2.81-.37-1.36-.02-2.72-.15-4.05-.4 1.32-.46 2.74-.57 4.11-.3.99.07 1.97.27 2.91.59.16.06.31.15.43.28.13.13.22.28.27.45.07.24-.02.37-.07.37z" fill="#EB996E"/><path d="M358.92 171.45l-3.32 65.45 28.03 2.64 1.54-15.89s9.9 2.45 12.89-6.6c1.91-5.83 3.63-51.59 3.63-51.59l-42.77 5.99z" fill="#FFBE9D"/><path d="M404.2 173.01c.77 6.12-7.79 9.66-7.79 9.66l-1.5 14.5c-1.34-.1-2.68-.1-4.02 0 .72-6.8-8.03-5.48-8.93-.84-.91 4.64 4.22 7.44 4.22 7.44a66.02 66.02 0 01-9.9 13.2c-5.39 5.45-8.27 5.89-13.84 5.74l-6.11-.29c-1.95-5.7-3.22-11.6-3.79-17.6-.77-5.94-5.41-13.73-4.09-23.38 3.76-27.46 30.07-24.56 30.07-24.56 13.64.4 23.87 1.92 25.68 16.13z" fill="#263238"/><path d="M384.02 157.7c5.94.15 12.1.61 17.34 3.45 5.24 2.84 9.22 8.8 8.16 14.57l-2.97.52-1.23-2.2v3.5l-5.24 1.45c-.77-4.46-2.33-8.74-4.62-12.65" fill="#263238"/><path d="M360 187.82c-.21-.32-.37-.67-.46-1.04-.34-.97-.59-1.97-.75-2.99-.57-3.36-.35-6.81.66-10.07 1-3.26 2.76-6.24 5.13-8.7.71-.74 1.48-1.43 2.31-2.04.28-.24.6-.44.94-.6 0 .11-1.19 1.06-2.88 2.97a23.554 23.554 0 00-4.8 8.58c-.97 3.17-1.26 6.51-.85 9.79.35 2.53.85 4.05.7 4.1z" fill="#455A64"/><path d="M365.57 185.51a10.29 10.29 0 01-1.13-3.35c-1.2-5.63-.69-11.49 1.48-16.83.4-1.11.96-2.15 1.67-3.1a44.542 44.542 0 00-2.95 11.46c-.22 3.96.09 7.94.93 11.82zM401.34 175.36c-.13 0-.38-1.69-1.52-4.18a19.08 19.08 0 00-16.74-11.33c-2.73-.13-4.4.29-4.4.16.36-.2.76-.31 1.16-.35 1.09-.24 2.2-.35 3.3-.33 3.7 0 7.32 1.1 10.38 3.18 3.06 2.07 5.43 5.02 6.81 8.45.42 1.03.74 2.1.94 3.19.09.4.11.81.07 1.21z" fill="#455A64"/><path d="M360.9 152.4c1.52.43 2.91 1.25 4.02 2.37a9.265 9.265 0 012.36 4.03c-.2 0-1.1-1.76-2.86-3.52-1.76-1.76-3.61-2.69-3.52-2.88z" fill="#263238"/><path d="M367.46 152.42c.2 0-.22 1.54-.13 3.34.08 1.81.57 3.26.39 3.35-.39-.45-.69-.98-.89-1.54-.19-.57-.27-1.17-.23-1.76-.16-1.2.14-2.42.86-3.39z" fill="#455A64"/><path d="M399.03 291.48l4.57 15.4 29.04-13.2c-1.03-3.26-5.85-17.71-15.04-40.66a39.495 39.495 0 00-11.88-16.04 39.592 39.592 0 00-18.22-8.16c-9.18-1.66-18.48-2.57-27.81-2.72-16.28.17-40.26 10.36-43.47 26.4-2.46 12.18 0 33.7 0 59.84l2.2 49.94 83.38 2.86-2.77-73.66z" fill="#4B4AA1"/><path opacity=".3" d="M316.22 300.79c10.14 2.09 20.57 0 30.93-.62 6.27-.37 13.2-1.06 18.2 2.79 3.93 3.06 5.52 8.21 6.6 13.05 4.4 18.5 5.12 30.91 6.09 49.87l-50.25 3.04-11.57-68.13z" fill="#000"/><path d="M415.15 248.4c0 .2-21.89.36-48.92.36-27.04 0-48.93-.16-48.93-.36 0-.19 22-.37 48.93-.37 26.92 0 48.92.18 48.92.37zM421.25 262.42c0 .2-23.81.35-53.2.35-29.39 0-53.19-.15-53.19-.35 0-.2 23.8-.35 53.19-.35 29.39 0 53.2.15 53.2.35zM428.9 280.02c0 .2-25.41.35-56.76.35-31.35 0-56.78-.15-56.78-.35 0-.2 25.41-.38 56.78-.38 31.38 0 56.76.18 56.76.38zM398.39 298.98c0 .2-7.94.35-17.73.35s-17.73-.15-17.73-.35c0-.2 7.94-.35 17.73-.35s17.73.15 17.73.35zM400.04 319.55c0 .2-8.32.29-18.55.2-10.23-.09-18.56-.31-18.56-.51 0-.19 8.31-.28 18.56-.19 10.26.08 18.55.3 18.55.5zM400.85 336.32c-.48.05-.97.05-1.45 0h-3.98c-3.37 0-7.99-.16-13.2-.18-5.21-.02-9.77 0-13.2.18h-3.98c-.49.05-.99.05-1.48 0 .48-.14.96-.21 1.46-.22l3.98-.31c3.34-.2 8.01-.35 13.2-.35 5.19 0 9.77.17 13.2.37 1.67 0 3.03.2 3.96.31.5 0 1.01.06 1.49.2zM400.59 349.85c0 .19-8.18.35-18.28.35-10.1 0-18.28-.16-18.28-.35 0-.2 8.18-.38 18.28-.38 10.1 0 18.28.18 18.28.38zM403.08 234.65c0 .2-16.09.36-35.89.36s-35.88-.16-35.88-.36c0-.19 16.06-.35 35.88-.35 19.83 0 35.89.16 35.89.35z" fill="#FAFAFA"/><path d="M401.16 237.25s-.83.13-2.2.68c-1.93.83-3.6 2.18-4.82 3.9a16.275 16.275 0 00-2.88 8.69c-.1 3.83.19 7.66.88 11.44 1.18 6.9 2.74 13.73 4.67 20.46.7 2.5 1.25 4.57 1.69 6.13.25.72.43 1.45.53 2.2-.32-.71-.59-1.44-.79-2.2-.49-1.43-1.15-3.52-1.92-6.09a157.99 157.99 0 01-4.88-20.48 52.42 52.42 0 01-.84-11.6c.14-3.22 1.23-6.34 3.13-8.95 1.3-1.75 3.08-3.09 5.12-3.85.56-.19 1.13-.32 1.72-.4l.59.07zM431.74 289.87c-1.29.89-2.66 1.67-4.09 2.34-2.57 1.36-6.18 3.14-10.23 4.97-4.05 1.82-7.79 3.34-10.52 4.4-1.41.64-2.89 1.14-4.4 1.52 1.43-.75 2.9-1.41 4.4-1.98 2.67-1.17 6.34-2.75 10.39-4.58 4.05-1.83 7.68-3.52 10.32-4.75a34.41 34.41 0 014.13-1.92zM344.05 363.2l99.73 3.52a29.775 29.775 0 0128.6 30.21l-4.05 142.27-38.52-1.28 2.86-133.34-88.62-2.33V363.2z" fill="#263238"/><path d="M302.8 363.2l99.7 3.52c7.77.3 15.12 3.63 20.46 9.27a29.719 29.719 0 018.14 20.94l-3.98 142.27-39.03-3.1 3.37-131.52-88.66-2.31V363.2z" fill="#263238"/><path d="M377.49 414.83h-9.81v117.53h9.81V414.83zM285.38 300.76v86.51c0 5.45 2.16 10.67 6.01 14.53 3.86 3.85 9.08 6.02 14.53 6.02h57.62V300.76c0-2.42-.97-4.75-2.69-6.47a9.2 9.2 0 00-6.48-2.68h-59.82a9.2 9.2 0 00-6.48 2.68 9.161 9.161 0 00-2.69 6.47z" fill="#455A64"/><path d="M441.07 414.83H300.78c0-4.03 1.6-7.91 4.45-10.76a15.22 15.22 0 0110.77-4.46h109.85c4.03 0 7.91 1.6 10.76 4.46 2.86 2.85 4.46 6.73 4.46 10.76z" fill="#455A64"/><path d="M363.54 397.59c.03.22.03.44 0 .66.01.63-.07 1.27-.22 1.89a10.29 10.29 0 01-3.76 5.83c-1.29.99-2.8 1.67-4.4 1.98-1.84.2-3.69.26-5.54.2h-35.51l-6.95-.11H304.63c.21-.03.44-.03.66 0h1.87l6.95-.14c5.85 0 13.95-.11 22.9-.13h12.61c1.81.08 3.62.04 5.43-.13 1.54-.25 3-.87 4.25-1.8 1.84-1.35 3.19-3.28 3.8-5.48.4-1.85.35-2.77.44-2.77zM381.19 415.14c-5.73.47-11.48.47-17.21 0 5.73-.5 11.48-.5 17.21 0z" fill="#263238"/><path d="M423.8 408.56c-.4-1.34-.69-2.72-.86-4.11-.46-2.66-1.1-6.6-1.85-11.31a59.348 59.348 0 00-3.89-16.28 40.48 40.48 0 00-5.21-8.34c-2.26-2.7-4.89-5.07-7.81-7.04a35.681 35.681 0 00-9.49-4.57c-3.13-.99-6.39-1.54-9.68-1.65-6.33-.16-12.14-.13-16.96-.22s-8.8-.16-11.46-.22c-1.41.02-2.81-.07-4.2-.29 1.39-.23 2.79-.32 4.2-.28 2.71 0 6.6-.16 11.46-.22 4.86-.07 10.58-.18 17.01-.11 3.41.07 6.79.63 10.05 1.65a35.44 35.44 0 019.86 4.73c3.05 2.03 5.78 4.5 8.12 7.32a40.12 40.12 0 015.32 8.69c.33.75.59 1.5.88 2.2l.42 1.1.31 1.12.61 2.2.4 2.2c.48 2.84.75 5.46 1.08 7.86.61 4.79 1.1 8.69 1.38 11.37.25 1.39.35 2.8.31 4.2zM415.48 542.98h-1.38a41.779 41.779 0 00-13.02-28.02 41.8 41.8 0 00-28.72-11.43c-10.68 0-20.95 4.09-28.71 11.43a41.779 41.779 0 00-13.02 28.02h-1.43c0-11.43 4.54-22.4 12.63-30.49a43.146 43.146 0 0130.49-12.63c11.44 0 22.4 4.55 30.49 12.63a43.122 43.122 0 0112.63 30.49h.04z" fill="#455A64"/><path d="M336.42 545.14c0 1.28-.38 2.53-1.09 3.59a6.42 6.42 0 01-2.91 2.39c-1.18.49-2.48.61-3.73.36a6.456 6.456 0 01-5.09-5.08 6.44 6.44 0 01.37-3.73c.49-1.19 1.32-2.2 2.38-2.91a6.508 6.508 0 013.6-1.09c1.71 0 3.36.68 4.57 1.9a6.464 6.464 0 011.9 4.57zM421.6 544.24c0 1.28-.38 2.53-1.09 3.59a6.474 6.474 0 01-6.64 2.75 6.427 6.427 0 01-3.31-1.77c-.91-.9-1.52-2.06-1.77-3.31a6.474 6.474 0 012.75-6.64 6.452 6.452 0 013.59-1.09c.85 0 1.69.16 2.48.49.79.32 1.5.8 2.1 1.4.6.6 1.08 1.31 1.4 2.1.33.79.49 1.63.49 2.48z" fill="#263238"/><path d="M415 532.34c0 .22-18.77.37-41.8.37-23.03 0-41.93-.15-41.93-.37s18.76-.36 41.93-.36c23.17 0 41.8.16 41.8.36z" fill="#455A64"/><path d="M541.06 220.82l72.42 40.08-2.72 5.13-71.77-40.88 2.07-4.33zM537.5 217.01l3.32-5.08 1.96 1.19-3 5.14-2.28-1.25z" fill="#4B4AA1"/><path d="M605.26 254.56l3.71 2.16-12.14 77.35-5.72.09 14.15-79.6z" fill="#4B4AA1"/><path d="M574.41 342.15s8.8-8.94 20.66-8.28c3.38.13 6.7.92 9.77 2.33 3.08 1.42 5.84 3.42 8.14 5.9l-38.57.05zM537.56 252.1l-28.6-16.57 8.27-14.32c2.2-3.8 5.81-6.58 10.06-7.71 4.24-1.14 8.76-.55 12.56 1.64a16.56 16.56 0 014.85 4.28c1.32 1.73 2.29 3.7 2.85 5.81.55 2.1.69 4.3.39 6.45a16.46 16.46 0 01-2.11 6.12l-8.27 14.3z" fill="#4B4AA1"/></svg>