<svg xmlns="http://www.w3.org/2000/svg" viewBox="0 0 651 387"><defs/><symbol id="a" viewBox="0 0 311 178"><path fill="#4B4B9F" d="M32.046 166.123c0-2.088 54.712-3.783 122.198-3.783 67.49 0 122.199 1.695 122.199 3.783 0 2.092-54.709 3.783-122.199 3.783-67.486 0-122.198-1.691-122.198-3.783z"/><path fill="#F6957E" d="M219.743 164.339c-.681-1.812-1.086-4.529-1.948-8.195-.102-.431-.239-1.048-.405-1.797-1.12-.143-2.266.409-3.204.912.37.991.866 2.175.892 2.607.065 1.036-.249 1.135-.249 1.135.007 1.789.56 3.704.93 4.074.477.477 1.007 2.834 1.457 2.834.454 0 4.279.42 4.279.42.102-.878-1.071-.182-1.752-1.99zM200.154 163.309c-.201-.62-.397-3.333-.56-6.893-.999-.015-2.115-.355-3.174-.144.079.488.269 1.336.269 1.468 0 1.29-.628.81-.859 1.741-.152.616.446 1.789.446 1.789.882 0 1.256 3.144 1.684 4.059.249.53 1.377.78 2.667.78 1.002 0 .836-.261.091-1.548a6.704 6.704 0 01-.564-1.252z"/><path fill="#1C1B22" d="M196.9 161.704l.053 4.222-.469.011-.59-4.816 1.006.583z"/><path fill="#24272E" d="M196.59 158.426c.39 2.361 1.941 7.018 2.845 7.021 1.222.004 1.294-.06 1.286-.885.746 1.283 1.593 1.941.587 1.941-1.29 0-3.303.079-3.553-.45-.431-.916-.665-4.37-1.547-4.37l.272 4.256-.469.012s-.696-5.861-.541-6.443c.212-.806.87-.938 1.12-1.082zM220.22 165.182c.897.84 2.342.658 2.259 1.358 0 0-4.952-.212-5.406-.212-.454 0-.836-2.784-1.313-3.261-.477-.477-.182 3.261-.182 3.261h-.488s-.325-3.848-.779-5.342c-.36-1.192.151-1.691.518-1.99 1.487 2.841 1.646 6.852 5.391 6.186z"/><path fill="#4B4B9F" d="M289.941 146.944c-.306.652-.611 1.295-.915 1.929-.475.985-.944 1.951-1.407 2.898-.205.42-.411.832-.612 1.243a384.306 384.306 0 01-6.187 11.96 19.18 19.18 0 01-7.02 7.321 19.487 19.487 0 01-9.818 2.765l-40.015.43h-.422l-3.43.037-2.935.031-8.997.097h-.365l-4.58.049h-.14l-28.234.302-25.202.261-2.931.031-18.207.196h-.021l-11.808.125h-.127l-37.337.399-11.169.12a23.54 23.54 0 01-7.037-.996 22.837 22.837 0 01-10.315-6.45c-4.797-5.221-8.293-11.311-10.642-17.921-.339-.954-.656-1.92-.95-2.898-8.13-27.144 1.782-62.164 19.619-85.599a90.344 90.344 0 012.28-2.867l.018-.02c5.486-6.652 11.637-12.208 18.189-16.16 11.61-7.012 24.473-8.988 37.125-3.1 10.705 4.982 20.701 7.325 30.39 7.962.979.062 1.958.109 2.931.138 22.226.69 43.055-7.22 67.516-12.325.973-.203 1.95-.404 2.934-.595 17.449-3.43 36.807-5.238 59.826-1.436 2.392.386 4.752.944 7.061 1.668 1.015.324 1.993.671 2.934 1.043 10.988 4.415 16.98 12.572 19.526 22.794.241.949.45 1.914.626 2.896 4.515 24.587-8.708 59.463-20.152 83.672z" opacity=".1"/><path fill="#5A4596" d="M271.447 104.862V5.711h-97.309v99.151h97.309z"/><path fill="#EDEDF6" d="M269.577 7.582h-93.571v95.409h93.571V7.582z"/><path fill="#4B4B9F" d="M186.306 66.852h-4.574v17.306h4.574V66.853z"/><path fill="#AA97C8" d="M194.586 63.727h-4.574V84.16h4.574V63.727zM202.867 60.598h-4.575V84.16h4.575V60.598z"/><path fill="#4B4B9F" d="M211.151 57.469h-4.574v26.69h4.574v-26.69zM219.432 54.34h-4.575v29.817h4.575V54.34zM227.712 51.21h-4.574v32.946h4.574V51.211zM235.992 48.082h-4.574v36.073h4.574V48.082zM244.277 44.953h-4.574v39.2h4.574v-39.2zM252.557 41.828h-4.575v42.328h4.575V41.828zM260.837 38.7h-4.574v45.455h4.574V38.7zM265.445 16.8c-.406.072-11.326 2.022-11.723 2.022l3.729 1.013c-1.451.552-9.26 3.515-11.187 4.247-.586 2.558-1 4.37-1.326 5.81-1.777-.168-5.092-.478-7.964-.746l-10.527 9.479-8.249-1.05c-2.257 1.925-13.111 11.177-15.268 13.023l-7.12-2.406c-.798.556-14.645 10.169-15.464 10.738l.769 1.113 14.908-10.353c2.212.745 5.109 1.724 7.204 2.436 1.819-1.553 13.75-11.727 15.398-13.133 2.621.335 5.89.75 8.269 1.055.594-.536 10.164-9.148 10.548-9.5 1.476.138 6.363.594 8.554.8.368-1.603 1.254-5.491 1.438-6.286l10.615-4.867-.824 3.653 8.22-7.047z"/><path fill="#24272E" d="M208.023 60.005l1.362-.92s-3.553-5.84-3.186-10.873c.193-2.655-4.161-6.571-5.319-5.966-.072-.026-3.867.084-4.203 8.758l-.81 10.162 4.105 3.636s2.588-4.434 5.875-2.486c3.288 1.949 4.298 1.892 4.298 1.892s-2.122-3.265-2.122-4.203z"/><path fill="#411227" d="M205.212 59.3s-3.632-1.808-6.53.148l.276 2.16 2.993 6.368 2.86-.643 1.385-6.72-.984-1.312z"/><path fill="#565EA4" d="M188.857 125.76s13.147-5.134 25.363-.151l-5.615-48.187-10.748 2.421-9 45.917z"/><path fill="#010101" d="M93.844 122.516h-3.98v19.536h3.98v-19.536z"/><path fill="#51586D" d="M93.376 142.059h-3.042v13.597h3.042v-13.597z"/><path fill="#565EA4" d="M106.587 109.676c.197.031.794-1.982.828-2.224.095-.719-.072-1.343-.529-1.933-1.446-1.869-3.81-2.853-6.216-3.265-3.133-.534-6.606-.511-9.799-.609-5.444-.167-12.117-.382-16.566 3.004-2.157 1.641-1.65 2.939-.492 5.304-3.594.726-3.776 1.589-1.15 2.307 1.074.296 1.816 1.2 1.816 2.225v.28c0 6.072 5.383 10.998 12.023 10.998h7.827c6.64 0 12.023-4.922 12.023-10.998 0-1.093.833-2.024 1.998-2.27 1.759-.367 2.773-.798 2.773-1.256 0-.59-1.703-1.135-4.536-1.563zM91 120.826c-5.486 0-9.935-2.588-9.973-5.792h19.942c-.034 3.204-4.483 5.792-9.97 5.792z"/><path fill="#010101" d="M108.164 161.232c-.011-.685-.499-1.23-1.093-1.214l-13.211-5.043v-.784h-3.784v.685l-13.472 5.448c-.594 0-1.074.552-1.074 1.237v.628h4.453v-1.456l10.498-3.432h.693l.276 3.299h-.765c-.575 0-1.04.537-1.04 1.199v.39h4.884v-.39c0-.662-.465-1.199-1.04-1.199h-.799l.262-3.299h.283l10.461 3.189.023 1.457 4.453-.091-.008-.624z"/><path fill="#565EA4" d="M102.455 104.25c-3.794-1.464-8.164-1.332-12.212-1.298a882.28 882.28 0 00-3.253.031c-4.748.064-13.798.821-13.189 6.881l.012.087s2.368.795 4.184 2.414c1.816 1.619 2.512 5.97 2.53 6.038.122.507.477.961.879 1.324 2.175 1.986 5.8 2.596 8.792 2.577 2.07-.016 4.464-.106 6.405-.753 6-2.002 4.097-7.567 5.909-9.186 1.816-1.619 4.079-2.69 4.079-2.69s.733-3.549-4.136-5.425zM91 120.824c-5.486 0-9.935-2.587-9.973-5.792h19.942c-.034 3.205-4.483 5.792-9.97 5.792z"/><path fill="#010101" d="M164.119 124.93h-3.98v19.536h3.98V124.93z"/><path fill="#565EA4" d="M163.646 144.465h-3.042v13.597h3.042v-13.597z"/><path fill="#010101" d="M178.438 162.182c-.011-.541-.499-.973-1.093-.965l-13.211-3.999v-.62h-3.783v.544l-13.472 4.321c-.594 0-1.075.439-1.075.98v.499h4.453v-1.154l10.499-2.72h.692l.276 2.614h-.764c-.575 0-1.041.424-1.041.95v.31h4.885v-.31c0-.526-.466-.95-1.041-.95h-.798l.261-2.614h.284l10.46 2.527.023 1.154 4.453-.072-.008-.495z"/><path fill="#565EA4" d="M173.932 124.434c-.215-.719-.938-.397-1.479-.234l-.284.045c-.839-7.945-8.546-12.314-15.284-10.71-.692-3.636-2.414-6.333-8.656-6.799a29.07 29.07 0 00-5.588.102 1.644 1.644 0 00-1.445 1.691 1.637 1.637 0 001.699 1.574c-.057.004 4.04-.276 7.301.56 2.429.659 2.755 1.506 3.273 4.222.775 4.181.548 8.815 2.637 10.521 3.038 2.365 18.575 1.544 17.826-.972zm-15.791-1.593c.042.008.019 0 .042.019-.015-.007-.03-.011-.042-.019zm.076.035c-.647-2.437-.776-4.888-1.014-7.121 4.532-.737 9.352.89 11.83 4.972.125.264.901 1.225 1.597 3.647-3.723.121-10.291-.56-12.413-1.498z"/><path fill="#24272E" d="M82.919 76.984s-7.287 9.621-9.349 11.57c.708 1.358 3.326 2.402 3.89 3.836 3.333-1.2 5.073-4.703 5.625-5.974.7-1.608-.166-9.432-.166-9.432z"/><path fill="#3C1448" d="M84.693 76.165s9.992-.25 10.786 1.093c.795 1.343 2.89-2.115 1.18-3.825-1.71-1.71-8.761-11.792-8.761-11.792l-3.205 14.524z"/><path fill="#24272E" d="M88.68 76.164s-4.305.416-5.769.79c-.234.061.125 7.972.178 9.463.166 4.642 4.362 14.202 1.51 21.916-1.033 2.796 13.736 2.084 12.912-.057-.386-1.006-1.865-3.738-1.956-7.332-.106-4.078 1.222-9.136 1.555-11.569.654-4.8.185-11.141-.148-12.549-.004-.004-4.956-.662-8.281-.662z"/><path fill="#24272E" d="M82.908 76.953c-.103.155.007 2.001.007 1.971.011.197.549 9.87.59 8.872.814 5.383 3.984 13.393 1.09 20.531 2.433-8.989-1.68-16.135-1.778-22.457-.023-1.025-.072-2.576-.08-4.96.008-.533-.007-3.73.17-3.957z"/><path fill="#F6957E" d="M100.45 91.41c1.449 2.149 2.739 4.396 2.285 5.001-.858 1.135-6.034 1.87-6.942 1.99l-.741-.227c-.25 0-3.606-1.195-4.608-.85-.988.34-4.09 4.418-3.337 4.418.753 0 2.21-1.657 2.21-1.657s-.33 1.048.423 1.048c0 0 .424.953.893.953.469 0 1.41-.204 1.41-.204s2.021-1.022 3.338-1.022c.265 0 8.603 1.29 11.565-.915 1.441-1.07.481-6.065-1.509-11.066-1.782.439-3.345 1.532-4.987 2.53z"/><path fill="#F15F5C" d="M105.433 88.879c-1.778.439-3.341 1.532-4.983 2.53.329.489.647.98.942 1.457 1.26-.87 3.356-2.266 4.521-2.72-.151-.42-.314-.843-.48-1.267z"/><path fill="#24272E" d="M96.958 76.82s-.874 9.186.254 10.15c0 0 1.38 2.793 2.913 5.063 1.642-1.003 4.642-2.376 6.416-2.815-2.103-5.278-6.783-11.713-9.583-12.398zM84.784 107.562s-6.015 5.339-6.659 7.733c-.639 2.376-.84 6.315 2.38 6.315 1.51 0 4.828-.587 8.335-.333 3.972.283 8.133 1.358 9.227.333 2.054-1.926 3.866-4.676 3.866-7.249 0-2.576-4.619-6.795-4.619-6.795h-12.53v-.004z"/><path fill="#24272E" d="M97.306 107.562H84.784s-1.998 1.582-3.806 3.417c2.637-.882 6.284-1.43 11.27-1.022 3.454.284 6.205.772 8.384 1.347-1.37-1.956-3.326-3.742-3.326-3.742z"/><path fill="#F37575" d="M79.022 156.572c-.083 1.884-.893 4.044-.893 4.044-.064.152.934 2.289 1.642 2.247.976-.056 2.323-2.322 2.323-2.322s-.727-3.167.522-8.535c.14-.606.325-1.43.545-2.422-1.302-.605-2.562-1.29-3.924-1.49-.128 4.559-.192 7.922-.215 8.478z"/><path fill="#24272E" d="M86.997 113.795s-4.018-.93-5.675 2.887c-1.169 2.694-3 20.891-3.295 31.809 1.362.201 3.957.594 5.255 1.2 1.717-7.782 5.368-25.938 5.512-29.279.166-3.768-.09-6.549-1.797-6.617z"/><path fill="#8C2E60" d="M82.09 160.539s-.144 2.894-2.33 2.977c-1.54.057-1.828-2.194-1.635-2.901 0 0 1.816 2.58 3.965-.076z"/><path fill="#F37575" d="M87.81 157.573c-.51 1.823-.412 4.112-.412 4.112.015.163-1.608 1.93-2.274 1.695-.911-.321-1.494-2.86-1.494-2.86s1.683-2.83 2.172-8.304c.056-.617.136-1.46.238-2.467 1.434-.219 2.852-.526 4.218-.34-1.309 4.396-2.296 7.627-2.448 8.164z"/><path fill="#24272E" d="M93.576 114.487s4.132.219 4.521 4.324c.273 2.898-3.67 20.797-6.802 31.314-1.366-.185-3.889-.59-5.323-.371.79-7.91 2.913-26.206 3.817-29.441 1.018-3.643 2.134-6.231 3.787-5.826z"/><path fill="#8C2E60" d="M83.63 160.52s-.772 2.807 1.298 3.488c1.453.48 2.436-1.593 2.47-2.323 0 0-2.542 1.971-3.768-1.165z"/><path fill="#24272E" d="M83.974 65.059s.628 7.025-1.305 8.958c-1.933 1.934-2.21 1.88-2.879 1.695 0 0 .447 1.192 1.676 1.268.083.003.17.003.261 0 1.43-.088-.114 1.078-.859 1.339-.745.26 1.49.56 3.053.185 1.567-.374 6.848-.454 6.33-6.132-.511-5.675-6.277-7.313-6.277-7.313z"/><path fill="#F6957E" d="M88.136 72.622l-.56 6.409s2.33 1.154 5.232-.197L91.65 68.328l-3.514 4.294z"/><path fill="#F15F5C" d="M88.136 72.624l-.238 2.755c.261-.012.53-.084.806-.231 2.228-1.2 2.557-4.506 2.595-6.39l-3.163 3.866z"/><path fill="#F6957E" d="M84.118 61.588s-1.025.802-1.252 2.255c-.231 1.452.737 3.075.737 4.301 0 1.222 2.27 7.044 5.096 5.671 2.826-1.373 2.6-5.807 2.6-6.798 0-.991-1.374-4.43-3.057-5.232-1.68-.806-4.124-.197-4.124-.197z"/><path fill="#501F5E" d="M83.974 68.958c.09.212.28.33.424.265.144-.068.189-.291.102-.503-.09-.212-.28-.33-.424-.265-.147.064-.193.291-.102.503z"/><path fill="#42124A" d="M85.12 68.868c-1.237-1.18-1.604-.091-1.975.049.307-.034.625-.484.969-.443.284.03.715.257 1.006.394z"/><path fill="#501F5E" d="M84.928 68.324c.295.674.582 1.521.787 2.236a1.39 1.39 0 00.81-.242c-.326.37-.87.36-.901.367-.19-.579-.477-1.34-.696-2.36zM85.472 67.31s.11-.685.526-1.188c.42-.5 1.578-.571 1.578-.571s-1.094.265-1.362.613c-.265.344-.379.843-.379.843l-.363.303zM84.844 67.787s-.446-.416-.923-.488c-.477-.072-.957.567-.957.567s.564-.458.881-.393c.318.064.655.344.655.344l.344-.03z"/><path fill="#fff" d="M88.252 71.14c-.855.36-1.244.727-2.372.674.867.31 1.88-.042 2.373-.673z"/><path fill="#501F5E" d="M86.61 67.702c.08.276.303.454.5.397.197-.057.288-.33.208-.605-.08-.276-.302-.454-.5-.397-.196.056-.29.329-.207.605z"/><path fill="#42124A" d="M88.272 67.393c-1.714-.938-1.926.2-2.338.405.359-.087.643-.59 1.059-.61.34-.022.904.122 1.279.205z"/><path fill="#F15F5C" d="M84.118 61.587s-1.025.802-1.252 2.254c-.231 1.453.737 3.076.737 4.302 0 .068.023.253.023.253.972.314 2.391-5.1 2.406-7.029-1.051.004-1.914.22-1.914.22z" opacity=".53"/><path fill="#24272E" d="M83.569 62.317c-.023-.08.893-2.558 3.147-2.925 2.698-.438 5.883 1.567 6.856 4.287.972 2.72 1.853 5.826 4.517 6.598 2.663.772 3.151 4.699 2.319 7.162-.832 2.462-3.382 1.834-3.382 1.834s1.562-1.362 1.146-1.778c0 0-1.192 2.308-2.535 1.85-1.347-.458-1.891-1.207-1.891-1.207s2.323-.355.794-1.645c-1.063-.897-1.604-1.718-2.868-3.239-1.206-1.453-.575-5.342-1.623-8.134-.132.11-.336.212-.662.246-1.426.148-.775-.893-2.133-2.448-2.327-1.305-3.53-.597-3.685-.601z"/><path fill="#501F5E" d="M83.93 61.73c-2.263.572-3.156 2.785-2.025 4.487.193.288.454.56.794.587v-.488c-.128.022-.37-.242-.446-.344-1.131-1.442-.431-3.534 1.676-4.241z"/><path fill="#24272E" d="M85.593 60.188s-1.589.007-2.762 1.176c-1.172 1.173-.82 5.792 0 6.48.821.686-2.088 1.336-.348 1.336 1.74 0 4.665-8.83 3.11-8.993z"/><path fill="#562367" d="M92.929 65.398c-.367 1.052-.628 2.433-.579 3.508.174 3.435 3.821 1.641 4.831 1.713.625.027 1.154.598.927 1.374-.181.639-.598.832-.81 1.085-.325.398-.154.855.224 1.045.753.378 1.68-.477 1.982.54.227.708.008 1.556-.552 2.108.64-.47.96-1.35.787-2.168-.186-.84-.764-.798-1.566-.738-.496.034-.678-.204-.636-.36.03-.298.719-.411 1.018-1.376a1.495 1.495 0 00-.674-1.801c-1.672-.965-5.398 2.508-5.24-2.6.016-.782.137-1.558.288-2.33z"/><path fill="#F37575" d="M89.816 66.124s-.056-1.324.632-1.21c.689.113 1.173 1.013.836 1.895-.333.877-1.562.488-1.468-.685z"/><path fill="#F15F5C" d="M90.084 66.329s-.094-.81.208-.885c.303-.076.62.56.553.98-.06.416-.715.39-.76-.095zM106.209 98.57s-1.34 1.324-.598 1.529c.745.204 1.456-.318 1.456-.765 0-.446-.098-1.082-.858-.764z"/><path fill="#464B80" d="M105.913 73.268a.15.15 0 01-.151-.148c0-7.453-7.612-9.291-7.692-9.31a.153.153 0 01-.113-.178.153.153 0 01.178-.114c.08.02 7.922 1.907 7.922 9.598a.142.142 0 01-.144.152z"/><path fill="#464B80" d="M104.396 76.311c-.011 0-.019 0-.03-.004a.15.15 0 01-.118-.174c1.275-6.537-3.454-7.732-3.503-7.744a.148.148 0 01.068-.287c.049.011 5.055 1.275 3.727 8.092a.15.15 0 01-.144.117z"/><path fill="#24272E" d="M213.18 125.485c-.125-.544-3.643-30.307-4.956-41.29l-7.094-.246-3.919 16.238 9.326 29.399c-.318 2.717-.197 4.907.665 8.622.712 3.065 3.621 13.31 5.365 17.993.938-.503 3.81-1.505 4.827-1.857-3.968-24.576-2.882-23.112-4.214-28.859z"/><path fill="#24272E" d="M200.597 128.528l5.939-33.372-.715-11.425h-5.811s-5.822 6.291-7.131 14.262c-1.309 7.972 1.12 30.678 1.12 30.678s-.254 2.853-.836 5.301c-.609 2.557.469 18.587 1.161 22.816 1.056-.211 4.279-.382 5.274-.367-.382-8.508-.537-21.874.038-23.263.378-.919.711-2.837.961-4.63z"/><path fill="#391625" d="M208.428 85.38l-9.613-.208 1.195-1.441h8.418v1.649z"/><path fill="#F6957E" d="M220.742 60.439c.136-.882.076-1.495-.196-1.767-.273-.272-.14-.435-.398-.692-.257-.258-.855-.023-.93-.696-.076-.67.106-4.51-.367-4.42-.473.092-.526 5.172-.715 5.362-.19.189-.534.397-.655-.398-.121-.79.488-1.172.242-1.415-.242-.242-.946.58-1.006.87 0 0-.609 2.623 0 4.39.473 1.369.707 2.542.772 3.658.09 2.572-.254 5.21-1.044 9.227-.175.893-.977.666-1.453.4l-2.176 3.372c1.517 1.808 3.542 2.833 4.506 2.716 2.471-.303 2.149-15.352 2.149-15.352l-.015-.363a161.28 161.28 0 01-.064-1.862c.007-.67 1.21-2.149 1.35-3.03z"/><path fill="#F37575" d="M219.951 57.87s-2.258 2.206-1.827 2.641c.435.435 2.247-1.91 2.247-1.91s-2.012 2.05-1.657 2.406c.356.355 2.096-1.377 2.096-1.377s-1.835 1.577-1.506 1.759c.33.181 1.506-1.078 1.506-1.078s.167-.47.106-.757c-.064-.284.042-.401-.011-.579-.053-.174-.276-.439-.375-.54-.098-.096-.136-.727-.579-.565z"/><path fill="#4B4B9F" d="M214.806 74.453c.186-.458.454-1.003-.124-1.407-.787-.55-.761-.152-.761-1.37 0-1.139-.306-1.305-1.18-1.585-.03-.102-.064-.208-.095-.31-1.097-3.75-4.453-9.447-5.497-9.894-1.044-.446-1.313 2.395-1.313 2.395s6.727 17.047 6.98 17.346l2.176-4.668-.167-.488a.04.04 0 00-.019-.02z"/><path fill="#7F72A4" d="M206.877 60.006s-2.134-1.653-9.322-.144c-.352.076-.886 8.342-.886 8.342s2.395 12.927 1.718 16.351c0 0 5.058 4.2 11.043 1.275 0 0-.741-10.778-.189-13.173.552-2.399 1.642-4.57.114-7.067-1.529-2.497-2.478-5.584-2.478-5.584z"/><path fill="#F15F5C" d="M209.949 85.201s-.148.262-.39.504c-.242.242-2.292.923-2.292.923l1.222-.712s1.46-.919 1.46-.715z"/><path fill="#363A68" d="M261.397 68.719s-1.113 6.507-4.597 10.892c-2.607 3.276-8.058 6.927-8.058 6.927l3.087 3.314 8.516-6.882 1.052-14.251z"/><path fill="#271010" d="M266.061 62.633h6.829l-.223 21.984-9.065.602 2.459-22.586zM258.407 167.98c-3.847 0-3.752 1.547-3.752 1.547h11.258s-.559-4.759-.647-5.882h-2.644c-.291 1.377-1.26 4.335-4.215 4.335zM277.226 168.548c-3.504 0-4.219-4.158-4.321-4.903h-2.531v.363c0 .514-.658 6.087-.658 6.087h11.259s.098-1.547-3.749-1.547z"/><path fill="#4B4B9F" d="M276.223 138.617l3.594-29.759-1.014-8.807h-19.786l-.14 7.759-2.077 30.24s5.16 25.177 5.073 25.593h3.734c-.007-.091-1.055-27.606-1.055-27.606l4.267-24.512 1.669 25.726s-.757 23.192-.772 26.388h3.514c-.003-.068 2.993-25.022 2.993-25.022z"/><path fill="#101010" d="M278.936 101.208l-.133-1.157h-19.786l-.019 1.014 4.154 1.384a17.732 17.732 0 0010.415.261l5.369-1.502z"/><path fill="#24272E" d="M280.173 68.477c-2.153-2.365-7.132-6.144-12.621-5.232l-5.736 2.493-1.687 12.117-1.509 23.082 20.448.231 1.945-22.469c.007.004 1.312-7.854-.84-10.222z"/><path fill="#F6957E" d="M266.856 57.806s-.061 4.737-.522 7.147c-.178.934.257 1.888 1.067 2.232.597.254 1.388.401 2.376.22 2.572-.48 2.659-3.31 2.659-3.31l-.866-8.634-4.714 2.346z"/><path fill="#F15F5C" d="M271.574 55.457l-4.714 2.35s-.023 1.747-.144 3.662c1.229.06 2.777-.625 4.419-2.683.246-.306.473-.609.684-.912l-.245-2.417z"/><path fill="#F6957E" d="M267.162 45.667s-1.615 1.343-2.312 3.598c-.696 2.254-1.308 3.885-1.308 3.885l.741.48s-.59 3.148-.132 4.223c.696 1.63 3.643 2.95 6.98-.72 3.336-3.669 3.62-6.907 3.053-8.493-.564-1.581-5.713-3.787-7.022-2.973z"/><path fill="#131840" d="M272.179 49.179s-1.483-1.343-3.621-.768c-2.137.575-2.856-.31-2.444-.768 0 0-1.876.049-2.572-1.63-.696-1.68-.522-6.765 2.792-5.808 3.314.96 2.644 3.261 2.644 3.261s1.063-1.105 2.066-.53c1.002.575.874 1.393.874 1.393s.915 1.872 2.179 2.11c1.263.239 1.135 3.023 1.135 3.023s.741.575.219 2.592c-.522 2.016-3.609 5.1-3.609 6.06 0 0-.753-1.214-.14-3.181.609-1.967.609-3.117-.045-3.117-.655.003.522-2.637.522-2.637z"/><path fill="#F6957E" d="M271.237 53.122s.212-1.657.689-1.657c.473 0 .915.181.802 1.116-.114.934-.605 1.978-1.226 1.547-.624-.431-.265-1.006-.265-1.006z"/><path fill="#131840" d="M276.81 49.398a.604.604 0 00-.292-.356c-.442-.208-1.036.239-1.426.549l-.064-.087c.265-.299.541-.598.93-.787.576-.265 1.09.004 1.306.51l-.454.17z"/><path fill="#131840" d="M276.863 51.507a2.05 2.05 0 00-.015-.768c-.284-1.244-1.661-1.135-1.729-1.172v-.076c.037.015 1.993-.401 2.273 1.608.027.174.038.321.023.533l-.552-.125z"/><path fill="#304B9E" d="M266.784 50.667c0 .409-.163.738-.367.738-.201 0-.367-.329-.367-.738 0-.408.162-.737.367-.737.204 0 .367.333.367.737zM267.605 49.94c-.809-.727-1.683-.254-1.691-.25l-.136-.53a1.64 1.64 0 011.884.291l-.057.488z"/><path fill="#565EA4" d="M265.38 63.469l-1.524 44.805h-9.485l2.796-20.35 1.835-12.372s.889-8.319 2.822-9.806c1.93-1.49 3.556-2.277 3.556-2.277z"/><path fill="#F15F5C" d="M271.55 52.453s.276-.56.526-.48c.246.079.303 1.206-.136 1.683-.443.473-.813-.303-.39-1.203z"/><path fill="#565EA4" d="M272.992 63.223l-.999 45.047h10.158s.382-35.706-.741-39.437c-1.124-3.73-8.418-5.61-8.418-5.61z"/><path fill="#787EB5" d="M261.692 65.133l4.37-2.5-1.408 22.166-2.402-12.53.847-.568-1.407-6.567zM272.508 85.105l.382-22.472 3.893 1.732-2.123 7.321.541.409-2.693 13.01z"/><path fill="#1E3440" d="M254.655 91.242L240.57 80.698l14.917-1.354 11.278 11.898h-12.11z"/><path fill="#F6957E" d="M262.497 86.766s1.529.34 2.096.95c.723.771 2.437 2.03 3.155 2.03.719 0 3.787.3 3.787.3l.515 3.374s-11.441-2.621-11.982-3.197c-.537-.575 2.683.428 2.683.17 0-.257-3.882-.544-3.681-1.195.2-.647 3.582.874 3.881.553.299-.322-4.082-.86-4.082-1.544 0-.685 4.362.991 4.362.991s.08-.348-1.101-.904c-1.18-.556-2.323-1.006-2.062-1.286.261-.28 3.28 1.494 3.678 1.07l-1.249-1.312z"/><path fill="#787EB5" d="M278.614 67.964s-1.664 3.041-1.332 7.422c.333 4.382.901 11.1-.034 13.291-.93 2.19-7.751 0-7.751 0v5.187s9.889 4.018 12.753 2.701c2.864-1.313 2.591-12.636 2.591-18.186 0-5.55-4.403-14.399-6.227-10.415z"/><path fill="#24272E" d="M278.614 67.96c-.821 1.764-1.362 4.374-1.188 7.083.307 4.078 1.279 12.931-.499 14.278-1.714 1.052-5.584.004-7.43-.647 1.808.48 6.934 1.661 7.596-.08.568-1.391.477-4.759.424-6.257-.204-6.47-.999-8.754.367-12.704.201-.575.431-1.139.73-1.672z"/><path fill="#2B3378" d="M264.93 56.229l.133.813c1.653-.185 2.47-1.585 2.47-1.585-.98.98-2.603.772-2.603.772z"/><path fill="#F6957E" d="M250.508 86.632s-.2.242-.514.987c-.307.722.544 1.464.711 1.62a8 8 0 001.245.903c.355.205.582.307.927.382.503.11 1.63-1.683 1.475-1.853-.106-.114-.231-.205-.348-.17-.125.037-1.377 1.017-1.377 1.017s1.131-1.411 1.002-1.831c-.128-.42-.37-.367-.469-.261-.098.106-1.536 1.43-1.536 1.43s.969-1.683.886-1.96c-.084-.272-.477-.465-.92.212-.249.382-.904 1.003-.904 1.003s.545-1.271.42-1.684c-.121-.412-.598.204-.598.204z"/><path fill="#856E76" d="M176.006 111.469h-2.248v51.478h2.248v-51.478zM182.891 111.855h-2.247v53.673h2.247v-53.673z"/><path fill="#1F160C" d="M57.772 110.508h128.63v2.648H57.772"/><path fill="#464B80" d="M69.294 106.223h24.55V85.347h-24.55v20.876z"/><path fill="#24272E" d="M72.437 102.371H87.96V90.367H72.437v12.004z"/><path fill="#565EA4" d="M74.805 99.457h6.764v-6.764h-6.764v6.764z"/><path fill="#565EA4" d="M76.349 109.898h2.417V97.913H76.35v11.985z"/><path fill="#565EA4" d="M74.415 110.469h15.66v-1.442h-15.66v1.442zM81.569 92.691v6.765h-2.804v9.568h.288v-9.398h2.814v-6.935h-.299zM126.431 106.223h24.549V85.347h-24.549v20.876z"/><path fill="#3D415E" d="M129.574 102.371h15.522V90.367h-15.522v12.004z"/><path fill="#252744" d="M131.942 99.457h6.765v-6.764h-6.765v6.764zM131.551 110.469h15.659v-1.442h-15.659v1.442z"/><path fill="#5A5F7B" d="M138.706 92.691v6.765h-2.803v9.568h.284v-9.398h2.814v-6.935h-.295z"/><path fill="#252744" d="M135.904 99.457h-2.63v9.912h2.63v-9.912z"/><path fill="#565EA4" d="M198.682 59.453s4.752 46.893-.269 60.536c-2.928 7.956-5.799 8.595-7.683 7.748-1.377-.621-2.195-2.055-2.18-3.564.05-5.187.492-21.932 3.939-33.58 4.184-14.134 2.141-15.89 2.141-18.228 0-4.048.628-9.923 1.582-12.227.132-.325 2.47-.685 2.47-.685z"/><path fill="#565EA4" d="M201.614 59.006c.806-.015 1.698.193 3.204.36.14.014.246-.076.397-.061-1.551-1.483-7.43-2.27-7.77.25-2.316 17.187 3.352 49.386.968 60.433 5.467-11.089 4.336-41.219 1.109-58.463-.284-1.51.559-2.493 2.092-2.52z"/><path fill="#565EA4" d="M205.212 59.3c3.306 3.739 4.668 64.879 9.004 66.306 0 0-.242-17.861-.242-22.352 0-4.49-1.971-34.185-2.913-36.678-.942-2.493-3.908-6.693-3.908-6.693l-1.941-.582z"/><path fill="#565EA4" d="M205.212 59.3c-.148-.128-.537-.28-.503-.2 1.895 4.044 2.792 40.829 7.256 59.696-.602-7.843-2.943-55.538-6.753-59.495z"/><path fill="#F37575" d="M204.13 88.502l.276-.197s1.15.012 1.634-.227c.485-.238 1.075-.23.855 0-.219.231-1.309.477-1.093 1.07.22.591-1.672-.646-1.672-.646z"/><path fill="#F6957E" d="M208.262 88.823c-.205.129-.644.178-1.101.337-.454.155 2.058-.95 2.058-1.317 0-.363-2.104.753-2.717 1.01-.696.296-1.804-.219-2.096-.548 0 0-8.671-2.91-10.975-4.54-.208-.147-.738-.897-.677-1.46-1.479.132-2.936.446-4.256 1.154.015.908-.242 2.016 0 2.466 1.502 2.77 11.293 3.806 13.347 3.806 2.058 0 4.075.492 4.646.492.571 0 3.235-1.457 3.31-2.138.08-.646-1.271.572-1.539.738z"/><path fill="#4B4B9F" d="M193.707 74.74c1.502-1.694 2.024-6.208 2.024-9.378s-.495-5.229-.495-5.229-3.337-.132-5.195 3.44c-1.948 3.745-4.589 7.6-2.088 19.65 1.32-.708 3.322-.787 4.801-.92.34-3.038-.314-6.132.953-7.563z"/><path fill="#565EA4" d="M187.696 82.37s-.303.962 0 1.276c.298.314-.065 1.033.132 1.434.2.4 3.469-.643 5.017-1.086 1.547-.439.586-.972.401-1.547-.186-.572.026-.87-.33-1.241-.355-.371-4.948.113-5.22 1.165z"/><path fill="#DEADC3" d="M188.092 83.759c1.177-.473 3.398-1.237 4.646-1.056.197.03.148.344-.049.303-.03 0-.647-.2-2.308.14-.768.155-1.532.367-2.289.613z"/><path fill="#F6957E" d="M204.085 53.345c.166.166-.503 4.944.159 6.268 0 0 1.74 6.833.56 6.973-1.029.125-4.885-5.845-5.089-6.791-.276-1.267-.03-7.385-.03-7.385l4.4.935z"/><path fill="#F15F5C" d="M204.016 55.322c-1.574 1.422-3.193.435-4.385-1.347.027-.9.008-1.805.008-1.854l4.445 1.226c.068.064-.004.912-.068 1.975z"/><path fill="#F6957E" d="M203.59 42.605s1.99.379 2.228 2.085c.238 1.706.567 3.129.238 5.119-.333 1.99-1.517 4.646-3.461 5.073-1.945.428-3.98-2.796-3.98-4.551 0-1.752-.712-4.692.616-6.492 1.324-1.805 4.359-1.234 4.359-1.234z"/><path fill="#fff" d="M201.342 51.785c1.048.458 2.599.47 2.599.47s-.11.211-.299.442c-.454-.023-1.339-.106-2.073-.367-.152-.295-.227-.545-.227-.545z"/><path fill="#2C1229" d="M201.568 52.328c.731.261 1.62.34 2.074.367-.742.882-1.529.67-2.074-.367z"/><path fill="#F15F5C" d="M203.714 41.885s1.865 1.101 2.104 2.808c.215 1.547.507 2.86.314 4.574-.318-.22-.765-.44-1.4-.647-1.756-.58-3.579-3.13-3.795-5.278-.238-2.3 2.777-1.457 2.777-1.457z"/><path fill="#252C64" d="M203.608 50.638a15.989 15.989 0 01-.084-1.638c.122.696.152 1.203.19 1.706-.292.08-.636.242-1.075.076.337.064.666-.03.969-.144zM202.53 48.947a1.081 1.081 0 00-.734-.712c-.651-.17-1.048.769-1.494.757.321.163.832-.382 1.184-.522.193-.076.359-.023.548.064.186.095.352.242.496.413z"/><path fill="#252C64" d="M201.353 48.668c0 .197.14.36.318.36.174 0 .318-.16.318-.36 0-.197-.14-.36-.318-.36-.174 0-.318.16-.318.36zM203.975 49.152c.113-.31.393-.598.764-.677.658-.14 1.01.813 1.456.825-.325.147-.813-.42-1.161-.575-.185-.087-.36-.042-.549.041a1.687 1.687 0 00-.51.386z"/><path fill="#252C64" d="M205.163 48.926c-.008.196-.159.352-.333.344-.174-.008-.31-.174-.299-.37.008-.197.159-.353.333-.345.174.004.31.17.299.37zM202.76 47.431c.072-.045-.495-.617-1.176-.681-.681-.064-1.415.681-1.415.681s1.002-.598 1.426-.405c.42.193.772.658 1.165.405z"/><path fill="#24272E" d="M201.83 41.16c-1.453.167-3.749-.188-4.82 2.18-.632 1.343-1.929 3.938-1.929 8.546 0 6.863-6.621 9.905-6.621 9.905l2.902 1.404 1.732-1.404-1.18 2.52 4.759.476.205-3.287.983 3.737 2.225-.45s-.878-11.232-.972-15.477l.022.026s-.019-.544-.019-1.248v-.004a6.64 6.64 0 00.004-.632c.011-.673.049-1.384.136-1.86.212-1.162.64-1.756 1.684-2.252 1.044-.496 4.778.92 4.778.92-.136-2.16-2.436-3.265-3.889-3.1z"/><path fill="#24272E" d="M203.774 41.55c1.824.4 2.376 3.212 3.871 4.702 1.494 1.494 1.112 3.65.404 5.073-.711 1.423-1.85.5-1.85.5s.594.333.973-.855c.378-1.184-.284-2.107-2.3-2.773-2.013-.662-3.935-4.858-3.935-4.858-.053-.82 1.01-2.194 2.837-1.79z"/><path fill="#043135" d="M206.196 51.822c.692.404 1.668-1.29.957-2.399-.518-.855-1.653-1.214-2.561-1.593-1.438-.824-2.819-3.102-3.655-4.494.605 1.66 1.895 3.965 3.447 4.884l.374.163c.382.155 1.551.469 2.115 1.23.454.597.238 1.524-.064 1.959-.133.19-.367.34-.613.25z"/><path fill="#F6957E" d="M199.514 49.549s-.507-2.202-1.35-1.669c-.844.53.06 2.966.847 2.966.787 0 .503-1.297.503-1.297z"/><path fill="#F15F5C" d="M198.694 48.34s1.248 2.002.393 1.778c-.855-.22-1.195-2.149-.393-1.778z"/><path fill="#F15F5D" d="M116.87 104.883l.499.185 1.021-2.777a1.697 1.697 0 01-.457-.299l-1.063 2.891z"/><path fill="#A0D3A1" d="M117.202 98.758h-1.199v5.989h1.199v-5.99z"/><path fill="#15467A" d="M117.202 98.758h-1.199v3.121h1.199v-3.121z"/><path fill="#BE202E" d="M116.291 104.774l-.783.144-1.192-6.477V96.75l.787 1.547 1.188 6.477z"/><path fill="#4B4B9F" d="M118.58 103.98h-3.59v6.485h3.59v-6.485z"/><path fill="#15467A" d="M116.839 99.973h-.314v3.374h.314v-3.374z"/><path fill="#5B1432" d="M118.833 99.543l-.061.163c-1.055-.447-.518 1.415-.696 1.517-.098.102-.117.041-.094.075-.106-.121-.288.042-.182.163.072.076.178.106.303.057l-.174.469c.132.117.28.223.458.299l.942-2.561-.496-.182zm-.208.208a.494.494 0 01.129.004l-.364.987c-.03-.458-.125-.953.235-.991z"/><path fill="#243762" d="M115.885 39.623h-36.47c-1.054 0-1.91-.684-1.91-1.521V13.884c0-.837.856-1.52 1.91-1.52h36.47c1.055 0 1.91.683 1.91 1.52v24.218c.005.837-.855 1.52-1.91 1.52zm-36.47-26.807c-.805 0-1.457.48-1.457 1.068v24.218c0 .588.657 1.068 1.458 1.068h36.469c.806 0 1.458-.48 1.458-1.068V13.884c0-.588-.657-1.068-1.458-1.068h-36.47z"/><path fill="#DCD1E6" d="M102.346 28.424a4.657 4.657 0 10-9.034-2.266 4.657 4.657 0 009.034 2.266z"/><path fill="#243762" d="M97.832 33.915a6.627 6.627 0 01-6.622-6.622 6.627 6.627 0 016.622-6.621 6.627 6.627 0 016.621 6.621 6.63 6.63 0 01-6.621 6.622zm0-12.79a6.173 6.173 0 00-6.169 6.168 6.173 6.173 0 006.169 6.169A6.174 6.174 0 00104 27.293a6.18 6.18 0 00-6.17-6.168z"/><path fill="#243762" d="M97.298 29.126l-2.182-3.019a.23.23 0 01.05-.317.23.23 0 01.317.05l1.869 2.589 8.228-8.228c.09-.09.231-.09.321 0 .091.09.091.23 0 .321l-8.603 8.604zM117.334 17.297H77.732v.453h39.602v-.453zM80.606 16.131a.853.853 0 01-.851-.85c0-.471.385-.851.85-.851.471 0 .852.384.852.85.004.471-.38.851-.851.851zm0-1.253a.399.399 0 10.001.797.399.399 0 00-.001-.797zM82.955 16.131a.85.85 0 11.85-.85c.005.47-.38.85-.85.85zm0-1.253a.399.399 0 00-.398.398.399.399 0 10.398-.398zM85.263 16.131a.853.853 0 01-.85-.85c0-.471.384-.851.85-.851a.85.85 0 110 1.702zm0-1.253a.399.399 0 00-.398.398.399.399 0 10.398-.398z"/><path fill="#565EA4" d="M106.472 30.89h30.129c.53 0 .96.43.96.96v22.104c0 .937-.761 1.698-1.698 1.698h-11.622a.471.471 0 00-.353.154l-9.663 10.228c-.312.33-.842.095-.842-.371v-9.486c0-.29-.221-.52-.493-.52h-6.413c-.869 0-1.575-.748-1.575-1.67V32.56c-.005-.92.701-1.67 1.57-1.67z"/><path fill="#243762" d="M113.605 56.176h-.453c0-.163-.122-.294-.267-.294h-6.413c-.995 0-1.801-.85-1.801-1.896V32.56c0-1.045.81-1.896 1.801-1.896h23.919v.453h-23.919c-.747 0-1.349.647-1.349 1.443v21.421c0 .797.607 1.444 1.349 1.444h6.413a.74.74 0 01.72.751z"/><path fill="#fff" d="M133.03 38.309h-22.457a.172.172 0 110-.344h22.457c.095 0 .172.077.172.172a.17.17 0 01-.172.172zM133.03 43.356h-10.102a.172.172 0 110-.344h10.102a.172.172 0 110 .344zM120.987 43.356h-10.102a.172.172 0 110-.344h10.102c.095 0 .172.077.172.172a.177.177 0 01-.172.172zM126.816 47.922h-15.121a.172.172 0 110-.344h15.121c.095 0 .172.077.172.172a.177.177 0 01-.172.172z"/><path fill="#DCD1E6" d="M142.171 33.744a5.223 5.223 0 10-10.163-2.412 5.223 5.223 0 0010.163 2.412z"/><path fill="#243762" d="M137.153 39.57a.224.224 0 01-.226-.227c0-.127.1-.226.226-.226a6.645 6.645 0 006.635-6.635 6.644 6.644 0 00-6.635-6.635c-3.656 0-6.634 2.978-6.634 6.635 0 .127-.1.226-.227.226a.224.224 0 01-.226-.226c0-3.91 3.182-7.087 7.087-7.087 3.911 0 7.088 3.181 7.088 7.087a7.095 7.095 0 01-7.088 7.087z"/><path fill="#fff" d="M137.013 35.385a.684.684 0 01-.493-.18.576.576 0 01-.195-.44c0-.18.068-.326.199-.443a.731.731 0 01.494-.172c.199 0 .362.059.493.176.127.118.19.263.19.44 0 .18-.063.33-.19.447a.73.73 0 01-.498.172zm.598-4.951l-.109 2.71a.499.499 0 01-.996 0l-.099-2.71a.5.5 0 01.498-.516h.208c.28 0 .507.235.498.516z"/><path fill="#DCD1E6" stroke="#BEC8D2" stroke-miterlimit="10" d="M54.187 43.752a24.823 24.823 0 001.93-3.986 2.125 2.125 0 012.03-1.364l4.009.054a2.153 2.153 0 002.186-2.11l.136-9.693a2.152 2.152 0 00-2.126-2.17l-4.015-.055a2.137 2.137 0 01-1.997-1.425 24.766 24.766 0 00-4.326-7.689 2.105 2.105 0 01-.176-2.426l2.051-3.421a2.129 2.129 0 00-.751-2.93l-8.389-4.961a2.162 2.162 0 00-2.952.746l-2.05 3.421a2.147 2.147 0 01-2.235 1.008 25.063 25.063 0 00-8.87-.114 2.13 2.13 0 01-2.206-1.062l-1.963-3.482a2.163 2.163 0 00-2.932-.82l-8.524 4.732a2.131 2.131 0 00-.826 2.91l1.957 3.475a2.11 2.11 0 01-.244 2.427 24.63 24.63 0 00-2.613 3.582 25.106 25.106 0 00-1.93 3.986 2.125 2.125 0 01-2.03 1.364l-4.009-.053a2.153 2.153 0 00-2.186 2.11L1 35.498a2.152 2.152 0 002.126 2.171l4.015.054c.9.014 1.706.578 1.997 1.425a24.766 24.766 0 004.326 7.69c.569.685.636 1.66.176 2.426l-2.051 3.42a2.129 2.129 0 00.751 2.931l8.389 4.96a2.162 2.162 0 002.951-.745l2.052-3.422a2.148 2.148 0 012.234-1.008c2.952.572 5.958.599 8.869.115a2.13 2.13 0 012.207 1.062l1.963 3.481a2.163 2.163 0 002.932.82l8.524-4.732a2.131 2.131 0 00.825-2.91l-1.956-3.475a2.11 2.11 0 01.244-2.426 24.503 24.503 0 002.613-3.583zm-26.77-.41c-8.13-3.522-10.696-13.597-5.246-20.54 3.716-4.732 10.358-6.399 15.896-4 8.131 3.523 10.697 13.598 5.247 20.541-3.724 4.732-10.358 6.405-15.896 4z"/></symbol><use width="100%" height="100%" href="#a"/></svg>