<svg xmlns="http://www.w3.org/2000/svg" width="651" height="387" data-name="Layer 1"><defs><path id="svg_619" d="M383.553 62.84h-61.43v2.2h61.43z" class="cls-12"/><path id="svg_478" d="M364.923 91.26h-10.77v10.78h10.77z" class="cls-7"/><path id="svg_297" d="M156.863 70.15h-61.41v2.2h61.41z" class="cls-12"/><path id="svg_156" d="M138.253 98.57h-10.77v10.77h10.77z" class="cls-7"/></defs><rect id="backgroundrect" width="100%" height="100%" x="0" y="0" fill="none" stroke="none"/><defs><linearGradient id="linear-gradient" x1="703.08" x2="699.29" y1="435.06" y2="413.3" gradientTransform="matrix(1 0 0 -1 0 1082)" gradientUnits="userSpaceOnUse"><stop offset="0" stop-color="#291b51"/><stop offset="1" stop-color="#362563"/></linearGradient><linearGradient id="linear-gradient-2" x1="382.51" x2="344.91" y1="534.3" y2="465.04" gradientTransform="matrix(1 0 0 -1 0 1082)" gradientUnits="userSpaceOnUse"><stop offset="0" stop-color="#e9b4cf"/><stop offset="1" stop-color="#7651a1"/></linearGradient><linearGradient id="linear-gradient-3" x1="667.22" x2="689.69" y1="426.15" y2="426.15" href="#linear-gradient"/><style>.cls-11{fill:#fff}.cls-2{stroke-miterlimit:10;fill:#ddd1e6;stroke:#bec8d2}.cls-3{fill:#ebebeb}.cls-4{fill:#e0e1e0}.cls-5{fill:#fafbfc}.cls-13,.cls-6{fill:#4b4ca0}.cls-7,.cls-9{fill:#4c4ca0}.cls-13,.cls-8,.cls-9{opacity:.8}.cls-13,.cls-9{isolation:isolate}.cls-10{fill:#8f61a9}.cls-12{fill:#9c71b1}.cls-17{fill:#24282f}.cls-18{fill:#111840}.cls-23{fill:#f6967f}.cls-24{fill:#d9dae8}.cls-26{fill:#8d3061}.cls-27{fill:#ebc6c8}.cls-29{fill:#f1605c}.cls-31{fill:#2e192b}.cls-33{fill:#5a327d}.cls-35{fill:#252d64}.cls-36{fill:#dfe4e0}.cls-38{fill:#0d182e}</style></defs><g class="currentLayer"><path id="svg_2" d="M112.773 82.48a16.94 16.94 0 001.37-2.85 1.5 1.5 0 011.44-1h2.84a1.53 1.53 0 001.55-1.51l.1-6.93a1.52 1.52 0 00-1.51-1.55h-2.84a1.53 1.53 0 01-1.42-1 17.78 17.78 0 00-3.07-5.5 1.51 1.51 0 01-.12-1.73l1.45-2.45a1.51 1.51 0 00-.53-2.09l-5.95-3.55a1.53 1.53 0 00-2.09.53l-1.45 2.45a1.52 1.52 0 01-1.59.72 17.45 17.45 0 00-6.28-.08 1.51 1.51 0 01-1.57-.76l-1.39-2.49a1.52 1.52 0 00-2.08-.58l-6 3.38a1.53 1.53 0 00-.59 2.08l1.39 2.48a1.53 1.53 0 01-.17 1.74 17.81 17.81 0 00-3.22 5.41 1.5 1.5 0 01-1.44 1h-2.84a1.53 1.53 0 00-1.55 1.51l-.1 6.93a1.52 1.52 0 001.51 1.55h2.84a1.53 1.53 0 011.42 1 17.78 17.78 0 003.07 5.5 1.51 1.51 0 01.12 1.73l-1.45 2.45a1.51 1.51 0 00.53 2.09l5.95 3.55a1.53 1.53 0 002.09-.53l1.45-2.45a1.52 1.52 0 011.59-.72 17.45 17.45 0 006.28.08 1.51 1.51 0 011.57.76l1.39 2.49a1.52 1.52 0 002.08.58l6-3.38a1.53 1.53 0 00.59-2.08l-1.39-2.48a1.53 1.53 0 01.17-1.74 17 17 0 001.85-2.56zm-19-.29a9.55 9.55 0 1111.27-2.86 9.55 9.55 0 01-11.24 2.86z" class="cls-2"/><path id="svg_3" d="M339.773 74.48a16.94 16.94 0 001.37-2.85 1.5 1.5 0 011.44-1h2.84a1.53 1.53 0 001.55-1.51l.1-6.93a1.52 1.52 0 00-1.51-1.55h-2.84a1.53 1.53 0 01-1.42-1 17.78 17.78 0 00-3.07-5.5 1.51 1.51 0 01-.12-1.73l1.45-2.45a1.51 1.51 0 00-.53-2.09l-5.95-3.55a1.53 1.53 0 00-2.09.53l-1.45 2.45a1.52 1.52 0 01-1.59.72 17.45 17.45 0 00-6.28-.08 1.51 1.51 0 01-1.57-.76l-1.39-2.49a1.52 1.52 0 00-2.08-.58l-6 3.38a1.53 1.53 0 00-.59 2.08l1.39 2.48a1.53 1.53 0 01-.17 1.74 17.81 17.81 0 00-3.22 5.41 1.5 1.5 0 01-1.44 1h-2.84a1.53 1.53 0 00-1.55 1.51l-.1 6.93a1.52 1.52 0 001.51 1.55h2.84a1.53 1.53 0 011.42 1 17.78 17.78 0 003.07 5.5 1.51 1.51 0 01.12 1.73l-1.45 2.45a1.51 1.51 0 00.53 2.09l6 3.55a1.53 1.53 0 002.09-.53l1.45-2.45a1.52 1.52 0 011.59-.72 17.45 17.45 0 006.28.08 1.51 1.51 0 011.57.76l1.39 2.49a1.52 1.52 0 002.08.58l6-3.38a1.53 1.53 0 00.59-2.08l-1.39-2.48a1.53 1.53 0 01.17-1.74 17 17 0 001.8-2.56zm-19-.29a9.55 9.55 0 1111.27-2.86 9.55 9.55 0 01-11.24 2.86z" class="cls-2"/><path id="svg_4" d="M141.763 75.34h-22.1v9.47h22.1z" class="cls-3"/><path id="svg_5" d="M105.723 93.31h.17a.07.07 0 010-.05v-.06.06a.07.07 0 010 .05h-.05c-.05 0-.12.02-.12 0z" class="cls-4"/><path id="svg_6" d="M105.023 93.31h.17c-.1 0-.17.02-.17 0z" class="cls-4"/><path id="svg_7" d="M104.323 93.31H104.493c-.1 0-.17.02-.17 0z" class="cls-4"/><path id="svg_8" d="M103.623 93.31H103.793c-.1 0-.17.02-.17 0z" class="cls-4"/><path id="svg_9" d="M102.923 93.31H103.093c-.1 0-.17.02-.17 0z" class="cls-4"/><path id="svg_10" d="M102.223 93.31H102.403c-.09 0-.18.02-.18 0z" class="cls-4"/><path id="svg_11" d="M101.523 93.31H101.703c-.09 0-.18.02-.18 0z" class="cls-4"/><path id="svg_12" d="M100.863 93.31H101.043c-.09 0-.18.02-.18 0z" class="cls-4"/><path id="svg_13" d="M100.123 93.31H100.303c-.09 0-.18.02-.18 0z" class="cls-4"/><path id="svg_14" d="M99.423 93.31H99.603c-.1 0-.18.02-.18 0z" class="cls-4"/><path id="svg_15" d="M98.733 93.31H98.903c-.1 0-.17.02-.17 0z" class="cls-4"/><path id="svg_16" d="M98.033 93.31H98.203c-.1 0-.17.02-.17 0z" class="cls-4"/><path id="svg_17" d="M97.333 93.31H97.503c-.1 0-.17.02-.17 0z" class="cls-4"/><path id="svg_18" d="M96.633 93.31H96.803c-.1 0-.17.02-.17 0z" class="cls-4"/><path id="svg_19" d="M96.103 93.35h0-.17.17z" class="cls-4"/><path id="svg_20" d="M95.403 93.13v.18h.18-.18c-.04-.1-.02-.18 0-.18z" class="cls-4"/><path id="svg_21" d="M95.403 92.44V92.62c0-.09-.02-.18 0-.18z" class="cls-4"/><path id="svg_22" d="M95.413 91.74v.35s-.05-.08-.05-.18.02-.17.05-.17z" class="cls-4"/><path id="svg_23" d="M95.403 91.04V91.22c0-.09-.02-.18 0-.18z" class="cls-4"/><path id="svg_24" d="M95.413 90.35v.35s-.05-.08-.05-.17.02-.18.05-.18z" class="cls-4"/><path id="svg_25" d="M95.403 89.66V89.84c0-.09-.02-.18 0-.18z" class="cls-4"/><path id="svg_26" d="M95.403 88.97V89.15c0-.09-.02-.18 0-.18z" class="cls-4"/><path id="svg_27" d="M95.403 88.27V88.44c0-.1-.02-.17 0-.17z" class="cls-4"/><path id="svg_28" d="M95.403 87.58v.17c0-.09-.02-.17 0-.17z" class="cls-4"/><path id="svg_29" d="M95.583 87.04h-.17v.11a.13.13 0 000-.06v-.05H95.583z" class="cls-4"/><path id="svg_30" d="M96.283 87.04s-.08.05-.18.05-.17 0-.17-.05.08 0 .17 0h.18z" class="cls-4"/><path id="svg_31" d="M96.983 87.04s-.08.05-.18.05-.17 0-.17-.05.08 0 .17 0h.18z" class="cls-4"/><path id="svg_32" d="M97.683 87.04s-.08.05-.18.05-.17 0-.17-.05.08 0 .17 0h.18z" class="cls-4"/><path id="svg_33" d="M98.383 87.04s-.08.05-.18.05-.17 0-.17-.05.08 0 .17 0h.18z" class="cls-4"/><path id="svg_34" d="M99.083 87.04s-.08.05-.18.05-.17 0-.17-.05.08 0 .17 0h.18z" class="cls-4"/><path id="svg_35" d="M99.773 87.04s-.07.05-.17.05-.18 0-.18-.05.08 0 .18 0h.17z" class="cls-4"/><path id="svg_36" d="M100.473 87.04s-.08.05-.17.05-.18 0-.18-.05.08 0 .18 0h.17z" class="cls-4"/><path id="svg_37" d="M101.173 87.04s-.08.05-.18.05-.17 0-.17-.05.08 0 .17 0h.18z" class="cls-4"/><path id="svg_38" d="M101.863 87.04s-.08.05-.17.05-.18 0-.18-.05.08 0 .18 0h.17z" class="cls-4"/><path id="svg_39" d="M102.573 87.04s-.08.05-.17.05-.18 0-.18-.05.08 0 .18 0h.17z" class="cls-4"/><path id="svg_40" d="M103.273 87.04s-.08.05-.18.05-.17 0-.17-.05.08 0 .17 0h.18z" class="cls-4"/><path id="svg_41" d="M103.973 87.04s-.08.05-.18.05-.17 0-.17-.05.08 0 .17 0h.18z" class="cls-4"/><path id="svg_42" d="M104.673 87.04s-.08.05-.18.05-.17 0-.17-.05.08 0 .17 0h.18z" class="cls-4"/><path id="svg_43" d="M105.373 87.04s-.08.05-.18.05-.17 0-.17-.05.08 0 .17 0h.18z" class="cls-4"/><path id="svg_44" d="M105.863 87.23v-.17H105.693 105.913c.03.09.01.17-.05.17z" class="cls-4"/><path id="svg_45" d="M105.863 87.92v-.17-.17s.05.07.05.17.01.17-.05.17z" class="cls-4"/><path id="svg_46" d="M105.863 88.62v-.18-.17.17c0 .09.05.18 0 .18z" class="cls-4"/><path id="svg_47" d="M105.863 89.32v-.17-.18.18c0 .1.06.17 0 .17z" class="cls-4"/><path id="svg_48" d="M105.863 90.04v-.17-.18.18c0 .1.06.17 0 .17z" class="cls-4"/><path id="svg_49" d="M105.863 90.71v-.18-.17.17c0 .09.05.18 0 .18z" class="cls-4"/><path id="svg_50" d="M105.863 91.4v-.17-.18.18c0 .1.06.17 0 .17z" class="cls-4"/><path id="svg_51" d="M105.863 92.09v-.17-.18.18c0 .1.06.17 0 .17z" class="cls-4"/><path id="svg_52" d="M105.863 92.79v-.17-.18.18c0 .1.05.17 0 .17z" class="cls-4"/><path id="svg_53" d="M95.663 93.04h-.5v.5h.5z" class="cls-4"/><path id="svg_54" d="M95.663 86.81h-.5v.5h.5z" class="cls-4"/><path id="svg_55" d="M106.143 86.81h-.5v.5h.5z" class="cls-4"/><path id="svg_56" d="M106.143 93.04h-.5v.5h.5z" class="cls-4"/><path id="svg_57" d="M100.863 93.04h-.5v.5h.5z" class="cls-4"/><path id="svg_58" d="M100.863 86.81h-.5v.5h.5z" class="cls-4"/><path id="svg_59" d="M95.663 89.94h-.5v.5h.5z" class="cls-4"/><path id="svg_60" d="M106.143 89.94h-.5v.5h.5z" class="cls-4"/><path id="svg_61" d="M161.863 77.17h.17v-.06a.43.43 0 010-.05v-.05.05a1 1 0 000 .09l-.05.05c-.12.02-.12 0-.12-.03z" class="cls-4"/><path id="svg_62" d="M161.123 77.17h.34s-.07.05-.17.05-.17-.02-.17-.05z" class="cls-4"/><path id="svg_63" d="M160.443 77.17h.34s-.08.05-.17.05-.17-.02-.17-.05z" class="cls-4"/><path id="svg_64" d="M159.923 77.22c.1 0 .17 0 .17-.05s-.07 0-.17 0h-.17s.11.05.17.05z" class="cls-4"/><path id="svg_65" d="M159.243 77.22c.09 0 .17 0 .17-.05s-.08 0-.17 0h-.17s.07.05.17.05z" class="cls-4"/><path id="svg_66" d="M158.383 77.17h.34s-.07.05-.17.05-.17-.02-.17-.05z" class="cls-4"/><path id="svg_67" d="M157.703 77.17h.34s-.08.05-.17.05-.17-.02-.17-.05z" class="cls-4"/><path id="svg_68" d="M157.013 77.17h.34s-.07.05-.17.05-.17-.02-.17-.05z" class="cls-4"/><path id="svg_69" d="M156.323 77.17h.35s-.08.05-.17.05-.18-.02-.18-.05z" class="cls-4"/><path id="svg_70" d="M155.643 77.17h.34s-.07.05-.17.05-.17-.02-.17-.05z" class="cls-4"/><path id="svg_71" d="M154.963 77.17h.34s-.08.05-.17.05-.17-.02-.17-.05z" class="cls-4"/><path id="svg_72" d="M154.443 77.22c.1 0 .17 0 .17-.05s-.07 0-.17 0h-.17s.08.05.17.05z" class="cls-4"/><path id="svg_73" d="M153.763 77.22c.09 0 .17 0 .17-.05s-.08 0-.17 0h-.17s.07.05.17.05z" class="cls-4"/><path id="svg_74" d="M152.863 77.17h.34s-.07.05-.17.05-.17-.02-.17-.05z" class="cls-4"/><path id="svg_75" d="M152.213 77.17h.35s-.08.05-.17.05-.18-.02-.18-.05z" class="cls-4"/><path id="svg_76" d="M151.703 77.22c.1 0 .17 0 .17-.05s-.07 0-.17 0h-.17s.08.05.17.05z" class="cls-4"/><path id="svg_77" d="M151.023 77.22c.09 0 .17 0 .17-.05s-.08 0-.17 0h-.18s.08.05.18.05z" class="cls-4"/><path id="svg_78" d="M150.163 77.17h.34s-.07.05-.17.05-.17-.02-.17-.05z" class="cls-4"/><path id="svg_79" d="M149.483 77.17h.34s-.08.05-.17.05-.17-.02-.17-.05z" class="cls-4"/><path id="svg_80" d="M148.963 77.22c.1 0 .17 0 .17-.05s-.07 0-.17 0h-.17s.07.05.17.05z" class="cls-4"/><path id="svg_81" d="M148.103 77.17h.35s-.08.05-.17.05-.18-.02-.18-.05z" class="cls-4"/><path id="svg_82" d="M147.423 77.17h.34s-.07.05-.17.05-.17-.02-.17-.05z" class="cls-4"/><path id="svg_83" d="M146.733 77.17h.35s-.08.05-.17.05-.18-.02-.18-.05z" class="cls-4"/><path id="svg_84" d="M146.223 77.22c.1 0 .17 0 .17-.05s-.07 0-.17 0h-.17s.08.05.17.05z" class="cls-4"/><path id="svg_85" d="M145.373 77.17h.34s-.08.05-.17.05-.17-.02-.17-.05z" class="cls-4"/><path id="svg_86" d="M144.683 77.17h.34s-.07.05-.17.05-.17-.02-.17-.05z" class="cls-4"/><path id="svg_87" d="M144.163 77.04s.05.08.05.17c-.09-.09 0 0-.05 0h.13-.13s.05 0 0-.05-.02-.12 0-.12z" class="cls-4"/><path id="svg_88" d="M144.163 76.28s.05.08.05.18 0 .18-.05.18-.05-.08-.05-.18.03-.18.05-.18z" class="cls-4"/><path id="svg_89" d="M144.163 75.55s.05.08.05.18 0 .18-.05.18 0-.08 0-.18-.02-.18 0-.18z" class="cls-4"/><path id="svg_90" d="M144.163 75.19s.05-.08.05-.18 0-.18-.05-.18-.05.08-.05.18.03.18.05.18z" class="cls-4"/><path id="svg_91" d="M144.163 74.46s.05-.08.05-.18 0-.18-.05-.18 0 .08 0 .18-.02.18 0 .18z" class="cls-4"/><path id="svg_92" d="M144.163 73.38s.05.08.05.18 0 .18-.05.18-.05-.08-.05-.18.03-.18.05-.18z" class="cls-4"/><path id="svg_93" d="M144.163 72.65s.05.08.05.19 0 .18-.05.18 0-.08 0-.18-.02-.19 0-.19z" class="cls-4"/><path id="svg_94" d="M144.163 71.93s.05.08.05.18 0 .19-.05.19 0-.09 0-.19-.02-.18 0-.18z" class="cls-4"/><path id="svg_95" d="M144.163 71.57s.05-.08.05-.18 0-.18-.05-.18-.05.08-.05.18.03.18.05.18z" class="cls-4"/><path id="svg_96" d="M144.163 70.84s.05-.08.05-.18 0-.18-.05-.18 0 .08 0 .18-.02.18 0 .18z" class="cls-4"/><path id="svg_97" d="M144.163 70.12s.05-.08.05-.18 0-.18-.05-.18 0 .08 0 .18-.02.18 0 .18z" class="cls-4"/><path id="svg_98" d="M144.163 69.04s.05.08.05.18 0 .19-.05.19 0-.08 0-.19-.02-.18 0-.18z" class="cls-4"/><path id="svg_99" d="M144.163 68.31s.05.08.05.18 0 .18-.05.18-.05-.08-.05-.18.03-.18.05-.18z" class="cls-4"/><path id="svg_100" d="M144.163 67.58s.05.08.05.18 0 .18-.05.18 0-.08 0-.18-.02-.18 0-.18z" class="cls-4"/><path id="svg_101" d="M144.343 67.04s-.08.05-.18.05l.05-.05v.05a.13.13 0 010 .06v-.11s-.05 0 0 0h.13z" class="cls-4"/><path id="svg_102" d="M144.863 67.1h0-.17.17z" class="cls-4"/><path id="svg_103" d="M145.713 67.04h-.35.35z" class="cls-4"/><path id="svg_104" d="M146.393 67.04h-.34.34z" class="cls-4"/><path id="svg_105" d="M146.913 67.1h0-.17.17z" class="cls-4"/><path id="svg_106" d="M147.763 67.04h-.34.34z" class="cls-4"/><path id="svg_107" d="M148.453 67.04h-.35.35z" class="cls-4"/><path id="svg_108" d="M148.963 67.1h0-.17.17z" class="cls-4"/><path id="svg_109" d="M149.653 67.1h0-.17.17z" class="cls-4"/><path id="svg_110" d="M150.503 67.04h-.34.34z" class="cls-4"/><path id="svg_111" d="M151.193 67.04h-.35.35z" class="cls-4"/><path id="svg_112" d="M151.863 67.04h-.34.34z" class="cls-4"/><path id="svg_113" d="M152.563 67.04h-.34.34z" class="cls-4"/><path id="svg_114" d="M153.243 67.04h-.34.34z" class="cls-4"/><path id="svg_115" d="M153.933 67.04h-.34.34z" class="cls-4"/><path id="svg_116" d="M154.613 67.04h-.34.34z" class="cls-4"/><path id="svg_117" d="M155.133 67.1h0-.17.17z" class="cls-4"/><path id="svg_118" d="M155.983 67.04h-.34.34z" class="cls-4"/><path id="svg_119" d="M156.673 67.04h-.35.35z" class="cls-4"/><path id="svg_120" d="M157.183 67.1h0-.17.17z" class="cls-4"/><path id="svg_121" d="M157.863 67.1h0-.17.17z" class="cls-4"/><path id="svg_122" d="M158.723 67.04h-.34.34z" class="cls-4"/><path id="svg_123" d="M159.413 67.04h-.34.34z" class="cls-4"/><path id="svg_124" d="M159.923 67.1h0-.17.17z" class="cls-4"/><path id="svg_125" d="M160.783 67.04h-.34.34z" class="cls-4"/><path id="svg_126" d="M161.463 67.04h-.34.34z" class="cls-4"/><path id="svg_127" d="M161.983 67.22v-.17H161.813 161.983l.05.05c0 .04-.02.12-.05.12z" class="cls-4"/><path id="svg_128" d="M161.983 67.94v-.18-.18s.05.08.05.18-.02.18-.05.18z" class="cls-4"/><path id="svg_129" d="M161.983 68.67v-.18-.18s.05.08.05.18-.02.18-.05.18z" class="cls-4"/><path id="svg_130" d="M161.983 69.39v-.18-.18s.05.08.05.18-.02.18-.05.18z" class="cls-4"/><path id="svg_131" d="M161.983 70.12v-.18-.18s.05.08.05.18-.02.18-.05.18z" class="cls-4"/><path id="svg_132" d="M161.983 70.84v-.18-.18s.05.08.05.18-.02.18-.05.18z" class="cls-4"/><path id="svg_133" d="M161.983 71.57v-.18-.18s.05.08.05.18-.02.18-.05.18z" class="cls-4"/><path id="svg_134" d="M161.983 72.3v-.19-.18s.05.08.05.18-.02.19-.05.19z" class="cls-4"/><path id="svg_135" d="M161.983 73.04v-.18-.19s.05.08.05.19-.02.18-.05.18z" class="cls-4"/><path id="svg_136" d="M161.983 73.74v-.18-.18s.05.08.05.18-.02.18-.05.18z" class="cls-4"/><path id="svg_137" d="M161.983 74.46v-.18-.18s.05.08.05.18-.02.18-.05.18z" class="cls-4"/><path id="svg_138" d="M161.983 75.19v-.18-.18s.05.08.05.18-.02.18-.05.18z" class="cls-4"/><path id="svg_139" d="M161.983 75.91v-.18-.19s.05.09.05.19-.02.18-.05.18z" class="cls-4"/><path id="svg_140" d="M161.983 76.64v-.18-.18s.05.08.05.18-.02.18-.05.18z" class="cls-4"/><path id="svg_141" d="M144.413 76.92h-.5v.5h.5z" class="cls-4"/><path id="svg_142" d="M144.413 66.8h-.5v.5h.5z" class="cls-4"/><path id="svg_143" d="M153.323 76.92h-.46v.5h.5z" class="cls-4"/><path id="svg_144" d="M153.573 66.8h-.5v.5h.5z" class="cls-4"/><path id="svg_145" d="M144.413 71.69h-.5v.5h.5z" class="cls-4"/><path id="svg_146" d="M118.163 114.22h-19.61v7.82h19.61z" class="cls-3"/><path id="svg_147" d="M159.523 95.58h-37.6v23.54h37.6z" class="cls-5"/><path id="svg_148" d="M159.523 119.12v-.42-1.24-4.72-17.16h-37.6.05v23.54h-.05 27.07-27.13V95.54h37.7v23.12c-.04.32-.04.46-.04.46z" class="cls-6"/><path id="svg_149" d="M155.243 98.57h-10.77v10.77h10.77z" class="cls-6"/><path id="svg_150" d="M153.773 110.86h-7.83s1.76-.05 3.92-.05 3.91.02 3.91.05z" class="cls-6"/><path id="svg_151" d="M156.113 111.75h-12.51 6.26c3.46 0 6.25-.03 6.25 0z" class="cls-6"/><path id="svg_152" d="M156.113 112.84h-12.51s2.8-.05 6.26-.05 6.25.02 6.25.05z" class="cls-6"/><path id="svg_153" d="M156.113 113.93s-2.8.05-6.25.05-6.26 0-6.26-.05 2.8 0 6.26 0 6.25-.02 6.25 0z" class="cls-6"/><path id="svg_154" d="M156.113 115.04h-12.51s2.8-.05 6.26-.05 6.25.05 6.25.05z" class="cls-6"/><path id="svg_155" d="M156.113 116.11s-2.8.05-6.25.05-6.26 0-6.26-.05 2.8 0 6.26 0 6.25-.02 6.25 0z" class="cls-6"/><use class="cls-7" href="#svg_156"/><g id="svg_157" class="cls-8"><g id="svg_158" class="cls-8"><use id="svg_159" class="cls-9" href="#svg_156"/></g></g><path id="svg_160" d="M136.773 110.86h-7.82s1.75-.05 3.91-.05 3.91.02 3.91.05z" class="cls-7"/><path id="svg_161" d="M139.123 111.75h-12.51 6.25c3.45 0 6.26-.03 6.26 0z" class="cls-7"/><path id="svg_162" d="M139.123 112.84h-12.51s2.8-.05 6.25-.05 6.26.02 6.26.05z" class="cls-7"/><path id="svg_163" d="M139.123 113.93s-2.8.05-6.26.05-6.25 0-6.25-.05 2.8 0 6.25 0 6.26-.02 6.26 0z" class="cls-7"/><path id="svg_164" d="M139.123 115.04h-12.51s2.8-.05 6.25-.05 6.26.05 6.26.05z" class="cls-7"/><path id="svg_165" d="M139.123 116.11s-2.8.05-6.26.05-6.25 0-6.25-.05 2.8 0 6.25 0 6.26-.02 6.26 0z" class="cls-7"/><path id="svg_166" d="M154.993 105.59h-.05l-.15-.14-.58-.55-2-1.94h.06l-2.07 2.35-.08.09-1.27-1.06h.01l-2.79 2.49-.82.72-.23.19-.08.06.07-.07.22-.2.8-.74 2.77-2.51 1.28 1.06h-.06l.08-.09 2.07-2.35 2 2c.24.23.42.42.56.56l.15.15s.12-.02.11-.02z" class="cls-10"/><path id="svg_167" d="M148.193 102.04s-.06-.08-.18-.21a1.23 1.23 0 00-.68-.32 1.14 1.14 0 00-1 .39 1.2 1.2 0 00-.25.6 1.23 1.23 0 00.14.67 1.15 1.15 0 00.52.46 1.09 1.09 0 00.64.08 1.12 1.12 0 00.89-1.4c0-.18-.1-.26-.09-.27a.25.25 0 010 .06 1 1 0 01.09.2 1.19 1.19 0 010 .78 1.17 1.17 0 01-.88.71 1.19 1.19 0 01-1.24-.57 1.21 1.21 0 01.12-1.37 1.15 1.15 0 011.06-.4 1.08 1.08 0 01.69.36.86.86 0 01.13.17z" class="cls-10"/><path id="svg_168" d="M118.133 95.55h-19.6v8h19.6z" class="cls-11"/><path id="svg_169" d="M118.133 103.51v-.14-2-5.82h-19.6v8h14.07-14.07v-8h19.65v7.96z" class="cls-6"/><path id="svg_170" d="M104.863 97.44h-4.66v4.66h4.66z" class="cls-6"/><path id="svg_171" d="M116.773 99.18h-10.88 5.44c3 0 5.44-.02 5.44 0z" class="cls-6"/><path id="svg_172" d="M116.773 100.14h-10.88 5.44c3 0 5.44-.01 5.44 0z" class="cls-6"/><path id="svg_173" d="M112.863 101.11h-6.7 6.7z" class="cls-6"/><path id="svg_174" d="M118.133 123.85h-19.6v8h19.6z" class="cls-11"/><path id="svg_175" d="M118.133 131.8a.66.66 0 010-.14v-2-5.82h-19.6v8h14.05-14.08v-8h19.65v7.96z" class="cls-6"/><path id="svg_176" d="M104.863 125.69h-4.66v4.65h4.66z" class="cls-7"/><path id="svg_177" d="M116.773 108.38h-10.88 5.44c3 0 5.44-.02 5.44 0z" class="cls-6"/><path id="svg_178" d="M116.773 109.35h-10.88 5.44c3 0 5.44-.02 5.44 0z" class="cls-6"/><path id="svg_179" d="M112.863 110.31z" class="cls-6"/><path id="svg_180" d="M117.783 112.84s.08-.05.17-.05.18 0 .18.05-.08 0-.18 0-.17.02-.17 0z" class="cls-6"/><path id="svg_181" d="M117.083 112.84s.08-.05.17-.05.18 0 .18.05-.08 0-.18 0-.17.02-.17 0z" class="cls-6"/><path id="svg_182" d="M116.383 112.84s.08-.05.18-.05.17 0 .17.05-.08 0-.17 0-.18.02-.18 0z" class="cls-6"/><path id="svg_183" d="M115.683 112.84s.08-.05.18-.05.17 0 .17.05-.08 0-.17 0-.18.02-.18 0z" class="cls-6"/><path id="svg_184" d="M114.983 112.84s.08-.05.18-.05.17 0 .17.05-.08 0-.17 0-.18.02-.18 0z" class="cls-6"/><path id="svg_185" d="M114.283 112.84s.08-.05.18-.05.17 0 .17.05-.07 0-.17 0-.18.02-.18 0z" class="cls-6"/><path id="svg_186" d="M113.593 112.84s.07-.05.17-.05.17 0 .17.05-.07 0-.17 0-.17.02-.17 0z" class="cls-6"/><path id="svg_187" d="M112.863 112.84s.08-.05.17-.05.18 0 .18.05-.08 0-.18 0-.17.02-.17 0z" class="cls-6"/><path id="svg_188" d="M112.193 112.84s.08-.05.17-.05.18 0 .18.05-.08 0-.18 0-.17.02-.17 0z" class="cls-6"/><path id="svg_189" d="M111.493 112.84s.08-.05.17-.05.18 0 .18.05-.08 0-.18 0-.17.02-.17 0z" class="cls-6"/><path id="svg_190" d="M110.793 112.84s.08-.05.18-.05.17 0 .17.05-.08 0-.17 0-.18.02-.18 0z" class="cls-6"/><path id="svg_191" d="M110.093 112.84s.08-.05.18-.05.17 0 .17.05-.08 0-.17 0-.18.02-.18 0z" class="cls-6"/><path id="svg_192" d="M109.393 112.84s.08-.05.18-.05.17 0 .17.05-.08 0-.17 0-.18.02-.18 0z" class="cls-6"/><path id="svg_193" d="M108.693 112.84s.08-.05.18-.05.17 0 .17.05-.07 0-.17 0-.18.02-.18 0z" class="cls-6"/><path id="svg_194" d="M108.003 112.84s.07-.05.17-.05.18 0 .18.05-.08 0-.18 0-.17.02-.17 0z" class="cls-6"/><path id="svg_195" d="M107.303 112.84s.08-.05.17-.05.18 0 .18.05-.08 0-.18 0-.17.02-.17 0z" class="cls-6"/><path id="svg_196" d="M106.603 112.84s.08-.05.17-.05.18 0 .18.05-.08 0-.18 0-.17.02-.17 0z" class="cls-6"/><path id="svg_197" d="M105.863 112.84s.08-.05.17-.05.18 0 .18.05-.08 0-.18 0-.17.02-.17 0z" class="cls-6"/><path id="svg_198" d="M105.203 112.84s.08-.05.17-.05.18 0 .18.05-.08 0-.18 0-.17.02-.17 0z" class="cls-6"/><path id="svg_199" d="M104.503 112.84s.08-.05.18-.05.17 0 .17.05-.08 0-.17 0-.18.02-.18 0z" class="cls-6"/><path id="svg_200" d="M103.803 112.84s.08-.05.18-.05.17 0 .17.05-.07 0-.17 0-.18.02-.18 0z" class="cls-6"/><path id="svg_201" d="M103.113 112.84s.07-.05.17-.05.18 0 .18.05-.08 0-.18 0-.17.02-.17 0z" class="cls-6"/><path id="svg_202" d="M102.413 112.84s.07-.05.17-.05.18 0 .18.05-.08 0-.18 0-.17.02-.17 0z" class="cls-6"/><path id="svg_203" d="M101.713 112.84s.08-.05.17-.05.18 0 .18.05-.08 0-.18 0-.17.02-.17 0z" class="cls-6"/><path id="svg_204" d="M101.013 112.84s.08-.05.17-.05.18 0 .18.05-.08 0-.18 0-.17.02-.17 0z" class="cls-6"/><path id="svg_205" d="M100.313 112.84s.08-.05.17-.05.18 0 .18.05-.08 0-.18 0-.17.02-.17 0z" class="cls-6"/><path id="svg_206" d="M99.613 112.84s.08-.05.18-.05.17 0 .17.05-.08 0-.17 0-.18.02-.18 0z" class="cls-6"/><path id="svg_207" d="M98.913 112.84s.08-.05.18-.05.17 0 .17.05-.08 0-.17 0-.18.02-.18 0z" class="cls-6"/><path id="svg_208" d="M98.533 112.52s.05.08.05.18a.46.46 0 010 .14.28.28 0 010-.14c-.09-.1-.07-.18-.05-.18z" class="cls-6"/><path id="svg_209" d="M98.533 111.82s.05.08.05.18 0 .17-.05.17 0-.08 0-.17-.02-.18 0-.18z" class="cls-6"/><path id="svg_210" d="M98.533 111.12s.05.08.05.18 0 .17-.05.17 0-.08 0-.17-.02-.18 0-.18z" class="cls-6"/><path id="svg_211" d="M98.533 110.42s.05.08.05.18 0 .17-.05.17 0-.08 0-.17-.02-.18 0-.18z" class="cls-6"/><path id="svg_212" d="M98.533 109.73s.05.08.05.18 0 .17-.05.17 0-.08 0-.17-.02-.18 0-.18z" class="cls-6"/><path id="svg_213" d="M98.533 109.04s.05.08.05.17 0 .18-.05.18 0-.08 0-.18-.02-.17 0-.17z" class="cls-6"/><path id="svg_214" d="M98.533 108.33s.05.07.05.17 0 .18-.05.18 0-.08 0-.18-.02-.17 0-.17z" class="cls-6"/><path id="svg_215" d="M98.533 107.63s.05.08.05.17 0 .18-.05.18 0-.08 0-.18-.02-.17 0-.17z" class="cls-6"/><path id="svg_216" d="M98.533 106.93s.05.08.05.17 0 .18-.05.18 0-.08 0-.18-.02-.17 0-.17z" class="cls-6"/><path id="svg_217" d="M98.533 106.23s.05.08.05.17 0 .18-.05.18 0-.08 0-.18-.02-.17 0-.17z" class="cls-6"/><path id="svg_218" d="M98.533 105.54s.05.08.05.18 0 .17-.05.17 0-.08 0-.17-.02-.18 0-.18z" class="cls-6"/><path id="svg_219" d="M98.693 105.04h-.16.05c0 .1 0 .17-.05.17s0-.07 0-.17v-.07c.09-.03.16-.01.16.07z" class="cls-6"/><path id="svg_220" d="M99.383 104.98s-.08.05-.17.05-.18 0-.18-.05.08 0 .18 0 .17-.02.17 0z" class="cls-6"/><path id="svg_221" d="M100.083 104.98s-.08.05-.17.05-.18 0-.18-.05.08 0 .18 0 .17-.02.17 0z" class="cls-6"/><path id="svg_222" d="M100.783 104.98s-.08.05-.17.05-.18 0-.18-.05.08 0 .18 0 .17-.02.17 0z" class="cls-6"/><path id="svg_223" d="M101.483 104.98s-.08.05-.17.05-.18 0-.18-.05.08 0 .18 0 .17-.02.17 0z" class="cls-6"/><path id="svg_224" d="M102.183 104.98s-.08.05-.17.05-.18 0-.18-.05.08 0 .18 0 .17-.02.17 0z" class="cls-6"/><path id="svg_225" d="M102.863 104.98s-.08.05-.18.05-.17 0-.17-.05.08 0 .17 0 .18-.02.18 0z" class="cls-6"/><path id="svg_226" d="M103.583 104.98s-.08.05-.18.05-.17 0-.17-.05.07 0 .17 0 .18-.02.18 0z" class="cls-6"/><path id="svg_227" d="M104.283 104.98s-.08.05-.18.05-.17 0-.17-.05.08 0 .17 0 .18-.02.18 0z" class="cls-6"/><path id="svg_228" d="M104.973 104.98s-.07.05-.17.05-.18 0-.18-.05.08 0 .18 0 .17-.02.17 0z" class="cls-6"/><path id="svg_229" d="M105.673 104.98s-.08.05-.17.05-.18 0-.18-.05.08 0 .18 0 .17-.02.17 0z" class="cls-6"/><path id="svg_230" d="M106.373 104.98s-.08.05-.17.05-.18 0-.18-.05.08 0 .18 0 .17-.02.17 0z" class="cls-6"/><path id="svg_231" d="M107.073 104.98s-.08.05-.17.05-.18 0-.18-.05.08 0 .18 0 .17-.02.17 0z" class="cls-6"/><path id="svg_232" d="M107.773 104.98s-.08.05-.18.05-.17 0-.17-.05.08 0 .17 0 .18-.02.18 0z" class="cls-6"/><path id="svg_233" d="M108.473 104.98s-.08.05-.18.05-.17 0-.17-.05.08 0 .17 0 .18-.02.18 0z" class="cls-6"/><path id="svg_234" d="M109.173 104.98s-.08.05-.18.05-.17 0-.17-.05.08 0 .17 0 .18-.02.18 0z" class="cls-6"/><path id="svg_235" d="M109.863 104.98s-.07.05-.17.05-.17 0-.17-.05.07 0 .17 0 .17-.02.17 0z" class="cls-6"/><path id="svg_236" d="M110.563 104.98s-.08.05-.17.05-.18 0-.18-.05.08 0 .18 0 .17-.02.17 0z" class="cls-6"/><path id="svg_237" d="M111.263 104.98s-.08.05-.17.05-.18 0-.18-.05.08 0 .18 0 .17-.02.17 0z" class="cls-6"/><path id="svg_238" d="M111.963 104.98s-.08.05-.17.05-.18 0-.18-.05.08 0 .18 0 .17-.02.17 0z" class="cls-6"/><path id="svg_239" d="M112.663 104.98s-.08.05-.18.05-.17 0-.17-.05.08 0 .17 0 .18-.02.18 0z" class="cls-6"/><path id="svg_240" d="M113.363 104.98s-.08.05-.18.05-.17 0-.17-.05.08 0 .17 0 .18-.02.18 0z" class="cls-6"/><path id="svg_241" d="M114.063 104.98s-.08.05-.18.05-.17 0-.17-.05.08 0 .17 0 .18-.02.18 0z" class="cls-6"/><path id="svg_242" d="M114.763 104.98s-.08.05-.18.05-.17 0-.17-.05.07 0 .17 0 .18-.02.18 0z" class="cls-6"/><path id="svg_243" d="M115.463 104.98s-.08.05-.18.05-.17 0-.17-.05.07 0 .17 0 .18-.02.18 0z" class="cls-6"/><path id="svg_244" d="M116.153 104.98s-.08.05-.17.05-.18 0-.18-.05.08 0 .18 0 .17-.02.17 0z" class="cls-6"/><path id="svg_245" d="M116.863 104.98s-.08.05-.17.05-.18 0-.18-.05.08 0 .18 0 .17-.02.17 0z" class="cls-6"/><path id="svg_246" d="M117.553 104.98s-.08.05-.17.05-.18 0-.18-.05.08 0 .18 0 .17-.02.17 0z" class="cls-6"/><path id="svg_247" d="M118.133 105.11v-.13.05h-.06c-.09 0-.17 0-.17-.05s.08 0 .17 0h.11c-.01.06-.03.13-.05.13z" class="cls-6"/><path id="svg_248" d="M118.133 105.8v-.17-.17.17c0 .1.02.17 0 .17z" class="cls-6"/><path id="svg_249" d="M118.133 106.51v-.17-.18.18c0 .1.02.17 0 .17z" class="cls-6"/><path id="svg_250" d="M118.133 107.2v-.17-.18.18c0 .1.02.17 0 .17z" class="cls-6"/><path id="svg_251" d="M118.133 107.9v-.17-.18.18c0 .1.02.17 0 .17z" class="cls-6"/><path id="svg_252" d="M118.133 108.6v-.18-.17.17c0 .09.02.18 0 .18z" class="cls-6"/><path id="svg_253" d="M118.133 109.3v-.17-.18.18c0 .1.02.17 0 .17z" class="cls-6"/><path id="svg_254" d="M118.133 110.04v-.17-.18.18c0 .1.02.17 0 .17z" class="cls-6"/><path id="svg_255" d="M118.133 110.7v-.18-.17.17c0 .1.02.18 0 .18z" class="cls-6"/><path id="svg_256" d="M118.133 111.39v-.17-.18.18c0 .1.02.17 0 .17z" class="cls-6"/><path id="svg_257" d="M118.133 112.09v-.17-.18.18c0 .1.02.17 0 .17z" class="cls-6"/><path id="svg_258" d="M118.133 112.79v-.17-.18.18c0 .1.02.17 0 .17z" class="cls-6"/><path id="svg_259" d="M105.013 111.46s.08-.05.17-.05c-.09.09 0 0 0 .05v-.06-.05.11s0-.05-.05 0-.12.02-.12 0z" class="cls-6"/><path id="svg_260" d="M104.363 111.45h.16c-.09 0-.16.03-.16 0z" class="cls-6"/><path id="svg_261" d="M103.703 111.45h.17c-.09 0-.17.03-.17 0z" class="cls-6"/><path id="svg_262" d="M103.053 111.45h.16c-.09 0-.16.03-.16 0z" class="cls-6"/><path id="svg_263" d="M102.403 111.45h.16c-.09 0-.16.03-.16 0z" class="cls-6"/><path id="svg_264" d="M101.753 111.45h.16c-.09 0-.16.03-.16 0z" class="cls-6"/><path id="svg_265" d="M101.093 111.45h.17c-.09 0-.17.03-.17 0z" class="cls-6"/><path id="svg_266" d="M100.443 111.45h.17c-.08 0-.17.03-.17 0z" class="cls-6"/><path id="svg_267" d="M99.943 111.28s.05.08.05.18l-.05-.05h.18-.18c-.08-.05-.02-.13 0-.13z" class="cls-6"/><path id="svg_268" d="M99.943 110.58s.05.07.05.17 0 .18-.05.18 0-.08 0-.18-.02-.17 0-.17z" class="cls-6"/><path id="svg_269" d="M99.943 109.87s.05.08.05.18 0 .18-.05.18 0-.08 0-.18-.02-.18 0-.18z" class="cls-6"/><path id="svg_270" d="M99.943 109.17s.05.08.05.18 0 .17-.05.17 0-.08 0-.17-.02-.18 0-.18z" class="cls-6"/><path id="svg_271" d="M99.943 108.47s.05.08.05.17 0 .18-.05.18 0-.08 0-.18-.02-.17 0-.17z" class="cls-6"/><path id="svg_272" d="M99.943 107.76s.05.08.05.18 0 .18-.05.18 0-.08 0-.18-.02-.18 0-.18z" class="cls-6"/><path id="svg_273" d="M99.943 107.04s.05.08.05.17 0 .18-.05.18 0-.08 0-.18-.02-.17 0-.17z" class="cls-6"/><path id="svg_274" d="M100.123 106.54h-.18c.09-.09 0 0 .05 0a.13.13 0 010 .06v-.11s-.05 0 0-.05.13.07.13.1z" class="cls-6"/><path id="svg_275" d="M100.773 106.54h-.33s.08-.05.17-.05.16.02.16.05z" class="cls-6"/><path id="svg_276" d="M101.423 106.54h-.32s.07-.05.16-.05.16.02.16.05z" class="cls-6"/><path id="svg_277" d="M102.073 106.54h-.32s.07-.05.16-.05.16.02.16.05z" class="cls-6"/><path id="svg_278" d="M102.733 106.54h-.33s.07-.05.16-.05.17.02.17.05z" class="cls-6"/><path id="svg_279" d="M103.383 106.54h-.33s.08-.05.17-.05.16.02.16.05z" class="cls-6"/><path id="svg_280" d="M104.033 106.54h-.32s.07-.05.16-.05.16.02.16.05z" class="cls-6"/><path id="svg_281" d="M104.683 106.54h-.32s.07-.05.16-.05.16.02.16.05z" class="cls-6"/><path id="svg_282" d="M105.183 106.7v-.17H105.013 105.183l.05.05c0 .04-.02.12-.05.12z" class="cls-6"/><path id="svg_283" d="M105.183 107.41v-.18-.17s.05.08.05.17-.02.18-.05.18z" class="cls-6"/><path id="svg_284" d="M105.183 108.12v-.18-.18s.05.08.05.18-.02.18-.05.18z" class="cls-6"/><path id="svg_285" d="M105.183 108.82s.05-.08.05-.18 0-.17-.05-.17 0 .08 0 .17-.02.18 0 .18z" class="cls-6"/><path id="svg_286" d="M105.183 109.52v-.18-.17s.05.07.05.17-.02.18-.05.18z" class="cls-6"/><path id="svg_287" d="M105.183 110.23v-.18-.18s.05.08.05.18-.02.18-.05.18z" class="cls-6"/><path id="svg_288" d="M105.183 110.93s.05-.08.05-.18 0-.17-.05-.17 0 .08 0 .17-.02.18 0 .18z" class="cls-6"/><path id="svg_289" d="M100.063 111.33h-.2v.25h.25z" class="cls-6"/><path id="svg_290" d="M100.063 106.41h-.2v.25h.24z" class="cls-6"/><path id="svg_291" d="M105.313 106.41h-.25v.25h.25z" class="cls-6"/><path id="svg_292" d="M105.313 111.21h-.25v.25h.25z" class="cls-6"/><path id="svg_293" d="M102.563 111.33h-.25v.25h.25z" class="cls-6"/><path id="svg_294" d="M102.693 106.41h-.25v.25h.25z" class="cls-6"/><path id="svg_295" d="M100.063 109.04h-.2v.25h.25z" class="cls-6"/><path id="svg_296" d="M105.183 108.87h-.25v.25h.25z" class="cls-6"/><use class="cls-12" href="#svg_297"/><g id="svg_298" class="cls-8"><g id="svg_299" class="cls-8"><use id="svg_300" class="cls-9" href="#svg_297"/></g></g><path id="svg_301" d="M96.473 71.51a.33.33 0 10-.34-.32.33.33 0 00.34.32z" class="cls-12"/><path id="svg_302" d="M97.523 71.51a.33.33 0 100-.65.33.33 0 100 .65z" class="cls-12"/><path id="svg_303" d="M98.913 71.19a.33.33 0 01-.34.32.33.33 0 110-.65.33.33 0 01.34.33z" class="cls-12"/><path id="svg_304" d="M109.723 81.44v-.08a1.86 1.86 0 000-.22v-.82-2.91h-5 .05v4.02h3.63-3.65v-4.06-.05h5.07v3.96a.32.32 0 00-.1.16z" class="cls-7"/><path id="svg_305" d="M109.083 79.96l-.32-.28c-.19-.17-.46-.43-.78-.74h.06l-.8.91-.49-.41h.06l-1.09 1-.32.27-.12.09.1-.11c.1-.11.18-.18.31-.29l1.06-1 .49.41h-.06l.81-.91.77.77z" class="cls-7"/><path id="svg_306" d="M106.443 78.58l-.08-.08a.45.45 0 00-.25-.11.42.42 0 00-.36.15.4.4 0 000 .46.44.44 0 00.42.2.46.46 0 00.31-.24.48.48 0 000-.28v-.1l.06.09a.41.41 0 010 .31.51.51 0 01-.36.3.49.49 0 01-.51-.24.5.5 0 01.05-.56.51.51 0 01.44-.16.5.5 0 01.27.16c.01.05.02.09.01.1z" class="cls-7"/><path id="svg_307" d="M104.113 80.33l-.08-.08a.49.49 0 00-.26-.11.43.43 0 00-.36.15.42.42 0 000 .46.4.4 0 00.42.2.39.39 0 00.31-.24.39.39 0 000-.27v-.11a.34.34 0 01.06.1.47.47 0 010 .31.46.46 0 01-.35.29.48.48 0 01-.51-.23.49.49 0 01.05-.56.48.48 0 01.43-.16.44.44 0 01.28.15.36.36 0 01.01.1z" class="cls-7"/><path id="svg_308" d="M107.213 81.61v.09a1.78 1.78 0 010 .25v.93h-4.79v-.05-3.7 3.71-.05h4.74v-.94a2.36 2.36 0 000-.25.31.31 0 01.05.01z" class="cls-7"/><path id="svg_309" d="M104.423 81.18a15.91 15.91 0 01-1.49 1.34 6.07 6.07 0 01.71-.72 4.86 4.86 0 01.78-.62z" class="cls-7"/><path id="svg_310" d="M105.443 82.2s-.15-.07-.29-.22-.2-.29-.18-.3.13.1.25.24a1 1 0 01.22.28z" class="cls-7"/><path id="svg_311" d="M111.343 85.09v-.72-2.06-7.47h-17.18l.05-.05v10.25h12.36-12.38V74.8h17.26v10.03a1.23 1.23 0 01-.11.26z" class="cls-7"/><path id="svg_312" d="M100.783 77.25h-5.23v.38h5.23z" class="cls-7"/><path id="svg_313" d="M100.583 79.14H95.473h2.55c1.4 0 2.56-.03 2.56 0z" class="cls-7"/><path id="svg_314" d="M100.583 79.98s-1.15.05-2.55.05-2.55 0-2.55-.05 1.14 0 2.55 0 2.55-.02 2.55 0z" class="cls-7"/><path id="svg_315" d="M100.583 80.83H95.473s1.15-.05 2.55-.05 2.56.02 2.56.05z" class="cls-7"/><path id="svg_316" d="M100.583 81.68s-1.15.05-2.55.05-2.55 0-2.55-.05 1.14-.05 2.55-.05 2.55.02 2.55.05z" class="cls-7"/><path id="svg_317" d="M97.773 82.52a8.65 8.65 0 01-1.15 0 8.56 8.56 0 01-1.14 0 6.27 6.27 0 011.14-.05 6.34 6.34 0 011.15.05z" class="cls-7"/><path id="svg_318" d="M110.433 83.17V83a.65.65 0 00-.26-.37.67.67 0 00-.64-.09.67.67 0 000 1.25.7.7 0 00.9-.45 1.37 1.37 0 010-.17.55.55 0 010 .17.73.73 0 01-.25.42.75.75 0 01-.71.11.73.73 0 01-.49-.7.75.75 0 01.49-.71.78.78 0 01.71.12.71.71 0 01.25.41.36.36 0 010 .18z" class="cls-7"/><path id="svg_319" d="M156.663 92.86a2 2 0 010-.22v-.6-2.45-8.86h-17.48l.05-.05v12.18h12.6-12.62V80.63h17.56V92.81z" class="cls-7"/><path id="svg_320" d="M150.393 87.36a2.54 2.54 0 10-3.06 1.88 2.55 2.55 0 003.06-1.88z" class="cls-7"/><path id="svg_321" d="M142.193 91.04a1.37 1.37 0 010-.17.68.68 0 00-.26-.37.7.7 0 00-.64-.09.67.67 0 00-.43.63.68.68 0 00.43.63.73.73 0 00.64-.09.72.72 0 00.26-.37 1.37 1.37 0 010-.17.61.61 0 010 .18.71.71 0 01-.25.41.78.78 0 01-.71.12.76.76 0 010-1.42.78.78 0 01.71.12.71.71 0 01.25.41.61.61 0 010 .18z" class="cls-7"/><path id="svg_322" d="M147.243 86.81v-1.16l1 .58 1 .58-1 .58-1 .58z" class="cls-11"/><g id="svg_323" class="cls-8"><g id="svg_324" class="cls-8"><path id="svg_325" d="M155.173 98.62h-10.77v10.77h10.77z" class="cls-13"/></g></g><path id="svg_326" d="M368.433 68.04h-22.1v9.47h22.1z" class="cls-3"/><path id="svg_327" d="M332.393 86.04h.17c-.09.09 0 0 0 0v-.05a.13.13 0 010-.06v-.05.05a.13.13 0 010 .06l-.17.05z" class="cls-4"/><path id="svg_328" d="M331.693 86.04H331.863h-.17z" class="cls-4"/><path id="svg_329" d="M330.993 86.04H331.163h-.17z" class="cls-4"/><path id="svg_330" d="M330.293 86.04H330.463h-.17z" class="cls-4"/><path id="svg_331" d="M329.593 86.04H329.773h-.18z" class="cls-4"/><path id="svg_332" d="M328.863 86.04H329.043h-.18z" class="cls-4"/><path id="svg_333" d="M328.193 86.04H328.373h-.18z" class="cls-4"/><path id="svg_334" d="M327.493 86.04H327.673h-.18z" class="cls-4"/><path id="svg_335" d="M326.793 86.04H326.973h-.18z" class="cls-4"/><path id="svg_336" d="M326.103 86.04h.17-.17z" class="cls-4"/><path id="svg_337" d="M325.403 86.04H325.573h-.17z" class="cls-4"/><path id="svg_338" d="M324.703 86.04H324.873h-.17z" class="cls-4"/><path id="svg_339" d="M324.003 86.04H324.173h-.17z" class="cls-4"/><path id="svg_340" d="M323.303 86.04H323.473h-.17z" class="cls-4"/><path id="svg_341" d="M322.773 86.04h0-.17.17z" class="cls-4"/><path id="svg_342" d="M322.083 85.82V86c-.09-.09 0 0 0 0h.12-.12s0 .05-.05 0 .02-.18.05-.18z" class="cls-4"/><path id="svg_343" d="M322.083 85.13v.35s-.05-.08-.05-.18.02-.17.05-.17z" class="cls-4"/><path id="svg_344" d="M322.083 84.43v.35s-.05-.08-.05-.18.02-.17.05-.17z" class="cls-4"/><path id="svg_345" d="M322.083 83.74v.35s-.05-.08-.05-.18.02-.17.05-.17z" class="cls-4"/><path id="svg_346" d="M322.083 83.04v.35s-.05-.08-.05-.18.02-.17.05-.17z" class="cls-4"/><path id="svg_347" d="M322.083 82.35v.35s-.05-.08-.05-.17.02-.18.05-.18z" class="cls-4"/><path id="svg_348" d="M322.083 81.65V82s-.05-.08-.05-.17.02-.18.05-.18z" class="cls-4"/><path id="svg_349" d="M322.083 80.96v.35s-.05-.08-.05-.17.02-.18.05-.18z" class="cls-4"/><path id="svg_350" d="M322.083 80.26v.35s-.05-.08-.05-.17.02-.18.05-.18z" class="cls-4"/><path id="svg_351" d="M322.253 79.74s-.08.05-.17.05c.09-.09 0 0 0-.05v0s0 .05.05 0 .12-.02.12 0z" class="cls-4"/><path id="svg_352" d="M322.953 79.74s-.08.05-.18.05-.17 0-.17-.05.08 0 .17 0 .18-.02.18 0z" class="cls-4"/><path id="svg_353" d="M323.653 79.74s-.08.05-.18.05-.17 0-.17-.05.08 0 .17 0 .18-.02.18 0z" class="cls-4"/><path id="svg_354" d="M324.353 79.74s-.08.05-.18.05-.17 0-.17-.05.08 0 .17 0 .18-.02.18 0z" class="cls-4"/><path id="svg_355" d="M325.053 79.74s-.08.05-.18.05-.17 0-.17-.05.08 0 .17 0 .18-.02.18 0z" class="cls-4"/><path id="svg_356" d="M325.753 79.74s-.08.05-.18.05-.17 0-.17-.05.08 0 .17 0 .18-.02.18 0z" class="cls-4"/><path id="svg_357" d="M326.443 79.74s-.07.05-.17.05-.17 0-.17-.05.07 0 .17 0 .17-.02.17 0z" class="cls-4"/><path id="svg_358" d="M327.143 79.74s-.08.05-.17.05-.18 0-.18-.05.08 0 .18 0 .17-.02.17 0z" class="cls-4"/><path id="svg_359" d="M327.863 79.74s-.08.05-.17.05-.18 0-.18-.05.08 0 .18 0 .17-.02.17 0z" class="cls-4"/><path id="svg_360" d="M328.543 79.74s-.08.05-.17.05-.18 0-.18-.05.08 0 .18 0 .17-.02.17 0z" class="cls-4"/><path id="svg_361" d="M329.243 79.74s-.08.05-.17.05-.18 0-.18-.05.08 0 .18 0 .17-.02.17 0z" class="cls-4"/><path id="svg_362" d="M329.943 79.74s-.08.05-.17.05-.18 0-.18-.05.08 0 .18 0 .17-.02.17 0z" class="cls-4"/><path id="svg_363" d="M330.643 79.74s-.08.05-.18.05-.17 0-.17-.05.08 0 .17 0 .18-.02.18 0z" class="cls-4"/><path id="svg_364" d="M331.343 79.74s-.08.05-.18.05-.17 0-.17-.05.08 0 .17 0 .18-.02.18 0z" class="cls-4"/><path id="svg_365" d="M332.043 79.74s-.08.05-.18.05-.17 0-.17-.05.08 0 .17 0 .18-.02.18 0z" class="cls-4"/><path id="svg_366" d="M332.563 79.92v-.18c.09.09 0 0 0 .05H332.393 332.563s0-.05 0 0 .03.13 0 .13z" class="cls-4"/><path id="svg_367" d="M332.563 80.61v-.17-.18.18c0 .1.03.17 0 .17z" class="cls-4"/><path id="svg_368" d="M332.563 81.31s-.05-.08-.05-.17 0-.18.05-.18 0 .08 0 .18.03.17 0 .17z" class="cls-4"/><path id="svg_369" d="M332.563 82.04v-.17-.18.18c0 .1.03.17 0 .17z" class="cls-4"/><path id="svg_370" d="M332.563 82.7v-.17-.18.18c0 .1.03.17 0 .17z" class="cls-4"/><path id="svg_371" d="M332.563 83.39s-.05-.07-.05-.17 0-.17.05-.17 0 .08 0 .17.03.17 0 .17z" class="cls-4"/><path id="svg_372" d="M332.563 84.09v-.17-.18.18c0 .1.03.17 0 .17z" class="cls-4"/><path id="svg_373" d="M332.563 84.78v-.18-.17.17c0 .09.03.18 0 .18z" class="cls-4"/><path id="svg_374" d="M332.563 85.48s-.05-.08-.05-.18 0-.17.05-.17 0 .08 0 .17.03.18 0 .18z" class="cls-4"/><path id="svg_375" d="M322.333 85.7h-.47v.5h.5z" class="cls-4"/><path id="svg_376" d="M322.333 79.49h-.47v.5h.5z" class="cls-4"/><path id="svg_377" d="M332.863 79.49h-.5v.5h.5z" class="cls-4"/><path id="svg_378" d="M332.863 85.67h-.5v.5h.5z" class="cls-4"/><path id="svg_379" d="M327.573 85.67h-.5v.5h.5z" class="cls-4"/><path id="svg_380" d="M327.573 79.49h-.5v.5h.5z" class="cls-4"/><path id="svg_381" d="M322.333 82.62h-.47v.5h.5z" class="cls-4"/><path id="svg_382" d="M332.863 82.62h-.5v.5h.5z" class="cls-4"/><path id="svg_383" d="M388.483 69.86h.17v-.05-.06-.05.05a.13.13 0 000 .06v.05l-.05.05c-.05.05-.12-.02-.12-.05z" class="cls-4"/><path id="svg_384" d="M387.793 69.86h.35s-.08.05-.17.05-.18-.02-.18-.05z" class="cls-4"/><path id="svg_385" d="M387.113 69.86h.34s-.08.05-.17.05-.17-.02-.17-.05z" class="cls-4"/><path id="svg_386" d="M386.593 69.91c.1 0 .18 0 .18-.05s-.08 0-.18 0h-.17s.08.05.17.05z" class="cls-4"/><path id="svg_387" d="M385.913 69.91c.09 0 .17 0 .17-.05s-.08 0-.17 0h-.17s.12.05.17.05z" class="cls-4"/><path id="svg_388" d="M385.053 69.86h.35s-.08.05-.18.05-.17-.02-.17-.05z" class="cls-4"/><path id="svg_389" d="M384.373 69.86h.34s-.07.05-.17.05-.17-.02-.17-.05z" class="cls-4"/><path id="svg_390" d="M383.683 69.86h.35s-.08.05-.17.05-.18-.02-.18-.05z" class="cls-4"/><path id="svg_391" d="M383.003 69.86h.34s-.08.05-.17.05-.17-.02-.17-.05z" class="cls-4"/><path id="svg_392" d="M382.313 69.86h.35s-.08.05-.18.05-.17-.02-.17-.05z" class="cls-4"/><path id="svg_393" d="M381.633 69.86h.34s-.08.05-.17.05-.17-.02-.17-.05z" class="cls-4"/><path id="svg_394" d="M381.113 69.91c.1 0 .18 0 .18-.05s-.08 0-.18 0h-.17s.08.05.17.05z" class="cls-4"/><path id="svg_395" d="M380.433 69.91c.09 0 .17 0 .17-.05s-.08 0-.17 0h-.17s.08.05.17.05z" class="cls-4"/><path id="svg_396" d="M379.573 69.86h.35s-.08.05-.18.05-.17-.02-.17-.05z" class="cls-4"/><path id="svg_397" d="M378.863 69.86h.34s-.08.05-.17.05-.17-.02-.17-.05z" class="cls-4"/><path id="svg_398" d="M378.373 69.91c.1 0 .18 0 .18-.05s-.08 0-.18 0h-.17s.08.05.17.05z" class="cls-4"/><path id="svg_399" d="M377.693 69.91c.09 0 .17 0 .17-.05s-.08 0-.17 0h-.17s.07.05.17.05z" class="cls-4"/><path id="svg_400" d="M376.863 69.86h.35s-.08.05-.18.05-.17-.02-.17-.05z" class="cls-4"/><path id="svg_401" d="M376.153 69.86h.34s-.08.05-.17.05-.17-.02-.17-.05z" class="cls-4"/><path id="svg_402" d="M375.633 69.91c.1 0 .18 0 .18-.05s-.08 0-.18 0h-.17s.08.05.17.05z" class="cls-4"/><path id="svg_403" d="M374.783 69.86h.34s-.08.05-.17.05-.17-.02-.17-.05z" class="cls-4"/><path id="svg_404" d="M374.093 69.86h.34s-.07.05-.17.05-.17-.02-.17-.05z" class="cls-4"/><path id="svg_405" d="M373.413 69.86h.34s-.08.05-.17.05-.17-.02-.17-.05z" class="cls-4"/><path id="svg_406" d="M372.863 69.91c.1 0 .17 0 .17-.05s-.07 0-.17 0h-.17s.11.05.17.05z" class="cls-4"/><path id="svg_407" d="M372.043 69.86h.34s-.08.05-.17.05-.17-.02-.17-.05z" class="cls-4"/><path id="svg_408" d="M371.353 69.86h.35s-.08.05-.18.05-.17-.02-.17-.05z" class="cls-4"/><path id="svg_409" d="M370.863 69.69v.17c-.09-.09 0 0 0 0h.13-.13v-.05-.12z" class="cls-4"/><path id="svg_410" d="M370.863 68.97v0z" class="cls-4"/><path id="svg_411" d="M370.863 68.24v0z" class="cls-4"/><path id="svg_412" d="M370.863 67.88v-.18-.18.36z" class="cls-4"/><path id="svg_413" d="M370.863 67.15v-.18-.18s-.05.08-.05.18.05.18.05.18z" class="cls-4"/><path id="svg_414" d="M370.863 66.04v0z" class="cls-4"/><path id="svg_415" d="M370.863 65.34v.36s-.05-.08-.05-.18.05-.18.05-.18z" class="cls-4"/><path id="svg_416" d="M370.863 64.62v0z" class="cls-4"/><path id="svg_417" d="M370.863 64.26v-.18-.18.36z" class="cls-4"/><path id="svg_418" d="M370.863 63.54v-.18-.19.37z" class="cls-4"/><path id="svg_419" d="M370.863 62.81v-.18-.18s-.05.08-.05.18.05.18.05.18z" class="cls-4"/><path id="svg_420" d="M370.863 61.72v0z" class="cls-4"/><path id="svg_421" d="M370.863 61.04v0z" class="cls-4"/><path id="svg_422" d="M370.863 60.27v.36s-.05-.08-.05-.18.05-.18.05-.18z" class="cls-4"/><path id="svg_423" d="M371.013 59.74s-.08.05-.18.05v-.05 0c.1-.04.18-.02.18 0z" class="cls-4"/><path id="svg_424" d="M371.523 59.78h.18s-.08-.05-.18-.05-.17 0-.17.05.08 0 .17 0z" class="cls-4"/><path id="svg_425" d="M372.383 59.74h-.34s.07-.05.17-.05.17.02.17.05z" class="cls-4"/><path id="svg_426" d="M373.073 59.74h-.35s.08-.05.17-.05.18.02.18.05z" class="cls-4"/><path id="svg_427" d="M373.583 59.78h.17s-.08-.05-.17-.05-.17 0-.17.05.07 0 .17 0z" class="cls-4"/><path id="svg_428" d="M374.433 59.74h-.34s.08-.05.17-.05.17.02.17.05z" class="cls-4"/><path id="svg_429" d="M375.123 59.74h-.34s.07-.05.17-.05.17.02.17.05z" class="cls-4"/><path id="svg_430" d="M375.633 59.78h.17s-.07-.05-.17-.05-.17 0-.17.05.08 0 .17 0z" class="cls-4"/><path id="svg_431" d="M376.323 59.78h.17s-.08-.05-.17-.05-.17 0-.17.05.07 0 .17 0z" class="cls-4"/><path id="svg_432" d="M377.183 59.74h-.35s.08-.05.17-.05.18.02.18.05z" class="cls-4"/><path id="svg_433" d="M377.863 59.74h-.34s.07-.05.17-.05.17.02.17.05z" class="cls-4"/><path id="svg_434" d="M378.553 59.74h-.35s.08-.05.17-.05.18.02.18.05z" class="cls-4"/><path id="svg_435" d="M379.233 59.74h-.34s.08-.05.17-.05.17.02.17.05z" class="cls-4"/><path id="svg_436" d="M379.923 59.74h-.35s.08-.05.17-.05.18.02.18.05z" class="cls-4"/><path id="svg_437" d="M380.603 59.74h-.34s.08-.05.17-.05.17.02.17.05z" class="cls-4"/><path id="svg_438" d="M381.293 59.74h-.35s.08-.05.17-.05.18.02.18.05z" class="cls-4"/><path id="svg_439" d="M381.803 59.78h.17s-.08-.05-.17-.05-.17 0-.17.05.07 0 .17 0z" class="cls-4"/><path id="svg_440" d="M382.663 59.74h-.35s.08-.05.17-.05.18.02.18.05z" class="cls-4"/><path id="svg_441" d="M383.343 59.74h-.34s.07-.05.17-.05.17.02.17.05z" class="cls-4"/><path id="svg_442" d="M383.863 59.78h.18s-.08-.05-.18-.05-.17 0-.17.05.07 0 .17 0z" class="cls-4"/><path id="svg_443" d="M384.543 59.78h.17s-.08-.05-.17-.05-.17 0-.17.05.08 0 .17 0z" class="cls-4"/><path id="svg_444" d="M385.403 59.74h-.35s.08-.05.17-.05.18.02.18.05z" class="cls-4"/><path id="svg_445" d="M386.083 59.74h-.34s.07-.05.17-.05.17.02.17.05z" class="cls-4"/><path id="svg_446" d="M386.593 59.78h.17s-.07-.05-.17-.05-.17 0-.17.05.08 0 .17 0z" class="cls-4"/><path id="svg_447" d="M387.453 59.74h-.34s.07-.05.17-.05.17.02.17.05z" class="cls-4"/><path id="svg_448" d="M388.143 59.74h-.35s.08-.05.17-.05.18.02.18.05z" class="cls-4"/><path id="svg_449" d="M388.653 59.91v-.17h-.12.12l.05.05c0 .05-.02.12-.05.12z" class="cls-4"/><path id="svg_450" d="M388.653 60.63v-.18-.18s.05.08.05.18-.02.18-.05.18z" class="cls-4"/><path id="svg_451" d="M388.653 61.37v-.19V61s.05.08.05.18-.02.19-.05.19z" class="cls-4"/><path id="svg_452" d="M388.653 62.04v-.18-.18s.05.08.05.18-.02.18-.05.18z" class="cls-4"/><path id="svg_453" d="M388.653 62.81v-.18-.18s.05.08.05.18-.02.18-.05.18z" class="cls-4"/><path id="svg_454" d="M388.653 63.54v-.18-.19s.05.08.05.19-.02.18-.05.18z" class="cls-4"/><path id="svg_455" d="M388.663 64.26v-.18-.18.18c0 .1.02.18 0 .18z" class="cls-4"/><path id="svg_456" d="M388.653 65.04v-.19-.18s.05.08.05.18-.02.19-.05.19z" class="cls-4"/><path id="svg_457" d="M388.653 65.7v-.18-.18s.05.08.05.18-.02.18-.05.18z" class="cls-4"/><path id="svg_458" d="M388.653 66.43v-.18-.18s.05.08.05.18-.02.18-.05.18z" class="cls-4"/><path id="svg_459" d="M388.653 67.15v-.18-.18s.05.08.05.18-.02.18-.05.18z" class="cls-4"/><path id="svg_460" d="M388.653 67.88v-.18-.18s.05.08.05.18-.02.18-.05.18z" class="cls-4"/><path id="svg_461" d="M388.653 68.6v-.18-.18s.05.08.05.18-.02.18-.05.18z" class="cls-4"/><path id="svg_462" d="M388.653 69.33v-.18-.18s.05.08.05.18-.02.18-.05.18z" class="cls-4"/><path id="svg_463" d="M371.083 69.61h-.5v.5h.5z" class="cls-4"/><path id="svg_464" d="M371.083 59.49h-.5v.5h.5z" class="cls-4"/><path id="svg_465" d="M379.993 69.61h-.5v.5h.5z" class="cls-4"/><path id="svg_466" d="M380.243 59.49h-.5v.5h.5z" class="cls-4"/><path id="svg_467" d="M371.083 64.37h-.5v.5h.5z" class="cls-4"/><path id="svg_468" d="M344.863 106.91h-19.6v7.81h19.6z" class="cls-3"/><path id="svg_469" d="M386.193 88.27h-37.59v23.54h37.59z" class="cls-5"/><path id="svg_470" d="M386.193 111.81v-.42-5.96-17.15h-37.59v23.53h27.06-27.09V88.27h37.68v23.12c-.05.28-.06.42-.06.42z" class="cls-6"/><path id="svg_471" d="M381.923 91.26h-10.77v10.78h10.77z" class="cls-6"/><path id="svg_472" d="M380.443 103.54s-1.75.05-3.91.05-3.91 0-3.91-.05 1.75-.05 3.91-.05 3.91.03 3.91.05z" class="cls-6"/><path id="svg_473" d="M382.783 104.44h-12.51 6.26c3.46 0 6.25-.03 6.25 0z" class="cls-6"/><path id="svg_474" d="M382.783 105.53h-12.51s2.8-.05 6.26-.05 6.25.02 6.25.05z" class="cls-6"/><path id="svg_475" d="M382.783 106.63h-12.51 6.26c3.46 0 6.25-.02 6.25 0z" class="cls-6"/><path id="svg_476" d="M382.783 107.72h-12.51s2.8-.05 6.26-.05 6.25.02 6.25.05z" class="cls-6"/><path id="svg_477" d="M382.783 108.81h-12.51 6.26c3.46 0 6.25-.03 6.25 0z" class="cls-6"/><use class="cls-7" href="#svg_478"/><g id="svg_479" class="cls-8"><g id="svg_480" class="cls-8"><use id="svg_481" class="cls-9" href="#svg_478"/></g></g><path id="svg_482" d="M363.453 103.54s-1.76.05-3.92.05-3.91 0-3.91-.05 1.75-.05 3.91-.05 3.92.03 3.92.05z" class="cls-7"/><path id="svg_483" d="M365.793 104.44h-12.51 6.25c3.45 0 6.26-.03 6.26 0z" class="cls-7"/><path id="svg_484" d="M365.793 105.53h-12.51s2.8-.05 6.25-.05 6.26.02 6.26.05z" class="cls-7"/><path id="svg_485" d="M365.793 106.63h-12.51 6.25c3.45 0 6.26-.02 6.26 0z" class="cls-7"/><path id="svg_486" d="M365.793 107.72h-12.51s2.8-.05 6.25-.05 6.26.02 6.26.05z" class="cls-7"/><path id="svg_487" d="M365.793 108.81h-12.51 6.25c3.45 0 6.26-.03 6.26 0z" class="cls-7"/><path id="svg_488" d="M381.673 98.28h-.06l-.15-.15-.58-.54-2-1.94h.06l-2.08 2.3-.08.1-1.34-1.01h.06l-2.79 2.49-.82.72-.22.19-.09.06.07-.07.22-.2.8-.74 2.77-2.52 1.28 1.05h-.06l.08-.1c.75-.84 1.46-1.64 2.07-2.34l2 2 .56.57.15.15z" class="cls-10"/><path id="svg_489" d="M374.863 94.71s0-.09-.18-.21a1.11 1.11 0 00-.67-.32 1.13 1.13 0 00-1.25 1 1.17 1.17 0 00.15.68 1.13 1.13 0 00.51.46 1.19 1.19 0 00.64.08 1.12 1.12 0 00.84-.66 1.16 1.16 0 00.06-.74c-.05-.18-.11-.27-.1-.27s0 0 0 .06a.77.77 0 01.09.2 1.15 1.15 0 010 .77 1.18 1.18 0 01-2.13.14 1.2 1.2 0 01.12-1.36 1.21 1.21 0 011.07-.41 1.18 1.18 0 01.68.36.69.69 0 01.13.17z" class="cls-10"/><path id="svg_490" d="M344.803 88.24h-19.6v8h19.6z" class="cls-11"/><path id="svg_491" d="M344.803 96.2v-.16-2-5.82h-19.6v8-8h19.66v7.96z" class="cls-6"/><path id="svg_492" d="M331.543 90.13h-4.68v4.65h4.65z" class="cls-6"/><path id="svg_493" d="M343.443 91.87h-10.88 5.44c3 0 5.44-.02 5.44 0z" class="cls-6"/><path id="svg_494" d="M343.443 92.83h-10.88 5.44c3 0 5.44-.02 5.44 0z" class="cls-6"/><path id="svg_495" d="M339.573 93.8z" class="cls-6"/><path id="svg_496" d="M344.803 116.54h-19.6v8h19.6z" class="cls-11"/><path id="svg_497" d="M344.803 124.49v-.14-2-5.82h-19.6v8h14-14.03v-8h19.69v7.96z" class="cls-6"/><path id="svg_498" d="M331.543 118.38h-4.68v4.66h4.65z" class="cls-7"/><path id="svg_499" d="M343.443 101.04h-10.88 10.88z" class="cls-6"/><path id="svg_500" d="M343.443 102.04h-10.88 10.88z" class="cls-6"/><path id="svg_501" d="M339.563 103.04h-7 7z" class="cls-6"/><path id="svg_502" d="M344.453 105.52H344.633c-.09 0-.18.03-.18 0z" class="cls-6"/><path id="svg_503" d="M343.753 105.52H343.933c-.09 0-.18.03-.18 0z" class="cls-6"/><path id="svg_504" d="M343.053 105.52H343.233c-.09 0-.18.03-.18 0z" class="cls-6"/><path id="svg_505" d="M342.353 105.52H342.533c-.09 0-.18.03-.18 0z" class="cls-6"/><path id="svg_506" d="M341.663 105.52H341.833c-.1 0-.17.03-.17 0z" class="cls-6"/><path id="svg_507" d="M340.963 105.52H341.133c-.1 0-.17.03-.17 0z" class="cls-6"/><path id="svg_508" d="M340.263 105.52H340.433c-.1 0-.17.03-.17 0z" class="cls-6"/><path id="svg_509" d="M339.563 105.52H339.733c-.1 0-.17.03-.17 0z" class="cls-6"/><path id="svg_510" d="M338.863 105.52H339.033c-.1 0-.17.03-.17 0z" class="cls-6"/><path id="svg_511" d="M338.163 105.52H338.343c-.09 0-.18.03-.18 0z" class="cls-6"/><path id="svg_512" d="M337.463 105.52H337.643c-.09 0-.18.03-.18 0z" class="cls-6"/><path id="svg_513" d="M336.763 105.52H336.943c-.09 0-.18.03-.18 0z" class="cls-6"/><path id="svg_514" d="M336.073 105.52H336.243c-.1 0-.17.03-.17 0z" class="cls-6"/><path id="svg_515" d="M335.373 105.52H335.543c-.1 0-.17.03-.17 0z" class="cls-6"/><path id="svg_516" d="M334.673 105.52H334.843c-.1 0-.17.03-.17 0z" class="cls-6"/><path id="svg_517" d="M333.973 105.52H334.143c-.1 0-.17.03-.17 0z" class="cls-6"/><path id="svg_518" d="M333.273 105.52H333.453c-.09 0-.18.03-.18 0z" class="cls-6"/><path id="svg_519" d="M332.573 105.52H332.753c-.09 0-.18.03-.18 0z" class="cls-6"/><path id="svg_520" d="M331.863 105.52H332.043c-.09 0-.18.03-.18 0z" class="cls-6"/><path id="svg_521" d="M331.173 105.52H331.353c-.1 0-.18.03-.18 0z" class="cls-6"/><path id="svg_522" d="M330.483 105.52H330.653c-.1 0-.17.03-.17 0z" class="cls-6"/><path id="svg_523" d="M329.783 105.52H329.953c-.1 0-.17.03-.17 0z" class="cls-6"/><path id="svg_524" d="M329.083 105.52H329.253c-.1 0-.17.03-.17 0z" class="cls-6"/><path id="svg_525" d="M328.383 105.52H328.563c-.09 0-.18.03-.18 0z" class="cls-6"/><path id="svg_526" d="M327.683 105.52H327.863c-.09 0-.18.03-.18 0z" class="cls-6"/><path id="svg_527" d="M326.983 105.52H327.163c-.09 0-.18.03-.18 0z" class="cls-6"/><path id="svg_528" d="M326.283 105.52H326.463c-.1 0-.18.03-.18 0z" class="cls-6"/><path id="svg_529" d="M325.583 105.52H325.763c-.1 0-.18.03-.18 0z" class="cls-6"/><path id="svg_530" d="M325.203 105.21v.18a.46.46 0 010 .14.28.28 0 010-.14c-.04-.1-.02-.18 0-.18z" class="cls-6"/><path id="svg_531" d="M325.203 104.51V104.68c0-.1-.02-.17 0-.17z" class="cls-6"/><path id="svg_532" d="M325.203 103.81V103.99c0-.09-.02-.18 0-.18z" class="cls-6"/><path id="svg_533" d="M325.203 103.12v.17c0-.1-.02-.17 0-.17z" class="cls-6"/><path id="svg_534" d="M325.203 102.41V102.59c0-.09-.02-.18 0-.18z" class="cls-6"/><path id="svg_535" d="M325.203 101.72V101.89c0-.1-.02-.17 0-.17z" class="cls-6"/><path id="svg_536" d="M325.203 101.04V101.21c0-.1-.02-.17 0-.17z" class="cls-6"/><path id="svg_537" d="M325.203 100.31V100.49c0-.1-.02-.18 0-.18z" class="cls-6"/><path id="svg_538" d="M325.203 99.62v.17c0-.1-.02-.17 0-.17z" class="cls-6"/><path id="svg_539" d="M325.203 98.92V99.09c0-.1-.02-.17 0-.17z" class="cls-6"/><path id="svg_540" d="M325.203 98.22V98.4c0-.09-.02-.18 0-.18z" class="cls-6"/><path id="svg_541" d="M325.363 97.67s-.07.05-.15.05v-.05.17s-.05-.08-.05-.17v-.07c.13.03.2.05.2.07z" class="cls-6"/><path id="svg_542" d="M326.063 97.68h-.35s.08-.05.17-.05.18.02.18.05z" class="cls-6"/><path id="svg_543" d="M326.753 97.68h-.35s.08-.05.18-.05.17.02.17.05z" class="cls-6"/><path id="svg_544" d="M327.453 97.68h-.35s.08-.05.18-.05.17.02.17.05z" class="cls-6"/><path id="svg_545" d="M328.153 97.68h-.35s.08-.05.18-.05.17.02.17.05z" class="cls-6"/><path id="svg_546" d="M328.863 97.68h-.35s.08-.05.18-.05.17.02.17.05z" class="cls-6"/><path id="svg_547" d="M329.553 97.68h-.35s.08-.05.17-.05.18.02.18.05z" class="cls-6"/><path id="svg_548" d="M330.253 97.68h-.35s.08-.05.17-.05.18.02.18.05z" class="cls-6"/><path id="svg_549" d="M330.953 97.68h-.35s.08-.05.17-.05.18.02.18.05z" class="cls-6"/><path id="svg_550" d="M331.653 97.68h-.35s.08-.05.17-.05.18.02.18.05z" class="cls-6"/><path id="svg_551" d="M332.353 97.68h-.35s.07-.05.17-.05.18.02.18.05z" class="cls-6"/><path id="svg_552" d="M333.043 97.68h-.35s.08-.05.18-.05.17.02.17.05z" class="cls-6"/><path id="svg_553" d="M333.743 97.68h-.35s.08-.05.18-.05.17.02.17.05z" class="cls-6"/><path id="svg_554" d="M334.443 97.68h-.35s.08-.05.18-.05.17.02.17.05z" class="cls-6"/><path id="svg_555" d="M335.143 97.68h-.35s.08-.05.17-.05.18.02.18.05z" class="cls-6"/><path id="svg_556" d="M335.863 97.68h-.35s.08-.05.17-.05.18.02.18.05z" class="cls-6"/><path id="svg_557" d="M336.543 97.68h-.35s.08-.05.17-.05.18.02.18.05z" class="cls-6"/><path id="svg_558" d="M337.233 97.68h-.34s.07-.05.17-.05.17.02.17.05z" class="cls-6"/><path id="svg_559" d="M337.933 97.68h-.34s.07-.05.17-.05.17.02.17.05z" class="cls-6"/><path id="svg_560" d="M338.633 97.68h-.35s.08-.05.18-.05.17.02.17.05z" class="cls-6"/><path id="svg_561" d="M339.333 97.68h-.35s.08-.05.18-.05.17.02.17.05z" class="cls-6"/><path id="svg_562" d="M340.033 97.68h-.35s.08-.05.18-.05.17.02.17.05z" class="cls-6"/><path id="svg_563" d="M340.733 97.68h-.35s.08-.05.18-.05.17.02.17.05z" class="cls-6"/><path id="svg_564" d="M341.433 97.68h-.35s.08-.05.17-.05.18.02.18.05z" class="cls-6"/><path id="svg_565" d="M342.133 97.68h-.35s.08-.05.17-.05.18.02.18.05z" class="cls-6"/><path id="svg_566" d="M342.863 97.68h-.35s.07-.05.17-.05.18.02.18.05z" class="cls-6"/><path id="svg_567" d="M343.523 97.68h-.34s.07-.05.17-.05.17.02.17.05z" class="cls-6"/><path id="svg_568" d="M344.223 97.68h-.35s.08-.05.18-.05.17.02.17.05z" class="cls-6"/><path id="svg_569" d="M344.803 97.8v-.12H344.573s.08-.05.18-.05h.1c.01.12.01.17-.05.17z" class="cls-6"/><path id="svg_570" d="M344.803 98.49s-.05-.08-.05-.18 0-.17.05-.17 0 .08 0 .17.06.18 0 .18z" class="cls-6"/><path id="svg_571" d="M344.803 99.19s-.05-.08-.05-.17 0-.18.05-.18 0 .08 0 .18.06.17 0 .17z" class="cls-6"/><path id="svg_572" d="M344.803 99.89s-.05-.07-.05-.17 0-.18.05-.18 0 .08 0 .18.06.17 0 .17z" class="cls-6"/><path id="svg_573" d="M344.803 100.59s-.05-.08-.05-.17 0-.18.05-.18 0 .08 0 .18.06.17 0 .17z" class="cls-6"/><path id="svg_574" d="M344.803 101.29s-.05-.08-.05-.18 0-.17.05-.17 0 .07 0 .17.06.18 0 .18z" class="cls-6"/><path id="svg_575" d="M344.803 102.04s-.05-.08-.05-.17 0-.18.05-.18 0 .08 0 .18.06.17 0 .17z" class="cls-6"/><path id="svg_576" d="M344.803 102.69s-.05-.08-.05-.18 0-.17.05-.17 0 .08 0 .17.06.18 0 .18z" class="cls-6"/><path id="svg_577" d="M344.803 103.38s-.05-.08-.05-.17 0-.18.05-.18 0 .08 0 .18.06.17 0 .17z" class="cls-6"/><path id="svg_578" d="M344.803 104.09s-.05-.08-.05-.18 0-.17.05-.17 0 .08 0 .17.06.18 0 .18z" class="cls-6"/><path id="svg_579" d="M344.803 104.78s-.05-.08-.05-.17 0-.18.05-.18 0 .08 0 .18.06.17 0 .17z" class="cls-6"/><path id="svg_580" d="M344.803 105.48s-.05-.08-.05-.17 0-.18.05-.18 0 .08 0 .18.06.17 0 .17z" class="cls-6"/><path id="svg_581" d="M331.683 104.15s.08-.05.18-.05c-.09.09 0 0 0 .05a.13.13 0 000-.06v-.05.05a.13.13 0 000 .06c-.1.04-.18.02-.18 0z" class="cls-6"/><path id="svg_582" d="M331.033 104.14h.16c-.09 0-.16.03-.16 0z" class="cls-6"/><path id="svg_583" d="M330.383 104.14h.16c-.09 0-.16.03-.16 0z" class="cls-6"/><path id="svg_584" d="M329.733 104.14h.16c-.09 0-.16.03-.16 0z" class="cls-6"/><path id="svg_585" d="M329.073 104.14h.16c-.09 0-.16.03-.16 0z" class="cls-6"/><path id="svg_586" d="M328.423 104.14h.16c-.09 0-.16.03-.16 0z" class="cls-6"/><path id="svg_587" d="M327.773 104.14h.16c-.09 0-.16.03-.16 0z" class="cls-6"/><path id="svg_588" d="M327.123 104.14h.16c-.09 0-.16.03-.16 0z" class="cls-6"/><path id="svg_589" d="M326.623 103.97v.18c-.09-.1 0 0 0-.05h.12-.12s0 .05 0 0-.03-.13 0-.13z" class="cls-6"/><path id="svg_590" d="M326.623 103.26v.18c0-.1-.03-.18 0-.18z" class="cls-6"/><path id="svg_591" d="M326.623 102.56V102.74c0-.09-.03-.18 0-.18z" class="cls-6"/><path id="svg_592" d="M326.623 101.86V102.03c0-.1-.03-.17 0-.17z" class="cls-6"/><path id="svg_593" d="M326.623 101.15v.18c0-.1-.03-.18 0-.18z" class="cls-6"/><path id="svg_594" d="M326.623 100.45V100.63c0-.1-.03-.18 0-.18z" class="cls-6"/><path id="svg_595" d="M326.623 99.75V99.92c0-.1-.03-.17 0-.17z" class="cls-6"/><path id="svg_596" d="M326.793 99.22h-.17a.43.43 0 010 .05v0a.11.11 0 000-.05s-.05 0 0-.05.17.02.17.05z" class="cls-6"/><path id="svg_597" d="M327.443 99.22h-.32s.07-.05.16-.05.16.02.16.05z" class="cls-6"/><path id="svg_598" d="M328.103 99.22h-.33s.07-.05.16-.05.17.02.17.05z" class="cls-6"/><path id="svg_599" d="M328.753 99.22h-.33s.07-.05.16-.05.17.02.17.05z" class="cls-6"/><path id="svg_600" d="M329.403 99.22h-.33s.08-.05.17-.05.16.02.16.05z" class="cls-6"/><path id="svg_601" d="M330.053 99.22h-.32s.07-.05.16-.05.16.02.16.05z" class="cls-6"/><path id="svg_602" d="M330.703 99.22h-.32s.07-.05.16-.05.16.02.16.05z" class="cls-6"/><path id="svg_603" d="M331.363 99.22h-.33s.08-.05.17-.05.16.02.16.05z" class="cls-6"/><path id="svg_604" d="M331.863 99.39v-.17c.09.09 0 0 0 0h-.13.13V99.39z" class="cls-6"/><path id="svg_605" d="M331.863 100.1v-.18-.17.35z" class="cls-6"/><path id="svg_606" d="M331.863 100.8v-.17-.18.35z" class="cls-6"/><path id="svg_607" d="M331.863 101.51v-.18-.18.36z" class="cls-6"/><path id="svg_608" d="M331.863 102.21v-.18-.18.36z" class="cls-6"/><path id="svg_609" d="M331.863 102.91v-.17-.18.35z" class="cls-6"/><path id="svg_610" d="M331.863 103.62v-.18-.18.36z" class="cls-6"/><path id="svg_611" d="M326.743 104.04h-.25v.25h.25z" class="cls-6"/><path id="svg_612" d="M326.743 99.1h-.25v.25h.25z" class="cls-6"/><path id="svg_613" d="M331.983 99.1h-.25v.25h.25z" class="cls-6"/><path id="svg_614" d="M331.983 103.9h-.25v.25h.25z" class="cls-6"/><path id="svg_615" d="M329.233 104.04h-.24v.25h.24z" class="cls-6"/><path id="svg_616" d="M329.363 99.1h-.25v.25h.25z" class="cls-6"/><path id="svg_617" d="M326.743 101.69h-.25v.25h.25z" class="cls-6"/><path id="svg_618" d="M331.863 101.56h-.25v.25h.25z" class="cls-6"/><use class="cls-12" href="#svg_619"/><g id="svg_620" class="cls-8"><g id="svg_621" class="cls-8"><use id="svg_622" class="cls-9" href="#svg_619"/></g></g><path id="svg_623" d="M323.143 64.21a.33.33 0 100-.66.33.33 0 100 .66z" class="cls-12"/><path id="svg_624" d="M324.193 64.21a.33.33 0 10-.34-.33.34.34 0 00.34.33z" class="cls-12"/><path id="svg_625" d="M325.583 63.88a.34.34 0 01-.34.33.33.33 0 110-.66.34.34 0 01.34.33z" class="cls-12"/><path id="svg_626" d="M336.393 74.12v-.29-.82-2.91h-5v4h4.93H331.383v-4.06s.06-.06 0-.05h5.07v4.05s-.06.09-.06.08z" class="cls-7"/><path id="svg_627" d="M335.753 72.64a2.32 2.32 0 01-.31-.27c-.2-.18-.47-.43-.79-.74h.06l-.8.92-.5-.41h.06c-.43.39-.81.72-1.09 1l-.32.27-.12.09a.71.71 0 01.1-.12l.31-.29 1.06-1 .5.41h-.05l.8-.91.76.77a2.53 2.53 0 01.33.28z" class="cls-7"/><path id="svg_628" d="M333.123 71.26l-.08-.07a.42.42 0 00-.26-.11.41.41 0 00-.4.61.41.41 0 00.42.19.42.42 0 00.31-.23.49.49 0 000-.28v-.11a.34.34 0 01.06.1.47.47 0 010 .31.49.49 0 01-.35.3.49.49 0 01-.46-.8.48.48 0 01.43-.16.43.43 0 01.27.15.29.29 0 01.06.1z" class="cls-7"/><path id="svg_629" d="M330.783 73.04l-.08-.07a.39.39 0 00-.25-.12.44.44 0 00-.36.15.41.41 0 000 .46.39.39 0 00.41.2.41.41 0 00.32-.24.54.54 0 000-.27v-.11a.34.34 0 01.06.1.42.42 0 010 .31.46.46 0 01-.35.29.48.48 0 01-.51-.23.48.48 0 01.49-.72.44.44 0 01.27.15c-.01.04.01.1 0 .1z" class="cls-7"/><path id="svg_630" d="M333.863 74.3a.62.62 0 000 .09v1.18h-4.79v-.05-3.7h1.35-1.35v3.7h-.05 4.74V74.34a.31.31 0 01.1-.04z" class="cls-7"/><path id="svg_631" d="M331.103 73.87a8.22 8.22 0 01-.73.69 6.46 6.46 0 01-.76.65 4.36 4.36 0 01.7-.72 4.26 4.26 0 01.79-.62z" class="cls-7"/><path id="svg_632" d="M332.113 74.89s-.15-.07-.28-.22-.2-.29-.18-.31.12.11.25.25.23.26.21.28z" class="cls-7"/><path id="svg_633" d="M338.023 77.78a1.31 1.31 0 010-.19v-.55-2.06-7.47h-17.16v-.05 10.25h12.36-12.39V67.49h17.26v10.2z" class="cls-7"/><path id="svg_634" d="M327.463 69.94h-5.24v.38h5.24z" class="cls-7"/><path id="svg_635" d="M327.253 71.83h-5.1s1.14-.05 2.55-.05 2.55.02 2.55.05z" class="cls-7"/><path id="svg_636" d="M327.253 72.67s-1.14.05-2.55.05-2.55 0-2.55-.05 1.14 0 2.55 0 2.55-.02 2.55 0z" class="cls-7"/><path id="svg_637" d="M327.253 73.52h-5.1s1.14-.05 2.55-.05 2.55.02 2.55.05z" class="cls-7"/><path id="svg_638" d="M327.253 74.37h-5.1s1.14-.05 2.55-.05 2.55.02 2.55.05z" class="cls-7"/><path id="svg_639" d="M324.443 75.2a6.34 6.34 0 01-1.15 0 6.27 6.27 0 01-1.14 0 8.56 8.56 0 011.14 0 8.65 8.65 0 011.15 0z" class="cls-7"/><path id="svg_640" d="M337.103 75.86a1.37 1.37 0 010-.17.68.68 0 00-.26-.37.67.67 0 00-1.07.54.68.68 0 00.43.63.73.73 0 00.64-.09.72.72 0 00.26-.37 1.37 1.37 0 010-.17.41.41 0 010 .18.74.74 0 01-.26.41.75.75 0 110-1.18.74.74 0 01.26.41c.02.12.01.18 0 .18z" class="cls-7"/><path id="svg_641" d="M383.333 85.55a2 2 0 010-.22v-.65-2.45-8.86h-17.47v12.18h12.6-12.62V73.32h17.52v11.96z" class="cls-7"/><path id="svg_642" d="M377.063 80.04a2.54 2.54 0 10-3.06 1.88 2.54 2.54 0 003.06-1.88z" class="cls-7"/><path id="svg_643" d="M368.863 83.69v-.17a.65.65 0 00-.26-.37.67.67 0 00-1.07.54.66.66 0 00.43.62.7.7 0 00.9-.45 1.37 1.37 0 010-.17.37.37 0 010 .17.76.76 0 01-.26.42.75.75 0 01-1.2-.59.74.74 0 01.5-.71.73.73 0 01.7.12.74.74 0 01.26.41.43.43 0 010 .18z" class="cls-7"/><path id="svg_644" d="M373.913 79.5v-1.17l1 .59 1 .58-1 .58-1 .58z" class="cls-11"/><g id="svg_645" class="cls-8"><g id="svg_646" class="cls-8"><path id="svg_647" d="M381.863 91.3h-10.79v10.74h10.79z" class="cls-13"/></g></g><path id="svg_648" fill="url(#linear-gradient)" d="M468.193 310.2l-3.55 13.22 3.26 5.79 9.75-.64s-3-5.17-3-7.45-.64-12.28-.64-12.28z"/><path id="svg_649" d="M482.003 209.04s11.05-7.57 15.76-1.77c3.4 4.16-22.9 103.77-22.9 103.77h-9s6.53-93.86 16.14-102z" class="cls-7"/><path id="svg_650" fill="#765a95" d="M467.413 327.22c1.3-3 5.88-3.36 8.48 0-2.03-.67-4.77-2.58-8.48 0z"/><path id="svg_651" fill="url(#linear-gradient-2)" d="M147.093 223.53c-1.74 2.63-3 10.94-6 11.57-2.65.56.7-6.56 2.5-10.07z"/><path id="svg_652" d="M311.573 324.38c153.26 0 277.5 5.08 277.5 11.34s-124.21 11.32-277.5 11.32-277.5-5.07-277.5-11.33" class="cls-7"/><path id="svg_653" d="M281.953 177.04l20.28 1.71-3.58 47h-5.26l1.14-42.32-12.58-3.12z" class="cls-17"/><path id="svg_654" d="M298.653 225.81l3.58-47h-5.64l-1.94 47z" class="cls-17"/><path id="svg_655" d="M237.333 177.04l-20.28 1.71 3.58 47h5.23l-1.15-42.32 12.59-3.12z" class="cls-17"/><path id="svg_656" d="M220.633 225.81l-3.58-47h5.64l1.94 47z" class="cls-17"/><path id="svg_657" d="M321.083 187.89h-4.22v150.5h4.24z" class="cls-18"/><path id="svg_658" d="M198.713 187.8h-65.66v146.64h65.66z" class="cls-18"/><path id="svg_659" d="M198.713 334.45h12.69V187.81h-12.69z" class="cls-18"/><path id="svg_660" d="M142.283 231.04h53.37v-36.6l-1.44 35z" class="cls-7"/><path id="svg_661" d="M141.183 277.43h53.36V240.8l-1.43 35z" class="cls-7"/><path id="svg_662" d="M171.233 203.97c0 1.8-2 3.26-4.39 3.26s-4.4-1.46-4.4-3.26 2-3.26 4.4-3.26 4.39 1.46 4.39 3.26z" class="cls-7"/><path id="svg_663" d="M172.653 257.64c0 1.92-2.21 3.49-4.93 3.49s-4.93-1.57-4.93-3.49 2.21-3.49 4.93-3.49 4.93 1.56 4.93 3.49z" class="cls-7"/><path id="svg_664" d="M141.043 323.42h53.36v-36.63l-1.43 35z" class="cls-7"/><path id="svg_665" d="M172.513 303.62c0 1.93-2.21 3.49-4.93 3.49s-4.93-1.56-4.93-3.49 2.21-3.49 4.93-3.49 4.93 1.57 4.93 3.49z" class="cls-7"/><path id="svg_666" fill="#a6777a" d="M198.713 187.8h-65.66v7.87h65.66z"/><path id="svg_667" fill="#3a1942" d="M211.403 187.8h-12.64v7.87h12.64z"/><path id="svg_668" d="M259.863 223.04h-4.87l-.48 86.35h4.87z" class="cls-17"/><path id="svg_669" d="M287.263 145.57s12.72-24.74 6.81-30.15c-12.42-11.36-50.9-13.44-69.78 0-6.26 4.46 5.09 21.45 6.79 28.6a121 121 0 011.78 47.11l-3.16 19.85h59.16l-3.13-20.17a121.28 121.28 0 011.53-45.24z" class="cls-17"/><path id="svg_670" d="M294.073 115.43c-13.2-10-49.78-12.08-69.78 0 18.21-14.85 57.4-12.68 69.78 0z" class="cls-17"/><path id="svg_671" d="M215.363 225.81l4.84-9.39 9.5-5.43h59.16l8.92 6.35 2.53 8.47z" class="cls-17"/><path id="svg_672" d="M220.203 216.42c28.8 0 54.54-.57 77.53.92 2.21.14 2.53 8.47 2.53 8.47h-84.9s2.2-9.39 4.84-9.39z" class="cls-17"/><path id="svg_673" d="M219.863 330.95l36-21.19-.12 21.39h2.58l.14-21.11 37.17 21.33h4l-40.52-23.26-.84.64h-2.41v.18l-1.1-.82-38.8 22.82z" class="cls-17"/><path id="svg_674" d="M261.283 310.73l-8.21-.05v-5.2a4.1 4.1 0 118.2 0z" class="cls-17"/><path id="svg_675" fill="#b0b4d2" d="M254.773 111.98s-10.22 1.05-13.7 2c-.56.15.29 20.16.42 23.93.39 11.74 10.35 35.93 3.58 55.44-2.46 7.07 32.61 5.27 30.66-.15-.91-2.54-4.42-9.45-4.64-18.54-.25-10.33 2.9-23.11 3.69-29.27 1.55-12.15.44-28.19-.35-31.75a176.85 176.85 0 00-19.66-1.66z"/><path id="svg_676" fill="#636685" d="M275.743 193.22c-2.19-4.65-3.8-8.24-4.73-13.53-2.29-12.66 2.69-26.26 4.44-42.59.45 19-7.92 32.11-.87 52.74.38 1.12.8 2.2 1.16 3.38z"/><path id="svg_677" d="M317.113 102.84a10.91 10.91 0 014.11 0 45 45 0 016.37 2.53l-3.94.74a5.82 5.82 0 00-3.21-1.45c-2.31-.41-4.32-.83-3.33-1.82z" class="cls-23"/><path id="svg_678" d="M328.613 105.77c-.79-.79-11.61-1.13-11.61.9s8.23-.56 8.23 1.47-2.15 6.9-4.37 6.9-4.4-2.25-4.4-3.38 1.53-3.1.68-3.94-4.29 4.17-2.82 7.66 5.3 6 4.06 9.25-18 17.33-20.43 17.33a3 3 0 01-1.9-1 67.35 67.35 0 00-1.25 10 9 9 0 002.84.52c8 0 23-19 26.5-25.88s5.26-19.04 4.47-19.83z" class="cls-23"/><path id="svg_679" d="M274.433 113.66s-2.19 12.89 1.12 19.81c1.63 3.42 11.43 15 19.21 17.52a79.77 79.77 0 011.67-10.79c-5.57-5.77-22-26.54-22-26.54z" class="cls-24"/><path id="svg_680" fill="#dfe1ed" d="M296.433 140.2c-6.51-5.62-17.12-18.93-22-26.54 8.76 9.05 21.18 25.52 22 26.54z"/><path id="svg_681" d="M204.413 94.86a11.27 11.27 0 00-4.17-.74 46.78 46.78 0 00-6.9 1.43l3.86 1.45a5.92 5.92 0 013.51-.89c2.42 0 4.52-.07 3.7-1.25z" class="cls-23"/><path id="svg_682" d="M216.773 137.53c-1.64 1.95-16.83-17.33-17.5-20.86s3.65-5.36 5.76-8.63-.48-9-1.49-8.27.18 3 0 4.12-2.77 3-5.06 2.64-3.58-5.69-3.22-7.75 8.23 2 8.59 0-10.65-3.64-11.59-3-1.29 13.31 1 20.9 15.34 29.75 23.44 31.19a11.12 11.12 0 005.75-.87 115.15 115.15 0 00-4.59-10.63c-.54.56-.93.97-1.09 1.16z" class="cls-23"/><path id="svg_683" d="M241.093 114.04s-18.32 17.4-23.23 22.34a115 115 0 014.59 10.66c7.92-3 17.4-12.36 18.71-15.57 1.7-4.12-.07-17.43-.07-17.43z" class="cls-24"/><path id="svg_684" d="M245.523 191.43s-15.82 13.34-15.82 19.61-2 16 5.65 16 36.83 4.88 41.7 0 9.19-11.83 9.19-18.34-11-17.19-11-17.19z" class="cls-18"/><path id="svg_685" d="M275.253 191.43h-29.74a115.42 115.42 0 00-9 8.64c6.25-2.23 14.92-3.62 26.75-2.58a108.61 108.61 0 0119.91 3.41 64.56 64.56 0 00-7.92-9.47z" class="cls-7"/><path id="svg_686" d="M266.863 205.39a11 11 0 017.59 3.81c2.4 2.91 1.6 7.06.86 10.47-3.53 16.18-8.45 23-22.35 59.85q-3.13 8.34-6.28 16.71s-5.86 25.42-5.06 27.32 3 5.28-1.61 3.76-4.15-17.27-8.68-20.39.32-3.77 4.5-7.5 11.68-47.19 13.94-60.73c1.85-11.18 5.74-33.92 17.09-33.3z" class="cls-23"/><path id="svg_687" d="M231.323 306.93c-4-2.77-.62-3.6 3.12-6.38a37.87 37.87 0 012.15 7s3.11 12.7 5 16c1 1.78 3 5.28-1.61 3.76s-4.12-17.27-8.66-20.38z" class="cls-26"/><path id="svg_688" d="M250.773 207.19s-9.54-2.36-13.48 7.3-5.27 96.15-5.43 100.91a41.7 41.7 0 01-2.13 10.23c-.16.39 2.22 5.8 3.9 5.7 2.31-.15 5.52-5.88 5.52-5.88s-1.72-8 1.23-21.6 14.29-70.41 14.69-79.93-.21-16.57-4.3-16.73z" class="cls-23"/><path id="svg_689" d="M239.123 325.44s-.33 7.33-5.53 7.53c-3.66.15-4.34-5.55-3.88-7.34 0 0 4.3 6.54 9.41-.19z" class="cls-26"/><path id="svg_690" d="M331.393 181.95h-211.89v5.94h211.89z" class="cls-27"/><path id="svg_691" fill="#f27072" d="M242.423 215.23s8.76-1.08 8.76 0-3 5.72-6.18 4.58-2.58-4.58-2.58-4.58z"/><path id="svg_692" d="M254.773 69.34s-7.54-.35-12.17 5.78-6.41 22.82 2.83 26.71c0 0-.6-2.9 0-4.32 0 0 .42 3.74 1.88 5.21s13.89 4.55 19.72-3.15a8.23 8.23 0 00.92-3.61 6.26 6.26 0 010 3.47s3.64-1.49 5.26-6.58.4-25.51-18.44-23.51z" class="cls-17"/><path id="svg_693" d="M252.593 93.88c0 1.64-.87 21.67-.87 21.67.65 1.85 4.39 17.13 6.89 17s4.37-15.65 4.61-16.48c.51-1.72 0-22 0-22z" class="cls-23"/><path id="svg_694" d="M263.183 94.04l-10.59-.17c0 .67-.16 4.4-.32 8.58a5.88 5.88 0 002.68 1.51c3.86.89 6.58-.13 8.41-1.93-.08-4.32-.18-7.99-.18-7.99z" class="cls-29"/><path id="svg_695" d="M252.463 71.04s-4.65 1.82-4.71 6.65 1.27 5.58.61 9.29 2.31 15.06 9.84 15.06c4.2 0 8.13-7.56 8.17-11.2.05-4.2-.16-6.77 1-11.33s-3.63-14.47-14.91-8.47z" class="cls-23"/><path id="svg_696" d="M249.613 86.59s-2-2.66-2.74-.92 1.57 7.22 2.74 6 0-5.08 0-5.08z" class="cls-23"/><path id="svg_697" d="M265.863 86.59s2-2.66 2.74-.91-1.59 7.21-2.76 6 .02-5.09.02-5.09z" class="cls-23"/><path id="svg_698" fill="#452241" d="M259.023 90.96c-.89-1.1-1.08-3.38-.91-4.82.3 1.36.69 3.81 1.39 4.67l.14.18a3.19 3.19 0 01-2.19 1 4.72 4.72 0 001.57-1.03z"/><path id="svg_699" d="M260.563 85.58a3.35 3.35 0 002.69 1c1.17-.15 1.88-1 2.6-1.14-1.05-.35-1.5.85-4 .54a4.61 4.61 0 01-1.29-.4z" class="cls-31"/><path id="svg_700" d="M256.393 85.53a3.35 3.35 0 01-2.66 1c-1.17-.12-1.9-1-2.63-1.08 1.05-.37 1.53.81 4 .45a4.43 4.43 0 001.29-.37z" class="cls-31"/><path id="svg_701" d="M254.863 95.75a11.07 11.07 0 006.67-.31c-1.88 1.39-4.8 1.22-6.67.31z" class="cls-31"/><path id="svg_702" fill="#5d669a" d="M268.303 78.35c.32-9.53-8.79-10.83-13.53-9-3 0-6.41 1.54-8 4.1a9.23 9.23 0 00-.76 8l5.52.16s.44-5.92 1.64-7.18v7.18h3.92a21 21 0 001.42-5.95s.6 4.2-.27 5.95h8.4a6 6 0 001.66-3.26z"/><path id="svg_703" d="M268.303 78.35c.32-9.53-8.79-10.83-13.53-9-3 0-6.41 1.54-8 4.1a9.23 9.23 0 00-.76 8l5.52.16s.44-5.92 1.64-7.18v7.18h3.92a21 21 0 001.42-5.95s.6 4.2-.27 5.95h8.4a6 6 0 001.66-3.26z" class="cls-17"/><path id="svg_704" d="M253.233 69.49a10.94 10.94 0 00-3.76 1.38 11.78 11.78 0 00-2.73 8 11.34 11.34 0 00.33 2.63h.86c0-.25-.06-.5-.07-.75 0-10.42 5.37-11.26 5.37-11.26z" class="cls-33"/><path id="svg_705" d="M255.743 71.22c1 3.06 1.57 7.21.54 10.37h.64c.8-3.3-.01-7.35-1.18-10.37z" class="cls-33"/><path id="svg_706" d="M257.643 70.33c5.69.45 7.82 5.9 8 11.24h.42a24.8 24.8 0 00-.48-3.48c-.72-4.05-3.72-7.56-7.94-7.76z" class="cls-33"/><path id="svg_707" d="M248.773 87.76s-.28-2.51-1-1.76.48 4.94 1 4.39c.25-.24 0-2.63 0-2.63z" class="cls-29"/><path id="svg_708" d="M266.863 86.34s-.66 4.28-.42 4.28 2.42-5.52.42-4.28z" class="cls-29"/><path id="svg_709" d="M491.773 177.04l20.27 1.71-3.58 47h-5.26l1.15-42.31-12.58-3.12z" class="cls-17"/><path id="svg_710" d="M508.473 225.8l3.57-47h-5.63l-1.95 47z" class="cls-17"/><path id="svg_711" d="M447.153 177.04l-20.29 1.72 3.57 47h5.27l-1.15-42.31 12.59-3.12z" class="cls-17"/><path id="svg_712" d="M430.443 225.8l-3.57-47h5.64l1.94 47z" class="cls-17"/><path id="svg_713" d="M497.083 145.56s12.72-24.74 6.81-30.14c-12.42-11.36-50.9-13.45-69.78 0-6.25 4.46 5.09 21.44 6.75 28.62a121 121 0 011.78 47.12l-3.16 19.85h59.11l-3.12-20.17a120.91 120.91 0 011.61-45.28z" class="cls-17"/><path id="svg_714" d="M503.863 115.42c-13.2-10-49.79-12.08-69.79 0 18.25-14.85 57.44-12.68 69.79 0z" class="cls-17"/><path id="svg_715" fill="#381a3f" d="M475.413 95.55c.43-.27 5.74-13.5 5.74-13.5s3.55-9.93 1.25-11.61-7.73-7.51-12.5-7.62a18.12 18.12 0 00-8.39 1.6c-.43.27-3.52 5.49-3.52 5.49s1.44-1.76 2.18 4.76 15.24 20.88 15.24 20.88z"/><path id="svg_716" d="M463.383 94.95c.57 1.69.32 13.75.77 16.78s14.12 7.64 14.39-3.26-.81-23.73-.81-23.73z" class="cls-23"/><path id="svg_717" d="M463.383 94.95l4.76-3.39 9.59-6.81V85c0 .4.1 1.19.17 2.29v.75c0 .79.12 1.7.17 2.7V92.23a2.17 2.17 0 010 .26c-1.78 5.84-8.52 12.19-14.34 12.94 0-.4 0-.81-.06-1.22.09-4 .03-8.3-.29-9.26z" class="cls-29"/><path id="svg_718" d="M478.273 74.76a21 21 0 01-2.34 18.36c-4.17 6-9.94 9.14-14.07 6.1s-5.31-22.13-2.33-27 16.07-4.1 18.74 2.54z" class="cls-23"/><path id="svg_719" d="M478.263 93.04s.93-6.25 3.32-7.76 3.48-2.45 3.91-4.66 8.42-3.67 7.12-7.3-7.56-5.28-10.75-11.58-6.61-9.79-14-7.49-8.45 6.81-8.45 6.81-3.27-.56-5.26 3.35-.57 6.14.72 8c0 0-.28-5.17 1.49-4.81s0 6 0 6a46.35 46.35 0 005.5-5.56c2.83-3.37 2.14.58 1.3 4.84s5.45.25 8.25-2.84 6.79-.2 8.25 4.18-4.86 11.29-1.4 18.82z" class="cls-17"/><path id="svg_720" d="M476.863 81.61s2.61-4.47 4-2.53.24 7.74-2.64 7.8-1.36-5.27-1.36-5.27z" class="cls-23"/><path id="svg_721" d="M478.373 81.93s-.1-2.59 1.3-1.73 0 5-1.3 4.93 0-3.2 0-3.2z" class="cls-29"/><path id="svg_722" d="M463.553 80.73a16.22 16.22 0 00-1.05 3.69 9.82 9.82 0 000 4.08c.32-.06 1.16-.19 2.28-.48h-2.14l.24.18a49.31 49.31 0 01.67-7.47z" class="cls-35"/><path id="svg_723" d="M471.533 79.43a5.57 5.57 0 00-3.2-2.51c-2-.4-1.4 1.28-.94 1.38s4.22.74 4.14 1.13z" class="cls-35"/><path id="svg_724" d="M458.233 79.67a5.61 5.61 0 013.21-2.52c2-.4 1.4 1.28.93 1.37s-4.21.76-4.14 1.15z" class="cls-35"/><path id="svg_725" d="M465.863 81.04c1.43 1.51 2.73 1 4.52.3-1.64 1.8-3.97 1.39-4.52-.3z" class="cls-35"/><path id="svg_726" d="M458.643 80.79c1.18 1.28 2.07.9 3.55.25-1.28 1.51-3.14 1.13-3.55-.25z" class="cls-35"/><path id="svg_727" d="M468.863 92.09a.27.27 0 11.21.5c-.11 0-1.44.64-6.93.43a.17.17 0 010-.34c.81-.04 5.22.05 6.72-.59z" class="cls-35"/><path id="svg_728" d="M530.863 187.89h-4.2v150.5h4.2z" class="cls-18"/><path id="svg_729" d="M408.533 187.79h-65.67v146.64h65.66z" class="cls-18"/><path id="svg_730" d="M408.533 334.44h12.69V187.8h-12.69z" class="cls-18"/><path id="svg_731" d="M352.113 231.04h53.35v-36.61l-1.43 35z" class="cls-7"/><path id="svg_732" d="M351.003 277.42h53.36V240.8l-1.43 35z" class="cls-7"/><path id="svg_733" d="M381.053 203.96c0 1.8-2 3.27-4.39 3.27s-4.4-1.47-4.4-3.27 2-3.26 4.4-3.26 4.39 1.46 4.39 3.26z" class="cls-7"/><path id="svg_734" d="M382.473 257.63c0 1.93-2.21 3.49-4.93 3.49s-4.93-1.56-4.93-3.49 2.21-3.48 4.93-3.48 4.93 1.55 4.93 3.48z" class="cls-7"/><path id="svg_735" d="M350.863 323.41h53.36v-36.63l-1.43 35z" class="cls-7"/><path id="svg_736" d="M382.333 303.61c0 1.93-2.21 3.49-4.93 3.49s-4.93-1.56-4.93-3.49 2.21-3.48 4.93-3.48 4.93 1.56 4.93 3.48z" class="cls-7"/><path id="svg_737" d="M408.533 187.79h-65.67v7.87h65.66z" class="cls-18"/><path id="svg_738" d="M421.223 187.79h-12.65v7.87h12.65z" class="cls-18"/><path id="svg_739" d="M469.673 223.04h-4.81l-.47 84.8h4.87z" class="cls-18"/><path id="svg_740" d="M425.183 225.81l4.83-9.39 9.51-5.43h59.1l8.93 6.35 2.53 8.47z" class="cls-17"/><path id="svg_741" d="M430.013 216.42c28.8 0 54.54-.57 77.54.92 2.2.14 2.52 8.47 2.52 8.47h-84.89s2.2-9.39 4.83-9.39z" class="cls-17"/><path id="svg_742" d="M429.643 329.04l36.08-20.8-.12 21h2.58l.11-20.75 37.17 21h4l-40.6-22.9-.83.63h-2.34v.17l-1.09-.8-38.84 22.4z" class="cls-18"/><path id="svg_743" d="M471.103 309.14l-8.2-.05v-5a4.11 4.11 0 018.21 0z" class="cls-18"/><path id="svg_744" d="M441.313 110.89c-.56.15 10.46 61.16 13.58 82.47 1.08 7.41 32.61 5.27 30.66-.15-.91-2.54 5.42-39.1 6.21-45.25 1.56-12.15 3.92-33.51 3.13-37.07-.03 0-50.1-.95-53.58 0z" class="cls-24"/><path id="svg_745" d="M526.933 102.83a10.91 10.91 0 014.11 0 45 45 0 016.37 2.53l-3.94.74a5.74 5.74 0 00-3.21-1.45c-2.32-.41-4.32-.83-3.33-1.82z" class="cls-29"/><path id="svg_746" d="M538.433 105.77c-.79-.79-11.61-1.13-11.61.9s8.23-.56 8.23 1.47-2.14 6.87-4.4 6.87-4.39-2.25-4.39-3.38 1.52-3.1.67-3.94-4.28 4.17-2.82 7.66 5.3 6 4.06 9.25a10.6 10.6 0 01-1.94 2.6c2 1.55 4.15 3 6.06 4.61a34.47 34.47 0 003.49-5.17c3.49-6.88 3.44-20.08 2.65-20.87z" class="cls-23"/><path id="svg_747" d="M414.233 94.86a11.27 11.27 0 00-4.17-.74 46.78 46.78 0 00-6.9 1.43l3.86 1.45a5.92 5.92 0 013.51-.89c2.41 0 4.52-.07 3.7-1.25z" class="cls-29"/><path id="svg_748" d="M411.943 116.67c-.67-3.54.8-5.36 2.91-8.64s-.48-9-1.49-8.27.18 3 0 4.12-2.77 3-5.05 2.64-3.59-5.69-3.23-7.75 8.24 2 8.6 0-10.66-3.64-11.6-3-1.29 13.3 1 20.9a43.37 43.37 0 002.62 6.16 34.41 34.41 0 017.24-3.65 11.72 11.72 0 01-1-2.51z" class="cls-23"/><path id="svg_749" d="M455.333 191.42s-21.6 10.94-21.6 17.16 3.78 18.37 11.43 18.37c3.39 0 12.85-11.29 20.7-10.65 9.89.81 18.28 13.37 21 10.65 4.88-4.88 11.22-11.83 11.22-18.34s-13-17.19-13-17.19z" class="cls-18"/><path id="svg_750" d="M459.633 107.66s3.56 80.51 0 84.08-22.62 11.64-22.62 11.64-3.42 1.69-3.6-2.67 13.74-11.94 13.74-18.76-1.35-33.91-1.35-33.91l-4.49-37.1z" class="cls-18"/><path id="svg_751" d="M494.863 110.89s-6.5 72.71-6.5 77 9.7 13 9.7 13-11.28 3.72-15 0-4.44-94.33-4.44-94.33z" class="cls-18"/><path id="svg_752" d="M467.223 110.42l5.73-.17-.2 6.85h-4.35z" class="cls-18"/><path id="svg_753" d="M463.933 107.3l5.07 3.23-1.22 3-7.94-.77.62-2.71z" class="cls-36"/><path id="svg_754" d="M478.643 106.57l-7.16 3.69 1.38 3.28 5.9-.49z" class="cls-36"/><path id="svg_755" d="M467.223 172.89l1.18-55.79h4.35l3.27 55.79-4.4 7.68z" class="cls-18"/><path id="svg_756" d="M564.423 181.95h-235.11v5.94h235.11z" class="cls-27"/><path id="svg_757" d="M526.663 123.04l10.75 5.3s-23.55 34.76-29.16 34.76-18.2-29.27-18.2-29.27l4.81-22.94s12.62 28.15 15.21 28.15 16.59-16 16.59-16z" class="cls-18"/><path id="svg_758" d="M441.313 110.89s-9.19 30-13.62 30-14.77-25.45-14.77-25.45l-9.76 6.36s11.3 43.83 24.79 45.23 21.5-28.07 21.5-28.07z" class="cls-18"/><path id="svg_759" d="M463.863 106.9l-2.7 66.87-9.3-44.36 3.69-2.18-4.51-6.28 3.46-12.83z" class="cls-7"/><path id="svg_760" d="M478.643 106.57l1.78 71.17 6.51-48.46-2.19-2.46 3.62-7.78-2.29-10.5z" class="cls-7"/><path id="svg_761" d="M440.953 202.04c-5.23 0-10.29 9.3-8.68 19s14.88 94.44 14.88 94.44l12.48-2.44s-4.41-111-18.68-111z" class="cls-7"/><path id="svg_762" fill="url(#linear-gradient-3)" d="M458.003 312.2s-.27 8.19.73 9.19 1.82 5.39 1.82 5.39-12.82 1.17-15.19 1.17h-7.28s6-4.28 9.83-5.82l3.81-1.55-1.18-10.74z"/><path id="svg_763" d="M161.863 179.04h18.59a2.67 2.67 0 012.66 2.66v.53h-23.96v-.53a2.67 2.67 0 012.71-2.66z" class="cls-17"/><path id="svg_764" d="M200.413 103.76v59.59l-62.31-3.6-2-53.66z" class="cls-17"/><path id="svg_765" d="M202.743 104.51l-2.32-.75v59.59l1.7-.42z" class="cls-38"/><path id="svg_766" d="M157.323 148.3c0-3.49 3.4-6.33 7.58-6.33s7.58 2.84 7.58 6.33-3.39 6.33-7.58 6.33h-.47c-1.79 5.66-3.88 15.57-2.62 20.13a11.82 11.82 0 004.68 6.71l-.34.56a13 13 0 01-5.88-6.87c-1.79-4.74-.89-15.06.49-21.54a6.17 6.17 0 01-3.44-5.32z" class="cls-7"/><path id="svg_767" d="M354.983 179.04h18.6a2.66 2.66 0 012.65 2.66v.53h-23.91v-.53a2.67 2.67 0 012.66-2.66z" class="cls-17"/><path id="svg_768" d="M393.593 103.76v59.59l-62.31-3.6-2-53.66z" class="cls-17"/><path id="svg_769" d="M395.923 104.51l-2.33-.75v59.59l1.7-.42z" class="cls-38"/><path id="svg_770" d="M350.503 148.3c0-3.49 3.39-6.33 7.58-6.33s7.58 2.84 7.58 6.33-3.39 6.33-7.58 6.33h-.48c-1.79 5.66-3.87 15.57-2.62 20.13a11.82 11.82 0 004.68 6.71l-.35.56a13 13 0 01-5.87-6.87c-1.8-4.74-.9-15.06.49-21.54a6.15 6.15 0 01-3.43-5.32z" class="cls-7"/><path id="svg_771" fill="#f4dee0" d="M564.433 181.95h-444.93v1.54h444.93z"/><path id="svg_772" d="M229.863 89.7a.53.53 0 01-.44-.22c-3.35-4.34-4.68-8.65-4-12.81 1.12-6.46 6.78-10.16 7-10.31a.55.55 0 11.59.92c-.05 0-5.5 3.6-6.54 9.59-.66 3.84.61 7.86 3.76 11.95a.55.55 0 01-.1.77.59.59 0 01-.27.11z" class="cls-33"/><path id="svg_773" d="M510.863 277.22a.47.47 0 01-.38-.75c8.24-11.27 1.49-25.57 1.42-25.71a.48.48 0 01.86-.42c.07.15 7.06 15-1.52 26.68a.46.46 0 01-.38.2z" class="cls-33"/><path id="svg_774" fill="#4c4ca0" d="M601.173 306.04q-1.08 2.63-2.16 5.17-1.7 4-3.34 7.77c-.48 1.12-1 2.23-1.45 3.33-5.36 12.22-10.36 23.08-14.66 32.01a49.24 49.24 0 01-16.63 19.62 42.35 42.35 0 01-23.26 7.41l-94.81 1.15h-1l-8.13.1-7 .08-21.32.26h-.86l-10.86.13h-.33l-66.89.81-59.72.7-6.94.09-43.14.52h-.05l-28 .34h-.3l-88.46 1.06-26.47.33a49.7 49.7 0 01-16.67-2.67 53.72 53.72 0 01-24.44-17.29c-11.37-14-19.65-30.32-25.22-48q-1.2-3.84-2.25-7.77c-19.26-72.75 4.22-166.61 46.49-229.42q2.65-3.94 5.4-7.68v-.06c13-17.82 27.57-32.72 43.1-43.31 27.51-18.79 58-24.09 88-8.31 25.37 13.36 49.05 19.64 72 21.34q3.48.26 6.94.37c52.66 1.85 102-19.35 160-33 2.31-.55 4.62-1.08 7-1.59 41.35-9.2 87.21-14 141.75-3.85a106.46 106.46 0 0116.73 4.47c2.41.86 4.72 1.79 6.95 2.79 26 11.83 40.24 33.7 46.27 61.09.57 2.55 1.06 5.13 1.48 7.76 10.7 65.84-20.63 159.32-47.75 224.25z" style="isolation:isolate" opacity=".1"/></g></svg>