<svg fill="none" xmlns="http://www.w3.org/2000/svg" viewBox="0 0 526 527"><path d="M375.81 298.3a.468.468 0 01-.38-.75c8.24-11.27 1.49-25.57 1.42-25.71a.491.491 0 01.22-.64c.24-.11.52-.01.64.22.07.15 7.06 14.96-1.52 26.68-.1.14-.24.2-.38.2z" fill="#59317D"/><path d="M463.3 481.93c-4.79-4.1-10.97-6.28-17-8.22-43.52-14.07-81.26-10.9-130.76-20.36l-161.85 17.61a50.344 50.344 0 0017.49 15.45c6.97 3.7 14.71 5.71 22.6 5.86 10.36.11 21.7-2.83 30.47 2.72 5.84 3.68 9.04 10.3 13.89 15.19 7.94 7.97 19.82 10.72 31.06 10.67 11.24-.04 22.33-2.56 33.55-3.49 26.77-2.24 53.37 4.47 80.06 7.56 26.69 3.09 55.7 1.96 77.52-13.72 4.42-3.16 8.65-7.19 9.81-12.54 1.3-6.19-2.01-12.65-6.84-16.73z" fill="#EBEBEB"/><path d="M458.7 72.36h-58.16V.02l44.49.14L458.7 15v57.36z" fill="#F5F5F5"/><path d="M417.93 41.3c-.93-.67-1.78-1.43-2.54-2.28-1.49-1.46-3.53-3.59-5.76-5.85l-.24-.26.24-.25c2.22-2.4 4.24-4.42 5.74-5.91.76-.85 1.61-1.62 2.54-2.29-.62.97-1.33 1.86-2.15 2.66-1.4 1.57-3.37 3.72-5.58 5.99v-.43c2.22 2.31 4.19 4.43 5.6 5.99.81.79 1.54 1.67 2.15 2.63zM441.27 24.44c.93.65 1.79 1.41 2.55 2.25 1.5 1.48 3.54 3.6 5.75 5.85l.25.26-.25.27c-2.2 2.33-4.24 4.42-5.74 5.89-.75.86-1.61 1.63-2.54 2.3.62-.96 1.34-1.86 2.16-2.66 1.4-1.58 3.37-3.73 5.58-5.99v.52c-2.21-2.32-4.19-4.44-5.59-5.99-.82-.82-1.55-1.73-2.17-2.7zM422.53 43.94c-.18-.1 2.84-5.36 6.74-11.74 3.89-6.37 7.18-11.45 7.39-11.34.2.11-2.84 5.36-6.75 11.74-3.9 6.37-7.21 11.46-7.38 11.34zM445.02.16v12.11c0 .42.08.83.24 1.22.16.39.4.74.7 1.03.3.29.65.52 1.04.68.39.15.81.22 1.23.21l10.52-.4L445.02.16zM419.54 49.02h-25.79V64.7h25.79V49.02z" fill="#E0E0E0"/><path d="M401.08 60.07l.67-.79c.18.29.42.53.72.69.3.17.63.26.97.27.91 0 1.39-.56 1.39-1.65v-4.54h-2.93v-1h4.06v5.48c0 1.81-.87 2.7-2.52 2.7-.46.01-.91-.09-1.33-.29-.41-.2-.76-.5-1.03-.87zM407.58 60.24l.43-.9c.76.61 1.7.94 2.67.93 1.41 0 2.01-.54 2.01-1.2 0-1.97-4.9-.73-4.9-3.73 0-1.2.97-2.32 3.1-2.32.92-.01 1.82.24 2.6.72l-.39.93c-.66-.43-1.43-.66-2.21-.66-1.38 0-1.97.57-1.97 1.28 0 1.97 4.9.74 4.9 3.71 0 1.2-.99 2.3-3.14 2.3-1.12.02-2.22-.36-3.1-1.06zM512.6 277.94H338.78v101.28H512.6V277.94z" fill="#fff"/><path d="M513.2 379.81H338.18V277.34H513.2v102.47z" fill="#F5F5F5"/><path d="M352.38 374.11c-.1 0-.17-20.7-.17-46.24 0-25.54.07-46.27.17-46.27.09 0 .15 20.72.15 46.27 0 25.55-.07 46.24-.15 46.24zM348.8 285.46c-1.91.22-3.84.22-5.75 0 1.91-.22 3.84-.22 5.75 0zM348.8 291.61c-1.91.22-3.84.22-5.75 0 1.91-.23 3.84-.23 5.75 0zM348.8 297.7c-1.91.23-3.84.23-5.75 0 1.91-.22 3.84-.22 5.75 0zM348.8 303.8c-1.91.22-3.84.22-5.75 0 1.91-.22 3.84-.22 5.75 0zM348.8 309.89c-1.91.22-3.84.22-5.75 0 1.91-.21 3.84-.21 5.75 0zM348.8 315.99c-1.91.22-3.84.22-5.75 0 1.91-.23 3.84-.23 5.75 0zM348.8 322.08c-1.91.23-3.84.23-5.75 0 1.91-.22 3.84-.22 5.75 0zM348.8 328.18c-1.91.22-3.84.22-5.75 0 1.91-.22 3.84-.22 5.75 0zM348.8 334.28c-1.91.22-3.84.22-5.75 0 1.91-.23 3.84-.23 5.75 0zM348.8 340.38c-1.91.2-3.84.2-5.75 0 1.91-.23 3.84-.23 5.75 0zM348.8 346.46c-1.91.23-3.84.23-5.75 0 1.91-.22 3.84-.22 5.75 0zM348.8 352.55c-1.91.22-3.84.22-5.75 0 1.91-.23 3.84-.23 5.75 0zM348.8 358.66c-1.91.22-3.84.22-5.75 0 1.91-.23 3.84-.23 5.75 0zM348.8 364.76c-1.91.22-3.84.22-5.75 0 1.91-.23 3.84-.23 5.75 0zM348.8 370.85c-1.91.21-3.84.21-5.75 0 1.91-.22 3.84-.22 5.75 0zM371.87 285.15c0 .09-3.34.17-7.46.17s-7.48-.08-7.48-.17c0-.1 3.34-.17 7.48-.17 4.13 0 7.46.07 7.46.17zM371.87 370.85c0 .09-3.34.16-7.46.16s-7.48-.07-7.48-.16c0-.08 3.34-.16 7.48-.16 4.13 0 7.46.07 7.46.16zM392.68 297.7c0 .09-6.27.17-13.98.17-7.72 0-13.97-.08-13.97-.17 0-.08 6.25-.16 13.97-.16 7.71 0 13.98.07 13.98.16zM425 297.7c0 .09-6.26.17-13.98.17-7.71 0-13.98-.08-13.98-.17 0-.08 6.27-.16 13.98-.16 7.72 0 13.98.07 13.98.16zM412.65 303.8c0 .09-9.22.17-20.61.17-11.38 0-20.59-.08-20.59-.17 0-.08 9.23-.17 20.59-.17 11.37 0 20.61.08 20.61.17zM412.65 309.89c0 .09-9.22.16-20.61.16-11.38 0-20.59-.07-20.59-.16 0-.1 9.23-.16 20.59-.16 11.37 0 20.61.07 20.61.16zM440.99 328.18c0 .1-9.21.17-20.59.17-11.38 0-20.59-.07-20.59-.17s9.22-.17 20.59-.17 20.59.07 20.59.17zM428.76 315.99c0 .09-9.22.16-20.59.16s-20.59-.07-20.59-.16c0-.1 9.21-.17 20.59-.17 11.38 0 20.59.08 20.59.17zM479.1 315.99c0 .09-9.22.16-20.59.16s-20.61-.07-20.61-.16c0-.1 9.23-.17 20.61-.17 11.38 0 20.59.08 20.59.17zM461.58 303.8c0 .09-9.23.17-20.61.17-11.38 0-20.59-.08-20.59-.17 0-.08 9.22-.17 20.59-.17s20.61.08 20.61.17zM490.05 328.18c0 .1-9.22.17-20.59.17s-20.61-.07-20.61-.17 9.23-.17 20.61-.17c11.38 0 20.59.07 20.59.17zM484.34 309.89c0 .09-14.32.16-31.98.16s-31.98-.07-31.98-.16c0-.1 14.31-.16 31.98-.16s31.98.07 31.98.16zM371.87 291.61c0 .09-3.34.16-7.46.16s-7.48-.07-7.48-.16c0-.1 3.34-.17 7.48-.17 4.13 0 7.46.07 7.46.17zM371.87 364.76c0 .08-3.34.16-7.46.16s-7.48-.08-7.48-.16c0-.09 3.34-.17 7.48-.17 4.13 0 7.46.07 7.46.17zM379.27 315.99c0 .09-3.34.16-7.47.16-4.14 0-7.47-.07-7.47-.16 0-.1 3.35-.17 7.47-.17 4.12 0 7.47.08 7.47.17zM499 315.99c0 .09-3.34.16-7.46.16s-7.48-.07-7.48-.16c0-.1 3.34-.17 7.48-.17 4.13 0 7.46.08 7.46.17zM392.68 340.34c0 .08-6.27.16-13.98.16-7.72 0-13.97-.08-13.97-.16s6.25-.17 13.97-.17c7.71 0 13.98.07 13.98.17zM425 340.34c0 .08-6.26.16-13.98.16-7.71 0-13.98-.08-13.98-.16s6.27-.17 13.98-.17c7.72 0 13.98.07 13.98.17zM412.65 346.43c0 .09-9.22.16-20.61.16-11.38 0-20.59-.07-20.59-.16 0-.1 9.23-.17 20.59-.17 11.37 0 20.61.08 20.61.17zM412.65 352.55c0 .09-9.22.17-20.61.17-11.38 0-20.59-.08-20.59-.17 0-.1 9.23-.17 20.59-.17 11.37 0 20.61.05 20.61.17zM428.76 358.62c0 .1-9.22.17-20.59.17s-20.59-.07-20.59-.17c0-.09 9.21-.17 20.59-.17 11.38 0 20.59.09 20.59.17zM479.1 358.62c0 .1-9.22.17-20.59.17s-20.61-.07-20.61-.17c0-.09 9.23-.17 20.61-.17 11.38 0 20.59.09 20.59.17zM461.58 346.43c0 .09-9.23.16-20.61.16-11.38 0-20.59-.07-20.59-.16 0-.1 9.22-.17 20.59-.17s20.61.08 20.61.17zM484.34 352.55c0 .09-14.32.17-31.98.17s-31.98-.08-31.98-.17c0-.1 14.31-.17 31.98-.17s31.98.05 31.98.17zM379.27 358.62c0 .1-3.34.17-7.47.17-4.14 0-7.47-.07-7.47-.17 0-.09 3.35-.17 7.47-.17 4.12 0 7.47.09 7.47.17zM499 358.62c0 .1-3.34.17-7.46.17s-7.48-.07-7.48-.17c0-.09 3.34-.17 7.48-.17 4.13 0 7.46.09 7.46.17z" fill="#E0E0E0"/><path d="M114.18 336.6H1.09v65.89h113.09V336.6z" fill="#fff"/><path d="M114.56 402.86H.69v-66.65h113.87v66.65z" fill="#F5F5F5"/><path d="M9.93 399.17s-.11-13.47-.11-30.09c0-16.62 0-30.09.11-30.09s.11 13.47.11 30.09c0 16.62-.05 30.09-.11 30.09zM7.61 341.53c-.62.1-1.25.14-1.87.1-.63.04-1.26 0-1.88-.1.62-.11 1.25-.15 1.88-.11.62-.04 1.25 0 1.87.11zM7.61 345.49c-.62.11-1.25.15-1.87.11-.63.04-1.26 0-1.88-.11a8.46 8.46 0 011.88-.13c.62-.03 1.25.02 1.87.13zM7.61 349.46c-.62.1-1.25.14-1.87.11-.63.03-1.26-.01-1.88-.11.62-.11 1.25-.15 1.88-.11.62-.04 1.25 0 1.87.11zM7.61 353.42c-.62.11-1.25.15-1.87.11-.63.04-1.26 0-1.88-.11a8.45 8.45 0 011.88-.11c.62-.03 1.25.01 1.87.11zM7.61 357.34c-.62.11-1.25.14-1.87.11-.63.03-1.26 0-1.88-.11.62-.07 1.25-.07 1.88 0 .62-.07 1.24-.07 1.87 0zM7.61 361.35c-.62.11-1.25.15-1.87.11-.63.04-1.26 0-1.88-.11.62-.1 1.25-.14 1.88-.1.62-.04 1.25 0 1.87.1zM7.61 365.32c-.62.11-1.25.14-1.87.11-.63.03-1.26 0-1.88-.11.62-.11 1.25-.15 1.88-.11.62-.03 1.25 0 1.87.11zM7.61 369.32c-.62.11-1.25.14-1.87.11-.63.03-1.26 0-1.88-.11.62-.11 1.25-.14 1.88-.11.62-.03 1.25 0 1.87.11zM7.61 373.25c-.62.11-1.25.14-1.87.11-.63.03-1.26 0-1.88-.11.62-.11 1.25-.14 1.88-.11.62-.03 1.25 0 1.87.11zM7.61 377.21c-.62.12-1.25.16-1.87.12-.63.04-1.26 0-1.88-.12.62-.1 1.25-.14 1.88-.1.62-.04 1.25 0 1.87.1zM7.61 381.19c-.62.11-1.25.15-1.87.11-.63.04-1.26 0-1.88-.11.62-.11 1.25-.15 1.88-.12.62-.03 1.25.01 1.87.12zM7.61 385.16c-.62.1-1.25.14-1.87.11-.63.03-1.26 0-1.88-.11.62-.11 1.25-.15 1.88-.11.62-.04 1.25 0 1.87.11zM7.61 389.12c-.62.11-1.25.15-1.87.11-.63.04-1.26 0-1.88-.11.62-.1 1.25-.14 1.88-.1.62-.04 1.25 0 1.87.1zM7.61 393.09c-.62.11-1.25.14-1.87.11-.63.03-1.26 0-1.88-.11.62-.11 1.25-.15 1.88-.11.62-.04 1.25 0 1.87.11zM7.61 397.05c-.62.11-1.25.15-1.87.11-.63.04-1.26 0-1.88-.11.62-.1 1.25-.14 1.88-.1.62-.04 1.25 0 1.87.1zM22.62 341.29s-2.18.12-4.87.12c-2.68 0-4.85-.06-4.85-.12s2.17-.11 4.85-.11c2.69 0 4.87.05 4.87.11zM22.62 397.05c0 .06-2.18.11-4.87.11-2.68 0-4.85 0-4.85-.11 0-.1 2.17-.1 4.85-.1 2.69 0 4.87.04 4.87.1zM36.15 349.46c0 .06-4.07.1-9.09.1s-9.09 0-9.09-.1c0-.11 4.07-.11 9.09-.11s9.09.05 9.09.11zM57.18 349.46c0 .06-4.07.1-9.09.1s-9.1 0-9.1-.1c0-.11 4.08-.11 9.1-.11s9.09.05 9.09.11zM49.14 353.42s-5.99.11-13.39.11c-7.41 0-13.41 0-13.41-.11s5.99-.11 13.41-.11c7.41 0 13.39.05 13.39.11zM49.14 357.34s-5.99.11-13.39.11c-7.41 0-13.41 0-13.41-.11s5.99-.11 13.41-.11c7.41 0 13.39.11 13.39.11zM67.59 369.32s-5.99.11-13.39.11c-7.41 0-13.41 0-13.41-.11s5.99-.11 13.41-.11c7.41 0 13.39.01 13.39.11zM59.64 361.35s-5.99.11-13.41.11-13.39 0-13.39-.11c0-.1 5.99-.1 13.39-.1s13.41.04 13.41.1zM92.39 361.35s-5.99.11-13.41.11c-7.41 0-13.39 0-13.39-.11 0-.1 5.99-.1 13.39-.1 7.41 0 13.41.04 13.41.1zM81 353.42s-5.99.11-13.41.11-13.39 0-13.39-.11 5.99-.11 13.39-.11 13.41.05 13.41.11zM99.5 369.32s-5.99.11-13.39.11-13.4-.11-13.4-.11 5.99-.11 13.4-.11c7.42 0 13.39.01 13.39.11zM95.81 357.34s-9.32.11-20.8.11c-11.49 0-20.75 0-20.75-.11s9.3-.11 20.81-.11c11.5 0 20.74.11 20.74.11zM22.62 345.49c0 .06-2.18.11-4.87.11-2.68 0-4.85 0-4.85-.11s2.17-.11 4.85-.11c2.69 0 4.87.05 4.87.11zM22.62 393.09c0 .06-2.18.11-4.87.11-2.68 0-4.85 0-4.85-.11s2.17-.11 4.85-.11c2.69 0 4.87.05 4.87.11zM27.43 361.35s-2.18.11-4.86.11-4.79 0-4.79-.11c0-.1 2.17-.1 4.79-.1s4.86.04 4.86.1zM105.34 361.35s-2.18.11-4.87.11c-2.68 0-4.86 0-4.86-.11 0-.1 2.18-.1 4.86-.1 2.69 0 4.87.04 4.87.1zM36.15 377.2c0 .06-4.07.11-9.09.11s-9.09 0-9.09-.11c0-.1 4.07-.12 9.09-.12s9.09.06 9.09.12zM57.18 377.2c0 .06-4.07.11-9.09.11s-9.1 0-9.1-.11c0-.1 4.08-.12 9.1-.12s9.09.06 9.09.12zM49.14 381.17c0 .06-5.99.11-13.39.11-7.41 0-13.41 0-13.41-.11s5.99-.11 13.41-.11c7.41 0 13.39.05 13.39.11zM49.14 385.13c0 .06-5.99.11-13.39.11-7.41 0-13.41 0-13.41-.11 0-.1 5.99-.1 13.41-.1 7.41 0 13.39.04 13.39.1zM59.64 389.1c0 .06-5.99.11-13.41.11s-13.39 0-13.39-.11 5.99-.11 13.39-.11 13.41.05 13.41.11zM92.39 389.1c0 .06-5.99.11-13.41.11-7.41 0-13.39 0-13.39-.11s5.99-.11 13.39-.11c7.41 0 13.41.05 13.41.11zM81 381.17c0 .06-5.99.11-13.41.11s-13.39 0-13.39-.11 5.99-.11 13.39-.11 13.41.05 13.41.11zM95.81 385.13c0 .06-9.32.11-20.8.11-11.49 0-20.75-.05-20.75-.11s9.3-.1 20.81-.1c11.5 0 20.74.04 20.74.1zM27.43 389.1c0 .06-2.18.11-4.86.11s-4.79 0-4.79-.11 2.17-.11 4.79-.11 4.86.05 4.86.11zM105.34 389.1c0 .06-2.18.11-4.87.11-2.68 0-4.86 0-4.86-.11s2.18-.11 4.86-.11c2.69 0 4.87.05 4.87.11z" fill="#E0E0E0"/><path d="M525.07 455.13c0 .18-116.95.31-261.16.31-144.22 0-261.17-.13-261.17-.31s116.93-.31 261.17-.31 261.16.15 261.16.31z" fill="#263238"/><path d="M436.08 126.13c-1.05 0-2.08-.32-2.96-.9a5.36 5.36 0 01-2.27-5.48c.21-1.03.72-1.98 1.46-2.72.75-.75 1.7-1.26 2.73-1.46 1.04-.21 2.11-.1 3.08.3.98.4 1.81 1.09 2.4 1.96.58.88.89 1.91.89 2.96 0 1.42-.56 2.77-1.56 3.77s-2.35 1.57-3.77 1.57z" fill="#9E22E9"/><path d="M436.08 126.13c0-.06.48-.06 1.27-.29a5.223 5.223 0 002.79-1.95c.56-.76.9-1.65.98-2.58.08-.94-.1-1.87-.52-2.71a5.012 5.012 0 00-1.87-2.03c-.79-.49-1.71-.75-2.65-.75-.93 0-1.85.26-2.65.75-.8.49-1.44 1.19-1.86 2.03-.42.84-.6 1.77-.52 2.71.08.93.41 1.82.97 2.58a5.37 5.37 0 002.79 1.95c.81.23 1.27.23 1.27.29 0 .06-.12 0-.33 0-.34 0-.67-.03-1-.1a5.296 5.296 0 01-3.08-1.93c-.58-.73-.96-1.6-1.11-2.52-.15-.92-.06-1.87.25-2.75a5.63 5.63 0 012.05-2.71c.94-.67 2.07-1.03 3.23-1.03 1.16 0 2.29.36 3.23 1.03a5.63 5.63 0 012.05 2.71c.31.88.39 1.83.24 2.75-.16.92-.54 1.79-1.12 2.52-.76.99-1.85 1.67-3.08 1.93-.32.07-.65.1-.98.1h-.35zM366.99 96.18c0-.17 30.71-.32 68.57-.32 37.85 0 68.56.15 68.56.32 0 .16-30.7.31-68.56.31-37.87 0-68.57-.21-68.57-.31zM355.7 109.52c.09-.01.18-.01.27 0H359.87l11.39-.09 37.59-.1 39.84.11-.18.11 4.51-8.69 1.2-2.31c.14-.27.29-.54.46-.79-.1.29-.22.57-.36.84-.28.58-.66 1.36-1.2 2.39l-4.36 8.78c-.02.04-.04.06-.08.08-.03.02-.07.03-.1.03l-39.72-.05-37.59-.09-11.39-.1h-3.9c-.1-.02-.2-.06-.28-.12z" fill="#9E22E9"/><path d="M474.33 95.92c-.04.17-.09.33-.16.48l-.58 1.36c-.54 1.2-1.28 2.93-2.23 5.08-1.99 4.42-4.79 10.64-8.12 18.05-.02.05-.05.09-.09.12a.27.27 0 01-.15.05h-53.81c-.05 0-.1-.01-.15-.04a.273.273 0 01-.09-.12l-7.19-16.77-1.98-4.72-.5-1.2c-.07-.14-.11-.29-.14-.44.08.13.15.27.21.41.16.32.35.72.58 1.19l2.12 4.66 7.41 16.78-.24-.16h53.82l-.25.17c3.42-7.39 6.29-13.57 8.31-17.97l2.4-5.02.64-1.32c.04-.2.11-.4.19-.59z" fill="#9E22E9"/><path d="M454.72 101.26c-1.05 0-2.08-.32-2.96-.9a5.291 5.291 0 01-1.96-2.4c-.41-.97-.51-2.04-.31-3.08.21-1.03.72-1.98 1.46-2.73a5.35 5.35 0 012.73-1.45c1.04-.21 2.11-.1 3.08.3.98.4 1.81 1.09 2.4 1.96.58.88.89 1.91.89 2.96 0 1.42-.56 2.77-1.56 3.77s-2.35 1.57-3.77 1.57z" fill="#9E22E9"/><path d="M454.72 101.26s.48 0 1.27-.28a5.256 5.256 0 002.79-1.96c.56-.76.9-1.65.98-2.58a5.057 5.057 0 00-2.38-4.74c-.8-.49-1.72-.75-2.66-.75-.93 0-1.85.26-2.65.75-.8.49-1.44 1.19-1.86 2.03-.42.84-.6 1.77-.52 2.71.08.93.41 1.82.97 2.58.69.94 1.67 1.63 2.79 1.96.81.23 1.27.22 1.27.28 0 .06-.12 0-.33 0-.34 0-.67-.03-1-.1a5.233 5.233 0 01-3.08-1.92 5.57 5.57 0 01-1.11-2.52c-.15-.92-.06-1.87.25-2.75a5.63 5.63 0 012.05-2.71c.94-.67 2.07-1.03 3.23-1.03 1.16 0 2.29.36 3.23 1.03a5.63 5.63 0 012.05 2.71c.31.88.39 1.83.24 2.75-.16.92-.54 1.79-1.12 2.52a5.174 5.174 0 01-4.06 2.02c-.23.03-.35.02-.35 0zM474.33 101.26c-1.05 0-2.08-.32-2.96-.9a5.356 5.356 0 01-1.96-2.4c-.4-.97-.51-2.04-.3-3.08.2-1.03.71-1.98 1.46-2.73.74-.74 1.69-1.25 2.72-1.45 1.04-.21 2.11-.1 3.08.3.98.4 1.81 1.09 2.4 1.96.58.88.9 1.91.9 2.96 0 1.42-.57 2.77-1.57 3.77s-2.35 1.57-3.77 1.57z" fill="#9E22E9"/><path d="M474.33 101.26s.48 0 1.27-.28a5.319 5.319 0 002.8-1.96c.55-.76.89-1.65.97-2.58a5.057 5.057 0 00-2.38-4.74c-.8-.49-1.72-.75-2.66-.75-.93 0-1.85.26-2.65.75a5.057 5.057 0 00-2.38 4.74c.08.93.42 1.82.97 2.58.7.94 1.68 1.63 2.79 1.96.81.23 1.27.22 1.27.28 0 .06-.12 0-.33 0-.33 0-.67-.03-1-.1a5.18 5.18 0 01-3.07-1.92 5.48 5.48 0 01-1.12-2.52c-.15-.92-.06-1.87.25-2.75a5.63 5.63 0 012.05-2.71c.94-.67 2.07-1.03 3.23-1.03 1.16 0 2.29.36 3.23 1.03a5.63 5.63 0 012.05 2.71 5.588 5.588 0 01-.86 5.27 5.25 5.25 0 01-3.1 1.92c-.32.07-.65.1-.98.1-.23.03-.35.02-.35 0zM400.17 101.26a5.4 5.4 0 01-2.97-.9 5.356 5.356 0 01-1.96-2.4c-.4-.97-.51-2.04-.3-3.08.2-1.03.71-1.98 1.46-2.73.74-.74 1.69-1.25 2.73-1.45 1.03-.21 2.1-.1 3.08.3.97.4 1.8 1.09 2.39 1.96.58.88.9 1.91.9 2.96a5.346 5.346 0 01-5.33 5.34z" fill="#9E22E9"/><path d="M400.17 101.26s.46 0 1.27-.28c1.12-.33 2.1-1.02 2.79-1.96.49-.69.81-1.48.93-2.32.12-.83.03-1.68-.26-2.48-.26-.67-.65-1.29-1.17-1.8-.51-.51-1.12-.9-1.8-1.15-.68-.25-1.4-.36-2.12-.31-.72.06-1.43.26-2.06.61-.64.34-1.19.82-1.62 1.4a5.037 5.037 0 00-.02 6.05c.68.94 1.66 1.63 2.77 1.96.81.23 1.29.22 1.29.28 0 .06-.12 0-.35 0-.33 0-.66-.03-.98-.1a5.227 5.227 0 01-3.09-1.92c-.58-.73-.96-1.6-1.11-2.52-.15-.92-.07-1.87.24-2.75a5.63 5.63 0 012.05-2.71c.94-.67 2.07-1.03 3.23-1.03 1.16 0 2.29.36 3.23 1.03a5.63 5.63 0 012.05 2.71 5.588 5.588 0 01-.86 5.27c-.77.99-1.86 1.67-3.08 1.92-.33.07-.66.1-1 .1-.23.03-.33.02-.33 0zM382.51 101.26a5.343 5.343 0 01-4.93-3.3c-.4-.97-.51-2.04-.3-3.08.21-1.03.71-1.98 1.46-2.73.74-.74 1.69-1.25 2.73-1.45 1.03-.21 2.1-.1 3.08.3.97.4 1.8 1.09 2.39 1.96.59.88.9 1.91.9 2.96a5.346 5.346 0 01-5.33 5.34z" fill="#9E22E9"/><path d="M382.51 101.26s.47 0 1.27-.28c1.12-.33 2.1-1.02 2.79-1.96.49-.69.82-1.48.93-2.32.12-.83.03-1.68-.26-2.48-.25-.67-.65-1.29-1.16-1.8-.52-.51-1.13-.9-1.81-1.15-.68-.25-1.4-.36-2.12-.31-.72.06-1.42.26-2.06.61-.63.34-1.19.82-1.62 1.4-.44.58-.74 1.24-.9 1.95-.15.7-.16 1.43 0 2.14.15.71.45 1.37.88 1.96.68.94 1.67 1.63 2.79 1.96.79.23 1.27.22 1.27.28 0 .06-.12 0-.35 0-.33 0-.66-.03-.98-.1a5.227 5.227 0 01-3.09-1.92c-.58-.73-.96-1.6-1.11-2.52-.15-.92-.06-1.87.24-2.75a5.63 5.63 0 012.05-2.71c.94-.67 2.07-1.03 3.23-1.03 1.16 0 2.29.36 3.24 1.03.94.67 1.65 1.62 2.04 2.71.31.88.4 1.83.24 2.75-.15.92-.53 1.79-1.1 2.52-.77.99-1.86 1.67-3.08 1.92-.33.07-.66.1-1 .1-.33.03-.33.02-.33 0zM390.89 114.85c-1.05 0-2.08-.31-2.96-.9a5.276 5.276 0 01-1.96-2.39c-.4-.97-.51-2.04-.3-3.08.2-1.03.71-1.98 1.45-2.73.75-.74 1.7-1.25 2.73-1.46 1.04-.2 2.11-.1 3.08.31.98.4 1.81 1.08 2.4 1.96.58.88.9 1.91.9 2.96 0 1.42-.57 2.77-1.57 3.77s-2.35 1.56-3.77 1.56z" fill="#9E22E9"/><path d="M390.89 114.85s.47 0 1.27-.28c1.12-.33 2.1-1.02 2.8-1.96.49-.68.81-1.47.93-2.31.12-.84.03-1.69-.26-2.48a5.14 5.14 0 00-1.17-1.8c-.51-.51-1.13-.9-1.8-1.16-.68-.25-1.41-.35-2.13-.3-.72.05-1.42.26-2.05.6-.64.35-1.19.83-1.63 1.41-.43.57-.74 1.24-.89 1.94-.16.71-.16 1.44-.01 2.15a5 5 0 00.88 1.95c.69.94 1.67 1.63 2.78 1.96.8.22 1.28.22 1.28.28 0 .06-.12 0-.34 0-.33.01-.66-.02-.99-.09a5.453 5.453 0 01-3.09-1.93c-.57-.74-.96-1.6-1.11-2.53-.15-.92-.06-1.86.25-2.74.39-1.1 1.1-2.04 2.04-2.71.95-.67 2.08-1.03 3.24-1.03 1.16 0 2.29.36 3.23 1.03.95.67 1.66 1.61 2.05 2.71.31.88.39 1.82.24 2.74a5.5 5.5 0 01-1.11 2.53c-.77.98-1.86 1.66-3.08 1.93-.32.07-.66.1-.99.09-.28.04-.34.03-.34 0zM420.35 126.13c-1.05 0-2.08-.32-2.96-.9a5.36 5.36 0 01-2.27-5.48c.21-1.03.72-1.98 1.46-2.72.75-.75 1.7-1.26 2.73-1.46 1.04-.21 2.11-.1 3.08.3.98.4 1.81 1.09 2.4 1.96.58.88.89 1.91.89 2.96 0 1.42-.56 2.77-1.56 3.77s-2.35 1.57-3.77 1.57z" fill="#9E22E9"/><path d="M420.35 126.13c0-.06.48-.06 1.27-.29a5.223 5.223 0 002.79-1.95c.56-.76.9-1.65.98-2.58.08-.94-.1-1.87-.52-2.71a5.012 5.012 0 00-1.87-2.03c-.79-.49-1.71-.75-2.65-.75-.93 0-1.85.26-2.65.75-.8.49-1.44 1.19-1.86 2.03-.42.84-.6 1.77-.52 2.71.08.93.41 1.82.97 2.58a5.37 5.37 0 002.79 1.95c.81.23 1.28.23 1.27.29-.01.06-.1 0-.33 0-.34 0-.67-.03-1-.1a5.296 5.296 0 01-3.08-1.93c-.57-.73-.95-1.6-1.1-2.52-.16-.92-.07-1.87.24-2.75a5.63 5.63 0 012.05-2.71c.94-.67 2.07-1.03 3.23-1.03 1.16 0 2.29.36 3.23 1.03a5.63 5.63 0 012.05 2.71c.31.88.39 1.82.24 2.75-.15.92-.53 1.79-1.11 2.52a5.347 5.347 0 01-3.09 2.03c-.32.07-.65.1-.98.09-.23-.09-.35-.09-.35-.09zM452.2 126.13a5.4 5.4 0 01-2.97-.9 5.382 5.382 0 01-1.96-2.39c-.4-.98-.51-2.05-.3-3.09.2-1.03.71-1.98 1.46-2.72.74-.75 1.69-1.26 2.73-1.46 1.03-.21 2.1-.1 3.08.3.97.4 1.8 1.09 2.39 1.96.58.88.9 1.91.9 2.96a5.397 5.397 0 01-1.56 3.78c-.5.49-1.08.89-1.73 1.15-.65.27-1.34.41-2.04.41z" fill="#9E22E9"/><path d="M452.2 126.13c0-.06.47-.06 1.28-.29a5.329 5.329 0 002.78-1.95c.56-.76.9-1.65.98-2.58.08-.94-.1-1.87-.52-2.71a5.15 5.15 0 00-1.86-2.04c-.8-.49-1.72-.75-2.66-.75-.94 0-1.85.26-2.65.75-.8.5-1.45 1.2-1.87 2.04-.42.84-.6 1.77-.51 2.71.08.93.42 1.82.98 2.58.68.94 1.66 1.62 2.78 1.95.8.23 1.28.23 1.27.29-.02.06-.11 0-.34 0-.33 0-.67-.03-.99-.1a5.296 5.296 0 01-3.08-1.93c-.58-.73-.96-1.6-1.11-2.52-.15-.92-.07-1.87.24-2.75a5.63 5.63 0 012.05-2.71c.94-.67 2.07-1.03 3.23-1.03 1.16 0 2.29.36 3.23 1.03a5.63 5.63 0 012.05 2.71c.31.88.4 1.83.25 2.75-.16.92-.54 1.79-1.11 2.52-.77.99-1.86 1.67-3.08 1.93-.33.07-.66.1-1 .1h-.34zM96.86 111.69a6.206 6.206 0 10-6.21-6.21 6.21 6.21 0 006.21 6.21z" fill="#9E22E9"/><path d="M96.86 111.75s.55 0 1.48-.31a6.026 6.026 0 003.27-2.28c.68-.88 1.1-1.94 1.21-3.06.11-1.11-.1-2.23-.59-3.23-.5-1-1.26-1.85-2.21-2.44a6.003 6.003 0 00-6.32 0c-.95.59-1.72 1.44-2.21 2.44-.5 1-.7 2.12-.59 3.23.1 1.12.52 2.18 1.2 3.06a6.19 6.19 0 003.27 2.27c.94.26 1.49.25 1.49.31s-.13 0-.4 0c-.4.01-.8-.03-1.2-.12a6.177 6.177 0 01-3.59-2.24c-.66-.86-1.1-1.86-1.27-2.93-.17-1.07-.07-2.16.29-3.18a6.295 6.295 0 012.25-3.03 6.42 6.42 0 013.85-1.27c1.39 0 2.74.44 3.85 1.27.69.51 1.26 1.16 1.7 1.9.43.74.71 1.57.82 2.42.11.85.05 1.71-.17 2.54-.23.83-.62 1.6-1.15 2.28a6.177 6.177 0 01-3.59 2.24c-.4.09-.8.13-1.2.12-.06.01-.19.01-.19.01zM115.19 111.69a6.206 6.206 0 10-6.21-6.21 6.21 6.21 0 006.21 6.21z" fill="#9E22E9"/><path d="M115.19 111.75s.55 0 1.48-.31a6.078 6.078 0 003.27-2.28c.56-.68.97-1.48 1.19-2.33.22-.86.24-1.75.07-2.62a5.927 5.927 0 00-3.01-4.12 5.992 5.992 0 00-7.26 1.18c-.6.65-1.05 1.42-1.31 2.26-.35.93-.46 1.94-.32 2.92.14.99.53 1.92 1.12 2.72a6.16 6.16 0 003.28 2.27c.92.26 1.49.25 1.49.31s-.15 0-.41 0c-.4.01-.81-.03-1.2-.12-1.42-.3-2.7-1.09-3.59-2.24-.54-.67-.93-1.45-1.16-2.28-.22-.83-.28-1.69-.17-2.54.11-.86.39-1.68.82-2.42.44-.74 1.02-1.39 1.7-1.9a6.538 6.538 0 013.86-1.27c1.38 0 2.73.45 3.85 1.27a6.497 6.497 0 012.56 4.3c.12.86.06 1.72-.16 2.55-.23.83-.61 1.61-1.14 2.29a6.122 6.122 0 01-3.6 2.24c-.39.09-.79.13-1.2.12h-.16zM133.96 111.75c-1.23 0-2.43-.36-3.45-1.05a6.197 6.197 0 01-2.28-2.78c-.47-1.13-.6-2.38-.36-3.59.24-1.2.83-2.31 1.7-3.17.87-.87 1.97-1.46 3.18-1.7a6.18 6.18 0 013.58.35 6.189 6.189 0 013.83 5.73 6.212 6.212 0 01-1.81 4.39c-.58.58-1.26 1.04-2.02 1.35-.75.31-1.56.47-2.37.47z" fill="#9E22E9"/><path d="M133.96 111.75s.55 0 1.48-.31a6.14 6.14 0 003.28-2.28 6.006 6.006 0 00-1.6-8.73c-.95-.59-2.04-.9-3.16-.9a5.978 5.978 0 00-5.37 3.34c-.5 1-.7 2.12-.59 3.23a5.94 5.94 0 001.2 3.06c.81 1.1 1.96 1.9 3.27 2.27.94.26 1.49.25 1.49.31s-.13 0-.4 0c-.4.01-.8-.03-1.19-.12a6.17 6.17 0 01-3.6-2.24c-.52-.68-.91-1.46-1.13-2.29a6.453 6.453 0 01.68-4.96c.44-.74 1.02-1.38 1.71-1.89a6.42 6.42 0 013.85-1.27c1.39 0 2.74.44 3.85 1.27 1.04.76 1.83 1.81 2.25 3.03.37 1.02.47 2.11.29 3.18a6.37 6.37 0 01-1.27 2.93 6.146 6.146 0 01-3.59 2.24c-.39.09-.8.13-1.2.12-.12.01-.25.01-.25.01zM34.69 76.74c0-.16 35.76-.31 79.87-.31 44.11 0 79.89.15 79.89.31 0 .17-35.76.32-79.89.32-44.12 0-79.87-.15-79.87-.32zM21.53 92.37h4.85l13.27-.11 43.79-.09 46.41.11-.18.11c2.23-4.29 4-7.73 5.26-10.13l1.44-2.86.38-.68.14-.23c-.02.09-.05.18-.09.26l-.33.7c-.32.67-.76 1.6-1.34 2.76l-5.09 10.22c-.02.03-.04.05-.08.07-.03.02-.06.03-.1.03l-46.41.11-43.79-.06-13.27-.09h-4.54a.958.958 0 01-.32-.12z" fill="#9E22E9"/><path d="M159.75 76.53c-.05.19-.12.37-.2.55-.17.4-.4.91-.67 1.57-.64 1.41-1.51 3.41-2.63 5.92l-9.46 21.02c-.02.05-.06.09-.1.12-.05.03-.1.05-.15.05H83.85c-.05 0-.1-.01-.15-.04a.273.273 0 01-.09-.12l-8.39-19.61-2.31-5.48-.68-1.48c-.07-.16-.13-.33-.17-.5.1.15.18.3.25.47l.66 1.42 2.39 5.44c2.1 4.79 5.07 11.45 8.63 19.52l-.24-.16h62.69l-.25.17 9.68-20.94 2.76-5.86c.31-.64.55-1.2.74-1.53.11-.19.24-.37.38-.53z" fill="#9E22E9"/><path d="M136.89 82.73c3.43 0 6.21-2.77 6.21-6.2a6.21 6.21 0 00-6.21-6.21c-3.42 0-6.2 2.78-6.2 6.21a6.2 6.2 0 006.2 6.2z" fill="#9E22E9"/><path d="M136.92 82.73s.56 0 1.5-.31a6.136 6.136 0 003.27-2.27 6.06 6.06 0 001.17-3.06 5.983 5.983 0 00-2.82-5.63 5.967 5.967 0 00-6.3 0c-.94.58-1.71 1.42-2.2 2.41-.5 1-.71 2.11-.61 3.22.1 1.11.5 2.17 1.17 3.06.81 1.1 1.96 1.9 3.27 2.27.94.27 1.5.25 1.49.31-.01.06-.13 0-.4 0-.4.02-.8-.02-1.2-.12a6.05 6.05 0 01-3.59-2.24c-.53-.67-.92-1.45-1.14-2.28a6.452 6.452 0 012.4-6.86 6.476 6.476 0 013.85-1.26c1.39 0 2.74.44 3.85 1.26.69.51 1.28 1.16 1.72 1.9a6.452 6.452 0 01.68 4.96c-.22.83-.61 1.61-1.14 2.28a6.128 6.128 0 01-3.59 2.24c-.4.1-.8.14-1.2.12-.06.04-.18.03-.18 0zM159.75 82.73c3.43 0 6.21-2.77 6.21-6.2a6.21 6.21 0 00-6.21-6.21c-3.43 0-6.2 2.78-6.2 6.21s2.77 6.2 6.2 6.2z" fill="#9E22E9"/><path d="M159.75 82.73s.55 0 1.49-.31a6.136 6.136 0 003.27-2.27 6.01 6.01 0 001.2-3.06 5.92 5.92 0 00-.6-3.23c-.49-1-1.26-1.85-2.2-2.44-.95-.58-2.05-.9-3.16-.9-1.12 0-2.22.32-3.16.9-.95.59-1.72 1.44-2.21 2.44-.5 1-.7 2.12-.6 3.23.11 1.11.53 2.17 1.2 3.06.81 1.1 1.97 1.9 3.29 2.27.92.27 1.48.25 1.48.31s-.14 0-.41 0c-.38.01-.76-.03-1.13-.12a6.121 6.121 0 01-3.6-2.24c-.53-.67-.92-1.45-1.14-2.28a6.452 6.452 0 012.4-6.86 6.52 6.52 0 013.85-1.26c1.39 0 2.74.44 3.85 1.26a6.36 6.36 0 012.26 3.03c.36 1.02.46 2.12.29 3.19a6.425 6.425 0 01-1.29 2.92 6.05 6.05 0 01-3.59 2.24c-.39.1-.8.14-1.2.12-.16.04-.29.03-.29 0zM73.33 82.73c3.43 0 6.2-2.77 6.2-6.2s-2.77-6.21-6.2-6.21a6.21 6.21 0 00-6.21 6.21c0 3.43 2.78 6.2 6.21 6.2z" fill="#9E22E9"/><path d="M73.33 82.73s.55 0 1.48-.31a6.148 6.148 0 003.29-2.27 6.06 6.06 0 001.17-3.06 5.983 5.983 0 00-2.82-5.63c-.94-.59-2.03-.9-3.15-.9-1.11 0-2.2.31-3.14.9a5.983 5.983 0 00-2.82 5.63c.1 1.11.5 2.17 1.17 3.06.81 1.1 1.96 1.9 3.27 2.27.94.27 1.49.25 1.49.31s-.13 0-.4 0c-.4.02-.8-.02-1.2-.12a6.05 6.05 0 01-3.59-2.24 6.305 6.305 0 01-1.28-2.92c-.18-1.07-.08-2.17.29-3.19a6.34 6.34 0 012.25-3.03 6.476 6.476 0 013.85-1.26c1.39 0 2.74.44 3.85 1.26.69.52 1.27 1.17 1.7 1.91.44.74.72 1.56.83 2.41.11.85.05 1.72-.18 2.55-.23.83-.62 1.6-1.15 2.27a6.128 6.128 0 01-3.59 2.24c-.38.09-.76.13-1.14.12-.09.04-.18.03-.18 0zM52.69 82.73a6.2 6.2 0 006.2-6.2c0-3.43-2.78-6.21-6.2-6.21a6.21 6.21 0 00-6.21 6.21c0 3.43 2.78 6.2 6.21 6.2z" fill="#9E22E9"/><path d="M52.69 82.73s.55 0 1.48-.31a6.061 6.061 0 003.27-2.27c.68-.89 1.1-1.95 1.21-3.06.11-1.11-.1-2.23-.59-3.24-.5-1-1.26-1.84-2.21-2.43a6.01 6.01 0 00-6.33 0 5.998 5.998 0 00-2.79 5.67c.1 1.11.52 2.17 1.2 3.06.81 1.1 1.96 1.9 3.27 2.27.94.27 1.49.25 1.49.31s-.14 0-.4 0c-.4.02-.8-.02-1.2-.12a6.128 6.128 0 01-3.59-2.24 6.44 6.44 0 01-1.27-2.92 6.41 6.41 0 01.29-3.19 6.34 6.34 0 012.25-3.03 6.476 6.476 0 013.85-1.26c1.39 0 2.74.44 3.85 1.26 1.04.77 1.82 1.82 2.24 3.03a6.44 6.44 0 01-.98 6.11 6.128 6.128 0 01-3.59 2.24c-.4.1-.8.14-1.2.12-.12.04-.25.03-.25 0zM62.47 98.57c-1.23.01-2.44-.34-3.47-1.02a6.155 6.155 0 01-2.31-2.78 6.248 6.248 0 01-.38-3.6A6.13 6.13 0 0158 87.98c.87-.88 1.98-1.48 3.19-1.72s2.46-.12 3.6.35a6.27 6.27 0 012.8 2.29 6.28 6.28 0 011.04 3.47 6.196 6.196 0 01-6.16 6.2z" fill="#9E22E9"/><path d="M62.47 98.57s.56 0 1.49-.31a6.207 6.207 0 003.27-2.28c.67-.89 1.07-1.94 1.17-3.05.1-1.11-.11-2.22-.6-3.22-.5-.99-1.27-1.83-2.21-2.42a6.05 6.05 0 00-3.15-.89c-1.11 0-2.2.31-3.15.89a6.06 6.06 0 00-2.21 2.42c-.5 1-.71 2.11-.61 3.22.1 1.11.51 2.16 1.18 3.05.81 1.1 1.96 1.9 3.28 2.28.93.26 1.48.25 1.48.31s-.14 0-.4 0c-.41.01-.81-.03-1.2-.12a6.278 6.278 0 01-3.59-2.24c-.54-.67-.93-1.45-1.16-2.28-.23-.82-.29-1.69-.17-2.54.11-.85.39-1.67.82-2.42a6.57 6.57 0 011.7-1.9 6.472 6.472 0 013.85-1.28c1.39 0 2.74.45 3.86 1.28 1.15.74 2.03 1.83 2.51 3.12.37 1.02.47 2.11.29 3.18a6.385 6.385 0 01-1.28 2.93 6.27 6.27 0 01-3.6 2.24c-.39.08-.79.12-1.19.12-.21-.09-.38-.09-.38-.09z" fill="#9E22E9"/><path d="M394.49 198.94c0 .17-64.26.31-143.51.31-79.25 0-143.53-.14-143.53-.31 0-.17 64.25-.32 143.53-.32s143.51.14 143.51.32zM128.77 303.59h-1.48l-4.26.06-15.67.09-51.68.1h-3.89a.36.36 0 01-.22-.09.31.31 0 01-.09-.22c0-19.29.07-36.58.09-49.12 0-6.21.07-11.23.1-14.74v-4-1.03c-.02-.12-.02-.24 0-.36.01.12.01.24 0 .36v5.03c0 3.51 0 8.53.11 14.74 0 12.52 0 29.8.09 49.12l-.31-.32h3.89l51.69.1 15.67.1 4.25.06h1.11c.21-.01.41.03.6.12zM304.31 198.01c-.16 0-.31-17.97-.31-40.16 0-22.19.15-40.16.31-40.16.17 0 .32 17.97.32 40.16 0 22.19-.15 40.16-.32 40.16z" fill="#263238"/><path d="M358.62 20.71H181.35v103.3h177.27V20.71z" fill="#263238"/><path d="M195.22 118.81c-.09 0-.18-21.12-.18-47.18s.09-47.17.18-47.17c.1 0 .17 21.11.17 47.17 0 26.06-.08 47.18-.17 47.18zM191.57 28.44c-1.95.22-3.92.22-5.87 0 1.95-.22 3.92-.22 5.87 0zM191.57 34.66c-1.95.22-3.92.22-5.87 0 1.95-.24 3.92-.24 5.87 0zM191.57 40.88c-1.95.22-3.92.22-5.87 0 1.95-.24 3.92-.24 5.87 0zM191.57 47.06c-1.95.24-3.92.24-5.87 0 1.95-.23 3.92-.23 5.87 0zM191.57 53.3c-1.95.24-3.92.24-5.87 0 1.95-.22 3.92-.22 5.87 0zM191.57 59.52c-1.95.22-3.92.22-5.87 0 1.95-.23 3.92-.23 5.87 0zM191.57 65.73c-1.95.23-3.92.23-5.87 0 1.95-.22 3.92-.22 5.87 0zM191.57 71.95c-1.95.23-3.92.23-5.87 0 1.95-.22 3.92-.22 5.87 0zM191.57 78.21c-1.95.22-3.92.22-5.87 0 1.95-.23 3.92-.23 5.87 0zM191.57 84.39c-1.95.22-3.92.22-5.87 0 1.95-.23 3.92-.23 5.87 0zM191.57 90.61c-1.95.22-3.92.22-5.87 0 1.95-.23 3.92-.23 5.87 0zM191.57 96.82c-1.95.23-3.92.23-5.87 0 1.95-.22 3.92-.22 5.87 0zM191.57 103.04c-1.95.22-3.92.22-5.87 0 1.95-.24 3.92-.24 5.87 0zM191.57 109.26c-1.95.22-3.92.22-5.87 0 1.95-.24 3.92-.24 5.87 0zM191.57 115.46c-1.95.24-3.92.24-5.87 0 1.95-.22 3.92-.22 5.87 0z" fill="#E0E0E0" stroke="#E0E0E0" stroke-width=".25" stroke-miterlimit="10"/><path d="M215.1 28.07c0 .1-3.4.17-7.61.17-4.2 0-7.62-.07-7.62-.17s3.41-.17 7.62-.17c4.22 0 7.61.07 7.61.17zM215.1 115.46c0 .1-3.4.18-7.61.18-4.2 0-7.62-.08-7.62-.18 0-.09 3.41-.16 7.62-.16 4.22 0 7.61.04 7.61.16zM236.35 40.88c0 .08-6.38.16-14.25.16-7.88 0-14.26-.08-14.26-.16 0-.09 6.38-.18 14.26-.18 7.87 0 14.25.08 14.25.18z" fill="#9E22E9"/><path d="M269.29 40.88c0 .08-6.39.16-14.26.16s-14.26-.08-14.26-.16c0-.09 6.39-.18 14.26-.18s14.26.08 14.26.18zM256.72 47.06c0 .09-9.41.18-21 .18-11.6 0-21-.09-21-.18 0-.1 9.4-.17 21-.17 11.59 0 21 .17 21 .17zM256.72 53.3c0 .1-9.41.18-21 .18-11.6 0-21-.08-21-.18 0-.1 9.4-.17 21-.17 11.59 0 21 .09 21 .17zM285.6 71.95c0 .1-9.4.17-21 .17s-21.06-.07-21.06-.17c0-.09 9.4-.17 21.01-.17 11.61 0 21.05.08 21.05.17zM273.13 59.52c0 .09-9.42.16-21.01.16-11.6 0-21-.07-21-.16 0-.1 9.4-.17 21-.17 11.59 0 21.01.07 21.01.17zM324.46 59.52c0 .09-9.4.16-21.01.16-11.61 0-21-.07-21-.16 0-.1 9.41-.17 21-.17 11.6 0 21.01.07 21.01.17zM306.6 47.06c0 .09-9.4.18-21 .18-11.59 0-21-.09-21-.18 0-.1 9.41-.17 21-.17 11.6 0 21 .17 21 .17zM335.63 71.95c0 .1-9.4.17-21.01.17-11.61 0-21-.07-21-.17 0-.09 9.4-.17 21-.17 11.59 0 21.01.08 21.01.17z" fill="#E0E0E0" stroke="#E0E0E0" stroke-width=".25" stroke-miterlimit="10"/><path d="M329.8 53.3c0 .1-14.61.18-32.61.18-18.01 0-32.63-.08-32.63-.18 0-.1 14.61-.17 32.63-.17 18.01 0 32.61.09 32.61.17z" fill="#455A64" stroke="#455A64" stroke-width=".25" stroke-miterlimit="10"/><path d="M215.1 34.66c0 .08-3.4.17-7.61.17-4.2 0-7.62-.09-7.62-.17 0-.09 3.41-.18 7.62-.18 4.22 0 7.61.08 7.61.18zM215.1 109.26c0 .08-3.4.17-7.61.17-4.2 0-7.62-.09-7.62-.17 0-.09 3.41-.18 7.62-.18 4.22 0 7.61.08 7.61.18zM222.65 59.52c0 .09-3.41.16-7.61.16-4.21 0-7.62-.07-7.62-.16 0-.1 3.4-.17 7.62-.17 4.22 0 7.61.07 7.61.17z" fill="#E0E0E0" stroke="#E0E0E0" stroke-width=".25" stroke-miterlimit="10"/><path d="M344.76 59.52c0 .09-3.42.16-7.62.16-4.21 0-7.62-.07-7.62-.16 0-.1 3.41-.17 7.62-.17 4.2 0 7.62.07 7.62.17zM236.35 84.35c0 .1-6.38.17-14.25.17-7.88 0-14.26-.07-14.26-.17 0-.09 6.38-.17 14.26-.17 7.87 0 14.25.08 14.25.17z" fill="#9E22E9"/><path d="M269.29 84.35c0 .1-6.39.17-14.26.17s-14.26-.07-14.26-.17c0-.09 6.39-.17 14.26-.17s14.26.08 14.26.17zM256.72 90.57c0 .1-9.41.17-21 .17-11.6 0-21-.07-21-.17s9.4-.17 21-.17c11.59 0 21 .07 21 .17zM256.72 96.79c0 .09-9.41.16-21 .16-11.6 0-21-.07-21-.16 0-.1 9.4-.17 21-.17 11.59 0 21 .07 21 .17zM273.13 103c0 .09-9.42.17-21.01.17-11.6 0-21-.08-21-.17 0-.08 9.4-.18 21-.18 11.59 0 21.01.09 21.01.18zM324.46 103c0 .09-9.4.17-21.01.17-11.61 0-21-.08-21-.17 0-.08 9.41-.18 21-.18 11.6 0 21.01.09 21.01.18zM306.6 90.57c0 .1-9.4.17-21 .17-11.59 0-21-.07-21-.17s9.41-.17 21-.17c11.6 0 21 .07 21 .17z" fill="#E0E0E0" stroke="#E0E0E0" stroke-width=".25" stroke-miterlimit="10"/><path d="M329.8 96.79c0 .09-14.61.16-32.61.16-18.01 0-32.63-.07-32.63-.16 0-.1 14.61-.17 32.63-.17 18.01 0 32.61.07 32.61.17z" fill="#455A64" stroke="#455A64" stroke-width=".25" stroke-miterlimit="10"/><path d="M222.65 103c0 .09-3.41.17-7.61.17-4.21 0-7.62-.08-7.62-.17 0-.08 3.4-.18 7.62-.18 4.22 0 7.61.09 7.61.18z" fill="#E0E0E0" stroke="#E0E0E0" stroke-width=".25" stroke-miterlimit="10"/><path d="M344.76 103c0 .09-3.42.17-7.62.17-4.21 0-7.62-.08-7.62-.17 0-.08 3.41-.18 7.62-.18 4.2 0 7.62.09 7.62.18z" fill="#9E22E9"/><path d="M478.62 163.89H335.53v83.37h143.09v-83.37z" fill="#263238"/><path d="M346.72 243.06c-.07 0-.13-17.04-.13-38.08s.06-38.07.13-38.07c.08 0 .14 17.04.14 38.07 0 21.02-.06 38.08-.14 38.08z" fill="#E0E0E0"/><path d="M346.72 243.18s-.08 0-.1-.15v-2.95-8.16-26.93-26.92-8.16-2.94c0-.15 0-.15.1-.15.11 0 .09 0 .11.15v76.06c-.02.15-.05.15-.11.15zm0-56.06V204.98c0-6.43.02-12.52 0-17.86zM343.78 170.12c-1.58.17-3.16.17-4.74 0 1.58-.18 3.16-.18 4.74 0z" fill="#E0E0E0"/><path d="M341.42 170.38c-2.5 0-2.5-.14-2.5-.26s0-.25 2.5-.25c2.49 0 2.48.13 2.48.25s0 .26-2.48.26zM343.78 175.14c-1.58.17-3.16.17-4.74 0 1.58-.2 3.17-.2 4.74 0z" fill="#E0E0E0"/><path d="M341.42 175.39c-2.5 0-2.5-.13-2.5-.25s0-.27 2.5-.27c2.49 0 2.48.15 2.48.27 0 .12 0 .25-2.48.25zM343.78 180.16c-1.58.17-3.16.17-4.74 0 1.58-.2 3.17-.2 4.74 0z" fill="#E0E0E0"/><path d="M341.42 180.41c-2.5 0-2.5-.15-2.5-.25 0-.11 0-.27 2.5-.27 2.49 0 2.48.15 2.48.27 0 .12 0 .25-2.48.25zm-1.13-.25h2.24-2.24zM343.78 185.18c-1.58.17-3.16.17-4.74 0 1.58-.2 3.17-.2 4.74 0z" fill="#E0E0E0"/><path d="M341.42 185.43c-2.5 0-2.5-.15-2.5-.25 0-.11 0-.27 2.5-.27 2.49 0 2.48.15 2.48.27 0 .12 0 .25-2.48.25zm-1.13-.25h2.24-2.24zM343.78 190.2c-1.58.17-3.16.17-4.74 0 1.58-.2 3.17-.2 4.74 0z" fill="#E0E0E0"/><path d="M341.42 190.45c-2.5 0-2.5-.15-2.5-.27 0-.12 0-.25 2.5-.25 2.49 0 2.48.15 2.48.25 0 .11 0 .27-2.48.27zm-1.14-.27h2.26-2.26zM343.78 195.2c-1.57.19-3.16.19-4.74 0 1.58-.17 3.16-.17 4.74 0z" fill="#E0E0E0"/><path d="M341.42 195.47c-2.5 0-2.5-.15-2.5-.27 0-.12 0-.25 2.5-.25 2.49 0 2.48.14 2.48.25 0 .11 0 .27-2.48.27zm-1.13-.27h2.24-2.24zM343.78 200.22c-1.57.19-3.16.19-4.74 0 1.58-.17 3.16-.17 4.74 0z" fill="#E0E0E0"/><path d="M341.42 200.49c-2.5 0-2.5-.15-2.5-.27 0-.12 0-.25 2.5-.25 2.49 0 2.48.14 2.48.25 0 .11 0 .27-2.48.27zm-1.13-.27h2.24-2.24zM343.78 205.19c-1.57.2-3.16.2-4.74 0 1.58-.17 3.16-.17 4.74 0z" fill="#E0E0E0"/><path d="M341.42 205.51c-2.5 0-2.5-.15-2.5-.27 0-.12 0-.25 2.5-.25 2.49 0 2.48.13 2.48.25s0 .27-2.48.27zM343.78 210.26c-1.58.18-3.16.18-4.74 0 1.58-.17 3.16-.17 4.74 0z" fill="#E0E0E0"/><path d="M341.42 210.51c-2.5 0-2.5-.13-2.5-.25s0-.26 2.5-.26c2.49 0 2.48.14 2.48.26s0 .25-2.48.25zM343.78 215.28c-1.58.18-3.16.18-4.74 0 1.58-.19 3.17-.19 4.74 0z" fill="#E0E0E0"/><path d="M341.42 215.53c-2.5 0-2.5-.14-2.5-.25 0-.11 0-.26 2.5-.26 2.49 0 2.48.14 2.48.26s0 .25-2.48.25zm-1.13-.25h2.24-2.24zM343.78 220.3c-1.58.18-3.16.18-4.74 0 1.58-.19 3.17-.19 4.74 0z" fill="#E0E0E0"/><path d="M341.42 220.55c-2.5 0-2.5-.14-2.5-.25 0-.11 0-.26 2.5-.26 2.49 0 2.48.14 2.48.26s0 .25-2.48.25zm-1.14-.25h2.26-2.26zM343.78 225.32c-1.58.18-3.16.18-4.74 0 1.58-.19 3.17-.19 4.74 0z" fill="#E0E0E0"/><path d="M341.42 225.56c-2.5 0-2.5-.14-2.5-.25 0-.11 0-.27 2.5-.27 2.49 0 2.48.15 2.48.27 0 .12 0 .25-2.48.25zm-1.13-.25h2.24-2.24zM343.78 230.35c-1.57.19-3.16.19-4.74 0 1.58-.17 3.16-.17 4.74 0z" fill="#E0E0E0"/><path d="M341.42 230.59c-2.5 0-2.5-.14-2.5-.26s0-.25 2.5-.25c2.49 0 2.48.14 2.48.25 0 .11 0 .26-2.48.26zm-1.13-.26h2.24-2.24zM343.78 235.35c-1.57.19-3.16.19-4.74 0 1.58-.18 3.16-.18 4.74 0z" fill="#E0E0E0"/><path d="M341.42 235.61c-2.5 0-2.5-.14-2.5-.26s0-.25 2.5-.25c2.49 0 2.48.14 2.48.25 0 .11 0 .26-2.48.26zm-1.14-.26h2.26-2.26zM343.78 240.37c-1.57.19-3.16.19-4.74 0 1.58-.18 3.16-.18 4.74 0z" fill="#E0E0E0"/><path d="M341.42 240.63c-2.5 0-2.5-.14-2.5-.26s0-.25 2.5-.25c2.49 0 2.48.14 2.48.25 0 .11 0 .26-2.48.26z" fill="#E0E0E0"/><path d="M362.78 169.82c0 .08-2.76.14-6.15.14-3.39 0-6.16-.06-6.16-.14 0-.09 2.76-.13 6.16-.13 3.4 0 6.15.06 6.15.13z" fill="#E8505B"/><path d="M356.63 170.08c-6.28 0-6.28-.12-6.28-.26 0-.15 0-.25 6.28-.25s6.27.12 6.27.25 0 .26-6.27.26zm-2.92-.26h5.84-5.84z" fill="#9E22E9"/><path d="M362.78 240.37c0 .07-2.76.14-6.15.14-3.39 0-6.16-.07-6.16-.14s2.76-.13 6.16-.13c3.4 0 6.15.06 6.15.13z" fill="#E8505B"/><path d="M356.63 240.63c-6.28 0-6.28-.12-6.28-.26 0-.15 0-.25 6.28-.25s6.27.12 6.27.25 0 .26-6.27.26z" fill="#9E22E9"/><path d="M379.9 180.16c0 .07-5.16.13-11.5.13-6.35 0-11.51-.06-11.51-.13 0-.08 5.16-.15 11.51-.15 6.34 0 11.5.03 11.5.15z" fill="#E8505B"/><path d="M368.4 180.41h-8.14c-3.49 0-3.49-.06-3.49-.22 0-.15 0-.18 3.49-.21H376.53c3.5 0 3.5 0 3.5.21 0 .22 0 .17-3.5.22-2.17-.01-5.06 0-8.13 0zm-5.44-.25h10.87H362.96z" fill="#9E22E9"/><path d="M406.47 180.16c0 .07-5.15.13-11.5.13s-11.5-.06-11.5-.13c0-.08 5.15-.15 11.5-.15s11.5.03 11.5.15z" fill="#E0E0E0"/><path d="M395 180.41h-8.13c-3.49 0-3.49-.06-3.49-.22 0-.15 0-.18 3.49-.21H403.14c3.48 0 3.48 0 3.48.21 0 .22 0 .17-3.48.22-2.17-.01-5.06 0-8.14 0zm-5.44-.25h10.92H389.56zM396.34 185.18c0 .07-7.59.13-16.96.13-9.37 0-16.95-.06-16.95-.13 0-.08 7.59-.15 16.95-.15s16.96.06 16.96.15z" fill="#E0E0E0"/><path d="M379.38 185.43H367.4c-5.08 0-5.08 0-5.08-.22 0-.21 0-.18 5.08-.23h23.96c5.09 0 5.09.06 5.09.23s0 .17-5.09.22c-3.19-.01-7.45 0-11.98 0zm-8.01-.25h16.04-16.04zM396.34 190.2c0 .07-7.59.13-16.96.13-9.37 0-16.95-.06-16.95-.13 0-.08 7.59-.15 16.95-.15s16.96.06 16.96.15z" fill="#E0E0E0"/><path d="M379.38 190.45H367.4c-5.08 0-5.08 0-5.08-.23s0-.17 5.08-.22h23.96c5.09 0 5.09.06 5.09.22 0 .15 0 .18-5.09.23-3.19-.02-7.45 0-11.98 0zm-8.06-.27h16.14-16.14zM419.65 205.19c0 .08-7.6.15-16.96.15-9.35 0-16.96-.07-16.96-.15 0-.07 7.6-.13 16.96-.13 9.37 0 16.96.13 16.96.13z" fill="#E0E0E0"/><path d="M402.73 205.51h-11.98c-5.09 0-5.09 0-5.09-.22s0-.18 5.09-.22h23.96c5.09 0 5.09 0 5.09.22s0 .18-5.09.22c-3.2-.03-7.45 0-11.98 0zM409.61 195.2c0 .09-7.6.15-16.95.15-9.36 0-16.96-.06-16.96-.15 0-.08 7.59-.13 16.96-.13 9.36 0 16.95.06 16.95.13z" fill="#E0E0E0"/><path d="M392.66 195.47h-11.98c-5.08 0-5.08 0-5.08-.23s0-.17 5.08-.22h23.96c5.07 0 5.07 0 5.07.22 0 .21 0 .18-5.07.23-3.2-.02-7.46 0-11.98 0zm-8.03-.27H400.68h-16.05zM451.05 195.2c0 .09-7.6.15-16.96.15-9.35 0-16.95-.06-16.95-.15 0-.08 7.59-.13 16.95-.13 9.37 0 16.96.06 16.96.13z" fill="#E0E0E0"/><path d="M434.09 195.47h-11.98c-5.08 0-5.08 0-5.08-.23s0-.17 5.08-.22h23.96c5.08 0 5.08 0 5.08.22 0 .21 0 .18-5.08.23-3.19-.02-7.45 0-11.98 0zm-8.02-.27H442.12h-16.05zM436.63 185.18c0 .07-7.58.13-16.95.13s-16.95-.06-16.95-.13c0-.08 7.58-.15 16.95-.15s16.95.06 16.95.15z" fill="#E0E0E0"/><path d="M419.65 185.43h-11.98c-5.08 0-5.08 0-5.08-.22 0-.21 0-.18 5.08-.23h23.96c5.08 0 5.08.06 5.08.23s0 .17-5.08.22c-3.17-.01-7.42 0-11.98 0zm-8.03-.25h16.05H411.62zM460.05 205.19c0 .08-7.58.15-16.95.15s-16.95-.07-16.95-.15c0-.07 7.58-.13 16.95-.13s16.95.13 16.95.13z" fill="#E0E0E0"/><path d="M443.1 205.51h-11.98c-5.08 0-5.08 0-5.08-.22s0-.18 5.08-.22h23.96c5.09 0 5.09 0 5.09.22s0 .18-5.09.22c-3.18-.03-7.45 0-11.98 0z" fill="#E0E0E0"/><path d="M455.38 190.2c0 .07-11.79.13-26.35.13-14.57 0-26.36-.06-26.36-.13 0-.08 11.78-.15 26.36-.15s26.35.06 26.35.15z" fill="#455A64"/><path d="M429.05 190.45h-18.62c-5.58 0-7.18 0-7.64-.11-.14 0-.14-.06-.14-.11s0-.07.14-.09c.47 0 2.07-.08 7.64-.11h37.24c5.58 0 7.19 0 7.65.11.16 0 .16.06.16.09 0 .04 0 .08-.15.11-.46.06-2.07.07-7.65.11-4.97-.02-11.59 0-18.63 0zm-12.42-.27h24.86-24.86z" fill="#455A64"/><path d="M362.78 175.14c0 .07-2.76.13-6.15.13-3.39 0-6.16-.06-6.16-.13 0-.08 2.76-.15 6.16-.15 3.4 0 6.15.07 6.15.15z" fill="#E0E0E0"/><path d="M356.63 175.39c-6.28 0-6.28-.12-6.28-.25 0-.14 0-.27 6.28-.27s6.27.12 6.27.27c0 .14 0 .25-6.27.25zM362.78 235.35c0 .08-2.76.14-6.15.14-3.39 0-6.16 0-6.16-.14 0-.15 2.76-.13 6.16-.13 3.4 0 6.15.06 6.15.13z" fill="#E0E0E0"/><path d="M356.63 235.61c-6.28 0-6.28-.12-6.28-.26 0-.15 0-.25 6.28-.25s6.27.12 6.27.25 0 .26-6.27.26zm-2.92-.26h5.84-5.84zM368.86 195.2c0 .09-2.74.15-6.14.15-3.41 0-6.15-.06-6.15-.15 0-.08 2.76-.13 6.15-.13 3.39 0 6.14.06 6.14.13z" fill="#E0E0E0"/><path d="M362.72 195.47c-6.27 0-6.27-.12-6.27-.27 0-.14 0-.25 6.27-.25 6.26 0 6.27.12 6.27.25s0 .27-6.27.27zm-2.9-.27H365.63h-5.81z" fill="#E0E0E0"/><path d="M467.43 195.2c0 .09-2.75.15-6.14.15-3.39 0-6.16-.06-6.16-.15 0-.08 2.76-.13 6.16-.13 3.4 0 6.14.06 6.14.13z" fill="#E8505B"/><path d="M461.29 195.47c-6.28 0-6.28-.12-6.28-.27 0-.14 0-.25 6.28-.25s6.26.12 6.26.25.02.27-6.26.27zm-2.91-.27H464.19h-5.81z" fill="#9E22E9"/><path d="M379.9 215.25c0 .08-5.16.14-11.5.14-6.35 0-11.51 0-11.51-.14 0-.15 5.16-.14 11.51-.14 6.34 0 11.5.06 11.5.14z" fill="#E8505B"/><path d="M368.4 215.51h-8.14c-3.49 0-3.49-.06-3.49-.23s0-.17 3.49-.21H376.53c3.5 0 3.5 0 3.5.21 0 .22 0 .18-3.5.23-2.17-.01-5.06 0-8.13 0zm-5.48-.26h10.95-10.95z" fill="#9E22E9"/><path d="M406.47 215.25c0 .08-5.15.14-11.5.14s-11.5 0-11.5-.14c0-.15 5.15-.14 11.5-.14s11.5.06 11.5.14z" fill="#E0E0E0"/><path d="M395 215.51h-8.13c-3.49 0-3.49-.06-3.49-.23s0-.17 3.49-.21H403.14c3.48 0 3.48 0 3.48.21 0 .22 0 .18-3.48.23-2.17-.01-5.06 0-8.14 0zm-5.47-.26h10.95-10.95zM396.34 220.26c0 .09-7.59.15-16.96.15-9.37 0-16.95 0-16.95-.15 0-.14 7.59-.13 16.95-.13s16.96.06 16.96.13z" fill="#E0E0E0"/><path d="M379.38 220.53H367.4c-5.08 0-5.08 0-5.08-.22 0-.21 0-.18 5.08-.21h23.96c5.09 0 5.09 0 5.09.21 0 .22 0 .18-5.09.22-3.19-.01-7.45 0-11.98 0zm-8.01-.27h16.04-16.04zM396.34 225.28c0 .08-7.59.15-16.96.15-9.37 0-16.95-.07-16.95-.15 0-.07 7.59-.13 16.95-.13s16.96.06 16.96.13z" fill="#E0E0E0"/><path d="M379.38 225.56H367.4c-5.08 0-5.08 0-5.08-.22 0-.21 0-.18 5.08-.21h23.96c5.09 0 5.09 0 5.09.21 0 .22 0 .18-5.09.22h-11.98zM409.61 230.35c0 .07-7.6.13-16.95.13-9.36 0-16.96 0-16.96-.13s7.59-.14 16.96-.14c9.36 0 16.95.02 16.95.14z" fill="#E0E0E0"/><path d="M392.66 230.56h-11.98c-5.08 0-5.08 0-5.08-.22s0-.18 5.08-.22h23.96c5.07 0 5.07 0 5.07.22s0 .18-5.07.22c-3.2-.02-7.46 0-11.98 0zM451.05 230.35c0 .07-7.6.13-16.96.13-9.35 0-16.95 0-16.95-.13s7.59-.14 16.95-.14c9.37 0 16.96.02 16.96.14z" fill="#E0E0E0"/><path d="M434.09 230.56h-11.98c-5.08 0-5.08 0-5.08-.22s0-.18 5.08-.22h23.96c5.08 0 5.08 0 5.08.22s0 .18-5.08.22c-3.19-.02-7.45 0-11.98 0zM436.63 220.26c0 .09-7.58.15-16.95.15s-16.95 0-16.95-.15c0-.14 7.58-.13 16.95-.13s16.95.06 16.95.13z" fill="#E0E0E0"/><path d="M419.65 220.53h-11.98c-5.08 0-5.08 0-5.08-.22 0-.21 0-.18 5.08-.21h23.96c5.08 0 5.08 0 5.08.21 0 .22 0 .18-5.08.22-3.17-.01-7.42 0-11.98 0zm-8.03-.27H427.67h-16.05z" fill="#E0E0E0"/><path d="M455.38 225.28c0 .08-11.79.15-26.35.15-14.57 0-26.36-.07-26.36-.15 0-.07 11.78-.13 26.36-.13s26.35.06 26.35.13z" fill="#455A64"/><path d="M429.05 225.56h-18.62c-5.58 0-7.18 0-7.64-.11-.14 0-.14-.06-.14-.11 0-.04 0-.08.14-.1.47-.08 2.07-.09 7.64-.11h37.24c5.58 0 7.19 0 7.65.11.16 0 .16 0 .16.1 0 .11 0 .09-.15.11-.46.07-2.07.09-7.65.11h-18.63z" fill="#455A64"/><path d="M368.86 230.35c0 .07-2.74.13-6.14.13-3.41 0-6.15 0-6.15-.13s2.76-.14 6.15-.14c3.39 0 6.14.02 6.14.14z" fill="#E0E0E0"/><path d="M362.72 230.56c-6.27 0-6.27-.11-6.27-.26 0-.14 0-.26 6.27-.26 6.26 0 6.27.12 6.27.26 0 .15 0 .26-6.27.26z" fill="#E0E0E0"/><path d="M467.43 230.35c0 .07-2.75.13-6.14.13-3.39 0-6.16 0-6.16-.13s2.76-.14 6.16-.14c3.4 0 6.14.02 6.14.14z" fill="#E8505B"/><path d="M461.29 230.56c-6.28 0-6.28-.11-6.28-.26 0-.14 0-.26 6.28-.26s6.26.12 6.26.26c0 .15.02.26-6.26.26z" fill="#9E22E9"/><path d="M148 163.89H12.11v79.17H148v-79.17z" fill="#263238"/><path d="M22.74 239.07c-.08 0-.12-16.18-.12-36.15s0-36.17.12-36.17.13 16.19.13 36.17-.06 36.15-.13 36.15z" fill="#E0E0E0"/><path d="M22.74 239.19s-.09 0-.1-.14v-2.79-7.75-25.57-25.58-7.75-2.79c0-.13 0-.13.1-.13.09 0 .08 0 .1.13v72.23c-.02.14-.04.14-.1.14zm0-53.25V202.92c0-6.1.01-11.9 0-16.98zM19.95 169.81c-.75.13-1.5.17-2.26.13-.75.04-1.5 0-2.24-.13.74-.14 1.49-.18 2.24-.14.76-.04 1.51 0 2.26.14z" fill="#E0E0E0"/><path d="M17.69 170.04c-2.39 0-2.39-.13-2.39-.23 0-.11 0-.26 2.39-.26 2.4 0 2.4.15 2.4.26 0 .1-.02.23-2.4.23zM19.95 174.57c-.75.13-1.5.18-2.26.13-.75.05-1.5 0-2.24-.13.74-.13 1.49-.17 2.24-.13.76-.04 1.51 0 2.26.13z" fill="#E0E0E0"/><path d="M17.69 174.81c-2.39 0-2.39-.13-2.39-.24 0-.1 0-.25 2.39-.25 2.4 0 2.4.15 2.4.25 0 .11-.02.24-2.4.24zm-1.06-.24h2.14-2.14zM19.95 179.33c-.75.13-1.5.17-2.26.13-.75.04-1.5 0-2.24-.13.74-.12 1.49-.16 2.24-.12.76-.04 1.51 0 2.26.12z" fill="#E0E0E0"/><path d="M17.69 179.58c-2.39 0-2.39-.13-2.39-.25s0-.24 2.39-.24c2.4 0 2.4.13 2.4.24 0 .11-.02.25-2.4.25zm-1.06-.25h2.13-2.13zM19.95 184.1c-.75.13-1.5.17-2.26.13-.75.04-1.5 0-2.24-.13.74-.13 1.49-.18 2.24-.13.76-.05 1.51 0 2.26.13z" fill="#E0E0E0"/><path d="M17.69 184.35c-2.39 0-2.39-.14-2.39-.25 0-.11 0-.24 2.39-.24 2.4 0 2.4.13 2.4.24 0 .11-.02.25-2.4.25zM19.95 188.87c-.75.13-1.5.17-2.26.13-.75.04-1.5 0-2.24-.13.74-.14 1.49-.18 2.24-.14.76-.04 1.51 0 2.26.14z" fill="#E0E0E0"/><path d="M17.69 189.1c-2.39 0-2.39-.13-2.39-.23 0-.11 0-.24 2.39-.24 2.4 0 2.4.13 2.4.24 0 .1-.02.23-2.4.23zM19.95 193.63c-.75.13-1.5.18-2.26.14-.75.04-1.5-.01-2.24-.14.74-.13 1.49-.17 2.24-.13.76-.04 1.51 0 2.26.13z" fill="#E0E0E0"/><path d="M17.69 193.87c-2.39 0-2.39-.13-2.39-.24 0-.1 0-.25 2.39-.25 2.4 0 2.4.15 2.4.25 0 .11-.02.24-2.4.24zm-1.06-.24h2.13-2.13zM19.95 198.4c-.75.12-1.5.16-2.26.12-.75.04-1.5 0-2.24-.12.74-.13 1.49-.17 2.24-.13.76-.04 1.51 0 2.26.13z" fill="#E0E0E0"/><path d="M17.69 198.64c-2.39 0-2.39-.13-2.39-.24 0-.11 0-.25 2.39-.25 2.4 0 2.4.13 2.4.25s-.02.24-2.4.24zm-1.06-.24h2.13-2.13zM19.95 203.16c-.75.13-1.5.17-2.26.13-.75.04-1.5 0-2.24-.13.74-.13 1.49-.18 2.24-.13.76-.05 1.51 0 2.26.13z" fill="#E0E0E0"/><path d="M17.69 203.41c-2.39 0-2.39-.14-2.39-.25 0-.11 0-.24 2.39-.24 2.4 0 2.4.13 2.4.24 0 .11-.02.25-2.4.25zm-1.06-.25h2.14-2.14zM19.95 207.93c-.75.13-1.5.17-2.26.13-.75.04-1.5 0-2.24-.13a9.89 9.89 0 012.24-.14c.76-.04 1.51 0 2.26.14z" fill="#E0E0E0"/><path d="M17.69 208.18c-2.39 0-2.39-.15-2.39-.25 0-.11 0-.24 2.39-.24 2.4 0 2.4.13 2.4.24 0 .1-.02.25-2.4.25zM19.95 212.69c-.75.13-1.5.18-2.26.14-.75.04-1.5-.01-2.24-.14.74-.13 1.49-.17 2.24-.13.76-.04 1.51 0 2.26.13z" fill="#E0E0E0"/><path d="M17.69 212.93c-2.39 0-2.39-.13-2.39-.24 0-.1 0-.25 2.39-.25 2.4 0 2.4.15 2.4.25 0 .11-.02.24-2.4.24zM19.95 217.46c-.75.13-1.5.18-2.26.13-.75.05-1.5 0-2.24-.13.74-.13 1.49-.17 2.24-.13.76-.04 1.51 0 2.26.13z" fill="#E0E0E0"/><path d="M17.69 217.7c-2.39 0-2.39-.13-2.39-.24 0-.11 0-.25 2.39-.25 2.4 0 2.4.14 2.4.25 0 .11-.02.24-2.4.24zm-1.06-.24h2.14-2.14zM19.95 222.22c-.75.13-1.5.17-2.26.13-.75.04-1.5 0-2.24-.13.74-.12 1.49-.17 2.24-.12.76-.05 1.51-.01 2.26.12z" fill="#E0E0E0"/><path d="M17.69 222.47c-2.39 0-2.39-.13-2.39-.25s0-.24 2.39-.24c2.4 0 2.4.13 2.4.24 0 .11-.02.25-2.4.25zm-1.06-.25h2.13-2.13zM19.95 226.99c-.75.13-1.5.17-2.26.13-.75.04-1.5 0-2.24-.13a9.89 9.89 0 012.24-.14c.76-.04 1.51.01 2.26.14z" fill="#E0E0E0"/><path d="M17.69 227.24c-2.39 0-2.39-.15-2.39-.25 0-.11 0-.24 2.39-.24 2.4 0 2.4.13 2.4.24 0 .1-.02.25-2.4.25zM19.95 231.75c-.75.13-1.5.18-2.26.14-.75.04-1.5-.01-2.24-.14.74-.13 1.49-.17 2.24-.13.76-.04 1.51 0 2.26.13z" fill="#E0E0E0"/><path d="M17.69 231.99c-2.39 0-2.39-.13-2.39-.24 0-.1 0-.24 2.39-.24 2.4 0 2.4.14 2.4.24 0 .11-.02.24-2.4.24zM19.95 236.52c-.75.13-1.5.18-2.26.13-.75.05-1.5 0-2.24-.13.74-.13 1.49-.17 2.24-.13.76-.04 1.51 0 2.26.13z" fill="#E0E0E0"/><path d="M17.69 236.76c-2.39 0-2.39-.13-2.39-.24 0-.11 0-.25 2.39-.25 2.4 0 2.4.14 2.4.25 0 .11-.02.24-2.4.24z" fill="#E0E0E0"/><path d="M37.99 169.52c0 .07-2.61.13-5.85.13-3.23 0-5.83-.06-5.83-.13s2.61-.12 5.83-.12 5.85.05 5.85.12z" fill="#E8505B"/><path d="M32.14 169.77c-5.99 0-5.99-.12-5.99-.25s0-.24 5.99-.24 5.99.11 5.99.24-.04.25-5.99.25zm-2.77-.25h5.55-5.55z" fill="#9E22E9"/><path d="M37.99 236.52c0 .07-2.61.13-5.85.13-3.23 0-5.83 0-5.83-.13s2.61-.13 5.83-.13 5.85.06 5.85.13z" fill="#E8505B"/><path d="M32.14 236.76c-5.99 0-5.99-.11-5.99-.24s0-.25 5.99-.25 5.99.12 5.99.25-.04.24-5.99.24z" fill="#9E22E9"/><path d="M54.26 179.33c0 .07-4.89.13-10.93.13s-10.93-.06-10.93-.13 4.9-.12 10.93-.12c6.03 0 10.93.05 10.93.12z" fill="#E8505B"/><path d="M43.32 179.58h-7.73c-3.31 0-3.31-.06-3.31-.21 0-.16 0-.17 3.31-.21h15.46c3.31 0 3.31 0 3.31.21 0 .2 0 .16-3.31.21-2.07-.01-4.81 0-7.73 0zm-5.17-.25h10.34-10.34z" fill="#9E22E9"/><path d="M79.52 179.33c0 .07-4.9.13-10.92.13-6.03 0-10.93-.06-10.93-.13s4.89-.12 10.93-.12c6.03 0 10.92.05 10.92.12z" fill="#E0E0E0"/><path d="M68.63 179.58H60.9c-3.31 0-3.31-.06-3.31-.21 0-.16 0-.17 3.31-.21h15.46c3.31 0 3.31 0 3.31.21 0 .2 0 .16-3.31.21-2.11-.01-4.85 0-7.73 0zm-5.17-.25H73.8 63.42h.04zM69.83 184.1c0 .07-7.19.13-16.1.13s-16.1-.06-16.1-.13 7.19-.13 16.1-.13 16.1.06 16.1.13z" fill="#E0E0E0"/><path d="M53.75 184.35H42.37c-4.79 0-4.79 0-4.79-.2 0-.21 0-.17 4.79-.21h22.78c4.79 0 4.79 0 4.79.21 0 .2 0 .16-4.79.2-3.05-.01-7.1 0-11.4 0zM69.83 188.87c0 .07-7.19.13-16.1.13s-16.1 0-16.1-.13c0-.14 7.19-.14 16.1-.14s16.1.06 16.1.14z" fill="#E0E0E0"/><path d="M53.75 189.1H42.37c-4.79 0-4.79 0-4.79-.2s0-.17 4.79-.2h22.78c4.79 0 4.79 0 4.79.2s0 .17-4.79.2c-3.05-.01-7.08 0-11.4 0zM92.03 203.16c0 .07-7.19.13-16.1.13-8.92 0-16.1 0-16.1-.13s7.18-.13 16.1-.13c8.91 0 16.1.06 16.1.13z" fill="#E0E0E0"/><path d="M75.93 203.41h-11.4c-4.79 0-4.79 0-4.79-.22 0-.21 0-.16 4.79-.2h22.78c4.79 0 4.79 0 4.79.2 0 .21 0 .17-4.79.22-3.03-.01-7.08 0-11.38 0zm-7.67-.25H83.6 68.26zM82.46 193.63c0 .08-7.19.14-16.1.14-8.92 0-16.11-.06-16.11-.14 0-.07 7.19-.13 16.11-.13 8.91 0 16.1.06 16.1.13z" fill="#E0E0E0"/><path d="M66.36 193.87H54.97c-4.79 0-4.79 0-4.79-.2s0-.17 4.79-.2h22.78c4.79 0 4.79 0 4.79.2s0 .17-4.79.2c-3.04-.01-7.09 0-11.39 0zm-7.62-.24h15.24-15.24zM121.81 193.63c0 .08-7.19.14-16.1.14s-16.1-.06-16.1-.14c0-.07 7.19-.13 16.1-.13s16.1.06 16.1.13z" fill="#E0E0E0"/><path d="M105.77 193.87H94.39c-4.79 0-4.79 0-4.79-.2s0-.17 4.79-.2H117.16c4.79 0 4.79 0 4.79.2s0 .17-4.79.2c-3.1-.01-7.15 0-11.39 0zm-7.62-.24h15.24-15.24zM108.17 184.1c0 .07-7.19.13-16.11.13-8.91 0-16.1-.06-16.1-.13s7.19-.13 16.1-.13c8.92 0 16.11.06 16.11.13z" fill="#E0E0E0"/><path d="M92.03 184.35H80.64c-4.8 0-4.8 0-4.8-.2 0-.21 0-.17 4.8-.21H103.41c4.79 0 4.79 0 4.79.21 0 .2 0 .16-4.79.2-3.04-.01-7.08 0-11.38 0zM130.38 203.16c0 .07-7.19.13-16.1.13-8.92 0-16.11 0-16.11-.13s7.19-.13 16.11-.13c8.91 0 16.1.06 16.1.13z" fill="#E0E0E0"/><path d="M114.28 203.41h-11.4c-4.79 0-4.79 0-4.79-.22 0-.21 0-.16 4.79-.2h22.78c4.79 0 4.79 0 4.79.2 0 .21 0 .17-4.79.22-3.05-.01-7.08 0-11.38 0zm-7.67-.25h15.33-15.33z" fill="#E0E0E0"/><path d="M125.93 188.87c0 .07-11.2.13-25 .13s-25 0-25-.13c0-.14 11.19-.14 25-.14s25 .06 25 .14z" fill="#455A64"/><path d="M100.98 189.1H83.3c-5.31 0-6.83 0-7.26-.09-.15 0-.15 0-.15-.1 0-.09 0-.07.15-.09.43-.06 1.96-.07 7.26-.1h35.36c5.3 0 6.82 0 7.26.1.14 0 .14 0 .14.09 0 .1 0 .08-.14.1-.44 0-1.96.07-7.26.09-4.77-.01-11.05 0-17.68 0z" fill="#455A64"/><path d="M37.99 174.57c0 .08-2.61.13-5.85.13-3.23 0-5.83-.05-5.83-.13 0-.07 2.61-.13 5.83-.13s5.85.06 5.85.13z" fill="#E0E0E0"/><path d="M32.14 174.81c-5.99 0-5.99-.11-5.99-.24s0-.25 5.99-.25 5.99.12 5.99.25-.04.24-5.99.24zm-2.77-.24h5.55-5.55zM37.99 231.75c0 .08-2.61.14-5.85.14-3.23 0-5.83-.06-5.83-.14 0-.07 2.61-.13 5.83-.13s5.85.06 5.85.13z" fill="#E0E0E0"/><path d="M32.14 231.99c-5.99 0-5.99-.1-5.99-.24 0-.13 0-.24 5.99-.24s5.99.11 5.99.24c0 .14-.04.24-5.99.24zM43.77 193.63c0 .08-2.61.14-5.84.14-3.24 0-5.84-.06-5.84-.14 0-.07 2.61-.13 5.84-.13 3.22 0 5.84.06 5.84.13z" fill="#E0E0E0"/><path d="M37.93 193.87c-5.99 0-5.99-.1-5.99-.24 0-.13 0-.25 5.99-.25s5.99.12 5.99.25c0 .14-.04.24-5.99.24zm-2.76-.24h5.52-5.52z" fill="#E0E0E0"/><path d="M137.37 193.63c0 .08-2.61.14-5.83.14s-5.85-.06-5.85-.14c0-.07 2.61-.13 5.85-.13 3.23 0 5.83.06 5.83.13z" fill="#E8505B"/><path d="M131.54 193.87c-5.99 0-5.99-.1-5.99-.24 0-.13 0-.25 5.99-.25s5.99.12 5.99.25c0 .14-.04.24-5.99.24zm-2.77-.24h5.52-5.52z" fill="#9E22E9"/><path d="M54.26 212.67c0 .07-4.89.12-10.93.12s-10.93 0-10.93-.12 4.9-.13 10.93-.13c6.03 0 10.93.06 10.93.13z" fill="#E8505B"/><path d="M43.32 212.91h-7.73c-3.31 0-3.31 0-3.31-.2 0-.21 0-.17 3.31-.22h15.46c3.31 0 3.31.06 3.31.22 0 .15 0 .16-3.31.2-2.07-.01-4.81 0-7.73 0zm-5.2-.24h10.4-10.4z" fill="#9E22E9"/><path d="M79.52 212.67c0 .07-4.9.12-10.92.12-6.03 0-10.93 0-10.93-.12s4.89-.13 10.93-.13c6.03 0 10.92.06 10.92.13z" fill="#E0E0E0"/><path d="M68.63 212.91H60.9c-3.31 0-3.31 0-3.31-.2 0-.21 0-.17 3.31-.22h15.46c3.31 0 3.31.06 3.31.22 0 .15 0 .16-3.31.2-2.11-.01-4.85 0-7.73 0zm-5.2-.24h10.4-10.4zM69.83 217.43c0 .07-7.19.13-16.1.13s-16.1 0-16.1-.13c0-.14 7.19-.14 16.1-.14s16.1.06 16.1.14z" fill="#E0E0E0"/><path d="M53.75 217.68H42.37c-4.79 0-4.79 0-4.79-.22 0-.21 0-.17 4.79-.2h22.78c4.79 0 4.79 0 4.79.2 0 .21 0 .17-4.79.22-3.05-.01-7.1 0-11.4 0zm-7.62-.25h15.24-15.24zM69.83 222.19c0 .08-7.19.14-16.1.14s-16.1-.06-16.1-.14c0-.07 7.19-.13 16.1-.13s16.1.06 16.1.13z" fill="#E0E0E0"/><path d="M53.75 222.45H42.37c-4.79 0-4.79 0-4.79-.21 0-.2 0-.17 4.79-.2h22.78c4.79 0 4.79 0 4.79.2 0 .21 0 .17-4.79.21-3.05-.03-7.08 0-11.4 0zM82.46 226.96c0 .07-7.19.13-16.1.13-8.92 0-16.11-.06-16.11-.13s7.19-.13 16.11-.13c8.91 0 16.1.06 16.1.13z" fill="#E0E0E0"/><path d="M66.36 227.2H54.97c-4.79 0-4.79 0-4.79-.2 0-.21 0-.17 4.79-.21h22.78c4.79 0 4.79 0 4.79.21 0 .2 0 .17-4.79.2-3.04-.01-7.09 0-11.39 0zM121.81 226.96c0 .07-7.19.13-16.1.13s-16.1-.06-16.1-.13 7.19-.13 16.1-.13 16.1.06 16.1.13z" fill="#E0E0E0"/><path d="M105.77 227.2H94.39c-4.79 0-4.79 0-4.79-.2 0-.21 0-.17 4.79-.21H117.16c4.79 0 4.79 0 4.79.21 0 .2 0 .17-4.79.2-3.1-.01-7.15 0-11.39 0zM108.17 217.43c0 .07-7.19.13-16.11.13-8.91 0-16.1 0-16.1-.13 0-.14 7.19-.14 16.1-.14 8.92 0 16.11.06 16.11.14z" fill="#E0E0E0"/><path d="M92.03 217.68H80.64c-4.8 0-4.8 0-4.8-.22 0-.21 0-.17 4.8-.2H103.41c4.79 0 4.79 0 4.79.2 0 .21 0 .17-4.79.22-3.04-.01-7.08 0-11.38 0zm-7.62-.25h15.24-15.24z" fill="#E0E0E0"/><path d="M125.93 222.19c0 .08-11.2.14-25 .14s-25-.06-25-.14c0-.07 11.19-.13 25-.13s25 .06 25 .13z" fill="#455A64"/><path d="M100.98 222.45H83.3c-5.31 0-6.83 0-7.26-.1-.15 0-.15 0-.15-.1 0-.09 0-.07.15-.09.43 0 1.96-.07 7.26-.1h35.36c5.3 0 6.82 0 7.26.1.14 0 .14 0 .14.09 0 .1 0 .08-.14.1-.44.06-1.96.07-7.26.1-4.77-.03-11.05 0-17.68 0z" fill="#455A64"/><path d="M43.77 226.96c0 .07-2.61.13-5.84.13-3.24 0-5.84-.06-5.84-.13s2.61-.13 5.84-.13c3.22 0 5.84.06 5.84.13z" fill="#E0E0E0"/><path d="M37.93 227.2c-5.99 0-5.99-.11-5.99-.24s0-.25 5.99-.25 5.99.12 5.99.25-.04.24-5.99.24z" fill="#E0E0E0"/><path d="M137.37 226.96c0 .07-2.61.13-5.83.13s-5.85-.06-5.85-.13 2.61-.13 5.85-.13c3.23 0 5.83.06 5.83.13z" fill="#E8505B"/><path d="M131.54 227.2c-5.99 0-5.99-.11-5.99-.24s0-.25 5.99-.25 5.99.12 5.99.25-.04.24-5.99.24z" fill="#9E22E9"/><path d="M210.85 282.49h-86.58v50.45h86.58v-50.45z" fill="#263238"/><path d="M131.04 330.4s-.09-10.32-.09-23.04c0-12.72 0-23.04.09-23.04.08 0 .08 10.32.08 23.04 0 12.72-.04 23.04-.08 23.04z" fill="#E0E0E0"/><path d="M131.04 330.47s-.06 0-.08-.08v-1.78-4.93-16.3-16.29-4.94-1.78c0-.08 0-.08.08-.08.07 0 0 0 0 .08v46.02c.04.08.02.08 0 .08zm0-33.92V296.55zM129.25 286.26c-.47.09-.95.12-1.42.09-.49.03-.97 0-1.44-.09.47-.08.95-.11 1.44-.08.47-.03.95 0 1.42.08z" fill="#E0E0E0"/><path d="M127.83 286.42c-1.51 0-1.51-.09-1.51-.16s0-.15 1.51-.15c1.5 0 1.49.08 1.49.15 0 .07 0 .16-1.49.16zM129.25 289.29c-.47.09-.95.12-1.42.09-.49.03-.97 0-1.44-.09.47-.07.95-.1 1.44-.08.47-.02.95.01 1.42.08z" fill="#E0E0E0"/><path d="M127.83 289.45c-1.51 0-1.51-.08-1.51-.16 0-.07 0-.15 1.51-.15 1.5 0 1.49.09 1.49.15s0 .16-1.49.16zM129.25 292.34c-.47.08-.95.11-1.42.08-.49.03-.97 0-1.44-.08.47-.09.95-.12 1.44-.09.47-.03.95 0 1.42.09z" fill="#E0E0E0"/><path d="M127.83 292.49c-1.51 0-1.51-.08-1.51-.15 0-.08 0-.16 1.51-.16 1.5 0 1.49.08 1.49.16 0 .07 0 .15-1.49.15zM129.25 295.37c-.47.08-.95.11-1.42.08-.49.03-.97 0-1.44-.08.47-.09.95-.12 1.44-.09.47-.03.95 0 1.42.09z" fill="#E0E0E0"/><path d="M127.83 295.52c-1.51 0-1.51-.08-1.51-.15 0-.07 0-.16 1.51-.16 1.5 0 1.49.09 1.49.16s0 .15-1.49.15zM129.25 298.41c-.47.09-.95.11-1.42.08-.49.03-.97.01-1.44-.08.47-.08.95-.11 1.44-.08.47-.03.95 0 1.42.08z" fill="#E0E0E0"/><path d="M127.83 298.57c-1.51 0-1.51-.1-1.51-.16s0-.16 1.51-.16c1.5 0 1.49.09 1.49.16s0 .16-1.49.16zM129.25 301.44c-.47.09-.95.11-1.42.09-.49.02-.97 0-1.44-.09.47-.08.95-.11 1.44-.08.47-.03.95 0 1.42.08z" fill="#E0E0E0"/><path d="M127.83 301.6c-1.51 0-1.51-.09-1.51-.16s0-.15 1.51-.15c1.5 0 1.49.08 1.49.15 0 .07 0 .16-1.49.16zM129.25 304.48c-.47.07-.95.1-1.42.08-.49.02-.97-.01-1.44-.08.47-.08.95-.11 1.44-.08.47-.03.95 0 1.42.08z" fill="#E0E0E0"/><path d="M127.83 304.63c-1.51 0-1.51-.1-1.51-.16s0-.15 1.51-.15c1.5 0 1.49.08 1.49.15 0 .07 0 .16-1.49.16zM129.25 307.52c-.47.08-.95.11-1.42.08-.49.03-.97 0-1.44-.08.47-.09.95-.12 1.44-.09.47-.03.95 0 1.42.09z" fill="#E0E0E0"/><path d="M127.83 307.67c-1.51 0-1.51-.08-1.51-.15 0-.08 0-.16 1.51-.16 1.5 0 1.49.08 1.49.16 0 .07 0 .15-1.49.15zM129.25 310.55c-.47.08-.95.11-1.42.08-.49.03-.97 0-1.44-.08.47-.07.95-.1 1.44-.08.47-.02.95.01 1.42.08z" fill="#E0E0E0"/><path d="M127.83 310.7c-1.51 0-1.51-.08-1.51-.15 0-.08 0-.16 1.51-.16 1.5 0 1.49.1 1.49.16s0 .15-1.49.15zM129.25 313.59c-.47.08-.95.11-1.42.08-.49.03-.97 0-1.44-.08.47-.09.95-.11 1.44-.08.47-.03.95-.01 1.42.08z" fill="#E0E0E0"/><path d="M127.83 313.74c-1.51 0-1.51-.08-1.51-.15 0-.07 0-.16 1.51-.16 1.5 0 1.49.09 1.49.16s0 .15-1.49.15zM129.25 316.61c-.47.08-.95.11-1.42.08-.49.03-.97 0-1.44-.08.47-.09.95-.11 1.44-.09.47-.02.95 0 1.42.09z" fill="#E0E0E0"/><path d="M127.83 316.78c-1.51 0-1.51-.09-1.51-.16s0-.16 1.51-.16c1.5 0 1.49.1 1.49.16s0 .16-1.49.16zM129.25 319.66c-.47.09-.95.12-1.42.09-.49.03-.97 0-1.44-.09.47-.08.95-.11 1.44-.08.47-.03.95 0 1.42.08z" fill="#E0E0E0"/><path d="M127.83 319.82c-1.51 0-1.51-.09-1.51-.16s0-.15 1.51-.15c1.5 0 1.49.08 1.49.15 0 .07 0 .16-1.49.16zM129.25 322.69c-.47.09-.95.12-1.42.09-.49.03-.97 0-1.44-.09.47-.08.95-.11 1.44-.08.47-.03.95 0 1.42.08z" fill="#E0E0E0"/><path d="M127.83 322.85c-1.51 0-1.51-.08-1.51-.16 0-.07 0-.15 1.51-.15 1.5 0 1.49.08 1.49.15 0 .08 0 .16-1.49.16zM129.25 325.74c-.47.07-.95.1-1.42.08-.49.02-.97-.01-1.44-.08.47-.09.95-.12 1.44-.09.47-.03.95 0 1.42.09z" fill="#E0E0E0"/><path d="M127.83 325.89c-1.51 0-1.51-.09-1.51-.15s0-.16 1.51-.16c1.5 0 1.49.08 1.49.16 0 .07 0 .15-1.49.15zM129.25 328.77c-.47.08-.95.11-1.42.08-.49.03-.97 0-1.44-.08.47-.09.95-.12 1.44-.09.47-.03.95 0 1.42.09z" fill="#E0E0E0"/><path d="M127.83 328.92c-1.51 0-1.51-.08-1.51-.15 0-.07 0-.16 1.51-.16 1.5 0 1.49.09 1.49.16s0 .15-1.49.15z" fill="#E0E0E0"/><path d="M140.74 286.08s-1.67.09-3.71.09c-2.05 0-3.73 0-3.73-.09 0-.08 1.67-.08 3.73-.08s3.71.04 3.71.08z" fill="#E8505B"/><path d="M137.03 286.24c-3.8 0-3.8-.07-3.8-.16 0-.08 0-.15 3.8-.15 3.79 0 3.79.07 3.79.15 0 .09 0 .16-3.79.16zM140.74 328.77s-1.67.08-3.71.08c-2.05 0-3.73 0-3.73-.08 0-.09 1.67-.09 3.73-.09s3.71.04 3.71.09z" fill="#E8505B"/><path d="M137.03 328.92c-3.8 0-3.8-.07-3.8-.15 0-.09 0-.16 3.8-.16 3.79 0 3.79.07 3.79.16 0 .08 0 .15-3.79.15zM151.1 292.34s-3.11.08-6.96.08c-3.84 0-6.96 0-6.96-.08 0-.09 3.12-.09 6.96-.09 3.85 0 6.96.04 6.96.09z" fill="#E8505B"/><path d="M144.11 292.49h-4.93c-2.11 0-2.11 0-2.11-.13s0-.11 2.11-.13h9.85c2.12 0 2.12 0 2.12.13s0 .11-2.12.13h-4.92z" fill="#E8505B"/><path d="M167.2 292.34s-3.11.08-6.96.08c-3.84 0-6.96 0-6.96-.08 0-.09 3.12-.09 6.96-.09 3.85 0 6.96.04 6.96.09z" fill="#E0E0E0"/><path d="M160.24 292.49h-4.92c-2.11 0-2.11 0-2.11-.13s0-.11 2.11-.13h9.85c2.11 0 2.11 0 2.11.13s0 .11-2.11.13h-4.93zM161.06 295.37s-4.6.08-10.27.08-10.25 0-10.25-.08c0-.09 4.58-.09 10.25-.09s10.27.04 10.27.09z" fill="#E0E0E0"/><path d="M150.79 295.52h-7.25c-3.08 0-3.08 0-3.08-.13s0-.11 3.08-.13h14.51c3.08 0 3.08 0 3.08.13s0 .11-3.08.13h-7.26zM161.06 298.41s-4.6.08-10.27.08-10.25 0-10.25-.08 4.58-.08 10.25-.08 10.27.03 10.27.08z" fill="#E0E0E0"/><path d="M150.79 298.57h-7.25c-3.08 0-3.08 0-3.08-.14 0-.13 0-.1 3.08-.13h14.51c3.08 0 3.08 0 3.08.13 0 .14 0 .11-3.08.14h-7.26zM175.18 307.52s-4.6.08-10.26.08c-5.67 0-10.26 0-10.26-.08 0-.09 4.59-.09 10.26-.09 5.66 0 10.26.04 10.26.09z" fill="#E0E0E0"/><path d="M164.92 307.67h-7.25c-3.08 0-3.08 0-3.08-.13s0-.11 3.08-.13h14.51c3.07 0 3.07 0 3.07.13s0 .11-3.07.13h-7.26zM169.08 301.44s-4.6.09-10.25.09c-5.66 0-10.27 0-10.27-.09 0-.08 4.6-.08 10.27-.08s10.25.03 10.25.08z" fill="#E0E0E0"/><path d="M158.83 301.6h-7.26c-3.08 0-3.08 0-3.08-.13 0-.14 0-.11 3.08-.14h14.51c3.08 0 3.08 0 3.08.14 0 .13 0 .1-3.08.13h-7.25zM194.16 301.44s-4.6.09-10.27.09c-5.66 0-10.25 0-10.25-.09 0-.08 4.59-.08 10.25-.08 5.67 0 10.27.03 10.27.08z" fill="#E0E0E0"/><path d="M183.89 301.6h-7.25c-3.08 0-3.08 0-3.08-.13 0-.14 0-.11 3.08-.14h14.51c3.08 0 3.08 0 3.08.14 0 .13 0 .1-3.08.13h-7.26zM185.44 295.37s-4.6.08-10.26.08c-5.65 0-10.26 0-10.26-.08 0-.09 4.6-.09 10.26-.09 5.67 0 10.26.04 10.26.09z" fill="#E0E0E0"/><path d="M175.18 295.52h-7.26c-3.08 0-3.08 0-3.08-.13s0-.11 3.08-.13h14.51c3.08 0 3.08 0 3.08.13s0 .11-3.08.13h-7.25zM199.61 307.52s-4.59.08-10.26.08c-5.66 0-10.26 0-10.26-.08 0-.09 4.6-.09 10.26-.09 5.67 0 10.26.04 10.26.09z" fill="#E0E0E0"/><path d="M189.35 307.67h-7.26c-3.07 0-3.07 0-3.07-.13s0-.11 3.07-.13h14.45c3.08 0 3.08 0 3.08.13s0 .11-3.08.13h-7.19z" fill="#E0E0E0"/><path d="M196.82 298.41s-7.19.08-15.94.08c-8.74 0-15.93 0-15.93-.08s7.13-.08 15.93-.08c8.81 0 15.94.03 15.94.08z" fill="#455A64"/><path d="M180.85 298.57h-11.26c-3.38 0-4.35 0-4.64-.08-.09 0-.09 0-.09-.06s0 0 .09-.07c.28 0 1.2 0 4.63-.06h22.52c3.38 0 4.35 0 4.62.06.1 0 .1 0 .1.07 0 .08 0 0-.1.06-.27 0-1.2 0-4.62.08h-11.25z" fill="#455A64"/><path d="M140.74 289.29s-1.67.09-3.71.09c-2.05 0-3.73 0-3.73-.09 0-.08 1.67-.08 3.73-.08s3.71.05 3.71.08z" fill="#E0E0E0"/><path d="M137.03 289.45c-3.8 0-3.8-.07-3.8-.16 0-.08 0-.15 3.8-.15 3.79 0 3.79.07 3.79.15 0 .09 0 .16-3.79.16zM140.74 325.74s-1.67.08-3.71.08c-2.05 0-3.73 0-3.73-.08 0-.09 1.67-.09 3.73-.09s3.71.04 3.71.09z" fill="#E0E0E0"/><path d="M137.03 325.89c-3.8 0-3.8-.07-3.8-.15 0-.09 0-.16 3.8-.16 3.79 0 3.79.07 3.79.16 0 .08 0 .15-3.79.15zM144.43 301.44s-1.67.09-3.71.09c-2.05 0-3.73 0-3.73-.09 0-.08 1.67-.08 3.73-.08s3.71.03 3.71.08z" fill="#E0E0E0"/><path d="M140.72 301.6c-3.8 0-3.8-.07-3.8-.16 0-.08 0-.15 3.8-.15 3.79 0 3.78.07 3.78.15 0 .09 0 .16-3.78.16z" fill="#E0E0E0"/><path d="M204.07 301.44s-1.67.09-3.72.09c-2.05 0-3.72 0-3.72-.09 0-.08 1.66-.08 3.72-.08 2.06 0 3.72.03 3.72.08z" fill="#E8505B"/><path d="M200.41 301.6c-3.8 0-3.8-.07-3.8-.16 0-.08 0-.15 3.8-.15s3.79.07 3.79.15c0 .09-.06.16-3.79.16zM151.1 313.57s-3.11.08-6.96.08c-3.84 0-6.96 0-6.96-.08 0-.09 3.12-.09 6.96-.09 3.85 0 6.96.05 6.96.09z" fill="#E8505B"/><path d="M144.11 313.72h-4.93c-2.11 0-2.11 0-2.11-.13s0-.11 2.11-.13h9.85c2.12 0 2.12 0 2.12.13s0 .11-2.12.13h-4.92z" fill="#E8505B"/><path d="M167.2 313.57s-3.11.08-6.96.08c-3.84 0-6.96 0-6.96-.08 0-.09 3.12-.09 6.96-.09 3.85 0 6.96.05 6.96.09z" fill="#E0E0E0"/><path d="M160.24 313.72h-4.92c-2.11 0-2.11 0-2.11-.13s0-.11 2.11-.13h9.85c2.11 0 2.11 0 2.11.13s0 .11-2.11.13h-4.93zM161.06 316.61s-4.6.08-10.27.08-10.28-.08-10.28-.08 4.59-.09 10.26-.09c5.66 0 10.29.09 10.29.09z" fill="#E0E0E0"/><path d="M150.79 316.76h-7.25c-3.08 0-3.08 0-3.08-.13s0-.11 3.08-.13h14.51c3.08 0 3.08 0 3.08.13s0 .11-3.08.13h-7.26zM161.06 319.64s-4.6.08-10.27.08-10.25 0-10.25-.08 4.58-.08 10.25-.08 10.27.03 10.27.08z" fill="#E0E0E0"/><path d="M150.79 319.79h-7.25c-3.08 0-3.08 0-3.08-.13s0-.1 3.08-.13h14.51c3.08 0 3.08 0 3.08.13s0 .11-3.08.13h-7.26zM169.08 322.68s-4.6.09-10.25.09c-5.66 0-10.27 0-10.27-.09 0-.08 4.6-.08 10.27-.08s10.25 0 10.25.08z" fill="#E0E0E0"/><path d="M158.83 322.84h-7.26c-3.08 0-3.08 0-3.08-.13 0-.14 0-.11 3.08-.14h14.51c3.08 0 3.08 0 3.08.14 0 .13 0 .1-3.08.13h-7.25zM194.16 322.68s-4.6.09-10.27.09c-5.66 0-10.25 0-10.25-.09 0-.08 4.59-.08 10.25-.08 5.67 0 10.27 0 10.27.08z" fill="#E0E0E0"/><path d="M183.89 322.84h-7.25c-3.08 0-3.08 0-3.08-.13 0-.14 0-.11 3.08-.14h14.51c3.08 0 3.08 0 3.08.14 0 .13 0 .1-3.08.13h-7.26zM185.44 316.61s-4.6.08-10.26.08c-5.65 0-10.26 0-10.26-.08 0-.09 4.6-.09 10.26-.09 5.67 0 10.26.09 10.26.09z" fill="#E0E0E0"/><path d="M175.18 316.76h-7.26c-3.08 0-3.08 0-3.08-.13s0-.11 3.08-.13h14.51c3.08 0 3.08 0 3.08.13s0 .11-3.08.13h-7.25z" fill="#E0E0E0"/><path d="M196.82 319.64s-7.19.08-15.94.08c-8.74 0-15.93 0-15.93-.08s7.13-.08 15.93-.08c8.81 0 15.94.03 15.94.08z" fill="#455A64"/><path d="M180.85 319.79h-11.26c-3.38 0-4.35 0-4.64-.06-.09 0-.09 0-.09-.07s0 0 .09 0c.28 0 1.2 0 4.63-.07h22.52c3.38 0 4.35 0 4.62.07h.1l-.1.07c-.27 0-1.2 0-4.62.06h-11.25z" fill="#455A64"/><path d="M144.43 322.68s-1.67.09-3.71.09c-2.05 0-3.73 0-3.73-.09 0-.08 1.67-.08 3.73-.08s3.71 0 3.71.08z" fill="#E0E0E0"/><path d="M140.72 322.84c-3.8 0-3.8-.07-3.8-.16 0-.08 0-.15 3.8-.15 3.79 0 3.78.07 3.78.15 0 .09 0 .16-3.78.16z" fill="#E0E0E0"/><path d="M204.07 322.68s-1.67.09-3.72.09c-2.05 0-3.72 0-3.72-.09 0-.08 1.66-.08 3.72-.08 2.06 0 3.72 0 3.72.08z" fill="#E8505B"/><path d="M200.41 322.84c-3.8 0-3.8-.07-3.8-.16 0-.08 0-.15 3.8-.15s3.79.07 3.79.15c0 .09-.06.16-3.79.16z" fill="#E8505B"/><path d="M200.81 243.53a27.34 27.34 0 01-11.49-5.86c-3.3-2.85-5.88-6.44-7.5-10.49a27.28 27.28 0 01-1.85-12.76c.42-4.34 1.87-8.52 4.23-12.19-5.27-10.25-1.19-24.28 8.71-30.16 1.88-.91 3.64-2.04 5.25-3.37 2.82-2.74 3.31-6.99 4.79-10.64a20.056 20.056 0 0123.4-12.03c3.11.77 6 2.27 8.41 4.38 5.74-2.86 11.69-5.72 18.09-6.21 6.4-.49 13.43 1.9 16.69 7.42 1.78 3.03 2.39 6.86 5.03 9.2 2.63 2.34 6.61 2.53 9.75 4.19 5.99 3.18 7.74 10.95 7.74 17.75 0 6.79-.97 13.95 2.01 20.05 1.57 3.17 4.13 5.85 5.2 9.22.6 1.88.7 3.88.29 5.8-.41 1.93-1.31 3.72-2.61 5.19a11.326 11.326 0 01-4.84 3.21c-1.86.64-3.86.78-5.79.41 2.6 5.99 1.61 13.07-1.68 18.67-3.28 5.61-8.57 9.79-14.37 12.74-4.15 2.11-8.82 3.59-13.42 2.96-4.28-.65-8.05-3.18-11.2-6.12a42.83 42.83 0 01-13.11-25.52" fill="#263238"/><path d="M216.73 162.89c-1.76-.18-3.53.3-4.95 1.35a7.076 7.076 0 00-2.74 4.34l-16.01 94.31c-2.2 11.07 12.58 20.74 24.45 23.01 11.98 2.3 13.64-3.47 16.06-13.93 4.02-17.49 5.42-24.07 5.4-23.96-.02.11 15.57.72 22.94-18.29 3.6-9.46 6.57-25.6 8.54-38.89 1.78-11.98-2.96-28.12-14.98-29.37l-38.71 1.43z" fill="#FFBE9D"/><path d="M263.34 202.62c-.13.66-.52 1.24-1.07 1.61-.56.38-1.24.53-1.9.41-.32-.04-.64-.15-.92-.32a2.27 2.27 0 01-.73-.65c-.2-.26-.34-.56-.42-.88-.08-.32-.1-.65-.05-.97.14-.66.53-1.25 1.08-1.63.56-.38 1.24-.52 1.9-.41a2.397 2.397 0 011.65.98c.2.26.34.56.42.88.08.32.09.65.04.98zM265.16 200.07c-.38.26-2-1.56-4.72-2.14-2.72-.57-4.99.38-5.21 0-.12-.18.34-.7 1.33-1.19 1.35-.57 2.84-.71 4.27-.39 1.41.3 2.7 1.04 3.66 2.11.7.84.85 1.5.67 1.61zM236.35 196.81c-.13.65-.52 1.23-1.07 1.61-.56.38-1.24.53-1.9.41-.33-.04-.64-.15-.92-.31a2.57 2.57 0 01-.74-.65c-.19-.27-.34-.57-.42-.89-.08-.32-.09-.65-.04-.97.13-.66.52-1.24 1.07-1.62.56-.38 1.24-.53 1.9-.42.33.04.64.15.93.32.28.17.53.39.73.65a2.485 2.485 0 01.46 1.87zM238.36 194c-.38.26-2-1.56-4.7-2.13-2.71-.56-5 .36-5.23 0-.12-.18.33-.7 1.33-1.2 1.35-.57 2.84-.7 4.27-.38 1.41.3 2.7 1.04 3.66 2.11.7.81.85 1.48.67 1.6zM243.92 215.47a18 18 0 014.58.15c.71.07 1.39.07 1.62-.37.21-.71.21-1.46 0-2.16-.3-1.81-.61-3.71-.94-5.72-1.2-8.12-1.97-14.74-1.65-14.79.32-.05 1.6 6.5 2.84 14.63.3 2 .57 3.9.84 5.72.26.93.18 1.93-.23 2.81a1.7 1.7 0 01-.59.54c-.23.13-.49.21-.76.22-.41.03-.81 0-1.2-.08-1.54-.13-3.05-.44-4.51-.95z" fill="#263238"/><path d="M238.94 248a51.102 51.102 0 01-24.85-12.65s3.69 15.31 23.77 17.67l1.08-5.02zM241.37 221.77c-.37-.76-.93-1.41-1.63-1.89-.7-.49-1.51-.78-2.36-.86-.61-.08-1.23-.03-1.82.14-.59.17-1.14.46-1.62.85-.46.38-.79.88-.95 1.45-.17.57-.15 1.18.04 1.74.34.58.83 1.05 1.43 1.34.6.3 1.28.41 1.94.33 1.38-.19 2.71-.64 3.92-1.33.35-.16.67-.38.94-.65.14-.13.23-.29.27-.47.03-.18.02-.37-.05-.54" fill="#EB996E"/><path d="M235.53 215.64c.45.07-.17 3.02 1.9 5.66 2.07 2.63 5.28 2.97 5.22 3.39 0 .19-.82.41-2.15.16a7.475 7.475 0 01-4.4-2.66c-1.06-1.32-1.56-3-1.4-4.69.14-1.26.63-1.92.83-1.86zM240.59 188.73c-.42.69-3.05-.24-6.32-.54-3.27-.3-5.99 0-6.32-.73-.12-.34.48-.94 1.67-1.45 1.57-.57 3.24-.78 4.9-.61 1.66.17 3.26.71 4.68 1.58 1.12.72 1.58 1.44 1.39 1.75zM265.83 195.18c-.61.51-2.39-.53-4.58-1.03-2.2-.5-4.24-.48-4.54-1.2-.12-.36.31-.91 1.27-1.32 1.26-.46 2.64-.54 3.95-.21 1.31.32 2.49 1.02 3.4 2.02.66.79.78 1.48.5 1.74z" fill="#263238"/><path d="M231.02 159.27c-1.9-2.05-4.22-3.67-6.8-4.76-2.58-1.08-5.36-1.6-8.16-1.51-5.57.37-10.94 4.17-12.27 9.47-.86 3.44-.16 7.47-2.4 10.26-2.24 2.79-5.99 3.1-9.02 4.71a11.952 11.952 0 00-5.23 5.8 11.975 11.975 0 00-.54 7.81c1.29 4.39 5.19 8.26 4.61 12.79-.55 4.27-4.79 7.04-6.59 10.97-1.93 4.34-.42 9.59 2.53 13.37 2.95 3.79 5.24 11.62 9.34 14.19 3.2 2 8.08 3.39 12.27 1.82 4.6-2.07 8.23-5.81 10.15-10.47.68-2.11.89-4.35.63-6.55-.27-2.2-1-4.32-2.16-6.21-1.93-3.32-4.96-6.45-4.8-10.26.29-5.91 8.13-9.15 8.94-15.02.43-3.02-1.2-5.99-2.4-8.77-1.19-2.78-2.08-6.24-.4-8.8 2.18-3.33 7.19-3.25 10.62-5.3 1.43-.86 2.59-2.1 3.36-3.58.76-1.48 1.1-3.14.98-4.8a9.373 9.373 0 00-1.85-4.62 9.25 9.25 0 00-3.96-3" fill="#263238"/><path d="M229.86 154.39c-.43 1.97-.42 4.02.02 5.99.45 1.97 1.33 3.82 2.57 5.41 1.24 1.6 2.82 2.9 4.62 3.82 1.8.91 3.78 1.42 5.8 1.49 3.13.09 6.74-.72 9 1.45 2.25 2.17 1.59 6.42 3.59 9.04 2.82 3.77 8.94 2.12 13.06 4.38 3.19 1.75 4.6 5.45 6.28 8.67 1.67 3.22 4.48 6.54 8.09 6.27.57-3.09.77-6.23.62-9.36-.18-3.16-1.45-6.16-3.6-8.5a51.903 51.903 0 01-3.8-3.47c-2.33-2.89-2.13-6.98-3.18-10.54a15.085 15.085 0 00-9.59-9.87c-3.77-1.2-8.01-.94-11.58-2.7-2.64-1.3-4.67-3.59-7.39-4.79-5.27-2.23-11.24.61-16.07 3.68" fill="#263238"/><path d="M260.82 281.41a43.95 43.95 0 0112.13 31c-.37 19.29 2.74 54.27 2.74 54.27l53.36 32.59-15.06 23.06-58.78-26.07-12.33-25.24 17.94-89.61z" fill="#4B4AA1"/><path d="M277.08 413.55s1.99-3.82-3.59-6.73h-9.07l-17.69-30.54 14.11-94.85-24.13-18.34-53.42-4.79-18.66 96 23.85 43.62 47.33 19.45 41.27-3.82z" fill="#4B4AA1"/><path d="M192.74 259.03l1.06-9.05c.05-.41.19-.8.41-1.15.22-.34.5-.64.84-.87.34-.22.73-.37 1.13-.44.41-.07.82-.05 1.21.06 13.18 10.36 26.86 15.57 41.23 11.48.93.26 1.73.88 2.22 1.72.49.85.64 1.85.4 2.79l-5.58 22.67-14.62 4.38-19.3-3.78-9.01-16.67.01-11.14z" fill="#4B4AA1"/><path d="M239 265.27c-.53.42-1.1.77-1.71 1.05-1.62.84-3.31 1.54-5.05 2.08a34.279 34.279 0 01-17.89.77 34.218 34.218 0 01-15.83-8.38 30.645 30.645 0 01-3.67-4.05c-.42-.51-.79-1.08-1.1-1.67 1.6 1.87 3.31 3.65 5.12 5.33a35.014 35.014 0 0033.22 7.5c2.35-.75 4.66-1.62 6.91-2.63z" fill="#4B4AA1"/><path opacity=".3" d="M195.32 256.83c-.35.87-.47 1.81-.36 2.74.12.93.47 1.82 1.02 2.58 1.11 1.5 2.49 2.8 4.05 3.83 5.17 3.85 10.56 7.68 16.77 9.45 6.21 1.78 13.48 1.1 18.23-3.26 1.38-1.25 2.4-3.59 1.02-4.79-1.08-.9-2.68-.35-3.99.15a30.569 30.569 0 01-19.94.66 30.492 30.492 0 01-16.09-11.81" fill="#4B4AA1"/><path d="M187.94 359.52l87.29 46.79-31.49 19.04-60.04-17.62c-31.84-8.39-40.54-21.65-40.23-35.31.12-4.97-.47-53.5 1.68-77.3 2.92-32.43 38.17-36.79 38.17-36.79l-.63 27.72.41 33.85 1.2 31.07c3.19-1.6 3.99 4.38 3.99 4.38l-.35 4.17z" fill="#4B4AA1"/><path d="M183.7 354.67c-.2 0-.47-11.74-.6-26.23-.13-14.48-.08-26.23.12-26.23s.48 11.74.61 26.22c.13 14.49.07 26.24-.13 26.24z" fill="#4B4AA1"/><path d="M187.64 361.11c-.11 0 .17-.57.3-1.46a5.09 5.09 0 00-.59-3.33c-.6-.99-1.52-1.75-2.61-2.14-.84-.33-1.42-.35-1.42-.46 0-.11.6-.26 1.58 0 .65.14 1.26.41 1.8.8.54.39 1 .88 1.33 1.45.34.58.56 1.21.64 1.87a4.7 4.7 0 01-.18 1.97c-.33.91-.79 1.36-.85 1.3z" fill="#4B4AA1"/><path d="M187.64 361.11c.05.05.1.1.16.14.16.12.33.23.5.33.46.28 1.2.66 2.05 1.2 1.8.98 4.41 2.39 7.65 4.04l25.44 13.04 25.46 13.01 7.69 3.99 2.07 1.13c.25.11.48.25.69.43-.26-.07-.52-.17-.76-.3l-2.14-.99-7.79-3.85c-6.57-3.22-15.58-7.74-25.56-12.82-9.98-5.08-18.9-9.74-25.34-13.18-6.43-3.43-10.35-5.88-10.12-6.17zM183.34 294.23c-.12 0-.3-1.97-.77-5.12-.52-4.1-1.62-8.11-3.27-11.9a23.982 23.982 0 00-7.64-9.49 33.75 33.75 0 00-4.48-2.48c.47.04.92.15 1.35.33 1.21.44 2.36 1.01 3.43 1.72 3.5 2.39 6.27 5.71 8 9.58a39 39 0 013.13 12.18c.18 1.6.25 2.9.29 3.79.05.46.03.93-.04 1.39z" fill="#4B4AA1"/><path opacity=".3" d="M263.45 400.86c2.9-5.57 2.18-12.31.55-18.37-1.63-6.07-4.13-11.98-4.6-18.24-.41-5.42.73-10.78 1.82-16.16 1.09-5.38 2.15-10.78 1.58-16.17-.56-5.39-2.99-10.89-7.53-13.89 1.81 4.51 3.59 9.06 4.24 13.86.65 4.81-.14 9.98-3.08 13.85-1.5 1.97-3.53 3.6-4.5 5.87-1.31 3.03-1.12 6.46-2.08 9.5-1.05 3.35-2.98 14.54-2.98 14.54-.12.61 3.32 6.94 6.72 11.46 3.4 4.52 7.52 8.58 9.99 13.67" fill="#4B4AA1"/><path d="M263.67 400.47c-.14-.12-.26-.27-.36-.42l-.96-1.28-3.54-4.91c-3.05-4.31-7.3-10.32-12.33-17.44l-.08-.12v-.13c1.37-6.73 2.93-14.37 4.58-22.47.17-.86.35-1.72.51-2.54v-.11l.08-.08c5.08-5.1 7.97-11.98 8.05-19.17a25.76 25.76 0 00-5.54-15.19l-.06-.06v-.07c-.23-3.6-.4-6.47-.54-8.53 0-.94-.08-1.69-.1-2.27-.02-.26-.02-.52 0-.78.07.25.12.51.13.77.06.58.13 1.33.23 2.26.17 2.05.43 4.93.74 8.51v-.13c3.58 4.38 5.63 9.8 5.83 15.45.07 3.51-.59 7-1.95 10.23a29.574 29.574 0 01-6.23 9.52l.1-.18c-.17.82-.35 1.67-.52 2.54-1.68 8.08-3.26 15.74-4.65 22.46v-.25l12.05 17.57 3.38 5.02c.36.54.65.98.88 1.34.11.14.21.3.3.46z" fill="#4B4AA1"/><path opacity=".3" d="M200.3 354.43c-.87-.68-2.24.38-2.18 1.48.1.55.32 1.06.66 1.5.33.45.76.8 1.26 1.04a14.57 14.57 0 008.77 1.75c3.79-.2 7.4-1.67 10.24-4.19 1.4-1.27 2.45-2.87 3.06-4.65.6-1.79.74-3.7.41-5.56-.05-.3-.17-.59-.36-.82-.72-.73-1.91.08-2.6.82a27.762 27.762 0 01-18.67 8.59M183.28 353.82c-1.64-.7-3.46-.84-5.19-.41a8.217 8.217 0 00-4.39 2.8 2.918 2.918 0 00-.58 3.14c.28.38.67.65 1.11.8.44.15.92.17 1.37.04.88-.28 1.7-.74 2.4-1.35 1.59-1.26 3.19-2.55 4.79-3.88.23-.18.42-.41.54-.67a.583.583 0 00-.25-.75" fill="#4B4AA1"/><path d="M175.9 361.17c-.08 0 0-.7.41-1.75.59-1.34 1.47-2.54 2.57-3.5 1.11-.97 2.41-1.68 3.83-2.09.57-.22 1.19-.29 1.79-.18.06.22-2.69.65-5.12 2.83-2.44 2.18-3.28 4.79-3.48 4.69z" fill="#4B4AA1"/><path d="M295.14 477.76c-.15.15-18.45-19.17-40.88-43.03-22.42-23.86-40.48-43.4-40.33-43.55.14-.14 18.44 19.17 40.87 43.05 22.43 23.87 40.48 43.4 40.34 43.53z" fill="#455A64"/><path d="M159.74 299.23c-.48-1.97-.77-3.97-.85-5.99-.3-2.02-.38-4.07-.24-6.1.48 1.96.77 3.97.85 5.99.3 2.02.38 4.06.24 6.1zM166.44 319.16c.15-3.84.72-7.66 1.69-11.38-.16 3.84-.72 7.66-1.69 11.38zM153.69 332.65c-.41-1.97-.62-3.98-.62-5.99-.2-1.99-.2-4 0-5.99.42 1.97.63 3.98.62 5.99.2 1.99.2 4 0 5.99zM172.18 349.52a20.466 20.466 0 01-2.58-4.4c-.86-1.47-1.53-3.05-2.01-4.68 1.03 1.36 1.9 2.84 2.57 4.4.86 1.47 1.54 3.04 2.02 4.68zM157.91 359.63c-.97 1.05-2.08 1.95-3.31 2.67-1.09.89-2.3 1.61-3.59 2.16a14.47 14.47 0 013.3-2.68c1.09-.88 2.3-1.61 3.6-2.15zM186.79 368.03c-.77-1.02-1.37-2.15-1.77-3.36-.59-1.12-1-2.34-1.2-3.59.77 1.01 1.36 2.15 1.76 3.35.59 1.13 1 2.34 1.21 3.6zM217.7 381.3a34.06 34.06 0 01-5.99-2.56c-1.98-.86-3.88-1.91-5.66-3.13 2.08.66 4.09 1.52 5.99 2.56 1.99.86 3.88 1.91 5.66 3.13zM225.07 398.14c.54-1.44 1.27-2.8 2.18-4.05a17.9 17.9 0 012.69-3.72 17.43 17.43 0 01-2.17 4.06c-.73 1.35-1.64 2.6-2.7 3.71zM239.55 412.05c-.24-2.2-.27-4.42-.1-6.63-.03-2.22.15-4.44.54-6.63.24 2.21.27 4.44.09 6.65.03 2.22-.14 4.43-.53 6.61zM193.5 272.82c-1.56-.29-3.07-.85-4.44-1.64-1.47-.62-2.82-1.49-3.99-2.56 1.47.54 2.9 1.21 4.26 2 1.45.6 2.85 1.34 4.17 2.2zM171.77 276.44c-1.3-.45-2.51-1.1-3.6-1.94-1.19-.66-2.27-1.49-3.21-2.47 1.29.46 2.51 1.11 3.6 1.94 1.19.65 2.27 1.49 3.21 2.47zM192.82 302.09c.52-2 1.23-3.95 2.13-5.81.72-1.94 1.63-3.8 2.72-5.56-.53 2-1.24 3.95-2.15 5.81-.71 1.94-1.62 3.8-2.7 5.56zM196.82 328.24a44.095 44.095 0 01-3.09-4.92 44.4 44.4 0 01-3-5 19.51 19.51 0 013.52 4.66 20.22 20.22 0 012.57 5.26zM219.64 299.4a22.471 22.471 0 01-3.92 3.5 21.835 21.835 0 01-4.31 3.02c1.17-1.31 2.49-2.49 3.93-3.51 1.31-1.17 2.75-2.18 4.3-3.01zM216.9 286.29a62.098 62.098 0 01-6.33-10.79c1.31 1.63 2.46 3.37 3.44 5.22 1.14 1.75 2.11 3.62 2.89 5.57zM235.15 275.53c-.51 1.64-1.22 3.22-2.1 4.69-.7 1.58-1.59 3.06-2.65 4.41a21.66 21.66 0 012.09-4.69c.71-1.57 1.6-3.06 2.66-4.41zM215.63 267.78c.09-1.06.25-2.12.49-3.15.03-1.07.14-2.13.32-3.18.44 1.03.55 2.17.3 3.26a5.523 5.523 0 01-1.11 3.07zM232.25 266.93a7.5 7.5 0 01-2.7-1.54c-1.4-.99-2.4-1.9-2.4-2.05.99.34 1.91.87 2.71 1.55 1.44.98 2.49 1.89 2.39 2.04zM201.5 255.76c0 .18-.8.31-1.79.31-1 0-1.79-.13-1.79-.31s.8-.31 1.79-.31c.98 0 1.79.14 1.79.31zM253.36 284.79c-2.94-2.39-5.6-5.1-7.94-8.08a52.3 52.3 0 017.94 8.08zM243.18 310.95c.14-4.17.95-8.29 2.4-12.2-.21 2.06-.57 4.11-1.07 6.12-.3 2.05-.74 4.09-1.33 6.08zM230.93 322.97c-.56-2.29-.99-4.6-1.26-6.94-.47-2.3-.79-4.64-.96-6.98a31.89 31.89 0 011.58 6.89c.47 2.31.68 4.67.64 7.03zM214.79 339.8a20.2 20.2 0 01-3.02-5.02c-.95-1.72-1.64-3.58-2.06-5.5.99 1.68 1.87 3.43 2.62 5.23.94 1.7 1.76 3.47 2.46 5.29zM204.07 349.78c-2.04-.28-4.05-.76-5.99-1.44-2.01-.48-3.97-1.15-5.84-2.02 2.04.27 4.05.75 5.99 1.42 2.01.48 3.96 1.17 5.84 2.04zM212.27 360.73c-.96.94-1.99 1.81-3.08 2.6-.94.96-1.95 1.85-3.02 2.67 1.4-2.38 3.54-4.23 6.1-5.27zM226.64 373.74c-.89-3.59-1.36-7.27-1.43-10.96.54 1.77.88 3.59 1.02 5.44.34 1.82.48 3.67.41 5.52zM242.99 369.32c-3.03-.63-5.85-2-8.21-4 1.43.55 2.81 1.2 4.14 1.95 1.41.57 2.77 1.26 4.07 2.05zM247.46 342.66c-1.78.92-3.61 1.72-5.49 2.4-1.79.88-3.64 1.65-5.53 2.29 1.62-1.2 3.4-2.16 5.29-2.86 1.81-.88 3.74-1.5 5.73-1.83zM251.02 334.95a28.81 28.81 0 01-3.9-4.36c-1.3-1.47-2.44-3.08-3.4-4.79 1.45 1.31 2.75 2.77 3.89 4.36 1.31 1.47 2.45 3.07 3.41 4.79zM241.7 389.31c-.47-1.14-.76-2.35-.84-3.59-.28-1.22-.36-2.48-.23-3.73a22.77 22.77 0 011.07 7.37v-.05zM267.88 365.73a28.723 28.723 0 01-4.02-4.23 27.892 27.892 0 01-3.6-4.63c2.85 2.66 5.39 5.63 7.59 8.86h.03zM266.18 351.35a23.5 23.5 0 011.84-5.16c.61-1.73 1.41-3.38 2.39-4.93-.41 1.79-1.03 3.52-1.84 5.17-.61 1.72-1.41 3.37-2.39 4.92zM268.15 325.21a17.335 17.335 0 01-3.03-3.59 18.496 18.496 0 01-2.53-3.96c1.16 1.06 2.18 2.27 3.03 3.6 1.01 1.2 1.86 2.53 2.53 3.95zM264.95 301.65a29.527 29.527 0 01-4.07-4.51 28.81 28.81 0 01-3.6-4.91c2.86 2.88 5.42 6.03 7.66 9.42h.01zM272.53 390.6c.71-1.83 1.61-3.57 2.69-5.2.9-1.74 1.98-3.39 3.22-4.9-1.6 3.57-3.58 6.95-5.91 10.1zM287.63 400.9c-1.6-4.16-2.8-8.45-3.6-12.83.9 2.04 1.61 4.16 2.12 6.34.7 2.11 1.19 4.28 1.48 6.49zM304.91 398.17c-1.39-2.22-2.4-4.65-3-7.19.77 1.05 1.37 2.21 1.78 3.45.6 1.17 1.02 2.44 1.22 3.74z" fill="#FAFAFA"/><path d="M266.55 419.46l93.2-45.35c4.68-2.27 9.85-3.33 15.05-3.08 5.2.25 10.25 1.81 14.69 4.52a30.95 30.95 0 019.6 9.22c2.5 3.73 4.16 7.95 4.86 12.38.7 4.44.44 8.97-.78 13.29a31.198 31.198 0 01-6.27 11.74l-40.4 47.28-103.15 14.26-9.65-58.42 11.51-17.64 11.34 11.8z" fill="#263238"/><path d="M322.87 438.8c-.36.37-.76.68-1.2.94-.76.57-1.88 1.36-3.28 2.32-2.8 1.92-6.73 4.47-11.16 7.19-4.44 2.72-8.53 4.95-11.54 6.52-1.5.79-2.72 1.41-3.6 1.82-.43.24-.89.43-1.36.57.36-.32.76-.6 1.2-.82l3.46-2.02c2.93-1.7 6.98-4.03 11.42-6.7 4.43-2.68 8.38-5.16 11.25-6.95l3.41-2.12c.43-.32.9-.57 1.4-.75z" fill="#455A64"/><path d="M125.93 442.27s9.26-44.73 14.03-51.6c4.77-6.88 14.81-22.28 27.55-23.87 12.75-1.58 38.66 13.65 43.4 19.64 11.98 15.14 87.38 95 86.46 93.95l-24.32 16.77-25.69-8.14h-73.77s-51.05-8.63-47.66-46.75z" fill="#263238"/><path d="M247.31 489.02c-.37.01-.75-.01-1.12-.06-1.08-.09-2.15-.26-3.2-.51-3.87-.94-7.63-2.27-11.23-3.97a168.394 168.394 0 01-33.22-20.78c-12.17-9.32-22.76-18.37-29.71-25.61a73.961 73.961 0 01-7.71-9.06c-.64-.87-1.22-1.79-1.73-2.75-.2-.31-.38-.64-.52-.99.24.29.45.6.64.92.43.6.95 1.56 1.84 2.65 2.4 3.14 5.03 6.1 7.85 8.87a307.95 307.95 0 0029.79 25.38 176.46 176.46 0 0032.99 20.91c3.56 1.71 7.26 3.11 11.07 4.15 1.04.28 2.1.49 3.16.64.37.04.74.11 1.1.21zM214.27 479.04c-.3.22-.62.41-.94.58l-2.82 1.56c-1.2.66-2.81 1.28-4.62 2.09-.9.42-1.93.7-2.99 1.09-1.05.4-2.16.82-3.39 1.08a67.054 67.054 0 01-17.3 2.58c-7.17.16-14.33-.77-21.24-2.75a65.838 65.838 0 01-19.34-9.17c-1.32-1-2.65-1.9-3.86-2.9a27.71 27.71 0 01-3.25-3.25c-1.75-2.1-3.27-4.38-4.54-6.8a35.767 35.767 0 01-3.84-11.17c-.18-1.06-.27-2.12-.28-3.2a6.98 6.98 0 010-1.12c.1 0 0 1.55.54 4.27.74 3.84 2.1 7.54 4 10.95a40.34 40.34 0 004.54 6.66 27.91 27.91 0 003.18 3.16c1.19.98 2.52 1.86 3.83 2.85a66.423 66.423 0 0019.17 9.03 72.853 72.853 0 0021.02 2.77c5.81-.07 11.58-.88 17.18-2.4 1.2-.26 2.31-.71 3.38-1.03 1.07-.32 2.07-.62 2.97-1.03 1.81-.78 3.42-1.35 4.66-1.98l2.86-1.42c.35-.18.71-.33 1.08-.45z" fill="#455A64"/><path d="M219.04 477.43s-16.68 6.78-14.94 14.55c1.74 7.78 10.35 11.37 19.04 10.55 8.68-.83 24.69-8 24.69-8l8.24-4.36s-10.01-.15-15.07-1.97c-5.85-2.1-21.96-10.77-21.96-10.77z" fill="#9E22E9"/><path d="M239.66 491.05l59.14 9.31 124.98-12.44-68.51-18.77-115.58 16.62c-.63.09-1.22.41-1.64.9-.42.48-.66 1.11-.66 1.76.01.63.24 1.24.66 1.72.41.48.98.8 1.61.9z" fill="#455A64"/><path d="M314.74 406.21l-14.38 84.67c-.19 1.11-.12 2.25.21 3.33a7.264 7.264 0 004.44 4.75c1.05.4 2.18.55 3.31.44l115.41-11.5c1.59-.16 3.08-.83 4.25-1.91a7.284 7.284 0 002.23-4.08l15.58-85.71c.2-1.12.14-2.27-.18-3.37-.32-1.09-.89-2.1-1.67-2.93a7.22 7.22 0 00-2.8-1.88c-1.06-.4-2.21-.55-3.34-.43l-116.7 12.54a7.33 7.33 0 00-4.2 1.98 7.33 7.33 0 00-2.16 4.1z" fill="#455A64"/><path d="M237.39 488.4a.86.86 0 01.32 0l.91.11 3.51.49 13.03 1.95 44.17 6.83-.42.3c.73-4.42 1.49-9.01 2.27-13.7 3.47-20.84 6.62-39.68 8.91-53.4 1.2-6.78 2.12-12.29 2.79-16.16l.79-4.38c.1-.47.17-.86.23-1.14.01-.14.05-.27.09-.4.02.14.02.27 0 .41 0 .3-.09.67-.15 1.2-.16 1.05-.38 2.53-.66 4.41-.61 3.88-1.49 9.4-2.55 16.19-2.24 13.72-5.31 32.59-8.71 53.43-.78 4.7-1.53 9.29-2.27 13.71l-.06.35h-.36l-44.12-7.1-13-2.15-3.49-.61-.9-.18c-.17-.12-.34-.15-.33-.16z" fill="#263238"/><path d="M386.86 442.89c0 4.59-3.32 8.31-7.42 8.31s-7.41-3.72-7.41-8.31 3.31-8.39 7.41-8.39 7.42 3.79 7.42 8.39z" fill="#FAFAFA"/><path d="M301.5 434.98c-4.07-3.65.5-7.92-6.87-14.86-5.48-5.19-15.9-14.08-36.08-20.83l-12.61 22.57 21.98 7.11-.2 14.37c-.02.71.11 1.4.37 2.05.26.66.65 1.25 1.15 1.74.49.5 1.08.89 1.73 1.16.65.26 1.35.4 2.05.39l11.42-.15s-3.33 14.09-2.78 14.95c.3.48.73.86 1.24 1.1.5.25 1.07.34 1.63.28.56-.06 1.09-.27 1.53-.62.45-.34.78-.8.98-1.33.45-1.91 9.85-24.66 9.85-24.66s6.13 5.3 7.01 2.27c-.02-.04 1.66-1.88-2.4-5.54z" fill="#FFBE9D"/><path d="M270.78 448.99c0-.09.54-.43 1.28-1.2.98-.97 1.72-2.16 2.17-3.46.45-1.3.61-2.69.46-4.05-.13-1.06-.37-1.69-.29-1.73.37.48.6 1.05.67 1.66.28 1.43.18 2.92-.31 4.3a7.959 7.959 0 01-2.4 3.59c-.44.43-.98.73-1.58.89zM278.11 448.51c1.04-1.3 1.8-2.8 2.21-4.41.41-1.61.48-3.29.19-4.92.07 0 .32.5.5 1.42.21 1.21.15 2.45-.15 3.64-.31 1.19-.86 2.3-1.62 3.26-.6.73-1.08 1.06-1.13 1.01zM286.97 440.25c.07 0 .21.46.23 1.2 0 1.02-.2 2.04-.6 2.98-.4.94-.99 1.79-1.73 2.5-.57.52-1.02.74-1.05.69a16.87 16.87 0 002.27-3.41c.45-1.28.74-2.61.88-3.96z" fill="#EB996E"/><path d="M199.96 240.28c-.1.02-.2.02-.3 0l-.91-.12c-.5-.06-.98-.17-1.45-.32-.66-.17-1.29-.4-1.91-.68-1.7-.77-3.25-1.82-4.61-3.09-1.78-1.69-3.2-3.73-4.17-5.99a16.72 16.72 0 01-1.2-4.15c-.2-1.56-.15-3.14.12-4.68.55-3.19 2.4-6.28 2.4-9.8-.11-1.8-.6-3.56-1.43-5.17-.92-1.72-1.49-3.62-1.67-5.57a7.69 7.69 0 012.45-5.51c1.51-1.45 3.22-2.66 5.09-3.59 1.82-.89 3.53-1.98 5.09-3.26 1.44-1.29 2.49-2.95 3.06-4.79 1.2-3.67 1.2-7.5 1.9-11.05.33-1.75.97-3.43 1.9-4.96.9-1.44 2.16-2.62 3.65-3.44 2.7-1.3 5.62-2.07 8.62-2.26 2.42-.17 4.82-.54 7.18-1.13 1.77-.45 3.45-1.23 4.94-2.28.94-.68 1.72-1.55 2.29-2.56.39-.68.52-1.09.56-1.07-.1.41-.25.81-.44 1.19a8.18 8.18 0 01-2.27 2.69 14.436 14.436 0 01-4.98 2.39c-2.38.62-4.8 1.02-7.25 1.2-2.91.21-5.76.99-8.39 2.28-1.4.78-2.59 1.9-3.45 3.27-.87 1.48-1.48 3.1-1.78 4.79-.73 3.47-.68 7.31-1.88 11.12a11.34 11.34 0 01-3.24 5.11c-1.6 1.31-3.34 2.43-5.2 3.35-1.81.88-3.48 2.04-4.94 3.43-.7.65-1.27 1.43-1.66 2.3-.4.87-.61 1.81-.63 2.76.13 3.79 3.13 6.9 3.07 10.78-.07 1.78-.42 3.54-1.05 5.21-.56 1.54-1.03 3.11-1.4 4.71-.28 1.49-.33 3.01-.14 4.51.18 1.39.54 2.75 1.08 4.04.9 2.26 2.27 4.29 4 5.99 1.31 1.27 2.82 2.33 4.47 3.13 1.43.59 2.94 1 4.48 1.22zM292.02 196.98c-.07 0-.07-1.13-.55-3.08-.72-2.76-2.06-5.31-3.93-7.47a17.588 17.588 0 00-10.78-5.99c-2.5-.26-4.99-.66-7.45-1.19-2.71-.71-5.06-2.39-6.59-4.72a36.834 36.834 0 01-3.41-7.38 28.65 28.65 0 00-3.3-6.65 18.579 18.579 0 00-10.29-6.77c-3.51-.98-7.23-.86-10.66.35-.26.09-.52.17-.78.22.23-.14.47-.26.73-.34.72-.31 1.47-.56 2.23-.75 2.83-.65 5.77-.62 8.59.09 4.23.99 7.99 3.42 10.64 6.86 1.43 2.1 2.58 4.37 3.41 6.77.85 2.53 1.98 4.96 3.36 7.25 1.45 2.21 3.67 3.81 6.24 4.48 2.46.68 4.99.81 7.38 1.2 3.57.59 6.88 2.23 9.52 4.71 2.63 2.48 4.47 5.69 5.27 9.22.17.76.28 1.54.33 2.32.05.29.06.58.04.87z" fill="#455A64"/><path d="M370.42 291.57c.04-6.75-1.75-13.38-5.18-19.19a37.202 37.202 0 00-14.33-13.78 37.13 37.13 0 00-19.37-4.45c-6.74.3-13.27 2.42-18.9 6.15l-15.29-3.3 4.59 14.16a37.207 37.207 0 00-5.72 16.11c-.63 5.74.09 11.55 2.09 16.97a37.316 37.316 0 009.46 14.24 37.212 37.212 0 0047.61 2.73c4.64-3.44 8.41-7.91 11.02-13.07a37.064 37.064 0 004.02-16.62v.05z" fill="#fff"/><path d="M370.42 291.57v.65c0 .42 0 1.07-.07 1.89 0 .41 0 .87-.09 1.39-.08.51-.15 1.05-.24 1.65-.08.6-.19 1.26-.29 1.94-.11.69-.36 1.4-.56 2.17-.45 1.7-1.01 3.36-1.68 4.99l-1.32 2.7c-.46.94-1.08 1.84-1.66 2.79a37.092 37.092 0 01-27.95 16.93c-1.68.14-3.38.17-5.07.09-.86-.06-1.73-.08-2.59-.17l-2.63-.41c-3.6-.68-7.08-1.89-10.32-3.59a37.072 37.072 0 01-16.26-16.48c-.43-.93-.92-1.83-1.28-2.8l-1.06-2.91c-.27-1.01-.51-2.02-.77-3.03-.23-1.03-.41-2.06-.53-3.1-.06-.53-.18-1.05-.21-1.59l-.07-1.58c-.07-1.06-.09-2.13-.06-3.2.26-6.73 2.33-13.26 5.99-18.91v.26c-1.59-4.79-3.12-9.51-4.59-14.16l-.15-.5.51.11 15.29 3.33h-.22a37.327 37.327 0 0115.89-5.91c1.34-.18 2.69-.28 4.04-.3 1.33-.06 2.63.11 3.94.16 2.51.21 5 .68 7.43 1.39 4.42 1.31 8.55 3.43 12.19 6.26a37.83 37.83 0 018.08 8.53c3.12 4.62 5.17 9.89 5.99 15.41.12.96.28 1.79.31 2.54.02.74 0 1.35 0 1.87v1.13c.01.13.01.26 0 .39-.01-.13-.01-.26 0-.39 0-.27 0-.64-.09-1.13-.08-.49-.06-1.13-.09-1.86-.04-.73-.23-1.57-.36-2.53a36.87 36.87 0 00-14.14-23.62c-3.61-2.77-7.7-4.85-12.07-6.12-2.4-.7-4.85-1.15-7.33-1.36-1.29 0-2.58-.2-3.89-.14-1.33.03-2.65.13-3.97.31-5.6.72-10.95 2.73-15.64 5.86H312.6l-15.29-3.31.36-.38 4.57 14.25v.15l-.07.12a36.746 36.746 0 00-5.87 18.6c-.03 1.05-.01 2.1.06 3.14l.07 1.57c0 .52.13 1.03.19 1.55.2 1.01.24 2.06.53 3.05.29 1 .48 1.99.76 2.98.27 1 .69 1.92 1.03 2.87.33.94.85 1.84 1.25 2.75a36.495 36.495 0 0016 16.25c3.19 1.67 6.61 2.86 10.16 3.52l2.57.41c.85.1 1.71.1 2.55.18 1.68.07 3.35.05 5.02-.08 5.58-.48 10.96-2.23 15.76-5.1 4.8-2.88 8.88-6.8 11.94-11.49.58-.96 1.2-1.84 1.67-2.76l1.31-2.68c.69-1.6 1.26-3.24 1.73-4.92.2-.76.39-1.47.59-2.14.19-.68.21-1.33.31-1.93.09-.6.19-1.2.27-1.66.09-.45.07-.97.11-1.37.06-.82.11-1.44.14-1.89.04-.44.1-.63.1-.63z" fill="#9E22E9"/><path d="M330.72 277.82s0-.43-.28-1.2c-.3-1.04-.94-1.95-1.82-2.59-.63-.46-1.37-.76-2.15-.87a4.85 4.85 0 00-2.3.25c-.64.23-1.21.6-1.68 1.08-.48.47-.85 1.05-1.08 1.68-.24.63-.34 1.3-.29 1.97.05.68.24 1.33.56 1.92.33.59.77 1.11 1.31 1.51.54.4 1.16.68 1.82.83.66.14 1.34.14 2 0a4.89 4.89 0 001.81-.83c.87-.64 1.51-1.55 1.82-2.59.22-.74.22-1.2.28-1.2.09.4.09.8 0 1.2a4.955 4.955 0 01-1.8 2.87 5.177 5.177 0 01-4.91.82 5.229 5.229 0 01-2.53-1.91c-.63-.88-.97-1.94-.97-3.02s.34-2.14.97-3.02a5.17 5.17 0 012.53-1.91c.82-.29 1.7-.37 2.56-.23.86.14 1.67.5 2.35 1.04a5.01 5.01 0 011.8 2.88c.11.43.11.88 0 1.32zM330.72 304.63c0 .98-.29 1.94-.84 2.75a4.96 4.96 0 01-2.22 1.83c-.91.38-1.91.47-2.87.28a5 5 0 01-2.54-1.35c-.69-.7-1.16-1.58-1.36-2.54-.19-.97-.09-1.96.29-2.87.37-.91 1.01-1.68 1.82-2.23.82-.54 1.78-.83 2.76-.83 1.31 0 2.58.52 3.51 1.45.93.93 1.45 2.19 1.45 3.51zM346.46 304.63c-.06 0-.06-.45-.28-1.2-.3-1.04-.94-1.95-1.82-2.59-.69-.52-1.52-.83-2.39-.91-.87-.07-1.74.09-2.52.48s-1.43.99-1.89 1.73c-.45.75-.7 1.6-.7 2.47 0 .87.25 1.72.7 2.47.46.74 1.11 1.34 1.89 1.73.78.39 1.65.55 2.52.48.87-.08 1.7-.39 2.39-.91.88-.64 1.52-1.55 1.82-2.59.22-.74.22-1.2.28-1.2.09.4.09.81 0 1.2a4.98 4.98 0 01-1.78 2.88c-.69.54-1.5.89-2.36 1.04-.86.14-1.75.06-2.57-.23a5.17 5.17 0 01-2.53-1.91c-.63-.88-.97-1.94-.97-3.02s.34-2.14.97-3.02a5.17 5.17 0 012.53-1.91c.82-.29 1.71-.37 2.57-.22.86.14 1.67.5 2.36 1.03a4.98 4.98 0 011.78 2.88c.11.43.11.89 0 1.32z" fill="#9E22E9"/><path d="M325.76 282.78c.31 2.81.41 5.65.31 8.48.1 2.83 0 5.66-.31 8.47a55.71 55.71 0 01-.31-8.47c-.11-2.83-.01-5.67.31-8.48zM334.59 289.16c-1.47-.78-2.83-1.75-4.06-2.86a.31.31 0 01-.09-.22c0-.09.03-.16.09-.22 1.25-1.11 2.59-2.11 4.01-3 .16.17-1.47 1.74-3.59 3.49v-.49c1.34.95 2.56 2.06 3.64 3.3z" fill="#9E22E9"/><path d="M330.72 285.98c1.02-.18 2.06-.25 3.1-.22 1.94 0 4.64-.08 7.68-.1.08 0 .16.03.22.09.05.06.09.13.09.21v1.45c0 3.38 0 6.45-.09 8.66.03 1.21-.04 2.41-.22 3.6-.18-1.19-.25-2.39-.22-3.6 0-2.21-.09-5.28-.09-8.66v-1.45l.31.3c-3.04 0-5.74 0-7.68-.09-1.04.02-2.07-.04-3.1-.19z" fill="#9E22E9"/></svg>